<?xml version="1.0" encoding="utf-8"?>
<!-- Generator: Adobe Illustrator 16.0.0, SVG Export Plug-In . SVG Version: 6.00 Build 0)  -->
<!DOCTYPE svg PUBLIC "-//W3C//DTD SVG 1.1//EN" "http://www.w3.org/Graphics/SVG/1.1/DTD/svg11.dtd">
<svg version="1.1" id="Layer_1" xmlns="http://www.w3.org/2000/svg" xmlns:xlink="http://www.w3.org/1999/xlink" x="0px" y="0px"
	 width="249.336px" height="160px" viewBox="0 0 249.336 160" enable-background="new 0 0 249.336 160" xml:space="preserve">
<path fill="#DBF7FC" stroke="#416B6D" stroke-width="0.933" stroke-linecap="round" stroke-miterlimit="10" d="M123.17,31.639
	c0,0,5.391,10.416,15.811,3.845c10.418-6.569,6.571-18.276,6.571-18.276s-5.813,6.824-11.618,10.698
	C128.132,31.778,123.17,31.639,123.17,31.639z"/>
<polygon fill="#E83658" stroke="#3A2609" stroke-miterlimit="10" points="107.284,20.555 97.485,20.143 105.351,27.341 "/>
<polygon fill="#E83658" stroke="#3A2609" stroke-miterlimit="10" points="106.045,23.514 98.687,29.997 109.346,29.751 "/>
<line fill="none" stroke="#3A2609" stroke-linecap="round" stroke-miterlimit="10" x1="133.188" y1="54.446" x2="145.812" y2="80.555"/>
<line fill="none" stroke="#3A2609" stroke-linecap="round" stroke-miterlimit="10" x1="135.189" y1="52.513" x2="151.811" y2="77.487"/>
<path fill="#DBF7FC" stroke="#416B6D" stroke-width="0.933" stroke-linecap="round" stroke-miterlimit="10" d="M171.066,43.592
	c0,0-24.467,0-26.836-12.628c-2.367-12.628-13.153-26.045-28.938-20.784c-4.989,1.715-19.469,17.364,5.13,39.2
	C145.021,71.215,171.066,43.592,171.066,43.592z"/>
<g>
	<g>
		<path fill="none" stroke="#3A2609" stroke-width="0.933" stroke-linecap="round" stroke-miterlimit="10" d="M163.729,46.252
			c0.729-0.579,1.123-0.935,1.123-0.935s-0.541-0.042-1.455-0.158"/>
		
			<path fill="none" stroke="#3A2609" stroke-width="0.933" stroke-linecap="round" stroke-miterlimit="10" stroke-dasharray="2.8779,2.8779" d="
			M160.555,44.72c-6.302-1.142-17.4-4.269-18.261-12.201c-1.208-11.127-11.222-23.515-25.353-20.024
			c-5.789,0.742-16.654,13.749,3.326,34.39c16.348,16.889,35.792,5.091,42.321,0.244"/>
	</g>
</g>
<circle fill="#FFFFFF" stroke="#3A2609" stroke-width="0.933" stroke-linecap="round" stroke-miterlimit="10" cx="121.752" cy="20.962" r="4.372"/>
<circle fill="#3A2609" cx="120.106" cy="21.195" r="2.27"/>
<path fill="#DBF7FC" stroke="#416B6D" stroke-width="0.933" stroke-linecap="round" stroke-miterlimit="10" d="M124.233,31.131
	c0,0-0.117,11.726,12.167,10.801c12.283-0.924,14.365-13.07,14.365-13.07s-8.332,3.306-15.274,4.01
	C128.552,33.577,124.233,31.131,124.233,31.131z"/>
<path fill="#416B6D" d="M72.395,10.797c0.148,1.146,0.169,2.577,1.271,4.044c0.846,1.121,1.799,2.137,2.455,3.037
	c0.865,1.183,1.473,2.604,1.473,4.023c0.002,2.262-1.046,4.544-1.766,5.871c-0.113,0.005-0.228,0.012-0.342,0.018
	c0.507-1.246,1.519-3.229,1.436-5.317c-0.043-1.171-0.464-2.436-1.182-3.4c-0.801-1.124-2.157-2.073-3.346-2.171
	c0,4.317,0,8.638,0,12.957c0,1.024-0.574,1.97-1.403,2.637c-0.804,0.672-1.864,1.02-2.794,0.921
	c-0.592-0.061-1.141-0.335-1.52-0.718c-0.4-0.387-0.632-0.903-0.632-1.471c0-0.897,0.589-1.723,1.39-2.333
	c0.802-0.631,1.818-1.042,2.666-1.023c0.741,0.018,1.393,0.121,1.775,0.507c0-5.862,0-11.725,0-17.587
	C72.05,10.792,72.223,10.793,72.395,10.797z"/>
<path fill="#416B6D" d="M49.369,5.468v1.038v0.102v0.624v1.136v12.891c-0.333-0.325-0.876-0.42-1.524-0.42
	c-0.739,0-1.629,0.382-2.331,0.977c-0.703,0.573-1.222,1.359-1.222,2.146c0,0.497,0.204,0.918,0.555,1.207
	c0.333,0.286,0.814,0.457,1.333,0.457c0.814,0,1.739-0.344,2.443-0.918c0.722-0.573,1.247-1.344,1.247-2.208V8.267l10.226-2.283
	v12.873c-0.333-0.326-0.876-0.42-1.523-0.42c-0.739,0-1.628,0.384-2.33,0.978c-0.704,0.574-1.223,1.36-1.223,2.146
	c0,0.498,0.204,0.918,0.556,1.206c0.333,0.286,0.812,0.458,1.332,0.458c0.814,0,1.739-0.344,2.443-0.918
	c0.721-0.575,1.244-1.344,1.244-2.208V5.884V4.747V4.124V4.102V2.984L49.369,5.468z M60.095,4.849L49.869,7.127V6.506l10.226-2.281
	V4.849z"/>
<g>
	<path fill="none" stroke="#B5DC87" stroke-width="2.1326" stroke-miterlimit="10" d="M41.958,95.251c0,0,43.14-30.966,82.63-16.011
		c39.49,14.955,113.553,19.334,113.553,19.334"/>
	<path fill="#416B6D" stroke="#B5DC87" stroke-width="2.1326" stroke-miterlimit="10" d="M42.259,95.221
		c0,0,0.749,11.077-6.592,14.209c-7.34,3.133-16.497-1.238-23.945,0.469c-7.448,1.705,9.804-7.094,15.326-7.174
		C32.568,102.646,42.259,95.221,42.259,95.221z"/>
</g>
<g>
	<path fill="none" stroke="#B5DC87" stroke-width="2.1326" stroke-miterlimit="10" d="M70.507,103.678
		c0,0,33.146-29.161,66.304-18.404c44.28,14.367,112.525-1.096,112.525-1.096"/>
	<path fill="#416B6D" stroke="#B5DC87" stroke-width="2.1326" stroke-miterlimit="10" d="M70.752,103.634
		c0,0,1.492,9.011-4.262,12.043c-5.754,3.034-13.589,0.048-19.545,1.921c-5.955,1.875,7.453-6.432,11.963-6.851
		C63.417,110.33,70.752,103.634,70.752,103.634z"/>
</g>
<path fill="none" stroke="#86BA9C" stroke-width="1.5995" stroke-miterlimit="10" d="M249.336,86.844
	c-30.924,14.93-101.645-4.824-116.709,4.803c-10.545,6.738-13.018,19.889-5.521,29.367c5.246,6.637,15.484,8.191,22.867,3.476
	c5.166-3.302,6.377-9.745,2.704-14.392c-2.569-3.25-7.588-4.015-11.204-1.703c-2.533,1.619-3.125,4.774-1.326,7.051
	c1.263,1.596,3.719,1.969,5.492,0.836c1.24-0.795,1.53-2.34,0.648-3.456"/>
<circle fill="#E83658" stroke="#73D100" stroke-width="0.5175" stroke-miterlimit="10" cx="90.629" cy="122.039" r="3.446"/>
<circle fill="#E83658" stroke="#73D100" stroke-width="0.5175" stroke-miterlimit="10" cx="87.64" cy="133.017" r="3.073"/>
<circle fill="#E83658" stroke="#73D100" stroke-width="0.5175" stroke-miterlimit="10" cx="98.726" cy="109.728" r="4.755"/>
<circle fill="#E83658" stroke="#73D100" stroke-width="0.2559" stroke-miterlimit="10" cx="109.835" cy="139.981" r="1.704"/>
<circle fill="#E83658" stroke="#73D100" stroke-width="0.5175" stroke-miterlimit="10" cx="119.701" cy="148.691" r="3.074"/>
<circle fill="#E83658" stroke="#73D100" stroke-width="0.4104" stroke-miterlimit="10" cx="106.719" cy="125.828" r="3.771"/>
</svg>
