<?xml version="1.0" encoding="utf-8"?>
<!-- Generator: Adobe Illustrator 16.0.0, SVG Export Plug-In . SVG Version: 6.00 Build 0)  -->
<!DOCTYPE svg PUBLIC "-//W3C//DTD SVG 1.1//EN" "http://www.w3.org/Graphics/SVG/1.1/DTD/svg11.dtd">
<svg version="1.1" id="Layer_1" xmlns="http://www.w3.org/2000/svg" xmlns:xlink="http://www.w3.org/1999/xlink" x="0px" y="0px"
	 width="249.336px" height="160px" viewBox="0 0 249.336 160" enable-background="new 0 0 249.336 160" xml:space="preserve">
<g>
	<g>
		<path fill="none" stroke="#B5DC87" stroke-width="2.1326" stroke-miterlimit="10" d="M41.958,95.251
			c0,0,43.14-30.966,82.63-16.011c39.49,14.955,113.553,19.334,113.553,19.334"/>
		<path fill="#416B6D" stroke="#B5DC87" stroke-width="2.1326" stroke-miterlimit="10" d="M42.259,95.221
			c0,0,0.749,11.077-6.592,14.209c-7.34,3.133-16.497-1.238-23.945,0.469c-7.448,1.705,9.804-7.094,15.326-7.174
			C32.568,102.646,42.259,95.221,42.259,95.221z"/>
	</g>
	<g>
		<path fill="none" stroke="#B5DC87" stroke-width="2.1326" stroke-miterlimit="10" d="M70.507,103.678
			c0,0,33.146-29.161,66.304-18.404c44.28,14.367,112.525-1.096,112.525-1.096"/>
		<path fill="#416B6D" stroke="#B5DC87" stroke-width="2.1326" stroke-miterlimit="10" d="M70.752,103.634
			c0,0,1.492,9.011-4.262,12.043c-5.754,3.034-13.589,0.048-19.545,1.921c-5.955,1.875,7.453-6.432,11.963-6.851
			C63.417,110.33,70.752,103.634,70.752,103.634z"/>
	</g>
	<path fill="none" stroke="#86BA9C" stroke-width="1.5995" stroke-miterlimit="10" d="M249.336,86.844
		c-30.924,14.93-101.645-4.824-116.709,4.803c-10.545,6.738-13.018,19.888-5.521,29.367c5.246,6.637,15.484,8.191,22.867,3.475
		c5.166-3.301,6.377-9.745,2.704-14.391c-2.569-3.25-7.588-4.015-11.204-1.703c-2.533,1.619-3.125,4.774-1.326,7.051
		c1.262,1.595,3.718,1.968,5.492,0.835c1.24-0.794,1.53-2.339,0.648-3.456"/>
	<circle fill="#E83658" stroke="#73D100" stroke-width="0.5175" stroke-miterlimit="10" cx="90.629" cy="122.039" r="3.446"/>
	<circle fill="#E83658" stroke="#73D100" stroke-width="0.5175" stroke-miterlimit="10" cx="87.64" cy="133.017" r="3.073"/>
	<circle fill="#E83658" stroke="#73D100" stroke-width="0.5175" stroke-miterlimit="10" cx="98.726" cy="109.728" r="4.755"/>
	<circle fill="#E83658" stroke="#73D100" stroke-width="0.2559" stroke-miterlimit="10" cx="109.835" cy="139.981" r="1.704"/>
	<circle fill="#E83658" stroke="#73D100" stroke-width="0.5175" stroke-miterlimit="10" cx="119.701" cy="148.691" r="3.074"/>
	<circle fill="#E83658" stroke="#73D100" stroke-width="0.4104" stroke-miterlimit="10" cx="106.719" cy="125.828" r="3.771"/>
	<polygon fill="#E83658" stroke="#3A2609" stroke-miterlimit="10" points="106.5,21.113 96.963,23.402 106.5,28.17 	"/>
	<line fill="none" stroke="#3A2609" stroke-linecap="round" stroke-miterlimit="10" x1="133.5" y1="56" x2="133.5" y2="85"/>
	<line fill="none" stroke="#3A2609" stroke-linecap="round" stroke-miterlimit="10" x1="137.5" y1="55" x2="137.5" y2="85"/>
	<path fill="#DBF7FC" stroke="#416B6D" stroke-width="0.933" stroke-linecap="round" stroke-miterlimit="10" d="M171.066,43.592
		c0,0-24.467,0-26.836-12.628c-2.367-12.628-13.153-26.045-28.938-20.784c-4.989,1.715-19.469,17.364,5.13,39.2
		C145.021,71.215,171.066,43.592,171.066,43.592z"/>
	<g>
		<g>
			<path fill="none" stroke="#3A2609" stroke-width="0.933" stroke-linecap="round" stroke-miterlimit="10" d="M163.729,46.252
				c0.729-0.579,1.123-0.935,1.123-0.935s-0.541-0.042-1.455-0.158"/>
			
				<path fill="none" stroke="#3A2609" stroke-width="0.933" stroke-linecap="round" stroke-miterlimit="10" stroke-dasharray="2.8779,2.8779" d="
				M160.555,44.72c-6.302-1.142-17.4-4.269-18.261-12.201c-1.208-11.127-11.222-23.515-25.353-20.024
				c-5.789,0.742-16.654,13.749,3.326,34.39c16.348,16.889,35.792,5.091,42.321,0.244"/>
		</g>
	</g>
	
		<circle fill="#FFFFFF" stroke="#3A2609" stroke-width="0.933" stroke-linecap="round" stroke-miterlimit="10" cx="121.752" cy="20.962" r="4.372"/>
	<circle fill="#3A2609" cx="121.106" cy="20.195" r="2.27"/>
	<path fill="#DBF7FC" stroke="#416B6D" stroke-width="0.933" stroke-linecap="round" stroke-miterlimit="10" d="M125.964,31.375
		c0,0-6.866,9.507,3.697,15.844c10.563,6.337,19.276-2.377,19.276-2.377s-8.713-2.112-14.787-5.545
		C128.077,35.865,125.964,31.375,125.964,31.375z"/>
</g>
</svg>
