<?xml version="1.0" encoding="utf-8"?>
<!-- Generator: Adobe Illustrator 16.0.0, SVG Export Plug-In . SVG Version: 6.00 Build 0)  -->
<!DOCTYPE svg PUBLIC "-//W3C//DTD SVG 1.1//EN" "http://www.w3.org/Graphics/SVG/1.1/DTD/svg11.dtd">
<svg version="1.1" id="Layer_1" xmlns="http://www.w3.org/2000/svg" xmlns:xlink="http://www.w3.org/1999/xlink" x="0px" y="0px"
	 width="204.98px" height="172.031px" viewBox="0 0 204.98 172.031" enable-background="new 0 0 204.98 172.031"
	 xml:space="preserve">
<g>
	<g>
		<g>
			<path fill="#DAF3F7" stroke="#507576" stroke-width="0.864" stroke-miterlimit="10" d="M101.121,56.061
				c3.236-1.312,6.923,0.25,8.235,3.487l25.093,61.955c1.311,3.235-0.249,6.921-3.487,8.231L98.64,142.828
				c-3.237,1.309-6.923-0.25-8.235-3.487L65.312,77.387c-1.311-3.236,0.251-6.921,3.487-8.233L101.121,56.061z"/>
			<path fill="none" stroke="#507576" stroke-width="0.864" stroke-linecap="round" stroke-miterlimit="10" d="M131.891,128.451
				c0,0-37.82-12.741-42.744-25.226c-4.924-12.485,13.086-47.994,13.086-47.994"/>
			<path fill="#DAF3F7" stroke="#507576" stroke-width="0.864" stroke-miterlimit="10" d="M103.148,140.094
				c0,0,18.292-35.469,13.138-47.862C111.134,79.838,73.49,66.874,73.49,66.874"/>
		</g>
		<g>
			<path fill="#507576" d="M90.673,128.613c0,0-0.606,0.792-0.831,0.102c0,0-0.141-0.568-0.378-1.099
				c-0.168-0.358-0.4-0.601-0.567-1.015c-0.071-0.172-0.083-0.479-0.15-0.644c-0.166-0.411-0.352-0.649-0.4-0.876
				c-0.052-0.271,0.657-0.536,0.641-0.271c0,0,0.089,1.104,0.684,1.468c0.107,0.069,0.388,0.077,0.746-0.034
				c0.152-0.037,0.356-0.275,0.543-0.344c0.177-0.06,0.355-0.01,0.55-0.076c0.594-0.22,1.179-0.456,1.734-0.658
				c1.282-0.476,3.259-1.342,3.259-1.342l0.229,0.43c0.224,0.415-6.682,2.519-6.828,2.881c0,0-0.053,0.222,0.214,0.694
				c0.087,0.155,0.24,0.149,0.405,0.362C90.578,128.27,90.604,128.527,90.673,128.613z M96.732,126.045
				c0.088,0.133,0.433-0.118,0.346-0.251C96.99,125.662,96.645,125.912,96.732,126.045z M97.515,124.665
				c0.341-0.126,0.042-0.116,0.008-0.114C97.49,124.553,97.31,124.738,97.515,124.665z"/>
			<path fill="#507576" d="M92.806,122.177c-1.988,0.807-3.187,0.195-3.664-0.985c-0.479-1.182,0.158-2.369,2.147-3.176
				c1.987-0.806,2.983-0.279,3.459,0.902c0.257,0.633,0.253,1.283-0.11,1.879c-0.058,0.102-0.239,0.154-0.321,0.254
				c-0.15,0.182-0.229,0.404-0.463,0.565C93.568,121.824,93.219,122.01,92.806,122.177z M94.113,120.987
				c0.093,0.119,0.531-0.206,0.375-0.207c-0.057,0-0.112,0-0.17,0.023C94.221,120.842,94.165,120.922,94.113,120.987z
				 M91.409,118.729c-0.948,0.227-2.38,1.053-1.913,2.203c0.467,1.155,2.104,0.861,3.005,0.497c0.904-0.366,2.474-1.372,2.008-2.524
				C94.043,117.754,93.744,118.174,91.409,118.729z"/>
			<path fill="#507576" d="M92.916,114.807c0.087,0.211,0.069,0.195,0.115,0.309c0.044,0.107,0.048,0.117,0.113,0.279
				c0.1,0.217-0.284,0.293-0.508,0.396c-0.126,0.051-0.117,0.049-0.331,0.123c-0.207,0.072-0.312-0.188-0.379-0.35
				c-0.061-0.155-0.017-0.072-0.109-0.269c-0.08-0.257,0.183-0.353,0.385-0.458C92.455,114.713,92.812,114.546,92.916,114.807z
				 M88.671,116.469c0.085,0.213,0.068,0.197,0.115,0.311c0.043,0.105,0.048,0.117,0.113,0.279c0.098,0.217-0.282,0.293-0.51,0.396
				c-0.125,0.049-0.114,0.047-0.331,0.125c-0.205,0.07-0.31-0.189-0.376-0.352c-0.061-0.155-0.019-0.07-0.108-0.27
				c-0.083-0.259,0.18-0.353,0.385-0.457C88.208,116.375,88.565,116.209,88.671,116.469z"/>
			<path fill="#507576" d="M108.976,121.479c-0.495,0.379-5.513,2.098-7.27,3.168c-0.25,0.157-0.579-0.906-0.053-1.098
				c1.704-0.623,5.134-1.812,6.212-2.74c0.34-0.293-0.68-1.871-1.152-3.121c0,0,0.166-0.169,0.302-0.225
				c0.134-0.053,0.371-0.049,0.371-0.049C107.685,119.093,108.976,121.479,108.976,121.479z M100.388,123.133
				c-0.232-0.709-0.37-1.359-0.099-1.547c0.25-0.179,0.506-0.184,0.814-0.141c0.857,0.135-0.029,1.724,0.725,2.123
				c0.186,0.102,0.429,0.342,0.571,0.17c0.099-0.119-0.204-0.398-0.044-0.441c0.049-0.018,0.123-0.004,0.151,0.018
				c0.06,0.033-0.122-0.027-0.189-0.002c-0.153,0.063,0.182,0.285,0.092,0.422c-0.126,0.187-0.369-0.054-0.564-0.151
				c-0.769-0.38,0.152-1.94-0.692-2.123c-0.316-0.063-0.58-0.078-0.855,0.101C99.799,121.897,100.786,124.36,100.388,123.133z"/>
			<path fill="#507576" d="M105.756,113.5l-0.564,0.429c0.377,0.485,1.195,0.577,1.449,1.202c0.33,0.817-0.088,1.746-0.922,2.084
				c-1.518,0.613-2.492-0.847-3.282-1.891l-0.164-0.213l-0.298,0.123c-0.604,0.242-0.95,0.549-0.516,1.402
				c0.488,0.956,1.547,0.838,1.307,1.316l-0.168,0.168c-0.021,0.277-1.453-0.44-1.78-1.246c-0.292-0.721-0.054-1.789,1.137-2.328
				l2.317-1.072c0.129-0.063,1.164-0.571,1.252-0.383L105.756,113.5z M106.561,116.372c-0.157-0.004,0.275-0.202-0.146-0.032
				l0.008,0.131C106.862,116.449,106.561,116.372,106.561,116.372z M102.839,114.937c-0.506,0.128,1.645,2.186,2.596,1.802
				c0.444-0.18,0.666-0.896,0.483-1.348c-0.241-0.596-1.229-1.35-1.475-1.16l-1.532,0.689L102.839,114.937z M102.267,117.64
				c-0.13-0.347-0.543-0.651-0.694-0.39C101.423,117.514,102.371,117.922,102.267,117.64z M102.279,115.02
				c0,0,0.911-0.124,1.038-0.307C103.469,114.48,102.272,115.111,102.279,115.02z M105.293,113.688c0,0,0.102,0.082,0.23-0.094
				C105.976,112.996,105.287,113.779,105.293,113.688z"/>
			<path fill="#507576" d="M104.627,111.158c0,0,0.314-0.027,0.379,0.103c0.072,0.151-0.172,0.405-0.172,0.405l-5.146,2.252
				c0,0-0.289-0.407-0.167-0.602c0.062-0.094,0.238-0.187,0.238-0.187l0.269-0.222c-0.534-0.297-1.049-0.569-1.292-1.175
				c-0.304-0.749-0.166-1.6,1.247-2.079c0,0,1.987-1.143,3.357-1.127c0.121-0.004,0.343,0.019,0.343,0.019l0.179,0.298
				c0,0,0.145,0.195-0.068,0.25c-0.441,0.122-1.53,0.305-2.073,0.539c-0.467,0.198-1.165,0.604-1.165,0.604
				c-0.519,0.268-1.171,0.475-1.166,1.346c0.006,0.982,0.883,0.883,1.359,1.034L104.627,111.158z"/>
			<path fill="#507576" d="M101.898,103.977l-0.562,0.43c0.376,0.484,1.195,0.577,1.449,1.203c0.33,0.816-0.087,1.746-0.922,2.083
				c-1.518,0.615-2.492-0.847-3.282-1.892l-0.164-0.211l-0.299,0.121c-0.604,0.246-0.949,0.553-0.516,1.405
				c0.487,0.952,1.548,0.837,1.306,1.315l-0.166,0.168c-0.022,0.275-1.454-0.441-1.78-1.246c-0.292-0.721-0.054-1.791,1.137-2.327
				l2.315-1.073c0.13-0.064,1.166-0.571,1.254-0.386L101.898,103.977z M102.704,106.849c-0.159-0.003,0.276-0.202-0.147-0.032
				l0.007,0.132C103.003,106.926,102.704,106.849,102.704,106.849z M98.982,105.416c-0.507,0.126,1.645,2.185,2.597,1.799
				c0.441-0.179,0.664-0.896,0.482-1.348c-0.24-0.596-1.228-1.35-1.476-1.158l-1.532,0.688L98.982,105.416z M98.412,108.116
				c-0.132-0.349-0.546-0.652-0.696-0.388C97.564,107.99,98.513,108.399,98.412,108.116z M98.422,105.497
				c0,0,0.91-0.126,1.038-0.308C99.612,104.958,98.415,105.59,98.422,105.497z M101.438,104.164c0,0,0.099,0.082,0.231-0.094
				C102.12,103.474,101.428,104.257,101.438,104.164z"/>
			<path fill="#507576" d="M97.544,93.527c0.286-0.172,0.711,0.628,0.432,0.795c-0.824,0.502-2.096,0.761-3.323,1.182
				c-1.724,0.598-3.342,1.295-3.351,1.523c-0.006,0.26,4.87-0.564,7.461-0.898c0.202-0.025,0.427,0.363,0.264,0.51
				c-0.191,0.168-1.629,1.363-2.656,2.139c-1.038,0.777-3.208,2.428-3.208,2.428c-0.125,0.385,1.844-0.578,3.002-1.003
				c0.549-0.222,3.478-1.823,3.491-1.459l0.364,0.487c0.75,0.113-3.092,1.39-3.553,1.575c-1.182,0.479-3.881,1.841-3.938,1.406
				c0,0-0.105-0.182-0.147-0.31c-0.105-0.314-0.441-0.817,0.072-0.846c0,0,5.114-3.355,4.968-4.104
				c-0.043-0.217-3.984,0.541-6.551,0.889c-0.358,0.135-0.39-0.746-0.628-1.223C90.242,96.617,94.74,94.832,97.544,93.527z"/>
			<path fill="#507576" d="M90.263,94.38c0,0,0.23,0.096,0.278,0.222c0.029,0.067,0.005,0.202,0.005,0.202s-0.096,0.315-0.262,0.405
				c-0.18,0.107-0.526,0.022-0.526,0.022s-0.117-0.12-0.156-0.191c-0.079-0.135-0.137-0.394-0.137-0.394s0.202-0.139,0.346-0.196
				C89.975,94.385,90.263,94.38,90.263,94.38z M96.919,91.572l0.304,0.749c0,0-3.052,1.103-4.985,2.044
				c-0.104,0.051-0.316,0.104-0.316,0.104S91.738,94.186,91.755,94c0.004-0.07,0.065-0.195,0.065-0.195s0.027-0.124,0.815-0.385
				C94.211,92.893,96.919,91.572,96.919,91.572z"/>
			<path fill="#507576" d="M88.395,92.363c2.893-1.004,3.872-1.645,7.404-3.112c0.232-0.093,0.7,0.679,0.379,0.797
				c-2.029,0.788-4.031,1.702-5.673,2.365c-0.172,0.069-0.421,0.396-0.617,0.462c-0.163,0.066-0.328,0.02-0.52,0.098
				c-0.555,0.203,0.211-0.195-0.586,0.071C88.506,93.135,88.114,92.466,88.395,92.363z M90.061,92.471
				c-0.471,0.08-0.721,0.014-0.626,0.253C89.533,92.965,90.311,92.426,90.061,92.471z M92.244,91.352
				c0.221-0.033-0.7,0.398-0.535,0.252c0.09-0.084,0.15-0.128,0.265-0.177C92.08,91.386,92.141,91.371,92.244,91.352z"/>
			<path fill="#507576" d="M87.279,89.606c2.892-1.005,3.872-1.648,7.404-3.112c0.229-0.093,0.7,0.678,0.379,0.796
				c-2.03,0.787-4.03,1.7-5.673,2.364c-0.173,0.071-0.423,0.394-0.617,0.461c-0.164,0.067-0.328,0.022-0.52,0.101
				c-0.556,0.202,0.211-0.197-0.586,0.07C87.389,90.376,86.997,89.709,87.279,89.606z M88.945,89.713
				c-0.472,0.08-0.722,0.014-0.626,0.254C88.417,90.205,89.194,89.668,88.945,89.713z M91.128,88.594
				c0.223-0.033-0.701,0.396-0.535,0.252c0.09-0.083,0.149-0.128,0.265-0.175C90.964,88.627,91.025,88.614,91.128,88.594z"/>
			<path fill="#507576" d="M94.729,88.543c0.058-0.023,0.115-0.023,0.168-0.023c0.158,0.003-0.28,0.326-0.374,0.205
				C94.577,88.661,94.634,88.58,94.729,88.543z M91.188,84.654c-0.472-0.334-1.125-2.416-1.125-2.416
				c-0.091-0.142-0.613,0.058-1.159,0.48c-0.075,0.063-0.452,0.261-0.515,0.33c-0.112,0.137,0.011,0.108-0.104,0.244
				c-0.219,0.256-0.418,0.482-0.342,0.753c0.021,0.081-0.186,0.232-0.188,0.277c-0.033,0.282,0.069,0.476,0.193,0.782
				c0.156,0.385,0.444,0.738,0.697,0.971c0.198,0.188,0.16,0.092,0.232,0.107c0.667,0.132,1.458,0.315,2.736-0.091
				c0.287-0.093,0.57-0.165,0.77-0.312c1.251-0.964,1.588-1.928,1.176-2.946c-0.37-0.913-2.079-1.294-1.938-0.971l-0.1,0.108
				c0.024,0.281,1.697,0.799,1.696,1.068c-0.002,0.246,0.134,1.052-0.237,1.706c-0.07,0.129-0.102,0.077-0.176,0.228
				c-0.18,0.409-0.527,0.135-1.294,0.446C91.508,85.419,91.443,84.843,91.188,84.654z M90.137,83.718
				c0.405,0.641,0.941,1.743,0.941,1.743c0.114,0.256-1.27,0.648-1.958,0.11c-0.213-0.169-0.618-0.421-0.69-0.816
				c-0.053-0.325-0.097-0.91,0.228-1.154c0.093-0.071-0.017-0.15,0.25-0.236c0.495-0.155,0.89-0.505,0.98-0.396
				C89.889,82.967,90.009,83.512,90.137,83.718z M90.142,82.843c-0.127,0.186-0.439,0.132-0.439,0.132
				C89.696,83.069,90.293,82.613,90.142,82.843z"/>
			<path fill="#507576" d="M87.138,78.275c0.317-0.05,0.725-0.035,1.106-0.056c2.245-0.116,4.842-0.082,5.791,0.963
				c0.158,0.171,0.421,0.792,0.176,0.879l-0.274,0.123c-0.318,0.04-0.34-0.287-0.34-0.454c0.006-0.976-1.497-1.486-2.014-1.052
				L87.6,82.26c0,0-1.012-0.183-0.79-0.462c0.102-0.131,0.373-0.183,0.373-0.183s3.672-2.751,3.8-3.095
				c0.147-0.384-0.206-0.039-0.206-0.039s-1.654,0.223-2.719,0.296c-0.564,0.039-0.857,0.146-1.47,0.181
				c-0.173,0.014-0.225-0.032-0.225-0.032s-0.32-0.183-0.33-0.371C86.021,78.248,86.177,78.33,87.138,78.275z M88.536,77.945
				c-0.044-0.083,0.479-0.228,0.346-0.363C88.747,77.444,88.667,78.182,88.536,77.945z"/>
		</g>
	</g>
	<polygon fill="#E83658" stroke="#3A2609" stroke-width="0.864" stroke-miterlimit="10" points="74.584,111.23 82.671,113.085 
		74.584,116.951 	"/>
	
		<line fill="none" stroke="#3A2609" stroke-width="0.864" stroke-linecap="round" stroke-miterlimit="10" x1="51.256" y1="139.025" x2="51.256" y2="163.217"/>
	
		<line fill="none" stroke="#3A2609" stroke-width="0.864" stroke-linecap="round" stroke-miterlimit="10" x1="47.8" y1="138.161" x2="47.8" y2="163.217"/>
	<path fill="#EFB789" stroke="#492D08" stroke-width="0.4826" stroke-linecap="round" stroke-miterlimit="10" d="M20.086,129.451
		c0,0,20.749,0,22.757-10.238c2.007-10.234,11.155-21.113,24.541-16.848c4.23,1.39,16.509,14.076-4.35,31.777
		C42.172,151.844,20.086,129.451,20.086,129.451z"/>
	<g>
		<g>
			<path fill="none" stroke="#3A2609" stroke-width="0.4826" stroke-linecap="round" stroke-miterlimit="10" d="M26.305,131.606
				c-0.616-0.469-0.949-0.756-0.949-0.756s0.447-0.034,1.205-0.126"/>
			
				<path fill="none" stroke="#3A2609" stroke-width="0.4826" stroke-linecap="round" stroke-miterlimit="10" stroke-dasharray="2.3973,2.3973" d="
				M28.932,130.379c5.331-0.916,14.819-3.444,15.553-9.904c1.023-9.02,9.516-19.062,21.5-16.23c4.909,0.6,14.123,11.144-2.82,27.876
				c-13.867,13.694-30.36,4.124-35.893,0.196"/>
		</g>
	</g>
	
		<ellipse fill="#FFFFFF" stroke="#3A2609" stroke-width="0.4826" stroke-linecap="round" stroke-miterlimit="10" cx="61.906" cy="111.108" rx="3.708" ry="3.544"/>
	<ellipse fill="#3A2609" cx="62.453" cy="110.485" rx="1.925" ry="1.841"/>
	<ellipse fill="#E56584" cx="58.242" cy="121.208" rx="4.759" ry="4.552"/>
	<path fill="#DD8D57" stroke="#492D08" stroke-width="0.4826" stroke-linecap="round" stroke-miterlimit="10" d="M58.333,119.549
		c0,0,5.823,7.705-3.135,12.844c-8.958,5.137-16.348-1.926-16.348-1.926s7.39-1.713,12.541-4.494
		C56.543,123.188,58.333,119.549,58.333,119.549z"/>
</g>
<g>
	<path fill="#DAF3F7" stroke="#507576" stroke-miterlimit="10" d="M-106.875,21.898c0,4.042-3.276,7.318-7.317,7.318h-77.365
		c-4.042,0-7.316-3.276-7.316-7.318v-40.363c0-4.042,3.275-7.318,7.316-7.318h77.365c4.041,0,7.317,3.276,7.317,7.318V21.898z"/>
	<path fill="none" stroke="#507576" stroke-linecap="round" stroke-miterlimit="10" d="M-197.901,23.45
		c0,0,30.103-35.033,45.635-34.891c15.533,0.142,45.799,34.891,45.799,34.891"/>
	<path fill="#DAF3F7" stroke="#507576" stroke-miterlimit="10" d="M-197.901-12.441c0,0,30.103,35.033,45.635,34.891
		c15.533-0.142,45.799-34.891,45.799-34.891"/>
</g>
<text transform="matrix(1 0 0 1 -181.1228 -12.4404)" fill="#507576" font-family="'DeGenerate'" font-size="12">To: </text>
<text transform="matrix(1 0 0 1 -181.1228 1.959)" fill="#507576" font-family="'DeGenerate'" font-size="12">Lana Milley</text>
</svg>
