<?xml version="1.0" encoding="utf-8"?>
<!-- Generator: Adobe Illustrator 16.0.0, SVG Export Plug-In . SVG Version: 6.00 Build 0)  -->
<!DOCTYPE svg PUBLIC "-//W3C//DTD SVG 1.1//EN" "http://www.w3.org/Graphics/SVG/1.1/DTD/svg11.dtd">
<svg version="1.1" id="Layer_1" xmlns="http://www.w3.org/2000/svg" xmlns:xlink="http://www.w3.org/1999/xlink" x="0px" y="0px"
	 width="204.981px" height="172.031px" viewBox="0 0 204.981 172.031" enable-background="new 0 0 204.981 172.031"
	 xml:space="preserve">
<line fill="none" stroke="#3A2609" stroke-width="0.864" stroke-linecap="round" stroke-miterlimit="10" x1="44.535" y1="120.524" x2="28.296" y2="139.606"/>
<polygon fill="#E83658" stroke="#3A2609" stroke-width="0.864" stroke-miterlimit="10" points="66.634,98.309 74.858,99.403 
	67.167,104.004 "/>
<g>
	<g>
		<path fill="#DAF3F7" stroke="#507576" stroke-width="0.864" stroke-miterlimit="10" d="M174.003,108.579
			c-0.006,3.492-2.843,6.316-6.334,6.312l-66.844-0.124c-3.492-0.007-6.316-2.843-6.31-6.335l0.063-34.873
			c0.007-3.492,2.842-6.319,6.335-6.312l66.842,0.124c3.491,0.005,6.317,2.841,6.312,6.333L174.003,108.579z"/>
		<path fill="none" stroke="#507576" stroke-width="0.864" stroke-linecap="round" stroke-miterlimit="10" d="M95.355,109.774
			c0,0,26.064-30.221,39.482-30.073c13.423,0.147,39.516,30.218,39.516,30.218"/>
		<path fill="#DAF3F7" stroke="#507576" stroke-width="0.864" stroke-miterlimit="10" d="M95.412,78.764
			c0,0,25.953,30.318,39.375,30.218c13.419-0.098,39.623-30.071,39.623-30.071"/>
	</g>
	<g>
		<path fill="#507576" d="M110.75,71.539c0,0-0.505-0.86,0.22-0.808c0,0,0.579,0.083,1.159,0.065
			c0.396-0.021,0.707-0.144,1.152-0.144c0.186,0,0.476,0.105,0.654,0.105c0.443,0,0.734-0.082,0.963-0.042
			c0.269,0.054,0.247,0.81,0.009,0.695c0,0-1.057-0.333-1.617,0.08c-0.104,0.073-0.218,0.332-0.249,0.704
			c-0.023,0.155,0.121,0.435,0.112,0.633c-0.011,0.187-0.126,0.332-0.138,0.538c-0.02,0.633-0.021,1.265-0.043,1.855
			c-0.045,1.367,0.014,3.524,0.014,3.524l-0.486,0.05c-0.469,0.051,0.189-7.137-0.092-7.409c0,0-0.186-0.134-0.725-0.063
			c-0.176,0.021-0.228,0.166-0.488,0.237C111.103,71.582,110.854,71.509,110.75,71.539z M110.841,78.12
			c-0.156,0.031-0.053,0.445,0.104,0.415C111.101,78.503,110.998,78.089,110.841,78.12z M111.826,79.365
			c-0.012,0.363,0.092,0.083,0.103,0.051C111.937,79.385,111.834,79.148,111.826,79.365z"/>
		<path fill="#507576" d="M115.906,75.942c0.003-2.145,1.021-3.024,2.295-3.021c1.274,0.001,2.133,1.039,2.129,3.186
			c-0.004,2.144-0.865,2.869-2.139,2.864c-0.685,0-1.285-0.25-1.699-0.811c-0.072-0.092-0.053-0.279-0.113-0.393
			c-0.112-0.208-0.289-0.364-0.35-0.643C115.947,76.782,115.904,76.388,115.906,75.942z M116.515,77.601
			c-0.146,0.041-0.012,0.569,0.05,0.426c0.021-0.054,0.042-0.104,0.042-0.167C116.609,77.757,116.554,77.673,116.515,77.601z
			 M119.626,75.949c0.146-0.964-0.078-2.602-1.321-2.603c-1.243-0.003-1.589,1.623-1.593,2.597
			c-0.001,0.975,0.338,2.809,1.582,2.812C119.537,78.756,119.259,78.321,119.626,75.949z"/>
		<path fill="#507576" d="M122.691,78.824c-0.229,0-0.207-0.009-0.33-0.011c-0.116,0-0.125,0-0.302,0
			c-0.238,0.011-0.164-0.373-0.175-0.621c0-0.136-0.002-0.125,0.011-0.352c0.011-0.219,0.29-0.219,0.466-0.219
			c0.167,0.001,0.074,0.012,0.291,0.001c0.268,0.022,0.258,0.302,0.279,0.529C122.951,78.433,122.97,78.825,122.691,78.824z
			 M122.752,74.266c-0.23-0.001-0.21-0.011-0.331-0.011c-0.115,0-0.127,0-0.303,0c-0.238,0.009-0.164-0.374-0.176-0.623
			c0.002-0.134,0.002-0.123,0.012-0.352c0.011-0.217,0.292-0.216,0.467-0.217c0.166,0.001,0.072,0.011,0.29,0.001
			c0.271,0.021,0.261,0.3,0.279,0.53C123.011,73.871,123.033,74.265,122.752,74.266z"/>
		<path fill="#507576" d="M110.455,91.182c-0.163-0.601,0.136-5.897-0.193-7.928c-0.051-0.291,1.058-0.195,1.037,0.365
			c-0.066,1.813-0.259,5.44,0.195,6.788c0.143,0.425,1.988,0.077,3.324,0.11c0,0,0.096,0.218,0.094,0.362
			c0,0.145-0.094,0.362-0.094,0.362C113.151,90.886,110.455,91.182,110.455,91.182z M112.161,82.604
			c0.745,0.053,1.397,0.17,1.47,0.492c0.072,0.299-0.021,0.538-0.178,0.808c-0.446,0.744-1.584-0.678-2.238-0.13
			c-0.164,0.134-0.477,0.27-0.375,0.466c0.074,0.136,0.447-0.041,0.428,0.125c-0.002,0.051-0.044,0.113-0.074,0.133
			c-0.053,0.043,0.072-0.102,0.074-0.175c0-0.165-0.334,0.062-0.426-0.073c-0.126-0.187,0.188-0.321,0.354-0.466
			c0.643-0.568,1.739,0.874,2.227,0.16c0.178-0.269,0.291-0.507,0.229-0.83C113.528,82.524,110.875,82.509,112.161,82.604z"/>
		<path fill="#507576" d="M119.059,91.208l-0.187-0.684c-0.59,0.165-0.984,0.888-1.658,0.888c-0.882-0.001-1.585-0.739-1.583-1.641
			c0.005-1.636,1.724-1.986,2.987-2.325l0.26-0.072v-0.322c0.002-0.651-0.151-1.087-1.104-1.006
			c-1.07,0.091-1.361,1.117-1.713,0.712l-0.094-0.218c-0.248-0.124,0.956-1.18,1.826-1.178c0.777,0.001,1.678,0.624,1.728,1.93
			l0.118,2.55c0.012,0.145,0.092,1.294-0.115,1.305L119.059,91.208z M116.095,90.872c0.062-0.145,0.082,0.332,0.084-0.125
			l-0.124-0.041C115.909,91.119,116.095,90.872,116.095,90.872z M118.826,87.965c0.074-0.518-2.643,0.699-2.645,1.725
			c-0.002,0.478,0.579,0.955,1.064,0.956c0.643,0.001,1.712-0.629,1.631-0.929l-0.062-1.68L118.826,87.965z M116.539,86.416
			c0.371,0.01,0.809-0.258,0.623-0.496C116.974,85.682,116.239,86.405,116.539,86.416z M118.963,87.415c0,0-0.231,0.891-0.108,1.078
			C119.012,88.721,118.878,87.374,118.963,87.415z M119.06,90.709c0,0-0.113,0.063,0,0.249
			C119.441,91.603,118.976,90.669,119.06,90.709z"/>
		<path fill="#507576" d="M121.652,91.046c0,0-0.094,0.301-0.238,0.312c-0.166,0.009-0.309-0.312-0.309-0.312l-0.146-5.616
			c0,0,0.487-0.113,0.621,0.072c0.064,0.094,0.082,0.291,0.082,0.291l0.105,0.333c0.476-0.383,0.922-0.756,1.574-0.754
			c0.809,0.002,1.543,0.45,1.458,1.94c0,0,0.307,2.271-0.224,3.534c-0.043,0.113-0.146,0.31-0.146,0.31l-0.344,0.053
			c0,0-0.236,0.062-0.206-0.157c0.055-0.455,0.294-1.532,0.283-2.124c-0.009-0.508-0.12-1.306-0.12-1.306
			c-0.051-0.581,0.002-1.264-0.807-1.587c-0.912-0.365-1.15,0.485-1.471,0.869L121.652,91.046z"/>
		<path fill="#507576" d="M129.333,91.227l-0.188-0.684c-0.59,0.165-0.984,0.89-1.658,0.888c-0.881-0.003-1.584-0.739-1.584-1.64
			c0.006-1.638,1.728-1.988,2.992-2.327l0.258-0.073v-0.321c0.002-0.653-0.154-1.087-1.105-1.008
			c-1.066,0.092-1.359,1.118-1.713,0.713l-0.092-0.218c-0.247-0.125,0.957-1.179,1.826-1.178c0.776,0.002,1.678,0.625,1.725,1.931
			l0.123,2.549c0.01,0.144,0.09,1.294-0.117,1.306L129.333,91.227z M126.37,90.89c0.062-0.145,0.083,0.332,0.085-0.124l-0.125-0.042
			C126.185,91.139,126.37,90.89,126.37,90.89z M129.101,87.983c0.073-0.517-2.646,0.699-2.646,1.727
			c-0.001,0.475,0.579,0.952,1.065,0.955c0.643,0.001,1.711-0.629,1.629-0.931l-0.059-1.679L129.101,87.983z M126.815,86.436
			c0.372,0.01,0.808-0.259,0.622-0.497C127.251,85.699,126.513,86.423,126.815,86.436z M129.236,87.435c0,0-0.227,0.89-0.106,1.077
			C129.287,88.74,129.154,87.392,129.236,87.435z M129.333,90.73c0,0-0.113,0.061,0,0.248
			C129.715,91.622,129.251,90.687,129.333,90.73z"/>
		<path fill="#507576" d="M140.652,91.134c0.053,0.331-0.848,0.423-0.898,0.101c-0.154-0.953,0.086-2.228,0.159-3.522
			c0.097-1.822,0.06-3.585-0.147-3.679c-0.238-0.104-1.312,4.723-1.981,7.249c-0.054,0.197-0.499,0.258-0.571,0.052
			c-0.082-0.24-0.648-2.023-0.979-3.267c-0.328-1.254-1.039-3.888-1.039-3.888c-0.311-0.26-0.159,1.927-0.203,3.16
			c-0.001,0.591,0.376,3.907,0.035,3.783l-0.59,0.154c-0.386,0.652-0.119-3.388-0.117-3.887c0.002-1.274-0.242-4.289,0.184-4.176
			c0,0,0.206-0.03,0.342-0.02c0.331,0.021,0.922-0.101,0.755,0.385c0,0,1.181,6.001,1.928,6.148
			c0.218,0.042,0.999-3.895,1.647-6.402c0.01-0.383,0.838-0.081,1.369-0.121C140.544,83.207,140.503,88.045,140.652,91.134z"/>
		<path fill="#507576" d="M142.609,84.071c0,0-0.176,0.176-0.311,0.174c-0.074,0.001-0.189-0.071-0.189-0.071
			s-0.256-0.208-0.277-0.396c-0.031-0.208,0.178-0.496,0.178-0.496s0.155-0.062,0.238-0.072c0.155-0.021,0.414,0.021,0.414,0.021
			s0.053,0.239,0.051,0.395C142.714,83.802,142.609,84.071,142.609,84.071z M142.699,91.293l-0.809-0.002
			c0,0,0.13-3.244-0.013-5.388c-0.007-0.115,0.023-0.332,0.023-0.332s0.331-0.061,0.498,0.023c0.062,0.03,0.155,0.134,0.155,0.134
			s0.104,0.072,0.049,0.901C142.497,88.288,142.699,91.293,142.699,91.293z"/>
		<path fill="#507576" d="M145.181,83.102c-0.161,3.056,0.064,4.207,0.09,8.03c-0.002,0.249-0.893,0.392-0.881,0.051
			c0.035-2.176-0.057-4.375-0.052-6.147c0-0.186-0.207-0.539-0.194-0.745c-0.002-0.176,0.104-0.311,0.104-0.518
			c0.021-0.591,0.104,0.27,0.156-0.57C144.425,82.913,145.193,82.802,145.181,83.102z M144.455,84.602
			c0.103-0.467,0.258-0.673,0-0.674C144.195,83.929,144.402,84.851,144.455,84.602z M144.666,87.047
			c-0.051,0.218-0.104-0.798-0.029-0.59c0.043,0.114,0.062,0.186,0.063,0.311C144.698,86.882,144.689,86.944,144.666,87.047z"/>
		<path fill="#507576" d="M148.158,83.106c-0.162,3.057,0.064,4.207,0.088,8.031c0,0.248-0.893,0.392-0.882,0.05
			c0.036-2.176-0.054-4.374-0.05-6.146c0-0.187-0.205-0.54-0.195-0.745c0-0.177,0.104-0.312,0.104-0.519
			c0.023-0.592,0.104,0.27,0.156-0.57C147.4,82.919,148.167,82.807,148.158,83.106z M147.429,84.608c0.104-0.466,0.26-0.673,0-0.674
			C147.171,83.934,147.376,84.856,147.429,84.608z M147.642,87.054c-0.053,0.218-0.102-0.799-0.031-0.59
			c0.042,0.114,0.062,0.186,0.062,0.31C147.672,86.888,147.662,86.95,147.642,87.054z"/>
		<path fill="#507576" d="M146.331,90.408c0.001,0.062-0.021,0.114-0.041,0.165c-0.063,0.145-0.194-0.383-0.051-0.425
			C146.279,90.223,146.332,90.305,146.331,90.408z M151.267,88.595c0.488-0.311,2.663-0.131,2.663-0.131
			c0.165-0.031,0.177-0.59-0.009-1.254c-0.029-0.093-0.07-0.518-0.111-0.601c-0.084-0.155-0.104-0.031-0.188-0.188
			c-0.154-0.299-0.287-0.569-0.568-0.601c-0.082-0.01-0.145-0.259-0.186-0.279c-0.249-0.137-0.467-0.115-0.797-0.117
			c-0.416-0.001-0.852,0.133-1.162,0.28c-0.248,0.112-0.145,0.112-0.186,0.174c-0.375,0.569-0.844,1.23-0.949,2.568
			c-0.021,0.301-0.062,0.59,0,0.83c0.422,1.523,1.186,2.198,2.285,2.201c0.984,0.002,1.981-1.437,1.63-1.428l-0.062-0.134
			c-0.269-0.083-1.381,1.271-1.63,1.168c-0.227-0.094-1.024-0.273-1.489-0.864c-0.094-0.114-0.032-0.123-0.145-0.249
			c-0.312-0.321,0.073-0.54,0.074-1.367C150.438,88.603,150.997,88.759,151.267,88.595z M152.531,87.975
			c-0.746,0.133-1.969,0.214-1.969,0.214c-0.279,0.009-0.121-1.42,0.637-1.854c0.238-0.133,0.623-0.413,1.016-0.33
			c0.32,0.073,0.881,0.251,0.983,0.645c0.031,0.114,0.146,0.042,0.125,0.321c-0.044,0.519,0.132,1.016-0.002,1.058
			C153.321,88.028,152.769,87.933,152.531,87.975z M153.339,88.309c-0.123-0.188,0.043-0.457,0.043-0.457
			C153.299,87.81,153.496,88.536,153.339,88.309z"/>
		<path fill="#507576" d="M158.703,87.25c-0.074,0.312-0.24,0.683-0.365,1.046c-0.738,2.122-1.75,4.514-3.076,5
			c-0.217,0.082-0.892,0.091-0.881-0.168l-0.01-0.3c0.084-0.311,0.395-0.208,0.549-0.145c0.902,0.375,1.94-0.825,1.734-1.468
			l-1.814-5.04c0,0,0.551-0.869,0.726-0.558c0.083,0.144,0.03,0.414,0.03,0.414s1.162,4.438,1.433,4.687
			c0.3,0.281,0.114-0.176,0.114-0.176s0.417-1.616,0.752-2.631c0.176-0.537,0.186-0.849,0.385-1.43
			c0.052-0.166,0.113-0.196,0.113-0.196s0.291-0.227,0.469-0.166C159.15,86.226,159.015,86.339,158.703,87.25z M158.482,88.669
			c0.094-0.01,0.031,0.528,0.207,0.457C158.865,89.053,158.212,88.701,158.482,88.669z"/>
	</g>
</g>
<polygon fill="#E83658" stroke="#3A2609" stroke-width="0.864" stroke-miterlimit="10" points="68.296,101.629 74.636,106.983 
	65.677,106.715 "/>
<line fill="none" stroke="#3A2609" stroke-width="0.864" stroke-linecap="round" stroke-miterlimit="10" x1="39.423" y1="121.294" x2="23.185" y2="140.375"/>
<path fill="#EFB789" stroke="#492D08" stroke-width="0.4827" stroke-linecap="round" stroke-miterlimit="10" d="M12.551,104.609
	c0,0,20.198,4.748,24.497-4.757c4.296-9.504,15.69-17.998,27.745-10.783c3.8,2.321,12.85,17.481-11.508,29.938
	C28.927,131.464,12.551,104.609,12.551,104.609z"/>
<g>
	<g>
		<path fill="none" stroke="#3A2609" stroke-width="0.4827" stroke-linecap="round" stroke-miterlimit="10" d="M18.11,108.129
			c-0.491-0.595-0.749-0.95-0.749-0.95s0.443,0.069,1.201,0.154"/>
		
			<path fill="none" stroke="#3A2609" stroke-width="0.4827" stroke-linecap="round" stroke-miterlimit="10" stroke-dasharray="2.3972,2.3972" d="
			M20.945,107.538c5.398,0.329,15.219,0.04,17.412-6.082c3.062-8.545,13.626-16.377,24.644-10.879
			c4.642,1.708,11.198,14.08-9.125,26.489c-16.635,10.16-30.501-2.935-34.987-8.023"/>
	</g>
</g>
<ellipse transform="matrix(-0.9735 -0.2289 0.2289 -0.9735 91.3461 203.2436)" fill="#FFFFFF" stroke="#3A2609" stroke-width="0.4827" stroke-linecap="round" stroke-miterlimit="10" cx="57.459" cy="96.325" rx="3.708" ry="3.544"/>
<ellipse transform="matrix(-0.9734 -0.2289 0.2289 -0.9734 94.0378 202.7538)" fill="#3A2609" cx="58.778" cy="95.923" rx="1.925" ry="1.84"/>
<ellipse transform="matrix(0.9734 0.229 -0.229 0.9734 25.485 -9.0126)" fill="#E56584" cx="51.581" cy="105.318" rx="4.76" ry="4.552"/>
<path fill="#DD8D57" stroke="#492D08" stroke-width="0.4827" stroke-linecap="round" stroke-miterlimit="10" d="M44.134,105.086
	c0,0-3.139,9.134-12.404,4.573c-9.264-4.56-7.533-14.635-7.533-14.635s5.548,5.172,10.733,7.891
	C40.116,105.634,44.134,105.086,44.134,105.086z"/>
<g>
	<path fill="#DAF3F7" stroke="#507576" stroke-miterlimit="10" d="M-106.875,21.898c0,4.042-3.276,7.318-7.317,7.318h-77.365
		c-4.042,0-7.317-3.276-7.317-7.318v-40.363c0-4.042,3.276-7.318,7.317-7.318h77.365c4.041,0,7.317,3.276,7.317,7.318V21.898z"/>
	<path fill="none" stroke="#507576" stroke-linecap="round" stroke-miterlimit="10" d="M-197.901,23.45
		c0,0,30.102-35.033,45.635-34.891s45.798,34.891,45.798,34.891"/>
	<path fill="#DAF3F7" stroke="#507576" stroke-miterlimit="10" d="M-197.901-12.441c0,0,30.102,35.033,45.635,34.891
		s45.798-34.891,45.798-34.891"/>
</g>
<text transform="matrix(1 0 0 1 -181.123 -12.4409)"><tspan x="0" y="0" fill="#507576" font-family="'DeGenerate'" font-size="12">To: </tspan><tspan x="0" y="14.4" fill="#507576" font-family="'DeGenerate'" font-size="12">Lana Milley</tspan></text>
</svg>
