<?xml version="1.0" encoding="utf-8"?>
<!-- Generator: Adobe Illustrator 16.0.0, SVG Export Plug-In . SVG Version: 6.00 Build 0)  -->
<!DOCTYPE svg PUBLIC "-//W3C//DTD SVG 1.1//EN" "http://www.w3.org/Graphics/SVG/1.1/DTD/svg11.dtd">
<svg version="1.1" id="Layer_1" xmlns="http://www.w3.org/2000/svg" xmlns:xlink="http://www.w3.org/1999/xlink" x="0px" y="0px"
	 width="218.391px" height="25.192px" viewBox="0 0 218.391 25.192" enable-background="new 0 0 218.391 25.192"
	 xml:space="preserve">
<g>
	<path fill="#416B6D" d="M3.219,12.036c0-4.062,3.296-6.83,7.375-6.83c4.08,0,7.376,2.768,7.376,6.83
		c0,4.061-3.297,7.375-7.376,7.375C6.516,19.411,3.219,16.097,3.219,12.036z M16.842,12.036c0-3.515-2.732-6.247-6.247-6.247
		c-3.515,0-6.247,2.732-6.247,6.247s2.732,6.247,6.247,6.247C14.11,18.282,16.842,15.551,16.842,12.036z M12.653,10.05
		c-0.419,0.146-0.929-1.457-1.821-1.439c-1.748,0-2.586,1.566-2.404,2.914c0.219,1.786,0.947,4.026,2.695,4.026
		c0.965-0.037,1.931-2.149,2.186-1.821l0.109,0.236c0.692,0.2-1.293,2.203-2.586,2.203c-1.803,0-3.223-1.238-3.223-4.261
		c0-3.023,1.42-4.262,3.223-4.262c1.312,0,3.096,2.294,2.514,2.13L12.653,10.05z M9.976,16.169c0,0-0.219,0.11,0,0.438
		C10.249,17.007,12.525,16.935,9.976,16.169z M10.959,13.11c0.2,0-0.055,0.601-0.182,0.474c-0.055-0.055-0.091-0.165-0.073-0.256
		C10.723,13.201,10.832,13.11,10.959,13.11z M12.78,8.848c0,0-0.219,0.109,0,0.437C13.054,9.686,12.635,8.775,12.78,8.848z
		 M21.632,23.582c-0.146,0.018-0.073,0.382,0.073,0.364C21.85,23.928,21.777,23.563,21.632,23.582z"/>
	<path fill="#416B6D" d="M30.137,10.651c0.837-2.75,1.438-5.81,1.675-5.701c0.546-0.018,1.22-0.382,1.147,0.055
		c-0.146,0.783-1.147,3.351-1.894,6.083c-1.038,3.788-1.894,7.868-2.258,7.941c-0.474,0.163-1.202,0.455-1.311,0
		c-0.328-1.385-4.371-13.496-4.007-14.115c0.292-0.51,0.947,0,1.53,0.036c0,0,0.419,3.716,1.02,5.973
		c0.62,2.332,1.53,5.774,2.186,5.829C29.008,16.825,29.409,12.727,30.137,10.651z"/>
	<path fill="#416B6D" d="M27.879,17.554c0,0.109-0.037,0.2-0.073,0.291c-0.109,0.255-0.346-0.673-0.09-0.746
		C27.788,17.226,27.879,17.371,27.879,17.554z M36.548,14.349c0.856-0.547,4.68-0.237,4.68-0.237
		c0.292-0.055,0.31-1.038-0.018-2.203c-0.055-0.164-0.127-0.911-0.2-1.057c-0.146-0.273-0.182-0.055-0.328-0.328
		c-0.273-0.528-0.51-1.002-1.002-1.056c-0.146-0.019-0.255-0.456-0.328-0.492c-0.437-0.237-0.819-0.201-1.402-0.201
		c-0.729,0-1.493,0.237-2.04,0.492c-0.437,0.201-0.255,0.201-0.328,0.31c-0.656,1.001-1.475,2.167-1.657,4.516
		c-0.037,0.528-0.109,1.039,0,1.458c0.747,2.677,2.094,3.86,4.025,3.86c1.73,0,3.479-2.531,2.859-2.513L40.7,16.661
		c-0.474-0.146-2.422,2.24-2.859,2.059c-0.4-0.164-1.803-0.474-2.623-1.513c-0.164-0.2-0.055-0.218-0.255-0.437
		c-0.546-0.564,0.127-0.947,0.127-2.403C35.091,14.367,36.074,14.64,36.548,14.349z M38.77,13.255
		c-1.312,0.237-3.46,0.382-3.46,0.382c-0.492,0.02-0.218-2.494,1.111-3.26c0.419-0.236,1.093-0.728,1.785-0.583
		c0.564,0.127,1.548,0.437,1.73,1.128c0.055,0.201,0.255,0.073,0.219,0.565c-0.073,0.911,0.237,1.785,0,1.857
		C40.154,13.347,39.188,13.183,38.77,13.255z M40.19,13.838c-0.219-0.327,0.073-0.801,0.073-0.801
		C40.118,12.964,40.463,14.239,40.19,13.838z"/>
	<path fill="#416B6D" d="M51.901,9.886l-0.528,0.183c-0.255,0.073-0.619-0.183-0.983,0.018c-0.291,0.019,0.4,1.438,0.4,2.186
		c0,1.948-1.438,3.46-3.387,3.46c-0.583,0-1.639-0.163-2.167-0.364c-0.201-0.346-1.239,0.582-1.239,1.074
		c0,1.275,7.631-0.273,7.631,3.533c0,0.747-0.291,3.061-4.316,3.061c-3.278,0-4.244-1.713-4.244-2.951
		c0-1.038,0.911-1.603,1.749-1.967c0.054-0.291-1.257-0.674-1.257-1.402c0-0.893,1.184-1.549,1.147-1.895
		c-0.729-0.855-1.002-1.402-1.002-2.585c0-2.04,1.53-3.46,3.552-3.46c0.801,0,1.53,0.237,2.186,0.71
		c0.656-0.492,1.42-0.856,2.276-0.765L51.901,9.886z M44.98,19.065c0.255-0.547-1.438,1.493-0.655,1.475
		c0.619-0.018,0.2-0.473,0.328-0.765C44.762,19.521,44.871,19.32,44.98,19.065z M46.273,18.282
		c-0.765,0.146-1.839,0.819-1.839,1.729c0,1.385,2.258,2.44,3.223,2.44c1.02,0,2.604-1.184,2.604-2.567
		c0-1.057-1.73-2.076-2.386-1.948L46.273,18.282z M47.293,9.522c-1.366,0-2.549,1.475-2.549,2.769c0,1.256,1.166,2.64,2.477,2.64
		c1.457,0,2.258-1.273,2.258-2.658C49.479,10.961,48.713,9.522,47.293,9.522z M48.641,24.639c-0.218,0.127,0.146,0.619,0.328,0.546
		C49.333,25.057,48.859,24.511,48.641,24.639z"/>
	<path fill="#416B6D" d="M47.275,17.554c0,0.109-0.037,0.2-0.073,0.291c-0.109,0.255-0.346-0.673-0.091-0.746
		C47.184,17.226,47.275,17.371,47.275,17.554z M55.944,14.349c0.856-0.547,4.68-0.237,4.68-0.237
		c0.292-0.055,0.31-1.038-0.018-2.203c-0.055-0.164-0.127-0.911-0.2-1.057c-0.146-0.273-0.182-0.055-0.328-0.328
		c-0.273-0.528-0.51-1.002-1.002-1.056c-0.146-0.019-0.255-0.456-0.328-0.492c-0.437-0.237-0.819-0.201-1.402-0.201
		c-0.729,0-1.493,0.237-2.04,0.492c-0.437,0.201-0.255,0.201-0.328,0.31c-0.655,1.001-1.475,2.167-1.657,4.516
		c-0.037,0.528-0.109,1.039,0,1.458c0.747,2.677,2.094,3.86,4.025,3.86c1.73,0,3.479-2.531,2.859-2.513l-0.109-0.237
		c-0.474-0.146-2.422,2.24-2.859,2.059c-0.4-0.164-1.803-0.474-2.623-1.513c-0.164-0.2-0.055-0.218-0.255-0.437
		c-0.546-0.564,0.127-0.947,0.127-2.403C54.487,14.367,55.47,14.64,55.944,14.349z M58.166,13.255
		c-1.312,0.237-3.46,0.382-3.46,0.382c-0.492,0.02-0.219-2.494,1.111-3.26c0.419-0.236,1.093-0.728,1.785-0.583
		c0.565,0.127,1.548,0.437,1.73,1.128c0.054,0.201,0.255,0.073,0.218,0.565c-0.073,0.911,0.237,1.785,0,1.857
		C59.55,13.347,58.584,13.183,58.166,13.255z M59.586,13.838c-0.219-0.327,0.073-0.801,0.073-0.801
		C59.514,12.964,59.859,14.239,59.586,13.838z"/>
	<path fill="#416B6D" d="M62.282,9.103c0.273-0.364,1.202-0.036,1.202-0.036l0.073-3.005c0,0,0.091-0.328,0.219-0.419
		c0.292-0.219,0.947,0.31,0.947,0.31s0.146,0.838,0.037,1.803c-0.055,0.546,0.146,1.312,0.146,1.312s2.022-0.656,2.259,0.182
		c0.036,0.127,0.054,0.364,0.054,0.364l-0.328,0.583l-1.985,0.073c0,0,0,0.438,0,0.729c0,0.164-0.255,0.383-0.255,0.565
		c0,0.127,0.255,0.837,0.255,0.964c0,2.094,0,4.061,0,4.061c0,0.983-0.109,2.842,0.783,2.059c0.292-0.255,1.111-1.603,1.384-0.966
		l0.255,0.201c0.601,0.382-1.074,1.529-1.566,1.529c-2.404,0-2.277-1.621-2.277-3.461v-5.682L62.5,10.232
		C62.5,10.232,62.009,9.468,62.282,9.103z"/>
	<path fill="#416B6D" d="M74.211,19.047l-0.328-1.202c-1.038,0.292-1.73,1.566-2.914,1.566c-1.548,0-2.787-1.293-2.787-2.877
		c0-2.877,3.023-3.497,5.245-4.098l0.455-0.128v-0.563c0-1.148-0.273-1.913-1.948-1.767c-1.876,0.164-2.386,1.966-3.005,1.256
		l-0.164-0.382c-0.437-0.218,1.675-2.076,3.205-2.076c1.366,0,2.951,1.093,3.042,3.388l0.219,4.48
		c0.018,0.255,0.164,2.275-0.201,2.294L74.211,19.047z M69.002,18.464c0.109-0.255,0.146,0.583,0.146-0.218l-0.218-0.073
		C68.674,18.901,69.002,18.464,69.002,18.464z M73.792,13.347c0.127-0.911-4.644,1.238-4.644,3.041c0,0.838,1.02,1.676,1.876,1.676
		c1.129,0,3.005-1.111,2.859-1.64l-0.109-2.949L73.792,13.347z M69.767,10.633c0.656,0.018,1.421-0.456,1.093-0.875
		C70.532,9.34,69.239,10.615,69.767,10.633z M74.029,12.381c0,0-0.401,1.567-0.182,1.894C74.12,14.676,73.883,12.308,74.029,12.381z
		 M74.211,18.173c0,0-0.2,0.109,0,0.438C74.885,19.739,74.065,18.1,74.211,18.173z"/>
	<path fill="#416B6D" d="M78.728,18.956c-0.273,0.036-0.292,0.128-0.801,0.109c0,0-0.546,0.019-0.364-0.91
		c0.382-1.949,0-6.885-0.036-8.688c0-0.419,0.856-0.401,0.856-0.401l0.509,0.182l0.055,1.985l0.018,0.055
		c0.419,0.201,1.603-2.549,2.841-2.368c0,0,0.328-0.018,0.474,0.073c0.273,0.182,0.019,0.492,0.037,0.892
		c0.127,0.438-0.838,0.346-1.257,0.619c-0.911,0.583-1.511,1.585-2.076,2.914c0,0-0.146,2.968-0.109,3.898
		c0,0.127-0.019,0.491,0.054,0.638c0.073,0.163,0.128,0.108,0.146,0.272c0.036,0.236-0.018,0.291-0.018,0.4
		C79.056,18.828,78.891,18.938,78.728,18.956z M77.817,17.408c0,0-0.455,1.402,0.055,1.402
		C78.054,18.811,78.054,17.444,77.817,17.408z M79.583,9.668c-0.036-0.401-0.765,0.055-1.02-0.237
		c-0.346-0.401,0.328-0.838,0.273-1.384c-0.055-0.51-0.31-0.801-0.564-1.22C77.944,6.28,78.801,7.41,78.818,8.12
		c0.019,0.547-0.564,0.911-0.255,1.312c0.237,0.31,1.002-0.146,1.02,0.255c0,0.146-0.164,0.4-0.109,0.383
		C79.474,10.069,79.583,9.832,79.583,9.668z M78.764,18.045c0,0-0.146,0.329,0.2,0.474C79.146,18.592,78.855,17.79,78.764,18.045z
		 M80.167,12.436c0,0-0.474,0.346,0.036,0.346C80.385,12.782,80.403,12.473,80.167,12.436z"/>
	<path fill="#416B6D" d="M85.157,6.426c0,0-0.31,0.31-0.546,0.31c-0.127,0-0.328-0.127-0.328-0.127s-0.455-0.364-0.492-0.692
		c-0.054-0.365,0.31-0.875,0.31-0.875s0.273-0.109,0.419-0.127c0.273-0.037,0.729,0.036,0.729,0.036s0.091,0.419,0.091,0.692
		C85.338,5.953,85.157,6.426,85.157,6.426z M85.338,19.119h-1.42c0,0,0.219-5.7-0.036-9.469c-0.019-0.201,0.036-0.583,0.036-0.583
		s0.583-0.109,0.875,0.036c0.109,0.055,0.273,0.237,0.273,0.237s0.182,0.128,0.091,1.584C84.975,13.838,85.338,19.119,85.338,19.119
		z"/>
	<path fill="#416B6D" d="M93.352,19.047l-0.328-1.202c-1.038,0.292-1.73,1.566-2.914,1.566c-1.548,0-2.787-1.293-2.787-2.877
		c0-2.877,3.023-3.497,5.245-4.098l0.455-0.128v-0.563c0-1.148-0.273-1.913-1.948-1.767c-1.876,0.164-2.386,1.966-3.005,1.256
		l-0.164-0.382c-0.437-0.218,1.675-2.076,3.205-2.076c1.366,0,2.951,1.093,3.042,3.388l0.219,4.48
		c0.018,0.255,0.164,2.275-0.201,2.294L93.352,19.047z M88.144,18.464c0.109-0.255,0.146,0.583,0.146-0.218l-0.218-0.073
		C87.815,18.901,88.144,18.464,88.144,18.464z M92.933,13.347c0.127-0.911-4.644,1.238-4.644,3.041c0,0.838,1.02,1.676,1.876,1.676
		c1.129,0,3.005-1.111,2.859-1.64l-0.109-2.949L92.933,13.347z M88.908,10.633c0.656,0.018,1.421-0.456,1.093-0.875
		C89.673,9.34,88.38,10.615,88.908,10.633z M93.17,12.381c0,0-0.401,1.567-0.182,1.894C93.261,14.676,93.024,12.308,93.17,12.381z
		 M93.352,18.173c0,0-0.2,0.109,0,0.438C94.026,19.739,93.206,18.1,93.352,18.173z"/>
	<path fill="#416B6D" d="M97.905,18.755c0,0-0.164,0.529-0.419,0.547c-0.291,0.019-0.546-0.547-0.546-0.547l-0.273-9.87
		c0,0,0.856-0.201,1.093,0.127c0.109,0.164,0.146,0.51,0.146,0.51l0.182,0.583c0.838-0.674,1.621-1.33,2.769-1.33
		c1.42,0,2.713,0.783,2.568,3.405c0,0,0.546,3.988-0.383,6.211c-0.073,0.2-0.255,0.546-0.255,0.546l-0.601,0.092
		c0,0-0.419,0.108-0.365-0.274c0.091-0.8,0.51-2.694,0.492-3.732c-0.018-0.893-0.218-2.295-0.218-2.295
		c-0.091-1.02,0-2.222-1.42-2.786c-1.603-0.637-2.021,0.856-2.586,1.53L97.905,18.755z"/>
	<path fill="#416B6D" d="M111.219,6.372c0,0-0.893-1.512,0.382-1.421c0,0,1.02,0.146,2.04,0.109
		c0.692-0.036,1.239-0.255,2.021-0.255c0.328,0,0.838,0.182,1.147,0.182c0.783,0,1.293-0.146,1.694-0.073
		c0.473,0.091,0.437,1.42,0.018,1.22c0,0-1.857-0.583-2.841,0.146c-0.182,0.128-0.383,0.583-0.438,1.238
		c-0.036,0.273,0.219,0.765,0.201,1.111c-0.019,0.328-0.219,0.583-0.237,0.947c-0.037,1.11-0.037,2.222-0.073,3.259
		c-0.073,2.404,0.037,6.193,0.037,6.193l-0.856,0.09c-0.819,0.092,0.31-12.547-0.182-13.021c0,0-0.328-0.237-1.274-0.109
		c-0.31,0.036-0.401,0.291-0.856,0.419C111.838,6.444,111.4,6.317,111.219,6.372z M111.4,17.937
		c-0.273,0.054-0.091,0.783,0.182,0.729C111.856,18.61,111.674,17.882,111.4,17.937z M113.131,20.121
		c-0.018,0.638,0.164,0.146,0.182,0.092S113.149,19.739,113.131,20.121z"/>
	<path fill="#416B6D" d="M120.289,14.093c0-3.769,1.785-5.317,4.025-5.317s3.752,1.821,3.752,5.592c0,3.77-1.512,5.044-3.752,5.044
		c-1.202,0-2.258-0.437-2.987-1.421c-0.127-0.163-0.091-0.491-0.2-0.691c-0.201-0.364-0.51-0.638-0.62-1.13
		C120.361,15.569,120.289,14.876,120.289,14.093z M121.363,17.007c-0.255,0.073-0.019,1.002,0.091,0.747
		c0.037-0.091,0.073-0.183,0.073-0.291C121.527,17.28,121.436,17.135,121.363,17.007z M126.827,14.093
		c0.255-1.693-0.146-4.571-2.331-4.571s-2.787,2.859-2.787,4.571c0,1.713,0.601,4.937,2.787,4.937S126.189,18.264,126.827,14.093z"
		/>
	<path fill="#416B6D" d="M131.471,18.956c-0.273,0.036-0.291,0.128-0.801,0.109c0,0-0.546,0.019-0.364-0.91
		c0.383-1.949,0-6.885-0.036-8.688c0-0.419,0.855-0.401,0.855-0.401l0.51,0.182l0.054,1.985l0.019,0.055
		c0.419,0.201,1.603-2.549,2.841-2.368c0,0,0.328-0.018,0.473,0.073c0.273,0.182,0.019,0.492,0.037,0.892
		c0.128,0.438-0.838,0.346-1.257,0.619c-0.91,0.583-1.511,1.585-2.076,2.914c0,0-0.145,2.968-0.109,3.898
		c0,0.127-0.018,0.491,0.054,0.638c0.073,0.163,0.128,0.108,0.146,0.272c0.036,0.236-0.019,0.291-0.019,0.4
		C131.799,18.828,131.635,18.938,131.471,18.956z M130.561,17.408c0,0-0.456,1.402,0.055,1.402
		C130.797,18.811,130.797,17.444,130.561,17.408z M132.327,9.668c-0.036-0.401-0.765,0.055-1.02-0.237
		c-0.346-0.401,0.329-0.838,0.274-1.384c-0.055-0.51-0.31-0.801-0.565-1.22c-0.327-0.547,0.528,0.583,0.546,1.292
		c0.019,0.547-0.564,0.911-0.255,1.312c0.237,0.31,1.002-0.146,1.02,0.255c0,0.146-0.164,0.4-0.109,0.383
		C132.217,10.069,132.327,9.832,132.327,9.668z M131.507,18.045c0,0-0.146,0.329,0.201,0.474
		C131.89,18.592,131.599,17.79,131.507,18.045z M132.91,12.436c0,0-0.473,0.346,0.037,0.346
		C133.128,12.782,133.146,12.473,132.91,12.436z"/>
	<path fill="#416B6D" d="M136.371,14.093c0-3.769,1.785-5.317,4.024-5.317c2.24,0,3.752,1.821,3.752,5.592
		c0,3.77-1.512,5.044-3.752,5.044c-1.202,0-2.259-0.437-2.987-1.421c-0.127-0.163-0.09-0.491-0.199-0.691
		c-0.201-0.364-0.511-0.638-0.62-1.13C136.443,15.569,136.371,14.876,136.371,14.093z M137.445,17.007
		c-0.255,0.073-0.019,1.002,0.091,0.747c0.036-0.091,0.073-0.183,0.073-0.291C137.608,17.28,137.518,17.135,137.445,17.007z
		 M142.908,14.093c0.255-1.693-0.145-4.571-2.331-4.571c-2.185,0-2.786,2.859-2.786,4.571c0,1.713,0.601,4.937,2.786,4.937
		C142.763,19.029,142.271,18.264,142.908,14.093z"/>
	<path fill="#416B6D" d="M147.589,18.755c0,0-0.164,0.529-0.419,0.547c-0.292,0.019-0.546-0.547-0.546-0.547l-0.273-9.87
		c0,0,0.856-0.201,1.093,0.127c0.109,0.164,0.145,0.51,0.145,0.51l0.182,0.583c0.837-0.674,1.621-1.33,2.769-1.33
		c1.42,0,2.713,0.783,2.568,3.405c0,0,0.546,3.988-0.383,6.211c-0.072,0.2-0.254,0.546-0.254,0.546l-0.601,0.092
		c0,0-0.419,0.108-0.364-0.274c0.09-0.8,0.509-2.694,0.491-3.732c-0.018-0.893-0.219-2.295-0.219-2.295
		c-0.09-1.02,0-2.222-1.42-2.786c-1.603-0.637-2.021,0.856-2.586,1.53L147.589,18.755z"/>
	<path fill="#416B6D" d="M154.674,9.103c0.272-0.364,1.202-0.036,1.202-0.036l0.072-3.005c0,0,0.091-0.328,0.219-0.419
		c0.292-0.219,0.947,0.31,0.947,0.31s0.146,0.838,0.037,1.803c-0.055,0.546,0.146,1.312,0.146,1.312s2.021-0.656,2.258,0.182
		c0.037,0.127,0.055,0.364,0.055,0.364l-0.327,0.583l-1.985,0.073c0,0,0,0.438,0,0.729c0,0.164-0.255,0.383-0.255,0.565
		c0,0.127,0.255,0.837,0.255,0.964c0,2.094,0,4.061,0,4.061c0,0.983-0.109,2.842,0.783,2.059c0.291-0.255,1.11-1.603,1.384-0.966
		l0.254,0.201c0.601,0.382-1.074,1.529-1.566,1.529c-2.404,0-2.276-1.621-2.276-3.461v-5.682l-0.984-0.036
		C154.892,10.232,154.4,9.468,154.674,9.103z"/>
	<path fill="#416B6D" d="M160.556,14.093c0-3.769,1.785-5.317,4.024-5.317c2.241,0,3.752,1.821,3.752,5.592
		c0,3.77-1.512,5.044-3.752,5.044c-1.202,0-2.258-0.437-2.986-1.421c-0.128-0.163-0.091-0.491-0.2-0.691
		c-0.2-0.364-0.51-0.638-0.619-1.13C160.628,15.569,160.556,14.876,160.556,14.093z M161.631,17.007
		c-0.255,0.073-0.018,1.002,0.091,0.747c0.037-0.091,0.073-0.183,0.073-0.291C161.795,17.28,161.703,17.135,161.631,17.007z
		 M167.094,14.093c0.255-1.693-0.146-4.571-2.331-4.571c-2.185,0-2.786,2.859-2.786,4.571c0,1.713,0.601,4.937,2.786,4.937
		C166.949,19.029,166.457,18.264,167.094,14.093z"/>
	<path fill="#416B6D" d="M180.407,18.428c1.239-0.054,3.497-0.619,3.533-0.182v0.146c0.037,0.965-2.841,0.838-4.699,0.819
		c-1.348-0.019-3.479,0.109-3.424-0.546l-0.036-0.237c-0.674-1.894,7.066-6.01,7.066-9.507c0-1.402-1.202-2.987-2.695-2.987
		c-1.585,0-2.878,2.969-3.46,2.769l-0.401-0.019c-0.929-0.418,1.676-4.024,3.97-4.024c2.258,0,3.77,1.73,3.77,3.934
		c0,4.243-7.922,7.613-6.72,9.251C177.493,18.063,179.005,18.482,180.407,18.428z M176.911,17.973
		c0.019,0.31,0.182,0.382,0.401,0.219C177.438,18.1,176.856,17.08,176.911,17.973z"/>
	<path fill="#416B6D" d="M193.848,10.852c0,3.132,0.31,8.56-3.424,8.56s-4.425-4.244-4.425-7.375c0-3.133,0.692-7.376,4.425-7.376
		C195.888,4.66,193.848,7.719,193.848,10.852z M187.383,12.036c0,2.258,0.529,6.556,3.315,6.556s2.039-5.755,2.039-8.013
		c0-2.258,0.2-5.282-2.585-5.282C187.365,5.297,187.383,9.777,187.383,12.036z M193.92,17.207c-0.272,0.092,0.201,0.583,0.365,0.456
		S195.014,17.571,193.92,17.207z M194.832,13.475c-0.273,0.091,0,0.819,0.273,0.728C195.378,14.111,195.924,13.838,194.832,13.475z"
		/>
	<path fill="#416B6D" d="M198.329,18.1l1.311-0.127c0.656,0.036,0.564-3.788,0.528-6.211c-0.036-2.076,0.146-5.317-0.601-5.317
		c-0.4-0.036-0.655,0.146-1.074,0.146c-0.292,0-0.82,0.456-0.729-0.127l-0.073-0.291c-0.019-0.492,0.729-0.474,1.221-0.674
		c0.582-0.237,1.056-0.456,1.565-0.474h0.311c0.527-0.037,0.473,0.31,0.491,0.947c0,0-0.2,11.31,0.292,11.291
		c0.291,0.274,0.71,0.019,1.146,0.109c0.31,0.073,0.783-0.127,0.802,0.292c0,0.164,0.219,0.474,0.182,0.801
		c-0.036,0.291-0.091,0.71-0.382,0.655l-5.1,0.038c-0.364,0-0.182-0.256-0.182-0.438C198.038,18.464,198,18.173,198.329,18.1z"/>
	<path fill="#416B6D" d="M210.129,12.108c0,0-0.4,0.091-0.4-0.364c0-0.638,0.474-0.419,0.474-0.419l0.71-0.019
		c2.095-0.055,2.842-1.785,2.842-3.224c0-1.584-0.747-2.805-2.331-2.805c-1.239,0-1.913,2.823-2.769,2.295l-0.692-0.383
		c-0.837-0.892,2.004-2.531,3.697-2.531c2.331,0,3.696,1.675,3.696,3.642c0,1.658-2.094,2.987-1.767,3.333
		c0,0,2.149,1.84,2.149,3.532c0,1.513-0.928,2.551-1.402,3.152c-0.072,0.09-0.419,0.272-0.528,0.327
		c-0.091,0.054-0.4,0.4-0.491,0.455c-0.455,0.236-1.11,0.31-1.948,0.31c-1.895,0-4.699-1.912-3.752-2.932l0.236-0.056
		c0.564-1.074,1.111,2.204,3.26,2.168c2.113-0.036,3.552-1.693,3.552-3.441c0-0.802-0.528-1.33-0.965-1.713
		c-0.146-0.127-0.474-0.874-0.838-1.001c-0.655-0.218-1.185-0.382-2.022-0.382L210.129,12.108z"/>
</g>
</svg>
