<?xml version="1.0" encoding="utf-8"?>
<!-- Generator: Adobe Illustrator 16.0.0, SVG Export Plug-In . SVG Version: 6.00 Build 0)  -->
<!DOCTYPE svg PUBLIC "-//W3C//DTD SVG 1.1//EN" "http://www.w3.org/Graphics/SVG/1.1/DTD/svg11.dtd">
<svg version="1.1" id="Layer_1" xmlns="http://www.w3.org/2000/svg" xmlns:xlink="http://www.w3.org/1999/xlink" x="0px" y="0px"
	 width="288.889px" height="597.531px" viewBox="0 0 288.889 597.531" enable-background="new 0 0 288.889 597.531"
	 xml:space="preserve">
<path fill="#E83658" d="M283.21,47.983c0,5.069-2.04,9.18-4.558,9.18H8.642c-2.516,0-4.555-4.11-4.555-9.18V40.96
	c0-5.068,2.039-9.18,4.555-9.18h270.011c2.518,0,4.558,4.112,4.558,9.18V47.983z"/>
<path fill="none" stroke="#492D08" stroke-width="0.4737" stroke-linecap="round" stroke-miterlimit="10" stroke-dasharray="2.7736" d="
	M278.004,46.675c0,3.181-1.962,5.76-4.383,5.76H13.677c-2.422,0-4.384-2.579-4.384-5.76v-4.407c0-3.181,1.962-5.76,4.384-5.76
	h259.944c2.421,0,4.383,2.579,4.383,5.76V46.675z"/>
<path fill="#E83658" d="M173.397,138.09c0,5.069-1.237,9.178-2.763,9.178H6.851c-1.526,0-2.764-4.109-2.764-9.178v-7.023
	c0-5.069,1.236-9.179,2.764-9.179h163.783c1.525,0,2.763,4.11,2.763,9.179V138.09z"/>
<path fill="none" stroke="#492D08" stroke-width="0.4737" stroke-linecap="round" stroke-miterlimit="10" stroke-dasharray="2.7736" d="
	M167.663,136.781c0,3.181-1.153,5.76-2.577,5.76H12.397c-1.424,0-2.576-2.579-2.576-5.76v-4.407c0-3.181,1.152-5.759,2.576-5.759
	h152.689c1.424,0,2.577,2.579,2.577,5.759V136.781z"/>
<path fill="#E83658" d="M140.865,226.893c0,5.07-0.999,9.18-2.232,9.18H6.319c-1.232,0-2.231-4.109-2.231-9.18v-7.022
	c0-5.069,0.999-9.18,2.231-9.18h132.313c1.233,0,2.231,4.11,2.231,9.18v7.022H140.865z"/>
<path fill="none" stroke="#492D08" stroke-width="0.4737" stroke-linecap="round" stroke-miterlimit="10" stroke-dasharray="2.7736" d="
	M131.625,225.585c0,3.181-0.865,5.76-1.932,5.76H15.256c-1.065,0-1.93-2.579-1.93-5.76v-4.407c0-3.181,0.863-5.76,1.93-5.76h114.438
	c1.065,0,1.932,2.579,1.932,5.76V225.585z"/>
<g>
	<path d="M4.729,16.258h0.306c0.777,0,1.116-0.288,1.116-1.388V6.613c0-1.1-0.338-1.388-1.116-1.388H4.729V4.718
		c0.592,0.017,1.404,0.051,2.166,0.051c0.745,0,1.455-0.034,2.166-0.051v0.507H8.757c-0.778,0-1.117,0.288-1.117,1.388v8.258
		c0,1.1,0.338,1.388,1.117,1.388h0.305v0.508c-0.711-0.017-1.421-0.051-2.166-0.051c-0.762,0-1.574,0.034-2.166,0.051L4.729,16.258
		L4.729,16.258z"/>
	<path d="M10.109,16.258h0.306c0.761,0,0.896-0.203,0.896-1.185v-2.876c0-1.523-0.203-1.777-0.592-1.777
		c-0.152,0-0.372,0.067-0.609,0.186v-0.508c0.71-0.237,1.523-0.626,2.218-1.066h0.169v1.489c0.626-0.66,1.472-1.489,2.571-1.489
		c0.575,0,1.558,0.305,2.064,1.286c0.322,0.592,0.373,1.337,0.373,2.047v3.062c0,0.66,0.118,0.829,0.947,0.829h0.254v0.508
		c-0.406-0.017-1.167-0.051-1.743-0.051c-0.609,0-1.388,0.034-1.845,0.051v-0.508h0.305c0.71,0,0.795-0.355,0.795-1.404v-2.657
		c0-0.914-0.085-1.354-0.559-1.811c-0.221-0.22-0.593-0.406-1.167-0.406c-0.712,0-1.507,0.643-1.896,1.015v4.366
		c0,0.761,0.084,0.896,0.745,0.896h0.322v0.508c-0.391-0.017-1.135-0.051-1.692-0.051c-0.575,0-1.32,0.034-1.861,0.051V16.258z"/>
	<path d="M28.415,15.954c-0.678,0.288-1.438,0.609-2.302,1.032c-0.236-0.253-0.321-0.795-0.354-1.184
		c-0.729,0.609-1.591,1.083-2.674,1.083c-1.574,0-3.3-1.185-3.3-3.706c0-2.234,1.709-4.146,3.892-4.146
		c0.778,0,1.354,0.169,2.082,0.491V5.801c0-0.525-0.203-0.846-0.626-0.846c-0.288,0-0.576,0.135-0.711,0.186V4.565
		c0.778-0.305,1.54-0.66,2.504-1.218h0.169c-0.034,0.389-0.051,1.574-0.051,3.215v7.733c0,1.1,0.22,1.371,0.608,1.371
		c0.188,0,0.457-0.034,0.763-0.22V15.954z M25.758,10.539c-0.44-0.372-1.117-0.931-2.132-0.931c-1.658,0-2.556,1.354-2.556,2.894
		c0,1.523,0.763,3.502,2.556,3.502c1.016,0,1.642-0.389,2.132-0.778V10.539z"/>
	<path d="M28.886,16.258h0.339c0.609,0,0.998-0.203,0.998-1.404v-3.418c0-0.677-0.203-0.863-0.523-0.863
		c-0.255,0-0.542,0.102-0.729,0.186v-0.508c0.729-0.271,1.896-0.88,2.369-1.218h0.169v5.821c0,1.201,0.389,1.404,0.999,1.404h0.338
		v0.508c-0.643-0.017-1.438-0.051-1.979-0.051s-1.338,0.034-1.98,0.051V16.258z M30.866,5.648c0.474,0,0.846,0.372,0.846,0.846
		c0,0.474-0.372,0.846-0.846,0.846c-0.475,0-0.847-0.372-0.847-0.846C30.02,6.021,30.392,5.648,30.866,5.648z"/>
	<path d="M38.259,11.622c0-0.914-0.406-1.946-1.422-1.946c-0.457,0-1.286,0.457-1.286,0.948c0,0.271,0.118,0.507,0.237,0.761
		l-1.083,0.525c-0.169-0.355-0.306-0.609-0.306-0.897c0-0.542,0.39-0.914,1.135-1.354c0.728-0.44,1.269-0.626,1.591-0.626
		c2.098,0,2.419,1.506,2.419,2.25v3.436c0,0.896,0.151,1.083,0.423,1.083c0.169,0,0.508-0.119,0.761-0.237v0.457l-1.64,0.778
		c-0.187,0.085-0.254,0.085-0.322,0.085c-0.22,0-0.338-0.44-0.423-0.965c-1.134,0.812-1.625,0.965-2.335,0.965
		c-1.235,0-1.912-0.914-1.912-1.828c0-1.049,0.643-1.438,1.777-1.878l2.386-0.931V11.622z M38.259,12.823l-1.76,0.728
		c-0.338,0.136-1.117,0.474-1.117,1.219c0,0.457,0.439,1.235,1.354,1.235c0.559,0,1.032-0.321,1.574-0.728
		c-0.034-0.186-0.051-0.406-0.051-0.812V12.823z"/>
	<path d="M51.165,14.617l0.186-0.051c0.423,0.524,1.489,1.607,3.063,1.607c1.185,0,2.589-0.795,2.589-2.606
		c0-0.948-0.677-2.725-3.215-2.809l0.389-1.049c0.119,0.017,0.22,0.034,0.339,0.034c1.15,0,2.149-1.083,2.149-2.183
		c0-0.964-0.66-1.946-2.234-1.946c-0.88,0-2.047,0.474-2.775,1.184h-0.187L51.418,5.14c0.778-0.237,1.945-0.542,3.131-0.542
		c2.42,0,3.469,1.371,3.469,2.674c0,1.709-1.455,2.301-2.301,2.606v0.034c1.777,0.406,2.64,1.878,2.64,3.131
		c0,2.419-2.232,3.841-4.449,3.841c-0.981,0-1.861-0.169-2.488-0.44L51.165,14.617z"/>
	<path d="M62.398,16.258h0.254c1.032,0,1.286-0.288,1.286-1.303V6.511c0-0.761-0.338-0.998-1.049-0.998
		c-0.288,0-0.795,0.067-0.964,0.118V5.056l3.13-0.288h0.305v10.187c0,1.134,0.322,1.303,1.066,1.303h0.321v0.508
		c-0.509-0.017-1.404-0.051-2.115-0.051c-0.863,0-1.692,0.034-2.234,0.051V16.258z"/>
	<path d="M72.734,4.599c1.507,0,2.504,1.218,2.504,3.486c0,2.183-0.999,3.351-2.504,3.351c-1.506,0-2.505-1.167-2.505-3.351
		C70.229,5.817,71.228,4.599,72.734,4.599z M72.734,11.063c1.117,0,1.489-1.1,1.489-2.979c0-2.098-0.542-3.113-1.489-3.113
		s-1.488,1.015-1.488,3.113C71.245,9.963,71.617,11.063,72.734,11.063z M78.318,4.498h0.711l-5.348,12.488h-0.71L78.318,4.498z
		 M79.266,10.048c1.506,0,2.504,1.219,2.504,3.486c0,2.183-0.999,3.351-2.504,3.351c-1.506,0-2.504-1.168-2.504-3.351
		C76.762,11.267,77.76,10.048,79.266,10.048z M79.266,16.512c1.117,0,1.489-1.1,1.489-2.978c0-2.099-0.542-3.114-1.489-3.114
		s-1.489,1.015-1.489,3.114C77.777,15.412,78.149,16.512,79.266,16.512z"/>
</g>
<g>
	<path d="M16.067,97.632h-0.271c-0.44-0.88-1.252-2.538-4.45-2.538c-3.436,0-4.535,3.164-4.535,5.652c0,4.027,2.86,5.415,4.62,5.415
		c2.657,0,3.875-1.506,4.67-2.504h0.119v1.286c-0.592,0.558-2.031,1.929-4.654,1.929c-3.841,0-6.446-2.42-6.446-5.821
		c0-3.266,2.284-6.667,6.295-6.667c1.675,0,3.282,0.525,3.875,0.711c0.321,0.102,0.643,0.22,0.846,0.237L16.067,97.632z"/>
	<path d="M17.298,106.144h0.271c0.56,0,1.066-0.22,1.066-1.404v-9.053c0-0.525-0.203-0.846-0.626-0.846
		c-0.288,0-0.575,0.135-0.711,0.186v-0.575c0.779-0.305,1.54-0.66,2.505-1.218h0.169c-0.034,0.389-0.051,1.574-0.051,3.215v3.74
		c0.762-0.575,1.591-1.269,2.572-1.269c0.98,0,1.522,0.406,1.929,0.964c0.439,0.592,0.507,1.235,0.507,2.318v2.691
		c0,1.083,0.169,1.235,0.948,1.252h0.288v0.508c-0.507-0.017-1.354-0.051-2.03-0.051c-0.559,0-1.27,0.034-1.692,0.051v-0.508h0.306
		c0.71-0.034,0.896-0.237,0.896-1.472v-2.606c0-0.524,0-1.049-0.271-1.489c-0.237-0.389-0.678-0.71-1.354-0.71
		c-0.762,0-1.506,0.558-2.099,0.964v4.23c0,0.897,0.169,1.066,0.914,1.083h0.236v0.508c-0.423-0.017-1.167-0.051-1.878-0.051
		c-0.608,0-1.438,0.034-1.896,0.051V106.144z"/>
	<path d="M27.008,106.144h0.339c0.609,0,0.998-0.203,0.998-1.404v-3.418c0-0.677-0.203-0.863-0.524-0.863
		c-0.254,0-0.542,0.102-0.728,0.186v-0.508c0.728-0.271,1.895-0.88,2.369-1.218h0.169v5.821c0,1.201,0.389,1.404,0.999,1.404h0.338
		v0.508c-0.643-0.017-1.438-0.051-1.98-0.051s-1.337,0.034-1.979,0.051V106.144z M28.988,95.534c0.475,0,0.847,0.372,0.847,0.846
		c0,0.474-0.372,0.846-0.847,0.846c-0.474,0-0.846-0.372-0.846-0.846C28.142,95.906,28.514,95.534,28.988,95.534z"/>
	<path d="M31.745,106.144h0.305c0.761,0,0.896-0.203,0.896-1.185v-2.876c0-1.523-0.202-1.777-0.592-1.777
		c-0.151,0-0.372,0.068-0.608,0.186v-0.508c0.71-0.237,1.522-0.626,2.217-1.066h0.169v1.489c0.626-0.66,1.472-1.489,2.572-1.489
		c0.574,0,1.557,0.305,2.063,1.286c0.322,0.592,0.373,1.337,0.373,2.047v3.063c0,0.66,0.118,0.829,0.947,0.829h0.254v0.508
		c-0.406-0.017-1.167-0.051-1.743-0.051c-0.609,0-1.388,0.034-1.845,0.051v-0.508h0.305c0.71,0,0.795-0.355,0.795-1.404v-2.657
		c0-0.914-0.085-1.354-0.559-1.811c-0.22-0.22-0.592-0.406-1.167-0.406c-0.711,0-1.506,0.643-1.896,1.015v4.366
		c0,0.762,0.084,0.897,0.745,0.897h0.322v0.508c-0.39-0.017-1.134-0.051-1.692-0.051c-0.575,0-1.319,0.034-1.86,0.051V106.144z"/>
	<path d="M45.787,101.507c0-0.914-0.406-1.946-1.422-1.946c-0.457,0-1.286,0.457-1.286,0.948c0,0.271,0.117,0.507,0.236,0.761
		l-1.083,0.525c-0.169-0.355-0.305-0.609-0.305-0.897c0-0.542,0.389-0.914,1.134-1.354c0.729-0.44,1.27-0.626,1.591-0.626
		c2.099,0,2.419,1.506,2.419,2.25v3.436c0,0.896,0.152,1.083,0.424,1.083c0.169,0,0.508-0.119,0.761-0.237v0.457l-1.641,0.778
		c-0.188,0.085-0.255,0.085-0.322,0.085c-0.22,0-0.338-0.44-0.423-0.965c-1.135,0.812-1.625,0.965-2.335,0.965
		c-1.235,0-1.912-0.914-1.912-1.828c0-1.049,0.643-1.438,1.776-1.878l2.387-0.931L45.787,101.507L45.787,101.507z M45.787,102.708
		l-1.761,0.728c-0.338,0.136-1.116,0.474-1.116,1.219c0,0.457,0.439,1.235,1.354,1.235c0.56,0,1.033-0.321,1.574-0.728
		c-0.034-0.186-0.051-0.406-0.051-0.812V102.708z"/>
	<path d="M60.52,106.144h0.254c1.032,0,1.286-0.288,1.286-1.303v-8.444c0-0.761-0.338-0.998-1.049-0.998
		c-0.288,0-0.795,0.067-0.964,0.118v-0.575l3.13-0.288h0.305v10.187c0,1.134,0.322,1.303,1.066,1.303h0.321v0.508
		c-0.509-0.017-1.404-0.051-2.115-0.051c-0.863,0-1.692,0.034-2.234,0.051V106.144z"/>
	<path d="M68.099,104.502l0.187-0.051c0.423,0.524,1.488,1.607,3.062,1.607c1.186,0,2.589-0.795,2.589-2.606
		c0-0.948-0.677-2.725-3.215-2.809l0.389-1.049c0.119,0.017,0.221,0.034,0.34,0.034c1.149,0,2.148-1.083,2.148-2.183
		c0-0.964-0.66-1.946-2.233-1.946c-0.881,0-2.048,0.474-2.775,1.185h-0.188l-0.051-1.658c0.779-0.237,1.946-0.542,3.131-0.542
		c2.42,0,3.47,1.371,3.47,2.674c0,1.709-1.455,2.301-2.302,2.606v0.034c1.777,0.406,2.641,1.878,2.641,3.131
		c0,2.419-2.233,3.841-4.45,3.841c-0.981,0-1.861-0.169-2.488-0.44L68.099,104.502z"/>
	<path d="M80.262,94.484c1.506,0,2.504,1.218,2.504,3.486c0,2.183-0.999,3.351-2.504,3.351c-1.506,0-2.505-1.167-2.505-3.351
		C77.757,95.703,78.756,94.484,80.262,94.484z M80.262,100.949c1.117,0,1.489-1.1,1.489-2.979c0-2.098-0.542-3.113-1.489-3.113
		c-0.948,0-1.489,1.015-1.489,3.113C78.773,99.849,79.145,100.949,80.262,100.949z M85.846,94.383h0.711l-5.348,12.489h-0.71
		L85.846,94.383z M86.794,99.933c1.506,0,2.504,1.219,2.504,3.486c0,2.183-0.999,3.351-2.504,3.351
		c-1.506,0-2.504-1.168-2.504-3.351C84.29,101.152,85.288,99.933,86.794,99.933z M86.794,106.397c1.117,0,1.489-1.1,1.489-2.978
		c0-2.099-0.542-3.114-1.489-3.114s-1.489,1.015-1.489,3.114C85.305,105.297,85.677,106.397,86.794,106.397z"/>
</g>
<g>
	<path d="M4.729,196.248h0.306c0.777,0,1.116-0.288,1.116-1.388v-8.258c0-1.1-0.338-1.388-1.116-1.388H4.729v-0.507
		c0.592,0.017,1.404,0.051,2.166,0.051c0.745,0,1.455-0.034,2.166-0.051v0.507H8.757c-0.778,0-1.117,0.288-1.117,1.388v8.258
		c0,1.1,0.338,1.388,1.117,1.388h0.305v0.508c-0.711-0.017-1.421-0.051-2.166-0.051c-0.762,0-1.574,0.034-2.166,0.051L4.729,196.248
		L4.729,196.248z"/>
	<path d="M9.736,189.733c1.05-0.643,2.031-1.608,2.742-2.961l0.237-0.051v2.471h2.689l-0.236,0.71h-2.454v3.841
		c0,0.914,0.288,2.048,1.472,2.048c0.56,0,1.066-0.271,1.337-0.44l0.254,0.288l-1.388,1.167c-0.119,0.051-0.254,0.068-0.406,0.068
		c-0.169,0-1.252-0.085-1.895-0.779c-0.592-0.643-0.66-1.506-0.66-2.25v-3.943H9.736V189.733z"/>
	<path d="M20.7,191.611c0-0.914-0.406-1.946-1.423-1.946c-0.457,0-1.285,0.457-1.285,0.948c0,0.271,0.117,0.507,0.236,0.761
		l-1.083,0.525c-0.169-0.355-0.305-0.609-0.305-0.897c0-0.542,0.389-0.914,1.134-1.354c0.729-0.44,1.27-0.626,1.591-0.626
		c2.099,0,2.419,1.506,2.419,2.25v3.436c0,0.896,0.152,1.083,0.424,1.083c0.169,0,0.508-0.119,0.761-0.237v0.457l-1.642,0.778
		c-0.186,0.085-0.254,0.085-0.321,0.085c-0.221,0-0.338-0.44-0.423-0.965c-1.135,0.812-1.625,0.965-2.335,0.965
		c-1.235,0-1.912-0.914-1.912-1.828c0-1.049,0.643-1.438,1.776-1.878l2.387-0.931L20.7,191.611L20.7,191.611z M20.7,192.813
		l-1.761,0.728c-0.338,0.136-1.116,0.474-1.116,1.219c0,0.457,0.439,1.235,1.354,1.235c0.558,0,1.032-0.321,1.574-0.728
		c-0.034-0.186-0.051-0.406-0.051-0.812V192.813z"/>
	<path d="M23.861,184.555c0.779-0.305,1.54-0.66,2.506-1.218h0.169c-0.034,0.389-0.052,1.574-0.052,3.215v8.292
		c0,1.201,0.39,1.404,0.999,1.404h0.338v0.508c-0.643-0.017-1.438-0.051-1.979-0.051s-1.337,0.034-1.98,0.051v-0.508h0.34
		c0.608,0,0.998-0.203,0.998-1.404v-9.053c0-0.525-0.203-0.846-0.627-0.846c-0.287,0-0.574,0.135-0.711,0.186V184.555z"/>
	<path d="M29.072,198.973h0.17c0.254,0.22,0.659,0.372,0.964,0.372c0.88,0,1.456-0.863,1.828-1.726l0.271-0.643l-2.69-6.329
		c-0.305-0.694-0.523-0.999-1.2-0.999h-0.103v-0.507c0.507,0.017,0.914,0.051,1.607,0.051c0.559,0,1.117-0.051,1.675-0.051v0.507
		h-0.169c-0.474,0-0.626,0.169-0.626,0.457c0,0.186,0.119,0.559,0.203,0.745l1.929,4.467l1.404-4.129
		c0.084-0.271,0.22-0.643,0.22-0.931c0-0.524-0.423-0.609-0.762-0.609h-0.118v-0.507c0.491,0.017,0.947,0.051,1.354,0.051
		c0.509,0,0.999-0.034,1.507-0.051v0.507h-0.137c-0.795,0-1.031,0.525-1.438,1.642l-2.302,6.346
		c-0.609,1.692-1.32,2.792-3.063,2.792c-0.22,0-0.338-0.034-0.524-0.067L29.072,198.973L29.072,198.973z"/>
	<path d="M48.594,196.248h0.254c1.032,0,1.286-0.288,1.286-1.303v-8.444c0-0.761-0.338-0.998-1.049-0.998
		c-0.288,0-0.795,0.067-0.964,0.118v-0.575l3.13-0.288h0.305v10.187c0,1.134,0.322,1.303,1.066,1.303h0.32v0.508
		c-0.508-0.017-1.403-0.051-2.114-0.051c-0.863,0-1.692,0.034-2.234,0.051V196.248z"/>
	<path d="M60.149,184.589c2.064,0,4.129,1.658,4.129,5.957c0,3.114-0.914,6.329-4.196,6.329c-2.269,0-4.027-1.862-4.027-5.602
		C56.054,185.401,59.015,184.589,60.149,184.589z M60.149,196.367c1.98,0,2.641-1.929,2.641-5.534c0-3.401-0.524-5.736-2.572-5.736
		c-2.115,0-2.673,2.673-2.673,5.669C57.543,193.135,57.661,196.367,60.149,196.367z"/>
	<path d="M68.336,184.589c1.506,0,2.504,1.218,2.504,3.486c0,2.183-0.999,3.351-2.504,3.351c-1.506,0-2.505-1.167-2.505-3.351
		C65.831,185.807,66.83,184.589,68.336,184.589z M68.336,191.053c1.117,0,1.489-1.1,1.489-2.979c0-2.098-0.542-3.113-1.489-3.113
		c-0.948,0-1.489,1.015-1.489,3.113C66.847,189.953,67.219,191.053,68.336,191.053z M73.92,184.487h0.711l-5.348,12.489h-0.71
		L73.92,184.487z M74.868,190.038c1.506,0,2.504,1.219,2.504,3.486c0,2.183-0.999,3.351-2.504,3.351
		c-1.507,0-2.505-1.168-2.505-3.351C72.363,191.256,73.361,190.038,74.868,190.038z M74.868,196.502c1.116,0,1.488-1.1,1.488-2.978
		c0-2.099-0.542-3.114-1.488-3.114c-0.947,0-1.489,1.015-1.489,3.114C73.378,195.402,73.751,196.502,74.868,196.502z"/>
</g>
<path fill="#E83658" d="M115.49,317.346c0,5.067-0.814,9.179-1.818,9.179H5.905c-1.003,0-1.817-4.111-1.817-9.179v-7.022
	c0-5.07,0.813-9.182,1.817-9.182h107.767c1.004,0,1.817,4.111,1.817,9.182v7.022H115.49z"/>
<path fill="none" stroke="#492D08" stroke-width="0.4737" stroke-linecap="round" stroke-miterlimit="10" stroke-dasharray="2.7736" d="
	M113.412,316.037c0,3.182-0.782,5.762-1.75,5.762H7.915c-0.966,0-1.75-2.58-1.75-5.762v-4.406c0-3.18,0.784-5.76,1.75-5.76h103.748
	c0.968,0,1.75,2.58,1.75,5.76L113.412,316.037L113.412,316.037z"/>
<path fill="#E83658" d="M115.49,407.453c0,5.068-0.814,9.178-1.818,9.178H5.905c-1.003,0-1.817-4.107-1.817-9.178v-7.025
	c0-5.066,0.813-9.178,1.817-9.178h107.767c1.004,0,1.817,4.11,1.817,9.178v7.025H115.49z"/>
<path fill="none" stroke="#492D08" stroke-width="0.4737" stroke-linecap="round" stroke-miterlimit="10" stroke-dasharray="2.7736" d="
	M111.717,406.142c0,3.184-0.758,5.762-1.695,5.762H9.555c-0.937,0-1.694-2.578-1.694-5.762v-4.404c0-3.182,0.758-5.761,1.694-5.761
	h100.467c0.938,0,1.695,2.579,1.695,5.761V406.142z"/>
<path fill="#E83658" d="M94.011,496.255c0,5.068-0.657,9.18-1.468,9.18H5.555c-0.81,0-1.468-4.109-1.468-9.18v-7.021
	c0-5.07,0.658-9.182,1.468-9.182h86.988c0.811,0,1.468,4.109,1.468,9.182V496.255z"/>
<path fill="none" stroke="#492D08" stroke-width="0.4737" stroke-linecap="round" stroke-miterlimit="10" stroke-dasharray="2.7736" d="
	M87.936,494.951c0,3.18-0.567,5.756-1.27,5.756H11.43c-0.7,0-1.269-2.576-1.269-5.756v-4.408c0-3.182,0.568-5.76,1.269-5.76h75.235
	c0.702,0,1.27,2.578,1.27,5.76L87.936,494.951L87.936,494.951z"/>
<g>
	<path d="M8.757,274.587H8.436c-0.643,0.034-1.032,0.254-1.049,1.675c-0.017,1.777-0.068,3.571-0.068,5.348
		c0,1.438,0.237,2.098,0.694,2.741c0.525,0.762,1.421,1.354,2.809,1.354c1.507,0,2.775-0.897,3.165-1.456
		c0.542-0.761,0.812-1.811,0.812-3.012v-1.793c0-2.268-0.203-4.078-0.338-4.4c-0.187-0.389-0.372-0.457-0.795-0.457h-0.355v-0.507
		c0.475,0.017,1.15,0.051,1.777,0.051c0.608,0,1.201-0.034,1.811-0.051v0.507h-0.254c-0.608,0-1.032,0.237-1.032,1.845v4.332
		c0,1.811-0.423,3.198-1.319,4.197c-0.711,0.778-2.166,1.387-3.571,1.387c-1.235,0-2.217-0.321-3.283-1.117
		c-1.15-0.846-1.606-2.25-1.606-4.01v-5.331c0-1.083-0.457-1.303-1.083-1.303H4.442v-0.507c0.694,0.017,1.421,0.051,2.166,0.051
		c0.71,0,1.438-0.034,2.149-0.051V274.587z"/>
	<path d="M17.891,285.621h0.305c0.778,0,1.117-0.288,1.117-1.388v-8.258c0-1.1-0.338-1.388-1.117-1.388h-0.305v-0.507
		c0.592,0.017,1.404,0.051,2.166,0.051c0.745,0,1.455-0.034,2.2-0.051v0.507h-0.491c-0.677,0-0.964,0.187-0.964,1.794v3.977
		l3.706-4.129c0.169-0.186,0.812-0.863,0.812-1.202c0-0.304-0.236-0.44-0.559-0.44h-0.304v-0.507
		c0.626,0.017,1.336,0.051,1.997,0.051c0.677,0,1.337-0.034,2.014-0.051v0.507h-0.305c-0.829,0-1.117,0.152-2.115,1.202
		l-3.266,3.435l4.365,5.11c0.948,1.117,1.438,1.286,2.132,1.286h0.254v0.508c-0.542-0.017-1.101-0.051-1.642-0.051
		s-1.1,0.034-1.642,0.051c-0.084-0.491-0.135-0.745-1.101-1.845l-3.469-3.977l-0.88,0.931v2.589c0,1.607,0.288,1.793,0.964,1.793
		h0.491v0.508c-0.745-0.017-1.455-0.051-2.2-0.051c-0.762,0-1.574,0.034-2.166,0.051L17.891,285.621L17.891,285.621z"/>
	<path d="M46.092,275.417h-5.957v-1.286h7.074v0.203l-4.84,11.744h-1.017L46.092,275.417z"/>
	<path d="M51.741,273.961c1.506,0,2.504,1.218,2.504,3.486c0,2.183-0.999,3.351-2.504,3.351c-1.507,0-2.506-1.167-2.506-3.351
		C49.236,275.18,50.235,273.961,51.741,273.961z M51.741,280.426c1.116,0,1.488-1.1,1.488-2.979c0-2.098-0.542-3.113-1.488-3.113
		c-0.948,0-1.489,1.015-1.489,3.113C50.252,279.326,50.624,280.426,51.741,280.426z M57.325,273.86h0.711l-5.349,12.488h-0.71
		L57.325,273.86z M58.273,279.41c1.506,0,2.504,1.219,2.504,3.486c0,2.183-0.999,3.351-2.504,3.351
		c-1.506,0-2.504-1.168-2.504-3.351C55.769,280.629,56.767,279.41,58.273,279.41z M58.273,285.875c1.117,0,1.489-1.1,1.489-2.978
		c0-2.099-0.542-3.114-1.489-3.114c-0.946,0-1.488,1.015-1.488,3.114C56.784,284.774,57.156,285.875,58.273,285.875z"/>
</g>
<g>
	<path d="M8.757,364.473H8.436c-0.643,0.034-1.032,0.254-1.049,1.675c-0.017,1.777-0.068,3.57-0.068,5.348
		c0,1.438,0.237,2.098,0.694,2.741c0.525,0.763,1.421,1.354,2.809,1.354c1.507,0,2.775-0.897,3.165-1.457
		c0.542-0.76,0.812-1.811,0.812-3.012v-1.793c0-2.268-0.203-4.078-0.338-4.399c-0.187-0.39-0.372-0.457-0.795-0.457h-0.355v-0.507
		c0.475,0.017,1.15,0.051,1.777,0.051c0.608,0,1.201-0.034,1.811-0.051v0.507h-0.254c-0.608,0-1.032,0.237-1.032,1.845v4.332
		c0,1.811-0.423,3.198-1.319,4.197c-0.711,0.777-2.166,1.388-3.571,1.388c-1.235,0-2.217-0.321-3.283-1.116
		c-1.15-0.847-1.606-2.25-1.606-4.011v-5.331c0-1.083-0.457-1.303-1.083-1.303H4.442v-0.508c0.694,0.018,1.421,0.052,2.166,0.052
		c0.71,0,1.438-0.034,2.149-0.052V364.473z"/>
	<path d="M25.218,367.044h-0.575c-0.017-0.541-0.151-2.656-2.708-2.656c-1.405,0-2.301,0.896-2.301,1.996
		c0,0.982,0.507,1.676,1.912,2.318l1.557,0.711c1.218,0.56,2.521,1.473,2.521,3.166c0,2.114-1.389,3.654-4.214,3.654
		c-0.271,0-1.743-0.018-3.029-0.423l-0.068-2.774h0.508c0.136,1.557,1.438,2.623,2.878,2.623c1.454,0,2.707-0.881,2.707-2.302
		c0-1.489-1.168-2.063-2.114-2.521l-1.828-0.863c-1.286-0.609-2.184-1.523-2.184-2.911c0-1.743,1.489-3.317,3.773-3.317
		c1.066,0,2.115,0.254,3.165,0.457V367.044z"/>
	<path d="M26.754,375.505h0.203c0.931,0,1.303-0.422,1.828-1.827l3.875-10.187h0.32l4.35,10.373
		c0.405,0.981,0.931,1.641,1.709,1.641h0.354v0.509c-0.643-0.034-1.421-0.052-2.301-0.052c-0.897,0-1.709,0.018-2.335,0.052v-0.509
		h0.423c0.542,0,0.863-0.186,0.863-0.541c0-0.237-0.169-0.694-0.237-0.846l-1.235-3.047h-3.942l-0.897,2.674
		c-0.118,0.338-0.288,0.846-0.288,1.219c0,0.305,0.169,0.541,0.694,0.541h0.373v0.509c-0.592-0.034-1.286-0.052-2.082-0.052
		c-0.643,0-1.269,0.018-1.675,0.052V375.505z M32.423,365.792l-1.574,4.637h3.469L32.423,365.792z"/>
	<path d="M56.124,365.302h-5.957v-1.286h7.074v0.202l-4.841,11.744h-1.016L56.124,365.302z"/>
	<path d="M61.773,363.847c1.506,0,2.504,1.218,2.504,3.486c0,2.183-0.999,3.351-2.504,3.351c-1.506,0-2.505-1.167-2.505-3.351
		C59.268,365.065,60.267,363.847,61.773,363.847z M61.773,370.311c1.117,0,1.489-1.101,1.489-2.979c0-2.098-0.542-3.113-1.489-3.113
		s-1.488,1.016-1.488,3.113C60.284,369.21,60.656,370.311,61.773,370.311z M67.357,363.746h0.711l-5.348,12.488h-0.71
		L67.357,363.746z M68.305,369.294c1.506,0,2.504,1.22,2.504,3.486c0,2.184-0.999,3.352-2.504,3.352
		c-1.506,0-2.504-1.168-2.504-3.352C65.8,370.514,66.798,369.294,68.305,369.294z M68.305,375.759c1.117,0,1.489-1.1,1.489-2.977
		c0-2.1-0.542-3.115-1.489-3.115s-1.489,1.016-1.489,3.115C66.815,374.66,67.188,375.759,68.305,375.759z"/>
</g>
<g>
	<path d="M4.729,465.615h0.306c0.777,0,1.116-0.287,1.116-1.389v-8.258c0-1.1-0.338-1.389-1.116-1.389H4.729v-0.506
		c0.592,0.016,1.404,0.051,2.166,0.051c0.677,0,1.692-0.051,2.538-0.051c1.675,0,3.554,0.49,3.554,2.758
		c0,1.404-0.744,2.182-2.098,2.859v0.033c1.489,0.236,2.792,1.285,2.792,3.098c0,0.66-0.237,1.742-1.371,2.57
		c-0.677,0.49-1.455,0.729-2.961,0.729c-0.812,0-1.642-0.051-2.454-0.051c-0.762,0-1.574,0.033-2.166,0.051V465.615z M7.64,459.419
		c0.321,0.051,0.644,0.086,0.948,0.086c0.98,0,3.113-0.086,3.113-2.014c0-2.1-1.455-2.844-2.844-2.844
		c-1.15,0-1.218,0.271-1.218,0.83V459.419z M7.64,463.957c0,0.811,0.22,1.59,1.709,1.59c1.777,0,2.843-0.795,2.843-2.232
		c0-0.896-0.32-1.912-1.303-2.572c-0.778-0.508-1.489-0.592-2.318-0.592c-0.405,0-0.728,0.016-0.931,0.066V463.957z"/>
	<path d="M15.15,465.615h0.306c0.761,0,0.896-0.203,0.896-1.186v-3.688c0-0.561-0.151-0.812-0.542-0.812
		c-0.151,0-0.423,0.066-0.66,0.188v-0.508c0.71-0.307,1.523-0.695,2.218-1.221h0.169v1.762h0.033
		c0.559-1.15,1.286-1.762,2.149-1.762c0.474,0,0.795,0.104,1.015,0.17v1.592h-0.271c-0.119-0.475-0.626-0.609-1.083-0.609
		c-0.677,0-1.743,0.508-1.743,2.148v3.029c0,0.762,0.084,0.896,0.745,0.896h0.322v0.508c-0.391-0.018-1.135-0.051-1.692-0.051
		c-0.575,0-1.32,0.033-1.861,0.051V465.615L15.15,465.615z"/>
	<path d="M25.744,460.976c0-0.912-0.406-1.945-1.423-1.945c-0.456,0-1.285,0.457-1.285,0.947c0,0.271,0.117,0.51,0.236,0.764
		l-1.083,0.523c-0.169-0.355-0.305-0.609-0.305-0.896c0-0.541,0.389-0.914,1.134-1.355c0.729-0.438,1.27-0.625,1.591-0.625
		c2.099,0,2.419,1.506,2.419,2.25v3.436c0,0.896,0.152,1.084,0.424,1.084c0.169,0,0.508-0.119,0.761-0.236v0.457l-1.642,0.777
		c-0.187,0.084-0.254,0.084-0.321,0.084c-0.221,0-0.338-0.439-0.423-0.963c-1.135,0.811-1.625,0.963-2.335,0.963
		c-1.235,0-1.912-0.912-1.912-1.826c0-1.051,0.643-1.439,1.776-1.879l2.387-0.932L25.744,460.976L25.744,460.976z M25.744,462.179
		l-1.761,0.729c-0.338,0.135-1.116,0.473-1.116,1.217c0,0.457,0.439,1.236,1.354,1.236c0.559,0,1.033-0.322,1.574-0.729
		c-0.034-0.186-0.051-0.406-0.051-0.812V462.179z"/>
	<path d="M34.084,459.082h-2.472c-0.997,0-1.625,0.406-1.793,1.795h-0.405c0.034-0.389,0.102-0.795,0.102-1.186
		c0-0.389,0-0.795-0.034-1.186c0.524,0.02,1.473,0.051,2.81,0.051c1.269,0,2.927-0.031,3.791-0.051l-5.229,7.041h2.657
		c1.557,0,1.946-0.523,2.183-1.795h0.406c-0.066,0.627-0.118,1.574-0.102,2.369c-0.575-0.018-2.369-0.051-3.756-0.051
		c-1.304,0-2.623,0.033-3.132,0.051v-0.219L34.084,459.082z"/>
	<path d="M37.042,465.615h0.339c0.609,0,0.998-0.203,0.998-1.404v-3.418c0-0.678-0.203-0.863-0.524-0.863
		c-0.254,0-0.542,0.102-0.728,0.188v-0.508c0.728-0.271,1.895-0.881,2.369-1.221h0.169v5.822c0,1.201,0.389,1.404,0.999,1.404h0.338
		v0.508c-0.644-0.018-1.438-0.051-1.98-0.051s-1.337,0.033-1.979,0.051V465.615z M39.022,455.003c0.475,0,0.847,0.373,0.847,0.846
		c0,0.475-0.372,0.848-0.847,0.848c-0.474,0-0.846-0.373-0.846-0.848C38.176,455.376,38.548,455.003,39.022,455.003z"/>
	<path d="M41.745,453.921c0.778-0.305,1.54-0.66,2.505-1.219h0.169c-0.034,0.389-0.051,1.574-0.051,3.215v8.293
		c0,1.201,0.389,1.404,0.999,1.404h0.338v0.508c-0.644-0.018-1.438-0.051-1.98-0.051s-1.337,0.033-1.979,0.051v-0.508h0.339
		c0.608,0,0.998-0.203,0.998-1.404v-9.055c0-0.523-0.203-0.846-0.626-0.846c-0.288,0-0.575,0.135-0.711,0.186V453.921
		L41.745,453.921z"/>
	<path d="M57.647,454.125h5.5l-0.186,1.217h-4.874l-0.321,2.691c0.237-0.018,0.44-0.035,0.693-0.035c4.349,0,5.06,2.811,5.06,3.994
		c0,2.232-1.743,4.248-4.518,4.248c-1.252,0-1.946-0.307-2.318-0.475l0.067-1.541l0.119-0.051c0.812,0.881,1.691,1.254,2.792,1.254
		c1.896,0,2.843-1.508,2.843-2.674c0-2.674-2.419-3.268-4.484-3.268h-0.998L57.647,454.125z"/>
	<path d="M68.356,453.955c1.506,0,2.504,1.219,2.504,3.486c0,2.184-0.999,3.352-2.504,3.352c-1.506,0-2.505-1.168-2.505-3.352
		C65.851,455.173,66.85,453.955,68.356,453.955z M68.356,460.417c1.117,0,1.489-1.1,1.489-2.977c0-2.1-0.542-3.115-1.489-3.115
		s-1.488,1.016-1.488,3.115C66.867,459.32,67.239,460.417,68.356,460.417z M73.94,453.853h0.711l-5.348,12.488h-0.71L73.94,453.853z
		 M74.888,459.404c1.506,0,2.504,1.219,2.504,3.484c0,2.186-0.999,3.352-2.504,3.352c-1.506,0-2.504-1.166-2.504-3.352
		C72.383,460.623,73.381,459.404,74.888,459.404z M74.888,465.869c1.117,0,1.489-1.102,1.489-2.98c0-2.098-0.542-3.111-1.489-3.111
		s-1.489,1.016-1.489,3.111C73.398,464.767,73.771,465.869,74.888,465.869z"/>
</g>
<path fill="#E83658" d="M81.183,582.154c0,5.07-0.562,9.18-1.255,9.18H5.545c-0.693,0-1.256-4.109-1.256-9.18v-7.023
	c0-5.068,0.562-9.18,1.256-9.18h74.383c0.692,0,1.255,4.109,1.255,9.18V582.154z"/>
<path fill="none" stroke="#492D08" stroke-width="0.4737" stroke-linecap="round" stroke-miterlimit="10" stroke-dasharray="2.7736" d="
	M77.55,580.845c0,3.184-0.507,5.76-1.135,5.76H9.058c-0.628,0-1.137-2.576-1.137-5.76v-4.406c0-3.182,0.509-5.76,1.137-5.76h67.356
	c0.628,0,1.135,2.578,1.135,5.76L77.55,580.845L77.55,580.845z"/>
<g>
	<path d="M16.067,541.921h-0.271c-0.44-0.881-1.252-2.539-4.45-2.539c-3.436,0-4.535,3.164-4.535,5.652
		c0,4.027,2.86,5.414,4.62,5.414c2.657,0,3.875-1.506,4.67-2.504h0.119v1.285c-0.592,0.561-2.031,1.93-4.654,1.93
		c-3.841,0-6.446-2.42-6.446-5.82c0-3.266,2.284-6.668,6.295-6.668c1.675,0,3.282,0.525,3.875,0.711
		c0.321,0.104,0.643,0.221,0.846,0.236L16.067,541.921z"/>
	<path d="M21.969,545.796c0-0.914-0.406-1.945-1.422-1.945c-0.457,0-1.286,0.455-1.286,0.947c0,0.271,0.118,0.508,0.237,0.762
		l-1.083,0.523c-0.169-0.354-0.306-0.609-0.306-0.896c0-0.541,0.39-0.912,1.135-1.354c0.728-0.439,1.269-0.627,1.591-0.627
		c2.098,0,2.419,1.506,2.419,2.252v3.434c0,0.898,0.151,1.084,0.423,1.084c0.169,0,0.508-0.117,0.761-0.236v0.457l-1.641,0.777
		c-0.188,0.084-0.254,0.084-0.322,0.084c-0.22,0-0.338-0.438-0.423-0.963c-1.134,0.812-1.625,0.963-2.335,0.963
		c-1.235,0-1.912-0.912-1.912-1.826c0-1.049,0.644-1.438,1.777-1.879l2.386-0.932L21.969,545.796L21.969,545.796z M21.969,547
		l-1.76,0.727c-0.338,0.137-1.117,0.475-1.117,1.219c0,0.457,0.44,1.234,1.354,1.234c0.56,0,1.033-0.32,1.574-0.727
		c-0.034-0.188-0.051-0.406-0.051-0.812V547z"/>
	<path d="M25.165,550.433h0.305c0.761,0,0.896-0.203,0.896-1.186v-2.877c0-1.521-0.203-1.775-0.593-1.775
		c-0.151,0-0.372,0.066-0.608,0.188v-0.508c0.71-0.238,1.522-0.627,2.217-1.066h0.169v1.488c0.626-0.66,1.472-1.488,2.572-1.488
		c0.575,0,1.557,0.305,2.063,1.285c0.322,0.592,0.373,1.338,0.373,2.049v3.061c0,0.66,0.118,0.83,0.947,0.83h0.254v0.508
		c-0.406-0.018-1.167-0.051-1.743-0.051c-0.608,0-1.388,0.033-1.845,0.051v-0.508h0.305c0.71,0,0.795-0.355,0.795-1.404v-2.656
		c0-0.914-0.085-1.355-0.559-1.812c-0.22-0.219-0.592-0.404-1.167-0.404c-0.711,0-1.506,0.643-1.896,1.016v4.365
		c0,0.762,0.084,0.896,0.745,0.896h0.322v0.508c-0.39-0.018-1.134-0.051-1.692-0.051c-0.574,0-1.319,0.033-1.86,0.051V550.433z"/>
	<path d="M39.207,545.796c0-0.914-0.406-1.945-1.422-1.945c-0.457,0-1.286,0.455-1.286,0.947c0,0.271,0.118,0.508,0.236,0.762
		l-1.083,0.523c-0.169-0.354-0.305-0.609-0.305-0.896c0-0.541,0.389-0.912,1.134-1.354c0.729-0.439,1.27-0.627,1.592-0.627
		c2.098,0,2.419,1.506,2.419,2.252v3.434c0,0.898,0.151,1.084,0.423,1.084c0.169,0,0.508-0.117,0.761-0.236v0.457l-1.641,0.777
		c-0.187,0.084-0.255,0.084-0.322,0.084c-0.22,0-0.338-0.438-0.423-0.963c-1.134,0.812-1.625,0.963-2.335,0.963
		c-1.235,0-1.912-0.912-1.912-1.826c0-1.049,0.643-1.438,1.776-1.879l2.387-0.932L39.207,545.796L39.207,545.796z M39.207,547
		l-1.761,0.727c-0.338,0.137-1.116,0.475-1.116,1.219c0,0.457,0.439,1.234,1.354,1.234c0.559,0,1.032-0.32,1.574-0.727
		c-0.034-0.188-0.051-0.406-0.051-0.812V547z"/>
	<path d="M51.303,550.128c-0.677,0.287-1.438,0.609-2.301,1.031c-0.237-0.254-0.322-0.795-0.355-1.186
		c-0.728,0.609-1.591,1.084-2.674,1.084c-1.574,0-3.3-1.186-3.3-3.707c0-2.232,1.709-4.145,3.892-4.145
		c0.778,0,1.354,0.168,2.082,0.49v-3.725c0-0.523-0.203-0.846-0.626-0.846c-0.288,0-0.576,0.137-0.711,0.188v-0.576
		c0.778-0.305,1.54-0.658,2.504-1.219h0.169c-0.033,0.391-0.051,1.574-0.051,3.217v7.732c0,1.1,0.22,1.371,0.609,1.371
		c0.187,0,0.457-0.035,0.762-0.221V550.128z M48.646,544.712c-0.439-0.371-1.117-0.93-2.132-0.93c-1.658,0-2.555,1.354-2.555,2.893
		c0,1.523,0.762,3.504,2.555,3.504c1.016,0,1.642-0.389,2.132-0.777V544.712z"/>
	<path d="M56.444,545.796c0-0.914-0.405-1.945-1.422-1.945c-0.457,0-1.286,0.455-1.286,0.947c0,0.271,0.118,0.508,0.237,0.762
		l-1.083,0.523c-0.169-0.354-0.305-0.609-0.305-0.896c0-0.541,0.389-0.912,1.134-1.354c0.728-0.439,1.269-0.627,1.591-0.627
		c2.099,0,2.419,1.506,2.419,2.252v3.434c0,0.898,0.152,1.084,0.423,1.084c0.169,0,0.509-0.117,0.762-0.236v0.457l-1.642,0.777
		c-0.187,0.084-0.254,0.084-0.321,0.084c-0.221,0-0.339-0.438-0.424-0.963c-1.134,0.812-1.625,0.963-2.335,0.963
		c-1.234,0-1.912-0.912-1.912-1.826c0-1.049,0.644-1.438,1.777-1.879l2.386-0.932L56.444,545.796L56.444,545.796z M56.444,547
		l-1.76,0.727c-0.338,0.137-1.117,0.475-1.117,1.219c0,0.457,0.44,1.234,1.354,1.234c0.559,0,1.033-0.32,1.574-0.727
		c-0.034-0.188-0.052-0.406-0.052-0.812V547z"/>
	<path d="M74.189,547.353h-5.194l-0.084-0.186c2.571-3.588,3.621-5.18,6.396-8.902h0.288l-0.068,8.141h1.438
		c-0.051,0.17-0.068,0.34-0.068,0.492c0,0.117,0.018,0.234,0.068,0.455h-1.438l-0.017,3.537h-1.354L74.189,547.353z M74.224,540.873
		l-0.034-0.033c-1.286,1.879-2.623,3.723-3.926,5.566h3.926L74.224,540.873z"/>
	<path d="M81.514,538.775c1.506,0,2.504,1.219,2.504,3.484c0,2.184-0.999,3.352-2.504,3.352c-1.506,0-2.505-1.168-2.505-3.352
		C79.009,539.994,80.008,538.775,81.514,538.775z M81.514,545.238c1.117,0,1.489-1.1,1.489-2.979c0-2.098-0.542-3.113-1.489-3.113
		c-0.948,0-1.489,1.016-1.489,3.113C80.025,544.138,80.397,545.238,81.514,545.238z M87.098,538.671h0.711l-5.348,12.488h-0.71
		L87.098,538.671z M88.046,544.222c1.506,0,2.504,1.219,2.504,3.486c0,2.184-0.999,3.35-2.504,3.35c-1.506,0-2.504-1.166-2.504-3.35
		C85.542,545.441,86.54,544.222,88.046,544.222z M88.046,550.687c1.117,0,1.489-1.1,1.489-2.979c0-2.098-0.542-3.113-1.489-3.113
		s-1.489,1.016-1.489,3.113C86.557,549.587,86.929,550.687,88.046,550.687z"/>
</g>
<path fill="#E83658" d="M750.21,49.829c0,5.069-2.04,9.18-4.557,9.18H475.643c-2.516,0-4.555-4.11-4.555-9.18v-7.023
	c0-5.068,2.039-9.18,4.555-9.18h270.012c2.517,0,4.557,4.112,4.557,9.18L750.21,49.829L750.21,49.829z"/>
<path fill="none" stroke="#492D08" stroke-width="0.75" stroke-linecap="round" stroke-miterlimit="10" stroke-dasharray="3.2532" d="
	M745.004,48.521c0,3.181-1.962,5.76-4.383,5.76H480.677c-2.422,0-4.384-2.579-4.384-5.76v-4.407c0-3.181,1.962-5.76,4.384-5.76
	h259.944c2.421,0,4.383,2.579,4.383,5.76V48.521L745.004,48.521z"/>
<path fill="#E83658" d="M640.397,139.936c0,5.069-1.237,9.178-2.763,9.178H473.852c-1.526,0-2.764-4.109-2.764-9.178v-7.023
	c0-5.069,1.236-9.179,2.764-9.179h163.783c1.524,0,2.763,4.11,2.763,9.179L640.397,139.936L640.397,139.936z"/>
<path fill="none" stroke="#492D08" stroke-width="0.75" stroke-linecap="round" stroke-miterlimit="10" stroke-dasharray="4.1994" d="
	M634.663,138.627c0,3.181-1.153,5.76-2.577,5.76H479.397c-1.425,0-2.576-2.579-2.576-5.76v-4.407c0-3.181,1.151-5.759,2.576-5.759
	h152.688c1.424,0,2.577,2.579,2.577,5.759L634.663,138.627L634.663,138.627z"/>
<path fill="#E83658" d="M607.865,228.739c0,5.07-1,9.18-2.232,9.18H473.32c-1.233,0-2.231-4.109-2.231-9.18v-7.022
	c0-5.069,0.998-9.18,2.231-9.18h132.312c1.232,0,2.232,4.11,2.232,9.18L607.865,228.739L607.865,228.739z"/>
<path fill="none" stroke="#492D08" stroke-width="0.75" stroke-linecap="round" stroke-miterlimit="10" stroke-dasharray="4.1994" d="
	M598.625,227.432c0,3.181-0.865,5.76-1.932,5.76H482.256c-1.063,0-1.93-2.579-1.93-5.76v-4.407c0-3.181,0.865-5.76,1.93-5.76
	h114.438c1.065,0,1.932,2.579,1.932,5.76L598.625,227.432L598.625,227.432z"/>
<text transform="matrix(1 0 0 1 471.0862 18.561)" font-family="'Berling-Roman'" font-size="16.9165">India  31%</text>
<text transform="matrix(1 0 0 1 471.0862 108.4468)" font-family="'Berling-Roman'" font-size="16.9165">China  13%</text>
<text transform="matrix(1 0 0 1 471.0862 198.5513)" font-family="'Berling-Roman'" font-size="16.9165">Italy  10%</text>
<path fill="#E83658" d="M582.49,319.192c0,5.067-0.814,9.179-1.818,9.179H472.906c-1.003,0-1.817-4.111-1.817-9.179v-7.022
	c0-5.07,0.814-9.182,1.817-9.182h107.767c1.004,0,1.818,4.111,1.818,9.182V319.192z"/>
<path fill="none" stroke="#492D08" stroke-width="0.75" stroke-linecap="round" stroke-miterlimit="10" stroke-dasharray="4.1994" d="
	M580.412,317.882c0,3.183-0.782,5.762-1.75,5.762H474.914c-0.966,0-1.75-2.579-1.75-5.762v-4.405c0-3.181,0.784-5.761,1.75-5.761
	h103.748c0.968,0,1.75,2.58,1.75,5.761V317.882z"/>
<path fill="#E83658" d="M582.49,409.298c0,5.068-0.814,9.178-1.818,9.178H472.906c-1.003,0-1.817-4.107-1.817-9.178v-7.023
	c0-5.068,0.814-9.179,1.817-9.179h107.767c1.004,0,1.818,4.11,1.818,9.179V409.298z"/>
<path fill="none" stroke="#492D08" stroke-width="0.75" stroke-linecap="round" stroke-miterlimit="10" stroke-dasharray="4.1994" d="
	M578.717,407.99c0,3.182-0.758,5.76-1.695,5.76H476.555c-0.938,0-1.693-2.578-1.693-5.76v-4.406c0-3.182,0.757-5.76,1.693-5.76
	h100.467c0.938,0,1.695,2.578,1.695,5.76V407.99z"/>
<path fill="#E83658" d="M561.011,498.101c0,5.07-0.657,9.182-1.468,9.182h-86.988c-0.81,0-1.467-4.111-1.467-9.182v-7.021
	c0-5.07,0.657-9.182,1.467-9.182h86.988c0.811,0,1.468,4.111,1.468,9.182V498.101z"/>
<path fill="none" stroke="#492D08" stroke-width="0.75" stroke-linecap="round" stroke-miterlimit="10" stroke-dasharray="5.1413" d="
	M554.936,496.796c0,3.18-0.567,5.756-1.27,5.756H478.43c-0.698,0-1.268-2.576-1.268-5.756v-4.408c0-3.182,0.568-5.76,1.268-5.76
	h75.236c0.701,0,1.27,2.578,1.27,5.76V496.796L554.936,496.796z"/>
<text transform="matrix(1 0 0 1 471.0862 287.9233)" font-family="'Berling-Roman'" font-size="16.9165">UK  7%</text>
<text transform="matrix(1 0 0 1 471.0862 377.8091)" font-family="'Berling-Roman'" font-size="16.9165">USA  7%</text>
<text transform="matrix(1 0 0 1 471.0862 467.9175)" font-family="'Berling-Roman'" font-size="16.9165">Brazil  5%</text>
<path fill="#E83658" d="M548.184,584c0,5.07-0.562,9.18-1.256,9.18h-74.383c-0.693,0-1.256-4.107-1.256-9.18v-7.023
	c0-5.066,0.562-9.18,1.256-9.18h74.383c0.692,0,1.256,4.111,1.256,9.18V584z"/>
<path fill="none" stroke="#492D08" stroke-width="0.75" stroke-linecap="round" stroke-miterlimit="10" stroke-dasharray="4.0728" d="
	M544.55,582.691c0,3.184-0.507,5.76-1.136,5.76h-67.355c-0.629,0-1.138-2.576-1.138-5.76v-4.404c0-3.184,0.509-5.76,1.138-5.76
	h67.355c0.629,0,1.136,2.576,1.136,5.76V582.691z"/>
<text transform="matrix(1 0 0 1 471.0862 552.7349)" font-family="'Berling-Roman'" font-size="16.9165">Canada  4%</text>
</svg>
