<?xml version="1.0" encoding="utf-8"?>
<!-- Generator: Adobe Illustrator 16.0.0, SVG Export Plug-In . SVG Version: 6.00 Build 0)  -->
<!DOCTYPE svg PUBLIC "-//W3C//DTD SVG 1.1//EN" "http://www.w3.org/Graphics/SVG/1.1/DTD/svg11.dtd">
<svg version="1.1" id="Layer_1" xmlns="http://www.w3.org/2000/svg" xmlns:xlink="http://www.w3.org/1999/xlink" x="0px" y="0px"
	 width="182.917px" height="182.5px" viewBox="0 0 182.917 182.5" enable-background="new 0 0 182.917 182.5" xml:space="preserve">
<circle fill="#FFFFFF" stroke="#E83658" stroke-linecap="round" stroke-miterlimit="10" stroke-dasharray="4.6311" cx="91.459" cy="91.298" r="89.166"/>
<g>
	<path fill="#E83658" d="M46.153,141.675c-0.085,0-0.127-0.21-0.042-0.21C46.195,141.465,46.237,141.675,46.153,141.675z
		 M47.737,127.591c0,0-0.317-0.069-0.421,0.045c-1.035,1.132-0.043,3.095,0.042,5.796c0.148,4.873-0.127,10.782-0.127,10.782
		s0.02,0.254,0.042,0.37c0.275,1.501,3.569,0.231,3.569,0.231c4.922,0.3,7.286-2.797,7.286-8.521c0-5.126-2.154-9.119-6.928-8.888
		L47.737,127.591z M48.116,140.752c-0.062,0-0.062-0.187,0-0.187C48.181,140.565,48.181,140.752,48.116,140.752z M49.257,142.228
		c0-2.447-0.527-5.702-0.612-8.428c-0.063-2.125,0.275-2.956,0.085-3.972c-0.19-0.994,0.486-0.715,0.486-0.715l2.344-0.279
		c1.563-0.183,3.147,0.394,3.992,1.434c0.993,1.226,0.845,3.487,0.845,5.957c0,5.219-1.478,7.479-5.597,7.204l-0.654-0.044
		C50.144,143.385,49.257,143.385,49.257,142.228z M50.82,130.06c-0.084,0.022-0.168-0.207-0.084-0.23
		C50.82,129.808,50.904,130.038,50.82,130.06z M55.467,134.147c0.442-0.231,0.675-0.692,0.613-1.246
		c-0.064-0.6-1.415-0.646-1.057-1.041c0.211-0.229,1.416,0.948,1.204,0.347c-0.063-0.159-0.063-0.969-0.063-0.39
		c0,0.138,0.106,0.275,0.106,0.438c0,0.576-1.014-0.811-1.31-0.325c-0.19,0.302,1.098,0.392,1.141,1.017
		c0.042,0.578-0.253,1.039-0.76,1.246c-0.296,0.114-1.246-0.625-1.562-0.924C53.228,132.737,54.833,134.492,55.467,134.147z
		 M56.585,129.439c-0.402,0.321-0.571,0.807-0.423,1.361c0.169,0.576,1.5,0.367,1.204,0.807c-0.169,0.278-1.541-0.669-1.225-0.114
		c0.084,0.16,0.21,0.948,0.126,0.393c-0.021-0.14-0.149-0.255-0.189-0.418c-0.085-0.575,1.139,0.603,1.351,0.071
		c0.127-0.347-1.14-0.186-1.288-0.785c-0.127-0.555,0.084-1.086,0.549-1.386c0.275-0.163,1.33,0.393,1.689,0.622
		C59.013,130.405,57.135,128.976,56.585,129.439z"/>
	<path fill="#E83658" d="M61.843,129.277c0,0-0.359,0.391-0.634,0.391c-0.148,0-0.381-0.161-0.381-0.161s-0.527-0.463-0.569-0.879
		c-0.062-0.462,0.358-1.108,0.358-1.108s0.318-0.137,0.486-0.163c0.317-0.043,0.845,0.048,0.845,0.048s0.106,0.531,0.106,0.877
		C62.054,128.677,61.843,129.277,61.843,129.277z M62.054,145.37h-1.648c0,0,0.253-7.227-0.042-12.006
		c-0.02-0.255,0.042-0.742,0.042-0.742s0.676-0.138,1.014,0.049c0.127,0.066,0.317,0.301,0.317,0.301s0.211,0.16,0.106,2.008
		C61.632,138.674,62.054,145.37,62.054,145.37z"/>
	<path fill="#E83658" d="M66.066,144.907c0,0-0.189,0.671-0.486,0.693c-0.337,0.023-0.634-0.693-0.634-0.693l-0.316-12.517
		c0,0,0.992-0.252,1.268,0.163c0.125,0.21,0.168,0.647,0.168,0.647l0.211,0.737c0.972-0.852,1.879-1.686,3.21-1.686
		c1.646,0,3.146,0.992,2.977,4.318c0,0,0.635,5.057-0.443,7.873c-0.084,0.255-0.296,0.692-0.296,0.692l-0.697,0.115
		c0,0-0.484,0.139-0.421-0.347c0.105-1.015,0.592-3.418,0.57-4.733c-0.021-1.13-0.253-2.909-0.253-2.909
		c-0.106-1.292,0-2.817-1.647-3.533c-1.859-0.809-2.343,1.084-2.999,1.94L66.066,144.907z"/>
	<path fill="#E83658" d="M76.477,129.277c0,0-0.36,0.391-0.633,0.391c-0.147,0-0.38-0.161-0.38-0.161s-0.528-0.463-0.57-0.879
		c-0.063-0.462,0.359-1.108,0.359-1.108s0.317-0.137,0.486-0.163c0.316-0.043,0.845,0.048,0.845,0.048s0.105,0.531,0.105,0.877
		C76.688,128.677,76.477,129.277,76.477,129.277z M76.688,145.37h-1.646c0,0,0.254-7.227-0.042-12.006
		c-0.02-0.255,0.042-0.742,0.042-0.742s0.676-0.138,1.013,0.049c0.128,0.066,0.318,0.301,0.318,0.301s0.211,0.16,0.106,2.008
		C76.267,138.674,76.688,145.37,76.688,145.37z"/>
	<path fill="#E83658" d="M80.7,144.907c0,0-0.19,0.671-0.486,0.693c-0.337,0.023-0.634-0.693-0.634-0.693l-0.317-12.517
		c0,0,0.993-0.252,1.268,0.163c0.127,0.21,0.169,0.647,0.169,0.647l0.21,0.737c0.973-0.852,1.881-1.686,3.211-1.686
		c1.646,0,3.147,0.992,2.979,4.318c0,0,0.633,5.057-0.444,7.873c-0.084,0.255-0.295,0.692-0.295,0.692l-0.697,0.115
		c0,0-0.486,0.139-0.422-0.347c0.105-1.015,0.591-3.418,0.57-4.733c-0.02-1.13-0.253-2.909-0.253-2.909
		c-0.106-1.292,0-2.817-1.647-3.533c-1.858-0.809-2.344,1.084-2.999,1.94L80.7,144.907z"/>
	<path fill="#E83658" d="M99.37,133.661l-0.612,0.23c-0.297,0.094-0.718-0.23-1.141,0.023c-0.337,0.023,0.465,1.823,0.465,2.771
		c0,2.471-1.667,4.386-3.927,4.386c-0.676,0-1.902-0.208-2.514-0.46c-0.233-0.439-1.437,0.738-1.437,1.363
		c0,1.613,8.85-0.348,8.85,4.478c0,0.946-0.338,3.879-5.006,3.879c-3.802,0-4.92-2.171-4.92-3.739c0-1.317,1.055-2.032,2.027-2.495
		c0.064-0.37-1.458-0.854-1.458-1.776c0-1.133,1.373-1.963,1.331-2.402c-0.845-1.084-1.161-1.778-1.161-3.278
		c0-2.585,1.774-4.388,4.119-4.388c0.93,0,1.773,0.301,2.534,0.9c0.763-0.624,1.646-1.083,2.642-0.969L99.37,133.661z
		 M91.344,145.297c0.295-0.691-1.669,1.895-0.76,1.872c0.718-0.021,0.231-0.603,0.379-0.969
		C91.089,145.878,91.217,145.624,91.344,145.297z M92.842,144.308c-0.886,0.185-2.132,1.04-2.132,2.192
		c0,1.755,2.62,3.095,3.739,3.095c1.183,0,3.02-1.5,3.02-3.256c0-1.34-2.007-2.635-2.767-2.472L92.842,144.308z M94.027,133.201
		c-1.585,0-2.958,1.868-2.958,3.508c0,1.595,1.353,3.351,2.874,3.351c1.69,0,2.618-1.617,2.618-3.372
		C96.56,135.025,95.672,133.201,94.027,133.201z M95.588,152.363c-0.253,0.163,0.169,0.788,0.381,0.693
		C96.392,152.896,95.843,152.203,95.588,152.363z"/>
	<path fill="#E83658" d="M118.987,136.388c0,5.911-2.535,9.352-5.954,9.352c-3.422,0-5.956-3.44-5.956-9.352
		c0-5.909,2.534-9.353,5.956-9.353C116.452,127.035,118.987,130.478,118.987,136.388z M108.386,136.042
		c0,5.447,2.365,8.148,4.646,8.148c2.279,0,4.962-2.932,4.962-8.382c0-5.448-2.682-7.227-4.962-7.227
		C110.751,128.582,108.386,130.591,108.386,136.042z"/>
	<path fill="#E83658" d="M128.889,135.208l0.148,10.161c0,0-0.949,0.415-1.33,0.045c-0.084-0.068-0.19-0.277-0.19-0.277
		l-0.043-0.531c-0.042-1.685-1.962,1.133-3.292,1.133c-1.648,0-2.979-0.994-2.979-4.318c0,0,0.295-4.895,0-7.826
		c-0.126-1.271,0.888-0.972,0.888-0.972l0.506,0.049c0,0,0.338,0,0.255,0.693c-0.359,3.023-0.212,7.594-0.212,7.594
		c-0.043,1.341,1.055,3.535,2.387,3.535c1.012,0,2.257-0.81,2.365-2.172c0,0,0.126-6.695,0.02-9.143
		c0-0.139,0.254-0.139,0.381-0.229c0.17-0.095,0.253-0.254,0.423-0.324c0.106-0.045,0.632,0.092,0.758,0.092
		C129.439,132.764,128.889,135.208,128.889,135.208z M123.167,135.694c0.02-0.486-0.951-0.716-0.655-1.108
		c0.105-0.164,0.401-0.278,0.401-0.278c0.063,0.023-0.296,0.114-0.401,0.255C122.216,134.956,123.209,135.188,123.167,135.694z"/>
	<path fill="#E83658" d="M130.854,132.668c0.317-0.462,1.394-0.046,1.394-0.046l0.086-3.81c0,0,0.104-0.415,0.252-0.532
		c0.339-0.274,1.1,0.395,1.1,0.395s0.168,1.06,0.041,2.285c-0.062,0.692,0.169,1.66,0.169,1.66s2.346-0.83,2.619,0.231
		c0.043,0.162,0.064,0.465,0.064,0.465l-0.381,0.737l-2.303,0.094c0,0,0,0.552,0,0.921c0,0.209-0.296,0.486-0.296,0.717
		c0,0.161,0.296,1.062,0.296,1.224c0,2.656,0,5.148,0,5.148c0,1.247-0.126,3.603,0.909,2.609c0.338-0.323,1.288-2.032,1.606-1.223
		l0.294,0.253c0.696,0.484-1.246,1.941-1.815,1.941c-2.786,0-2.639-2.058-2.639-4.389v-7.204l-1.141-0.046
		C131.107,134.101,130.537,133.131,130.854,132.668z"/>
</g>
<g>
	<g>
		<path fill="#F2F7B5" stroke="#492D08" stroke-width="0.5002" stroke-linecap="round" stroke-miterlimit="10" d="M93,41.989
			l4.418,4.676c0,0-2.168,1.513-5.669,6.886c-3.501,5.371-6.341,9.605-6.341,9.605l-15.172-2.55l5.257-6.632
			c0,0,6.922-2.23,11.165-6.12S93,41.989,93,41.989z"/>
		<polygon fill="#416B6D" points="45.734,54.167 91.75,54.167 84.998,100.167 52.486,100.167 		"/>
		
			<ellipse fill="none" stroke="#416B6D" stroke-width="5.051" stroke-miterlimit="10" cx="48.486" cy="66.642" rx="7.086" ry="7.226"/>
		
			<ellipse fill="none" stroke="#416B6D" stroke-width="5.051" stroke-miterlimit="10" cx="89.499" cy="66.642" rx="7.086" ry="7.226"/>
		
			<line fill="none" stroke="#DBF7FC" stroke-width="2.0204" stroke-linecap="round" stroke-miterlimit="10" x1="50.303" y1="84.582" x2="87.159" y2="84.468"/>
		
			<line fill="none" stroke="#DBF7FC" stroke-width="2.0204" stroke-linecap="round" stroke-miterlimit="10" x1="51.304" y1="90.192" x2="85.909" y2="90.078"/>
		<path fill="#F2F7B5" stroke="#492D08" stroke-width="0.5002" stroke-linecap="round" stroke-miterlimit="10" d="M94.502,40.119
			l4.666,4.846c0,0,6.836-4.931,3.461-8.161C99.252,33.573,94.502,40.119,94.502,40.119z"/>
		<polygon fill="#F2F7B5" stroke="#492D08" stroke-linecap="round" stroke-miterlimit="10" points="92,67.667 112.508,67.667 
			102.254,84.313 		"/>
		
			<line fill="none" stroke="#492D08" stroke-linecap="round" stroke-miterlimit="10" x1="97.217" y1="99.667" x2="108.217" y2="99.667"/>
		
			<line fill="none" stroke="#492D08" stroke-linecap="round" stroke-miterlimit="10" x1="102.717" y1="84.167" x2="102.717" y2="99.167"/>
		
			<circle fill="#F2F7B5" stroke="#492D08" stroke-width="0.5002" stroke-linecap="round" stroke-miterlimit="10" cx="103.567" cy="77.696" r="1.188"/>
		
			<circle fill="#F2F7B5" stroke="#492D08" stroke-width="0.5002" stroke-linecap="round" stroke-miterlimit="10" cx="105.713" cy="74.841" r="0.959"/>
		
			<circle fill="#F2F7B5" stroke="#492D08" stroke-width="0.5002" stroke-linecap="round" stroke-miterlimit="10" cx="103.67" cy="71.839" r="1.292"/>
		
			<circle fill="#F2F7B5" stroke="#492D08" stroke-width="0.5002" stroke-linecap="round" stroke-miterlimit="10" cx="106.006" cy="67.088" r="1.042"/>
		
			<circle fill="#F2F7B5" stroke="#492D08" stroke-width="0.5002" stroke-linecap="round" stroke-miterlimit="10" cx="106.527" cy="62.232" r="0.521"/>
		
			<circle fill="#F2F7B5" stroke="#492D08" stroke-width="0.5002" stroke-linecap="round" stroke-miterlimit="10" cx="104.213" cy="57.751" r="0.542"/>
		
			<circle fill="#F2F7B5" stroke="#492D08" stroke-width="0.5002" stroke-linecap="round" stroke-miterlimit="10" cx="111.174" cy="55.042" r="0.333"/>
		
			<circle fill="#F2F7B5" stroke="#492D08" stroke-width="0.5002" stroke-linecap="round" stroke-miterlimit="10" cx="107.527" cy="53.52" r="0.479"/>
		<polygon fill="#F2F7B5" stroke="#492D08" stroke-linecap="round" stroke-miterlimit="10" points="141.518,67.667 121.01,67.667 
			131.264,84.313 		"/>
		
			<line fill="none" stroke="#492D08" stroke-linecap="round" stroke-miterlimit="10" x1="137.217" y1="99.667" x2="126.217" y2="99.667"/>
		
			<line fill="none" stroke="#492D08" stroke-linecap="round" stroke-miterlimit="10" x1="131.717" y1="84.167" x2="131.717" y2="99.167"/>
		
			<circle fill="#F2F7B5" stroke="#492D08" stroke-width="0.5002" stroke-linecap="round" stroke-miterlimit="10" cx="129.951" cy="77.696" r="1.188"/>
		
			<circle fill="#F2F7B5" stroke="#492D08" stroke-width="0.5002" stroke-linecap="round" stroke-miterlimit="10" cx="127.803" cy="74.841" r="0.958"/>
		
			<circle fill="#F2F7B5" stroke="#492D08" stroke-width="0.5002" stroke-linecap="round" stroke-miterlimit="10" cx="129.846" cy="71.839" r="1.292"/>
		
			<circle fill="#F2F7B5" stroke="#492D08" stroke-width="0.5002" stroke-linecap="round" stroke-miterlimit="10" cx="127.512" cy="67.088" r="1.042"/>
		
			<circle fill="#F2F7B5" stroke="#492D08" stroke-width="0.5002" stroke-linecap="round" stroke-miterlimit="10" cx="126.992" cy="62.232" r="0.521"/>
		
			<circle fill="#F2F7B5" stroke="#492D08" stroke-width="0.5002" stroke-linecap="round" stroke-miterlimit="10" cx="129.305" cy="57.751" r="0.542"/>
		
			<circle fill="#F2F7B5" stroke="#492D08" stroke-width="0.5002" stroke-linecap="round" stroke-miterlimit="10" cx="122.344" cy="55.042" r="0.333"/>
		
			<circle fill="#F2F7B5" stroke="#492D08" stroke-width="0.5002" stroke-linecap="round" stroke-miterlimit="10" cx="125.991" cy="53.52" r="0.479"/>
	</g>
	<g>
		<g>
			<path fill="none" stroke="#416B6D" stroke-width="0.14" stroke-linecap="round" stroke-miterlimit="10" d="M58.606,65.634
				c-0.641,0.731-0.566,1.844,0.166,2.483c0.511,0.448,1.291,0.396,1.737-0.116c0.314-0.357,0.277-0.902-0.081-1.216
				c-0.251-0.22-0.632-0.194-0.852,0.057c-0.154,0.175-0.136,0.442,0.04,0.596c0.124,0.108,0.31,0.095,0.418-0.028
				c0.075-0.086,0.065-0.217-0.021-0.292c-0.061-0.053-0.15-0.046-0.205,0.014c-0.037,0.043-0.032,0.106,0.01,0.144"/>
			<path fill="#DBF7FC" stroke="#416B6D" stroke-width="0.14" stroke-linecap="round" stroke-miterlimit="10" d="M61.851,65.135
				c0,0-3.104-1.491-6.355-0.423c-1.805,0.603-3.529,1.854-2.173,3.658c1.355,1.806,3.497-1.191,4.79-2.295
				C59.407,64.971,61.851,65.135,61.851,65.135z"/>
			<path fill="none" stroke="#416B6D" stroke-width="0.14" stroke-linecap="round" stroke-miterlimit="10" d="M64.798,69.057
				c0.286-1.886-1.051-3.651-2.99-3.944"/>
			<path fill="none" stroke="#416B6D" stroke-width="0.14" stroke-linecap="round" stroke-miterlimit="10" d="M54.791,66.585
				c-0.103-0.825,2.041-1.772,4.794-2.119"/>
			<path fill="none" stroke="#416B6D" stroke-width="0.14" stroke-linecap="round" stroke-miterlimit="10" d="M55.726,67.295
				c-0.188-0.81,1.843-1.979,4.545-2.613"/>
			
				<circle fill="#73D100" stroke="#416B6D" stroke-width="0.14" stroke-linecap="round" stroke-miterlimit="10" cx="57.344" cy="68.57" r="0.56"/>
			
				<circle fill="#73D100" stroke="#416B6D" stroke-width="0.14" stroke-linecap="round" stroke-miterlimit="10" cx="56.075" cy="69.129" r="0.35"/>
			
				<circle fill="#73D100" stroke="#416B6D" stroke-width="0.14" stroke-linecap="round" stroke-miterlimit="10" cx="54.845" cy="69.637" r="0.327"/>
			
				<circle fill="#73D100" stroke="#416B6D" stroke-width="0.14" stroke-linecap="round" stroke-miterlimit="10" cx="53.706" cy="69.545" r="0.233"/>
			
				<circle fill="#73D100" stroke="#416B6D" stroke-width="0.14" stroke-linecap="round" stroke-miterlimit="10" cx="52.664" cy="68.789" r="0.367"/>
			
				<circle fill="#73D100" stroke="#416B6D" stroke-width="0.14" stroke-linecap="round" stroke-miterlimit="10" cx="51.267" cy="68.488" r="0.28"/>
			
				<circle fill="#73D100" stroke="#416B6D" stroke-width="0.14" stroke-linecap="round" stroke-miterlimit="10" cx="50.225" cy="67.869" r="0.303"/>
		</g>
		<g>
			<path fill="none" stroke="#416B6D" stroke-width="0.1133" stroke-linecap="round" stroke-miterlimit="10" d="M79.081,65.395
				c0.612,0.494,0.707,1.391,0.212,2.002c-0.346,0.428-0.974,0.495-1.401,0.149c-0.3-0.243-0.346-0.683-0.104-0.982
				c0.17-0.21,0.477-0.242,0.687-0.072c0.147,0.119,0.17,0.335,0.052,0.481c-0.083,0.103-0.233,0.118-0.336,0.035
				c-0.072-0.058-0.083-0.164-0.025-0.236c0.041-0.05,0.114-0.058,0.166-0.017c0.035,0.028,0.041,0.079,0.012,0.114"/>
			<path fill="#DBF7FC" stroke="#416B6D" stroke-width="0.1133" stroke-linecap="round" stroke-miterlimit="10" d="M76.425,65.445
				c0,0,2.268-1.618,5.007-1.219c1.522,0.231,3.069,0.99,2.238,2.616c-0.83,1.626-2.952-0.466-4.136-1.165
				C78.351,64.978,76.425,65.445,76.425,65.445z"/>
			<path fill="none" stroke="#416B6D" stroke-width="0.1133" stroke-linecap="round" stroke-miterlimit="10" d="M74.62,68.98
				c-0.49-1.464,0.331-3.056,1.835-3.56"/>
			<path fill="none" stroke="#416B6D" stroke-width="0.1133" stroke-linecap="round" stroke-miterlimit="10" d="M82.253,65.625
				c-0.031-0.673-1.871-1.131-4.114-1.026"/>
			<path fill="none" stroke="#416B6D" stroke-width="0.1133" stroke-linecap="round" stroke-miterlimit="10" d="M81.607,66.318
				c0.039-0.671-1.743-1.321-3.985-1.452"/>
			
				<circle fill="#73D100" stroke="#416B6D" stroke-width="0.1133" stroke-linecap="round" stroke-miterlimit="10" cx="80.493" cy="67.56" r="0.453"/>
			
				<circle fill="#73D100" stroke="#416B6D" stroke-width="0.1133" stroke-linecap="round" stroke-miterlimit="10" cx="81.583" cy="67.831" r="0.283"/>
			
				<circle fill="#73D100" stroke="#416B6D" stroke-width="0.1133" stroke-linecap="round" stroke-miterlimit="10" cx="82.631" cy="68.063" r="0.264"/>
			
				<circle fill="#73D100" stroke="#416B6D" stroke-width="0.1133" stroke-linecap="round" stroke-miterlimit="10" cx="83.53" cy="67.833" r="0.188"/>
			
				<circle fill="#73D100" stroke="#416B6D" stroke-width="0.1133" stroke-linecap="round" stroke-miterlimit="10" cx="84.254" cy="67.086" r="0.297"/>
			
				<circle fill="#73D100" stroke="#416B6D" stroke-width="0.1133" stroke-linecap="round" stroke-miterlimit="10" cx="85.327" cy="66.652" r="0.227"/>
			
				<circle fill="#73D100" stroke="#416B6D" stroke-width="0.1133" stroke-linecap="round" stroke-miterlimit="10" cx="86.071" cy="66.015" r="0.246"/>
		</g>
		<g>
			<g>
				<circle fill="#73D100" stroke="#416B6D" stroke-width="0.0765" stroke-miterlimit="10" cx="63.199" cy="70.667" r="0.281"/>
				<circle fill="#73D100" stroke="#416B6D" stroke-width="0.0765" stroke-miterlimit="10" cx="62.821" cy="70.204" r="0.28"/>
				<circle fill="#73D100" stroke="#416B6D" stroke-width="0.0765" stroke-miterlimit="10" cx="62.826" cy="69.669" r="0.28"/>
				<circle fill="#73D100" stroke="#416B6D" stroke-width="0.0765" stroke-miterlimit="10" cx="63.137" cy="69.137" r="0.281"/>
				<circle fill="#73D100" stroke="#416B6D" stroke-width="0.0765" stroke-miterlimit="10" cx="63.144" cy="68.449" r="0.28"/>
				<circle fill="#73D100" stroke="#416B6D" stroke-width="0.0765" stroke-miterlimit="10" cx="62.92" cy="67.912" r="0.28"/>
				<circle fill="#73D100" stroke="#416B6D" stroke-width="0.0765" stroke-miterlimit="10" cx="62.925" cy="67.376" r="0.28"/>
				<circle fill="#73D100" stroke="#416B6D" stroke-width="0.0765" stroke-miterlimit="10" cx="63.16" cy="66.92" r="0.281"/>
				<circle fill="#73D100" stroke="#416B6D" stroke-width="0.0765" stroke-miterlimit="10" cx="63.546" cy="66.465" r="0.28"/>
				<circle fill="#73D100" stroke="#416B6D" stroke-width="0.0765" stroke-miterlimit="10" cx="63.474" cy="65.929" r="0.28"/>
				<circle fill="#73D100" stroke="#416B6D" stroke-width="0.0765" stroke-miterlimit="10" cx="63.863" cy="65.398" r="0.28"/>
				<circle fill="#73D100" stroke="#416B6D" stroke-width="0.0765" stroke-miterlimit="10" cx="64.25" cy="64.943" r="0.28"/>
				<circle fill="#73D100" stroke="#416B6D" stroke-width="0.0765" stroke-miterlimit="10" cx="64.559" cy="64.563" r="0.28"/>
				<circle fill="#73D100" stroke="#416B6D" stroke-width="0.0765" stroke-miterlimit="10" cx="64.871" cy="64.032" r="0.28"/>
				<circle fill="#73D100" stroke="#416B6D" stroke-width="0.0765" stroke-miterlimit="10" cx="65.179" cy="63.652" r="0.28"/>
				<circle fill="#73D100" stroke="#416B6D" stroke-width="0.0765" stroke-miterlimit="10" cx="65.715" cy="63.658" r="0.281"/>
				<circle fill="#73D100" stroke="#416B6D" stroke-width="0.0765" stroke-miterlimit="10" cx="66.102" cy="63.203" r="0.28"/>
				<circle fill="#73D100" stroke="#416B6D" stroke-width="0.0765" stroke-miterlimit="10" cx="66.108" cy="62.668" r="0.28"/>
				<circle fill="#73D100" stroke="#416B6D" stroke-width="0.0765" stroke-miterlimit="10" cx="66.644" cy="62.444" r="0.28"/>
				<circle fill="#73D100" stroke="#416B6D" stroke-width="0.0765" stroke-miterlimit="10" cx="67.181" cy="62.296" r="0.281"/>
				<circle fill="#73D100" stroke="#416B6D" stroke-width="0.0765" stroke-miterlimit="10" cx="67.716" cy="62.302" r="0.28"/>
				<circle fill="#73D100" stroke="#416B6D" stroke-width="0.0765" stroke-miterlimit="10" cx="63.199" cy="70.667" r="0.281"/>
				<circle fill="#73D100" stroke="#416B6D" stroke-width="0.0765" stroke-miterlimit="10" cx="63.199" cy="70.667" r="0.281"/>
				<circle fill="#73D100" stroke="#416B6D" stroke-width="0.0765" stroke-miterlimit="10" cx="68.331" cy="62.155" r="0.28"/>
				<circle fill="#73D100" stroke="#416B6D" stroke-width="0.0765" stroke-miterlimit="10" cx="68.866" cy="62.161" r="0.281"/>
				<circle fill="#73D100" stroke="#416B6D" stroke-width="0.0765" stroke-miterlimit="10" cx="69.397" cy="62.472" r="0.281"/>
				<circle fill="#73D100" stroke="#416B6D" stroke-width="0.0765" stroke-miterlimit="10" cx="69.776" cy="62.857" r="0.28"/>
				<circle fill="#73D100" stroke="#416B6D" stroke-width="0.0765" stroke-miterlimit="10" cx="70.077" cy="63.319" r="0.28"/>
				<circle fill="#73D100" stroke="#416B6D" stroke-width="0.0765" stroke-miterlimit="10" cx="70.538" cy="63.171" r="0.281"/>
				<circle fill="#73D100" stroke="#416B6D" stroke-width="0.0765" stroke-miterlimit="10" cx="70.999" cy="62.87" r="0.28"/>
				<circle fill="#73D100" stroke="#416B6D" stroke-width="0.0765" stroke-miterlimit="10" cx="71.534" cy="62.952" r="0.281"/>
				<circle fill="#73D100" stroke="#416B6D" stroke-width="0.0765" stroke-miterlimit="10" cx="72.066" cy="63.263" r="0.28"/>
				<circle fill="#73D100" stroke="#416B6D" stroke-width="0.0765" stroke-miterlimit="10" cx="72.367" cy="63.725" r="0.28"/>
				<circle fill="#73D100" stroke="#416B6D" stroke-width="0.0765" stroke-miterlimit="10" cx="72.667" cy="64.187" r="0.28"/>
				<circle fill="#73D100" stroke="#416B6D" stroke-width="0.0765" stroke-miterlimit="10" cx="73.124" cy="64.497" r="0.28"/>
				<circle fill="#73D100" stroke="#416B6D" stroke-width="0.0765" stroke-miterlimit="10" cx="73.58" cy="64.73" r="0.281"/>
				<circle fill="#73D100" stroke="#416B6D" stroke-width="0.0765" stroke-miterlimit="10" cx="74.036" cy="65.041" r="0.281"/>
				<circle fill="#73D100" stroke="#416B6D" stroke-width="0.0765" stroke-miterlimit="10" cx="74.107" cy="65.577" r="0.28"/>
				<circle fill="#73D100" stroke="#416B6D" stroke-width="0.0765" stroke-miterlimit="10" cx="74.1" cy="66.112" r="0.28"/>
				<circle fill="#73D100" stroke="#416B6D" stroke-width="0.0765" stroke-miterlimit="10" cx="74.018" cy="66.723" r="0.281"/>
				<circle fill="#73D100" stroke="#416B6D" stroke-width="0.0765" stroke-miterlimit="10" cx="73.708" cy="67.178" r="0.28"/>
				<circle fill="#73D100" stroke="#416B6D" stroke-width="0.0765" stroke-miterlimit="10" cx="74.317" cy="67.49" r="0.28"/>
				<circle fill="#73D100" stroke="#416B6D" stroke-width="0.0765" stroke-miterlimit="10" cx="74.849" cy="67.725" r="0.28"/>
				<circle fill="#73D100" stroke="#416B6D" stroke-width="0.0765" stroke-miterlimit="10" cx="75.152" cy="68.111" r="0.28"/>
				<circle fill="#73D100" stroke="#416B6D" stroke-width="0.0765" stroke-miterlimit="10" cx="75.375" cy="68.724" r="0.281"/>
				<circle fill="#73D100" stroke="#416B6D" stroke-width="0.0765" stroke-miterlimit="10" cx="75.292" cy="69.258" r="0.281"/>
				<circle fill="#73D100" stroke="#416B6D" stroke-width="0.0765" stroke-miterlimit="10" cx="74.982" cy="69.791" r="0.28"/>
				<circle fill="#73D100" stroke="#416B6D" stroke-width="0.0765" stroke-miterlimit="10" cx="74.976" cy="70.326" r="0.28"/>
				<circle fill="#73D100" stroke="#416B6D" stroke-width="0.0765" stroke-miterlimit="10" cx="74.971" cy="70.862" r="0.28"/>
				<circle fill="#73D100" stroke="#416B6D" stroke-width="0.0765" stroke-miterlimit="10" cx="74.965" cy="71.396" r="0.28"/>
				<circle fill="#73D100" stroke="#416B6D" stroke-width="0.0765" stroke-miterlimit="10" cx="74.579" cy="71.928" r="0.281"/>
				<circle fill="#73D100" stroke="#416B6D" stroke-width="0.0765" stroke-miterlimit="10" cx="74.042" cy="72.075" r="0.28"/>
				<circle fill="#73D100" stroke="#416B6D" stroke-width="0.0765" stroke-miterlimit="10" cx="73.507" cy="71.918" r="0.28"/>
				<circle fill="#73D100" stroke="#416B6D" stroke-width="0.0765" stroke-miterlimit="10" cx="73.806" cy="72.608" r="0.281"/>
				<circle fill="#73D100" stroke="#416B6D" stroke-width="0.0765" stroke-miterlimit="10" cx="73.649" cy="73.142" r="0.28"/>
				<circle fill="#73D100" stroke="#416B6D" stroke-width="0.0765" stroke-miterlimit="10" cx="73.337" cy="73.674" r="0.281"/>
				<circle fill="#73D100" stroke="#416B6D" stroke-width="0.0765" stroke-miterlimit="10" cx="72.799" cy="73.897" r="0.28"/>
				<circle fill="#73D100" stroke="#416B6D" stroke-width="0.0765" stroke-miterlimit="10" cx="72.337" cy="74.275" r="0.28"/>
				<circle fill="#73D100" stroke="#416B6D" stroke-width="0.0765" stroke-miterlimit="10" cx="72.027" cy="74.731" r="0.28"/>
				<circle fill="#73D100" stroke="#416B6D" stroke-width="0.0765" stroke-miterlimit="10" cx="71.565" cy="75.032" r="0.28"/>
				<circle fill="#73D100" stroke="#416B6D" stroke-width="0.0765" stroke-miterlimit="10" cx="71.105" cy="75.181" r="0.281"/>
				<circle fill="#73D100" stroke="#416B6D" stroke-width="0.0765" stroke-miterlimit="10" cx="70.57" cy="75.175" r="0.28"/>
				<circle fill="#73D100" stroke="#416B6D" stroke-width="0.0765" stroke-miterlimit="10" cx="70.258" cy="75.707" r="0.28"/>
				<circle fill="#73D100" stroke="#416B6D" stroke-width="0.0765" stroke-miterlimit="10" cx="69.795" cy="76.161" r="0.28"/>
				<circle fill="#73D100" stroke="#416B6D" stroke-width="0.0765" stroke-miterlimit="10" cx="69.259" cy="76.156" r="0.28"/>
				<circle fill="#73D100" stroke="#416B6D" stroke-width="0.0765" stroke-miterlimit="10" cx="68.726" cy="75.998" r="0.281"/>
				<circle fill="#73D100" stroke="#416B6D" stroke-width="0.0765" stroke-miterlimit="10" cx="68.195" cy="75.687" r="0.28"/>
				<circle fill="#73D100" stroke="#416B6D" stroke-width="0.0765" stroke-miterlimit="10" cx="67.583" cy="75.68" r="0.28"/>
				<circle fill="#73D100" stroke="#416B6D" stroke-width="0.0765" stroke-miterlimit="10" cx="67.047" cy="75.599" r="0.28"/>
				<circle fill="#73D100" stroke="#416B6D" stroke-width="0.0765" stroke-miterlimit="10" cx="66.515" cy="75.44" r="0.28"/>
				<circle fill="#73D100" stroke="#416B6D" stroke-width="0.0765" stroke-miterlimit="10" cx="66.213" cy="74.979" r="0.28"/>
				<circle fill="#73D100" stroke="#416B6D" stroke-width="0.0765" stroke-miterlimit="10" cx="66.065" cy="74.519" r="0.281"/>
				<circle fill="#73D100" stroke="#416B6D" stroke-width="0.0765" stroke-miterlimit="10" cx="65.532" cy="74.36" r="0.281"/>
				<circle fill="#73D100" stroke="#416B6D" stroke-width="0.0765" stroke-miterlimit="10" cx="64.998" cy="74.202" r="0.28"/>
				<circle fill="#73D100" stroke="#416B6D" stroke-width="0.0765" stroke-miterlimit="10" cx="64.542" cy="73.892" r="0.28"/>
				<circle fill="#73D100" stroke="#416B6D" stroke-width="0.0765" stroke-miterlimit="10" cx="64.243" cy="73.354" r="0.28"/>
				<circle fill="#73D100" stroke="#416B6D" stroke-width="0.0765" stroke-miterlimit="10" cx="63.942" cy="72.815" r="0.28"/>
				<circle fill="#73D100" stroke="#416B6D" stroke-width="0.0765" stroke-miterlimit="10" cx="63.488" cy="72.352" r="0.28"/>
				<circle fill="#73D100" stroke="#416B6D" stroke-width="0.0765" stroke-miterlimit="10" cx="63.109" cy="71.967" r="0.28"/>
				<circle fill="#73D100" stroke="#416B6D" stroke-width="0.0765" stroke-miterlimit="10" cx="63.116" cy="71.278" r="0.28"/>
			</g>
			<path fill="#E0E0E0" stroke="#416B6D" stroke-width="0.0765" stroke-miterlimit="10" d="M70.051,63.889
				c0,0-0.184-1.468-0.95-1.586c-0.765-0.119-1.054,0.209-1.311,0.181c-0.257-0.028-1.069-0.139-1.453-0.015
				c-0.384,0.123-0.203,1.221-0.203,1.221s-0.851-0.289-1.108-0.011c-0.259,0.278-0.368,1.041-0.587,1.371
				c-0.221,0.328-0.936,0.462-1.042,0.912c-0.106,0.453,0.375,0.66,0.375,0.66s-0.768,0.272-0.889,0.908
				c-0.121,0.637,0.412,0.897,0.408,1.292c-0.005,0.396-0.594,0.721-0.433,1.219c0.159,0.499,0.874,0.468,0.874,0.468
				s-0.899,0.743-0.55,1.37c0.352,0.629,0.682,0.683,1.022,1.044c0.34,0.359,0.155,1.097,0.713,1.268
				c0.561,0.172,1.226-0.159,1.226-0.159s0.062,1.409,0.559,1.515c0.497,0.108,0.448-0.097,1.262,0.014
				c0.814,0.11,0.835,0.568,1.678,0.438c0.843-0.133,0.738-1.254,0.738-1.254s0.693,0.693,1.413,0.165
				c0.72-0.527,0.466-0.708,0.853-1.062c0.385-0.353,0.356,0.003,0.885-0.603s-0.31-1.608-0.31-1.608s1.354,0.318,1.665-0.251
				c0.312-0.571,0.062-1.032,0.016-1.492c-0.046-0.458,0.337-0.632,0.246-1.679c-0.093-1.045-2.248-0.749-2.248-0.749
				s1.73-1.091,1.318-1.859c-0.413-0.769-1.147-1.185-1.477-1.442c-0.329-0.258-0.526-0.999-1.249-1.274
				C70.773,62.615,70.051,63.889,70.051,63.889z"/>
			<path fill="#DBF7FC" stroke="#416B6D" stroke-width="0.0912" stroke-miterlimit="10" d="M68.857,69.373
				c0,0,5.321-2.548,4.973-3.339c-0.349-0.789-1.492-0.418-1.722-0.933c-0.229-0.513,0.304-0.691-0.604-1.355
				s-3.418,4.886-3.418,4.886l0.078,0.808L68.857,69.373z"/>
			<path fill="#DBF7FC" stroke="#416B6D" stroke-width="0.0765" stroke-miterlimit="10" d="M69.635,68.98
				c0,0,4.819-1.087,4.997-0.385c0.18,0.7-0.77,1.041-0.655,1.5c0.114,0.458,0.557,0.296,0.302,1.202
				c-0.255,0.908-4.783-1.453-4.783-1.453l-0.353-0.549L69.635,68.98z"/>
			<path fill="#DBF7FC" stroke="#416B6D" stroke-width="0.0765" stroke-miterlimit="10" d="M69.406,69.994
				c0,0,4.113,2.194,3.809,2.806c-0.305,0.61-1.192,0.27-1.394,0.668c-0.2,0.397,0.215,0.554-0.525,1.045
				c-0.742,0.491-2.521-3.986-2.521-3.986l0.088-0.61L69.406,69.994z"/>
			<path fill="#DBF7FC" stroke="#416B6D" stroke-width="0.0765" stroke-miterlimit="10" d="M68.721,67.876
				c0,0,1.277-4.78,0.583-4.987c-0.693-0.207-1.08,0.723-1.532,0.589c-0.453-0.134-0.275-0.571-1.193-0.354s1.25,4.841,1.25,4.841
				l0.558,0.391L68.721,67.876z"/>
			<path fill="#DBF7FC" stroke="#416B6D" stroke-width="0.0765" stroke-miterlimit="10" d="M67.824,67.736
				c0,0-1.752-3.523-2.276-3.28c-0.521,0.243-0.255,1.001-0.596,1.159c-0.34,0.161-0.462-0.194-0.896,0.419
				c-0.431,0.614,3.305,2.224,3.305,2.224l0.517-0.061L67.824,67.736z"/>
			<path fill="#DBF7FC" stroke="#416B6D" stroke-width="0.0765" stroke-miterlimit="10" d="M68.137,68.896
				c0,0-4.113-2.195-4.451-1.601c-0.338,0.593,0.441,1.141,0.223,1.529c-0.219,0.388-0.58,0.13-0.575,1.019
				c0.005,0.891,4.716-0.127,4.716-0.127l0.457-0.412L68.137,68.896z"/>
			<path fill="#DBF7FC" stroke="#416B6D" stroke-width="0.0765" stroke-miterlimit="10" d="M68.96,70.683
				c0,0,0.913,4.431,0.269,4.582c-0.646,0.151-0.941-0.724-1.362-0.626c-0.422,0.097-0.281,0.505-1.107,0.256
				s1.414-4.354,1.414-4.354l0.509-0.312L68.96,70.683z"/>
			<path fill="#DBF7FC" stroke="#416B6D" stroke-width="0.0765" stroke-miterlimit="10" d="M68.037,70.454
				c0,0-2.079,3.729-2.634,3.439c-0.555-0.289-0.227-1.098-0.586-1.287c-0.362-0.189-0.513,0.188-0.949-0.5
				c-0.438-0.688,3.693-2.24,3.693-2.24l0.557,0.091L68.037,70.454z"/>
			<path fill="none" stroke="#416B6D" stroke-width="0.0765" stroke-miterlimit="10" d="M67.263,65.592
				c-0.004,0.424,0.235,0.77,0.536,0.772"/>
			<path fill="none" stroke="#416B6D" stroke-width="0.0765" stroke-miterlimit="10" d="M68.1,66.235
				c0.004-0.445-0.045-0.806-0.108-0.807"/>
			<path fill="none" stroke="#416B6D" stroke-width="0.0765" stroke-miterlimit="10" d="M67.014,67.006
				c0.003-0.326-0.305-0.594-0.69-0.597"/>
			<path fill="none" stroke="#416B6D" stroke-width="0.0765" stroke-miterlimit="10" d="M66.637,67.22
				c0.001-0.136-0.276-0.249-0.621-0.251"/>
			<path fill="none" stroke="#416B6D" stroke-width="0.0765" stroke-miterlimit="10" d="M66.219,68.722
				c0.002-0.215-0.397-0.392-0.896-0.396"/>
			<path fill="none" stroke="#416B6D" stroke-width="0.0765" stroke-miterlimit="10" d="M66.301,69.568
				c0,0.085-0.277,0.15-0.622,0.146"/>
			<path fill="none" stroke="#416B6D" stroke-width="0.0765" stroke-miterlimit="10" d="M66.32,71.019
				c-0.001,0.113-0.375,0.2-0.833,0.195"/>
			<path fill="none" stroke="#416B6D" stroke-width="0.0765" stroke-miterlimit="10" d="M66.836,71.414
				c-0.005,0.479-0.242,0.863-0.529,0.86"/>
			<path fill="none" stroke="#416B6D" stroke-width="0.0765" stroke-miterlimit="10" d="M65.97,71.676
				c0.001-0.148,0.389-0.267,0.865-0.262"/>
			<path fill="none" stroke="#416B6D" stroke-width="0.0765" stroke-miterlimit="10" d="M67.981,72.292
				c-0.005,0.474-0.116,0.858-0.25,0.856"/>
			<path fill="none" stroke="#416B6D" stroke-width="0.0765" stroke-miterlimit="10" d="M68.611,72.298
				c-0.005,0.475,0.058,0.859,0.14,0.86"/>
			<path fill="none" stroke="#416B6D" stroke-width="0.0765" stroke-miterlimit="10" d="M68.235,72.294
				c-0.006,0.622-0.066,1.126-0.135,1.126"/>
			<path fill="none" stroke="#416B6D" stroke-width="0.0765" stroke-miterlimit="10" d="M69.731,71.876
				c-0.005,0.477,0.216,0.864,0.493,0.867"/>
			<path fill="none" stroke="#416B6D" stroke-width="0.0765" stroke-miterlimit="10" d="M70.116,71.583
				c-0.004,0.36,0.209,0.653,0.476,0.656"/>
			<path fill="none" stroke="#416B6D" stroke-width="0.0765" stroke-miterlimit="10" d="M70.403,71.264
				c-0.002,0.178,0.286,0.324,0.643,0.327"/>
			<path fill="none" stroke="#416B6D" stroke-width="0.0765" stroke-miterlimit="10" d="M71.349,69.164
				c0.001-0.11,0.553-0.193,1.232-0.187"/>
			<path fill="none" stroke="#416B6D" stroke-width="0.0765" stroke-miterlimit="10" d="M71.345,69.618
				c0,0.043,0.652,0.084,1.458,0.092"/>
			<path fill="none" stroke="#416B6D" stroke-width="0.0765" stroke-miterlimit="10" d="M71.3,69.939
				c-0.002,0.188,0.291,0.341,0.653,0.345"/>
			<path fill="none" stroke="#416B6D" stroke-width="0.0765" stroke-miterlimit="10" d="M70.037,66.445
				c-0.006,0.638-0.21,1.151-0.454,1.148"/>
			<path fill="none" stroke="#416B6D" stroke-width="0.0765" stroke-miterlimit="10" d="M70.024,67.79
				c0.004-0.363,0.461-0.655,1.021-0.648"/>
			<path fill="none" stroke="#416B6D" stroke-width="0.0765" stroke-miterlimit="10" d="M70.231,68.068
				c0.001-0.152,0.236-0.274,0.528-0.271"/>
			<path fill="none" stroke="#73D100" stroke-width="0.1529" stroke-miterlimit="10" d="M67.958,68.715
				c-0.005,0.564-0.468,1.019-1.033,1.014c-0.396-0.006-0.713-0.329-0.709-0.724c0.003-0.276,0.229-0.499,0.507-0.496
				c0.193,0.002,0.35,0.161,0.348,0.354c-0.001,0.137-0.113,0.245-0.248,0.243c-0.096-0.001-0.171-0.078-0.17-0.174
				c0.001-0.064,0.055-0.119,0.122-0.119c0.047,0.001,0.084,0.039,0.083,0.086"/>
			<path fill="none" stroke="#73D100" stroke-width="0.1529" stroke-miterlimit="10" d="M67.74,69.97
				c0.251,0.505,0.045,1.119-0.46,1.37c-0.354,0.177-0.784,0.033-0.959-0.321c-0.124-0.248-0.023-0.549,0.226-0.672
				c0.173-0.087,0.383-0.016,0.471,0.157c0.06,0.121,0.011,0.27-0.111,0.33c-0.084,0.041-0.188,0.007-0.229-0.079
				c-0.029-0.058-0.006-0.131,0.055-0.16c0.042-0.021,0.092-0.003,0.112,0.037"/>
			<path fill="none" stroke="#73D100" stroke-width="0.1529" stroke-miterlimit="10" d="M68.744,69.02
				c-0.217-0.521,0.03-1.121,0.552-1.338c0.365-0.151,0.784,0.021,0.937,0.387c0.105,0.255-0.016,0.549-0.271,0.655
				c-0.179,0.074-0.384-0.011-0.459-0.189c-0.051-0.125,0.008-0.269,0.132-0.321c0.088-0.035,0.189,0.006,0.226,0.094
				c0.025,0.061-0.003,0.131-0.064,0.156c-0.042,0.019-0.092-0.002-0.11-0.045"/>
			<path fill="none" stroke="#73D100" stroke-width="0.1529" stroke-miterlimit="10" d="M69.563,69.625
				c0.195-0.529,0.784-0.801,1.313-0.604c0.37,0.137,0.561,0.548,0.423,0.919c-0.096,0.26-0.384,0.393-0.644,0.296
				c-0.182-0.066-0.274-0.269-0.208-0.449c0.047-0.128,0.188-0.193,0.315-0.146c0.088,0.033,0.135,0.132,0.103,0.221
				c-0.023,0.063-0.092,0.095-0.155,0.072c-0.043-0.017-0.066-0.065-0.05-0.108"/>
			<path fill="none" stroke="#73D100" stroke-width="0.1529" stroke-miterlimit="10" d="M69.084,70.128
				c0.537-0.171,1.113,0.125,1.286,0.662c0.12,0.376-0.087,0.78-0.463,0.899c-0.265,0.085-0.546-0.06-0.63-0.324
				c-0.06-0.184,0.042-0.381,0.227-0.44c0.129-0.041,0.268,0.031,0.31,0.159c0.029,0.09-0.021,0.188-0.111,0.216
				c-0.064,0.021-0.131-0.015-0.151-0.078c-0.014-0.043,0.012-0.091,0.055-0.106"/>
			<path fill="none" stroke="#73D100" stroke-width="0.1529" stroke-miterlimit="10" d="M67.502,68.124
				c-0.38,0.093-0.762-0.141-0.854-0.521c-0.064-0.267,0.1-0.534,0.365-0.597c0.188-0.046,0.374,0.069,0.418,0.255
				c0.032,0.131-0.049,0.262-0.179,0.293c-0.09,0.021-0.182-0.033-0.205-0.126c-0.015-0.062,0.023-0.128,0.088-0.143
				c0.044-0.011,0.09,0.017,0.101,0.062c0.007,0.031-0.013,0.062-0.043,0.071"/>
			<path fill="none" stroke="#73D100" stroke-width="0.1529" stroke-miterlimit="10" d="M67.967,70.549
				c0.564,0.014,1.013,0.481,0.999,1.046c-0.009,0.396-0.336,0.708-0.731,0.699c-0.277-0.007-0.496-0.236-0.489-0.513
				c0.004-0.193,0.165-0.347,0.359-0.343c0.135,0.003,0.241,0.116,0.238,0.251c-0.001,0.096-0.081,0.171-0.175,0.168
				c-0.067-0.001-0.119-0.056-0.118-0.123c0.002-0.046,0.04-0.083,0.087-0.081"/>
			<path fill="none" stroke="#73D100" stroke-width="0.1529" stroke-miterlimit="10" d="M68.234,68.021
				c-0.539-0.17-0.838-0.744-0.667-1.283c0.118-0.376,0.521-0.586,0.897-0.467c0.265,0.083,0.41,0.364,0.327,0.629
				c-0.059,0.185-0.256,0.286-0.44,0.229c-0.129-0.041-0.2-0.179-0.159-0.309c0.028-0.09,0.125-0.14,0.216-0.111
				c0.062,0.021,0.099,0.087,0.078,0.15c-0.015,0.045-0.062,0.069-0.105,0.055"/>
			<circle fill="#73D100" stroke="#416B6D" stroke-width="0.0765" stroke-miterlimit="10" cx="68.258" cy="69.242" r="1.262"/>
			<circle fill="#DBF7FC" stroke="#416B6D" stroke-width="0.0765" stroke-miterlimit="10" cx="68.258" cy="69.242" r="0.774"/>
			<path fill="none" stroke="#416B6D" stroke-width="0.0765" stroke-miterlimit="10" d="M66.089,69.134
				c0,0.084-0.277,0.151-0.621,0.146"/>
			<path fill="none" stroke="#416B6D" stroke-width="0.0765" stroke-miterlimit="10" d="M68.392,66.137
				c0.137-0.007,0.232-0.29,0.217-0.634"/>
		</g>
	</g>
</g>
<circle fill="none" stroke="#E83658" stroke-linecap="round" stroke-miterlimit="10" stroke-dasharray="4.3733" cx="91.459" cy="91.298" r="84.202"/>
<circle fill="#FFFFFF" stroke="#E83658" stroke-linecap="round" stroke-miterlimit="10" stroke-dasharray="4.6311" cx="322.99" cy="42.298" r="89.166"/>
<g>
	<text transform="matrix(1 0 0 1 288.8608 92.9189)" fill="#E83658" font-family="'DeGenerate'" font-size="15.8377">Dining Out</text>
	<g>
		<g>
			<path fill="#F2F7B5" stroke="#492D08" stroke-width="0.5002" stroke-linecap="round" stroke-miterlimit="10" d="M324.533-7.011
				l4.418,4.676c0,0-2.168,1.513-5.668,6.886c-3.502,5.371-6.342,9.605-6.342,9.605l-15.172-2.55l5.257-6.632
				c0,0,6.922-2.23,11.165-6.12S324.533-7.011,324.533-7.011z"/>
			<polygon fill="#416B6D" points="277.266,5.167 323.283,5.167 316.529,51.167 284.018,51.167 			"/>
			
				<ellipse fill="none" stroke="#416B6D" stroke-width="5.051" stroke-miterlimit="10" cx="280.018" cy="17.642" rx="7.086" ry="7.226"/>
			
				<ellipse fill="none" stroke="#416B6D" stroke-width="5.051" stroke-miterlimit="10" cx="321.031" cy="17.642" rx="7.086" ry="7.226"/>
			
				<line fill="none" stroke="#DBF7FC" stroke-width="2.0204" stroke-linecap="round" stroke-miterlimit="10" x1="281.835" y1="35.582" x2="318.691" y2="35.468"/>
			
				<line fill="none" stroke="#DBF7FC" stroke-width="2.0204" stroke-linecap="round" stroke-miterlimit="10" x1="282.837" y1="41.192" x2="317.441" y2="41.078"/>
			<path fill="#F2F7B5" stroke="#492D08" stroke-width="0.5002" stroke-linecap="round" stroke-miterlimit="10" d="M326.033-8.881
				l4.668,4.846c0,0,6.836-4.931,3.461-8.161C330.785-15.427,326.033-8.881,326.033-8.881z"/>
			<polygon fill="#F2F7B5" stroke="#492D08" stroke-linecap="round" stroke-miterlimit="10" points="323.531,18.667 344.039,18.667 
				333.785,35.313 			"/>
			
				<line fill="none" stroke="#492D08" stroke-linecap="round" stroke-miterlimit="10" x1="328.75" y1="50.667" x2="339.75" y2="50.667"/>
			
				<line fill="none" stroke="#492D08" stroke-linecap="round" stroke-miterlimit="10" x1="334.25" y1="35.167" x2="334.25" y2="50.167"/>
			
				<circle fill="#F2F7B5" stroke="#492D08" stroke-width="0.5002" stroke-linecap="round" stroke-miterlimit="10" cx="335.099" cy="28.696" r="1.188"/>
			
				<circle fill="#F2F7B5" stroke="#492D08" stroke-width="0.5002" stroke-linecap="round" stroke-miterlimit="10" cx="337.246" cy="25.841" r="0.959"/>
			
				<circle fill="#F2F7B5" stroke="#492D08" stroke-width="0.5002" stroke-linecap="round" stroke-miterlimit="10" cx="335.203" cy="22.839" r="1.293"/>
			
				<circle fill="#F2F7B5" stroke="#492D08" stroke-width="0.5002" stroke-linecap="round" stroke-miterlimit="10" cx="337.539" cy="18.088" r="1.042"/>
			
				<circle fill="#F2F7B5" stroke="#492D08" stroke-width="0.5002" stroke-linecap="round" stroke-miterlimit="10" cx="338.059" cy="13.232" r="0.521"/>
			
				<circle fill="#F2F7B5" stroke="#492D08" stroke-width="0.5002" stroke-linecap="round" stroke-miterlimit="10" cx="335.746" cy="8.751" r="0.542"/>
			
				<circle fill="#F2F7B5" stroke="#492D08" stroke-width="0.5002" stroke-linecap="round" stroke-miterlimit="10" cx="342.707" cy="6.042" r="0.333"/>
			
				<circle fill="#F2F7B5" stroke="#492D08" stroke-width="0.5002" stroke-linecap="round" stroke-miterlimit="10" cx="339.059" cy="4.52" r="0.479"/>
			<polygon fill="#F2F7B5" stroke="#492D08" stroke-linecap="round" stroke-miterlimit="10" points="373.05,18.667 352.542,18.667 
				362.796,35.313 			"/>
			
				<line fill="none" stroke="#492D08" stroke-linecap="round" stroke-miterlimit="10" x1="368.75" y1="50.667" x2="357.75" y2="50.667"/>
			
				<line fill="none" stroke="#492D08" stroke-linecap="round" stroke-miterlimit="10" x1="363.25" y1="35.167" x2="363.25" y2="50.167"/>
			
				<circle fill="#F2F7B5" stroke="#492D08" stroke-width="0.5002" stroke-linecap="round" stroke-miterlimit="10" cx="361.483" cy="28.696" r="1.188"/>
			
				<circle fill="#F2F7B5" stroke="#492D08" stroke-width="0.5002" stroke-linecap="round" stroke-miterlimit="10" cx="359.335" cy="25.841" r="0.958"/>
			
				<circle fill="#F2F7B5" stroke="#492D08" stroke-width="0.5002" stroke-linecap="round" stroke-miterlimit="10" cx="361.378" cy="22.839" r="1.292"/>
			
				<circle fill="#F2F7B5" stroke="#492D08" stroke-width="0.5002" stroke-linecap="round" stroke-miterlimit="10" cx="359.044" cy="18.088" r="1.042"/>
			
				<circle fill="#F2F7B5" stroke="#492D08" stroke-width="0.5002" stroke-linecap="round" stroke-miterlimit="10" cx="358.524" cy="13.232" r="0.521"/>
			
				<circle fill="#F2F7B5" stroke="#492D08" stroke-width="0.5002" stroke-linecap="round" stroke-miterlimit="10" cx="360.837" cy="8.751" r="0.542"/>
			
				<circle fill="#F2F7B5" stroke="#492D08" stroke-width="0.5002" stroke-linecap="round" stroke-miterlimit="10" cx="353.876" cy="6.042" r="0.333"/>
			
				<circle fill="#F2F7B5" stroke="#492D08" stroke-width="0.5002" stroke-linecap="round" stroke-miterlimit="10" cx="357.523" cy="4.52" r="0.479"/>
		</g>
		<g>
			<g>
				<path fill="none" stroke="#416B6D" stroke-width="0.14" stroke-linecap="round" stroke-miterlimit="10" d="M290.139,16.634
					c-0.642,0.731-0.565,1.844,0.166,2.483c0.511,0.448,1.29,0.396,1.737-0.116c0.313-0.357,0.276-0.902-0.082-1.216
					c-0.25-0.22-0.631-0.194-0.852,0.057c-0.154,0.175-0.136,0.442,0.039,0.596c0.124,0.108,0.311,0.095,0.418-0.028
					c0.075-0.086,0.066-0.217-0.02-0.292c-0.062-0.053-0.15-0.046-0.205,0.014c-0.037,0.043-0.031,0.106,0.01,0.144"/>
				<path fill="#DBF7FC" stroke="#416B6D" stroke-width="0.14" stroke-linecap="round" stroke-miterlimit="10" d="M293.384,16.135
					c0,0-3.104-1.491-6.356-0.423c-1.805,0.603-3.528,1.854-2.172,3.658c1.354,1.806,3.496-1.191,4.789-2.295
					C290.939,15.971,293.384,16.135,293.384,16.135z"/>
				<path fill="none" stroke="#416B6D" stroke-width="0.14" stroke-linecap="round" stroke-miterlimit="10" d="M296.332,20.057
					c0.285-1.886-1.053-3.651-2.99-3.944"/>
				<path fill="none" stroke="#416B6D" stroke-width="0.14" stroke-linecap="round" stroke-miterlimit="10" d="M286.322,17.585
					c-0.104-0.825,2.041-1.772,4.795-2.119"/>
				<path fill="none" stroke="#416B6D" stroke-width="0.14" stroke-linecap="round" stroke-miterlimit="10" d="M287.259,18.295
					c-0.189-0.81,1.842-1.979,4.544-2.613"/>
				
					<circle fill="#73D100" stroke="#416B6D" stroke-width="0.14" stroke-linecap="round" stroke-miterlimit="10" cx="288.878" cy="19.57" r="0.56"/>
				
					<circle fill="#73D100" stroke="#416B6D" stroke-width="0.14" stroke-linecap="round" stroke-miterlimit="10" cx="287.607" cy="20.129" r="0.35"/>
				
					<circle fill="#73D100" stroke="#416B6D" stroke-width="0.14" stroke-linecap="round" stroke-miterlimit="10" cx="286.378" cy="20.637" r="0.326"/>
				
					<circle fill="#73D100" stroke="#416B6D" stroke-width="0.14" stroke-linecap="round" stroke-miterlimit="10" cx="285.237" cy="20.545" r="0.233"/>
				
					<circle fill="#73D100" stroke="#416B6D" stroke-width="0.14" stroke-linecap="round" stroke-miterlimit="10" cx="284.196" cy="19.789" r="0.367"/>
				
					<circle fill="#73D100" stroke="#416B6D" stroke-width="0.14" stroke-linecap="round" stroke-miterlimit="10" cx="282.8" cy="19.488" r="0.281"/>
				
					<circle fill="#73D100" stroke="#416B6D" stroke-width="0.14" stroke-linecap="round" stroke-miterlimit="10" cx="281.757" cy="18.869" r="0.303"/>
			</g>
			<g>
				<path fill="none" stroke="#416B6D" stroke-width="0.1133" stroke-linecap="round" stroke-miterlimit="10" d="M310.613,16.395
					c0.611,0.494,0.707,1.391,0.211,2.002c-0.346,0.428-0.973,0.495-1.4,0.149c-0.301-0.243-0.346-0.683-0.104-0.982
					c0.17-0.21,0.477-0.242,0.686-0.072c0.148,0.119,0.172,0.335,0.052,0.481c-0.082,0.103-0.231,0.118-0.336,0.035
					c-0.072-0.058-0.083-0.164-0.025-0.236c0.041-0.05,0.115-0.058,0.166-0.017c0.035,0.028,0.041,0.079,0.013,0.114"/>
				<path fill="#DBF7FC" stroke="#416B6D" stroke-width="0.1133" stroke-linecap="round" stroke-miterlimit="10" d="M307.957,16.445
					c0,0,2.269-1.618,5.008-1.219c1.521,0.231,3.07,0.99,2.238,2.616c-0.83,1.626-2.951-0.466-4.137-1.165
					C309.884,15.978,307.957,16.445,307.957,16.445z"/>
				<path fill="none" stroke="#416B6D" stroke-width="0.1133" stroke-linecap="round" stroke-miterlimit="10" d="M306.152,19.98
					c-0.49-1.464,0.33-3.056,1.835-3.56"/>
				<path fill="none" stroke="#416B6D" stroke-width="0.1133" stroke-linecap="round" stroke-miterlimit="10" d="M313.785,16.625
					c-0.031-0.673-1.871-1.131-4.113-1.026"/>
				<path fill="none" stroke="#416B6D" stroke-width="0.1133" stroke-linecap="round" stroke-miterlimit="10" d="M313.139,17.318
					c0.039-0.671-1.742-1.321-3.984-1.452"/>
				
					<circle fill="#73D100" stroke="#416B6D" stroke-width="0.1133" stroke-linecap="round" stroke-miterlimit="10" cx="312.025" cy="18.56" r="0.453"/>
				
					<circle fill="#73D100" stroke="#416B6D" stroke-width="0.1133" stroke-linecap="round" stroke-miterlimit="10" cx="313.115" cy="18.831" r="0.284"/>
				
					<circle fill="#73D100" stroke="#416B6D" stroke-width="0.1133" stroke-linecap="round" stroke-miterlimit="10" cx="314.164" cy="19.063" r="0.264"/>
				
					<circle fill="#73D100" stroke="#416B6D" stroke-width="0.1133" stroke-linecap="round" stroke-miterlimit="10" cx="315.062" cy="18.833" r="0.189"/>
				
					<circle fill="#73D100" stroke="#416B6D" stroke-width="0.1133" stroke-linecap="round" stroke-miterlimit="10" cx="315.787" cy="18.086" r="0.297"/>
				
					<circle fill="#73D100" stroke="#416B6D" stroke-width="0.1133" stroke-linecap="round" stroke-miterlimit="10" cx="316.859" cy="17.652" r="0.227"/>
				
					<circle fill="#73D100" stroke="#416B6D" stroke-width="0.1133" stroke-linecap="round" stroke-miterlimit="10" cx="317.603" cy="17.015" r="0.245"/>
			</g>
			<g>
				<g>
					<circle fill="#73D100" stroke="#416B6D" stroke-width="0.0765" stroke-miterlimit="10" cx="294.731" cy="21.667" r="0.281"/>
					<circle fill="#73D100" stroke="#416B6D" stroke-width="0.0765" stroke-miterlimit="10" cx="294.353" cy="21.204" r="0.28"/>
					<circle fill="#73D100" stroke="#416B6D" stroke-width="0.0765" stroke-miterlimit="10" cx="294.358" cy="20.669" r="0.28"/>
					<circle fill="#73D100" stroke="#416B6D" stroke-width="0.0765" stroke-miterlimit="10" cx="294.669" cy="20.137" r="0.281"/>
					<circle fill="#73D100" stroke="#416B6D" stroke-width="0.0765" stroke-miterlimit="10" cx="294.677" cy="19.449" r="0.28"/>
					<circle fill="#73D100" stroke="#416B6D" stroke-width="0.0765" stroke-miterlimit="10" cx="294.453" cy="18.912" r="0.28"/>
					<circle fill="#73D100" stroke="#416B6D" stroke-width="0.0765" stroke-miterlimit="10" cx="294.458" cy="18.376" r="0.28"/>
					<circle fill="#73D100" stroke="#416B6D" stroke-width="0.0765" stroke-miterlimit="10" cx="294.692" cy="17.92" r="0.28"/>
					<circle fill="#73D100" stroke="#416B6D" stroke-width="0.0765" stroke-miterlimit="10" cx="295.08" cy="17.465" r="0.28"/>
					<circle fill="#73D100" stroke="#416B6D" stroke-width="0.0765" stroke-miterlimit="10" cx="295.007" cy="16.929" r="0.28"/>
					<circle fill="#73D100" stroke="#416B6D" stroke-width="0.0765" stroke-miterlimit="10" cx="295.396" cy="16.398" r="0.28"/>
					<circle fill="#73D100" stroke="#416B6D" stroke-width="0.0765" stroke-miterlimit="10" cx="295.783" cy="15.943" r="0.28"/>
					<circle fill="#73D100" stroke="#416B6D" stroke-width="0.0765" stroke-miterlimit="10" cx="296.091" cy="15.563" r="0.279"/>
					<circle fill="#73D100" stroke="#416B6D" stroke-width="0.0765" stroke-miterlimit="10" cx="296.403" cy="15.032" r="0.28"/>
					<circle fill="#73D100" stroke="#416B6D" stroke-width="0.0765" stroke-miterlimit="10" cx="296.712" cy="14.652" r="0.28"/>
					<circle fill="#73D100" stroke="#416B6D" stroke-width="0.0765" stroke-miterlimit="10" cx="297.248" cy="14.658" r="0.281"/>
					<circle fill="#73D100" stroke="#416B6D" stroke-width="0.0765" stroke-miterlimit="10" cx="297.634" cy="14.203" r="0.28"/>
					<circle fill="#73D100" stroke="#416B6D" stroke-width="0.0765" stroke-miterlimit="10" cx="297.64" cy="13.668" r="0.28"/>
					<circle fill="#73D100" stroke="#416B6D" stroke-width="0.0765" stroke-miterlimit="10" cx="298.177" cy="13.444" r="0.28"/>
					<circle fill="#73D100" stroke="#416B6D" stroke-width="0.0765" stroke-miterlimit="10" cx="298.714" cy="13.296" r="0.28"/>
					<circle fill="#73D100" stroke="#416B6D" stroke-width="0.0765" stroke-miterlimit="10" cx="299.25" cy="13.302" r="0.28"/>
					<circle fill="#73D100" stroke="#416B6D" stroke-width="0.0765" stroke-miterlimit="10" cx="294.731" cy="21.667" r="0.281"/>
					<circle fill="#73D100" stroke="#416B6D" stroke-width="0.0765" stroke-miterlimit="10" cx="294.731" cy="21.667" r="0.281"/>
					<circle fill="#73D100" stroke="#416B6D" stroke-width="0.0765" stroke-miterlimit="10" cx="299.862" cy="13.155" r="0.28"/>
					<circle fill="#73D100" stroke="#416B6D" stroke-width="0.0765" stroke-miterlimit="10" cx="300.397" cy="13.161" r="0.28"/>
					<circle fill="#73D100" stroke="#416B6D" stroke-width="0.0765" stroke-miterlimit="10" cx="300.929" cy="13.472" r="0.281"/>
					<circle fill="#73D100" stroke="#416B6D" stroke-width="0.0765" stroke-miterlimit="10" cx="301.308" cy="13.857" r="0.28"/>
					<circle fill="#73D100" stroke="#416B6D" stroke-width="0.0765" stroke-miterlimit="10" cx="301.609" cy="14.319" r="0.28"/>
					<circle fill="#73D100" stroke="#416B6D" stroke-width="0.0765" stroke-miterlimit="10" cx="302.069" cy="14.171" r="0.28"/>
					<circle fill="#73D100" stroke="#416B6D" stroke-width="0.0765" stroke-miterlimit="10" cx="302.531" cy="13.87" r="0.28"/>
					<circle fill="#73D100" stroke="#416B6D" stroke-width="0.0765" stroke-miterlimit="10" cx="303.065" cy="13.952" r="0.28"/>
					<circle fill="#73D100" stroke="#416B6D" stroke-width="0.0765" stroke-miterlimit="10" cx="303.598" cy="14.263" r="0.28"/>
					<circle fill="#73D100" stroke="#416B6D" stroke-width="0.0765" stroke-miterlimit="10" cx="303.899" cy="14.725" r="0.28"/>
					<circle fill="#73D100" stroke="#416B6D" stroke-width="0.0765" stroke-miterlimit="10" cx="304.201" cy="15.187" r="0.28"/>
					<circle fill="#73D100" stroke="#416B6D" stroke-width="0.0765" stroke-miterlimit="10" cx="304.656" cy="15.497" r="0.28"/>
					<circle fill="#73D100" stroke="#416B6D" stroke-width="0.0765" stroke-miterlimit="10" cx="305.112" cy="15.73" r="0.28"/>
					<circle fill="#73D100" stroke="#416B6D" stroke-width="0.0765" stroke-miterlimit="10" cx="305.567" cy="16.041" r="0.28"/>
					<circle fill="#73D100" stroke="#416B6D" stroke-width="0.0765" stroke-miterlimit="10" cx="305.639" cy="16.577" r="0.28"/>
					<circle fill="#73D100" stroke="#416B6D" stroke-width="0.0765" stroke-miterlimit="10" cx="305.634" cy="17.112" r="0.28"/>
					<circle fill="#73D100" stroke="#416B6D" stroke-width="0.0765" stroke-miterlimit="10" cx="305.55" cy="17.723" r="0.281"/>
					<circle fill="#73D100" stroke="#416B6D" stroke-width="0.0765" stroke-miterlimit="10" cx="305.242" cy="18.178" r="0.28"/>
					<circle fill="#73D100" stroke="#416B6D" stroke-width="0.0765" stroke-miterlimit="10" cx="305.849" cy="18.49" r="0.28"/>
					<circle fill="#73D100" stroke="#416B6D" stroke-width="0.0765" stroke-miterlimit="10" cx="306.382" cy="18.725" r="0.28"/>
					<circle fill="#73D100" stroke="#416B6D" stroke-width="0.0765" stroke-miterlimit="10" cx="306.684" cy="19.111" r="0.28"/>
					<circle fill="#73D100" stroke="#416B6D" stroke-width="0.0765" stroke-miterlimit="10" cx="306.908" cy="19.724" r="0.28"/>
					<circle fill="#73D100" stroke="#416B6D" stroke-width="0.0765" stroke-miterlimit="10" cx="306.826" cy="20.258" r="0.28"/>
					<circle fill="#73D100" stroke="#416B6D" stroke-width="0.0765" stroke-miterlimit="10" cx="306.515" cy="20.791" r="0.28"/>
					<circle fill="#73D100" stroke="#416B6D" stroke-width="0.0765" stroke-miterlimit="10" cx="306.509" cy="21.326" r="0.28"/>
					<circle fill="#73D100" stroke="#416B6D" stroke-width="0.0765" stroke-miterlimit="10" cx="306.503" cy="21.862" r="0.28"/>
					<circle fill="#73D100" stroke="#416B6D" stroke-width="0.0765" stroke-miterlimit="10" cx="306.498" cy="22.396" r="0.28"/>
					<circle fill="#73D100" stroke="#416B6D" stroke-width="0.0765" stroke-miterlimit="10" cx="306.11" cy="22.928" r="0.28"/>
					<circle fill="#73D100" stroke="#416B6D" stroke-width="0.0765" stroke-miterlimit="10" cx="305.574" cy="23.075" r="0.28"/>
					<circle fill="#73D100" stroke="#416B6D" stroke-width="0.0765" stroke-miterlimit="10" cx="305.041" cy="22.918" r="0.28"/>
					<circle fill="#73D100" stroke="#416B6D" stroke-width="0.0765" stroke-miterlimit="10" cx="305.339" cy="23.608" r="0.28"/>
					<circle fill="#73D100" stroke="#416B6D" stroke-width="0.0765" stroke-miterlimit="10" cx="305.181" cy="24.142" r="0.28"/>
					<circle fill="#73D100" stroke="#416B6D" stroke-width="0.0765" stroke-miterlimit="10" cx="304.871" cy="24.674" r="0.28"/>
					<circle fill="#73D100" stroke="#416B6D" stroke-width="0.0765" stroke-miterlimit="10" cx="304.332" cy="24.897" r="0.28"/>
					<circle fill="#73D100" stroke="#416B6D" stroke-width="0.0765" stroke-miterlimit="10" cx="303.871" cy="25.275" r="0.28"/>
					<circle fill="#73D100" stroke="#416B6D" stroke-width="0.0765" stroke-miterlimit="10" cx="303.56" cy="25.731" r="0.28"/>
					<circle fill="#73D100" stroke="#416B6D" stroke-width="0.0765" stroke-miterlimit="10" cx="303.097" cy="26.032" r="0.28"/>
					<circle fill="#73D100" stroke="#416B6D" stroke-width="0.0765" stroke-miterlimit="10" cx="302.638" cy="26.181" r="0.28"/>
					<circle fill="#73D100" stroke="#416B6D" stroke-width="0.0765" stroke-miterlimit="10" cx="302.102" cy="26.175" r="0.28"/>
					<circle fill="#73D100" stroke="#416B6D" stroke-width="0.0765" stroke-miterlimit="10" cx="301.792" cy="26.707" r="0.28"/>
					<circle fill="#73D100" stroke="#416B6D" stroke-width="0.0765" stroke-miterlimit="10" cx="301.328" cy="27.161" r="0.28"/>
					<circle fill="#73D100" stroke="#416B6D" stroke-width="0.0765" stroke-miterlimit="10" cx="300.792" cy="27.156" r="0.28"/>
					<circle fill="#73D100" stroke="#416B6D" stroke-width="0.0765" stroke-miterlimit="10" cx="300.259" cy="26.998" r="0.28"/>
					<circle fill="#73D100" stroke="#416B6D" stroke-width="0.0765" stroke-miterlimit="10" cx="299.728" cy="26.687" r="0.28"/>
					<circle fill="#73D100" stroke="#416B6D" stroke-width="0.0765" stroke-miterlimit="10" cx="299.115" cy="26.68" r="0.279"/>
					<circle fill="#73D100" stroke="#416B6D" stroke-width="0.0765" stroke-miterlimit="10" cx="298.582" cy="26.599" r="0.28"/>
					<circle fill="#73D100" stroke="#416B6D" stroke-width="0.0765" stroke-miterlimit="10" cx="298.048" cy="26.44" r="0.28"/>
					<circle fill="#73D100" stroke="#416B6D" stroke-width="0.0765" stroke-miterlimit="10" cx="297.746" cy="25.979" r="0.28"/>
					<circle fill="#73D100" stroke="#416B6D" stroke-width="0.0765" stroke-miterlimit="10" cx="297.597" cy="25.519" r="0.281"/>
					<circle fill="#73D100" stroke="#416B6D" stroke-width="0.0765" stroke-miterlimit="10" cx="297.064" cy="25.36" r="0.281"/>
					<circle fill="#73D100" stroke="#416B6D" stroke-width="0.0765" stroke-miterlimit="10" cx="296.53" cy="25.202" r="0.28"/>
					<circle fill="#73D100" stroke="#416B6D" stroke-width="0.0765" stroke-miterlimit="10" cx="296.076" cy="24.892" r="0.28"/>
					<circle fill="#73D100" stroke="#416B6D" stroke-width="0.0765" stroke-miterlimit="10" cx="295.774" cy="24.354" r="0.28"/>
					<circle fill="#73D100" stroke="#416B6D" stroke-width="0.0765" stroke-miterlimit="10" cx="295.474" cy="23.815" r="0.28"/>
					<circle fill="#73D100" stroke="#416B6D" stroke-width="0.0765" stroke-miterlimit="10" cx="295.02" cy="23.352" r="0.28"/>
					<circle fill="#73D100" stroke="#416B6D" stroke-width="0.0765" stroke-miterlimit="10" cx="294.641" cy="22.967" r="0.28"/>
					<circle fill="#73D100" stroke="#416B6D" stroke-width="0.0765" stroke-miterlimit="10" cx="294.648" cy="22.278" r="0.28"/>
				</g>
				<path fill="#E0E0E0" stroke="#416B6D" stroke-width="0.0765" stroke-miterlimit="10" d="M301.583,14.889
					c0,0-0.184-1.468-0.949-1.586c-0.766-0.119-1.053,0.209-1.311,0.181c-0.258-0.028-1.07-0.139-1.453-0.015
					c-0.384,0.123-0.203,1.221-0.203,1.221s-0.851-0.289-1.107-0.011c-0.257,0.278-0.368,1.041-0.587,1.371
					c-0.222,0.328-0.937,0.462-1.042,0.912c-0.105,0.453,0.376,0.66,0.376,0.66s-0.769,0.272-0.89,0.908
					c-0.121,0.637,0.412,0.897,0.408,1.292c-0.005,0.396-0.594,0.721-0.433,1.219c0.159,0.499,0.874,0.468,0.874,0.468
					s-0.898,0.743-0.549,1.37c0.351,0.629,0.681,0.683,1.021,1.044c0.341,0.359,0.155,1.097,0.714,1.268
					c0.561,0.172,1.227-0.159,1.227-0.159s0.061,1.409,0.557,1.515c0.497,0.108,0.448-0.097,1.264,0.014
					c0.812,0.11,0.834,0.568,1.678,0.438c0.843-0.133,0.738-1.254,0.738-1.254s0.692,0.693,1.412,0.165
					c0.721-0.527,0.467-0.708,0.852-1.062c0.387-0.353,0.357,0.003,0.887-0.603c0.527-0.606-0.309-1.608-0.309-1.608
					s1.354,0.318,1.664-0.251c0.312-0.571,0.062-1.032,0.017-1.492c-0.047-0.458,0.337-0.632,0.245-1.679
					c-0.092-1.045-2.248-0.749-2.248-0.749s1.73-1.091,1.318-1.859c-0.414-0.769-1.147-1.185-1.477-1.442
					c-0.33-0.258-0.525-0.999-1.25-1.274C302.305,13.615,301.583,14.889,301.583,14.889z"/>
				<path fill="#DBF7FC" stroke="#416B6D" stroke-width="0.0912" stroke-miterlimit="10" d="M300.389,20.373
					c0,0,5.321-2.548,4.973-3.339c-0.349-0.789-1.491-0.418-1.722-0.933c-0.229-0.513,0.304-0.691-0.604-1.355
					c-0.908-0.664-3.418,4.886-3.418,4.886l0.076,0.808L300.389,20.373z"/>
				<path fill="#DBF7FC" stroke="#416B6D" stroke-width="0.0765" stroke-miterlimit="10" d="M301.167,19.98
					c0,0,4.818-1.087,4.996-0.385c0.18,0.7-0.77,1.041-0.654,1.5c0.113,0.458,0.556,0.296,0.302,1.202
					c-0.256,0.908-4.783-1.453-4.783-1.453l-0.353-0.549L301.167,19.98z"/>
				<path fill="#DBF7FC" stroke="#416B6D" stroke-width="0.0765" stroke-miterlimit="10" d="M300.938,20.994
					c0,0,4.112,2.194,3.81,2.806c-0.306,0.61-1.193,0.27-1.395,0.668c-0.2,0.397,0.216,0.554-0.525,1.045
					c-0.742,0.491-2.521-3.986-2.521-3.986l0.088-0.61L300.938,20.994z"/>
				<path fill="#DBF7FC" stroke="#416B6D" stroke-width="0.0765" stroke-miterlimit="10" d="M300.253,18.876
					c0,0,1.277-4.78,0.584-4.987c-0.694-0.207-1.08,0.723-1.532,0.589c-0.453-0.134-0.274-0.571-1.193-0.354
					c-0.918,0.217,1.25,4.841,1.25,4.841l0.56,0.391L300.253,18.876z"/>
				<path fill="#DBF7FC" stroke="#416B6D" stroke-width="0.0765" stroke-miterlimit="10" d="M299.356,18.736
					c0,0-1.753-3.523-2.276-3.28c-0.521,0.243-0.254,1.001-0.596,1.159c-0.34,0.161-0.462-0.194-0.895,0.419
					c-0.432,0.614,3.304,2.224,3.304,2.224l0.517-0.061L299.356,18.736z"/>
				<path fill="#DBF7FC" stroke="#416B6D" stroke-width="0.0765" stroke-miterlimit="10" d="M299.669,19.896
					c0,0-4.112-2.195-4.449-1.601c-0.338,0.593,0.439,1.141,0.222,1.529c-0.218,0.388-0.58,0.13-0.573,1.019
					c0.004,0.891,4.715-0.127,4.715-0.127l0.457-0.412L299.669,19.896z"/>
				<path fill="#DBF7FC" stroke="#416B6D" stroke-width="0.0765" stroke-miterlimit="10" d="M300.494,21.683
					c0,0,0.912,4.431,0.268,4.582s-0.94-0.724-1.362-0.626c-0.422,0.097-0.28,0.505-1.106,0.256s1.414-4.354,1.414-4.354
					l0.508-0.312L300.494,21.683z"/>
				<path fill="#DBF7FC" stroke="#416B6D" stroke-width="0.0765" stroke-miterlimit="10" d="M299.568,21.454
					c0,0-2.078,3.729-2.633,3.439c-0.555-0.289-0.227-1.098-0.587-1.287c-0.362-0.189-0.513,0.188-0.949-0.5s3.694-2.24,3.694-2.24
					l0.556,0.091L299.568,21.454z"/>
				<path fill="none" stroke="#416B6D" stroke-width="0.0765" stroke-miterlimit="10" d="M298.796,16.592
					c-0.006,0.424,0.234,0.77,0.535,0.772"/>
				<path fill="none" stroke="#416B6D" stroke-width="0.0765" stroke-miterlimit="10" d="M299.632,17.235
					c0.005-0.445-0.045-0.806-0.108-0.807"/>
				<path fill="none" stroke="#416B6D" stroke-width="0.0765" stroke-miterlimit="10" d="M298.546,18.006
					c0.004-0.326-0.305-0.594-0.69-0.597"/>
				<path fill="none" stroke="#416B6D" stroke-width="0.0765" stroke-miterlimit="10" d="M298.169,18.22
					c0.002-0.136-0.276-0.249-0.621-0.251"/>
				<path fill="none" stroke="#416B6D" stroke-width="0.0765" stroke-miterlimit="10" d="M297.751,19.722
					c0.002-0.215-0.396-0.392-0.895-0.396"/>
				<path fill="none" stroke="#416B6D" stroke-width="0.0765" stroke-miterlimit="10" d="M297.833,20.568
					c0,0.085-0.277,0.15-0.621,0.146"/>
				<path fill="none" stroke="#416B6D" stroke-width="0.0765" stroke-miterlimit="10" d="M297.852,22.019
					c-0.001,0.113-0.374,0.2-0.832,0.195"/>
				<path fill="none" stroke="#416B6D" stroke-width="0.0765" stroke-miterlimit="10" d="M298.369,22.414
					c-0.006,0.479-0.242,0.863-0.529,0.86"/>
				<path fill="none" stroke="#416B6D" stroke-width="0.0765" stroke-miterlimit="10" d="M297.503,22.676
					c0.002-0.148,0.389-0.267,0.865-0.262"/>
				<path fill="none" stroke="#416B6D" stroke-width="0.0765" stroke-miterlimit="10" d="M299.514,23.292
					c-0.005,0.474-0.117,0.858-0.25,0.856"/>
				<path fill="none" stroke="#416B6D" stroke-width="0.0765" stroke-miterlimit="10" d="M300.143,23.298
					c-0.004,0.475,0.06,0.859,0.142,0.86"/>
				<path fill="none" stroke="#416B6D" stroke-width="0.0765" stroke-miterlimit="10" d="M299.768,23.294
					c-0.007,0.622-0.065,1.126-0.136,1.126"/>
				<path fill="none" stroke="#416B6D" stroke-width="0.0765" stroke-miterlimit="10" d="M301.264,22.876
					c-0.005,0.477,0.216,0.864,0.493,0.867"/>
				<path fill="none" stroke="#416B6D" stroke-width="0.0765" stroke-miterlimit="10" d="M301.648,22.583
					c-0.004,0.36,0.209,0.653,0.477,0.656"/>
				<path fill="none" stroke="#416B6D" stroke-width="0.0765" stroke-miterlimit="10" d="M301.936,22.264
					c-0.003,0.178,0.285,0.324,0.644,0.327"/>
				<path fill="none" stroke="#416B6D" stroke-width="0.0765" stroke-miterlimit="10" d="M302.882,20.164
					c0-0.11,0.552-0.193,1.23-0.187"/>
				<path fill="none" stroke="#416B6D" stroke-width="0.0765" stroke-miterlimit="10" d="M302.878,20.618
					c-0.002,0.043,0.65,0.084,1.457,0.092"/>
				<path fill="none" stroke="#416B6D" stroke-width="0.0765" stroke-miterlimit="10" d="M302.832,20.939
					c-0.002,0.188,0.291,0.341,0.653,0.345"/>
				<path fill="none" stroke="#416B6D" stroke-width="0.0765" stroke-miterlimit="10" d="M301.569,17.445
					c-0.007,0.638-0.21,1.151-0.454,1.148"/>
				<path fill="none" stroke="#416B6D" stroke-width="0.0765" stroke-miterlimit="10" d="M301.556,18.79
					c0.004-0.363,0.462-0.655,1.021-0.648"/>
				<path fill="none" stroke="#416B6D" stroke-width="0.0765" stroke-miterlimit="10" d="M301.764,19.068
					c0.001-0.152,0.235-0.274,0.528-0.271"/>
				<path fill="none" stroke="#73D100" stroke-width="0.1529" stroke-miterlimit="10" d="M299.49,19.715
					c-0.005,0.564-0.468,1.019-1.031,1.014c-0.396-0.006-0.713-0.329-0.709-0.724c0.002-0.276,0.229-0.499,0.506-0.496
					c0.193,0.002,0.35,0.161,0.348,0.354c-0.001,0.137-0.112,0.245-0.247,0.243c-0.097-0.001-0.172-0.078-0.171-0.174
					c0.001-0.064,0.056-0.119,0.122-0.119c0.047,0.001,0.084,0.039,0.083,0.086"/>
				<path fill="none" stroke="#73D100" stroke-width="0.1529" stroke-miterlimit="10" d="M299.271,20.97
					c0.252,0.505,0.046,1.119-0.46,1.37c-0.354,0.177-0.784,0.033-0.96-0.321c-0.123-0.248-0.021-0.549,0.227-0.672
					c0.172-0.087,0.383-0.016,0.471,0.157c0.06,0.121,0.011,0.27-0.111,0.33c-0.085,0.041-0.188,0.007-0.229-0.079
					c-0.029-0.058-0.006-0.131,0.054-0.16c0.042-0.021,0.093-0.003,0.112,0.037"/>
				<path fill="none" stroke="#73D100" stroke-width="0.1529" stroke-miterlimit="10" d="M300.275,20.02
					c-0.217-0.521,0.031-1.121,0.553-1.338c0.364-0.151,0.783,0.021,0.937,0.387c0.104,0.255-0.017,0.549-0.271,0.655
					c-0.18,0.074-0.385-0.011-0.459-0.189c-0.053-0.125,0.008-0.269,0.131-0.321c0.088-0.035,0.189,0.006,0.226,0.094
					c0.026,0.061-0.003,0.131-0.063,0.156c-0.043,0.019-0.093-0.002-0.109-0.045"/>
				<path fill="none" stroke="#73D100" stroke-width="0.1529" stroke-miterlimit="10" d="M301.096,20.625
					c0.194-0.529,0.784-0.801,1.313-0.604c0.369,0.137,0.559,0.548,0.422,0.919c-0.096,0.26-0.383,0.393-0.644,0.296
					c-0.181-0.066-0.274-0.269-0.208-0.449c0.048-0.128,0.188-0.193,0.316-0.146c0.088,0.033,0.135,0.132,0.102,0.221
					c-0.023,0.063-0.092,0.095-0.154,0.072c-0.043-0.017-0.066-0.065-0.051-0.108"/>
				<path fill="none" stroke="#73D100" stroke-width="0.1529" stroke-miterlimit="10" d="M300.617,21.128
					c0.537-0.171,1.113,0.125,1.285,0.662c0.121,0.376-0.087,0.78-0.463,0.899c-0.264,0.085-0.546-0.06-0.63-0.324
					c-0.06-0.184,0.042-0.381,0.228-0.44c0.129-0.041,0.268,0.031,0.31,0.159c0.028,0.09-0.021,0.188-0.111,0.216
					c-0.063,0.021-0.131-0.015-0.151-0.078c-0.015-0.043,0.012-0.091,0.055-0.106"/>
				<path fill="none" stroke="#73D100" stroke-width="0.1529" stroke-miterlimit="10" d="M299.035,19.124
					c-0.381,0.093-0.763-0.141-0.854-0.521c-0.064-0.267,0.1-0.534,0.365-0.597c0.187-0.046,0.373,0.069,0.418,0.255
					c0.031,0.131-0.049,0.262-0.18,0.293c-0.091,0.021-0.183-0.033-0.205-0.126c-0.015-0.063,0.023-0.128,0.09-0.143
					c0.043-0.011,0.09,0.017,0.1,0.062c0.008,0.031-0.012,0.062-0.043,0.071"/>
				<path fill="none" stroke="#73D100" stroke-width="0.1529" stroke-miterlimit="10" d="M299.5,21.549
					c0.564,0.014,1.013,0.481,1,1.046c-0.01,0.396-0.338,0.708-0.731,0.699c-0.276-0.007-0.496-0.236-0.49-0.513
					c0.005-0.193,0.166-0.347,0.359-0.343c0.135,0.003,0.241,0.116,0.239,0.251c-0.002,0.096-0.082,0.171-0.176,0.168
					c-0.066-0.001-0.119-0.056-0.119-0.123c0.002-0.046,0.041-0.083,0.088-0.081"/>
				<path fill="none" stroke="#73D100" stroke-width="0.1529" stroke-miterlimit="10" d="M299.766,19.021
					c-0.539-0.17-0.839-0.744-0.668-1.283c0.118-0.376,0.521-0.586,0.897-0.467c0.264,0.083,0.41,0.364,0.328,0.629
					c-0.061,0.185-0.257,0.286-0.441,0.229c-0.129-0.041-0.2-0.179-0.159-0.309c0.028-0.09,0.125-0.14,0.216-0.111
					c0.062,0.021,0.1,0.087,0.078,0.15c-0.014,0.045-0.062,0.069-0.105,0.055"/>
				<circle fill="#73D100" stroke="#416B6D" stroke-width="0.0765" stroke-miterlimit="10" cx="299.791" cy="20.242" r="1.262"/>
				<circle fill="#DBF7FC" stroke="#416B6D" stroke-width="0.0765" stroke-miterlimit="10" cx="299.792" cy="20.242" r="0.774"/>
				<path fill="none" stroke="#416B6D" stroke-width="0.0765" stroke-miterlimit="10" d="M297.623,20.134
					c0,0.084-0.279,0.151-0.621,0.146"/>
				<path fill="none" stroke="#416B6D" stroke-width="0.0765" stroke-miterlimit="10" d="M299.925,17.137
					c0.136-0.007,0.23-0.29,0.216-0.634"/>
			</g>
		</g>
	</g>
</g>
<circle fill="none" stroke="#E83658" stroke-linecap="round" stroke-miterlimit="10" stroke-dasharray="4.3733" cx="322.99" cy="42.298" r="84.202"/>
</svg>
