<?xml version="1.0" encoding="utf-8"?>
<!-- Generator: Adobe Illustrator 16.0.0, SVG Export Plug-In . SVG Version: 6.00 Build 0)  -->
<!DOCTYPE svg PUBLIC "-//W3C//DTD SVG 1.1//EN" "http://www.w3.org/Graphics/SVG/1.1/DTD/svg11.dtd">
<svg version="1.1" id="Layer_1" xmlns="http://www.w3.org/2000/svg" xmlns:xlink="http://www.w3.org/1999/xlink" x="0px" y="0px"
	 width="162.209px" height="110.464px" viewBox="0 0 162.209 110.464" enable-background="new 0 0 162.209 110.464"
	 xml:space="preserve">
<g>
	<text transform="matrix(1 0 0 1 -270.8774 -105.0874)" fill="#416B6D" font-family="'DeGenerate'" font-size="20">Helping Globally</text>
</g>
<text transform="matrix(1 0 0 1 -352.6958 -34.9531)" fill="#416B6D" font-family="'DeGenerate'" font-size="20">Local Vegetarianism and the Planet</text>
<g>
	<path fill="none" stroke="#416B6D" stroke-linecap="round" stroke-miterlimit="10" d="M-198.169,130.824
		c4.171,3.117,5.024,9.025,1.907,13.195c-2.182,2.92-6.317,3.518-9.236,1.335c-2.044-1.526-2.462-4.422-0.935-6.466
		c1.069-1.43,3.095-1.723,4.525-0.654c1.002,0.748,1.207,2.168,0.458,3.169c-0.523,0.701-1.517,0.845-2.218,0.32
		c-0.49-0.366-0.591-1.062-0.224-1.552c0.256-0.344,0.743-0.414,1.086-0.158c0.241,0.181,0.29,0.521,0.11,0.762"/>
	<path fill="#DBF7FC" stroke="#416B6D" stroke-linecap="round" stroke-miterlimit="10" d="M-215.731,131.832
		c0,0,14.595-11.281,32.827-9.322c10.134,1.144,20.564,5.773,15.479,16.746c-5.087,10.972-19.654-2.34-27.667-6.674
		C-203.105,128.246-215.731,131.832-215.731,131.832z"/>
	<path fill="none" stroke="#416B6D" stroke-linecap="round" stroke-miterlimit="10" d="M-226.789,155.681
		c-3.608-9.568,1.424-20.309,11.251-24.016"/>
	<path fill="none" stroke="#416B6D" stroke-linecap="round" stroke-miterlimit="10" d="M-177.116,131.542
		c-0.378-4.439-12.672-7.01-27.485-5.748"/>
	<path fill="none" stroke="#416B6D" stroke-linecap="round" stroke-miterlimit="10" d="M-181.226,136.302
		c0.092-4.453-11.861-8.305-26.727-8.609"/>
	<circle fill="#73D100" stroke="#416B6D" stroke-linecap="round" stroke-miterlimit="10" cx="-188.28" cy="144.796" r="3"/>
	<circle fill="#73D100" stroke="#416B6D" stroke-linecap="round" stroke-miterlimit="10" cx="-181" cy="146.309" r="1.875"/>
	<circle fill="#73D100" stroke="#416B6D" stroke-linecap="round" stroke-miterlimit="10" cx="-173.991" cy="147.593" r="1.75"/>
	<circle fill="#73D100" stroke="#416B6D" stroke-linecap="round" stroke-miterlimit="10" cx="-168.119" cy="145.837" r="1.25"/>
	<circle fill="#73D100" stroke="#416B6D" stroke-linecap="round" stroke-miterlimit="10" cx="-163.507" cy="140.708" r="1.969"/>
	<circle fill="#73D100" stroke="#416B6D" stroke-linecap="round" stroke-miterlimit="10" cx="-156.527" cy="137.571" r="1.502"/>
	<circle fill="#73D100" stroke="#416B6D" stroke-linecap="round" stroke-miterlimit="10" cx="-151.761" cy="133.164" r="1.625"/>
</g>
<g>
	<g>
		<path fill="none" stroke="#416B6D" stroke-width="0.4345" stroke-linecap="round" stroke-miterlimit="10" d="M51.582,73.685
			c-1.986,2.271-1.756,5.721,0.515,7.707c1.588,1.391,4.003,1.229,5.395-0.359c0.973-1.113,0.858-2.805-0.253-3.777
			c-0.778-0.68-1.962-0.603-2.644,0.177c-0.477,0.545-0.421,1.374,0.124,1.851c0.382,0.334,0.962,0.295,1.296-0.087
			c0.233-0.267,0.206-0.672-0.061-0.905c-0.188-0.164-0.472-0.146-0.636,0.043c-0.113,0.131-0.101,0.328,0.029,0.442"/>
		<path fill="#DBF7FC" stroke="#416B6D" stroke-width="0.4345" stroke-linecap="round" stroke-miterlimit="10" d="M61.651,72.132
			c0,0-9.631-4.625-19.723-1.312c-5.603,1.872-10.953,5.756-6.746,11.357c4.208,5.601,10.853-3.701,14.868-7.125
			C54.064,71.626,61.651,72.132,61.651,72.132z"/>
		<path fill="none" stroke="#416B6D" stroke-width="0.4345" stroke-linecap="round" stroke-miterlimit="10" d="M70.798,84.307
			c0.888-5.854-3.26-11.333-9.276-12.243"/>
		<path fill="none" stroke="#416B6D" stroke-width="0.4345" stroke-linecap="round" stroke-miterlimit="10" d="M39.741,76.636
			c-0.322-2.561,6.33-5.502,14.877-6.576"/>
		<path fill="none" stroke="#416B6D" stroke-width="0.4345" stroke-linecap="round" stroke-miterlimit="10" d="M42.645,78.837
			c-0.59-2.514,5.716-6.141,14.102-8.108"/>
		
			<circle fill="#73D100" stroke="#416B6D" stroke-width="0.4345" stroke-linecap="round" stroke-miterlimit="10" cx="47.668" cy="82.795" r="1.738"/>
		
			<circle fill="#73D100" stroke="#416B6D" stroke-width="0.4345" stroke-linecap="round" stroke-miterlimit="10" cx="43.726" cy="84.532" r="1.086"/>
		
			<circle fill="#73D100" stroke="#416B6D" stroke-width="0.4345" stroke-linecap="round" stroke-miterlimit="10" cx="39.911" cy="86.107" r="1.014"/>
		
			<circle fill="#73D100" stroke="#416B6D" stroke-width="0.4345" stroke-linecap="round" stroke-miterlimit="10" cx="36.372" cy="85.822" r="0.724"/>
		
			<circle fill="#73D100" stroke="#416B6D" stroke-width="0.4345" stroke-linecap="round" stroke-miterlimit="10" cx="33.139" cy="83.475" r="1.142"/>
		
			<circle fill="#73D100" stroke="#416B6D" stroke-width="0.4345" stroke-linecap="round" stroke-miterlimit="10" cx="28.806" cy="82.54" r="0.87"/>
		
			<circle fill="#73D100" stroke="#416B6D" stroke-width="0.4345" stroke-linecap="round" stroke-miterlimit="10" cx="25.573" cy="80.619" r="0.941"/>
	</g>
	<g>
		<path fill="none" stroke="#416B6D" stroke-width="0.3515" stroke-linecap="round" stroke-miterlimit="10" d="M115.124,72.942
			c1.896,1.533,2.191,4.315,0.656,6.214c-1.074,1.326-3.021,1.533-4.35,0.459c-0.932-0.752-1.072-2.115-0.32-3.045
			c0.525-0.65,1.479-0.751,2.129-0.225c0.457,0.367,0.527,1.035,0.16,1.49c-0.26,0.32-0.729,0.369-1.045,0.11
			c-0.225-0.18-0.258-0.507-0.078-0.729c0.127-0.156,0.354-0.182,0.512-0.055c0.109,0.088,0.127,0.248,0.039,0.357"/>
		<path fill="#DBF7FC" stroke="#416B6D" stroke-width="0.3515" stroke-linecap="round" stroke-miterlimit="10" d="M106.88,73.098
			c0,0,7.037-5.021,15.539-3.778c4.727,0.717,9.527,3.071,6.949,8.117c-2.578,5.049-9.162-1.445-12.838-3.618
			C112.858,71.646,106.88,73.098,106.88,73.098z"/>
		<path fill="none" stroke="#416B6D" stroke-width="0.3515" stroke-linecap="round" stroke-miterlimit="10" d="M101.276,84.071
			c-1.52-4.546,1.029-9.485,5.699-11.046"/>
		<path fill="none" stroke="#416B6D" stroke-width="0.3515" stroke-linecap="round" stroke-miterlimit="10" d="M124.97,73.654
			c-0.098-2.087-5.811-3.51-12.77-3.183"/>
		<path fill="none" stroke="#416B6D" stroke-width="0.3515" stroke-linecap="round" stroke-miterlimit="10" d="M122.96,75.809
			c0.121-2.084-5.406-4.103-12.361-4.511"/>
		
			<circle fill="#73D100" stroke="#416B6D" stroke-width="0.3515" stroke-linecap="round" stroke-miterlimit="10" cx="119.505" cy="79.661" r="1.406"/>
		
			<circle fill="#73D100" stroke="#416B6D" stroke-width="0.3515" stroke-linecap="round" stroke-miterlimit="10" cx="122.888" cy="80.5" r="0.879"/>
		
			<circle fill="#73D100" stroke="#416B6D" stroke-width="0.3515" stroke-linecap="round" stroke-miterlimit="10" cx="126.146" cy="81.226" r="0.82"/>
		
			<circle fill="#73D100" stroke="#416B6D" stroke-width="0.3515" stroke-linecap="round" stroke-miterlimit="10" cx="128.929" cy="80.509" r="0.586"/>
		
			<circle fill="#73D100" stroke="#416B6D" stroke-width="0.3515" stroke-linecap="round" stroke-miterlimit="10" cx="131.181" cy="78.19" r="0.923"/>
		
			<circle fill="#73D100" stroke="#416B6D" stroke-width="0.3515" stroke-linecap="round" stroke-miterlimit="10" cx="134.503" cy="76.844" r="0.704"/>
		
			<circle fill="#73D100" stroke="#416B6D" stroke-width="0.3515" stroke-linecap="round" stroke-miterlimit="10" cx="136.815" cy="74.865" r="0.763"/>
	</g>
	<g>
		<g>
			
				<ellipse transform="matrix(0.0096 -1 1 0.0096 -24.0991 154.2653)" fill="#73D100" stroke="#416B6D" stroke-width="0.2373" stroke-miterlimit="10" cx="65.83" cy="89.299" rx="0.862" ry="0.87"/>
			
				<ellipse transform="matrix(0.0102 -0.9999 0.9999 0.0102 -23.86 151.6231)" fill="#73D100" stroke="#416B6D" stroke-width="0.2373" stroke-miterlimit="10" cx="64.658" cy="87.864" rx="0.862" ry="0.87"/>
			
				<ellipse transform="matrix(0.0096 -1 1 0.0096 -22.1429 150.0588)" fill="#73D100" stroke="#416B6D" stroke-width="0.2373" stroke-miterlimit="10" cx="64.684" cy="86.208" rx="0.862" ry="0.87"/>
			
				<ellipse transform="matrix(0.0096 -1 1 0.0096 -19.5352 149.39)" fill="#73D100" stroke="#416B6D" stroke-width="0.2373" stroke-miterlimit="10" cx="65.65" cy="84.557" rx="0.862" ry="0.871"/>
			
				<ellipse transform="matrix(0.0102 -0.9999 0.9999 0.0102 -17.4192 147.2343)" fill="#73D100" stroke="#416B6D" stroke-width="0.2373" stroke-miterlimit="10" cx="65.662" cy="82.416" rx="0.862" ry="0.87"/>
			
				<ellipse transform="matrix(0.0102 -0.9999 0.9999 0.0102 -16.4405 144.887)" fill="#73D100" stroke="#416B6D" stroke-width="0.2373" stroke-miterlimit="10" cx="64.966" cy="80.748" rx="0.862" ry="0.87"/>
			
				<ellipse transform="matrix(0.0096 -1 1 0.0096 -14.7262 143.3051)" fill="#73D100" stroke="#416B6D" stroke-width="0.2373" stroke-miterlimit="10" cx="64.983" cy="79.087" rx="0.862" ry="0.87"/>
			
				<ellipse transform="matrix(0.0096 -1 1 0.0096 -12.5859 142.6439)" fill="#73D100" stroke="#416B6D" stroke-width="0.2373" stroke-miterlimit="10" cx="65.719" cy="77.676" rx="0.862" ry="0.87"/>
			
				<ellipse transform="matrix(0.0102 -0.9999 0.9999 0.0102 -10.0288 142.3869)" fill="#73D100" stroke="#416B6D" stroke-width="0.2373" stroke-miterlimit="10" cx="66.909" cy="76.259" rx="0.861" ry="0.87"/>
			
				<ellipse transform="matrix(0.0102 -0.9999 0.9999 0.0102 -8.5818 140.5208)" fill="#73D100" stroke="#416B6D" stroke-width="0.2373" stroke-miterlimit="10" cx="66.688" cy="74.595" rx="0.863" ry="0.87"/>
			
				<ellipse transform="matrix(0.0102 -0.9999 0.9999 0.0102 -5.7443 140.0923)" fill="#73D100" stroke="#416B6D" stroke-width="0.2373" stroke-miterlimit="10" cx="67.892" cy="72.948" rx="0.862" ry="0.869"/>
			
				<ellipse transform="matrix(0.0102 -0.9999 0.9999 0.0102 -3.1442 139.8958)" fill="#73D100" stroke="#416B6D" stroke-width="0.2373" stroke-miterlimit="10" cx="69.093" cy="71.536" rx="0.862" ry="0.87"/>
			
				<ellipse transform="matrix(0.0108 -0.9999 0.9999 0.0108 -1.0592 139.652)" fill="#73D100" stroke="#416B6D" stroke-width="0.2373" stroke-miterlimit="10" cx="70.051" cy="70.361" rx="0.863" ry="0.87"/>
			
				<ellipse transform="matrix(0.0102 -0.9999 0.9999 0.0102 1.5918 139.0231)" fill="#73D100" stroke="#416B6D" stroke-width="0.2373" stroke-miterlimit="10" cx="71.02" cy="68.708" rx="0.862" ry="0.87"/>
			
				<ellipse transform="matrix(0.0102 -0.9999 0.9999 0.0102 3.7176 138.8192)" fill="#73D100" stroke="#416B6D" stroke-width="0.2373" stroke-miterlimit="10" cx="71.979" cy="67.532" rx="0.862" ry="0.87"/>
			
				<ellipse transform="matrix(0.0096 -1 1 0.0096 5.3929 140.5486)" fill="#73D100" stroke="#416B6D" stroke-width="0.2373" stroke-miterlimit="10" cx="73.651" cy="67.552" rx="0.862" ry="0.87"/>
			
				<ellipse transform="matrix(0.0102 -0.9999 0.9999 0.0102 7.9444 140.2983)" fill="#73D100" stroke="#416B6D" stroke-width="0.2373" stroke-miterlimit="10" cx="74.841" cy="66.136" rx="0.861" ry="0.871"/>
			
				<ellipse transform="matrix(0.0096 -1 1 0.0096 9.6709 138.7214)" fill="#73D100" stroke="#416B6D" stroke-width="0.2373" stroke-miterlimit="10" cx="74.867" cy="64.479" rx="0.863" ry="0.871"/>
			
				<ellipse transform="matrix(0.0096 -1 1 0.0096 12.02 139.7015)" fill="#73D100" stroke="#416B6D" stroke-width="0.2373" stroke-miterlimit="10" cx="76.536" cy="63.783" rx="0.863" ry="0.871"/>
			
				<ellipse transform="matrix(0.0102 -0.9999 0.9999 0.0102 14.075 140.8647)" fill="#73D100" stroke="#416B6D" stroke-width="0.2373" stroke-miterlimit="10" cx="78.191" cy="63.323" rx="0.862" ry="0.87"/>
			
				<ellipse transform="matrix(0.0096 -1 1 0.0096 15.7461 142.5773)" fill="#73D100" stroke="#416B6D" stroke-width="0.2373" stroke-miterlimit="10" cx="79.852" cy="63.339" rx="0.861" ry="0.87"/>
			
				<ellipse transform="matrix(0.0096 -1 1 0.0096 -24.0991 154.2653)" fill="#73D100" stroke="#416B6D" stroke-width="0.2373" stroke-miterlimit="10" cx="65.83" cy="89.299" rx="0.862" ry="0.87"/>
			
				<ellipse transform="matrix(0.0096 -1 1 0.0096 -24.0991 154.2653)" fill="#73D100" stroke="#416B6D" stroke-width="0.2373" stroke-miterlimit="10" cx="65.83" cy="89.299" rx="0.862" ry="0.87"/>
			
				<ellipse transform="matrix(0.0102 -0.9999 0.9999 0.0102 18.0387 143.9923)" fill="#73D100" stroke="#416B6D" stroke-width="0.2373" stroke-miterlimit="10" cx="81.754" cy="62.884" rx="0.861" ry="0.87"/>
			
				<ellipse transform="matrix(0.0102 -0.9999 0.9999 0.0102 19.6759 145.6832)" fill="#73D100" stroke="#416B6D" stroke-width="0.2373" stroke-miterlimit="10" cx="83.426" cy="62.903" rx="0.862" ry="0.87"/>
			
				<ellipse transform="matrix(0.0102 -0.9999 0.9999 0.0102 20.337 148.2768)" fill="#73D100" stroke="#416B6D" stroke-width="0.2373" stroke-miterlimit="10" cx="85.066" cy="63.866" rx="0.862" ry="0.87"/>
			
				<ellipse transform="matrix(0.0102 -0.9999 0.9999 0.0102 20.3017 150.6356)" fill="#73D100" stroke="#416B6D" stroke-width="0.2373" stroke-miterlimit="10" cx="86.24" cy="65.063" rx="0.862" ry="0.87"/>
			
				<ellipse transform="matrix(0.0102 -0.9999 0.9999 0.0102 19.7952 152.9918)" fill="#73D100" stroke="#416B6D" stroke-width="0.2373" stroke-miterlimit="10" cx="87.176" cy="66.497" rx="0.864" ry="0.872"/>
			
				<ellipse transform="matrix(0.0102 -0.9999 0.9999 0.0102 21.6759 153.9771)" fill="#73D100" stroke="#416B6D" stroke-width="0.2373" stroke-miterlimit="10" cx="88.615" cy="66.04" rx="0.862" ry="0.87"/>
			
				<ellipse transform="matrix(0.0102 -0.9999 0.9999 0.0102 24.0295 154.4826)" fill="#73D100" stroke="#416B6D" stroke-width="0.2373" stroke-miterlimit="10" cx="90.047" cy="65.104" rx="0.863" ry="0.872"/>
			
				<ellipse transform="matrix(0.0102 -0.9999 0.9999 0.0102 25.4023 156.3823)" fill="#73D100" stroke="#416B6D" stroke-width="0.2373" stroke-miterlimit="10" cx="91.693" cy="65.36" rx="0.862" ry="0.87"/>
			
				<ellipse transform="matrix(0.0102 -0.9999 0.9999 0.0102 26.0729 158.9861)" fill="#73D100" stroke="#416B6D" stroke-width="0.2373" stroke-miterlimit="10" cx="93.346" cy="66.323" rx="0.86" ry="0.87"/>
			
				<ellipse transform="matrix(0.0102 -0.9999 0.9999 0.0102 25.5683 161.3385)" fill="#73D100" stroke="#416B6D" stroke-width="0.2373" stroke-miterlimit="10" cx="94.281" cy="67.754" rx="0.861" ry="0.87"/>
			
				<ellipse transform="matrix(0.0091 -1 1 0.0091 25.1621 163.7889)" fill="#73D100" stroke="#416B6D" stroke-width="0.2373" stroke-miterlimit="10" cx="95.222" cy="69.199" rx="0.861" ry="0.869"/>
			
				<ellipse transform="matrix(0.0102 -0.9999 0.9999 0.0102 25.4965 166.0601)" fill="#73D100" stroke="#416B6D" stroke-width="0.2373" stroke-miterlimit="10" cx="96.631" cy="70.151" rx="0.86" ry="0.87"/>
			
				<ellipse transform="matrix(0.0102 -0.9999 0.9999 0.0102 26.1815 168.2085)" fill="#73D100" stroke="#416B6D" stroke-width="0.2373" stroke-miterlimit="10" cx="98.057" cy="70.879" rx="0.862" ry="0.87"/>
			
				<ellipse transform="matrix(0.0102 -0.9999 0.9999 0.0102 26.6087 170.562)" fill="#73D100" stroke="#416B6D" stroke-width="0.2373" stroke-miterlimit="10" cx="99.459" cy="71.84" rx="0.862" ry="0.872"/>
			
				<ellipse transform="matrix(0.0102 -0.9999 0.9999 0.0102 25.168 172.4279)" fill="#73D100" stroke="#416B6D" stroke-width="0.2373" stroke-miterlimit="10" cx="99.682" cy="73.501" rx="0.862" ry="0.868"/>
			
				<ellipse transform="matrix(0.0102 -0.9999 0.9999 0.0102 23.4895 174.0545)" fill="#73D100" stroke="#416B6D" stroke-width="0.2373" stroke-miterlimit="10" cx="99.664" cy="75.162" rx="0.862" ry="0.868"/>
			
				<ellipse transform="matrix(0.0102 -0.9999 0.9999 0.0102 21.3368 175.6768)" fill="#73D100" stroke="#416B6D" stroke-width="0.2373" stroke-miterlimit="10" cx="99.408" cy="77.061" rx="0.861" ry="0.87"/>
			
				<ellipse transform="matrix(0.009 -1 1 0.009 19.0767 176.2218)" fill="#73D100" stroke="#416B6D" stroke-width="0.2373" stroke-miterlimit="10" cx="98.45" cy="78.486" rx="0.863" ry="0.869"/>
			
				<ellipse transform="matrix(0.0102 -0.9999 0.9999 0.0102 19.8715 178.961)" fill="#73D100" stroke="#416B6D" stroke-width="0.2373" stroke-miterlimit="10" cx="100.334" cy="79.443" rx="0.861" ry="0.87"/>
			
				<ellipse transform="matrix(0.0102 -0.9999 0.9999 0.0102 20.7911 181.35)" fill="#73D100" stroke="#416B6D" stroke-width="0.2373" stroke-miterlimit="10" cx="102" cy="80.173" rx="0.862" ry="0.87"/>
			
				<ellipse transform="matrix(0.0102 -0.9999 0.9999 0.0102 20.511 183.453)" fill="#73D100" stroke="#416B6D" stroke-width="0.2373" stroke-miterlimit="10" cx="102.924" cy="81.366" rx="0.86" ry="0.87"/>
			
				<ellipse transform="matrix(0.0091 -1 1 0.0091 19.4078 186.1277)" fill="#73D100" stroke="#416B6D" stroke-width="0.2373" stroke-miterlimit="10" cx="103.616" cy="83.271" rx="0.861" ry="0.871"/>
			
				<ellipse transform="matrix(0.0102 -0.9999 0.9999 0.0102 17.3862 187.4225)" fill="#73D100" stroke="#416B6D" stroke-width="0.2373" stroke-miterlimit="10" cx="103.363" cy="84.929" rx="0.863" ry="0.87"/>
			
				<ellipse transform="matrix(0.0102 -0.9999 0.9999 0.0102 14.7744 188.0873)" fill="#73D100" stroke="#416B6D" stroke-width="0.2373" stroke-miterlimit="10" cx="102.396" cy="86.581" rx="0.86" ry="0.87"/>
			
				<ellipse transform="matrix(0.0091 -1 1 0.0091 13.2249 189.8355)" fill="#73D100" stroke="#416B6D" stroke-width="0.2373" stroke-miterlimit="10" cx="102.394" cy="88.245" rx="0.863" ry="0.871"/>
			
				<ellipse transform="matrix(0.0091 -1 1 0.0091 11.5288 191.4659)" fill="#73D100" stroke="#416B6D" stroke-width="0.2373" stroke-miterlimit="10" cx="102.37" cy="89.916" rx="0.861" ry="0.869"/>
			
				<ellipse transform="matrix(0.0102 -0.9999 0.9999 0.0102 9.7376 192.9896)" fill="#73D100" stroke="#416B6D" stroke-width="0.2373" stroke-miterlimit="10" cx="102.352" cy="91.576" rx="0.863" ry="0.87"/>
			
				<ellipse transform="matrix(0.0102 -0.9999 0.9999 0.0102 6.9071 193.4007)" fill="#73D100" stroke="#416B6D" stroke-width="0.2373" stroke-miterlimit="10" cx="101.145" cy="93.211" rx="0.862" ry="0.87"/>
			
				<ellipse transform="matrix(0.009 -1 1 0.009 4.9214 192.3128)" fill="#73D100" stroke="#416B6D" stroke-width="0.2373" stroke-miterlimit="10" cx="99.491" cy="93.673" rx="0.863" ry="0.871"/>
			
				<ellipse transform="matrix(0.0102 -0.9999 0.9999 0.0102 3.6519 190.0457)" fill="#73D100" stroke="#416B6D" stroke-width="0.2373" stroke-miterlimit="10" cx="97.822" cy="93.178" rx="0.862" ry="0.87"/>
			
				<ellipse transform="matrix(0.0102 -0.9999 0.9999 0.0102 2.4247 193.096)" fill="#73D100" stroke="#416B6D" stroke-width="0.2373" stroke-miterlimit="10" cx="98.75" cy="95.323" rx="0.862" ry="0.87"/>
			
				<ellipse transform="matrix(0.0102 -0.9999 0.9999 0.0102 0.2843 194.2452)" fill="#73D100" stroke="#416B6D" stroke-width="0.2373" stroke-miterlimit="10" cx="98.26" cy="96.979" rx="0.862" ry="0.87"/>
			
				<ellipse transform="matrix(0.0102 -0.9999 0.9999 0.0102 -2.324 194.912)" fill="#73D100" stroke="#416B6D" stroke-width="0.2373" stroke-miterlimit="10" cx="97.293" cy="98.63" rx="0.862" ry="0.87"/>
			
				<ellipse transform="matrix(0.0102 -0.9999 0.9999 0.0102 -4.6723 193.9321)" fill="#73D100" stroke="#416B6D" stroke-width="0.2373" stroke-miterlimit="10" cx="95.625" cy="99.326" rx="0.861" ry="0.87"/>
			
				<ellipse transform="matrix(0.0102 -0.9999 0.9999 0.0102 -7.264 193.6556)" fill="#73D100" stroke="#416B6D" stroke-width="0.2373" stroke-miterlimit="10" cx="94.189" cy="100.497" rx="0.861" ry="0.87"/>
			
				<ellipse transform="matrix(0.0102 -0.9999 0.9999 0.0102 -9.631 194.0945)" fill="#73D100" stroke="#416B6D" stroke-width="0.2373" stroke-miterlimit="10" cx="93.227" cy="101.912" rx="0.862" ry="0.87"/>
			
				<ellipse transform="matrix(0.0102 -0.9999 0.9999 0.0102 -11.9816 193.586)" fill="#73D100" stroke="#416B6D" stroke-width="0.2373" stroke-miterlimit="10" cx="91.795" cy="102.845" rx="0.861" ry="0.87"/>
			
				<ellipse transform="matrix(0.0102 -0.9999 0.9999 0.0102 -13.8634 192.6167)" fill="#73D100" stroke="#416B6D" stroke-width="0.2373" stroke-miterlimit="10" cx="90.363" cy="103.311" rx="0.862" ry="0.87"/>
			
				<ellipse transform="matrix(0.0102 -0.9999 0.9999 0.0102 -15.4851 190.9353)" fill="#73D100" stroke="#416B6D" stroke-width="0.2373" stroke-miterlimit="10" cx="88.703" cy="103.29" rx="0.862" ry="0.872"/>
			
				<ellipse transform="matrix(0.0102 -0.9999 0.9999 0.0102 -18.0905 191.6058)" fill="#73D100" stroke="#416B6D" stroke-width="0.2373" stroke-miterlimit="10" cx="87.74" cy="104.941" rx="0.861" ry="0.87"/>
			
				<ellipse transform="matrix(0.0113 -0.9999 0.9999 0.0113 -21.0247 191.4427)" fill="#73D100" stroke="#416B6D" stroke-width="0.2373" stroke-miterlimit="10" cx="86.3" cy="106.354" rx="0.862" ry="0.869"/>
			
				<ellipse transform="matrix(0.0091 -1 1 0.0091 -22.4671 190.0247)" fill="#73D100" stroke="#416B6D" stroke-width="0.2373" stroke-miterlimit="10" cx="84.644" cy="106.348" rx="0.862" ry="0.869"/>
			
				<ellipse transform="matrix(0.0102 -0.9999 0.9999 0.0102 -23.6925 187.7639)" fill="#73D100" stroke="#416B6D" stroke-width="0.2373" stroke-miterlimit="10" cx="82.998" cy="105.85" rx="0.862" ry="0.87"/>
			
				<ellipse transform="matrix(0.0108 -0.9999 0.9999 0.0108 -24.4197 185.0778)" fill="#73D100" stroke="#416B6D" stroke-width="0.2373" stroke-miterlimit="10" cx="81.331" cy="104.881" rx="0.862" ry="0.87"/>
			
				<ellipse transform="matrix(0.0096 -1 1 0.0096 -26.1741 183.2986)" fill="#73D100" stroke="#416B6D" stroke-width="0.2373" stroke-miterlimit="10" cx="79.448" cy="104.863" rx="0.863" ry="0.871"/>
			
				<ellipse transform="matrix(0.0102 -0.9999 0.9999 0.0102 -27.6139 181.3101)" fill="#73D100" stroke="#416B6D" stroke-width="0.2373" stroke-miterlimit="10" cx="77.777" cy="104.604" rx="0.862" ry="0.87"/>
			
				<ellipse transform="matrix(0.0091 -1 1 0.0091 -28.6896 179.302)" fill="#73D100" stroke="#416B6D" stroke-width="0.2373" stroke-miterlimit="10" cx="76.123" cy="104.126" rx="0.861" ry="0.869"/>
			
				<ellipse transform="matrix(0.0102 -0.9999 0.9999 0.0102 -28.2545 176.815)" fill="#73D100" stroke="#416B6D" stroke-width="0.2373" stroke-miterlimit="10" cx="75.188" cy="102.68" rx="0.861" ry="0.87"/>
			
				<ellipse transform="matrix(0.0102 -0.9999 0.9999 0.0102 -27.2812 174.9411)" fill="#73D100" stroke="#416B6D" stroke-width="0.2373" stroke-miterlimit="10" cx="74.727" cy="101.251" rx="0.862" ry="0.869"/>
			
				<ellipse transform="matrix(0.0102 -0.9999 0.9999 0.0102 -28.4294 172.7998)" fill="#73D100" stroke="#416B6D" stroke-width="0.2373" stroke-miterlimit="10" cx="73.07" cy="100.76" rx="0.862" ry="0.87"/>
			
				<ellipse transform="matrix(0.0096 -1 1 0.0096 -29.538 170.714)" fill="#73D100" stroke="#416B6D" stroke-width="0.2373" stroke-miterlimit="10" cx="71.415" cy="100.269" rx="0.861" ry="0.87"/>
			
				<ellipse transform="matrix(0.0096 -1 1 0.0096 -29.9702 168.3651)" fill="#73D100" stroke="#416B6D" stroke-width="0.2373" stroke-miterlimit="10" cx="70.011" cy="99.312" rx="0.863" ry="0.87"/>
			
				<ellipse transform="matrix(0.0096 -1 1 0.0096 -29.224 165.7786)" fill="#73D100" stroke="#416B6D" stroke-width="0.2373" stroke-miterlimit="10" cx="69.079" cy="97.643" rx="0.863" ry="0.871"/>
			
				<ellipse transform="matrix(0.0102 -0.9999 0.9999 0.0102 -28.5181 163.1204)" fill="#73D100" stroke="#416B6D" stroke-width="0.2373" stroke-miterlimit="10" cx="68.137" cy="95.965" rx="0.862" ry="0.87"/>
			
				<ellipse transform="matrix(0.0102 -0.9999 0.9999 0.0102 -28.4781 160.2863)" fill="#73D100" stroke="#416B6D" stroke-width="0.2373" stroke-miterlimit="10" cx="66.727" cy="94.528" rx="0.861" ry="0.87"/>
			
				<ellipse transform="matrix(0.0102 -0.9999 0.9999 0.0102 -28.44 157.9267)" fill="#73D100" stroke="#416B6D" stroke-width="0.2373" stroke-miterlimit="10" cx="65.553" cy="93.329" rx="0.862" ry="0.87"/>
			
				<ellipse transform="matrix(0.0102 -0.9999 0.9999 0.0102 -26.2832 155.8352)" fill="#73D100" stroke="#416B6D" stroke-width="0.2373" stroke-miterlimit="10" cx="65.574" cy="91.194" rx="0.862" ry="0.87"/>
		</g>
		<path fill="#E0E0E0" stroke="#416B6D" stroke-width="0.2373" stroke-miterlimit="10" d="M87.103,68.267
			c0,0-0.57-4.553-2.945-4.924c-2.375-0.369-3.271,0.65-4.069,0.562c-0.797-0.087-3.318-0.43-4.508-0.046
			c-1.19,0.384-0.631,3.79-0.631,3.79s-2.641-0.896-3.44-0.033c-0.8,0.862-1.14,3.23-1.822,4.252s-2.9,1.437-3.231,2.836
			c-0.331,1.4,1.166,2.049,1.166,2.049s-2.383,0.846-2.758,2.818s1.277,2.78,1.266,4.008c-0.012,1.227-1.841,2.234-1.342,3.782
			c0.498,1.548,2.713,1.451,2.713,1.451s-2.791,2.306-1.703,4.253c1.087,1.95,2.115,2.117,3.171,3.234
			c1.056,1.119,0.479,3.406,2.214,3.939c1.735,0.531,3.802-0.496,3.802-0.496s0.192,4.371,1.733,4.702
			c1.539,0.333,1.387-0.301,3.915,0.041c2.527,0.341,2.594,1.765,5.207,1.356s2.293-3.893,2.293-3.893s2.152,2.156,4.385,0.518
			c2.232-1.637,1.443-2.199,2.643-3.295c1.197-1.096,1.107,0.012,2.748-1.871c1.641-1.881-0.959-4.991-0.959-4.991
			s4.203,0.991,5.17-0.778c0.967-1.771,0.189-3.201,0.045-4.627c-0.143-1.426,1.049-1.967,0.766-5.213
			c-0.285-3.244-6.979-2.324-6.979-2.324s5.373-3.388,4.094-5.771c-1.281-2.387-3.562-3.674-4.584-4.477
			c-1.02-0.801-1.629-3.101-3.875-3.953C89.337,64.315,87.103,68.267,87.103,68.267z"/>
		<path fill="#DBF7FC" stroke="#416B6D" stroke-width="0.2829" stroke-miterlimit="10" d="M83.394,85.289
			c0,0,16.52-7.908,15.434-10.359c-1.084-2.449-4.631-1.299-5.344-2.895c-0.715-1.598,0.941-2.147-1.877-4.209
			C88.79,65.766,81,82.986,81,82.986l0.242,2.51L83.394,85.289z"/>
		<path fill="#DBF7FC" stroke="#416B6D" stroke-width="0.2373" stroke-miterlimit="10" d="M85.81,84.071
			c0,0,14.957-3.374,15.508-1.198c0.555,2.178-2.391,3.234-2.035,4.658c0.355,1.42,1.729,0.918,0.936,3.732
			c-0.791,2.816-14.842-4.512-14.842-4.512l-1.092-1.705L85.81,84.071z"/>
		<path fill="#DBF7FC" stroke="#416B6D" stroke-width="0.2373" stroke-miterlimit="10" d="M85.095,87.218
			c0,0,12.766,6.806,11.818,8.701c-0.943,1.896-3.701,0.838-4.324,2.074c-0.619,1.233,0.668,1.721-1.633,3.243
			c-2.299,1.525-7.826-12.37-7.826-12.37l0.271-1.893L85.095,87.218z"/>
		<path fill="#DBF7FC" stroke="#416B6D" stroke-width="0.2373" stroke-miterlimit="10" d="M82.976,80.646
			c0,0,3.963-14.839,1.809-15.482c-2.152-0.643-3.352,2.244-4.759,1.83c-1.405-0.416-0.854-1.771-3.704-1.099
			c-2.848,0.673,3.882,15.022,3.882,15.022l1.731,1.213L82.976,80.646z"/>
		<path fill="#DBF7FC" stroke="#416B6D" stroke-width="0.2373" stroke-miterlimit="10" d="M80.188,80.208
			c0,0-5.438-10.933-7.062-10.178c-1.623,0.752-0.794,3.102-1.852,3.598c-1.057,0.496-1.436-0.604-2.775,1.302
			c-1.34,1.905,10.252,6.896,10.252,6.896l1.602-0.184L80.188,80.208z"/>
		<path fill="#DBF7FC" stroke="#416B6D" stroke-width="0.2373" stroke-miterlimit="10" d="M81.164,83.804
			c0,0-12.767-6.809-13.813-4.967c-1.047,1.843,1.368,3.541,0.688,4.746c-0.681,1.203-1.802,0.403-1.784,3.164
			c0.016,2.76,14.635-0.396,14.635-0.396l1.42-1.278L81.164,83.804z"/>
		<path fill="#DBF7FC" stroke="#416B6D" stroke-width="0.2373" stroke-miterlimit="10" d="M83.716,89.352
			c0,0,2.832,13.75,0.83,14.222c-2.002,0.469-2.92-2.246-4.228-1.943c-1.308,0.301-0.87,1.564-3.436,0.791
			c-2.565-0.771,4.384-13.512,4.384-13.512l1.58-0.971L83.716,89.352z"/>
		<path fill="#DBF7FC" stroke="#416B6D" stroke-width="0.2373" stroke-miterlimit="10" d="M80.847,88.644
			c0,0-6.45,11.572-8.171,10.674c-1.72-0.898-0.703-3.404-1.824-3.994c-1.12-0.59-1.587,0.581-2.942-1.551
			c-1.356-2.133,11.461-6.955,11.461-6.955l1.728,0.281L80.847,88.644z"/>
		<path fill="none" stroke="#416B6D" stroke-width="0.2373" stroke-miterlimit="10" d="M78.449,73.554
			c-0.014,1.314,0.729,2.386,1.663,2.395"/>
		<path fill="none" stroke="#416B6D" stroke-width="0.2373" stroke-miterlimit="10" d="M81.045,75.55
			c0.014-1.381-0.138-2.5-0.338-2.504"/>
		<path fill="none" stroke="#416B6D" stroke-width="0.2373" stroke-miterlimit="10" d="M77.677,77.939
			c0.01-1.012-0.95-1.84-2.146-1.852"/>
		<path fill="none" stroke="#416B6D" stroke-width="0.2373" stroke-miterlimit="10" d="M76.506,78.606
			c0.004-0.421-0.859-0.771-1.928-0.78"/>
		<path fill="none" stroke="#416B6D" stroke-width="0.2373" stroke-miterlimit="10" d="M75.21,83.266
			c0.006-0.666-1.236-1.214-2.778-1.229"/>
		<path fill="none" stroke="#416B6D" stroke-width="0.2373" stroke-miterlimit="10" d="M75.466,85.894
			c-0.003,0.264-0.867,0.467-1.931,0.456"/>
		<path fill="none" stroke="#416B6D" stroke-width="0.2373" stroke-miterlimit="10" d="M75.519,90.394
			c-0.004,0.352-1.16,0.624-2.584,0.609"/>
		<path fill="none" stroke="#416B6D" stroke-width="0.2373" stroke-miterlimit="10" d="M77.122,91.623
			c-0.017,1.484-0.75,2.68-1.643,2.672"/>
		<path fill="none" stroke="#416B6D" stroke-width="0.2373" stroke-miterlimit="10" d="M74.437,92.436
			c0.005-0.464,1.206-0.828,2.687-0.813"/>
		<path fill="none" stroke="#416B6D" stroke-width="0.2373" stroke-miterlimit="10" d="M80.675,94.345
			c-0.014,1.475-0.361,2.664-0.774,2.66"/>
		<path fill="none" stroke="#416B6D" stroke-width="0.2373" stroke-miterlimit="10" d="M82.63,94.365
			c-0.016,1.475,0.178,2.67,0.432,2.674"/>
		<path fill="none" stroke="#416B6D" stroke-width="0.2373" stroke-miterlimit="10" d="M81.462,94.353
			c-0.02,1.934-0.206,3.496-0.415,3.494"/>
		<path fill="none" stroke="#416B6D" stroke-width="0.2373" stroke-miterlimit="10" d="M86.108,93.056
			c-0.016,1.479,0.67,2.684,1.529,2.693"/>
		<path fill="none" stroke="#416B6D" stroke-width="0.2373" stroke-miterlimit="10" d="M87.3,92.145
			c-0.012,1.118,0.648,2.03,1.479,2.038"/>
		<path fill="none" stroke="#416B6D" stroke-width="0.2373" stroke-miterlimit="10" d="M88.19,91.156
			c-0.006,0.553,0.887,1.006,1.996,1.018"/>
		<path fill="none" stroke="#416B6D" stroke-width="0.2373" stroke-miterlimit="10" d="M91.128,84.639
			c0.006-0.343,1.713-0.601,3.824-0.579"/>
		<path fill="none" stroke="#416B6D" stroke-width="0.2373" stroke-miterlimit="10" d="M91.116,86.05
			c-0.002,0.131,2.023,0.259,4.527,0.283"/>
		<path fill="none" stroke="#416B6D" stroke-width="0.2373" stroke-miterlimit="10" d="M90.976,87.044
			c-0.006,0.582,0.9,1.061,2.027,1.07"/>
		<path fill="none" stroke="#416B6D" stroke-width="0.2373" stroke-miterlimit="10" d="M87.056,76.205
			c-0.021,1.977-0.65,3.569-1.408,3.562"/>
		<path fill="none" stroke="#416B6D" stroke-width="0.2373" stroke-miterlimit="10" d="M87.015,80.375
			c0.012-1.129,1.43-2.031,3.174-2.013"/>
		<path fill="none" stroke="#416B6D" stroke-width="0.2373" stroke-miterlimit="10" d="M87.657,81.24
			c0.006-0.476,0.74-0.852,1.645-0.844"/>
		<path fill="none" stroke="#73D100" stroke-width="0.4745" stroke-miterlimit="10" d="M80.604,83.248
			c-0.018,1.752-1.453,3.16-3.205,3.143c-1.227-0.014-2.211-1.018-2.199-2.243c0.009-0.858,0.713-1.548,1.57-1.54
			c0.602,0.006,1.084,0.499,1.078,1.1c-0.004,0.422-0.349,0.76-0.77,0.754c-0.294-0.002-0.53-0.244-0.528-0.539
			c0.002-0.205,0.172-0.369,0.377-0.369c0.146,0.003,0.26,0.121,0.259,0.266"/>
		<path fill="none" stroke="#73D100" stroke-width="0.4745" stroke-miterlimit="10" d="M79.926,87.139
			c0.781,1.567,0.141,3.474-1.428,4.254c-1.1,0.547-2.432,0.101-2.979-0.999c-0.382-0.77-0.068-1.703,0.7-2.086
			c0.539-0.268,1.192-0.047,1.46,0.49c0.188,0.377,0.033,0.834-0.344,1.021c-0.264,0.133-0.584,0.023-0.715-0.24
			c-0.093-0.184-0.017-0.408,0.167-0.5c0.13-0.062,0.287-0.012,0.351,0.119"/>
		<path fill="none" stroke="#73D100" stroke-width="0.4745" stroke-miterlimit="10" d="M83.042,84.191
			c-0.674-1.617,0.092-3.479,1.711-4.15c1.133-0.471,2.434,0.066,2.902,1.199c0.332,0.793-0.045,1.703-0.838,2.032
			c-0.553,0.229-1.191-0.03-1.422-0.587c-0.162-0.389,0.021-0.835,0.41-0.996c0.271-0.113,0.586,0.016,0.697,0.287
			c0.078,0.191-0.012,0.408-0.201,0.488c-0.133,0.056-0.285-0.008-0.342-0.141"/>
		<path fill="none" stroke="#73D100" stroke-width="0.4745" stroke-miterlimit="10" d="M85.583,86.072
			c0.607-1.645,2.434-2.484,4.076-1.879c1.15,0.426,1.74,1.703,1.316,2.854c-0.299,0.806-1.193,1.219-1.998,0.92
			c-0.564-0.207-0.854-0.834-0.645-1.396c0.145-0.396,0.582-0.597,0.979-0.451c0.275,0.103,0.418,0.408,0.314,0.686
			c-0.07,0.193-0.285,0.292-0.479,0.222c-0.135-0.05-0.205-0.2-0.154-0.337"/>
		<path fill="none" stroke="#73D100" stroke-width="0.4745" stroke-miterlimit="10" d="M84.101,87.632
			c1.668-0.535,3.457,0.385,3.988,2.054c0.375,1.169-0.27,2.419-1.438,2.794c-0.816,0.262-1.693-0.189-1.953-1.008
			c-0.186-0.572,0.131-1.186,0.703-1.368c0.4-0.129,0.83,0.093,0.959,0.493c0.09,0.281-0.064,0.58-0.346,0.671
			c-0.197,0.063-0.406-0.046-0.471-0.242c-0.043-0.137,0.031-0.284,0.17-0.327"/>
		<path fill="none" stroke="#73D100" stroke-width="0.4745" stroke-miterlimit="10" d="M79.189,81.416
			c-1.18,0.283-2.364-0.442-2.648-1.621c-0.198-0.826,0.311-1.656,1.136-1.854c0.578-0.14,1.159,0.218,1.298,0.795
			c0.097,0.405-0.151,0.812-0.557,0.908c-0.282,0.067-0.567-0.104-0.636-0.39c-0.048-0.198,0.074-0.397,0.272-0.444
			c0.138-0.033,0.278,0.052,0.312,0.19c0.022,0.098-0.036,0.194-0.135,0.219"/>
		<path fill="none" stroke="#73D100" stroke-width="0.4745" stroke-miterlimit="10" d="M80.634,88.938
			c1.754,0.04,3.143,1.493,3.102,3.245c-0.029,1.227-1.047,2.197-2.273,2.17c-0.858-0.021-1.538-0.732-1.519-1.591
			c0.014-0.601,0.513-1.076,1.113-1.062c0.42,0.008,0.753,0.356,0.743,0.776c-0.006,0.296-0.25,0.528-0.545,0.521
			c-0.206-0.004-0.369-0.176-0.364-0.381c0.003-0.145,0.123-0.26,0.268-0.255"/>
		<path fill="none" stroke="#73D100" stroke-width="0.4745" stroke-miterlimit="10" d="M81.458,81.089
			c-1.671-0.526-2.6-2.311-2.071-3.98c0.37-1.17,1.617-1.818,2.788-1.449c0.816,0.258,1.271,1.131,1.016,1.95
			c-0.184,0.573-0.793,0.892-1.367,0.71c-0.4-0.126-0.622-0.555-0.497-0.955c0.089-0.281,0.388-0.438,0.669-0.349
			c0.195,0.062,0.305,0.271,0.244,0.469c-0.043,0.138-0.191,0.214-0.33,0.169"/>
		<circle fill="#73D100" stroke="#416B6D" stroke-width="0.2373" stroke-miterlimit="10" cx="81.538" cy="84.879" r="3.915"/>
		<circle fill="#DBF7FC" stroke="#416B6D" stroke-width="0.2373" stroke-miterlimit="10" cx="81.539" cy="84.881" r="2.402"/>
		<path fill="none" stroke="#416B6D" stroke-width="0.2373" stroke-miterlimit="10" d="M74.808,84.544
			c-0.002,0.265-0.867,0.469-1.93,0.457"/>
		<path fill="none" stroke="#416B6D" stroke-width="0.2373" stroke-miterlimit="10" d="M81.952,75.244
			c0.422-0.02,0.721-0.9,0.67-1.969"/>
	</g>
</g>
<g>
	<path fill="#416B6D" d="M12.256,25.184c-0.14,0.06-0.1-0.12-0.2-0.36C11.996,24.664,12.396,25.124,12.256,25.184z M12.296,19.342
		c-0.04-0.6,1.561-0.6,1.601,0c0.2,4.001-0.101,4.281,0,6.602c0.04,0.9,6.541,0.4,6.701-0.1c0.88-2.76-0.26-4.561,0.101-6.201
		c0.159-0.76,1.319-0.8,1.8-0.3c0,0-0.54,8.722-0.2,15.104c0,0-0.84,0.4-1.7,0.2c0,0,0.22-5.541,0.101-6.901
		c-0.08-0.8-5.901-0.24-6.502-0.1c-0.94,0.22,0.44,6.162-0.4,7.302c-0.34,0.46-0.92,0.08-1.5,0.1
		C12.296,35.046,12.716,24.864,12.296,19.342z M16.137,27.244c0.08,0.74,1.32,0.1,1.841,0.6c0.78,0.76,0.84,1.98,0.199,2.881
		c-0.359,0.52-0.899,0.5-1.399,0.9c-0.62,0.5,1.439-0.66,1.7-1.5c0.3-0.96,0.02-1.92-0.801-2.501c-0.52-0.36-1.44,0.22-1.6-0.4
		c-0.16-0.62,1.62-1.521,1.1-1.2C16.557,26.404,16.057,26.624,16.137,27.244z"/>
	<path fill="#416B6D" d="M17.773,33.226c0,0.12-0.04,0.22-0.079,0.32c-0.12,0.28-0.381-0.74-0.101-0.82
		C17.674,32.865,17.773,33.025,17.773,33.226z M27.296,29.705c0.94-0.6,5.142-0.26,5.142-0.26c0.319-0.06,0.34-1.141-0.021-2.421
		c-0.06-0.18-0.14-1-0.22-1.16c-0.16-0.3-0.2-0.06-0.36-0.36c-0.3-0.58-0.561-1.101-1.101-1.16c-0.16-0.02-0.279-0.5-0.359-0.541
		c-0.48-0.26-0.9-0.22-1.541-0.22c-0.8,0-1.64,0.26-2.24,0.54c-0.48,0.22-0.28,0.22-0.36,0.34c-0.72,1.101-1.62,2.381-1.82,4.961
		c-0.04,0.58-0.12,1.14,0,1.6c0.82,2.941,2.301,4.241,4.421,4.241c1.9,0,3.821-2.781,3.141-2.761l-0.12-0.26
		c-0.52-0.16-2.66,2.46-3.141,2.261c-0.439-0.18-1.98-0.52-2.88-1.661c-0.181-0.22-0.061-0.24-0.28-0.48
		c-0.601-0.62,0.14-1.04,0.14-2.641C25.695,29.725,26.775,30.025,27.296,29.705z M29.736,28.504c-1.44,0.26-3.801,0.42-3.801,0.42
		c-0.54,0.02-0.24-2.74,1.221-3.581c0.46-0.26,1.2-0.8,1.96-0.64c0.62,0.14,1.7,0.48,1.9,1.24c0.061,0.22,0.28,0.08,0.24,0.62
		c-0.08,1,0.26,1.96,0,2.041C31.257,28.604,30.196,28.424,29.736,28.504z M31.297,29.145c-0.24-0.36,0.08-0.88,0.08-0.88
		C31.217,28.185,31.597,29.584,31.297,29.145z"/>
	<path fill="#416B6D" d="M37.256,19.123c-0.3,5.901,0.141,8.122,0.2,15.503c0,0.48-1.721,0.76-1.7,0.1
		c0.06-4.201-0.12-8.441-0.12-11.862c0-0.36-0.4-1.041-0.38-1.44c0-0.34,0.2-0.6,0.2-1c0.04-1.141,0.199,0.52,0.3-1.101
		C35.796,18.762,37.276,18.542,37.256,19.123z M35.855,22.023c0.2-0.9,0.5-1.3,0-1.3S35.756,22.503,35.855,22.023z M36.276,26.744
		c-0.101,0.42-0.2-1.541-0.061-1.14c0.08,0.22,0.12,0.36,0.12,0.6C36.336,26.424,36.315,26.544,36.276,26.744z"/>
	<path fill="#416B6D" d="M40.716,24.063c-0.4,0,0.06-1.22,0.48-1.06c0.18,0.08,0.54,0.5,0.479,0.68c0.061,0.1-0.04,0.14-0.06,0.14
		C41.036,23.823,40.976,24.063,40.716,24.063z M40.775,25.244c0.101,3.741,0,13.363-0.1,14.703c-0.04,0.64,0.34,0.92,0.34,0.92
		s0.42,0.12,0.66,0.08c0.7-0.14,0.5-1.781,0.5-1.781l0.101-5.481c0.74-0.48,1.601,1.581,2.82,1.581c1.5,0,4.041-1.38,4.041-5.622
		c0-4.341-2.2-6.061-4.101-6.061c-1.061,0-2.241,0.3-2.961,1.06l-0.4-0.64C41.676,24.003,40.736,23.624,40.775,25.244z
		 M41.977,28.344c0.04-1.08,0.5-2.72,0.5-2.72c0.479-0.96,1.38-0.78,2.58-0.78c2.181,0,2.44,3.101,2.44,4.761
		c0,3.241-1.54,4.301-2.62,4.301c-1.101,0-1.961-0.92-2.4-1.86C42.477,32.045,41.916,29.805,41.977,28.344z"/>
	<path fill="#416B6D" d="M52.655,21.003c0,0-0.34,0.34-0.601,0.34c-0.14,0-0.359-0.14-0.359-0.14s-0.5-0.4-0.54-0.76
		c-0.061-0.4,0.34-0.96,0.34-0.96s0.3-0.12,0.46-0.14c0.3-0.04,0.8,0.04,0.8,0.04s0.101,0.46,0.101,0.76
		C52.855,20.483,52.655,21.003,52.655,21.003z M52.855,34.946h-1.561c0,0,0.24-6.261-0.04-10.402c-0.02-0.22,0.04-0.64,0.04-0.64
		s0.641-0.12,0.96,0.04c0.12,0.06,0.301,0.26,0.301,0.26s0.199,0.14,0.1,1.74C52.455,29.145,52.855,34.946,52.855,34.946z"/>
	<path fill="#416B6D" d="M56.655,34.546c0,0-0.18,0.58-0.46,0.6c-0.32,0.02-0.601-0.6-0.601-0.6l-0.3-10.842c0,0,0.94-0.22,1.2,0.14
		c0.12,0.18,0.16,0.56,0.16,0.56l0.2,0.64c0.92-0.74,1.78-1.46,3.04-1.46c1.561,0,2.981,0.86,2.821,3.741c0,0,0.6,4.381-0.42,6.821
		c-0.08,0.22-0.28,0.6-0.28,0.6l-0.66,0.1c0,0-0.46,0.12-0.4-0.3c0.101-0.88,0.561-2.961,0.54-4.101
		c-0.02-0.98-0.24-2.521-0.24-2.521c-0.1-1.12,0-2.44-1.56-3.061c-1.761-0.7-2.221,0.94-2.841,1.68L56.655,34.546z"/>
	<path fill="#416B6D" d="M74.337,24.804l-0.58,0.2c-0.279,0.08-0.68-0.2-1.08,0.02c-0.32,0.02,0.44,1.58,0.44,2.4
		c0,2.14-1.58,3.801-3.721,3.801c-0.641,0-1.801-0.18-2.381-0.4c-0.22-0.38-1.36,0.64-1.36,1.181c0,1.4,8.382-0.3,8.382,3.881
		c0,0.82-0.32,3.36-4.741,3.36c-3.601,0-4.661-1.88-4.661-3.241c0-1.14,1.001-1.76,1.921-2.16c0.06-0.32-1.38-0.74-1.38-1.541
		c0-0.98,1.3-1.7,1.26-2.081c-0.8-0.94-1.101-1.54-1.101-2.84c0-2.241,1.681-3.801,3.901-3.801c0.88,0,1.681,0.26,2.4,0.78
		c0.72-0.541,1.561-0.94,2.501-0.84L74.337,24.804z M66.735,34.886c0.28-0.6-1.58,1.641-0.72,1.621c0.68-0.02,0.22-0.521,0.36-0.84
		C66.495,35.386,66.615,35.166,66.735,34.886z M68.156,34.025c-0.841,0.16-2.021,0.9-2.021,1.9c0,1.521,2.48,2.681,3.541,2.681
		c1.12,0,2.86-1.3,2.86-2.82c0-1.161-1.9-2.281-2.621-2.141L68.156,34.025z M69.276,24.403c-1.501,0-2.801,1.621-2.801,3.041
		c0,1.38,1.28,2.9,2.721,2.9c1.601,0,2.48-1.4,2.48-2.92C71.677,25.984,70.837,24.403,69.276,24.403z M70.757,41.007
		c-0.24,0.14,0.16,0.68,0.359,0.6C71.517,41.467,70.996,40.867,70.757,41.007z"/>
	<path fill="#416B6D" d="M92.077,28.544c0.14,0.46-0.141,1.94-0.101,2.681c0.101,1.88,0.3,2.24,0.16,2.561
		c-0.14,0.34-0.42,0.16-0.42,0.16l-0.721-0.16v-0.36c-0.439-0.92-2.38,1.521-3.92,1.521c-3.241,0-5.441-2.661-5.441-7.782
		s2.44-7.921,5.681-7.921c2.861,0,5.401,4.081,4.762,4.261l-0.24,0.1c-0.141,0.12-0.88,0.44-1.061,0.02
		c-0.5-1.26-0.58-3.381-3.421-3.381c-2.16,0-4.521,1.02-4.521,5.741s1.16,7.702,3.32,7.702c2.881,0,6.042-3.961,4.682-5.161
		c0,0-0.761-0.22-1.9,0.02c-0.261,0.06-0.461-0.2-0.561-0.44c-0.1-0.22-0.1-0.38-0.04-0.6c0.14-0.46,0.72-0.34,1.16-0.4
		c0.86-0.14,1.62,0.76,2.16,0.8C91.837,27.924,91.977,28.165,92.077,28.544z M85.495,19.223c0.221,0.04,0.4-0.18,0.62-0.12
		c0.521,0.14-0.899,0.82-0.58,1.24c-0.319-0.42,1.141-1.16,0.601-1.24c-0.24-0.04-0.36,0.18-0.601,0.16
		c-0.54-0.08-0.359-1.06-0.359-1.32C85.176,17.422,85.016,19.103,85.495,19.223z"/>
	<path fill="#416B6D" d="M97.015,19.123c-0.3,5.901,0.141,8.122,0.2,15.503c0,0.48-1.721,0.76-1.7,0.1
		c0.06-4.201-0.12-8.441-0.12-11.862c0-0.36-0.4-1.041-0.38-1.44c0-0.34,0.2-0.6,0.2-1c0.04-1.141,0.2,0.52,0.3-1.101
		C95.555,18.762,97.035,18.542,97.015,19.123z M95.614,22.023c0.2-0.9,0.5-1.3,0-1.3S95.515,22.503,95.614,22.023z M96.035,26.744
		c-0.101,0.42-0.2-1.541-0.061-1.14c0.08,0.22,0.12,0.36,0.12,0.6C96.095,26.424,96.074,26.544,96.035,26.744z"/>
	<path fill="#416B6D" d="M100.154,29.425c0-4.141,1.961-5.841,4.421-5.841c2.461,0,4.121,2,4.121,6.141
		c0,4.141-1.66,5.542-4.121,5.542c-1.32,0-2.48-0.48-3.28-1.561c-0.14-0.18-0.101-0.54-0.22-0.76c-0.221-0.4-0.561-0.7-0.681-1.24
		C100.234,31.045,100.154,30.285,100.154,29.425z M101.335,32.625c-0.28,0.08-0.021,1.1,0.1,0.82c0.04-0.1,0.08-0.2,0.08-0.32
		C101.515,32.925,101.415,32.765,101.335,32.625z M107.336,29.425c0.28-1.86-0.16-5.021-2.561-5.021s-3.061,3.141-3.061,5.021
		s0.66,5.421,3.061,5.421S106.636,34.005,107.336,29.425z"/>
	<path fill="#416B6D" d="M112.614,34.746l-1.16-0.4c0,0-0.16-6.702-0.24-11.002c-0.02-1.54-0.06-3.961-0.06-3.961h1.561
		c0,0-0.181,1.22-0.2,1.96c-0.06,1.42,0.2,3.701,0.2,3.701c0.72-0.76,1.7-1.46,2.761-1.46c1.9,0,4.101,1.72,4.101,6.061
		c0,4.241-2.541,5.622-4.041,5.622c-1.22,0-2.08-0.66-2.82-1.581L112.614,34.746z M112.415,25.884c0,0-0.78,2.34-0.12,2.641
		C112.774,28.745,112.255,25.804,112.415,25.884z M112.715,31.845c0.439,0.94,1.7,2.661,2.801,2.661c1.08,0,2.72-0.56,2.82-5.101
		c0.04-1.661-0.76-4.661-2.94-4.661c-1.2,0-2.201,1.02-2.681,1.98c0,0-0.38,1.34-0.4,2.22
		C112.274,30.085,112.715,31.845,112.715,31.845z M112.795,33.025c-0.301-0.52,0.06,0.76,0.3,0.66S113.935,35.006,112.795,33.025z
		 M118.096,24.744c0,0,0.18,1.98,1.08,2.34C119.656,27.284,117.936,24.664,118.096,24.744z"/>
	<path fill="#416B6D" d="M128.075,34.866l-0.36-1.32c-1.14,0.32-1.9,1.721-3.2,1.721c-1.7,0-3.061-1.42-3.061-3.161
		c0-3.161,3.32-3.841,5.761-4.501l0.5-0.14v-0.62c0-1.26-0.3-2.101-2.14-1.94c-2.061,0.18-2.621,2.16-3.301,1.38l-0.181-0.42
		c-0.479-0.24,1.841-2.28,3.521-2.28c1.5,0,3.24,1.2,3.34,3.721l0.24,4.921c0.021,0.28,0.181,2.5-0.22,2.521L128.075,34.866z
		 M122.354,34.226c0.119-0.28,0.159,0.64,0.159-0.24l-0.239-0.08C121.994,34.706,122.354,34.226,122.354,34.226z M127.615,28.604
		c0.14-1-5.102,1.36-5.102,3.341c0,0.92,1.121,1.84,2.061,1.84c1.24,0,3.301-1.22,3.141-1.8l-0.12-3.241L127.615,28.604z
		 M123.194,25.624c0.72,0.02,1.561-0.5,1.2-0.96S122.614,25.604,123.194,25.624z M127.875,27.544c0,0-0.439,1.72-0.2,2.08
		C127.976,30.065,127.715,27.464,127.875,27.544z M128.075,33.906c0,0-0.22,0.12,0,0.48
		C128.815,35.626,127.915,33.826,128.075,33.906z"/>
	<path fill="#416B6D" d="M134.034,19.123c-0.3,5.901,0.141,8.122,0.2,15.503c0,0.48-1.721,0.76-1.7,0.1
		c0.06-4.201-0.12-8.441-0.12-11.862c0-0.36-0.4-1.041-0.38-1.44c0-0.34,0.2-0.6,0.2-1c0.04-1.141,0.2,0.52,0.3-1.101
		C132.574,18.762,134.055,18.542,134.034,19.123z M132.634,22.023c0.2-0.9,0.5-1.3,0-1.3S132.534,22.503,132.634,22.023z
		 M133.055,26.744c-0.101,0.42-0.2-1.541-0.061-1.14c0.08,0.22,0.12,0.36,0.12,0.6C133.114,26.424,133.094,26.544,133.055,26.744z"
		/>
	<path fill="#416B6D" d="M139.774,19.123c-0.3,5.901,0.141,8.122,0.2,15.503c0,0.48-1.721,0.76-1.7,0.1
		c0.06-4.201-0.12-8.441-0.12-11.862c0-0.36-0.4-1.041-0.38-1.44c0-0.34,0.2-0.6,0.2-1c0.04-1.141,0.2,0.52,0.3-1.101
		C138.314,18.762,139.795,18.542,139.774,19.123z M138.374,22.023c0.2-0.9,0.5-1.3,0-1.3S138.274,22.503,138.374,22.023z
		 M138.795,26.744c-0.101,0.42-0.2-1.541-0.061-1.14c0.08,0.22,0.12,0.36,0.12,0.6C138.854,26.424,138.834,26.544,138.795,26.744z"
		/>
	<path fill="#416B6D" d="M149.895,27.084c-0.14,0.6-0.46,1.32-0.7,2.021c-1.42,4.101-3.36,8.722-5.921,9.662
		c-0.42,0.16-1.721,0.18-1.7-0.32l-0.021-0.581c0.16-0.6,0.761-0.4,1.061-0.28c1.74,0.72,3.741-1.601,3.341-2.841l-3.521-9.722
		c0,0,1.06-1.681,1.4-1.081c0.159,0.28,0.06,0.8,0.06,0.8s2.261,8.562,2.78,9.042c0.58,0.54,0.221-0.34,0.221-0.34
		s0.8-3.121,1.44-5.081c0.34-1.04,0.359-1.64,0.739-2.76c0.101-0.32,0.221-0.38,0.221-0.38s0.56-0.44,0.9-0.32
		C150.755,25.104,150.495,25.324,149.895,27.084z M149.475,29.825c0.181-0.02,0.061,1.02,0.4,0.88
		C150.215,30.565,148.955,29.885,149.475,29.825z"/>
</g>
</svg>
