<?xml version="1.0" encoding="utf-8"?>
<!-- Generator: Adobe Illustrator 16.0.0, SVG Export Plug-In . SVG Version: 6.00 Build 0)  -->
<!DOCTYPE svg PUBLIC "-//W3C//DTD SVG 1.1//EN" "http://www.w3.org/Graphics/SVG/1.1/DTD/svg11.dtd">
<svg version="1.1" id="Layer_1" xmlns="http://www.w3.org/2000/svg" xmlns:xlink="http://www.w3.org/1999/xlink" x="0px" y="0px"
	 width="630px" height="195.4px" viewBox="0 0 630 195.4" enable-background="new 0 0 630 195.4" xml:space="preserve">
<path opacity="0.5" fill="none" stroke="#B5DC87" stroke-width="1.5276" stroke-linecap="round" stroke-miterlimit="10" enable-background="new    " d="
	M429.03,193.693c14.274-7.779,18.753-26.232,10.002-41.222c-7.002-11.99-21.938-16.669-33.355-10.445
	c-9.138,4.976-12.001,16.788-6.399,26.38c4.48,7.675,14.039,10.666,21.348,6.687c5.848-3.187,7.681-10.744,4.097-16.885
	c-2.869-4.91-8.983-6.827-13.662-4.277c-3.74,2.038-4.917,6.876-2.622,10.806c1.835,3.143,5.75,4.37,8.743,2.737"/>
<path opacity="0.5" fill="none" stroke="#73D100" stroke-width="1.2612" stroke-linecap="round" stroke-miterlimit="10" enable-background="new    " d="
	M429.03,193.693c16.17-1.69,32.546-35.453,25.405-72.87c-4.609-24.169-28.934-38.619-41.868-37.266
	c-10.349,1.083-17.534,10.882-16.054,21.891c1.188,8.807,8.857,15.246,17.136,14.381c6.623-0.693,11.223-6.964,10.273-14.01
	c-0.761-5.638-5.669-9.757-10.967-9.203c-4.238,0.44-7.183,4.457-6.573,8.965c0.484,3.607,3.626,6.246,7.019,5.891"/>
<circle opacity="0.5" fill="#E83658" stroke="#73D100" stroke-width="0.2104" stroke-miterlimit="10" enable-background="new    " cx="395.591" cy="119.307" r="1.401"/>
<circle fill="#E83658" stroke="#73D100" stroke-width="0.3017" stroke-miterlimit="10" cx="410.403" cy="95.028" r="2.773"/>
<circle opacity="0.5" fill="#E83658" stroke="#73D100" stroke-width="0.2772" stroke-miterlimit="10" enable-background="new    " cx="399.263" cy="98.578" r="1.845"/>
<circle opacity="0.5" fill="#E83658" stroke="#73D100" stroke-width="0.2772" stroke-miterlimit="10" enable-background="new    " cx="392.743" cy="110.705" r="1.846"/>
<path opacity="0.5" fill="none" stroke="#B5DC87" stroke-width="1.5276" stroke-linecap="round" stroke-miterlimit="10" enable-background="new    " d="
	M467.613,203.939c14.274-7.775,18.753-26.23,10-41.222c-7.001-11.988-21.937-16.667-33.354-10.442
	c-9.137,4.978-12.003,16.785-6.399,26.38c4.481,7.672,14.039,10.668,21.348,6.687c5.849-3.188,7.68-10.745,4.096-16.886
	c-2.868-4.912-8.984-6.825-13.663-4.278c-3.741,2.038-4.917,6.878-2.621,10.808c1.835,3.143,5.749,4.37,8.745,2.737"/>
<path opacity="0.5" fill="#B5DC87" enable-background="new    " d="M478.469,201.416l11.448-2.337c0,0,9.419-14.884,10.869-21.468
	c1.119-5.093-0.396-19.453-3.154-23.524c-4.479-6.613-9.247-11.001-16.68-15.497c-6.198-3.75-18.571-5.785-23.707-5.982
	c-6.855-0.266-18.355,4.24-23.694,7.481c-4.875,2.966-9.108,9.718-10.04,14.412c-0.807,4.068,3.102,10.982,3.102,10.982
	s-2.209-6.333-1.654-10.651c0.783-6.088,6.022-10.784,10.086-13.429c1.795-1.166,15.674-7.031,21.546-6.606
	c8.446,0.61,13.923,0.811,23.463,5.876c3.101,1.646,12.383,8.903,15.229,13.834c1.829,3.168,4.54,16.957,2.705,22.664
	C495.629,184.49,478.471,201.416,478.469,201.416z"/>
<path opacity="0.5" fill="none" stroke="#73D100" stroke-width="1.2612" stroke-linecap="round" stroke-miterlimit="10" enable-background="new    " d="
	M484.613,180.939c16.167-1.688,32.546-35.45,25.405-72.869c-4.61-24.169-28.938-38.618-41.869-37.264
	c-10.35,1.081-17.536,10.881-16.055,21.891c1.188,8.807,8.858,15.246,17.136,14.379c6.625-0.691,11.222-6.964,10.274-14.009
	c-0.76-5.638-5.67-9.759-10.967-9.205c-4.238,0.442-7.183,4.456-6.575,8.967c0.484,3.608,3.627,6.246,7.019,5.891"/>
<path fill="none" stroke="#B5DC87" stroke-width="1.5276" stroke-linecap="round" stroke-miterlimit="10" d="M581.251,179.802
	c-14.276-7.774-18.752-26.229-10-41.22c6.999-11.99,21.934-16.667,33.353-10.443c9.139,4.978,12.007,16.786,6.402,26.381
	c-4.48,7.673-14.039,10.667-21.349,6.686c-5.848-3.187-7.68-10.744-4.097-16.884c2.868-4.913,8.986-6.827,13.662-4.279
	c3.743,2.038,4.917,6.877,2.622,10.808c-1.836,3.143-5.75,4.368-8.745,2.735"/>
<path fill="#B5DC87" d="M570.395,177.278l-11.446-2.335c0,0-9.421-14.885-10.868-21.469c-1.12-5.095,0.394-19.453,3.151-23.524
	c4.48-6.615,9.247-11.002,16.68-15.497c6.198-3.75,18.574-5.786,23.71-5.981c6.854-0.265,18.354,4.239,23.691,7.482
	c4.875,2.964,9.111,9.715,10.041,14.413c0.806,4.068-3.101,10.981-3.101,10.981s2.21-6.333,1.653-10.652
	c-0.782-6.087-6.023-10.784-10.084-13.427c-1.796-1.167-15.675-7.031-21.549-6.607c-8.444,0.61-13.924,0.812-23.461,5.876
	c-3.1,1.646-12.386,8.904-15.229,13.833c-1.831,3.169-4.541,16.958-2.705,22.666C553.236,160.353,570.393,177.278,570.395,177.278z"
	/>
<path fill="none" stroke="#73D100" stroke-width="1.2612" stroke-linecap="round" stroke-miterlimit="10" d="M581.251,179.802
	c-16.169-1.688-32.546-35.447-25.405-72.867c4.609-24.168,28.937-38.617,41.867-37.265c10.35,1.081,17.536,10.882,16.055,21.891
	c-1.186,8.809-8.858,15.247-17.136,14.381c-6.623-0.691-11.222-6.964-10.272-14.009c0.758-5.64,5.669-9.76,10.967-9.204
	c4.235,0.44,7.183,4.457,6.576,8.967c-0.487,3.606-3.63,6.246-7.021,5.891"/>
<path fill="none" stroke="#B5DC87" stroke-width="1.5276" stroke-linecap="round" stroke-miterlimit="10" d="M542.671,190.052
	c-14.276-7.775-18.755-26.231-10.002-41.222c7.002-11.989,21.935-16.668,33.356-10.444c9.134,4.979,12.001,16.787,6.398,26.381
	c-4.48,7.674-14.04,10.668-21.347,6.687c-5.849-3.186-7.683-10.743-4.099-16.886c2.868-4.909,8.984-6.827,13.663-4.278
	c3.741,2.039,4.914,6.877,2.621,10.808c-1.835,3.144-5.751,4.368-8.743,2.737"/>
<path opacity="0.5" fill="#B5DC87" enable-background="new    " d="M531.812,187.527l-11.445-2.338c0,0-9.422-14.883-10.87-21.468
	c-1.12-5.093,0.395-19.452,3.154-23.522c4.479-6.616,9.247-11.003,16.68-15.499c6.195-3.748,18.571-5.785,23.709-5.983
	c6.854-0.264,18.354,4.243,23.688,7.486c4.881,2.964,9.114,9.715,10.044,14.411c0.805,4.068-3.102,10.98-3.102,10.98
	s2.21-6.331,1.654-10.653c-0.783-6.087-6.023-10.781-10.086-13.425c-1.795-1.167-15.673-7.034-21.544-6.609
	c-8.446,0.612-13.926,0.812-23.465,5.879c-3.098,1.646-12.384,8.901-15.229,13.831c-1.829,3.172-4.541,16.958-2.703,22.665
	C514.653,170.601,531.812,187.527,531.812,187.527z"/>
<path fill="none" stroke="#73D100" stroke-width="1.2612" stroke-linecap="round" stroke-miterlimit="10" d="M542.671,190.052
	c-16.171-1.688-32.546-35.451-25.408-72.869c4.61-24.168,28.938-38.619,41.871-37.264C569.48,81,576.667,90.798,575.186,101.81
	c-1.186,8.807-8.854,15.244-17.136,14.379c-6.623-0.692-11.222-6.964-10.272-14.008c0.762-5.639,5.669-9.759,10.968-9.205
	c4.239,0.441,7.181,4.458,6.574,8.965c-0.486,3.606-3.628,6.246-7.019,5.891"/>
<circle fill="#E83658" stroke="#73D100" stroke-width="0.2104" stroke-miterlimit="10" cx="452.277" cy="35.406" r="1.4"/>
<circle fill="#E83658" stroke="#73D100" stroke-width="0.3017" stroke-miterlimit="10" cx="569.085" cy="61.883" r="2.772"/>
<path fill="#E83658" stroke="#73D100" stroke-width="0.2772" stroke-miterlimit="10" d="M569.036,50.94
	c-0.349-0.958,0.147-2.016,1.106-2.362c0.957-0.35,2.018,0.147,2.362,1.104c0.351,0.959-0.146,2.019-1.104,2.363
	C570.442,52.393,569.384,51.899,569.036,50.94z"/>
<circle fill="#E83658" stroke="#73D100" stroke-width="0.2772" stroke-miterlimit="10" cx="443.323" cy="34" r="1.847"/>
<circle fill="#E83658" stroke="#73D100" stroke-width="0.2104" stroke-miterlimit="10" cx="500.814" cy="71.6" r="1.401"/>
<path fill="#E83658" stroke="#73D100" stroke-width="0.3017" stroke-miterlimit="10" d="M531.207,65.259
	c-0.19,1.52-1.58,2.595-3.097,2.401c-1.521-0.193-2.595-1.579-2.401-3.1c0.193-1.518,1.579-2.593,3.098-2.399
	C530.325,62.353,531.402,63.741,531.207,65.259z"/>
<circle fill="#E83658" stroke="#73D100" stroke-width="0.2772" stroke-miterlimit="10" cx="521.676" cy="74.434" r="1.845"/>
<circle fill="#E83658" stroke="#73D100" stroke-width="0.2772" stroke-miterlimit="10" cx="508.139" cy="76.939" r="1.846"/>
<circle fill="#E83658" stroke="#73D100" stroke-width="0.3017" stroke-miterlimit="10" cx="500.728" cy="48.634" r="2.772"/>
<path opacity="0.5" fill="none" stroke="#B5DC87" stroke-width="1.1694" stroke-linecap="round" stroke-miterlimit="10" enable-background="new    " d="
	M397.08,189.408c10.928-5.954,14.354-20.08,7.654-31.555c-5.357-9.18-16.791-12.758-25.531-7.994
	c-6.995,3.81-9.189,12.849-4.9,20.191c3.432,5.874,10.746,8.166,16.342,5.118c4.478-2.438,5.881-8.224,3.135-12.924
	c-2.193-3.761-6.877-5.227-10.459-3.276c-2.863,1.562-3.762,5.267-2.004,8.272c1.403,2.406,4.399,3.346,6.691,2.096"/>
<path opacity="0.5" fill="#B5DC87" enable-background="new    " d="M388.391,210.476l8.766-1.788c0,0,7.209-11.396,8.318-16.436
	c0.856-3.897-0.304-14.891-2.416-18.008c-3.427-5.062-7.076-8.421-12.767-11.862c-4.744-2.869-14.218-4.431-18.147-4.579
	c-5.248-0.202-14.053,3.245-18.138,5.729c-3.733,2.27-6.975,7.437-7.687,11.032c-0.618,3.115,2.371,8.407,2.371,8.407
	s-1.689-4.85-1.266-8.154c0.6-4.662,4.61-8.255,7.723-10.279c1.373-0.893,11.996-5.382,16.492-5.057
	c6.467,0.466,10.658,0.619,17.96,4.499c2.373,1.26,9.48,6.813,11.657,10.588c1.401,2.426,3.477,12.98,2.071,17.352
	C401.526,197.52,388.391,210.476,388.391,210.476z"/>
<path opacity="0.5" fill="none" stroke="#73D100" stroke-width="0.9655" stroke-linecap="round" stroke-miterlimit="10" enable-background="new    " d="
	M380.08,212.408c12.376-1.293,24.913-27.137,19.449-55.781c-3.53-18.502-22.151-29.561-32.053-28.525
	c-7.922,0.828-13.425,8.331-12.289,16.759c0.908,6.741,6.781,11.669,13.117,11.008c5.071-0.531,8.59-5.331,7.866-10.724
	c-0.584-4.317-4.341-7.472-8.396-7.046c-3.244,0.338-5.498,3.409-5.033,6.862c0.369,2.763,2.775,4.782,5.373,4.511"/>
<path opacity="0.5" fill="none" stroke="#B5DC87" stroke-width="1.1694" stroke-linecap="round" stroke-miterlimit="10" enable-background="new    " d="
	M454.056,205.485c-10.928-5.952-14.353-20.078-7.653-31.555c5.357-9.179,16.79-12.759,25.53-7.995
	c6.995,3.811,9.191,12.851,4.9,20.194c-3.429,5.873-10.746,8.166-16.342,5.118c-4.477-2.438-5.877-8.226-3.135-12.926
	c2.194-3.76,6.88-5.225,10.46-3.275c2.862,1.561,3.762,5.267,2.006,8.272c-1.406,2.405-4.402,3.345-6.694,2.097"/>
<path opacity="0.5" fill="#B5DC87" enable-background="new    " d="M445.745,203.552l-8.763-1.785c0,0-7.211-11.396-8.318-16.437
	c-0.857-3.896,0.301-14.892,2.413-18.007c3.429-5.062,7.077-8.422,12.768-11.862c4.744-2.873,14.22-4.431,18.149-4.58
	c5.246-0.202,14.052,3.246,18.137,5.729c3.731,2.267,6.976,7.437,7.686,11.032c0.617,3.112-2.372,8.404-2.372,8.404
	s1.69-4.847,1.267-8.151c-0.599-4.662-4.611-8.256-7.721-10.28c-1.374-0.892-11.997-5.383-16.495-5.057
	c-6.463,0.465-10.657,0.62-17.958,4.498c-2.373,1.262-9.481,6.815-11.658,10.589c-1.401,2.427-3.477,12.981-2.071,17.351
	C432.611,190.597,445.745,203.552,445.745,203.552z"/>
<path opacity="0.5" fill="none" stroke="#73D100" stroke-width="0.9655" stroke-linecap="round" stroke-miterlimit="10" enable-background="new    " d="
	M454.056,205.485c-12.374-1.293-24.913-27.137-19.445-55.781c3.526-18.5,22.147-29.562,32.049-28.524
	c7.924,0.827,13.426,8.329,12.291,16.755c-0.908,6.744-6.783,11.673-13.118,11.009c-5.071-0.529-8.59-5.331-7.864-10.725
	c0.581-4.317,4.339-7.47,8.396-7.046c3.244,0.34,5.498,3.413,5.035,6.865c-0.373,2.762-2.779,4.781-5.375,4.509"/>
<path opacity="0.5" fill="#B5DC87" enable-background="new    " d="M416.211,211.4l-8.761-1.79c0,0-7.214-11.395-8.322-16.436
	c-0.855-3.896,0.301-14.891,2.415-18.006c3.429-5.063,7.078-8.423,12.77-11.864c4.742-2.869,14.216-4.429,18.147-4.58
	c5.246-0.202,14.05,3.247,18.136,5.73c3.734,2.268,6.977,7.438,7.688,11.029c0.615,3.116-2.375,8.408-2.375,8.408
	s1.691-4.848,1.266-8.155c-0.598-4.661-4.609-8.254-7.72-10.276c-1.375-0.895-11.997-5.386-16.492-5.059
	c-6.466,0.466-10.66,0.621-17.961,4.498c-2.373,1.261-9.479,6.814-11.658,10.589c-1.399,2.428-3.477,12.981-2.069,17.349
	C403.077,198.441,416.211,211.4,416.211,211.4z"/>
<path opacity="0.5" fill="none" stroke="#73D100" stroke-width="0.9655" stroke-linecap="round" stroke-miterlimit="10" enable-background="new    " d="
	M424.524,213.331c-12.381-1.293-24.914-27.139-19.45-55.781c3.527-18.5,22.148-29.562,32.052-28.524
	c7.921,0.826,13.422,8.329,12.287,16.757c-0.908,6.741-6.779,11.669-13.117,11.007c-5.069-0.53-8.589-5.33-7.866-10.724
	c0.585-4.316,4.342-7.471,8.399-7.046c3.244,0.34,5.496,3.414,5.031,6.862c-0.372,2.763-2.777,4.782-5.371,4.51"/>
<circle fill="#E83658" stroke="#73D100" stroke-width="0.1611" stroke-miterlimit="10" cx="478.232" cy="84.054" r="1.072"/>
<circle fill="#E83658" stroke="#73D100" stroke-width="0.2309" stroke-miterlimit="10" cx="461.744" cy="98.27" r="2.123"/>
<circle fill="#E83658" stroke="#73D100" stroke-width="0.2122" stroke-miterlimit="10" cx="463.035" cy="89.412" r="1.413"/>
<path fill="#E83658" stroke="#73D100" stroke-width="0.2122" stroke-miterlimit="10" d="M470.051,83.458
	c-0.267-0.732,0.114-1.544,0.849-1.81c0.732-0.268,1.544,0.114,1.81,0.847c0.267,0.733-0.113,1.542-0.845,1.812
	C471.126,84.572,470.317,84.191,470.051,83.458z"/>
<circle opacity="0.5" fill="#E83658" stroke="#73D100" stroke-width="0.1611" stroke-miterlimit="10" enable-background="new    " cx="409.482" cy="105.708" r="1.072"/>
<path fill="#E83658" stroke="#73D100" stroke-width="0.2309" stroke-miterlimit="10" d="M432.748,100.854
	c-0.146,1.164-1.211,1.985-2.37,1.838c-1.164-0.147-1.986-1.208-1.837-2.373c0.146-1.162,1.208-1.984,2.37-1.835
	C432.074,98.629,432.898,99.692,432.748,100.854z"/>
<circle fill="#E83658" stroke="#73D100" stroke-width="0.2122" stroke-miterlimit="10" cx="425.452" cy="107.878" r="1.413"/>
<path fill="#E83658" stroke="#73D100" stroke-width="0.2122" stroke-miterlimit="10" d="M416.493,109.974
	c-0.101,0.771-0.809,1.321-1.583,1.224c-0.773-0.099-1.32-0.807-1.222-1.581c0.097-0.776,0.805-1.322,1.577-1.224
	C416.041,108.492,416.589,109.198,416.493,109.974z"/>
<circle fill="#E83658" stroke="#73D100" stroke-width="0.2309" stroke-miterlimit="10" cx="409.417" cy="88.128" r="2.122"/>
<path opacity="0.5" fill="none" stroke="#B5DC87" stroke-width="1.5276" stroke-linecap="round" stroke-miterlimit="10" enable-background="new    " d="
	M395.698,232.294c-14.274-7.777-18.753-26.23-10.002-41.221c7.002-11.99,21.938-16.668,33.354-10.446
	c9.139,4.978,12.001,16.788,6.4,26.381c-4.481,7.675-14.039,10.666-21.348,6.687c-5.848-3.188-7.682-10.744-4.098-16.884
	c2.871-4.911,8.985-6.827,13.663-4.279c3.74,2.04,4.916,6.876,2.621,10.806c-1.834,3.144-5.75,4.37-8.743,2.737"/>
<path opacity="0.5" fill="none" stroke="#73D100" stroke-width="1.2612" stroke-linecap="round" stroke-miterlimit="10" enable-background="new    " d="
	M412.698,209.294c-16.168-1.689-32.546-35.452-25.406-72.869c4.61-24.168,28.935-38.618,41.869-37.266
	c10.349,1.083,17.536,10.881,16.053,21.891c-1.187,8.808-8.856,15.246-17.135,14.383c-6.622-0.693-11.222-6.965-10.274-14.012
	c0.762-5.637,5.669-9.756,10.968-9.203c4.238,0.44,7.183,4.457,6.573,8.967c-0.483,3.606-3.627,6.246-7.018,5.89"/>
<path opacity="0.5" fill="none" stroke="#B5DC87" stroke-width="1.5276" stroke-linecap="round" stroke-miterlimit="10" enable-background="new    " d="
	M337.053,208.967c14.276-7.775,18.752-26.229,10-41.221c-7-11.99-21.935-16.666-33.354-10.443
	c-9.138,4.979-12.006,16.786-6.402,26.381c4.482,7.673,14.041,10.667,21.35,6.687c5.846-3.188,7.678-10.745,4.096-16.885
	c-2.868-4.912-8.985-6.827-13.663-4.278c-3.742,2.037-4.917,6.877-2.621,10.806c1.836,3.143,5.749,4.369,8.746,2.736"/>
<circle opacity="0.5" fill="#E83658" stroke="#73D100" stroke-width="0.2104" stroke-miterlimit="10" enable-background="new    " cx="357.914" cy="110.201" r="1.401"/>
<circle fill="#E83658" stroke="#73D100" stroke-width="0.2772" stroke-miterlimit="10" cx="350.589" cy="115.54" r="1.846"/>
<path opacity="0.5" fill="#B5DC87" enable-background="new    " d="M395.982,219.155l8.764-1.788c0,0,7.211-11.395,8.318-16.435
	c0.856-3.898-0.302-14.894-2.412-18.009c-3.431-5.062-7.077-8.421-12.769-11.861c-4.745-2.872-14.219-4.43-18.149-4.58
	c-5.246-0.202-14.051,3.246-18.135,5.729c-3.733,2.27-6.977,7.438-7.688,11.032c-0.617,3.113,2.372,8.405,2.372,8.405
	s-1.69-4.848-1.267-8.152c0.6-4.66,4.61-8.255,7.721-10.279c1.375-0.893,11.998-5.383,16.494-5.057
	c6.465,0.465,10.658,0.619,17.961,4.499c2.372,1.26,9.479,6.814,11.656,10.588c1.401,2.426,3.477,12.981,2.071,17.351
	C409.118,206.198,395.982,219.155,395.982,219.155z"/>
<path opacity="0.5" fill="none" stroke="#73D100" stroke-width="0.9655" stroke-linecap="round" stroke-miterlimit="10" enable-background="new    " d="
	M400.204,251.933c12.381-1.293,24.915-27.141,19.451-55.781c-3.529-18.5-22.15-29.563-32.053-28.525
	c-7.921,0.826-13.421,8.328-12.286,16.757c0.906,6.742,6.777,11.671,13.116,11.008c5.068-0.53,8.59-5.33,7.865-10.724
	c-0.585-4.314-4.341-7.47-8.397-7.047c-3.244,0.34-5.497,3.414-5.031,6.863c0.372,2.762,2.777,4.781,5.371,4.509"/>
<circle opacity="0.5" fill="#E83658" stroke="#73D100" stroke-width="0.1611" stroke-miterlimit="10" enable-background="new    " cx="380.497" cy="122.656" r="1.072"/>
<path fill="#E83658" stroke="#73D100" stroke-width="0.2309" stroke-miterlimit="10" d="M408.98,162.456
	c0.146,1.163,1.211,1.985,2.369,1.837c1.164-0.146,1.986-1.208,1.84-2.372c-0.147-1.162-1.209-1.983-2.37-1.835
	C409.654,160.23,408.83,161.294,408.98,162.456z"/>
<path opacity="0.5" fill="#E83658" stroke="#73D100" stroke-width="0.2122" stroke-miterlimit="10" enable-background="new    " d="
	M414.875,169.657c0.1,0.773,0.808,1.322,1.58,1.223c0.772-0.097,1.323-0.804,1.223-1.579c-0.096-0.772-0.803-1.321-1.576-1.223
	C415.325,168.177,414.776,168.882,414.875,169.657z"/>
<path opacity="0.5" fill="#E83658" stroke="#73D100" stroke-width="0.2122" stroke-miterlimit="10" enable-background="new    " d="
	M425.236,171.575c0.099,0.772,0.807,1.322,1.582,1.224c0.774-0.098,1.319-0.807,1.222-1.58c-0.096-0.776-0.804-1.321-1.578-1.225
	C425.688,170.093,425.14,170.8,425.236,171.575z"/>
<path fill="#E83658" stroke="#73D100" stroke-width="0.3017" stroke-miterlimit="10" d="M378.863,108.114
	c1.506-0.28,2.953,0.713,3.229,2.219c0.283,1.505-0.711,2.952-2.215,3.233c-1.506,0.28-2.953-0.713-3.235-2.218
	C376.363,109.843,377.357,108.395,378.863,108.114z"/>
<circle fill="#E83658" stroke="#73D100" stroke-width="0.2104" stroke-miterlimit="10" cx="606.943" cy="108.224" r="1.401"/>
<path fill="#E83658" stroke="#73D100" stroke-width="0.2772" stroke-miterlimit="10" d="M597.786,113.797
	c0.128,1.009,1.054,1.728,2.064,1.599c1.013-0.128,1.727-1.054,1.599-2.063c-0.126-1.013-1.051-1.728-2.062-1.6
	S597.659,112.784,597.786,113.797z"/>
<circle fill="#E83658" stroke="#73D100" stroke-width="0.3017" stroke-miterlimit="10" cx="607.029" cy="85.258" r="2.772"/>
<path opacity="0.5" fill="#B5DC87" enable-background="new    " d="M396.918,218.442l-8.762-1.789c0,0-7.214-11.395-8.321-16.433
	c-0.856-3.899,0.303-14.892,2.412-18.01c3.432-5.063,7.082-8.422,12.77-11.863c4.744-2.868,14.217-4.429,18.148-4.58
	c5.249-0.202,14.051,3.247,18.136,5.729c3.735,2.271,6.978,7.438,7.688,11.033c0.614,3.112-2.371,8.407-2.371,8.407
	s1.688-4.85,1.266-8.157c-0.601-4.66-4.612-8.252-7.723-10.276c-1.375-0.895-11.998-5.385-16.491-5.06
	c-6.466,0.469-10.659,0.621-17.961,4.502c-2.372,1.258-9.479,6.812-11.658,10.586c-1.397,2.428-3.478,12.981-2.07,17.352
	C383.781,205.485,396.916,218.442,396.918,218.442z"/>
<circle fill="#E83658" stroke="#73D100" stroke-width="0.2309" stroke-miterlimit="10" cx="432.502" cy="162.454" r="2.122"/>
<circle fill="#E83658" stroke="#73D100" stroke-width="0.2122" stroke-miterlimit="10" cx="441.031" cy="165.171" r="1.414"/>
<circle opacity="0.5" fill="#E83658" stroke="#73D100" stroke-width="0.1611" stroke-miterlimit="10" enable-background="new    " cx="380.292" cy="121.519" r="1.072"/>
<path opacity="0.5" fill="#E83658" stroke="#73D100" stroke-width="0.2122" stroke-miterlimit="10" enable-background="new    " d="
	M373.282,125.786c0.098,0.771,0.806,1.32,1.582,1.223c0.774-0.099,1.321-0.807,1.222-1.58c-0.096-0.775-0.805-1.322-1.579-1.224
	S373.186,125.009,373.282,125.786z"/>
<circle opacity="0.5" fill="#E83658" stroke="#73D100" stroke-width="0.2309" stroke-miterlimit="10" enable-background="new    " cx="380.359" cy="103.939" r="2.122"/>
<circle opacity="0.5" fill="#E83658" stroke="#73D100" stroke-width="0.2122" stroke-miterlimit="10" enable-background="new    " cx="400.714" cy="130.313" r="1.414"/>
<circle fill="#E83658" stroke="#73D100" stroke-width="0.2309" stroke-miterlimit="10" cx="619.797" cy="125.354" r="2.121"/>
<path opacity="0.5" fill="none" stroke="#73D100" stroke-width="1.4392" stroke-linecap="round" stroke-miterlimit="10" enable-background="new    " d="
	M51.995,143.393c18.449-1.93,37.138-40.455,28.99-83.149c-5.262-27.581-33.017-44.07-47.777-42.524
	C21.401,18.954,13.201,30.135,14.891,42.7c1.354,10.048,10.105,17.396,19.555,16.41c7.556-0.792,12.805-7.948,11.724-15.989
	c-0.868-6.432-6.472-11.133-12.515-10.5c-4.838,0.502-8.196,5.084-7.504,10.229c0.556,4.117,4.14,7.126,8.01,6.723"/>
<path opacity="0.5" fill="#B5DC87" enable-background="new    " d="M416.782,187.875l13.063-2.665c0,0,10.749-16.984,12.403-24.499
	c1.276-5.81-0.451-22.194-3.6-26.842c-5.11-7.548-10.554-12.553-19.033-17.684c-7.071-4.278-21.192-6.604-27.052-6.827
	c-7.824-0.301-20.945,4.839-27.039,8.539c-5.562,3.381-10.396,11.086-11.457,16.443c-0.92,4.645,3.537,12.532,3.537,12.532
	s-2.52-7.224-1.888-12.154c0.896-6.947,6.873-12.306,11.511-15.322c2.049-1.33,17.886-8.023,24.587-7.539
	c9.637,0.697,15.887,0.925,26.771,6.707c3.536,1.878,14.13,10.16,17.376,15.785c2.089,3.616,5.185,19.351,3.089,25.862
	C436.365,168.562,416.784,187.875,416.782,187.875z"/>
<path opacity="0.5" fill="none" stroke="#73D100" stroke-width="1.4392" stroke-linecap="round" stroke-miterlimit="10" enable-background="new    " d="
	M404.395,190.755c18.448-1.927,37.141-40.449,28.992-83.147c-5.262-27.581-33.021-44.067-47.776-42.524
	c-11.812,1.235-20.013,12.418-18.32,24.979c1.354,10.052,10.11,17.397,19.554,16.41c7.56-0.788,12.805-7.948,11.727-15.985
	c-0.867-6.436-6.471-11.137-12.514-10.504c-4.838,0.504-8.199,5.084-7.505,10.232c0.554,4.115,4.14,7.126,8.009,6.722"/>
<path opacity="0.5" fill="none" stroke="#B5DC87" stroke-width="1.7432" stroke-linecap="round" stroke-miterlimit="10" enable-background="new    " d="
	M531.669,157.438c-16.292-8.873-21.399-29.932-11.41-47.037c7.987-13.68,25.028-19.02,38.059-11.917
	c10.426,5.679,13.698,19.155,7.305,30.102c-5.112,8.755-16.021,12.173-24.359,7.629c-6.672-3.636-8.763-12.262-4.675-19.268
	c3.273-5.605,10.255-7.79,15.591-4.884c4.271,2.329,5.609,7.848,2.992,12.334c-2.097,3.586-6.562,4.985-9.979,3.123"/>
<path opacity="0.5" fill="#B5DC87" enable-background="new    " d="M519.279,154.557l-13.061-2.665c0,0-10.751-16.984-12.402-24.499
	c-1.278-5.811,0.448-22.196,3.598-26.843c5.113-7.548,10.55-12.553,19.032-17.683c7.071-4.279,21.193-6.603,27.055-6.827
	c7.819-0.301,20.944,4.837,27.034,8.539c5.562,3.381,10.396,11.086,11.457,16.444c0.922,4.644-3.538,12.533-3.538,12.533
	s2.521-7.228,1.889-12.154c-0.893-6.949-6.874-12.306-11.508-15.323c-2.048-1.33-17.886-8.022-24.588-7.539
	c-9.635,0.697-15.89,0.924-26.771,6.707c-3.536,1.878-14.132,10.16-17.379,15.784c-2.087,3.617-5.179,19.351-3.085,25.863
	C499.7,135.245,519.277,154.557,519.279,154.557z"/>
<path opacity="0.5" fill="none" stroke="#73D100" stroke-width="1.4392" stroke-linecap="round" stroke-miterlimit="10" enable-background="new    " d="
	M531.669,157.438c-18.449-1.928-37.137-40.452-28.989-83.149c5.26-27.582,33.019-44.066,47.772-42.522
	c11.811,1.232,20.012,12.417,18.319,24.979c-1.351,10.052-10.108,17.397-19.551,16.41c-7.56-0.788-12.807-7.949-11.726-15.985
	c0.867-6.435,6.469-11.137,12.515-10.503c4.835,0.503,8.194,5.083,7.504,10.233c-0.556,4.115-4.14,7.125-8.01,6.72"/>
<path opacity="0.5" fill="none" stroke="#B5DC87" stroke-width="1.7432" stroke-linecap="round" stroke-miterlimit="10" enable-background="new    " d="
	M487.646,169.134c-16.291-8.875-21.401-29.935-11.412-47.04c7.987-13.681,25.025-19.021,38.061-11.917
	c10.425,5.679,13.694,19.156,7.304,30.103c-5.114,8.757-16.02,12.174-24.359,7.63c-6.671-3.635-8.765-12.258-4.676-19.268
	c3.272-5.604,10.255-7.791,15.594-4.885c4.267,2.329,5.605,7.849,2.989,12.333c-2.095,3.586-6.562,4.985-9.979,3.125"/>
<path opacity="0.5" fill="none" stroke="#73D100" stroke-width="1.4392" stroke-linecap="round" stroke-miterlimit="10" enable-background="new    " d="
	M470.646,192.134c-18.451-1.929-37.138-40.454-28.994-83.152c5.262-27.578,33.021-44.068,47.779-42.521
	c11.807,1.231,20.008,12.414,18.315,24.979c-1.354,10.047-10.104,17.394-19.553,16.407c-7.558-0.789-12.806-7.946-11.725-15.985
	c0.871-6.433,6.468-11.135,12.517-10.503c4.838,0.504,8.193,5.088,7.502,10.23c-0.556,4.116-4.142,7.126-8.01,6.722"/>
<path opacity="0.5" fill="#E83658" stroke="#73D100" stroke-width="0.2401" stroke-miterlimit="10" enable-background="new    " d="
	M540.864,11.254c-0.305-0.83,0.128-1.75,0.955-2.048c0.834-0.302,1.747,0.127,2.05,0.958c0.302,0.832-0.129,1.747-0.96,2.048
	C542.08,12.514,541.164,12.084,540.864,11.254z"/>
<path opacity="0.5" fill="#E83658" stroke="#73D100" stroke-width="0.3443" stroke-miterlimit="10" enable-background="new    " d="
	M514.812,32.979c-0.598-1.644,0.253-3.458,1.896-4.053c1.643-0.595,3.455,0.254,4.051,1.896c0.597,1.643-0.255,3.456-1.895,4.049
	C517.219,35.467,515.406,34.621,514.812,32.979z"/>
<circle opacity="0.5" fill="#E83658" stroke="#73D100" stroke-width="0.3163" stroke-miterlimit="10" enable-background="new    " cx="519.71" cy="18.696" r="2.106"/>
<circle opacity="0.5" fill="#E83658" stroke="#73D100" stroke-width="0.3163" stroke-miterlimit="10" enable-background="new    " cx="532.151" cy="9.104" r="2.107"/>
<path opacity="0.5" fill="#E83658" stroke="#73D100" stroke-width="0.2401" stroke-miterlimit="10" enable-background="new    " d="
	M441.468,43.188c-0.108,0.878-0.91,1.498-1.783,1.386c-0.879-0.11-1.497-0.913-1.388-1.785c0.11-0.876,0.913-1.498,1.79-1.386
	C440.963,41.515,441.584,42.314,441.468,43.188z"/>
<circle opacity="0.5" fill="#E83658" stroke="#73D100" stroke-width="0.3443" stroke-miterlimit="10" enable-background="new    " cx="471.428" cy="35.355" r="3.162"/>
<path opacity="0.5" fill="#E83658" stroke="#73D100" stroke-width="0.3163" stroke-miterlimit="10" enable-background="new    " d="
	M465.778,46.488c-0.149,1.154-1.203,1.972-2.355,1.825c-1.154-0.146-1.974-1.2-1.824-2.354c0.146-1.153,1.198-1.969,2.354-1.826
	C465.106,44.281,465.924,45.333,465.778,46.488z"/>
<path opacity="0.5" fill="#E83658" stroke="#73D100" stroke-width="0.3163" stroke-miterlimit="10" enable-background="new    " d="
	M450.331,49.348c-0.146,1.149-1.203,1.971-2.357,1.821c-1.152-0.145-1.968-1.201-1.822-2.354c0.146-1.154,1.199-1.969,2.354-1.826
	C449.66,47.138,450.478,48.19,450.331,49.348z"/>
<circle opacity="0.5" fill="#E83658" stroke="#73D100" stroke-width="0.3443" stroke-miterlimit="10" enable-background="new    " cx="439.785" cy="16.782" r="3.163"/>
<path opacity="0.5" fill="none" stroke="#73D100" stroke-width="1.1017" stroke-linecap="round" stroke-miterlimit="10" enable-background="new    " d="
	M405.925,169.52c-14.118-1.476-28.428-30.967-22.188-63.651c4.025-21.111,25.273-33.733,36.57-32.548
	c9.04,0.943,15.319,9.503,14.024,19.117c-1.035,7.694-7.74,13.318-14.969,12.562c-5.788-0.602-9.804-6.083-8.976-12.236
	c0.664-4.926,4.951-8.523,9.579-8.041c3.702,0.388,6.274,3.896,5.746,7.834c-0.425,3.151-3.172,5.457-6.134,5.144"/>
<path opacity="0.5" fill="none" stroke="#73D100" stroke-width="1.1017" stroke-linecap="round" stroke-miterlimit="10" enable-background="new    " d="
	M372.229,178.473c-14.127-1.478-28.432-30.969-22.193-63.653c4.025-21.109,25.273-33.733,36.572-32.548
	c9.039,0.941,15.314,9.504,14.021,19.121c-1.036,7.692-7.736,13.315-14.969,12.559c-5.782-0.604-9.801-6.082-8.975-12.236
	c0.668-4.924,4.951-8.522,9.582-8.042c3.701,0.392,6.272,3.897,5.742,7.833c-0.425,3.151-3.17,5.454-6.131,5.146"/>
<circle opacity="0.5" fill="#E83658" stroke="#73D100" stroke-width="0.1838" stroke-miterlimit="10" enable-background="new    " cx="414.115" cy="57.199" r="1.224"/>
<path opacity="0.5" fill="#E83658" stroke="#73D100" stroke-width="0.2635" stroke-miterlimit="10" enable-background="new    " d="
	M393.021,74.248c-0.455-1.256,0.193-2.646,1.451-3.104c1.258-0.456,2.646,0.194,3.104,1.452c0.455,1.256-0.197,2.646-1.451,3.102
	C394.865,76.153,393.479,75.504,393.021,74.248z"/>
<path opacity="0.5" fill="#E83658" stroke="#73D100" stroke-width="0.2421" stroke-miterlimit="10" enable-background="new    " d="
	M395.258,63.862c-0.306-0.835,0.127-1.758,0.967-2.062c0.839-0.307,1.763,0.128,2.063,0.964c0.305,0.838-0.128,1.762-0.966,2.066
	C396.487,65.132,395.559,64.7,395.258,63.862z"/>
<path opacity="0.5" fill="#E83658" stroke="#73D100" stroke-width="0.2421" stroke-miterlimit="10" enable-background="new    " d="
	M404.778,56.52c-0.303-0.838,0.13-1.761,0.967-2.065c0.838-0.305,1.763,0.129,2.064,0.967c0.307,0.835-0.129,1.759-0.964,2.065
	C406.006,57.79,405.081,57.358,404.778,56.52z"/>
<path opacity="0.5" fill="#E83658" stroke="#73D100" stroke-width="0.2635" stroke-miterlimit="10" enable-background="new    " d="
	M362.212,76.371c-0.165,1.328-1.38,2.268-2.703,2.097c-1.327-0.168-2.266-1.378-2.098-2.707c0.167-1.324,1.38-2.264,2.705-2.094
	C361.443,73.831,362.384,75.045,362.212,76.371z"/>
<circle opacity="0.5" fill="#E83658" stroke="#73D100" stroke-width="0.2635" stroke-miterlimit="10" enable-background="new    " cx="335.588" cy="61.849" r="2.421"/>
<path opacity="0.7" fill="none" stroke="#B5DC87" stroke-width="1.5276" stroke-linecap="round" stroke-miterlimit="10" enable-background="new    " d="
	M248.937,182.07c-14.275-7.779-18.753-26.232-10.003-41.223c7.004-11.988,21.938-16.668,33.357-10.443
	c9.137,4.975,12.001,16.787,6.4,26.38c-4.482,7.674-14.041,10.665-21.347,6.687c-5.85-3.187-7.684-10.746-4.1-16.886
	c2.871-4.909,8.985-6.827,13.664-4.278c3.74,2.04,4.916,6.877,2.622,10.808c-1.834,3.142-5.75,4.369-8.745,2.735"/>
<g>
	<circle fill="#E83658" stroke="#73D100" stroke-width="0.3017" stroke-miterlimit="10" cx="237.234" cy="134.32" r="2.773"/>
	<path fill="#E83658" stroke="#73D100" stroke-width="0.2772" stroke-miterlimit="10" d="M248.037,136.055
		c1.001-0.188,1.965,0.476,2.149,1.478c0.19,1.003-0.471,1.967-1.475,2.151c-1.001,0.188-1.965-0.476-2.152-1.477
		S247.033,136.243,248.037,136.055z"/>
</g>
<path fill="none" stroke="#B5DC87" stroke-width="1.5276" stroke-linecap="round" stroke-miterlimit="10" d="M182.407,196.211
	c-14.275-7.776-18.753-26.23-10-41.222c7.001-11.989,21.937-16.667,33.354-10.443c9.138,4.978,12.004,16.785,6.4,26.381
	c-4.481,7.672-14.038,10.667-21.347,6.686c-5.849-3.187-7.681-10.745-4.097-16.885c2.868-4.912,8.985-6.826,13.663-4.278
	c3.742,2.038,4.917,6.877,2.622,10.808c-1.836,3.143-5.75,4.37-8.746,2.736"/>
<path fill="#B5DC87" d="M139.926,206.919l-11.449-2.335c0,0-9.42-14.886-10.868-21.469c-1.119-5.095,0.396-19.452,3.153-23.523
	c4.479-6.614,9.247-11.002,16.68-15.497c6.198-3.75,18.572-5.786,23.708-5.981c6.856-0.265,18.354,4.238,23.693,7.481
	c4.875,2.965,9.109,9.717,10.04,14.411c0.808,4.069-3.099,10.983-3.099,10.983s2.206-6.333,1.653-10.652
	c-0.784-6.087-6.023-10.783-10.086-13.428c-1.796-1.166-15.676-7.031-21.547-6.606c-8.445,0.61-13.924,0.812-23.461,5.877
	c-3.101,1.646-12.384,8.903-15.229,13.832c-1.83,3.17-4.542,16.959-2.707,22.666C122.766,189.994,139.925,206.919,139.926,206.919z"
	/>
<path fill="none" stroke="#B5DC87" stroke-width="1.5276" stroke-linecap="round" stroke-miterlimit="10" d="M51.425,205.853
	c14.276-7.774,18.753-26.229,10-41.221c-6.999-11.989-21.934-16.667-33.352-10.443c-9.137,4.979-12.004,16.785-6.402,26.38
	c4.482,7.673,14.039,10.669,21.35,6.688c5.845-3.188,7.676-10.744,4.095-16.885c-2.868-4.912-8.986-6.826-13.664-4.279
	c-3.742,2.039-4.916,6.877-2.62,10.807c1.835,3.144,5.749,4.37,8.745,2.737"/>
<path opacity="0.7" fill="none" stroke="#73D100" stroke-width="1.2612" stroke-linecap="round" stroke-miterlimit="10" enable-background="new    " d="
	M54.143,192.71c16.169-1.688,32.545-35.45,25.406-72.868C74.94,95.674,50.613,81.225,37.681,82.578
	c-10.349,1.081-17.538,10.882-16.054,21.889c1.185,8.81,8.859,15.249,17.135,14.383c6.624-0.691,11.222-6.965,10.273-14.01
	c-0.759-5.64-5.668-9.758-10.967-9.205c-4.237,0.442-7.182,4.457-6.575,8.969c0.486,3.605,3.628,6.246,7.02,5.89"/>
<path fill="none" stroke="#B5DC87" stroke-width="1.5276" stroke-linecap="round" stroke-miterlimit="10" d="M92.724,202.96
	c14.276-7.776,18.754-26.231,10.002-41.222c-7.003-11.99-21.934-16.668-33.355-10.446c-9.136,4.979-12.001,16.789-6.4,26.382
	c4.48,7.675,14.038,10.667,21.347,6.686c5.848-3.186,7.682-10.742,4.099-16.884c-2.87-4.911-8.986-6.827-13.665-4.279
	c-3.74,2.04-4.914,6.878-2.62,10.808c1.835,3.145,5.752,4.368,8.742,2.738"/>
<path fill="#B5DC87" d="M187.115,177.803l11.446-2.337c0,0,9.422-14.884,10.869-21.47c1.12-5.092-0.393-19.451-3.153-23.521
	c-4.479-6.615-9.247-11.003-16.68-15.498c-6.196-3.749-18.571-5.785-23.709-5.983c-6.854-0.265-18.354,4.242-23.69,7.486
	c-4.879,2.963-9.114,9.715-10.043,14.411c-0.804,4.067,3.101,10.98,3.101,10.98s-2.211-6.333-1.654-10.653
	c0.784-6.087,6.024-10.781,10.087-13.426c1.795-1.168,15.671-7.033,21.543-6.608c8.446,0.611,13.926,0.812,23.465,5.88
	c3.098,1.646,12.383,8.901,15.229,13.83c1.829,3.171,4.542,16.959,2.703,22.666C204.273,160.876,187.115,177.803,187.115,177.803z"
	/>
<path opacity="0.8" fill="none" stroke="#73D100" stroke-width="1.2612" stroke-linecap="round" stroke-miterlimit="10" enable-background="new    " d="
	M92.724,202.96c16.171-1.688,32.545-35.452,25.407-72.87c-4.611-24.168-28.936-38.617-41.871-37.264
	c-10.346,1.081-17.534,10.88-16.05,21.891c1.185,8.809,8.854,15.245,17.134,14.38c6.622-0.693,11.223-6.965,10.274-14.01
	c-0.762-5.637-5.669-9.759-10.969-9.204c-4.238,0.441-7.181,4.458-6.574,8.965c0.487,3.607,3.629,6.246,7.019,5.891"/>
<path opacity="0.9" fill="#E83658" stroke="#73D100" stroke-width="0.3017" stroke-miterlimit="10" enable-background="new    " d="
	M68.916,75.735c0.522-1.439-0.223-3.03-1.662-3.551c-1.439-0.521-3.028,0.223-3.552,1.662c-0.521,1.439,0.225,3.027,1.661,3.549
	C66.807,77.916,68.395,77.175,68.916,75.735z"/>
<path opacity="0.9" fill="#E83658" stroke="#73D100" stroke-width="0.2772" stroke-miterlimit="10" enable-background="new    " d="
	M66.358,63.848c0.347-0.958-0.148-2.016-1.108-2.362c-0.957-0.351-2.017,0.146-2.361,1.104c-0.351,0.959,0.146,2.02,1.104,2.365
	S66.012,64.807,66.358,63.848z"/>
<circle fill="#E83658" stroke="#73D100" stroke-width="0.3017" stroke-miterlimit="10" cx="9.935" cy="103.818" r="2.772"/>
<circle opacity="0.9" fill="#E83658" stroke="#73D100" stroke-width="0.3017" stroke-miterlimit="10" enable-background="new    " cx="134.667" cy="61.541" r="2.773"/>
<path opacity="0.5" fill="none" stroke="#B5DC87" stroke-width="1.1694" stroke-linecap="round" stroke-miterlimit="10" enable-background="new    " d="
	M327.424,192.94c-10.929-5.952-14.355-20.078-7.658-31.555c5.36-9.179,16.793-12.76,25.535-7.996
	c6.994,3.81,9.187,12.852,4.898,20.195c-3.43,5.873-10.746,8.164-16.339,5.116c-4.479-2.438-5.882-8.225-3.14-12.924
	c2.199-3.761,6.879-5.228,10.459-3.275c2.864,1.562,3.765,5.263,2.008,8.272c-1.402,2.404-4.401,3.345-6.694,2.095"/>
<path opacity="0.7" fill="#B5DC87" enable-background="new    " d="M319.111,191.007l-8.762-1.788c0,0-7.213-11.394-8.321-16.434
	c-0.856-3.899,0.304-14.892,2.413-18.007c3.432-5.064,7.081-8.424,12.77-11.865c4.744-2.868,14.215-4.428,18.148-4.58
	c5.248-0.203,14.051,3.247,18.136,5.73c3.733,2.271,6.978,7.437,7.688,11.032c0.615,3.113-2.373,8.406-2.373,8.406
	s1.689-4.848,1.267-8.156c-0.601-4.661-4.61-8.253-7.722-10.276c-1.374-0.895-11.998-5.384-16.491-5.061
	c-6.466,0.47-10.659,0.623-17.961,4.501c-2.374,1.26-9.479,6.814-11.658,10.588c-1.4,2.429-3.478,12.981-2.07,17.353
	C305.975,178.051,319.11,191.007,319.111,191.007z"/>
<path opacity="0.5" fill="none" stroke="#B5DC87" stroke-width="1.1694" stroke-linecap="round" stroke-miterlimit="10" enable-background="new    " d="
	M297.888,200.785c-10.929-5.954-14.357-20.081-7.655-31.556c5.358-9.181,16.79-12.758,25.53-7.994
	c6.996,3.811,9.189,12.849,4.9,20.191c-3.432,5.875-10.746,8.167-16.343,5.119c-4.475-2.438-5.878-8.224-3.133-12.924
	c2.193-3.762,6.876-5.228,10.459-3.276c2.864,1.562,3.761,5.266,2.005,8.272c-1.405,2.406-4.4,3.346-6.693,2.096"/>
<path opacity="0.5" fill="#B5DC87" enable-background="new    " d="M289.577,198.851l-8.765-1.786c0,0-7.209-11.396-8.317-16.436
	c-0.858-3.898,0.303-14.891,2.414-18.009c3.428-5.062,7.078-8.42,12.767-11.862c4.745-2.87,14.218-4.43,18.148-4.58
	c5.249-0.202,14.052,3.247,18.139,5.729c3.731,2.27,6.973,7.438,7.685,11.032c0.618,3.115-2.371,8.407-2.371,8.407
	s1.69-4.849,1.266-8.154c-0.6-4.661-4.61-8.254-7.723-10.278c-1.371-0.894-11.996-5.382-16.491-5.059
	c-6.466,0.468-10.659,0.619-17.96,4.5c-2.374,1.261-9.481,6.814-11.658,10.589c-1.4,2.426-3.476,12.98-2.071,17.352
	C276.441,185.896,289.577,198.851,289.577,198.851z"/>
<path fill="#B5DC87" d="M204.275,195.823l8.763-1.786c0,0,7.211-11.396,8.318-16.436c0.857-3.899-0.301-14.892-2.412-18.008
	c-3.431-5.063-7.078-8.421-12.767-11.862c-4.745-2.872-14.22-4.43-18.151-4.58c-5.246-0.203-14.052,3.247-18.135,5.729
	c-3.733,2.268-6.977,7.438-7.687,11.031c-0.617,3.113,2.372,8.406,2.372,8.406s-1.691-4.847-1.267-8.152
	c0.599-4.661,4.611-8.256,7.722-10.28c1.373-0.892,11.996-5.383,16.494-5.058c6.464,0.467,10.658,0.62,17.96,4.499
	c2.371,1.262,9.48,6.816,11.658,10.59c1.399,2.427,3.476,12.981,2.07,17.35C217.41,182.867,204.275,195.823,204.275,195.823z"/>
<path fill="none" stroke="#73D100" stroke-width="0.9655" stroke-linecap="round" stroke-miterlimit="10" d="M195.965,208.66
	c12.376-1.292,24.914-27.138,19.447-55.781c-3.527-18.5-22.15-29.562-32.049-28.524c-7.923,0.828-13.427,8.33-12.291,16.755
	c0.906,6.744,6.782,11.675,13.117,11.011c5.072-0.529,8.591-5.331,7.864-10.725c-0.581-4.317-4.339-7.47-8.394-7.046
	c-3.244,0.339-5.498,3.413-5.035,6.865c0.372,2.762,2.779,4.78,5.375,4.509"/>
<path opacity="0.7" fill="none" stroke="#B5DC87" stroke-width="1.1694" stroke-linecap="round" stroke-miterlimit="10" enable-background="new    " d="
	M225.498,205.6c10.93-5.951,14.357-20.08,7.657-31.554c-5.36-9.18-16.79-12.761-25.534-7.997c-6.993,3.81-9.187,12.853-4.9,20.193
	c3.432,5.875,10.749,8.167,16.342,5.119c4.477-2.438,5.879-8.225,3.14-12.927c-2.199-3.758-6.882-5.225-10.461-3.274
	c-2.865,1.562-3.763,5.267-2.008,8.272c1.404,2.406,4.403,3.345,6.693,2.096"/>
<path opacity="0.7" fill="#B5DC87" enable-background="new    " d="M233.812,203.67l8.76-1.789c0,0,7.215-11.395,8.323-16.435
	c0.856-3.896-0.302-14.891-2.415-18.007c-3.43-5.063-7.079-8.423-12.771-11.864c-4.741-2.869-14.214-4.428-18.148-4.58
	c-5.245-0.201-14.048,3.246-18.135,5.73c-3.734,2.268-6.976,7.438-7.688,11.03c-0.615,3.114,2.375,8.407,2.375,8.407
	s-1.693-4.847-1.267-8.154c0.599-4.661,4.611-8.255,7.72-10.278c1.375-0.893,11.999-5.384,16.493-5.059
	c6.466,0.468,10.659,0.622,17.961,4.5c2.372,1.26,9.479,6.813,11.658,10.589c1.399,2.428,3.477,12.979,2.068,17.349
	C246.943,190.711,233.812,203.67,233.812,203.67z"/>
<path fill="#E83658" stroke="#73D100" stroke-width="0.2104" stroke-miterlimit="10" d="M365.975,53.671
	c-0.267-0.728,0.112-1.531,0.838-1.795c0.729-0.264,1.53,0.112,1.795,0.84c0.265,0.729-0.111,1.53-0.84,1.795
	C367.04,54.776,366.236,54.399,365.975,53.671z"/>
<path fill="#E83658" stroke="#73D100" stroke-width="0.2772" stroke-miterlimit="10" d="M345.701,60.822
	c-0.348-0.958,0.148-2.015,1.107-2.362c0.957-0.35,2.018,0.146,2.361,1.104c0.35,0.959-0.146,2.019-1.104,2.365
	C347.107,62.275,346.048,61.781,345.701,60.822z"/>
<circle fill="#E83658" stroke="#73D100" stroke-width="0.2772" stroke-miterlimit="10" cx="358.337" cy="51.787" r="1.846"/>
<circle fill="#E83658" stroke="#73D100" stroke-width="0.2104" stroke-miterlimit="10" cx="595.463" cy="102.296" r="1.401"/>
<circle fill="#E83658" stroke="#73D100" stroke-width="0.2772" stroke-miterlimit="10" cx="616.324" cy="105.13" r="1.846"/>
<path fill="#E83658" stroke="#73D100" stroke-width="0.2772" stroke-miterlimit="10" d="M604.619,107.868
	c-0.128,1.009-1.054,1.729-2.065,1.598c-1.012-0.127-1.726-1.051-1.598-2.062c0.128-1.014,1.051-1.729,2.062-1.601
	C604.031,105.932,604.747,106.854,604.619,107.868z"/>
<circle opacity="0.5" fill="#E83658" stroke="#73D100" stroke-width="0.2309" stroke-miterlimit="10" enable-background="new    " cx="417.92" cy="177.338" r="2.122"/>
<circle opacity="0.5" fill="#E83658" stroke="#73D100" stroke-width="0.2122" stroke-miterlimit="10" enable-background="new    " cx="409.392" cy="180.056" r="1.413"/>
<circle fill="#E83658" stroke="#73D100" stroke-width="0.2104" stroke-miterlimit="10" cx="436.246" cy="72.03" r="1.4"/>
<circle fill="#E83658" stroke="#73D100" stroke-width="0.3017" stroke-miterlimit="10" cx="414.705" cy="90.602" r="2.772"/>
<path opacity="0.7" fill="#B5DC87" enable-background="new    " d="M281.05,206.82l8.763-1.79c0,0,7.213-11.395,8.321-16.434
	c0.856-3.897-0.303-14.89-2.413-18.008c-3.431-5.063-7.08-8.423-12.77-11.864c-4.744-2.867-14.214-4.428-18.148-4.58
	c-5.248-0.201-14.052,3.246-18.135,5.73c-3.735,2.27-6.978,7.438-7.688,11.032c-0.617,3.112,2.371,8.408,2.371,8.408
	s-1.69-4.85-1.266-8.157c0.601-4.661,4.61-8.254,7.723-10.278c1.374-0.893,11.996-5.383,16.49-5.058
	c6.466,0.469,10.66,0.621,17.961,4.501c2.373,1.258,9.479,6.812,11.658,10.587c1.4,2.428,3.479,12.979,2.071,17.351
	C294.186,193.862,281.052,206.82,281.05,206.82z"/>
<path opacity="0.5" fill="none" stroke="#73D100" stroke-width="0.9655" stroke-linecap="round" stroke-miterlimit="10" enable-background="new    " d="
	M302.274,216.597c12.375-1.295,24.911-27.139,19.448-55.782c-3.529-18.503-22.151-29.562-32.051-28.525
	c-7.923,0.827-13.426,8.33-12.291,16.758c0.909,6.741,6.783,11.67,13.118,11.008c5.071-0.529,8.59-5.331,7.866-10.724
	c-0.583-4.317-4.341-7.472-8.396-7.047c-3.244,0.338-5.498,3.41-5.033,6.863c0.371,2.763,2.777,4.781,5.374,4.511"/>
<path opacity="0.7" fill="none" stroke="#73D100" stroke-width="1.4392" stroke-linecap="round" stroke-miterlimit="10" enable-background="new    " d="
	M-53.831,238.103c-18.449-1.93-37.138-40.455-28.989-83.148c5.263-27.583,33.016-44.071,47.778-42.526
	c11.806,1.234,20.006,12.416,18.315,24.98c-1.354,10.048-10.106,17.396-19.555,16.411c-7.556-0.793-12.804-7.949-11.724-15.991
	c0.868-6.43,6.469-11.131,12.516-10.498c4.837,0.5,8.195,5.082,7.502,10.229c-0.553,4.116-4.139,7.126-8.008,6.724"/>
<path fill="none" stroke="#B5DC87" stroke-width="1.7432" stroke-linecap="round" stroke-miterlimit="10" d="M103.725,170.345
	c16.292-8.873,21.398-29.932,11.412-47.036c-7.988-13.682-25.03-19.021-38.059-11.917c-10.427,5.679-13.7,19.154-7.307,30.103
	c5.113,8.755,16.021,12.173,24.36,7.629c6.673-3.636,8.763-12.262,4.675-19.268c-3.273-5.605-10.254-7.791-15.591-4.883
	c-4.271,2.326-5.609,7.847-2.992,12.332c2.096,3.586,6.563,4.984,9.981,3.122"/>
<g opacity="0.7" enable-background="new    ">
	<path fill="none" stroke="#73D100" stroke-width="1.4392" stroke-linecap="round" stroke-miterlimit="10" d="M27.294,146.006
		l2.351-0.479c0,0,1.935-3.058,2.232-4.41c0.23-1.047-0.081-3.994-0.647-4.831c-0.92-1.357-1.899-2.259-3.426-3.182
		c-1.272-0.771-3.814-1.189-4.869-1.23c-1.408-0.054-3.77,0.872-4.866,1.538c-1.001,0.608-1.871,1.995-2.062,2.959
		c-0.166,0.836,0.637,2.256,0.637,2.256s-0.454-1.3-0.34-2.188c0.161-1.251,1.237-2.214,2.071-2.758
		c0.368-0.239,3.219-1.444,4.425-1.356c1.734,0.126,2.859,0.166,4.818,1.206c0.637,0.339,2.543,1.83,3.128,2.843
		c0.376,0.65,0.933,3.481,0.556,4.654C30.817,142.529,27.294,146.006,27.294,146.006z"/>
	
		<path opacity="0.8" fill="none" stroke="#73D100" stroke-width="1.4392" stroke-linecap="round" stroke-miterlimit="10" enable-background="new    " d="
		M26.871,145.903l3.869-0.779c0,0,3.196-5.021,3.691-7.244c0.383-1.719-0.117-6.571-1.045-7.951
		c-1.508-2.237-3.114-3.724-5.622-5.249c-2.09-1.272-6.27-1.972-8.005-2.042c-2.315-0.095-6.205,1.416-8.011,2.508
		c-1.649,0.997-3.086,3.275-3.404,4.86c-0.276,1.375,1.038,3.713,1.038,3.713s-0.741-2.141-0.55-3.599
		c0.27-2.058,2.044-3.64,3.419-4.529c0.607-0.392,5.301-2.361,7.286-2.213c2.853,0.214,4.704,0.285,7.922,2.006
		c1.045,0.559,4.176,3.019,5.134,4.688c0.614,1.072,1.519,5.732,0.894,7.659C32.682,140.2,26.872,145.903,26.871,145.903z"/>
</g>
<path opacity="0.8" fill="none" stroke="#73D100" stroke-width="1.4392" stroke-linecap="round" stroke-miterlimit="10" enable-background="new    " d="
	M103.725,170.345c18.45-1.927,37.137-40.451,28.99-83.148c-5.259-27.581-33.018-44.068-47.773-42.524
	c-11.811,1.235-20.012,12.418-18.32,24.979c1.351,10.052,10.108,17.397,19.551,16.41c7.562-0.787,12.807-7.948,11.727-15.985
	c-0.868-6.435-6.471-11.137-12.516-10.503c-4.834,0.503-8.194,5.083-7.503,10.233c0.556,4.114,4.14,7.126,8.009,6.72"/>
<path opacity="0.5" fill="none" stroke="#B5DC87" stroke-width="1.7432" stroke-linecap="round" stroke-miterlimit="10" enable-background="new    " d="
	M147.748,182.041c16.292-8.875,21.401-29.934,11.414-47.039c-7.989-13.681-25.028-19.02-38.062-11.917
	c-10.425,5.679-13.693,19.155-7.304,30.102c5.114,8.757,16.021,12.174,24.36,7.63c6.671-3.635,8.765-12.258,4.676-19.27
	c-3.273-5.601-10.254-7.789-15.593-4.883c-4.268,2.33-5.607,7.85-2.99,12.334c2.095,3.586,6.562,4.985,9.978,3.124"/>
<path opacity="0.9" fill="#E83658" stroke="#73D100" stroke-width="0.2401" stroke-miterlimit="10" enable-background="new    " d="
	M94.53,24.161c0.303-0.83-0.128-1.749-0.956-2.048c-0.833-0.301-1.747,0.127-2.05,0.958c-0.3,0.834,0.129,1.749,0.96,2.049
	C93.313,25.422,94.23,24.993,94.53,24.161z"/>
<path opacity="0.9" fill="#E83658" stroke="#73D100" stroke-width="0.3443" stroke-miterlimit="10" enable-background="new    " d="
	M120.582,45.885c0.597-1.643-0.253-3.456-1.897-4.051c-1.643-0.595-3.454,0.25-4.051,1.896c-0.595,1.643,0.254,3.455,1.896,4.049
	C118.176,48.375,119.987,47.529,120.582,45.885z"/>
<circle opacity="0.9" fill="#E83658" stroke="#73D100" stroke-width="0.3163" stroke-miterlimit="10" enable-background="new    " cx="115.683" cy="31.604" r="2.106"/>
<path opacity="0.9" fill="#E83658" stroke="#73D100" stroke-width="0.3163" stroke-miterlimit="10" enable-background="new    " d="
	M105.225,22.731c0.395-1.097-0.17-2.303-1.265-2.698c-1.091-0.399-2.299,0.166-2.698,1.262c-0.396,1.094,0.171,2.299,1.263,2.698
	C103.621,24.389,104.829,23.823,105.225,22.731z"/>
<path opacity="0.9" fill="#E83658" stroke="#73D100" stroke-width="0.3443" stroke-miterlimit="10" enable-background="new    " d="
	M331.822,135.594c0.22,1.733,1.805,2.959,3.537,2.739c1.734-0.22,2.958-1.801,2.738-3.536c-0.222-1.731-1.801-2.959-3.533-2.737
	C332.83,132.275,331.602,133.861,331.822,135.594z"/>
</svg>
