<?xml version="1.0" encoding="utf-8"?>
<!-- Generator: Adobe Illustrator 16.0.0, SVG Export Plug-In . SVG Version: 6.00 Build 0)  -->
<!DOCTYPE svg PUBLIC "-//W3C//DTD SVG 1.1//EN" "http://www.w3.org/Graphics/SVG/1.1/DTD/svg11.dtd">
<svg version="1.1" id="Layer_1" xmlns="http://www.w3.org/2000/svg" xmlns:xlink="http://www.w3.org/1999/xlink" x="0px" y="0px"
	 width="486px" height="128.321px" viewBox="144.5 36.2 486 128.321" enable-background="new 144.5 36.2 486 128.321"
	 xml:space="preserve">
<path opacity="0.5" fill="none" stroke="#B5DC87" stroke-width="1.0542" stroke-linecap="round" stroke-miterlimit="10" enable-background="new    " d="
	M300.134,165.04c9.85-5.367,12.941-18.103,6.902-28.446c-4.832-8.275-15.14-11.505-23.019-7.21
	c-6.306,3.436-8.282,11.586-4.416,18.206c3.091,5.297,9.689,7.361,14.732,4.613c4.036-2.198,5.3-7.414,2.828-11.651
	c-1.979-3.388-6.199-4.712-9.428-2.951c-2.581,1.406-3.393,4.745-1.809,7.458c1.265,2.168,3.967,3.015,6.033,1.889"/>
<path opacity="0.5" fill="none" stroke="#73D100" stroke-width="0.8704" stroke-linecap="round" stroke-miterlimit="10" enable-background="new    " d="
	M300.134,165.04c11.158-1.166,22.459-24.466,17.53-50.287c-3.18-16.68-19.967-26.652-28.892-25.717
	c-7.142,0.748-12.101,7.509-11.079,15.106c0.82,6.078,6.112,10.522,11.826,9.924c4.57-0.478,7.745-4.805,7.088-9.668
	c-0.524-3.89-3.912-6.733-7.568-6.351c-2.925,0.304-4.957,3.076-4.536,6.187c0.334,2.489,2.503,4.311,4.844,4.066"/>
<circle opacity="0.5" fill="#E83658" stroke="#73D100" stroke-width="0.1452" stroke-miterlimit="10" enable-background="new    " cx="272.056" cy="113.706" r="0.967"/>
<circle fill="#E83658" stroke="#73D100" stroke-width="0.2082" stroke-miterlimit="10" cx="282.278" cy="96.95" r="1.913"/>
<circle opacity="0.5" fill="#E83658" stroke="#73D100" stroke-width="0.1913" stroke-miterlimit="10" enable-background="new    " cx="274.59" cy="99.401" r="1.273"/>
<circle opacity="0.5" fill="#E83658" stroke="#73D100" stroke-width="0.1913" stroke-miterlimit="10" enable-background="new    " cx="270.091" cy="107.77" r="1.274"/>
<path opacity="0.5" fill="none" stroke="#B5DC87" stroke-width="1.0542" stroke-linecap="round" stroke-miterlimit="10" enable-background="new    " d="
	M326.76,177.111c9.85-5.365,12.941-18.102,6.9-28.448c-4.831-8.271-15.139-11.501-23.018-7.206
	c-6.305,3.436-8.283,11.584-4.415,18.205c3.091,5.295,9.689,7.363,14.732,4.614c4.037-2.198,5.3-7.414,2.826-11.652
	c-1.979-3.39-6.199-4.71-9.429-2.953c-2.581,1.407-3.393,4.748-1.809,7.46c1.268,2.169,3.967,3.015,6.036,1.889"/>
<path opacity="0.5" fill="#B5DC87" enable-background="new    " d="M334.252,170.37l7.9-1.612c0,0,6.5-10.272,7.5-14.815
	c0.773-3.516-0.273-13.425-2.176-16.234c-3.092-4.562-6.383-7.593-11.511-10.694c-4.278-2.588-12.816-3.992-16.36-4.129
	c-4.732-0.184-12.668,2.926-16.352,5.163c-3.364,2.047-6.286,6.707-6.929,9.945c-0.557,2.808,2.141,7.579,2.141,7.579
	s-1.524-4.37-1.141-7.35c0.54-4.203,4.155-7.443,6.96-9.268c1.239-0.806,10.817-4.854,14.868-4.56
	c5.83,0.421,9.609,0.56,16.192,4.056c2.142,1.136,8.545,6.144,10.51,9.546c1.263,2.188,3.133,11.702,1.867,15.642
	C346.094,158.689,334.252,170.37,334.252,170.37z"/>
<path opacity="0.5" fill="none" stroke="#73D100" stroke-width="0.8704" stroke-linecap="round" stroke-miterlimit="10" enable-background="new    " d="
	M333.492,156.239c11.155-1.165,22.46-24.465,17.531-50.288c-3.181-16.679-19.97-26.65-28.894-25.716
	c-7.144,0.746-12.103,7.509-11.08,15.107c0.82,6.079,6.113,10.522,11.826,9.923c4.572-0.478,7.743-4.806,7.09-9.668
	c-0.525-3.891-3.913-6.735-7.568-6.352c-2.925,0.305-4.958,3.075-4.537,6.188c0.334,2.489,2.501,4.311,4.844,4.065"/>
<path fill="none" stroke="#B5DC87" stroke-width="1.0542" stroke-linecap="round" stroke-miterlimit="10" d="M400.182,155.454
	c-9.852-5.365-12.94-18.101-6.9-28.446c4.829-8.274,15.136-11.501,23.017-7.206c6.308,3.435,8.286,11.583,4.419,18.205
	c-3.092,5.295-9.689,7.361-14.733,4.614c-4.036-2.198-5.301-7.415-2.828-11.651c1.979-3.391,6.201-4.713,9.429-2.953
	c2.583,1.405,3.393,4.744,1.81,7.459c-1.269,2.168-3.969,3.013-6.035,1.887"/>
<path fill="#B5DC87" d="M392.689,164.521l-7.899-1.612c0,0-6.5-10.271-7.498-14.814c-0.773-3.518,0.271-13.426,2.174-16.235
	c3.092-4.564,6.381-7.593,11.512-10.694c4.276-2.589,12.817-3.993,16.361-4.127c4.73-0.184,12.666,2.924,16.351,5.162
	c3.364,2.045,6.286,6.705,6.929,9.946c0.556,2.809-2.14,7.578-2.14,7.578s1.524-4.369,1.141-7.35
	c-0.54-4.202-4.157-7.442-6.959-9.267c-1.24-0.806-10.819-4.853-14.871-4.559c-5.828,0.421-9.609,0.56-16.191,4.054
	c-2.14,1.137-8.548,6.146-10.509,9.546c-1.265,2.188-3.134,11.702-1.867,15.643C380.849,152.842,392.688,164.521,392.689,164.521z"
	/>
<path fill="none" stroke="#73D100" stroke-width="0.8704" stroke-linecap="round" stroke-miterlimit="10" d="M400.182,155.454
	c-11.158-1.164-22.46-24.461-17.532-50.286c3.182-16.678,19.97-26.65,28.894-25.717c7.142,0.746,12.102,7.509,11.078,15.107
	c-0.818,6.079-6.112,10.522-11.824,9.924c-4.572-0.478-7.744-4.807-7.088-9.667c0.521-3.893,3.911-6.737,7.567-6.353
	c2.922,0.304,4.957,3.076,4.537,6.188c-0.336,2.489-2.505,4.311-4.844,4.064"/>
<path fill="none" stroke="#B5DC87" stroke-width="1.0542" stroke-linecap="round" stroke-miterlimit="10" d="M373.557,162.527
	c-9.852-5.366-12.941-18.102-6.901-28.447c4.832-8.274,15.137-11.503,23.02-7.207c6.302,3.437,8.281,11.585,4.415,18.205
	c-3.091,5.296-9.688,7.363-14.732,4.614c-4.036-2.197-5.302-7.414-2.829-11.652c1.98-3.388,6.201-4.711,9.43-2.952
	c2.581,1.407,3.392,4.746,1.809,7.459c-1.267,2.169-3.969,3.013-6.033,1.888"/>
<path opacity="0.5" fill="#B5DC87" enable-background="new    " d="M366.064,160.785l-7.899-1.613c0,0-6.502-10.271-7.5-14.814
	c-0.773-3.516,0.271-13.425,2.177-16.233c3.09-4.566,6.38-7.593,11.511-10.696c4.274-2.587,12.814-3.992,16.361-4.13
	c4.729-0.181,12.665,2.929,16.347,5.167c3.368,2.046,6.29,6.704,6.931,9.945c0.557,2.807-2.14,7.576-2.14,7.576
	s1.525-4.368,1.142-7.351c-0.541-4.201-4.157-7.44-6.961-9.265c-1.238-0.805-10.814-4.854-14.868-4.561
	c-5.829,0.422-9.61,0.56-16.193,4.056c-2.138,1.137-8.546,6.144-10.509,9.545c-1.263,2.189-3.134,11.704-1.866,15.643
	C354.223,149.104,366.064,160.785,366.064,160.785z"/>
<path fill="none" stroke="#73D100" stroke-width="0.8704" stroke-linecap="round" stroke-miterlimit="10" d="M373.557,162.527
	c-11.159-1.164-22.46-24.464-17.533-50.287c3.182-16.678,19.969-26.651,28.896-25.716c7.14,0.746,12.1,7.508,11.076,15.108
	c-0.817,6.078-6.109,10.52-11.824,9.924c-4.571-0.479-7.744-4.806-7.088-9.668c0.525-3.892,3.911-6.735,7.568-6.352
	c2.925,0.303,4.955,3.075,4.537,6.187c-0.336,2.487-2.504,4.31-4.845,4.063"/>
<circle fill="#E83658" stroke="#73D100" stroke-width="0.1452" stroke-miterlimit="10" cx="311.176" cy="55.805" r="0.967"/>
<circle fill="#E83658" stroke="#73D100" stroke-width="0.2082" stroke-miterlimit="10" cx="391.786" cy="74.077" r="1.913"/>
<path fill="#E83658" stroke="#73D100" stroke-width="0.1913" stroke-miterlimit="10" d="M391.752,66.526
	c-0.24-0.661,0.102-1.392,0.763-1.631c0.661-0.241,1.394,0.102,1.63,0.762c0.243,0.662-0.1,1.393-0.76,1.631
	C392.723,67.528,391.993,67.188,391.752,66.526z"/>
<circle fill="#E83658" stroke="#73D100" stroke-width="0.1913" stroke-miterlimit="10" cx="304.997" cy="54.835" r="1.274"/>
<circle fill="#E83658" stroke="#73D100" stroke-width="0.1452" stroke-miterlimit="10" cx="344.672" cy="80.783" r="0.966"/>
<path fill="#E83658" stroke="#73D100" stroke-width="0.2082" stroke-miterlimit="10" d="M365.646,76.407
	c-0.131,1.049-1.09,1.791-2.136,1.657c-1.051-0.133-1.792-1.09-1.658-2.138c0.134-1.049,1.09-1.791,2.138-1.657
	C365.038,74.402,365.78,75.36,365.646,76.407z"/>
<circle fill="#E83658" stroke="#73D100" stroke-width="0.1913" stroke-miterlimit="10" cx="359.068" cy="82.739" r="1.273"/>
<circle fill="#E83658" stroke="#73D100" stroke-width="0.1913" stroke-miterlimit="10" cx="349.727" cy="84.467" r="1.274"/>
<circle fill="#E83658" stroke="#73D100" stroke-width="0.2082" stroke-miterlimit="10" cx="344.613" cy="64.934" r="1.913"/>
<path opacity="0.5" fill="none" stroke="#B5DC87" stroke-width="0.807" stroke-linecap="round" stroke-miterlimit="10" enable-background="new    " d="
	M278.084,162.083c7.541-4.109,9.906-13.858,5.283-21.776c-3.697-6.335-11.588-8.804-17.62-5.516
	c-4.827,2.628-6.341,8.866-3.381,13.933c2.369,4.055,7.416,5.636,11.278,3.533c3.091-1.684,4.059-5.677,2.163-8.92
	c-1.512-2.596-4.745-3.606-7.217-2.26c-1.975,1.077-2.596,3.635-1.382,5.708c0.969,1.66,3.036,2.308,4.618,1.446"/>
<path opacity="0.5" fill="#B5DC87" enable-background="new    " d="M263.728,181.622l6.051-1.233c0,0,4.975-7.865,5.739-11.343
	c0.591-2.688-0.209-10.276-1.667-12.428c-2.366-3.492-4.884-5.811-8.81-8.187c-3.274-1.979-9.812-3.057-12.524-3.159
	c-3.622-0.14-9.698,2.239-12.517,3.954c-2.577,1.565-4.813,5.132-5.305,7.612c-0.427,2.15,1.636,5.803,1.636,5.803
	s-1.165-3.348-0.874-5.628c0.415-3.217,3.181-5.696,5.33-7.094c0.948-0.615,8.279-3.714,11.382-3.489
	c4.463,0.322,7.354,0.427,12.394,3.105c1.638,0.868,6.543,4.7,8.044,7.306c0.967,1.673,2.4,8.958,1.43,11.976
	C272.793,172.681,263.728,181.622,263.728,181.622z"/>
<path opacity="0.5" fill="none" stroke="#73D100" stroke-width="0.6663" stroke-linecap="round" stroke-miterlimit="10" enable-background="new    " d="
	M257.993,177.956c8.54-0.892,17.192-18.728,13.422-38.495c-2.437-12.768-15.286-20.4-22.12-19.685
	c-5.467,0.571-9.265,5.749-8.481,11.565c0.626,4.65,4.679,8.052,9.052,7.596c3.5-0.366,5.929-3.679,5.429-7.4
	c-0.404-2.979-2.997-5.156-5.795-4.862c-2.238,0.232-3.794,2.353-3.473,4.735c0.254,1.907,1.915,3.3,3.707,3.113"/>
<path opacity="0.5" fill="none" stroke="#B5DC87" stroke-width="0.807" stroke-linecap="round" stroke-miterlimit="10" enable-background="new    " d="
	M317.402,178.177c-7.54-4.107-9.903-13.855-5.28-21.776c3.697-6.335,11.587-8.805,17.618-5.517c4.828,2.63,6.345,8.868,3.382,13.936
	c-2.366,4.054-7.416,5.636-11.276,3.532c-3.092-1.683-4.057-5.677-2.164-8.92c1.514-2.596,4.747-3.605,7.218-2.261
	c1.976,1.077,2.597,3.635,1.386,5.709c-0.971,1.659-3.039,2.308-4.62,1.446"/>
<path opacity="0.5" fill="#B5DC87" enable-background="new    " d="M311.668,176.844l-6.047-1.231c0,0-4.977-7.865-5.741-11.345
	c-0.591-2.687,0.208-10.275,1.666-12.425c2.366-3.494,4.884-5.812,8.812-8.188c3.273-1.981,9.813-3.056,12.523-3.161
	c3.622-0.139,9.698,2.241,12.518,3.955c2.574,1.563,4.814,5.132,5.305,7.613c0.425,2.146-1.638,5.8-1.638,5.8
	s1.165-3.344,0.873-5.626c-0.411-3.216-3.182-5.696-5.327-7.094c-0.948-0.615-8.278-3.715-11.384-3.489
	c-4.46,0.32-7.354,0.427-12.392,3.104c-1.638,0.871-6.544,4.703-8.046,7.308c-0.967,1.675-2.399,8.958-1.429,11.975
	C302.605,167.903,311.668,176.844,311.668,176.844z"/>
<path opacity="0.5" fill="none" stroke="#73D100" stroke-width="0.6663" stroke-linecap="round" stroke-miterlimit="10" enable-background="new    " d="
	M317.402,178.177c-8.539-0.892-17.191-18.727-13.417-38.496c2.433-12.765,15.283-20.398,22.118-19.683
	c5.468,0.569,9.265,5.748,8.482,11.562c-0.628,4.653-4.682,8.057-9.054,7.598c-3.5-0.366-5.928-3.679-5.428-7.402
	c0.401-2.979,2.995-5.155,5.794-4.862c2.24,0.235,3.795,2.356,3.476,4.737c-0.257,1.907-1.918,3.3-3.709,3.111"/>
<path opacity="0.5" fill="#B5DC87" enable-background="new    " d="M291.287,184.26l-6.045-1.234c0,0-4.979-7.864-5.743-11.343
	c-0.589-2.688,0.208-10.277,1.666-12.426c2.367-3.495,4.885-5.814,8.813-8.187c3.271-1.981,9.811-3.058,12.522-3.161
	c3.621-0.14,9.696,2.239,12.516,3.953c2.578,1.564,4.815,5.134,5.307,7.612c0.424,2.15-1.64,5.801-1.64,5.801
	s1.167-3.345,0.874-5.627c-0.413-3.217-3.181-5.696-5.328-7.092c-0.95-0.617-8.28-3.717-11.382-3.491
	c-4.461,0.322-7.356,0.429-12.395,3.104c-1.637,0.87-6.542,4.701-8.045,7.308c-0.965,1.675-2.399,8.957-1.428,11.972
	C282.223,175.317,291.287,184.26,291.287,184.26z"/>
<path opacity="0.5" fill="none" stroke="#73D100" stroke-width="0.6663" stroke-linecap="round" stroke-miterlimit="10" enable-background="new    " d="
	M297.023,185.592c-8.544-0.892-17.193-18.728-13.422-38.494c2.433-12.767,15.284-20.4,22.119-19.684
	c5.466,0.569,9.262,5.747,8.479,11.564c-0.626,4.651-4.678,8.052-9.051,7.596c-3.499-0.367-5.928-3.68-5.429-7.401
	c0.403-2.979,2.996-5.155,5.796-4.862c2.238,0.234,3.793,2.355,3.472,4.734c-0.257,1.908-1.916,3.301-3.707,3.114"/>
<circle fill="#E83658" stroke="#73D100" stroke-width="0.1112" stroke-miterlimit="10" cx="329.089" cy="89.378" r="0.74"/>
<circle fill="#E83658" stroke="#73D100" stroke-width="0.1593" stroke-miterlimit="10" cx="317.71" cy="99.189" r="1.465"/>
<circle fill="#E83658" stroke="#73D100" stroke-width="0.1464" stroke-miterlimit="10" cx="318.601" cy="93.075" r="0.975"/>
<path fill="#E83658" stroke="#73D100" stroke-width="0.1464" stroke-miterlimit="10" d="M323.442,88.966
	c-0.185-0.504,0.078-1.065,0.585-1.249c0.506-0.186,1.066,0.079,1.249,0.584c0.185,0.506-0.078,1.063-0.582,1.25
	C324.184,89.736,323.626,89.472,323.442,88.966z"/>
<circle opacity="0.5" fill="#E83658" stroke="#73D100" stroke-width="0.1112" stroke-miterlimit="10" enable-background="new    " cx="281.643" cy="104.321" r="0.74"/>
<path fill="#E83658" stroke="#73D100" stroke-width="0.1593" stroke-miterlimit="10" d="M297.699,100.972
	c-0.101,0.803-0.836,1.368-1.636,1.268c-0.804-0.102-1.371-0.834-1.268-1.637c0.101-0.804,0.834-1.371,1.636-1.267
	C297.234,99.435,297.802,100.169,297.699,100.972z"/>
<circle fill="#E83658" stroke="#73D100" stroke-width="0.1464" stroke-miterlimit="10" cx="292.664" cy="105.818" r="0.975"/>
<path fill="#E83658" stroke="#73D100" stroke-width="0.1464" stroke-miterlimit="10" d="M286.481,107.264
	c-0.07,0.532-0.558,0.912-1.092,0.846c-0.534-0.067-0.912-0.557-0.843-1.092c0.067-0.536,0.555-0.912,1.088-0.844
	C286.169,106.243,286.548,106.73,286.481,107.264z"/>
<circle fill="#E83658" stroke="#73D100" stroke-width="0.1593" stroke-miterlimit="10" cx="281.599" cy="92.188" r="1.465"/>
<path opacity="0.5" fill="none" stroke="#B5DC87" stroke-width="1.0542" stroke-linecap="round" stroke-miterlimit="10" enable-background="new    " d="
	M277.13,198.678c-9.851-5.366-12.941-18.101-6.902-28.446c4.832-8.274,15.139-11.503,23.018-7.209
	c6.308,3.435,8.282,11.585,4.417,18.206c-3.093,5.297-9.689,7.359-14.733,4.614c-4.036-2.2-5.302-7.414-2.828-11.652
	c1.981-3.388,6.201-4.71,9.429-2.952c2.581,1.408,3.393,4.746,1.809,7.457c-1.266,2.17-3.968,3.015-6.034,1.889"/>
<path opacity="0.5" fill="none" stroke="#73D100" stroke-width="0.8704" stroke-linecap="round" stroke-miterlimit="10" enable-background="new    " d="
	M288.863,180.805c-11.158-1.165-22.461-24.466-17.533-50.287c3.181-16.678,19.967-26.649,28.894-25.716
	c7.142,0.745,12.102,7.507,11.078,15.105c-0.819,6.079-6.111,10.521-11.825,9.928c-4.57-0.479-7.744-4.809-7.09-9.671
	c0.526-3.891,3.912-6.733,7.569-6.352c2.924,0.305,4.958,3.075,4.536,6.189c-0.333,2.488-2.503,4.31-4.843,4.063"/>
<path opacity="0.5" fill="none" stroke="#B5DC87" stroke-width="1.0542" stroke-linecap="round" stroke-miterlimit="10" enable-background="new    " d="
	M223.3,175.581c9.852-5.366,12.941-18.102,6.901-28.446c-4.831-8.275-15.138-11.501-23.018-7.206
	c-6.307,3.436-8.286,11.582-4.418,18.204c3.093,5.295,9.69,7.361,14.734,4.614c4.035-2.198,5.299-7.415,2.828-11.651
	c-1.98-3.39-6.202-4.712-9.429-2.952c-2.583,1.404-3.394,4.745-1.809,7.458c1.267,2.168,3.967,3.013,6.036,1.887"/>
<circle opacity="0.5" fill="#E83658" stroke="#73D100" stroke-width="0.1452" stroke-miterlimit="10" enable-background="new    " cx="246.056" cy="107.422" r="0.968"/>
<circle fill="#E83658" stroke="#73D100" stroke-width="0.1913" stroke-miterlimit="10" cx="232.641" cy="111.106" r="1.274"/>
<path opacity="0.5" fill="#B5DC87" enable-background="new    " d="M268.967,187.612l6.049-1.234c0,0,4.976-7.864,5.74-11.342
	c0.59-2.689-0.208-10.279-1.665-12.429c-2.369-3.492-4.884-5.811-8.812-8.184c-3.273-1.983-9.812-3.059-12.524-3.162
	c-3.62-0.14-9.697,2.241-12.515,3.953c-2.576,1.567-4.815,5.134-5.305,7.614c-0.426,2.148,1.637,5.801,1.637,5.801
	s-1.167-3.347-0.875-5.627c0.414-3.215,3.182-5.695,5.328-7.094c0.948-0.615,8.28-3.714,11.382-3.489
	c4.462,0.32,7.355,0.428,12.396,3.104c1.637,0.87,6.542,4.703,8.043,7.307c0.968,1.674,2.399,8.96,1.429,11.976
	C278.033,178.67,268.967,187.612,268.967,187.612z"/>
<path opacity="0.5" fill="none" stroke="#73D100" stroke-width="0.6663" stroke-linecap="round" stroke-miterlimit="10" enable-background="new    " d="
	M280.24,212.232c8.544-0.893,17.194-18.731,13.423-38.495c-2.435-12.766-15.286-20.401-22.121-19.687
	c-5.465,0.571-9.261,5.749-8.478,11.564c0.625,4.653,4.676,8.057,9.051,7.597c3.498-0.364,5.928-3.677,5.428-7.4
	c-0.404-2.977-2.996-5.154-5.794-4.862c-2.239,0.234-3.795,2.355-3.472,4.735c0.256,1.906,1.916,3.3,3.706,3.112"/>
<circle opacity="0.5" fill="#E83658" stroke="#73D100" stroke-width="0.1112" stroke-miterlimit="10" enable-background="new    " cx="261.64" cy="116.017" r="0.74"/>
<path fill="#E83658" stroke="#73D100" stroke-width="0.1593" stroke-miterlimit="10" d="M281.297,143.483
	c0.101,0.803,0.835,1.37,1.634,1.268c0.803-0.1,1.371-0.834,1.271-1.638c-0.102-0.801-0.835-1.367-1.636-1.266
	C281.762,141.947,281.192,142.681,281.297,143.483z"/>
<path opacity="0.5" fill="#E83658" stroke="#73D100" stroke-width="0.1464" stroke-miterlimit="10" enable-background="new    " d="
	M290.365,148.453c0.069,0.534,0.558,0.911,1.091,0.844c0.532-0.067,0.913-0.556,0.843-1.09c-0.065-0.531-0.554-0.911-1.087-0.844
	C290.675,147.43,290.296,147.918,290.365,148.453z"/>
<path opacity="0.5" fill="#E83658" stroke="#73D100" stroke-width="0.1464" stroke-miterlimit="10" enable-background="new    " d="
	M297.515,149.776c0.068,0.533,0.557,0.912,1.093,0.845c0.533-0.067,0.91-0.558,0.843-1.091c-0.066-0.535-0.555-0.911-1.09-0.844
	C297.827,148.754,297.449,149.241,297.515,149.776z"/>
<path fill="#E83658" stroke="#73D100" stroke-width="0.2082" stroke-miterlimit="10" d="M260.512,105.982
	c1.04-0.194,2.039,0.491,2.229,1.53c0.196,1.04-0.49,2.037-1.528,2.231c-1.04,0.193-2.038-0.493-2.232-1.53
	C258.788,107.175,259.474,106.176,260.512,105.982z"/>
<circle fill="#E83658" stroke="#73D100" stroke-width="0.1452" stroke-miterlimit="10" cx="417.912" cy="106.058" r="0.966"/>
<path fill="#E83658" stroke="#73D100" stroke-width="0.1913" stroke-miterlimit="10" d="M411.594,109.903
	c0.088,0.696,0.726,1.192,1.423,1.104c0.7-0.089,1.193-0.729,1.104-1.425c-0.088-0.697-0.725-1.191-1.424-1.104
	C411.999,108.568,411.505,109.204,411.594,109.903z"/>
<circle fill="#E83658" stroke="#73D100" stroke-width="0.2082" stroke-miterlimit="10" cx="417.971" cy="90.208" r="1.912"/>
<path opacity="0.5" fill="#B5DC87" enable-background="new    " d="M277.972,187.12l-6.046-1.234c0,0-4.979-7.864-5.743-11.341
	c-0.591-2.69,0.21-10.278,1.665-12.43c2.37-3.493,4.888-5.812,8.813-8.187c3.272-1.979,9.811-3.056,12.523-3.161
	c3.622-0.139,9.697,2.242,12.516,3.953c2.578,1.568,4.816,5.135,5.306,7.615c0.423,2.148-1.636,5.803-1.636,5.803
	s1.164-3.348,0.874-5.631c-0.415-3.214-3.184-5.693-5.33-7.091c-0.949-0.616-8.28-3.716-11.381-3.492
	c-4.462,0.324-7.356,0.429-12.396,3.107c-1.637,0.868-6.541,4.7-8.045,7.306c-0.964,1.675-2.4,8.958-1.429,11.975
	C268.907,178.177,277.971,187.12,277.972,187.12z"/>
<circle fill="#E83658" stroke="#73D100" stroke-width="0.1593" stroke-miterlimit="10" cx="297.529" cy="143.482" r="1.464"/>
<circle fill="#E83658" stroke="#73D100" stroke-width="0.1464" stroke-miterlimit="10" cx="308.416" cy="145.357" r="0.976"/>
<circle opacity="0.5" fill="#E83658" stroke="#73D100" stroke-width="0.1112" stroke-miterlimit="10" enable-background="new    " cx="261.499" cy="115.232" r="0.74"/>
<path opacity="0.5" fill="#E83658" stroke="#73D100" stroke-width="0.1464" stroke-miterlimit="10" enable-background="new    " d="
	M256.661,118.177c0.067,0.533,0.556,0.912,1.092,0.844c0.535-0.067,0.911-0.556,0.843-1.09c-0.066-0.534-0.556-0.913-1.09-0.845
	C256.972,117.154,256.594,117.641,256.661,118.177z"/>
<circle opacity="0.5" fill="#E83658" stroke="#73D100" stroke-width="0.1593" stroke-miterlimit="10" enable-background="new    " cx="261.545" cy="103.101" r="1.464"/>
<circle opacity="0.5" fill="#E83658" stroke="#73D100" stroke-width="0.1464" stroke-miterlimit="10" enable-background="new    " cx="275.591" cy="121.302" r="0.976"/>
<circle fill="#E83658" stroke="#73D100" stroke-width="0.1593" stroke-miterlimit="10" cx="426.782" cy="117.879" r="1.463"/>
<path opacity="0.5" fill="#B5DC87" enable-background="new    " d="M283.321,161.025l9.015-1.839c0,0,7.418-11.721,8.56-16.908
	c0.881-4.008-0.311-15.314-2.484-18.523c-3.526-5.208-7.284-8.663-13.135-12.202c-4.88-2.953-14.625-4.559-18.669-4.713
	c-5.4-0.207-14.454,3.34-18.66,5.894c-3.838,2.333-7.173,7.649-7.907,11.347c-0.635,3.206,2.441,8.648,2.441,8.648
	s-1.738-4.985-1.302-8.389c0.618-4.792,4.743-8.491,7.943-10.571c1.415-0.919,12.344-5.537,16.968-5.203
	c6.65,0.481,10.964,0.638,18.475,4.629c2.44,1.295,9.751,7.011,11.992,10.894c1.441,2.493,3.577,13.354,2.131,17.846
	C296.835,147.698,283.323,161.025,283.321,161.025z"/>
<path opacity="0.5" fill="none" stroke="#73D100" stroke-width="0.9932" stroke-linecap="round" stroke-miterlimit="10" enable-background="new    " d="
	M283.132,163.011c12.731-1.328,25.631-27.913,20.007-57.379c-3.631-19.034-22.788-30.411-32.97-29.347
	c-8.152,0.853-13.812,8.569-12.643,17.239c0.934,6.937,6.976,12.005,13.494,11.324c5.217-0.543,8.838-5.484,8.093-11.03
	c-0.598-4.442-4.465-7.686-8.636-7.25c-3.339,0.349-5.658,3.509-5.179,7.061c0.382,2.84,2.857,4.917,5.528,4.64"/>
<path opacity="0.5" fill="none" stroke="#B5DC87" stroke-width="1.203" stroke-linecap="round" stroke-miterlimit="10" enable-background="new    " d="
	M365.965,140.021c-11.243-6.124-14.769-20.657-7.874-32.461c5.513-9.441,17.271-13.127,26.266-8.224
	c7.194,3.918,9.453,13.219,5.04,20.773c-3.527,6.041-11.056,8.4-16.811,5.265c-4.604-2.511-6.047-8.463-3.225-13.298
	c2.258-3.867,7.076-5.376,10.758-3.37c2.948,1.607,3.871,5.416,2.065,8.512c-1.446,2.475-4.528,3.439-6.887,2.155"/>
<path opacity="0.5" fill="#B5DC87" enable-background="new    " d="M357.415,138.032l-9.014-1.839c0,0-7.419-11.721-8.56-16.906
	c-0.881-4.012,0.31-15.318,2.482-18.525c3.53-5.208,7.281-8.663,13.137-12.203c4.878-2.954,14.623-4.556,18.671-4.712
	c5.395-0.207,14.452,3.338,18.655,5.893c3.837,2.333,7.174,7.651,7.906,11.349c0.637,3.205-2.441,8.648-2.441,8.648
	s1.739-4.988,1.303-8.388c-0.616-4.796-4.743-8.492-7.941-10.575c-1.414-0.917-12.343-5.536-16.967-5.202
	c-6.65,0.48-10.968,0.637-18.477,4.628c-2.44,1.296-9.752,7.012-11.993,10.893c-1.44,2.496-3.573,13.354-2.13,17.849
	C343.904,124.705,357.413,138.032,357.415,138.032z"/>
<path opacity="0.5" fill="none" stroke="#73D100" stroke-width="0.9932" stroke-linecap="round" stroke-miterlimit="10" enable-background="new    " d="
	M365.965,140.021c-12.732-1.331-25.629-27.917-20.006-57.383c3.631-19.034,22.787-30.41,32.969-29.344
	c8.15,0.85,13.81,8.569,12.642,17.238c-0.933,6.937-6.976,12.006-13.492,11.325c-5.218-0.544-8.838-5.486-8.093-11.032
	c0.6-4.44,4.465-7.685,8.638-7.249c3.335,0.348,5.653,3.508,5.178,7.063c-0.384,2.839-2.857,4.917-5.527,4.638"/>
<path opacity="0.5" fill="none" stroke="#B5DC87" stroke-width="1.203" stroke-linecap="round" stroke-miterlimit="10" enable-background="new    " d="
	M335.584,148.092c-11.242-6.125-14.769-20.658-7.875-32.463c5.512-9.44,17.271-13.126,26.267-8.225
	c7.193,3.921,9.451,13.221,5.04,20.774c-3.528,6.044-11.056,8.402-16.81,5.267c-4.604-2.509-6.05-8.46-3.228-13.297
	c2.258-3.867,7.077-5.377,10.762-3.372c2.944,1.608,3.867,5.418,2.062,8.511c-1.446,2.476-4.529,3.441-6.887,2.157"/>
<path opacity="0.5" fill="none" stroke="#73D100" stroke-width="0.9932" stroke-linecap="round" stroke-miterlimit="10" enable-background="new    " d="
	M328.853,163.964c-12.732-1.331-25.63-27.917-20.009-57.383c3.632-19.032,22.787-30.412,32.973-29.345
	c8.148,0.851,13.808,8.567,12.64,17.239c-0.935,6.933-6.974,12.002-13.494,11.322c-5.216-0.544-8.839-5.483-8.092-11.032
	c0.601-4.439,4.463-7.684,8.64-7.248c3.337,0.348,5.651,3.511,5.176,7.06c-0.384,2.84-2.857,4.917-5.527,4.639"/>
<path opacity="0.5" fill="#E83658" stroke="#73D100" stroke-width="0.1657" stroke-miterlimit="10" enable-background="new    " d="
	M372.312,39.137c-0.212-0.573,0.088-1.208,0.658-1.413c0.576-0.208,1.206,0.087,1.414,0.662s-0.088,1.205-0.662,1.413
	C373.15,40.008,372.518,39.71,372.312,39.137z"/>
<path opacity="0.5" fill="#E83658" stroke="#73D100" stroke-width="0.2376" stroke-miterlimit="10" enable-background="new    " d="
	M354.332,54.131c-0.413-1.135,0.175-2.386,1.308-2.797c1.135-0.41,2.385,0.176,2.797,1.309c0.411,1.133-0.177,2.385-1.308,2.794
	C355.992,55.847,354.742,55.263,354.332,54.131z"/>
<circle opacity="0.5" fill="#E83658" stroke="#73D100" stroke-width="0.2183" stroke-miterlimit="10" enable-background="new    " cx="357.712" cy="44.273" r="1.453"/>
<circle opacity="0.5" fill="#E83658" stroke="#73D100" stroke-width="0.2183" stroke-miterlimit="10" enable-background="new    " cx="366.298" cy="37.654" r="1.454"/>
<path opacity="0.5" fill="#E83658" stroke="#73D100" stroke-width="0.1657" stroke-miterlimit="10" enable-background="new    " d="
	M303.717,61.176c-0.074,0.606-0.628,1.034-1.231,0.957c-0.606-0.077-1.033-0.631-0.957-1.232c0.075-0.605,0.629-1.035,1.235-0.957
	C303.369,60.021,303.797,60.573,303.717,61.176z"/>
<circle opacity="0.5" fill="#E83658" stroke="#73D100" stroke-width="0.2376" stroke-miterlimit="10" enable-background="new    " cx="324.392" cy="55.77" r="2.182"/>
<path opacity="0.5" fill="#E83658" stroke="#73D100" stroke-width="0.2183" stroke-miterlimit="10" enable-background="new    " d="
	M320.493,63.453c-0.104,0.797-0.83,1.361-1.624,1.26c-0.799-0.101-1.363-0.828-1.26-1.625c0.102-0.795,0.826-1.359,1.624-1.26
	C320.029,61.93,320.594,62.656,320.493,63.453z"/>
<path opacity="0.5" fill="#E83658" stroke="#73D100" stroke-width="0.2183" stroke-miterlimit="10" enable-background="new    " d="
	M309.834,65.427c-0.102,0.792-0.831,1.36-1.627,1.257c-0.795-0.1-1.358-0.829-1.258-1.625c0.101-0.796,0.828-1.358,1.625-1.26
	C309.37,63.902,309.934,64.628,309.834,65.427z"/>
<circle opacity="0.5" fill="#E83658" stroke="#73D100" stroke-width="0.2376" stroke-miterlimit="10" enable-background="new    " cx="302.555" cy="42.953" r="2.183"/>
<path opacity="0.5" fill="none" stroke="#73D100" stroke-width="0.7603" stroke-linecap="round" stroke-miterlimit="10" enable-background="new    " d="
	M284.188,148.359c-9.743-1.021-19.618-21.37-15.313-43.928c2.778-14.568,17.442-23.279,25.238-22.461
	c6.238,0.651,10.572,6.558,9.678,13.194c-0.715,5.309-5.342,9.189-10.33,8.667c-3.995-0.415-6.767-4.197-6.195-8.443
	c0.458-3.4,3.417-5.882,6.61-5.549c2.555,0.268,4.33,2.688,3.966,5.407c-0.293,2.173-2.189,3.765-4.233,3.548"/>
<path opacity="0.5" fill="none" stroke="#73D100" stroke-width="0.7603" stroke-linecap="round" stroke-miterlimit="10" enable-background="new    " d="
	M247.575,154.537c-9.75-1.021-19.621-21.371-15.316-43.929c2.777-14.567,17.441-23.278,25.238-22.46
	c6.239,0.649,10.569,6.559,9.677,13.194c-0.715,5.308-5.338,9.189-10.331,8.668c-3.99-0.418-6.763-4.197-6.193-8.444
	c0.461-3.398,3.417-5.882,6.613-5.551c2.554,0.272,4.328,2.69,3.961,5.406c-0.292,2.175-2.187,3.764-4.23,3.552"/>
<circle opacity="0.5" fill="#E83658" stroke="#73D100" stroke-width="0.1268" stroke-miterlimit="10" enable-background="new    " cx="284.84" cy="70.844" r="0.845"/>
<path opacity="0.5" fill="#E83658" stroke="#73D100" stroke-width="0.1818" stroke-miterlimit="10" enable-background="new    " d="
	M270.283,82.61c-0.313-0.867,0.133-1.825,1.001-2.142c0.869-0.315,1.826,0.133,2.142,1.003c0.314,0.866-0.136,1.825-1.001,2.14
	C271.556,83.925,270.6,83.477,270.283,82.61z"/>
<path opacity="0.5" fill="#E83658" stroke="#73D100" stroke-width="0.1671" stroke-miterlimit="10" enable-background="new    " d="
	M271.827,75.443c-0.211-0.577,0.087-1.213,0.667-1.423c0.579-0.212,1.217,0.089,1.424,0.666c0.21,0.578-0.088,1.215-0.667,1.425
	C272.675,76.319,272.034,76.021,271.827,75.443z"/>
<path opacity="0.5" fill="#E83658" stroke="#73D100" stroke-width="0.1671" stroke-miterlimit="10" enable-background="new    " d="
	M278.396,70.377c-0.209-0.579,0.09-1.216,0.667-1.426c0.579-0.21,1.217,0.089,1.425,0.667c0.212,0.576-0.089,1.215-0.666,1.426
	C279.244,71.252,278.605,70.955,278.396,70.377z"/>
<path opacity="0.5" fill="#E83658" stroke="#73D100" stroke-width="0.1818" stroke-miterlimit="10" enable-background="new    " d="
	M249.021,84.075c-0.114,0.917-0.952,1.566-1.865,1.447c-0.916-0.115-1.563-0.951-1.448-1.868c0.116-0.913,0.953-1.562,1.867-1.445
	C248.491,82.323,249.14,83.16,249.021,84.075z"/>
<circle opacity="0.5" fill="#E83658" stroke="#73D100" stroke-width="0.1818" stroke-miterlimit="10" enable-background="new    " cx="230.648" cy="74.054" r="1.671"/>
<g>
	<circle fill="#E83658" stroke="#73D100" stroke-width="0.2082" stroke-miterlimit="10" cx="154.414" cy="124.066" r="1.914"/>
	<path fill="#E83658" stroke="#73D100" stroke-width="0.1913" stroke-miterlimit="10" d="M161.869,125.263
		c0.691-0.13,1.356,0.329,1.483,1.02c0.131,0.692-0.325,1.357-1.018,1.485c-0.69,0.129-1.355-0.329-1.485-1.021
		C160.72,126.059,161.176,125.393,161.869,125.263z"/>
</g>
<path opacity="0.5" fill="none" stroke="#B5DC87" stroke-width="0.807" stroke-linecap="round" stroke-miterlimit="10" enable-background="new    " d="
	M216.655,164.521c-7.542-4.108-9.907-13.855-5.285-21.777c3.699-6.334,11.589-8.805,17.622-5.518
	c4.827,2.629,6.34,8.868,3.38,13.937c-2.367,4.053-7.416,5.634-11.276,3.531c-3.09-1.684-4.059-5.676-2.166-8.92
	c1.517-2.595,4.748-3.608,7.218-2.26c1.976,1.078,2.597,3.632,1.386,5.708c-0.968,1.659-3.038,2.309-4.62,1.446"/>
<path opacity="0.7" fill="#B5DC87" enable-background="new    " d="M210.918,163.186l-6.047-1.234c0,0-4.978-7.862-5.743-11.341
	c-0.59-2.691,0.21-10.277,1.666-12.427c2.369-3.495,4.887-5.813,8.813-8.188c3.274-1.979,9.81-3.057,12.524-3.161
	c3.622-0.14,9.696,2.24,12.516,3.954c2.576,1.567,4.814,5.132,5.305,7.612c0.424,2.149-1.637,5.802-1.637,5.802
	s1.166-3.344,0.874-5.628c-0.415-3.217-3.182-5.697-5.329-7.091c-0.95-0.619-8.28-3.717-11.381-3.494
	c-4.461,0.325-7.355,0.43-12.395,3.106c-1.638,0.87-6.542,4.703-8.045,7.309c-0.965,1.676-2.4,8.957-1.428,11.974
	C201.853,154.246,210.917,163.186,210.918,163.186z"/>
<path opacity="0.5" fill="none" stroke="#B5DC87" stroke-width="0.807" stroke-linecap="round" stroke-miterlimit="10" enable-background="new    " d="
	M196.272,169.934c-7.542-4.108-9.908-13.857-5.283-21.777c3.697-6.336,11.586-8.804,17.619-5.516
	c4.827,2.629,6.341,8.866,3.381,13.933c-2.37,4.054-7.416,5.637-11.279,3.532c-3.088-1.682-4.056-5.674-2.162-8.919
	c1.513-2.596,4.745-3.606,7.217-2.26c1.976,1.078,2.596,3.635,1.384,5.708c-0.97,1.66-3.036,2.31-4.619,1.446"/>
<path opacity="0.5" fill="#B5DC87" enable-background="new    " d="M190.537,168.599l-6.049-1.232c0,0-4.975-7.864-5.74-11.343
	c-0.591-2.689,0.209-10.276,1.666-12.429c2.366-3.492,4.884-5.81,8.811-8.185c3.274-1.981,9.812-3.057,12.524-3.162
	c3.623-0.138,9.697,2.241,12.518,3.954c2.575,1.566,4.812,5.134,5.304,7.613c0.426,2.15-1.636,5.803-1.636,5.803
	s1.166-3.347,0.873-5.628c-0.414-3.217-3.181-5.695-5.329-7.093c-0.947-0.616-8.279-3.715-11.381-3.491
	c-4.462,0.323-7.356,0.428-12.394,3.105c-1.638,0.87-6.543,4.703-8.046,7.308c-0.966,1.675-2.399,8.958-1.429,11.974
	C181.471,159.659,190.537,168.599,190.537,168.599z"/>
<path fill="#E83658" stroke="#73D100" stroke-width="0.1452" stroke-miterlimit="10" d="M251.618,68.41
	c-0.184-0.502,0.078-1.056,0.579-1.239c0.503-0.182,1.056,0.078,1.238,0.58c0.184,0.503-0.076,1.056-0.579,1.239
	C252.354,69.173,251.798,68.912,251.618,68.41z"/>
<path fill="#E83658" stroke="#73D100" stroke-width="0.1913" stroke-miterlimit="10" d="M237.627,73.345
	c-0.239-0.661,0.103-1.39,0.765-1.63c0.661-0.242,1.392,0.101,1.629,0.762c0.241,0.662-0.1,1.393-0.762,1.632
	C238.598,74.348,237.866,74.007,237.627,73.345z"/>
<circle fill="#E83658" stroke="#73D100" stroke-width="0.1913" stroke-miterlimit="10" cx="246.347" cy="67.11" r="1.274"/>
<circle fill="#E83658" stroke="#73D100" stroke-width="0.1452" stroke-miterlimit="10" cx="409.989" cy="101.967" r="0.967"/>
<circle fill="#E83658" stroke="#73D100" stroke-width="0.1913" stroke-miterlimit="10" cx="424.386" cy="103.922" r="1.274"/>
<path fill="#E83658" stroke="#73D100" stroke-width="0.1913" stroke-miterlimit="10" d="M416.308,105.811
	c-0.087,0.696-0.727,1.193-1.424,1.104c-0.699-0.088-1.191-0.725-1.104-1.423c0.088-0.7,0.726-1.194,1.423-1.104
	C415.903,104.475,416.396,105.113,416.308,105.811z"/>
<circle opacity="0.5" fill="#E83658" stroke="#73D100" stroke-width="0.1593" stroke-miterlimit="10" enable-background="new    " cx="292.466" cy="153.753" r="1.464"/>
<circle opacity="0.5" fill="#E83658" stroke="#73D100" stroke-width="0.1464" stroke-miterlimit="10" enable-background="new    " cx="286.581" cy="155.629" r="0.975"/>
<circle fill="#E83658" stroke="#73D100" stroke-width="0.1452" stroke-miterlimit="10" cx="300.113" cy="81.08" r="0.967"/>
<circle fill="#E83658" stroke="#73D100" stroke-width="0.2082" stroke-miterlimit="10" cx="285.248" cy="93.896" r="1.913"/>
<path opacity="0.7" fill="#B5DC87" enable-background="new    " d="M184.651,174.099l6.048-1.236c0,0,4.977-7.863,5.742-11.34
	c0.591-2.689-0.208-10.277-1.666-12.428c-2.367-3.495-4.886-5.813-8.812-8.187c-3.274-1.979-9.809-3.057-12.524-3.162
	c-3.621-0.138-9.697,2.24-12.515,3.954c-2.577,1.566-4.815,5.134-5.305,7.614c-0.426,2.147,1.636,5.803,1.636,5.803
	s-1.167-3.348-0.874-5.63c0.415-3.217,3.181-5.696,5.33-7.093c0.948-0.616,8.279-3.716,11.38-3.491
	c4.462,0.324,7.357,0.429,12.395,3.106c1.638,0.869,6.542,4.701,8.045,7.307c0.966,1.676,2.401,8.957,1.429,11.974
	C193.717,165.157,184.653,174.099,184.651,174.099z"/>
<path opacity="0.5" fill="none" stroke="#73D100" stroke-width="0.6663" stroke-linecap="round" stroke-miterlimit="10" enable-background="new    " d="
	M199.298,180.847c8.54-0.896,17.192-18.73,13.422-38.497c-2.436-12.77-15.287-20.4-22.12-19.685
	c-5.467,0.57-9.265,5.748-8.481,11.564c0.627,4.652,4.681,8.053,9.053,7.597c3.5-0.365,5.928-3.679,5.428-7.4
	c-0.402-2.979-2.996-5.157-5.794-4.863c-2.239,0.233-3.794,2.353-3.474,4.736c0.256,1.907,1.917,3.3,3.709,3.112"/>
<path opacity="0.9" fill="#E83658" stroke="#73D100" stroke-width="0.1657" stroke-miterlimit="10" enable-background="new    " d="
	M571.479,103.072c0.209-0.573-0.088-1.208-0.659-1.413c-0.575-0.209-1.206,0.087-1.415,0.66c-0.207,0.576,0.089,1.207,0.662,1.414
	C570.639,103.941,571.271,103.646,571.479,103.072z"/>
<g>
	
		<path opacity="0.7" fill="none" stroke="#B5DC87" stroke-width="1.0542" stroke-linecap="round" stroke-miterlimit="10" enable-background="new    " d="
		M603.378,170.265c-9.851-5.367-12.941-18.103-6.902-28.448c4.834-8.271,15.141-11.502,23.02-7.206
		c6.306,3.433,8.282,11.584,4.418,18.205c-3.094,5.296-9.691,7.359-14.732,4.615c-4.037-2.2-5.303-7.416-2.83-11.653
		c1.981-3.388,6.201-4.712,9.43-2.953c2.581,1.408,3.393,4.747,1.809,7.459c-1.265,2.168-3.968,3.016-6.034,1.889"/>
	<path fill="none" stroke="#B5DC87" stroke-width="1.0542" stroke-linecap="round" stroke-miterlimit="10" d="M551.631,165.608
		c-9.853-5.366-12.942-18.101-6.901-28.447c4.832-8.274,15.139-11.501,23.018-7.207c6.306,3.436,8.284,11.584,4.417,18.207
		c-3.093,5.295-9.688,7.36-14.732,4.614c-4.036-2.2-5.3-7.416-2.827-11.653c1.979-3.39,6.201-4.711,9.43-2.953
		c2.582,1.408,3.393,4.746,1.809,7.459c-1.267,2.17-3.968,3.017-6.035,1.89"/>
	<path fill="#B5DC87" d="M522.313,172.998l-7.9-1.61c0,0-6.502-10.273-7.5-14.815c-0.771-3.517,0.273-13.425,2.176-16.234
		c3.091-4.563,6.381-7.592,11.512-10.693c4.276-2.589,12.815-3.994,16.359-4.128c4.732-0.183,12.667,2.925,16.352,5.163
		c3.364,2.046,6.286,6.705,6.929,9.943c0.558,2.808-2.139,7.579-2.139,7.579s1.522-4.369,1.141-7.351
		c-0.541-4.2-4.156-7.44-6.96-9.266c-1.24-0.805-10.818-4.854-14.87-4.559c-5.827,0.42-9.609,0.56-16.19,4.056
		c-2.141,1.135-8.547,6.144-10.51,9.545c-1.262,2.188-3.135,11.704-1.868,15.643C510.472,161.318,522.313,172.998,522.313,172.998z"
		/>
	<path fill="none" stroke="#B5DC87" stroke-width="1.0542" stroke-linecap="round" stroke-miterlimit="10" d="M455.212,161.929
		c9.852-5.364,12.94-18.101,6.9-28.446c-4.83-8.272-15.137-11.502-23.017-7.207c-6.306,3.436-8.284,11.583-4.418,18.204
		c3.093,5.296,9.688,7.363,14.733,4.617c4.034-2.2,5.298-7.415,2.826-11.653c-1.979-3.39-6.201-4.711-9.43-2.954
		c-2.582,1.407-3.393,4.748-1.808,7.459c1.267,2.17,3.968,3.017,6.035,1.89"/>
	
		<path opacity="0.7" fill="none" stroke="#73D100" stroke-width="0.8704" stroke-linecap="round" stroke-miterlimit="10" enable-background="new    " d="
		M463.114,163.193c11.158-1.165,22.46-24.465,17.533-50.287c-3.182-16.679-19.969-26.65-28.893-25.716
		c-7.143,0.746-12.104,7.509-11.08,15.106c0.818,6.08,6.113,10.523,11.825,9.926c4.571-0.478,7.745-4.808,7.089-9.668
		c-0.523-3.892-3.911-6.734-7.568-6.354c-2.924,0.306-4.955,3.076-4.537,6.19c0.336,2.486,2.504,4.31,4.845,4.064"/>
	<path fill="none" stroke="#B5DC87" stroke-width="1.0542" stroke-linecap="round" stroke-miterlimit="10" d="M489.74,170.266
		c9.851-5.366,12.941-18.103,6.901-28.448c-4.832-8.274-15.137-11.502-23.018-7.209c-6.306,3.437-8.282,11.588-4.418,18.207
		c3.093,5.297,9.688,7.361,14.732,4.615c4.035-2.199,5.301-7.414,2.829-11.652c-1.981-3.389-6.202-4.712-9.431-2.952
		c-2.581,1.406-3.391,4.744-1.809,7.457c1.267,2.172,3.971,3.015,6.033,1.889"/>
	<path fill="#B5DC87" d="M554.88,152.905l7.898-1.613c0,0,6.502-10.271,7.501-14.816c0.772-3.513-0.271-13.423-2.177-16.231
		c-3.09-4.565-6.381-7.593-11.51-10.695c-4.277-2.586-12.816-3.991-16.361-4.128c-4.73-0.183-12.667,2.927-16.35,5.165
		c-3.367,2.045-6.289,6.705-6.931,9.945c-0.555,2.808,2.14,7.577,2.14,7.577s-1.525-4.369-1.141-7.352
		c0.54-4.2,4.156-7.439,6.96-9.266c1.239-0.806,10.815-4.854,14.867-4.561c5.829,0.422,9.611,0.561,16.194,4.06
		c2.137,1.134,8.545,6.142,10.51,9.544c1.262,2.188,3.134,11.703,1.864,15.641C566.72,141.224,554.88,152.905,554.88,152.905z"/>
	
		<path opacity="0.8" fill="none" stroke="#73D100" stroke-width="0.8704" stroke-linecap="round" stroke-miterlimit="10" enable-background="new    " d="
		M489.74,170.266c11.159-1.164,22.458-24.466,17.532-50.289c-3.182-16.678-19.969-26.648-28.896-25.715
		c-7.14,0.745-12.1,7.509-11.076,15.106c0.818,6.079,6.11,10.521,11.824,9.925c4.57-0.479,7.745-4.807,7.091-9.67
		c-0.525-3.889-3.912-6.733-7.57-6.351c-2.924,0.305-4.955,3.075-4.537,6.186c0.337,2.49,2.506,4.312,4.845,4.066"/>
	
		<path opacity="0.9" fill="#E83658" stroke="#73D100" stroke-width="0.2082" stroke-miterlimit="10" enable-background="new    " d="
		M473.31,82.467c0.359-0.993-0.154-2.09-1.146-2.45c-0.994-0.36-2.09,0.153-2.451,1.146c-0.359,0.993,0.154,2.089,1.145,2.449
		C471.854,83.972,472.95,83.461,473.31,82.467z"/>
	
		<path opacity="0.9" fill="#E83658" stroke="#73D100" stroke-width="0.1913" stroke-miterlimit="10" enable-background="new    " d="
		M471.544,74.264c0.24-0.661-0.103-1.392-0.765-1.63c-0.66-0.243-1.392,0.1-1.629,0.761c-0.242,0.662,0.101,1.394,0.763,1.632
		C470.573,75.266,471.306,74.926,471.544,74.264z"/>
	<circle fill="#E83658" stroke="#73D100" stroke-width="0.2082" stroke-miterlimit="10" cx="432.606" cy="101.848" r="1.914"/>
	
		<circle opacity="0.9" fill="#E83658" stroke="#73D100" stroke-width="0.2082" stroke-miterlimit="10" enable-background="new    " cx="518.685" cy="72.672" r="1.914"/>
	<path fill="#B5DC87" d="M566.722,165.342l6.048-1.233c0,0,4.976-7.863,5.739-11.342c0.592-2.691-0.207-10.277-1.664-12.428
		c-2.367-3.494-4.885-5.812-8.811-8.187c-3.273-1.981-9.812-3.057-12.526-3.16c-3.62-0.14-9.697,2.24-12.515,3.953
		c-2.576,1.565-4.815,5.134-5.305,7.613c-0.426,2.148,1.637,5.802,1.637,5.802s-1.168-3.346-0.875-5.627
		c0.414-3.217,3.183-5.697,5.33-7.094c0.946-0.616,8.277-3.716,11.382-3.49c4.462,0.321,7.355,0.427,12.395,3.104
		c1.636,0.872,6.542,4.703,8.046,7.31c0.965,1.674,2.398,8.957,1.428,11.972C575.786,156.4,566.722,165.342,566.722,165.342z"/>
	<path fill="none" stroke="#73D100" stroke-width="0.6663" stroke-linecap="round" stroke-miterlimit="10" d="M560.986,174.201
		c8.541-0.894,17.193-18.729,13.421-38.496c-2.434-12.768-15.285-20.4-22.117-19.685c-5.468,0.572-9.266,5.749-8.482,11.563
		c0.625,4.653,4.681,8.057,9.053,7.599c3.5-0.366,5.928-3.679,5.428-7.402c-0.402-2.979-2.996-5.155-5.794-4.861
		c-2.239,0.233-3.794,2.354-3.475,4.736c0.257,1.907,1.918,3.299,3.709,3.112"/>
	
		<path opacity="0.7" fill="none" stroke="#B5DC87" stroke-width="0.807" stroke-linecap="round" stroke-miterlimit="10" enable-background="new    " d="
		M581.368,172.089c7.543-4.106,9.908-13.857,5.283-21.775c-3.699-6.336-11.586-8.807-17.621-5.52
		c-4.826,2.629-6.34,8.87-3.381,13.936c2.367,4.055,7.418,5.636,11.277,3.532c3.09-1.683,4.057-5.675,2.167-8.92
		c-1.518-2.595-4.749-3.606-7.22-2.261c-1.977,1.078-2.596,3.635-1.385,5.708c0.969,1.66,3.038,2.309,4.618,1.447"/>
	<path opacity="0.7" fill="#B5DC87" enable-background="new    " d="M587.105,170.756l6.046-1.234c0,0,4.979-7.863,5.743-11.341
		c0.591-2.689-0.208-10.276-1.667-12.427c-2.367-3.495-4.885-5.813-8.812-8.188c-3.272-1.98-9.811-3.057-12.524-3.161
		c-3.62-0.138-9.694,2.239-12.515,3.955c-2.578,1.564-4.814,5.132-5.307,7.611c-0.424,2.149,1.639,5.802,1.639,5.802
		s-1.168-3.345-0.874-5.628c0.413-3.216,3.183-5.697,5.328-7.093c0.948-0.615,8.28-3.716,11.382-3.491
		c4.462,0.324,7.355,0.429,12.395,3.105c1.637,0.87,6.543,4.703,8.046,7.308c0.966,1.677,2.399,8.958,1.427,11.973
		C596.167,161.812,587.105,170.756,587.105,170.756z"/>
	<path fill="none" stroke="#B5DC87" stroke-width="1.203" stroke-linecap="round" stroke-miterlimit="10" d="M497.331,147.759
		c11.244-6.123,14.768-20.657,7.876-32.459c-5.513-9.443-17.274-13.127-26.265-8.225c-7.195,3.92-9.455,13.217-5.043,20.773
		c3.529,6.042,11.057,8.4,16.812,5.265c4.604-2.508,6.048-8.461,3.226-13.296c-2.259-3.868-7.076-5.377-10.76-3.369
		c-2.947,1.604-3.87,5.414-2.064,8.51c1.447,2.475,4.529,3.438,6.889,2.154"/>
	
		<path opacity="0.8" fill="none" stroke="#73D100" stroke-width="0.9932" stroke-linecap="round" stroke-miterlimit="10" enable-background="new    " d="
		M504.226,152.061c12.732-1.33,25.629-27.915,20.006-57.381c-3.629-19.034-22.786-30.412-32.969-29.346
		c-8.15,0.853-13.811,8.569-12.643,17.238c0.934,6.937,6.977,12.006,13.492,11.324c5.219-0.543,8.838-5.485,8.094-11.031
		c-0.6-4.44-4.466-7.685-8.639-7.248c-3.336,0.347-5.654,3.508-5.178,7.062c0.385,2.838,2.857,4.917,5.527,4.638"/>
	
		<path opacity="0.5" fill="none" stroke="#B5DC87" stroke-width="1.203" stroke-linecap="round" stroke-miterlimit="10" enable-background="new    " d="
		M527.712,155.829c11.243-6.123,14.77-20.657,7.877-32.46c-5.514-9.442-17.272-13.127-26.268-8.225
		c-7.193,3.92-9.449,13.219-5.04,20.773c3.529,6.044,11.056,8.401,16.812,5.266c4.604-2.509,6.049-8.459,3.227-13.299
		c-2.258-3.864-7.076-5.375-10.761-3.369c-2.944,1.607-3.87,5.416-2.063,8.512c1.445,2.474,4.528,3.439,6.886,2.155"/>
	
		<path opacity="0.9" fill="#E83658" stroke="#73D100" stroke-width="0.2376" stroke-miterlimit="10" enable-background="new    " d="
		M508.964,61.867c0.412-1.133-0.174-2.384-1.309-2.795c-1.134-0.41-2.385,0.173-2.796,1.309c-0.41,1.133,0.176,2.384,1.31,2.794
		C507.304,63.586,508.554,63.002,508.964,61.867z"/>
	
		<circle opacity="0.9" fill="#E83658" stroke="#73D100" stroke-width="0.2183" stroke-miterlimit="10" enable-background="new    " cx="505.584" cy="52.012" r="1.454"/>
</g>
<path opacity="0.9" fill="#E83658" stroke="#73D100" stroke-width="0.2183" stroke-miterlimit="10" enable-background="new    " d="
	M578.859,102.085c0.272-0.757-0.117-1.59-0.872-1.861c-0.753-0.276-1.587,0.113-1.862,0.869c-0.273,0.756,0.117,1.588,0.871,1.863
	C577.752,103.229,578.586,102.839,578.859,102.085z"/>
<path opacity="0.9" fill="#E83658" stroke="#73D100" stroke-width="0.2376" stroke-miterlimit="10" enable-background="new    " d="
	M219.689,124.944c0.152,1.197,1.246,2.044,2.442,1.892c1.196-0.151,2.04-1.243,1.889-2.44c-0.153-1.194-1.243-2.043-2.438-1.889
	C220.386,122.655,219.538,123.75,219.689,124.944z"/>
</svg>
