<?xml version="1.0" encoding="utf-8"?>
<!-- Generator: Adobe Illustrator 16.0.0, SVG Export Plug-In . SVG Version: 6.00 Build 0)  -->
<!DOCTYPE svg PUBLIC "-//W3C//DTD SVG 1.1//EN" "http://www.w3.org/Graphics/SVG/1.1/DTD/svg11.dtd">
<svg version="1.1" id="Layer_1" xmlns="http://www.w3.org/2000/svg" xmlns:xlink="http://www.w3.org/1999/xlink" x="0px" y="0px"
	 width="150px" height="116px" viewBox="0 0 150 116" enable-background="new 0 0 150 116" xml:space="preserve">
<g>
	<path fill="none" stroke="#B5DC87" stroke-width="1.952" stroke-linecap="round" stroke-miterlimit="10" d="M4.486,58.613
		c5.632-19.995,27.35-30.817,48.512-24.173c16.927,5.314,26.998,22.59,22.492,38.585c-3.604,12.797-17.503,19.723-31.047,15.471
		C33.61,85.095,27.164,74.039,30.048,63.802c2.306-8.19,11.202-12.623,19.869-9.902c6.935,2.178,11.059,9.253,9.214,15.806
		c-1.477,5.241-7.171,8.078-12.718,6.336c-4.437-1.393-7.077-5.921-5.896-10.115"/>
	<path fill="#B5DC87" d="M4.545,44.371L4.204,29.446c0,0,15.864-15.968,23.657-19.643c6.026-2.841,24.346-5.036,30.202-2.757
		c9.515,3.703,16.334,8.395,24.047,16.376c6.432,6.655,12.484,21.493,14.192,27.836c2.277,8.464-0.068,24.072-2.592,31.642
		c-2.307,6.919-9.513,14.113-15.101,16.605c-4.838,2.16-14.563-0.74-14.563-0.74s8.518,0.952,13.744-0.968
		c7.361-2.706,11.721-10.568,13.859-16.381c0.944-2.568,4.308-21.525,2.109-28.719c-3.162-10.348-4.969-17.118-13.991-27.561
		c-2.932-3.392-14.61-12.897-21.561-15.041c-4.469-1.378-22.416-0.838-29.002,3.072C20.756,18.183,4.546,44.369,4.545,44.371z"/>
	<path fill="none" stroke="#73D100" stroke-width="1.6116" stroke-linecap="round" stroke-miterlimit="10" d="M4.486,58.613
		C1.997,37.99,39.403,7.994,88.048,6.253c31.42-1.124,56.333,25.075,58.325,41.573c1.592,13.199-8.574,24.938-22.711,26.22
		c-11.31,1.025-21.511-6.703-22.785-17.261c-1.021-8.448,5.488-15.959,14.534-16.781c7.239-0.656,13.767,4.29,14.583,11.047
		c0.652,5.406-3.513,10.214-9.304,10.74c-4.631,0.42-8.81-2.745-9.332-7.07"/>
	<circle fill="#E83658" stroke="#73D100" stroke-width="0.2688" stroke-miterlimit="10" cx="82.838" cy="106.851" r="1.791"/>
	<circle fill="#E83658" stroke="#73D100" stroke-width="0.3855" stroke-miterlimit="10" cx="108.874" cy="81.496" r="3.542"/>
	<circle fill="#E83658" stroke="#73D100" stroke-width="0.3542" stroke-miterlimit="10" cx="107.617" cy="96.385" r="2.359"/>
	<circle fill="#E83658" stroke="#73D100" stroke-width="0.3542" stroke-miterlimit="10" cx="94.365" cy="107.952" r="2.359"/>
</g>
</svg>
