<?xml version="1.0" encoding="utf-8"?>
<!-- Generator: Adobe Illustrator 16.0.0, SVG Export Plug-In . SVG Version: 6.00 Build 0)  -->
<!DOCTYPE svg PUBLIC "-//W3C//DTD SVG 1.1//EN" "http://www.w3.org/Graphics/SVG/1.1/DTD/svg11.dtd">
<svg version="1.1" id="Layer_1" xmlns="http://www.w3.org/2000/svg" xmlns:xlink="http://www.w3.org/1999/xlink" x="0px" y="0px"
	 width="162.209px" height="110.464px" viewBox="0 0 162.209 110.464" enable-background="new 0 0 162.209 110.464"
	 xml:space="preserve">
<g>
	<path fill="#416B6D" d="M25.846,9.89c-0.14,0.06-0.1-0.12-0.2-0.36C25.586,9.37,25.986,9.83,25.846,9.89z M25.886,4.048
		c-0.04-0.6,1.561-0.6,1.601,0c0.2,4.001-0.1,4.281,0,6.602c0.04,0.9,6.541,0.4,6.701-0.1c0.88-2.76-0.26-4.561,0.1-6.201
		c0.16-0.76,1.32-0.8,1.8-0.3c0,0-0.54,8.722-0.2,15.104c0,0-0.84,0.4-1.701,0.2c0,0,0.22-5.541,0.1-6.901
		c-0.08-0.8-5.901-0.24-6.501-0.1c-0.94,0.22,0.44,6.162-0.4,7.302c-0.34,0.46-0.92,0.08-1.5,0.1
		C25.886,19.752,26.306,9.57,25.886,4.048z M29.727,11.95c0.08,0.74,1.32,0.1,1.84,0.6c0.78,0.76,0.84,1.98,0.2,2.881
		c-0.36,0.52-0.9,0.5-1.4,0.9c-0.62,0.5,1.44-0.66,1.7-1.5c0.3-0.96,0.02-1.92-0.8-2.501c-0.52-0.36-1.44,0.22-1.601-0.4
		s1.621-1.521,1.101-1.2C30.146,11.11,29.646,11.33,29.727,11.95z"/>
	<path fill="#416B6D" d="M31.364,17.932c0,0.12-0.04,0.22-0.08,0.32c-0.12,0.28-0.38-0.74-0.1-0.82
		C31.264,17.571,31.364,17.731,31.364,17.932z M40.886,14.411c0.94-0.6,5.141-0.26,5.141-0.26c0.32-0.06,0.34-1.141-0.02-2.421
		c-0.06-0.18-0.14-1-0.22-1.16c-0.16-0.3-0.2-0.06-0.36-0.36c-0.3-0.58-0.56-1.101-1.1-1.16c-0.16-0.02-0.28-0.5-0.36-0.541
		c-0.48-0.26-0.9-0.22-1.54-0.22c-0.8,0-1.641,0.26-2.241,0.54c-0.48,0.22-0.28,0.22-0.36,0.34c-0.72,1.101-1.621,2.381-1.82,4.961
		c-0.04,0.58-0.12,1.14,0,1.6c0.82,2.941,2.3,4.241,4.421,4.241c1.9,0,3.821-2.781,3.141-2.761l-0.12-0.26
		c-0.52-0.16-2.661,2.46-3.141,2.261c-0.44-0.18-1.98-0.52-2.881-1.661c-0.18-0.22-0.06-0.24-0.28-0.48
		c-0.6-0.62,0.14-1.04,0.14-2.641C39.286,14.431,40.366,14.731,40.886,14.411z M43.327,13.21c-1.44,0.26-3.801,0.42-3.801,0.42
		c-0.54,0.02-0.24-2.74,1.22-3.581c0.46-0.26,1.2-0.8,1.96-0.64c0.62,0.14,1.701,0.48,1.9,1.24c0.06,0.22,0.28,0.08,0.24,0.62
		c-0.08,1,0.26,1.96,0,2.041C44.847,13.311,43.787,13.13,43.327,13.21z M44.887,13.851c-0.24-0.36,0.08-0.88,0.08-0.88
		C44.807,12.891,45.187,14.291,44.887,13.851z"/>
	<path fill="#416B6D" d="M50.846,3.829c-0.3,5.901,0.14,8.122,0.2,15.503c0,0.48-1.72,0.76-1.7,0.1
		c0.06-4.201-0.12-8.441-0.12-11.862c0-0.36-0.4-1.041-0.38-1.44c0-0.34,0.2-0.6,0.2-1c0.04-1.141,0.2,0.52,0.3-1.101
		C49.386,3.468,50.866,3.249,50.846,3.829z M49.446,6.729c0.2-0.9,0.5-1.3,0-1.3C48.945,5.429,49.346,7.209,49.446,6.729z
		 M49.866,11.45c-0.1,0.42-0.2-1.541-0.06-1.14c0.08,0.22,0.12,0.36,0.12,0.6C49.926,11.13,49.906,11.25,49.866,11.45z"/>
	<path fill="#416B6D" d="M54.305,8.77c-0.4,0,0.06-1.22,0.48-1.06c0.18,0.08,0.54,0.5,0.48,0.68c0.06,0.1-0.04,0.14-0.06,0.14
		C54.625,8.529,54.565,8.77,54.305,8.77z M54.365,9.95c0.1,3.741,0,13.363-0.1,14.703c-0.04,0.64,0.34,0.92,0.34,0.92
		s0.42,0.12,0.66,0.08c0.7-0.14,0.5-1.781,0.5-1.781l0.1-5.481c0.74-0.48,1.6,1.581,2.82,1.581c1.5,0,4.041-1.38,4.041-5.622
		c0-4.341-2.201-6.061-4.101-6.061c-1.06,0-2.24,0.3-2.96,1.06l-0.4-0.64C55.266,8.709,54.325,8.33,54.365,9.95z M55.565,13.05
		c0.04-1.08,0.5-2.72,0.5-2.72c0.48-0.96,1.38-0.78,2.581-0.78c2.181,0,2.44,3.101,2.44,4.761c0,3.241-1.54,4.301-2.62,4.301
		c-1.101,0-1.96-0.92-2.401-1.86C56.065,16.751,55.505,14.511,55.565,13.05z"/>
	<path fill="#416B6D" d="M66.246,5.709c0,0-0.34,0.34-0.6,0.34c-0.14,0-0.36-0.14-0.36-0.14s-0.5-0.4-0.54-0.76
		c-0.06-0.4,0.34-0.96,0.34-0.96s0.3-0.12,0.46-0.14c0.3-0.04,0.8,0.04,0.8,0.04s0.1,0.46,0.1,0.76
		C66.446,5.189,66.246,5.709,66.246,5.709z M66.446,19.652h-1.561c0,0,0.24-6.261-0.04-10.402c-0.02-0.22,0.04-0.64,0.04-0.64
		s0.64-0.12,0.96,0.04c0.12,0.06,0.3,0.26,0.3,0.26s0.2,0.14,0.1,1.74C66.045,13.851,66.446,19.652,66.446,19.652z"/>
	<path fill="#416B6D" d="M70.246,19.252c0,0-0.18,0.58-0.46,0.6c-0.32,0.02-0.6-0.6-0.6-0.6l-0.3-10.842c0,0,0.94-0.22,1.2,0.14
		c0.12,0.18,0.16,0.56,0.16,0.56l0.2,0.64c0.92-0.74,1.78-1.46,3.041-1.46c1.56,0,2.98,0.86,2.821,3.741c0,0,0.6,4.381-0.42,6.821
		c-0.08,0.22-0.28,0.6-0.28,0.6l-0.66,0.1c0,0-0.46,0.12-0.4-0.3c0.1-0.88,0.56-2.961,0.54-4.101c-0.02-0.98-0.24-2.521-0.24-2.521
		c-0.1-1.12,0-2.44-1.561-3.061c-1.76-0.7-2.22,0.94-2.84,1.68L70.246,19.252z"/>
	<path fill="#416B6D" d="M87.927,9.51l-0.58,0.2c-0.281,0.08-0.681-0.2-1.081,0.02c-0.319,0.02,0.44,1.58,0.44,2.4
		c0,2.14-1.58,3.801-3.721,3.801c-0.641,0-1.8-0.18-2.38-0.4c-0.22-0.38-1.36,0.64-1.36,1.181c0,1.4,8.381-0.3,8.381,3.881
		c0,0.82-0.32,3.36-4.74,3.36c-3.601,0-4.661-1.88-4.661-3.241c0-1.14,1-1.76,1.92-2.16c0.06-0.32-1.38-0.74-1.38-1.541
		c0-0.98,1.3-1.7,1.26-2.081c-0.8-0.94-1.1-1.54-1.1-2.84c0-2.241,1.68-3.801,3.9-3.801c0.88,0,1.68,0.26,2.4,0.78
		c0.721-0.541,1.561-0.94,2.5-0.84L87.927,9.51z M80.326,19.592c0.28-0.6-1.581,1.641-0.72,1.621c0.68-0.02,0.22-0.521,0.36-0.84
		C80.085,20.092,80.206,19.872,80.326,19.592z M81.746,18.731c-0.84,0.16-2.02,0.9-2.02,1.9c0,1.521,2.48,2.681,3.54,2.681
		c1.121,0,2.861-1.3,2.861-2.82c0-1.161-1.9-2.281-2.621-2.141L81.746,18.731z M82.866,9.109c-1.5,0-2.8,1.621-2.8,3.041
		c0,1.38,1.28,2.9,2.72,2.9c1.601,0,2.48-1.4,2.48-2.92C85.266,10.69,84.425,9.109,82.866,9.109z M84.345,25.713
		c-0.239,0.14,0.16,0.68,0.361,0.6C85.106,26.173,84.585,25.573,84.345,25.713z"/>
	<path fill="#416B6D" d="M102.226,11.79c-0.141,0.6-0.461,1.32-0.7,2.021c-1.421,4.101-3.36,8.722-5.921,9.662
		c-0.42,0.16-1.721,0.18-1.701-0.32l-0.02-0.581c0.16-0.6,0.76-0.4,1.061-0.28c1.74,0.72,3.74-1.601,3.34-2.841L94.764,9.73
		c0,0,1.061-1.681,1.4-1.081c0.16,0.28,0.06,0.8,0.06,0.8s2.262,8.562,2.781,9.042c0.58,0.54,0.22-0.34,0.22-0.34
		s0.8-3.121,1.44-5.081c0.34-1.04,0.36-1.64,0.74-2.76c0.1-0.32,0.221-0.38,0.221-0.38s0.56-0.44,0.899-0.32
		C103.085,9.81,102.826,10.03,102.226,11.79z M101.806,14.531c0.18-0.02,0.06,1.02,0.4,0.88
		C102.546,15.271,101.286,14.591,101.806,14.531z"/>
	<path fill="#416B6D" d="M104.365,14.131c0-4.141,1.959-5.841,4.42-5.841s4.121,2,4.121,6.141c0,4.141-1.66,5.542-4.121,5.542
		c-1.32,0-2.48-0.48-3.28-1.561c-0.14-0.18-0.101-0.54-0.22-0.76c-0.221-0.4-0.561-0.7-0.681-1.24
		C104.444,15.751,104.365,14.991,104.365,14.131z M105.544,17.332c-0.28,0.08-0.02,1.1,0.1,0.82c0.041-0.1,0.08-0.2,0.08-0.32
		C105.724,17.631,105.625,17.471,105.544,17.332z M111.545,14.131c0.28-1.86-0.159-5.021-2.561-5.021
		c-2.4,0-3.061,3.141-3.061,5.021s0.66,5.421,3.061,5.421C111.386,19.552,110.845,18.711,111.545,14.131z"/>
	<path fill="#416B6D" d="M122.606,10.85l0.14,8.802c0,0-0.9,0.36-1.26,0.04c-0.08-0.06-0.18-0.24-0.18-0.24l-0.041-0.46
		c-0.039-1.46-1.859,0.98-3.12,0.98c-1.561,0-2.821-0.86-2.821-3.741c0,0,0.281-4.241,0-6.781c-0.119-1.1,0.841-0.84,0.841-0.84
		l0.479,0.04c0,0,0.32,0,0.24,0.6c-0.34,2.621-0.199,6.582-0.199,6.582c-0.041,1.16,1,3.061,2.26,3.061c0.961,0,2.141-0.7,2.24-1.88
		c0,0,0.121-5.801,0.021-7.922c0-0.12,0.24-0.12,0.36-0.2c0.16-0.08,0.24-0.22,0.4-0.28c0.1-0.04,0.6,0.08,0.72,0.08
		C123.126,8.729,122.606,10.85,122.606,10.85z M117.185,11.27c0.02-0.42-0.9-0.62-0.621-0.96c0.101-0.14,0.381-0.24,0.381-0.24
		c0.061,0.02-0.28,0.1-0.381,0.22C116.285,10.63,117.224,10.83,117.185,11.27z"/>
	<path fill="#416B6D" d="M126.464,19.472c-0.3,0.04-0.32,0.14-0.881,0.12c0,0-0.6,0.02-0.399-1c0.42-2.141,0-7.562-0.04-9.542
		c0-0.46,0.94-0.44,0.94-0.44l0.56,0.2l0.061,2.181l0.02,0.06c0.461,0.22,1.761-2.8,3.121-2.6c0,0,0.359-0.02,0.52,0.08
		c0.301,0.2,0.021,0.541,0.041,0.98c0.14,0.48-0.921,0.38-1.381,0.68c-1,0.64-1.66,1.74-2.28,3.201c0,0-0.16,3.261-0.12,4.281
		c0,0.14-0.02,0.54,0.061,0.7c0.08,0.18,0.139,0.12,0.159,0.3c0.04,0.26-0.021,0.32-0.021,0.44
		C126.824,19.332,126.644,19.452,126.464,19.472z M125.464,17.771c0,0-0.5,1.541,0.061,1.541
		C125.724,19.312,125.724,17.812,125.464,17.771z M127.405,9.27c-0.04-0.44-0.841,0.06-1.12-0.26c-0.381-0.44,0.359-0.92,0.3-1.521
		c-0.06-0.56-0.341-0.88-0.62-1.34c-0.36-0.6,0.58,0.64,0.6,1.42c0.021,0.6-0.619,1-0.279,1.44c0.26,0.34,1.1-0.16,1.12,0.28
		c0,0.16-0.181,0.44-0.12,0.42C127.285,9.71,127.405,9.45,127.405,9.27z M126.504,18.472c0,0-0.16,0.36,0.22,0.52
		C126.924,19.072,126.605,18.191,126.504,18.472z M128.044,12.31c0,0-0.52,0.38,0.041,0.38
		C128.285,12.69,128.304,12.35,128.044,12.31z"/>
	<path fill="#416B6D" d="M3.866,43.552c-0.32-1.16,0.24-11.383-0.4-15.304c-0.1-0.56,2.041-0.38,2,0.7
		c-0.12,3.501-0.48,10.502,0.4,13.103c0.28,0.82,3.841,0.14,6.421,0.2c0,0,0.18,0.42,0.18,0.7s-0.18,0.7-0.18,0.7
		C9.067,42.972,3.866,43.552,3.866,43.552z M7.127,26.988c1.44,0.1,2.701,0.32,2.841,0.941c0.14,0.58-0.04,1.039-0.34,1.56
		c-0.86,1.44-3.061-1.3-4.321-0.24c-0.32,0.261-0.92,0.521-0.72,0.9c0.14,0.261,0.86-0.08,0.82,0.24c0,0.101-0.08,0.22-0.14,0.26
		c-0.1,0.08,0.14-0.2,0.14-0.34c0-0.32-0.64,0.12-0.82-0.14c-0.24-0.36,0.36-0.621,0.68-0.9c1.24-1.101,3.361,1.68,4.301,0.3
		c0.34-0.521,0.56-0.979,0.44-1.601C9.768,26.828,4.646,26.808,7.127,26.988z"/>
	<path fill="#416B6D" d="M13.826,38.13c0-4.141,1.96-5.841,4.421-5.841s4.121,2.001,4.121,6.142s-1.66,5.541-4.121,5.541
		c-1.32,0-2.48-0.48-3.281-1.561c-0.14-0.18-0.1-0.54-0.22-0.76c-0.22-0.4-0.56-0.701-0.68-1.24
		C13.906,39.751,13.826,38.991,13.826,38.13z M15.006,41.332c-0.28,0.08-0.02,1.1,0.1,0.82c0.04-0.101,0.08-0.2,0.08-0.32
		C15.186,41.631,15.086,41.471,15.006,41.332z M21.007,38.13c0.28-1.859-0.16-5.021-2.561-5.021c-2.4,0-3.061,3.142-3.061,5.021
		c0,1.881,0.66,5.422,3.061,5.422C20.848,43.552,20.307,42.711,21.007,38.13z"/>
	<path fill="#416B6D" d="M22.786,32.45c-0.16,0.02-0.24-0.38-0.08-0.4C22.866,32.029,22.946,32.429,22.786,32.45z M32.388,35.21
		c0.8,0.22-1.64-2.921-3.46-2.921c-2.461,0-4.421,1.7-4.421,5.841s1.96,5.842,4.421,5.842c1.78,0,4.521-2.74,3.561-3.021
		l-0.14-0.319c-0.36-0.44-1.68,2.44-3.021,2.501c-2.4,0-3.381-3.081-3.701-5.521c-0.24-1.861,0.9-4.001,3.301-4.001
		c1.24-0.04,1.94,2.16,2.521,1.98L32.388,35.21z M28.107,43.292c-0.24-0.361,0-0.48,0-0.48
		C30.908,43.652,28.407,43.732,28.107,43.292z M28.907,39.691c-0.02,0.1,0.02,0.221,0.08,0.28c0.14,0.14,0.42-0.521,0.2-0.521
		C29.047,39.451,28.927,39.55,28.907,39.691z M31.188,35.25c-0.24-0.359,0-0.479,0-0.479C31.027,34.69,31.488,35.69,31.188,35.25z"
		/>
	<path fill="#416B6D" d="M41.247,43.572l-0.36-1.32c-1.14,0.32-1.9,1.721-3.201,1.721c-1.701,0-3.061-1.42-3.061-3.161
		c0-3.161,3.32-3.841,5.761-4.501l0.5-0.14v-0.62c0-1.26-0.3-2.101-2.141-1.94c-2.061,0.18-2.621,2.16-3.301,1.38l-0.18-0.42
		c-0.48-0.24,1.84-2.28,3.521-2.28c1.5,0,3.241,1.2,3.341,3.721l0.24,4.921c0.02,0.28,0.18,2.5-0.22,2.521L41.247,43.572z
		 M35.526,42.931c0.12-0.279,0.16,0.641,0.16-0.239l-0.24-0.08C35.166,43.412,35.526,42.931,35.526,42.931z M40.787,37.31
		c0.14-1-5.101,1.361-5.101,3.342c0,0.92,1.12,1.84,2.061,1.84c1.24,0,3.301-1.221,3.141-1.801l-0.12-3.24L40.787,37.31z
		 M36.366,34.33c0.72,0.021,1.56-0.5,1.2-0.96S35.786,34.31,36.366,34.33z M41.047,36.25c0,0-0.44,1.72-0.2,2.08
		C41.147,38.771,40.887,36.17,41.047,36.25z M41.247,42.612c0,0-0.22,0.12,0,0.479C41.987,44.332,41.087,42.532,41.247,42.612z"/>
	<path fill="#416B6D" d="M47.207,27.829c-0.3,5.901,0.14,8.122,0.2,15.503c0,0.48-1.72,0.76-1.7,0.1
		c0.06-4.2-0.12-8.441-0.12-11.861c0-0.361-0.4-1.041-0.38-1.441c0-0.34,0.2-0.6,0.2-1c0.04-1.141,0.2,0.521,0.3-1.1
		C45.746,27.468,47.226,27.249,47.207,27.829z M45.806,30.729c0.2-0.899,0.5-1.3,0-1.3C45.306,29.429,45.706,31.208,45.806,30.729z
		 M46.226,35.451c-0.1,0.42-0.2-1.541-0.06-1.141c0.08,0.22,0.12,0.359,0.12,0.6C46.286,35.13,46.266,35.25,46.226,35.451z"/>
	<path fill="#416B6D" d="M65.187,41.251c0.36-0.061,0.58,0.88,0.5,1.5c-0.04,0.42-0.08,1.101-0.5,1c-3-0.66-9.022,0.86-9.002-0.66
		c0.02-2.141,0.3-10.222,0.1-15.143c0-0.16,5.041,0.039,8.102-0.3c0.54-0.06,0.76,1.42,0.4,1.4c-4.341-0.18-2.661,0.021-5.101,0
		c-0.62,0-1.48-0.42-1.561,0.121c-0.28,1.8-0.28,5.701-0.02,5.681c0.86-0.021,1.181,0.22,3.181,0c0.2-0.021,0.66-0.3,1-0.101
		c0.46,0.261,0.34,1.381,0,1.4c-1.34,0.061-2.281,0.08-4.201,0.4c-0.14,0.02-0.06,2.74-0.3,4.602
		C57.766,41.372,62.187,41.751,65.187,41.251z"/>
	<path fill="#416B6D" d="M68.906,43.251c0,0-0.18,0.58-0.46,0.601c-0.32,0.021-0.6-0.601-0.6-0.601l-0.3-10.842
		c0,0,0.94-0.221,1.2,0.14c0.12,0.181,0.16,0.56,0.16,0.56l0.2,0.641c0.92-0.74,1.78-1.46,3.041-1.46c1.56,0,2.98,0.86,2.821,3.741
		c0,0,0.6,4.381-0.42,6.82c-0.08,0.221-0.28,0.601-0.28,0.601l-0.66,0.101c0,0-0.46,0.119-0.4-0.301c0.1-0.88,0.56-2.961,0.54-4.101
		c-0.02-0.979-0.24-2.521-0.24-2.521c-0.1-1.12,0-2.44-1.561-3.061c-1.76-0.7-2.22,0.939-2.84,1.68L68.906,43.251z"/>
	<path fill="#416B6D" d="M83.066,33.75c0.2-0.82,1.26-0.14,1.26-0.14s-0.42,3.301-1.58,5.94c-0.72,1.641-0.58,0.781-1.379,2.781
		c0,0-0.02,1.7-1.2,1.08c0,0-3.861-9.042-3.321-9.941c0.4-0.66,1.2-0.601,1.04,0.039c0,0,0.2-0.42,0.28,0.141
		c0.48,3.381,1.78,7.021,2.2,8.182C81.186,44.112,80.986,42.431,83.066,33.75z"/>
	<path fill="#416B6D" d="M87.685,29.708c0,0-0.34,0.34-0.6,0.34c-0.141,0-0.361-0.14-0.361-0.14s-0.5-0.399-0.539-0.76
		c-0.061-0.4,0.34-0.96,0.34-0.96s0.3-0.121,0.46-0.141c0.3-0.04,0.8,0.04,0.8,0.04s0.101,0.46,0.101,0.761
		C87.885,29.189,87.685,29.708,87.685,29.708z M87.885,43.652h-1.561c0,0,0.24-6.262-0.04-10.402c-0.02-0.22,0.04-0.641,0.04-0.641
		s0.64-0.119,0.96,0.041c0.12,0.06,0.301,0.26,0.301,0.26s0.199,0.141,0.1,1.74C87.485,37.851,87.885,43.652,87.885,43.652z"/>
	<path fill="#416B6D" d="M91.645,43.472c-0.3,0.039-0.319,0.14-0.88,0.119c0,0-0.601,0.021-0.4-1c0.42-2.141,0-7.562-0.04-9.541
		c0-0.461,0.94-0.441,0.94-0.441l0.561,0.201l0.06,2.18l0.021,0.061c0.459,0.22,1.76-2.801,3.12-2.601c0,0,0.36-0.021,0.521,0.079
		c0.299,0.201,0.02,0.541,0.039,0.98c0.141,0.48-0.92,0.381-1.38,0.681c-1,0.64-1.66,1.74-2.28,3.2c0,0-0.16,3.262-0.12,4.281
		c0,0.141-0.021,0.54,0.06,0.7c0.08,0.181,0.141,0.12,0.16,0.3c0.04,0.26-0.02,0.32-0.02,0.44
		C92.005,43.332,91.826,43.452,91.645,43.472z M90.645,41.771c0,0-0.501,1.541,0.06,1.541
		C90.905,43.312,90.905,41.812,90.645,41.771z M92.585,33.269c-0.04-0.439-0.84,0.061-1.121-0.26
		c-0.379-0.439,0.361-0.92,0.301-1.52c-0.061-0.561-0.34-0.881-0.62-1.341c-0.36-0.601,0.58,0.64,0.601,1.421
		c0.02,0.6-0.621,1-0.281,1.439c0.261,0.34,1.102-0.16,1.121,0.28c0,0.16-0.18,0.44-0.12,0.421
		C92.465,33.71,92.585,33.45,92.585,33.269z M91.685,42.472c0,0-0.16,0.359,0.221,0.52C92.105,43.072,91.785,42.191,91.685,42.472z
		 M93.226,36.31c0,0-0.521,0.381,0.039,0.381C93.465,36.691,93.486,36.35,93.226,36.31z"/>
	<path fill="#416B6D" d="M97.025,38.13c0-4.141,1.961-5.841,4.421-5.841s4.12,2.001,4.12,6.142s-1.66,5.541-4.12,5.541
		c-1.32,0-2.48-0.48-3.28-1.561c-0.141-0.18-0.101-0.54-0.221-0.76c-0.221-0.4-0.561-0.701-0.68-1.24
		C97.105,39.751,97.025,38.991,97.025,38.13z M98.205,41.332c-0.279,0.08-0.02,1.1,0.101,0.82c0.04-0.101,0.079-0.2,0.079-0.32
		C98.384,41.631,98.285,41.471,98.205,41.332z M104.207,38.13c0.279-1.859-0.16-5.021-2.561-5.021s-3.061,3.142-3.061,5.021
		c0,1.881,0.66,5.422,3.061,5.422S103.505,42.711,104.207,38.13z"/>
	<path fill="#416B6D" d="M109.345,43.251c0,0-0.18,0.58-0.46,0.601c-0.32,0.021-0.601-0.601-0.601-0.601l-0.3-10.842
		c0,0,0.94-0.221,1.2,0.14c0.12,0.181,0.16,0.56,0.16,0.56l0.2,0.641c0.92-0.74,1.78-1.46,3.04-1.46c1.561,0,2.98,0.86,2.821,3.741
		c0,0,0.601,4.381-0.421,6.82c-0.08,0.221-0.279,0.601-0.279,0.601l-0.66,0.101c0,0-0.461,0.119-0.4-0.301
		c0.1-0.88,0.561-2.961,0.54-4.101c-0.021-0.979-0.239-2.521-0.239-2.521c-0.101-1.12,0-2.44-1.561-3.061
		c-1.761-0.7-2.221,0.939-2.841,1.68L109.345,43.251z"/>
	<path fill="#416B6D" d="M123.867,42.952c0,0,0.02-2.88,0.039-4.701c0-0.88,0.061-2.32,0.061-2.32c0.06-2.021,0-2.36-1.66-2.36
		c-1.341,0.04-2.141,0.74-2.941,1.46c0,0-0.22,2.961-0.26,4.821c-0.04,1.42-0.04,3.701-0.04,3.701l-1.16,0.1
		c0,0,0.021-4.921,0-5.301c-0.3-3.541-0.101-4.682,0.101-5.682c0.14-0.68,0.6-0.26,0.6-0.26l0.46,0.5l0.3,0.68
		c0.961-0.779,1.781-1.3,3.061-1.3c1.181,0,2.081,0.5,2.661,1.5c1.021-0.819,2.001-1.479,3.38-1.5c1.561,0,2.621,0.761,2.621,3.641
		c0,0,0,2.54,0.02,4.121c0,1.38,0.08,3.601,0.08,3.601c-0.56,0-1.22-0.04-1.38,0c-0.521,0.16,0.021-7.121,0.021-7.121
		c0.02-3.762,0.199-3.361-1.461-3.361c-1.141-0.02-2.381,1.16-3.041,1.86c0,0-0.159,7.102-0.219,8.222
		C125.066,43.873,123.867,42.952,123.867,42.952z M119.505,32.349c-0.04,0.041,0.4,0.721,0.1,0.101
		C119.065,31.33,119.544,32.31,119.505,32.349z M128.107,45.252c-0.26,0.18,0.801,1.319,0.5,0.7
		C128.067,44.832,128.367,45.072,128.107,45.252z"/>
	<path fill="#416B6D" d="M126.763,41.931c0,0.12-0.04,0.221-0.08,0.32c-0.12,0.28-0.38-0.74-0.1-0.82
		C126.664,41.572,126.763,41.732,126.763,41.931z M136.285,38.411c0.941-0.601,5.142-0.26,5.142-0.26
		c0.32-0.06,0.341-1.141-0.021-2.421c-0.06-0.18-0.14-1-0.22-1.16c-0.159-0.3-0.2-0.061-0.36-0.359c-0.3-0.58-0.56-1.102-1.1-1.16
		c-0.16-0.021-0.28-0.501-0.36-0.541c-0.479-0.26-0.899-0.22-1.54-0.22c-0.801,0-1.641,0.26-2.24,0.54
		c-0.48,0.221-0.28,0.221-0.36,0.34c-0.72,1.101-1.62,2.381-1.82,4.961c-0.04,0.58-0.12,1.141,0,1.601
		c0.819,2.94,2.3,4.241,4.421,4.241c1.9,0,3.82-2.781,3.141-2.761l-0.12-0.261c-0.521-0.16-2.661,2.461-3.141,2.262
		c-0.44-0.181-1.98-0.521-2.881-1.661c-0.18-0.22-0.06-0.239-0.28-0.479c-0.6-0.621,0.141-1.041,0.141-2.641
		C134.685,38.431,135.765,38.731,136.285,38.411z M138.726,37.21c-1.441,0.26-3.801,0.42-3.801,0.42
		c-0.541,0.02-0.24-2.74,1.22-3.58c0.46-0.261,1.2-0.801,1.96-0.641c0.621,0.141,1.701,0.48,1.9,1.24
		c0.061,0.221,0.281,0.08,0.24,0.62c-0.08,1.001,0.26,1.96,0,2.04C140.246,37.31,139.186,37.13,138.726,37.21z M140.287,37.851
		c-0.24-0.36,0.08-0.881,0.08-0.881C140.207,36.89,140.585,38.291,140.287,37.851z"/>
	<path fill="#416B6D" d="M145.285,43.251c0,0-0.18,0.58-0.46,0.601c-0.32,0.021-0.601-0.601-0.601-0.601l-0.3-10.842
		c0,0,0.94-0.221,1.2,0.14c0.12,0.181,0.16,0.56,0.16,0.56l0.2,0.641c0.92-0.74,1.78-1.46,3.04-1.46c1.561,0,2.98,0.86,2.821,3.741
		c0,0,0.601,4.381-0.421,6.82c-0.08,0.221-0.279,0.601-0.279,0.601l-0.66,0.101c0,0-0.461,0.119-0.4-0.301
		c0.1-0.88,0.561-2.961,0.54-4.101c-0.021-0.979-0.239-2.521-0.239-2.521c-0.101-1.12,0-2.44-1.561-3.061
		c-1.761-0.7-2.221,0.939-2.841,1.68L145.285,43.251z"/>
	<path fill="#416B6D" d="M153.064,32.65c0.301-0.4,1.32-0.041,1.32-0.041l0.08-3.301c0,0,0.1-0.359,0.24-0.459
		c0.32-0.24,1.04,0.34,1.04,0.34s0.16,0.92,0.04,1.98c-0.061,0.6,0.16,1.439,0.16,1.439s2.221-0.72,2.48,0.201
		c0.04,0.14,0.061,0.399,0.061,0.399l-0.361,0.64l-2.18,0.08c0,0,0,0.48,0,0.801c0,0.18-0.28,0.42-0.28,0.62
		c0,0.14,0.28,0.921,0.28,1.06c0,2.301,0,4.461,0,4.461c0,1.081-0.12,3.121,0.859,2.262c0.32-0.281,1.221-1.761,1.521-1.061
		l0.279,0.22c0.66,0.42-1.18,1.681-1.721,1.681c-2.641,0-2.5-1.781-2.5-3.801v-6.242l-1.08-0.039
		C153.304,33.89,152.764,33.05,153.064,32.65z"/>
</g>
<text transform="matrix(1 0 0 1 -245.1167 78.6519)"><tspan x="0" y="0" fill="#416B6D" font-family="'DeGenerate'" font-size="20">Helping your </tspan><tspan x="-21.919" y="24" fill="#416B6D" font-family="'DeGenerate'" font-size="20">Local Environment</tspan></text>
<g>
	<path fill="none" stroke="#416B6D" stroke-linecap="round" stroke-miterlimit="10" d="M-198.169,130.824
		c4.171,3.117,5.024,9.025,1.907,13.195c-2.182,2.92-6.317,3.518-9.236,1.335c-2.044-1.526-2.462-4.422-0.935-6.466
		c1.069-1.43,3.095-1.723,4.525-0.654c1.002,0.748,1.207,2.168,0.458,3.169c-0.523,0.701-1.517,0.845-2.218,0.32
		c-0.49-0.366-0.591-1.062-0.224-1.552c0.256-0.344,0.743-0.414,1.086-0.158c0.241,0.181,0.29,0.521,0.11,0.762"/>
	<path fill="#DBF7FC" stroke="#416B6D" stroke-linecap="round" stroke-miterlimit="10" d="M-215.731,131.832
		c0,0,14.595-11.281,32.827-9.322c10.134,1.143,20.564,5.773,15.479,16.746c-5.087,10.971-19.654-2.34-27.667-6.675
		S-215.731,131.832-215.731,131.832z"/>
	<path fill="none" stroke="#416B6D" stroke-linecap="round" stroke-miterlimit="10" d="M-226.789,155.681
		c-3.608-9.568,1.424-20.309,11.251-24.015"/>
	<path fill="none" stroke="#416B6D" stroke-linecap="round" stroke-miterlimit="10" d="M-177.116,131.542
		c-0.378-4.439-12.672-7.01-27.485-5.747"/>
	<path fill="none" stroke="#416B6D" stroke-linecap="round" stroke-miterlimit="10" d="M-181.226,136.303
		c0.092-4.454-11.861-8.306-26.727-8.61"/>
	<circle fill="#73D100" stroke="#416B6D" stroke-linecap="round" stroke-miterlimit="10" cx="-188.28" cy="144.796" r="3"/>
	<circle fill="#73D100" stroke="#416B6D" stroke-linecap="round" stroke-miterlimit="10" cx="-181" cy="146.309" r="1.875"/>
	<circle fill="#73D100" stroke="#416B6D" stroke-linecap="round" stroke-miterlimit="10" cx="-173.991" cy="147.593" r="1.75"/>
	<circle fill="#73D100" stroke="#416B6D" stroke-linecap="round" stroke-miterlimit="10" cx="-168.119" cy="145.838" r="1.25"/>
	<circle fill="#73D100" stroke="#416B6D" stroke-linecap="round" stroke-miterlimit="10" cx="-163.507" cy="140.708" r="1.969"/>
	<circle fill="#73D100" stroke="#416B6D" stroke-linecap="round" stroke-miterlimit="10" cx="-156.527" cy="137.571" r="1.502"/>
	<circle fill="#73D100" stroke="#416B6D" stroke-linecap="round" stroke-miterlimit="10" cx="-151.761" cy="133.164" r="1.625"/>
</g>
<g>
	<g>
		<path fill="none" stroke="#416B6D" stroke-width="0.4345" stroke-linecap="round" stroke-miterlimit="10" d="M51.582,73.685
			c-1.986,2.271-1.756,5.72,0.515,7.707c1.588,1.39,4.003,1.229,5.394-0.36c0.973-1.113,0.859-2.804-0.252-3.776
			c-0.779-0.681-1.962-0.603-2.644,0.176c-0.477,0.545-0.421,1.374,0.124,1.851c0.382,0.334,0.962,0.295,1.296-0.087
			c0.233-0.267,0.206-0.672-0.061-0.906c-0.188-0.164-0.471-0.145-0.635,0.043c-0.114,0.131-0.101,0.329,0.029,0.443"/>
		<path fill="#DBF7FC" stroke="#416B6D" stroke-width="0.4345" stroke-linecap="round" stroke-miterlimit="10" d="M61.652,72.133
			c0,0-9.631-4.626-19.723-1.313c-5.603,1.872-10.953,5.756-6.746,11.357c4.208,5.601,10.852-3.701,14.868-7.125
			C54.065,71.627,61.652,72.133,61.652,72.133z"/>
		<path fill="none" stroke="#416B6D" stroke-width="0.4345" stroke-linecap="round" stroke-miterlimit="10" d="M70.798,84.307
			c0.888-5.855-3.26-11.333-9.276-12.243"/>
		<path fill="none" stroke="#416B6D" stroke-width="0.4345" stroke-linecap="round" stroke-miterlimit="10" d="M39.741,76.636
			c-0.322-2.561,6.331-5.502,14.877-6.576"/>
		<path fill="none" stroke="#416B6D" stroke-width="0.4345" stroke-linecap="round" stroke-miterlimit="10" d="M42.645,78.837
			c-0.59-2.513,5.716-6.14,14.101-8.108"/>
		
			<circle fill="#73D100" stroke="#416B6D" stroke-width="0.4345" stroke-linecap="round" stroke-miterlimit="10" cx="47.668" cy="82.795" r="1.738"/>
		
			<circle fill="#73D100" stroke="#416B6D" stroke-width="0.4345" stroke-linecap="round" stroke-miterlimit="10" cx="43.726" cy="84.532" r="1.086"/>
		
			<circle fill="#73D100" stroke="#416B6D" stroke-width="0.4345" stroke-linecap="round" stroke-miterlimit="10" cx="39.911" cy="86.107" r="1.014"/>
		
			<circle fill="#73D100" stroke="#416B6D" stroke-width="0.4345" stroke-linecap="round" stroke-miterlimit="10" cx="36.372" cy="85.822" r="0.724"/>
		
			<circle fill="#73D100" stroke="#416B6D" stroke-width="0.4345" stroke-linecap="round" stroke-miterlimit="10" cx="33.139" cy="83.475" r="1.141"/>
		
			<circle fill="#73D100" stroke="#416B6D" stroke-width="0.4345" stroke-linecap="round" stroke-miterlimit="10" cx="28.806" cy="82.54" r="0.87"/>
		
			<circle fill="#73D100" stroke="#416B6D" stroke-width="0.4345" stroke-linecap="round" stroke-miterlimit="10" cx="25.573" cy="80.619" r="0.941"/>
	</g>
	<g>
		<path fill="none" stroke="#416B6D" stroke-width="0.3515" stroke-linecap="round" stroke-miterlimit="10" d="M115.124,72.942
			c1.897,1.533,2.192,4.315,0.657,6.213c-1.074,1.327-3.021,1.534-4.351,0.46c-0.93-0.752-1.072-2.115-0.32-3.045
			c0.526-0.65,1.479-0.751,2.13-0.225c0.457,0.368,0.527,1.036,0.159,1.491c-0.259,0.319-0.727,0.369-1.045,0.11
			c-0.223-0.18-0.258-0.507-0.078-0.73c0.127-0.156,0.355-0.181,0.513-0.055c0.109,0.089,0.126,0.248,0.038,0.358"/>
		<path fill="#DBF7FC" stroke="#416B6D" stroke-width="0.3515" stroke-linecap="round" stroke-miterlimit="10" d="M106.881,73.098
			c0,0,7.036-5.021,15.539-3.778c4.726,0.716,9.527,3.071,6.949,8.117c-2.578,5.049-9.162-1.445-12.838-3.618
			C112.858,71.646,106.881,73.098,106.881,73.098z"/>
		<path fill="none" stroke="#416B6D" stroke-width="0.3515" stroke-linecap="round" stroke-miterlimit="10" d="M101.277,84.071
			c-1.519-4.546,1.029-9.485,5.698-11.046"/>
		<path fill="none" stroke="#416B6D" stroke-width="0.3515" stroke-linecap="round" stroke-miterlimit="10" d="M124.97,73.654
			c-0.098-2.087-5.81-3.51-12.77-3.183"/>
		<path fill="none" stroke="#416B6D" stroke-width="0.3515" stroke-linecap="round" stroke-miterlimit="10" d="M122.961,75.809
			c0.121-2.084-5.408-4.102-12.363-4.51"/>
		
			<circle fill="#73D100" stroke="#416B6D" stroke-width="0.3515" stroke-linecap="round" stroke-miterlimit="10" cx="119.505" cy="79.661" r="1.406"/>
		
			<circle fill="#73D100" stroke="#416B6D" stroke-width="0.3515" stroke-linecap="round" stroke-miterlimit="10" cx="122.888" cy="80.5" r="0.879"/>
		
			<circle fill="#73D100" stroke="#416B6D" stroke-width="0.3515" stroke-linecap="round" stroke-miterlimit="10" cx="126.146" cy="81.226" r="0.82"/>
		
			<circle fill="#73D100" stroke="#416B6D" stroke-width="0.3515" stroke-linecap="round" stroke-miterlimit="10" cx="128.928" cy="80.509" r="0.586"/>
		
			<circle fill="#73D100" stroke="#416B6D" stroke-width="0.3515" stroke-linecap="round" stroke-miterlimit="10" cx="131.18" cy="78.19" r="0.923"/>
		
			<circle fill="#73D100" stroke="#416B6D" stroke-width="0.3515" stroke-linecap="round" stroke-miterlimit="10" cx="134.504" cy="76.844" r="0.704"/>
		
			<circle fill="#73D100" stroke="#416B6D" stroke-width="0.3515" stroke-linecap="round" stroke-miterlimit="10" cx="136.815" cy="74.865" r="0.763"/>
	</g>
	<g>
		<g>
			
				<ellipse transform="matrix(0.9999 0.0101 -0.0101 0.9999 0.9054 -0.6604)" fill="#73D100" stroke="#416B6D" stroke-width="0.2373" stroke-miterlimit="10" cx="65.833" cy="89.303" rx="0.87" ry="0.862"/>
			
				<ellipse transform="matrix(0.9999 0.0101 -0.0101 0.9999 0.8911 -0.6488)" fill="#73D100" stroke="#416B6D" stroke-width="0.2373" stroke-miterlimit="10" cx="64.661" cy="87.868" rx="0.87" ry="0.862"/>
			
				<ellipse transform="matrix(1 0.0095 -0.0095 1 0.8253 -0.6131)" fill="#73D100" stroke="#416B6D" stroke-width="0.2373" stroke-miterlimit="10" cx="64.678" cy="86.207" rx="0.87" ry="0.862"/>
			
				<ellipse transform="matrix(1 0.0095 -0.0095 1 0.8096 -0.6224)" fill="#73D100" stroke="#416B6D" stroke-width="0.2373" stroke-miterlimit="10" cx="65.644" cy="84.556" rx="0.87" ry="0.862"/>
			
				<ellipse transform="matrix(0.9999 0.0101 -0.0101 0.9999 0.8361 -0.6592)" fill="#73D100" stroke="#416B6D" stroke-width="0.2373" stroke-miterlimit="10" cx="65.665" cy="82.42" rx="0.87" ry="0.862"/>
			
				<ellipse transform="matrix(0.9999 0.0101 -0.0101 0.9999 0.8192 -0.6523)" fill="#73D100" stroke="#416B6D" stroke-width="0.2373" stroke-miterlimit="10" cx="64.969" cy="80.752" rx="0.87" ry="0.862"/>
			
				<ellipse transform="matrix(0.9999 0.0101 -0.0101 0.9999 0.8024 -0.6525)" fill="#73D100" stroke="#416B6D" stroke-width="0.2373" stroke-miterlimit="10" cx="64.986" cy="79.091" rx="0.87" ry="0.862"/>
			
				<ellipse transform="matrix(1 0.0095 -0.0095 1 0.7446 -0.6238)" fill="#73D100" stroke="#416B6D" stroke-width="0.2373" stroke-miterlimit="10" cx="65.713" cy="77.675" rx="0.869" ry="0.862"/>
			
				<ellipse transform="matrix(0.9999 0.0101 -0.0101 0.9999 0.7737 -0.672)" fill="#73D100" stroke="#416B6D" stroke-width="0.2373" stroke-miterlimit="10" cx="66.913" cy="76.263" rx="0.87" ry="0.862"/>
			
				<ellipse transform="matrix(0.9999 0.0101 -0.0101 0.9999 0.7569 -0.6698)" fill="#73D100" stroke="#416B6D" stroke-width="0.2373" stroke-miterlimit="10" cx="66.692" cy="74.599" rx="0.87" ry="0.863"/>
			
				<ellipse transform="matrix(0.9999 0.0101 -0.0101 0.9999 0.7401 -0.6819)" fill="#73D100" stroke="#416B6D" stroke-width="0.2373" stroke-miterlimit="10" cx="67.895" cy="72.951" rx="0.87" ry="0.862"/>
			
				<ellipse transform="matrix(0.9999 0.0101 -0.0101 0.9999 0.7263 -0.6945)" fill="#73D100" stroke="#416B6D" stroke-width="0.2373" stroke-miterlimit="10" cx="69.096" cy="71.54" rx="0.87" ry="0.862"/>
			
				<ellipse transform="matrix(0.9999 0.0107 -0.0107 0.9999 0.7546 -0.7433)" fill="#73D100" stroke="#416B6D" stroke-width="0.2373" stroke-miterlimit="10" cx="70.057" cy="70.362" rx="0.87" ry="0.863"/>
			
				<ellipse transform="matrix(0.9999 0.0101 -0.0101 0.9999 0.6978 -0.7141)" fill="#73D100" stroke="#416B6D" stroke-width="0.2373" stroke-miterlimit="10" cx="71.023" cy="68.711" rx="0.87" ry="0.862"/>
			
				<ellipse transform="matrix(0.9999 0.0101 -0.0101 0.9999 0.6858 -0.7236)" fill="#73D100" stroke="#416B6D" stroke-width="0.2373" stroke-miterlimit="10" cx="71.983" cy="67.535" rx="0.87" ry="0.862"/>
			
				<ellipse transform="matrix(1 0.0095 -0.0095 1 0.6479 -0.6997)" fill="#73D100" stroke="#416B6D" stroke-width="0.2373" stroke-miterlimit="10" cx="73.645" cy="67.552" rx="0.87" ry="0.862"/>
			
				<ellipse transform="matrix(0.9999 0.0101 -0.0101 0.9999 0.6715 -0.7522)" fill="#73D100" stroke="#416B6D" stroke-width="0.2373" stroke-miterlimit="10" cx="74.845" cy="66.139" rx="0.871" ry="0.862"/>
			
				<ellipse transform="matrix(1 0.0095 -0.0095 1 0.6187 -0.7114)" fill="#73D100" stroke="#416B6D" stroke-width="0.2373" stroke-miterlimit="10" cx="74.861" cy="64.479" rx="0.87" ry="0.863"/>
			
				<ellipse transform="matrix(1 0.0095 -0.0095 1 0.6121 -0.7273)" fill="#73D100" stroke="#416B6D" stroke-width="0.2373" stroke-miterlimit="10" cx="76.53" cy="63.783" rx="0.87" ry="0.863"/>
			
				<ellipse transform="matrix(0.9999 0.0101 -0.0101 0.9999 0.6438 -0.7868)" fill="#73D100" stroke="#416B6D" stroke-width="0.2373" stroke-miterlimit="10" cx="78.195" cy="63.326" rx="0.87" ry="0.862"/>
			
				<ellipse transform="matrix(0.9999 0.0101 -0.0101 0.9999 0.6441 -0.8036)" fill="#73D100" stroke="#416B6D" stroke-width="0.2373" stroke-miterlimit="10" cx="79.856" cy="63.343" rx="0.87" ry="0.861"/>
			
				<ellipse transform="matrix(0.9999 0.0101 -0.0101 0.9999 0.9054 -0.6604)" fill="#73D100" stroke="#416B6D" stroke-width="0.2373" stroke-miterlimit="10" cx="65.833" cy="89.303" rx="0.87" ry="0.862"/>
			
				<ellipse transform="matrix(0.9999 0.0101 -0.0101 0.9999 0.9054 -0.6604)" fill="#73D100" stroke="#416B6D" stroke-width="0.2373" stroke-miterlimit="10" cx="65.833" cy="89.303" rx="0.87" ry="0.862"/>
			
				<ellipse transform="matrix(0.9999 0.0101 -0.0101 0.9999 0.6392 -0.8224)" fill="#73D100" stroke="#416B6D" stroke-width="0.2373" stroke-miterlimit="10" cx="81.759" cy="62.887" rx="0.87" ry="0.861"/>
			
				<ellipse transform="matrix(1 0.0095 -0.0095 1 0.6035 -0.7925)" fill="#73D100" stroke="#416B6D" stroke-width="0.2373" stroke-miterlimit="10" cx="83.42" cy="62.903" rx="0.871" ry="0.862"/>
			
				<ellipse transform="matrix(0.9999 0.0101 -0.0101 0.9999 0.6494 -0.856)" fill="#73D100" stroke="#416B6D" stroke-width="0.2373" stroke-miterlimit="10" cx="85.071" cy="63.869" rx="0.87" ry="0.862"/>
			
				<ellipse transform="matrix(0.9999 0.0101 -0.0101 0.9999 0.662 -0.8683)" fill="#73D100" stroke="#416B6D" stroke-width="0.2373" stroke-miterlimit="10" cx="86.245" cy="65.067" rx="0.87" ry="0.862"/>
			
				<ellipse transform="matrix(0.9999 0.0101 -0.0101 0.9999 0.6757 -0.8767)" fill="#73D100" stroke="#416B6D" stroke-width="0.2373" stroke-miterlimit="10" cx="87.181" cy="66.5" rx="0.871" ry="0.864"/>
			
				<ellipse transform="matrix(1 0.0095 -0.0095 1 0.634 -0.8423)" fill="#73D100" stroke="#416B6D" stroke-width="0.2373" stroke-miterlimit="10" cx="88.609" cy="66.04" rx="0.87" ry="0.862"/>
			
				<ellipse transform="matrix(1 0.0095 -0.0095 1 0.6248 -0.8555)" fill="#73D100" stroke="#416B6D" stroke-width="0.2373" stroke-miterlimit="10" cx="90.041" cy="65.104" rx="0.871" ry="0.863"/>
			
				<ellipse transform="matrix(0.9999 0.0107 -0.0107 0.9999 0.702 -0.9739)" fill="#73D100" stroke="#416B6D" stroke-width="0.2373" stroke-miterlimit="10" cx="91.7" cy="65.359" rx="0.87" ry="0.862"/>
			
				<ellipse transform="matrix(0.9999 0.0101 -0.0101 0.9999 0.6747 -0.9395)" fill="#73D100" stroke="#416B6D" stroke-width="0.2373" stroke-miterlimit="10" cx="93.351" cy="66.326" rx="0.87" ry="0.861"/>
			
				<ellipse transform="matrix(0.9999 0.0101 -0.0101 0.9999 0.6896 -0.9494)" fill="#73D100" stroke="#416B6D" stroke-width="0.2373" stroke-miterlimit="10" cx="94.286" cy="67.758" rx="0.87" ry="0.861"/>
			
				<ellipse transform="matrix(1 0.0096 -0.0096 1 0.6651 -0.9062)" fill="#73D100" stroke="#416B6D" stroke-width="0.2373" stroke-miterlimit="10" cx="95.221" cy="69.191" rx="0.869" ry="0.861"/>
			
				<ellipse transform="matrix(0.9999 0.0101 -0.0101 0.9999 0.7139 -0.973)" fill="#73D100" stroke="#416B6D" stroke-width="0.2373" stroke-miterlimit="10" cx="96.635" cy="70.155" rx="0.87" ry="0.861"/>
			
				<ellipse transform="matrix(1 0.0095 -0.0095 1 0.6806 -0.9321)" fill="#73D100" stroke="#416B6D" stroke-width="0.2373" stroke-miterlimit="10" cx="98.05" cy="70.88" rx="0.87" ry="0.862"/>
			
				<ellipse transform="matrix(0.9999 0.0101 -0.0101 0.9999 0.7303 -1.0004)" fill="#73D100" stroke="#416B6D" stroke-width="0.2373" stroke-miterlimit="10" cx="99.465" cy="71.843" rx="0.871" ry="0.862"/>
			
				<ellipse transform="matrix(0.9999 0.0101 -0.0101 0.9999 0.7484 -1.0042)" fill="#73D100" stroke="#416B6D" stroke-width="0.2373" stroke-miterlimit="10" cx="99.686" cy="73.506" rx="0.869" ry="0.862"/>
			
				<ellipse transform="matrix(0.9999 0.0101 -0.0101 0.9999 0.7652 -1.004)" fill="#73D100" stroke="#416B6D" stroke-width="0.2373" stroke-miterlimit="10" cx="99.668" cy="75.167" rx="0.869" ry="0.862"/>
			
				<ellipse transform="matrix(0.9999 0.0101 -0.0101 0.9999 0.783 -0.9996)" fill="#73D100" stroke="#416B6D" stroke-width="0.2373" stroke-miterlimit="10" cx="99.413" cy="77.064" rx="0.871" ry="0.861"/>
			
				<ellipse transform="matrix(1 0.0096 -0.0096 1 0.7539 -0.9366)" fill="#73D100" stroke="#416B6D" stroke-width="0.2373" stroke-miterlimit="10" cx="98.45" cy="78.477" rx="0.869" ry="0.863"/>
			
				<ellipse transform="matrix(0.9999 0.0101 -0.0101 0.9999 0.8071 -1.0089)" fill="#73D100" stroke="#416B6D" stroke-width="0.2373" stroke-miterlimit="10" cx="100.339" cy="79.446" rx="0.871" ry="0.861"/>
			
				<ellipse transform="matrix(1 0.0095 -0.0095 1 0.7699 -0.9698)" fill="#73D100" stroke="#416B6D" stroke-width="0.2373" stroke-miterlimit="10" cx="101.992" cy="80.174" rx="0.87" ry="0.862"/>
			
				<ellipse transform="matrix(0.9999 0.0101 -0.0101 0.9999 0.8271 -1.0355)" fill="#73D100" stroke="#416B6D" stroke-width="0.2373" stroke-miterlimit="10" cx="102.929" cy="81.37" rx="0.87" ry="0.861"/>
			
				<ellipse transform="matrix(0.9999 0.0101 -0.0101 0.9999 0.8459 -1.0418)" fill="#73D100" stroke="#416B6D" stroke-width="0.2373" stroke-miterlimit="10" cx="103.622" cy="83.275" rx="0.871" ry="0.861"/>
			
				<ellipse transform="matrix(0.9999 0.0101 -0.0101 0.9999 0.8631 -1.0397)" fill="#73D100" stroke="#416B6D" stroke-width="0.2373" stroke-miterlimit="10" cx="103.369" cy="84.933" rx="0.87" ry="0.863"/>
			
				<ellipse transform="matrix(0.9999 0.0101 -0.0101 0.9999 0.8798 -1.0299)" fill="#73D100" stroke="#416B6D" stroke-width="0.2373" stroke-miterlimit="10" cx="102.402" cy="86.585" rx="0.87" ry="0.861"/>
			
				<ellipse transform="matrix(1 0.0095 -0.0095 1 0.8465 -0.9727)" fill="#73D100" stroke="#416B6D" stroke-width="0.2373" stroke-miterlimit="10" cx="102.386" cy="88.245" rx="0.87" ry="0.863"/>
			
				<ellipse transform="matrix(1 0.0096 -0.0096 1 0.8633 -0.9735)" fill="#73D100" stroke="#416B6D" stroke-width="0.2373" stroke-miterlimit="10" cx="102.37" cy="89.907" rx="0.869" ry="0.861"/>
			
				<ellipse transform="matrix(1 0.0096 -0.0096 1 0.8792 -0.9733)" fill="#73D100" stroke="#416B6D" stroke-width="0.2373" stroke-miterlimit="10" cx="102.352" cy="91.567" rx="0.869" ry="0.863"/>
			
				<ellipse transform="matrix(0.9999 0.0101 -0.0101 0.9999 0.9467 -1.0169)" fill="#73D100" stroke="#416B6D" stroke-width="0.2373" stroke-miterlimit="10" cx="101.15" cy="93.216" rx="0.87" ry="0.862"/>
			
				<ellipse transform="matrix(1 0.0095 -0.0095 1 0.8986 -0.9453)" fill="#73D100" stroke="#416B6D" stroke-width="0.2373" stroke-miterlimit="10" cx="99.483" cy="93.674" rx="0.87" ry="0.863"/>
			
				<ellipse transform="matrix(0.9999 0.0101 -0.0101 0.9999 0.9462 -0.9834)" fill="#73D100" stroke="#416B6D" stroke-width="0.2373" stroke-miterlimit="10" cx="97.828" cy="93.183" rx="0.87" ry="0.862"/>
			
				<ellipse transform="matrix(0.9999 0.0101 -0.0101 0.9999 0.9679 -0.9926)" fill="#73D100" stroke="#416B6D" stroke-width="0.2373" stroke-miterlimit="10" cx="98.755" cy="95.328" rx="0.87" ry="0.862"/>
			
				<ellipse transform="matrix(0.9999 0.0101 -0.0101 0.9999 0.9852 -0.9881)" fill="#73D100" stroke="#416B6D" stroke-width="0.2373" stroke-miterlimit="10" cx="98.265" cy="96.984" rx="0.87" ry="0.862"/>
			
				<ellipse transform="matrix(0.9999 0.0101 -0.0101 0.9999 1.0012 -0.9777)" fill="#73D100" stroke="#416B6D" stroke-width="0.2373" stroke-miterlimit="10" cx="97.298" cy="98.635" rx="0.87" ry="0.862"/>
			
				<ellipse transform="matrix(0.9999 0.0101 -0.0101 0.9999 1.0082 -0.9608)" fill="#73D100" stroke="#416B6D" stroke-width="0.2373" stroke-miterlimit="10" cx="95.63" cy="99.331" rx="0.87" ry="0.861"/>
			
				<ellipse transform="matrix(0.9999 0.0101 -0.0101 0.9999 1.0199 -0.9463)" fill="#73D100" stroke="#416B6D" stroke-width="0.2373" stroke-miterlimit="10" cx="94.195" cy="100.502" rx="0.87" ry="0.861"/>
			
				<ellipse transform="matrix(0.9999 0.0101 -0.0101 0.9999 1.0342 -0.9365)" fill="#73D100" stroke="#416B6D" stroke-width="0.2373" stroke-miterlimit="10" cx="93.232" cy="101.917" rx="0.87" ry="0.862"/>
			
				<ellipse transform="matrix(0.9999 0.0101 -0.0101 0.9999 1.0441 -0.9225)" fill="#73D100" stroke="#416B6D" stroke-width="0.2373" stroke-miterlimit="10" cx="91.799" cy="102.851" rx="0.87" ry="0.861"/>
			
				<ellipse transform="matrix(0.9999 0.0107 -0.0107 0.9999 1.1066 -0.9576)" fill="#73D100" stroke="#416B6D" stroke-width="0.2373" stroke-miterlimit="10" cx="90.371" cy="103.312" rx="0.87" ry="0.862"/>
			
				<ellipse transform="matrix(0.9999 0.0101 -0.0101 0.9999 1.0473 -0.8902)" fill="#73D100" stroke="#416B6D" stroke-width="0.2373" stroke-miterlimit="10" cx="88.709" cy="103.294" rx="0.871" ry="0.862"/>
			
				<ellipse transform="matrix(0.9999 0.0101 -0.0101 0.9999 1.0645 -0.8809)" fill="#73D100" stroke="#416B6D" stroke-width="0.2373" stroke-miterlimit="10" cx="87.745" cy="104.946" rx="0.87" ry="0.862"/>
			
				<ellipse transform="matrix(0.9999 0.0107 -0.0107 0.9999 1.1395 -0.9146)" fill="#73D100" stroke="#416B6D" stroke-width="0.2373" stroke-miterlimit="10" cx="86.307" cy="106.355" rx="0.87" ry="0.862"/>
			
				<ellipse transform="matrix(1 0.0096 -0.0096 1 1.0194 -0.8035)" fill="#73D100" stroke="#416B6D" stroke-width="0.2373" stroke-miterlimit="10" cx="84.645" cy="106.339" rx="0.869" ry="0.862"/>
			
				<ellipse transform="matrix(1 0.0095 -0.0095 1 1.0135 -0.7869)" fill="#73D100" stroke="#416B6D" stroke-width="0.2373" stroke-miterlimit="10" cx="82.99" cy="105.848" rx="0.87" ry="0.862"/>
			
				<ellipse transform="matrix(0.9999 0.0107 -0.0107 0.9999 1.1228 -0.8612)" fill="#73D100" stroke="#416B6D" stroke-width="0.2373" stroke-miterlimit="10" cx="81.338" cy="104.882" rx="0.87" ry="0.862"/>
			
				<ellipse transform="matrix(1 0.0095 -0.0095 1 1.0045 -0.7535)" fill="#73D100" stroke="#416B6D" stroke-width="0.2373" stroke-miterlimit="10" cx="79.44" cy="104.862" rx="0.87" ry="0.863"/>
			
				<ellipse transform="matrix(0.9999 0.0101 -0.0101 0.9999 1.0609 -0.7805)" fill="#73D100" stroke="#416B6D" stroke-width="0.2373" stroke-miterlimit="10" cx="77.781" cy="104.609" rx="0.87" ry="0.862"/>
			
				<ellipse transform="matrix(1 0.0096 -0.0096 1 0.9978 -0.7223)" fill="#73D100" stroke="#416B6D" stroke-width="0.2373" stroke-miterlimit="10" cx="76.125" cy="104.118" rx="0.869" ry="0.862"/>
			
				<ellipse transform="matrix(0.9999 0.0101 -0.0101 0.9999 1.0413 -0.7544)" fill="#73D100" stroke="#416B6D" stroke-width="0.2373" stroke-miterlimit="10" cx="75.191" cy="102.685" rx="0.87" ry="0.861"/>
			
				<ellipse transform="matrix(0.9999 0.0101 -0.0101 0.9999 1.0266 -0.7496)" fill="#73D100" stroke="#416B6D" stroke-width="0.2373" stroke-miterlimit="10" cx="74.73" cy="101.256" rx="0.87" ry="0.862"/>
			
				<ellipse transform="matrix(0.9999 0.0101 -0.0101 0.9999 1.0215 -0.7329)" fill="#73D100" stroke="#416B6D" stroke-width="0.2373" stroke-miterlimit="10" cx="73.074" cy="100.765" rx="0.87" ry="0.862"/>
			
				<ellipse transform="matrix(0.9999 0.0101 -0.0101 0.9999 1.0167 -0.7164)" fill="#73D100" stroke="#416B6D" stroke-width="0.2373" stroke-miterlimit="10" cx="71.418" cy="100.274" rx="0.87" ry="0.862"/>
			
				<ellipse transform="matrix(1 0.0095 -0.0095 1 0.9508 -0.6635)" fill="#73D100" stroke="#416B6D" stroke-width="0.2373" stroke-miterlimit="10" cx="70.004" cy="99.311" rx="0.87" ry="0.863"/>
			
				<ellipse transform="matrix(1 0.0095 -0.0095 1 0.9348 -0.6546)" fill="#73D100" stroke="#416B6D" stroke-width="0.2373" stroke-miterlimit="10" cx="69.072" cy="97.641" rx="0.87" ry="0.863"/>
			
				<ellipse transform="matrix(0.9999 0.0101 -0.0101 0.9999 0.9728 -0.6833)" fill="#73D100" stroke="#416B6D" stroke-width="0.2373" stroke-miterlimit="10" cx="68.14" cy="95.97" rx="0.87" ry="0.862"/>
			
				<ellipse transform="matrix(0.9999 0.0101 -0.0101 0.9999 0.9582 -0.6692)" fill="#73D100" stroke="#416B6D" stroke-width="0.2373" stroke-miterlimit="10" cx="66.73" cy="94.533" rx="0.87" ry="0.861"/>
			
				<ellipse transform="matrix(0.9999 0.0101 -0.0101 0.9999 0.9461 -0.6574)" fill="#73D100" stroke="#416B6D" stroke-width="0.2373" stroke-miterlimit="10" cx="65.556" cy="93.334" rx="0.87" ry="0.862"/>
			
				<ellipse transform="matrix(0.9999 0.0101 -0.0101 0.9999 0.925 -0.6581)" fill="#73D100" stroke="#416B6D" stroke-width="0.2373" stroke-miterlimit="10" cx="65.577" cy="91.199" rx="0.87" ry="0.862"/>
		</g>
		<path fill="#E0E0E0" stroke="#416B6D" stroke-width="0.2373" stroke-miterlimit="10" d="M87.103,68.267
			c0,0-0.571-4.553-2.946-4.924c-2.375-0.369-3.271,0.65-4.069,0.562c-0.797-0.086-3.318-0.429-4.508-0.045
			c-1.19,0.384-0.631,3.79-0.631,3.79s-2.64-0.896-3.44-0.034c-0.8,0.863-1.14,3.231-1.822,4.253
			c-0.683,1.021-2.901,1.436-3.232,2.835c-0.331,1.401,1.166,2.05,1.166,2.05s-2.382,0.845-2.757,2.818
			c-0.375,1.973,1.277,2.78,1.265,4.007c-0.012,1.227-1.841,2.235-1.342,3.783c0.498,1.547,2.713,1.451,2.713,1.451
			s-2.791,2.305-1.703,4.253c1.087,1.95,2.115,2.117,3.171,3.235c1.056,1.119,0.479,3.406,2.214,3.938
			c1.735,0.532,3.802-0.496,3.802-0.496s0.192,4.372,1.733,4.703c1.539,0.333,1.387-0.301,3.915,0.041
			c2.527,0.341,2.593,1.765,5.207,1.356c2.613-0.408,2.293-3.892,2.293-3.892s2.153,2.156,4.385,0.518s1.444-2.2,2.643-3.295
			c1.197-1.096,1.106,0.011,2.747-1.871s-0.958-4.992-0.958-4.992s4.202,0.991,5.169-0.779s0.19-3.2,0.046-4.626
			c-0.144-1.426,1.048-1.967,0.764-5.213c-0.284-3.245-6.977-2.324-6.977-2.324s5.372-3.388,4.093-5.772
			c-1.282-2.386-3.562-3.674-4.583-4.476c-1.021-0.801-1.63-3.101-3.876-3.954C89.337,64.315,87.103,68.267,87.103,68.267z"/>
		<path fill="#DBF7FC" stroke="#416B6D" stroke-width="0.2829" stroke-miterlimit="10" d="M83.394,85.289
			c0,0,16.519-7.909,15.434-10.36c-1.085-2.449-4.632-1.298-5.345-2.895c-0.714-1.597,0.943-2.147-1.876-4.208
			C88.79,65.766,81,82.986,81,82.986l0.242,2.51L83.394,85.289z"/>
		<path fill="#DBF7FC" stroke="#416B6D" stroke-width="0.2373" stroke-miterlimit="10" d="M85.809,84.071
			c0,0,14.957-3.374,15.509-1.198c0.554,2.178-2.391,3.234-2.035,4.657c0.355,1.421,1.728,0.918,0.936,3.733
			c-0.792,2.816-14.843-4.511-14.843-4.511l-1.092-1.705L85.809,84.071z"/>
		<path fill="#DBF7FC" stroke="#416B6D" stroke-width="0.2373" stroke-miterlimit="10" d="M85.094,87.218
			c0,0,12.767,6.806,11.82,8.702c-0.945,1.896-3.701,0.838-4.324,2.073c-0.621,1.234,0.668,1.721-1.633,3.244
			c-2.3,1.525-7.827-12.371-7.827-12.371l0.271-1.892L85.094,87.218z"/>
		<path fill="#DBF7FC" stroke="#416B6D" stroke-width="0.2373" stroke-miterlimit="10" d="M82.976,80.646
			c0,0,3.962-14.839,1.809-15.482c-2.153-0.643-3.352,2.244-4.759,1.829c-1.406-0.415-0.855-1.771-3.704-1.098
			c-2.848,0.673,3.881,15.023,3.881,15.023l1.731,1.212L82.976,80.646z"/>
		<path fill="#DBF7FC" stroke="#416B6D" stroke-width="0.2373" stroke-miterlimit="10" d="M80.189,80.208
			c0,0-5.439-10.932-7.062-10.178c-1.623,0.753-0.794,3.103-1.851,3.598c-1.057,0.496-1.436-0.604-2.776,1.302
			c-1.34,1.905,10.252,6.896,10.252,6.896l1.602-0.184L80.189,80.208z"/>
		<path fill="#DBF7FC" stroke="#416B6D" stroke-width="0.2373" stroke-miterlimit="10" d="M81.164,83.804
			c0,0-12.766-6.809-13.813-4.967c-1.047,1.843,1.368,3.541,0.688,4.746c-0.68,1.204-1.801,0.404-1.784,3.165
			c0.016,2.76,14.635-0.396,14.635-0.396l1.419-1.279L81.164,83.804z"/>
		<path fill="#DBF7FC" stroke="#416B6D" stroke-width="0.2373" stroke-miterlimit="10" d="M83.716,89.352
			c0,0,2.832,13.75,0.83,14.221c-2.002,0.47-2.919-2.245-4.227-1.943c-1.308,0.301-0.871,1.565-3.436,0.792
			c-2.565-0.772,4.384-13.512,4.384-13.512l1.58-0.971L83.716,89.352z"/>
		<path fill="#DBF7FC" stroke="#416B6D" stroke-width="0.2373" stroke-miterlimit="10" d="M80.847,88.644
			c0,0-6.45,11.572-8.171,10.674c-1.72-0.898-0.703-3.404-1.824-3.994c-1.12-0.59-1.587,0.581-2.943-1.551
			c-1.356-2.133,11.461-6.955,11.461-6.955l1.728,0.281L80.847,88.644z"/>
		<path fill="none" stroke="#416B6D" stroke-width="0.2373" stroke-miterlimit="10" d="M78.449,73.554
			c-0.013,1.314,0.73,2.386,1.664,2.395"/>
		<path fill="none" stroke="#416B6D" stroke-width="0.2373" stroke-miterlimit="10" d="M81.045,75.551
			c0.014-1.381-0.138-2.501-0.338-2.504"/>
		<path fill="none" stroke="#416B6D" stroke-width="0.2373" stroke-miterlimit="10" d="M77.677,77.939
			c0.01-1.012-0.95-1.84-2.146-1.851"/>
		<path fill="none" stroke="#416B6D" stroke-width="0.2373" stroke-miterlimit="10" d="M76.506,78.606
			c0.004-0.421-0.859-0.77-1.928-0.78"/>
		<path fill="none" stroke="#416B6D" stroke-width="0.2373" stroke-miterlimit="10" d="M75.21,83.266
			c0.006-0.666-1.236-1.214-2.778-1.229"/>
		<path fill="none" stroke="#416B6D" stroke-width="0.2373" stroke-miterlimit="10" d="M75.466,85.894
			c-0.003,0.263-0.867,0.467-1.931,0.456"/>
		<path fill="none" stroke="#416B6D" stroke-width="0.2373" stroke-miterlimit="10" d="M75.519,90.394
			c-0.004,0.351-1.16,0.624-2.584,0.609"/>
		<path fill="none" stroke="#416B6D" stroke-width="0.2373" stroke-miterlimit="10" d="M77.122,91.623
			c-0.016,1.484-0.75,2.68-1.642,2.671"/>
		<path fill="none" stroke="#416B6D" stroke-width="0.2373" stroke-miterlimit="10" d="M74.437,92.436
			c0.005-0.464,1.206-0.828,2.686-0.813"/>
		<path fill="none" stroke="#416B6D" stroke-width="0.2373" stroke-miterlimit="10" d="M80.675,94.345
			c-0.014,1.475-0.361,2.664-0.774,2.66"/>
		<path fill="none" stroke="#416B6D" stroke-width="0.2373" stroke-miterlimit="10" d="M82.63,94.365
			c-0.016,1.475,0.178,2.669,0.432,2.673"/>
		<path fill="none" stroke="#416B6D" stroke-width="0.2373" stroke-miterlimit="10" d="M81.462,94.353
			c-0.019,1.934-0.206,3.496-0.415,3.494"/>
		<path fill="none" stroke="#416B6D" stroke-width="0.2373" stroke-miterlimit="10" d="M86.108,93.056
			c-0.015,1.479,0.67,2.684,1.53,2.693"/>
		<path fill="none" stroke="#416B6D" stroke-width="0.2373" stroke-miterlimit="10" d="M87.3,92.145
			c-0.011,1.118,0.649,2.03,1.479,2.038"/>
		<path fill="none" stroke="#416B6D" stroke-width="0.2373" stroke-miterlimit="10" d="M88.19,91.156
			c-0.006,0.552,0.888,1.006,1.997,1.018"/>
		<path fill="none" stroke="#416B6D" stroke-width="0.2373" stroke-miterlimit="10" d="M91.129,84.639
			c0.005-0.342,1.713-0.601,3.824-0.579"/>
		<path fill="none" stroke="#416B6D" stroke-width="0.2373" stroke-miterlimit="10" d="M91.116,86.05
			c-0.002,0.131,2.023,0.259,4.527,0.283"/>
		<path fill="none" stroke="#416B6D" stroke-width="0.2373" stroke-miterlimit="10" d="M90.976,87.045
			c-0.006,0.581,0.901,1.06,2.027,1.07"/>
		<path fill="none" stroke="#416B6D" stroke-width="0.2373" stroke-miterlimit="10" d="M87.055,76.204
			c-0.02,1.977-0.649,3.57-1.407,3.562"/>
		<path fill="none" stroke="#416B6D" stroke-width="0.2373" stroke-miterlimit="10" d="M87.014,80.374
			c0.012-1.129,1.43-2.03,3.174-2.012"/>
		<path fill="none" stroke="#416B6D" stroke-width="0.2373" stroke-miterlimit="10" d="M87.657,81.24
			c0.006-0.476,0.74-0.852,1.645-0.844"/>
		<path fill="none" stroke="#73D100" stroke-width="0.4745" stroke-miterlimit="10" d="M80.605,83.248
			c-0.018,1.752-1.453,3.159-3.205,3.142c-1.227-0.013-2.211-1.017-2.2-2.243c0.009-0.858,0.713-1.548,1.571-1.54
			c0.601,0.006,1.084,0.499,1.078,1.1c-0.004,0.421-0.349,0.759-0.77,0.754c-0.294-0.003-0.53-0.244-0.528-0.539
			c0.002-0.205,0.172-0.37,0.377-0.369c0.145,0.002,0.26,0.12,0.259,0.265"/>
		<path fill="none" stroke="#73D100" stroke-width="0.4745" stroke-miterlimit="10" d="M79.926,87.139
			c0.781,1.568,0.141,3.474-1.428,4.254c-1.099,0.547-2.431,0.1-2.979-0.999c-0.382-0.769-0.069-1.703,0.7-2.086
			c0.539-0.267,1.192-0.047,1.46,0.491c0.187,0.376,0.033,0.833-0.344,1.021c-0.263,0.132-0.584,0.024-0.715-0.24
			c-0.092-0.184-0.016-0.408,0.167-0.5c0.13-0.063,0.287-0.012,0.351,0.118"/>
		<path fill="none" stroke="#73D100" stroke-width="0.4745" stroke-miterlimit="10" d="M83.043,84.191
			c-0.674-1.618,0.092-3.478,1.71-4.15c1.133-0.471,2.434,0.066,2.903,1.199c0.331,0.793-0.045,1.703-0.838,2.032
			c-0.554,0.23-1.191-0.031-1.423-0.587c-0.161-0.389,0.023-0.835,0.411-0.996c0.271-0.113,0.585,0.016,0.697,0.287
			c0.079,0.191-0.011,0.409-0.201,0.488c-0.133,0.056-0.285-0.008-0.342-0.141"/>
		<path fill="none" stroke="#73D100" stroke-width="0.4745" stroke-miterlimit="10" d="M85.584,86.072
			c0.607-1.644,2.433-2.485,4.076-1.879c1.15,0.425,1.74,1.703,1.315,2.853c-0.298,0.806-1.192,1.219-1.998,0.921
			c-0.563-0.208-0.853-0.834-0.644-1.397c0.145-0.396,0.583-0.597,0.979-0.452c0.275,0.103,0.418,0.409,0.314,0.686
			c-0.07,0.193-0.285,0.292-0.479,0.222c-0.135-0.05-0.205-0.2-0.154-0.337"/>
		<path fill="none" stroke="#73D100" stroke-width="0.4745" stroke-miterlimit="10" d="M84.101,87.632
			c1.668-0.535,3.456,0.385,3.989,2.054c0.375,1.169-0.27,2.419-1.438,2.794c-0.817,0.262-1.693-0.189-1.954-1.008
			c-0.185-0.572,0.131-1.186,0.704-1.368c0.4-0.129,0.829,0.093,0.958,0.493c0.09,0.281-0.064,0.581-0.346,0.671
			c-0.196,0.063-0.406-0.046-0.47-0.242c-0.042-0.137,0.032-0.284,0.17-0.328"/>
		<path fill="none" stroke="#73D100" stroke-width="0.4745" stroke-miterlimit="10" d="M79.19,81.415
			c-1.18,0.284-2.365-0.442-2.649-1.621c-0.198-0.826,0.311-1.656,1.136-1.854c0.578-0.139,1.159,0.217,1.298,0.795
			c0.097,0.405-0.152,0.812-0.557,0.908c-0.282,0.068-0.567-0.105-0.636-0.39c-0.047-0.198,0.075-0.397,0.273-0.444
			c0.138-0.033,0.278,0.052,0.311,0.19c0.023,0.098-0.036,0.195-0.134,0.219"/>
		<path fill="none" stroke="#73D100" stroke-width="0.4745" stroke-miterlimit="10" d="M80.634,88.938
			c1.753,0.04,3.142,1.493,3.101,3.245c-0.028,1.227-1.046,2.198-2.273,2.17c-0.858-0.021-1.538-0.732-1.518-1.591
			c0.013-0.601,0.512-1.076,1.113-1.062c0.42,0.009,0.753,0.357,0.743,0.777c-0.005,0.296-0.25,0.529-0.545,0.521
			c-0.206-0.005-0.369-0.176-0.364-0.382c0.003-0.144,0.123-0.259,0.267-0.254"/>
		<path fill="none" stroke="#73D100" stroke-width="0.4745" stroke-miterlimit="10" d="M81.458,81.089
			c-1.671-0.526-2.599-2.31-2.071-3.98c0.37-1.17,1.617-1.819,2.788-1.45c0.817,0.259,1.272,1.132,1.015,1.951
			c-0.182,0.573-0.792,0.892-1.366,0.71c-0.401-0.126-0.623-0.555-0.498-0.955c0.089-0.281,0.389-0.437,0.669-0.349
			c0.196,0.062,0.306,0.271,0.244,0.469c-0.043,0.137-0.19,0.213-0.329,0.169"/>
		<circle fill="#73D100" stroke="#416B6D" stroke-width="0.2373" stroke-miterlimit="10" cx="81.538" cy="84.88" r="3.915"/>
		<circle fill="#DBF7FC" stroke="#416B6D" stroke-width="0.2373" stroke-miterlimit="10" cx="81.539" cy="84.881" r="2.402"/>
		<path fill="none" stroke="#416B6D" stroke-width="0.2373" stroke-miterlimit="10" d="M74.808,84.545
			c-0.002,0.264-0.867,0.468-1.93,0.457"/>
		<path fill="none" stroke="#416B6D" stroke-width="0.2373" stroke-miterlimit="10" d="M81.953,75.244
			c0.422-0.02,0.72-0.9,0.67-1.969"/>
	</g>
</g>
</svg>
