<?xml version="1.0" encoding="utf-8"?>
<!-- Generator: Adobe Illustrator 16.0.0, SVG Export Plug-In . SVG Version: 6.00 Build 0)  -->
<!DOCTYPE svg PUBLIC "-//W3C//DTD SVG 1.1//EN" "http://www.w3.org/Graphics/SVG/1.1/DTD/svg11.dtd">
<svg version="1.1" id="Layer_1" xmlns="http://www.w3.org/2000/svg" xmlns:xlink="http://www.w3.org/1999/xlink" x="0px" y="0px"
	 width="188.988px" height="356.175px" viewBox="0 0 188.988 356.175" enable-background="new 0 0 188.988 356.175"
	 xml:space="preserve">
<path fill="#E83658" stroke="#492D08" stroke-width="0.75" stroke-linecap="round" stroke-miterlimit="10" d="M75.435,68.796
	c9.522-5.479,38.778-27.646,68.58,8.896c31.812,39.001-21.988,105.104-43.468,107.866c-12.611,1.622-28.232-1.843-28.232-1.843
	s-15.025,8.384-25.774,2.147C5.285,161.932-18.519,79.998,30.58,64.622C61.399,54.969,65.908,74.271,75.435,68.796z"/>
<path fill="#E5E538" stroke="#492D08" stroke-width="0.75" stroke-linecap="round" stroke-miterlimit="10" d="M122.286,60.21
	l-43.816,59.3l11.146,66.402c0,0,32.851,4.802,54.544-42.62c21.69-47.423,2.71-64.369,2.71-64.369
	C137.732,68.149,126.478,61.434,122.286,60.21z"/>
<path fill="none" stroke="#492D08" stroke-width="0.75" stroke-linecap="round" stroke-miterlimit="10" stroke-dasharray="4.7498" d="
	M78.013,72.637c17.11-8.324,38.59-25.303,66.324,11.829c22.127,29.632-19.759,93.843-41.228,96.436
	c-12.604,1.521-28.214-1.728-28.214-1.728s-15.018,7.862-25.761,2.014C7.909,158.735-15.876,81.879,33.191,67.454
	C63.988,58.4,60.901,80.964,78.013,72.637z"/>
<g>
	<path fill="#B5DC87" stroke="#492D08" stroke-width="0.75" stroke-linecap="round" stroke-miterlimit="10" d="M100.611,2.417
		c0,0-17.837,18.776-24.123,30.79C70.206,45.219,73.006,64.3,73.006,64.3s20.517-5.173,30.139-20.171
		C112.762,29.131,100.611,2.417,100.611,2.417z"/>
	<path fill="#B5DC87" stroke="#492D08" stroke-width="0.75" stroke-linecap="round" stroke-miterlimit="10" d="M100.611,2.417
		c2.904,31.8-23.758,38.646-27.604,61.884"/>
	<path fill="#B5DC87" stroke="#492D08" stroke-width="0.75" stroke-linecap="round" stroke-miterlimit="10" d="M94.23,29.74
		c-0.09-0.563,5.528-1.95,12.562-3.096"/>
	
		<line fill="none" stroke="#492D08" stroke-width="0.75" stroke-linecap="round" stroke-miterlimit="10" x1="98.118" y1="22.704" x2="105.704" y2="21.468"/>
	<path fill="#B5DC87" stroke="#492D08" stroke-width="0.75" stroke-linecap="round" stroke-miterlimit="10" d="M77.563,52.118
		c-1.196-7.364-2.686-13.237-3.319-13.134"/>
	<path fill="#B5DC87" stroke="#492D08" stroke-width="0.75" stroke-linecap="round" stroke-miterlimit="10" d="M81.932,45.75
		c-1.354-8.317-3.229-14.927-4.195-14.768"/>
	<path fill="#B5DC87" stroke="#492D08" stroke-width="0.75" stroke-linecap="round" stroke-miterlimit="10" d="M4.641,68.359
		c0,0,23.817-10.188,37.262-11.896c13.454-1.712,30.364,7.557,30.364,7.557s-11.99,17.434-29.399,21.232
		C25.456,89.047,4.641,68.359,4.641,68.359z"/>
	<path fill="#B5DC87" stroke="#492D08" stroke-width="0.75" stroke-linecap="round" stroke-miterlimit="10" d="M4.641,68.359
		c28.804,13.793,44.502-8.817,67.626-4.339"/>
	<path fill="#B5DC87" stroke="#492D08" stroke-width="0.75" stroke-linecap="round" stroke-miterlimit="10" d="M32.481,71.892
		c-0.5-0.283-3.75,4.502-7.277,10.696"/>
	
		<line fill="none" stroke="#492D08" stroke-width="0.75" stroke-linecap="round" stroke-miterlimit="10" x1="24.531" y1="73.083" x2="20.736" y2="79.767"/>
	<path fill="#B5DC87" stroke="#492D08" stroke-width="0.75" stroke-linecap="round" stroke-miterlimit="10" d="M59.261,64.052
		c-6.481-3.688-11.479-7.126-11.16-7.683"/>
	<path fill="#B5DC87" stroke="#492D08" stroke-width="0.75" stroke-linecap="round" stroke-miterlimit="10" d="M51.767,65.934
		c-7.325-4.167-12.866-8.228-12.377-9.076"/>
</g>
<path fill="#E83658" stroke="#492D08" stroke-width="0.75" stroke-linecap="round" stroke-miterlimit="10" d="M75.435,68.796
	c9.522-5.479,38.778-27.646,68.58,8.896c31.812,39.001-21.988,105.104-43.468,107.866c-12.611,1.622-28.232-1.843-28.232-1.843
	s-15.025,8.384-25.774,2.147C5.285,161.932-18.519,79.998,30.58,64.622C61.399,54.969,65.908,74.271,75.435,68.796z"/>
<path fill="#E5E538" stroke="#492D08" stroke-width="0.75" stroke-linecap="round" stroke-miterlimit="10" d="M122.286,60.21
	l-43.816,59.3l11.146,66.402c0,0,32.851,4.802,54.544-42.62c21.69-47.423,2.71-64.369,2.71-64.369
	C137.732,68.149,126.478,61.434,122.286,60.21z"/>
<path fill="none" stroke="#492D08" stroke-width="0.75" stroke-linecap="round" stroke-miterlimit="10" stroke-dasharray="4.7498" d="
	M78.013,72.637c17.11-8.324,38.59-25.303,66.324,11.829c22.127,29.632-19.759,93.843-41.228,96.436
	c-12.604,1.521-28.214-1.728-28.214-1.728s-15.018,7.862-25.761,2.014C7.909,158.735-15.876,81.879,33.191,67.454
	C63.988,58.4,60.901,80.964,78.013,72.637z"/>
<g>
	<path fill="#B5DC87" stroke="#492D08" stroke-width="0.75" stroke-linecap="round" stroke-miterlimit="10" d="M100.611,2.417
		c0,0-17.837,18.776-24.123,30.79C70.206,45.219,73.006,64.3,73.006,64.3s20.517-5.173,30.139-20.171
		C112.762,29.131,100.611,2.417,100.611,2.417z"/>
	<path fill="#B5DC87" stroke="#492D08" stroke-width="0.75" stroke-linecap="round" stroke-miterlimit="10" d="M100.611,2.417
		c2.904,31.8-23.758,38.646-27.604,61.884"/>
	<path fill="#B5DC87" stroke="#492D08" stroke-width="0.75" stroke-linecap="round" stroke-miterlimit="10" d="M94.23,29.74
		c-0.09-0.563,5.528-1.95,12.562-3.096"/>
	
		<line fill="none" stroke="#492D08" stroke-width="0.75" stroke-linecap="round" stroke-miterlimit="10" x1="98.118" y1="22.704" x2="105.704" y2="21.468"/>
	<path fill="#B5DC87" stroke="#492D08" stroke-width="0.75" stroke-linecap="round" stroke-miterlimit="10" d="M77.563,52.118
		c-1.196-7.364-2.686-13.237-3.319-13.134"/>
	<path fill="#B5DC87" stroke="#492D08" stroke-width="0.75" stroke-linecap="round" stroke-miterlimit="10" d="M81.932,45.75
		c-1.354-8.317-3.229-14.927-4.195-14.768"/>
	<path fill="#B5DC87" stroke="#492D08" stroke-width="0.75" stroke-linecap="round" stroke-miterlimit="10" d="M4.641,68.359
		c0,0,23.817-10.188,37.262-11.896c13.454-1.712,30.364,7.557,30.364,7.557s-11.99,17.434-29.399,21.232
		C25.456,89.047,4.641,68.359,4.641,68.359z"/>
	<path fill="#B5DC87" stroke="#492D08" stroke-width="0.75" stroke-linecap="round" stroke-miterlimit="10" d="M4.641,68.359
		c28.804,13.793,44.502-8.817,67.626-4.339"/>
	<path fill="#B5DC87" stroke="#492D08" stroke-width="0.75" stroke-linecap="round" stroke-miterlimit="10" d="M32.481,71.892
		c-0.5-0.283-3.75,4.502-7.277,10.696"/>
	
		<line fill="none" stroke="#492D08" stroke-width="0.75" stroke-linecap="round" stroke-miterlimit="10" x1="24.531" y1="73.083" x2="20.736" y2="79.767"/>
	<path fill="#B5DC87" stroke="#492D08" stroke-width="0.75" stroke-linecap="round" stroke-miterlimit="10" d="M59.261,64.052
		c-6.481-3.688-11.479-7.126-11.16-7.683"/>
	<path fill="#B5DC87" stroke="#492D08" stroke-width="0.75" stroke-linecap="round" stroke-miterlimit="10" d="M51.767,65.934
		c-7.325-4.167-12.866-8.228-12.377-9.076"/>
</g>
</svg>
