<?xml version="1.0" encoding="utf-8"?>
<!-- Generator: Adobe Illustrator 16.0.0, SVG Export Plug-In . SVG Version: 6.00 Build 0)  -->
<!DOCTYPE svg PUBLIC "-//W3C//DTD SVG 1.1//EN" "http://www.w3.org/Graphics/SVG/1.1/DTD/svg11.dtd">
<svg version="1.1" id="Layer_1" xmlns="http://www.w3.org/2000/svg" xmlns:xlink="http://www.w3.org/1999/xlink" x="0px" y="0px"
	 width="188.988px" height="356.175px" viewBox="0 0 188.988 356.175" enable-background="new 0 0 188.988 356.175"
	 xml:space="preserve">
<path fill="#E83658" stroke="#492D08" stroke-width="0.75" stroke-linecap="round" stroke-miterlimit="10" d="M75.435,68.796
	c9.521-5.479,38.777-27.646,68.58,8.896c31.812,39.001-21.988,105.104-43.469,107.866c-12.61,1.622-28.231-1.844-28.231-1.844
	s-15.025,8.385-25.774,2.147C5.285,161.932-18.519,79.998,30.58,64.622C61.399,54.969,65.908,74.271,75.435,68.796z"/>
<path fill="#E5E538" stroke="#492D08" stroke-width="0.75" stroke-linecap="round" stroke-miterlimit="10" d="M122.286,60.21
	l-43.815,59.3l11.146,66.402c0,0,32.851,4.803,54.544-42.62c21.69-47.423,2.71-64.369,2.71-64.369
	C137.732,68.149,126.478,61.434,122.286,60.21z"/>
<path fill="none" stroke="#492D08" stroke-width="0.75" stroke-linecap="round" stroke-miterlimit="10" stroke-dasharray="4.7498" d="
	M78.013,72.637c17.109-8.324,38.59-25.303,66.323,11.829c22.127,29.632-19.759,93.843-41.228,96.436
	c-12.604,1.521-28.214-1.729-28.214-1.729s-15.019,7.863-25.762,2.015C7.909,158.735-15.876,81.879,33.191,67.454
	C63.988,58.4,60.901,80.964,78.013,72.637z"/>
<g>
	<path fill="#B5DC87" stroke="#492D08" stroke-width="0.75" stroke-linecap="round" stroke-miterlimit="10" d="M100.611,2.417
		c0,0-17.837,18.776-24.123,30.79C70.206,45.219,73.006,64.3,73.006,64.3s20.518-5.173,30.14-20.171
		C112.762,29.131,100.611,2.417,100.611,2.417z"/>
	<path fill="#B5DC87" stroke="#492D08" stroke-width="0.75" stroke-linecap="round" stroke-miterlimit="10" d="M100.611,2.417
		c2.904,31.8-23.758,38.646-27.604,61.884"/>
	<path fill="#B5DC87" stroke="#492D08" stroke-width="0.75" stroke-linecap="round" stroke-miterlimit="10" d="M94.23,29.74
		c-0.09-0.563,5.527-1.95,12.562-3.096"/>
	
		<line fill="none" stroke="#492D08" stroke-width="0.75" stroke-linecap="round" stroke-miterlimit="10" x1="98.118" y1="22.704" x2="105.704" y2="21.468"/>
	<path fill="#B5DC87" stroke="#492D08" stroke-width="0.75" stroke-linecap="round" stroke-miterlimit="10" d="M77.563,52.118
		c-1.196-7.364-2.687-13.237-3.319-13.134"/>
	<path fill="#B5DC87" stroke="#492D08" stroke-width="0.75" stroke-linecap="round" stroke-miterlimit="10" d="M81.932,45.75
		c-1.354-8.317-3.229-14.927-4.195-14.768"/>
	<path fill="#B5DC87" stroke="#492D08" stroke-width="0.75" stroke-linecap="round" stroke-miterlimit="10" d="M4.641,68.359
		c0,0,23.816-10.188,37.262-11.896c13.454-1.712,30.364,7.557,30.364,7.557s-11.99,17.434-29.399,21.232
		C25.456,89.047,4.641,68.359,4.641,68.359z"/>
	<path fill="#B5DC87" stroke="#492D08" stroke-width="0.75" stroke-linecap="round" stroke-miterlimit="10" d="M4.641,68.359
		c28.804,13.793,44.502-8.817,67.626-4.339"/>
	<path fill="#B5DC87" stroke="#492D08" stroke-width="0.75" stroke-linecap="round" stroke-miterlimit="10" d="M32.481,71.892
		c-0.5-0.283-3.75,4.502-7.277,10.696"/>
	
		<line fill="none" stroke="#492D08" stroke-width="0.75" stroke-linecap="round" stroke-miterlimit="10" x1="24.531" y1="73.083" x2="20.736" y2="79.767"/>
	<path fill="#B5DC87" stroke="#492D08" stroke-width="0.75" stroke-linecap="round" stroke-miterlimit="10" d="M59.261,64.052
		c-6.481-3.688-11.479-7.126-11.16-7.683"/>
	<path fill="#B5DC87" stroke="#492D08" stroke-width="0.75" stroke-linecap="round" stroke-miterlimit="10" d="M51.767,65.934
		c-7.325-4.167-12.866-8.228-12.377-9.076"/>
</g>
<circle fill="#E83658" stroke="#492D08" stroke-linecap="round" stroke-miterlimit="10" stroke-dasharray="2.7853" cx="19.057" cy="281.67" r="15.057"/>
<circle fill="#E5E538" stroke="#492D08" stroke-linecap="round" stroke-miterlimit="10" stroke-dasharray="2.7853" cx="19.057" cy="333.235" r="15.058"/>
<g>
	<path d="M59.762,335.003c0-0.793-0.354-1.688-1.234-1.688c-0.396,0-1.115,0.396-1.115,0.822c0,0.235,0.104,0.44,0.206,0.661
		l-0.938,0.455c-0.146-0.31-0.266-0.528-0.266-0.778c0-0.47,0.338-0.792,0.983-1.175c0.632-0.381,1.103-0.543,1.381-0.543
		c1.821,0,2.102,1.308,2.102,1.953v2.979c0,0.78,0.133,0.938,0.367,0.938c0.146,0,0.439-0.104,0.661-0.203v0.396l-1.425,0.677
		c-0.162,0.072-0.22,0.072-0.279,0.072c-0.189,0-0.294-0.381-0.367-0.837c-0.983,0.705-1.409,0.837-2.027,0.837
		c-1.071,0-1.66-0.793-1.66-1.587c0-0.91,0.559-1.248,1.543-1.631l2.071-0.81L59.762,335.003L59.762,335.003z M59.762,336.046
		l-1.528,0.633c-0.294,0.115-0.969,0.41-0.969,1.058c0,0.396,0.382,1.072,1.176,1.072c0.483,0,0.896-0.28,1.366-0.632
		c-0.03-0.162-0.044-0.354-0.044-0.706L59.762,336.046L59.762,336.046z"/>
	<path d="M62.77,339.028h0.221c0.764,0,0.865-0.146,0.865-1.292v-4.217h-1.38l0.118-0.617h1.264v-1.951
		c0-1.439,0.824-3.041,3.071-3.041c0.411,0,0.765,0.06,1.176,0.133v1.807h-0.322c-0.061-0.469-0.368-1.379-1.456-1.379
		c-0.926,0-1.353,0.822-1.353,1.703v2.729h2.262l-0.308,0.617h-1.954v4.218c0,1.145,0.104,1.293,0.865,1.293h0.221v0.439
		c-0.439-0.016-0.956-0.044-1.572-0.044c-0.66,0-1.264,0.028-1.719,0.044L62.77,339.028L62.77,339.028z"/>
	<path d="M67.659,339.028h0.22c0.765,0,0.867-0.146,0.867-1.292v-4.217h-1.381l0.117-0.617h1.265v-1.951
		c0-1.439,0.822-3.041,3.069-3.041c0.411,0,0.766,0.06,1.177,0.133v1.807H72.67c-0.06-0.469-0.368-1.379-1.455-1.379
		c-0.925,0-1.353,0.822-1.353,1.703v2.729h2.263l-0.309,0.617h-1.955v4.218c0,1.145,0.104,1.293,0.866,1.293h0.221v0.439
		c-0.44-0.016-0.956-0.044-1.572-0.044c-0.661,0-1.265,0.028-1.719,0.044L67.659,339.028L67.659,339.028z"/>
	<path d="M75.839,332.757c2.116,0,3.423,1.615,3.423,3.584c0,1.732-1.381,3.229-3.364,3.229c-1.646,0-3.35-1.293-3.35-3.511
		C72.548,334.49,73.708,332.757,75.839,332.757z M75.589,333.255c-0.912,0-1.807,0.867-1.807,2.527c0,1.424,0.749,3.291,2.336,3.291
		c1.396,0,1.909-1.061,1.909-2.455C78.027,334.93,77.203,333.255,75.589,333.255z"/>
	<path d="M80.197,339.028h0.265c0.661,0,0.779-0.176,0.779-1.026V334.8c0-0.485-0.133-0.706-0.471-0.706
		c-0.132,0-0.368,0.06-0.573,0.161v-0.44c0.617-0.265,1.322-0.603,1.925-1.058h0.146v1.527h0.029c0.484-1,1.115-1.527,1.866-1.527
		c0.411,0,0.688,0.088,0.881,0.146v1.382h-0.235c-0.104-0.412-0.542-0.529-0.938-0.529c-0.589,0-1.514,0.44-1.514,1.865v2.631
		c0,0.66,0.074,0.776,0.646,0.776h0.278v0.441c-0.337-0.017-0.982-0.044-1.469-0.044c-0.5,0-1.146,0.027-1.616,0.044L80.197,339.028
		L80.197,339.028z"/>
	<path d="M93.357,338.764c-0.589,0.248-1.249,0.528-1.998,0.896c-0.205-0.221-0.278-0.689-0.31-1.027
		c-0.632,0.529-1.379,0.938-2.32,0.938c-1.366,0-2.863-1.026-2.863-3.217c0-1.938,1.482-3.599,3.379-3.599
		c0.676,0,1.175,0.146,1.807,0.426v-3.23c0-0.457-0.176-0.734-0.544-0.734c-0.249,0-0.5,0.117-0.615,0.162v-0.502
		c0.676-0.265,1.335-0.571,2.173-1.059h0.146c-0.027,0.338-0.044,1.366-0.044,2.792v6.712c0,0.954,0.19,1.191,0.528,1.191
		c0.161,0,0.396-0.03,0.661-0.193V338.764L93.357,338.764z M91.05,334.064c-0.382-0.325-0.97-0.811-1.851-0.811
		c-1.44,0-2.219,1.176-2.219,2.514c0,1.322,0.661,3.041,2.219,3.041c0.881,0,1.423-0.337,1.851-0.678V334.064z"/>
	<path d="M97.818,335.003c0-0.793-0.354-1.688-1.232-1.688c-0.396,0-1.116,0.396-1.116,0.822c0,0.235,0.104,0.44,0.205,0.661
		l-0.939,0.455c-0.146-0.31-0.264-0.528-0.264-0.778c0-0.47,0.338-0.792,0.983-1.175c0.632-0.381,1.103-0.543,1.379-0.543
		c1.821,0,2.104,1.308,2.104,1.953v2.979c0,0.78,0.132,0.938,0.367,0.938c0.146,0,0.439-0.104,0.66-0.203v0.396l-1.426,0.677
		c-0.159,0.072-0.221,0.072-0.277,0.072c-0.191,0-0.295-0.381-0.367-0.837c-0.983,0.705-1.412,0.837-2.027,0.837
		c-1.071,0-1.66-0.793-1.66-1.587c0-0.91,0.56-1.248,1.543-1.631l2.07-0.81L97.818,335.003L97.818,335.003z M97.818,336.046
		l-1.526,0.633c-0.294,0.115-0.971,0.41-0.971,1.058c0,0.396,0.383,1.072,1.177,1.072c0.483,0,0.896-0.28,1.364-0.632
		c-0.027-0.162-0.044-0.354-0.044-0.706V336.046z"/>
	<path d="M101.428,329.951c0-0.457-0.178-0.734-0.546-0.734c-0.25,0-0.5,0.117-0.615,0.162v-0.502
		c0.677-0.265,1.336-0.571,2.174-1.059h0.146c-0.027,0.34-0.044,1.366-0.044,2.792v2.981c0.777-0.455,1.572-0.838,2.337-0.838
		c1.704,0,2.791,1.617,2.791,3.334c0,1.998-1.588,3.48-3.613,3.48c-0.646,0-1.882-0.221-2.731-0.439
		c0.044-0.338,0.104-0.811,0.104-1.527L101.428,329.951L101.428,329.951z M102.544,338.619c0.604,0.293,1.116,0.514,1.792,0.514
		c1.309,0,2.22-1.19,2.22-2.732c0-1.113-0.646-2.818-2.41-2.818c-0.588,0-1.043,0.234-1.602,0.572V338.619z"/>
	<path d="M108.725,328.878c0.675-0.266,1.336-0.572,2.172-1.06h0.147c-0.028,0.339-0.044,1.366-0.044,2.792v7.197
		c0,1.043,0.337,1.219,0.867,1.219h0.292v0.441c-0.559-0.016-1.247-0.045-1.719-0.045c-0.473,0-1.161,0.029-1.719,0.045v-0.441
		h0.292c0.528,0,0.866-0.176,0.866-1.219v-7.857c0-0.457-0.176-0.734-0.544-0.734c-0.25,0-0.501,0.117-0.615,0.162v-0.5H108.725
		L108.725,328.878z"/>
	<path d="M118.977,338.794c-0.588,0.367-1.354,0.777-2.481,0.777c-2.351,0-3.424-1.896-3.424-3.468c0-1.72,1.482-3.349,3.158-3.349
		c1.82,0,2.852,1.13,2.852,2.718v0.147h-4.833c0.061,1.863,0.852,3.334,2.674,3.334c1.087,0,1.704-0.354,2.058-0.604
		L118.977,338.794L118.977,338.794z M117.905,335.121c0-1.602-1.337-1.865-1.793-1.865c-1.353,0-1.864,1.324-1.864,1.865H117.905z"
		/>
	<path d="M123.919,342.216h0.19c0.677,0,0.896-0.25,0.896-0.91v-6.463c0-0.59-0.177-0.75-0.455-0.75c-0.222,0-0.47,0.088-0.633,0.16
		v-0.439c0.633-0.234,1.646-0.764,2.058-1.059h0.146v1.103c0.616-0.5,1.438-1.103,2.453-1.103c1.82,0,2.746,1.617,2.746,3.188
		c0,1.703-1.131,3.628-3.6,3.628c-0.662,0-1.337-0.221-1.602-0.354v2.087c0,0.765,0.221,0.909,0.809,0.909h0.25v0.441
		c-0.471-0.017-1.015-0.044-1.528-0.044c-0.587,0-1.231,0.027-1.731,0.044L123.919,342.216L123.919,342.216z M126.123,338.339
		c0.515,0.396,0.926,0.734,1.853,0.734c1.438,0,2.231-1.105,2.231-2.545c0-2.113-1.221-2.893-2.231-2.893
		c-0.794,0-1.309,0.396-1.853,0.836V338.339z"/>
	<path d="M132.406,339.028h0.265c0.662,0,0.778-0.176,0.778-1.026V334.8c0-0.485-0.133-0.706-0.47-0.706
		c-0.132,0-0.369,0.06-0.573,0.161v-0.44c0.617-0.265,1.322-0.603,1.925-1.058h0.146v1.527h0.028c0.485-1,1.116-1.527,1.864-1.527
		c0.413,0,0.689,0.088,0.883,0.146v1.382h-0.235c-0.104-0.412-0.544-0.529-0.938-0.529c-0.59,0-1.513,0.44-1.513,1.865v2.631
		c0,0.66,0.073,0.776,0.646,0.776h0.278v0.441c-0.338-0.017-0.982-0.044-1.468-0.044c-0.501,0-1.146,0.027-1.615,0.044
		L132.406,339.028L132.406,339.028z"/>
	<path d="M137.81,339.028h0.293c0.528,0,0.867-0.176,0.867-1.219v-2.968c0-0.588-0.177-0.75-0.457-0.75
		c-0.221,0-0.47,0.089-0.633,0.162v-0.44c0.633-0.233,1.646-0.765,2.058-1.058h0.146v5.053c0,1.043,0.338,1.219,0.866,1.219h0.294
		v0.441c-0.559-0.016-1.248-0.045-1.719-0.045c-0.472,0-1.16,0.029-1.72,0.045v-0.44H137.81z M139.529,329.818
		c0.41,0,0.732,0.323,0.732,0.734c0,0.41-0.323,0.734-0.732,0.734c-0.412,0-0.733-0.324-0.733-0.734
		C138.794,330.141,139.116,329.818,139.529,329.818z"/>
	<path d="M147.973,338.647c-0.646,0.472-1.542,0.925-2.514,0.925c-1.792,0-3.304-1.453-3.304-3.349c0-1.513,1.219-3.468,3.495-3.468
		c0.91,0,1.645,0.265,2.014,0.427l0.088,1.38l-0.118,0.029c-0.514-0.812-1.409-1.338-2.262-1.338c-1.31,0-2.102,1.104-2.102,2.308
		c0,1.733,1.176,3.306,2.688,3.306c0.439,0,1.103-0.104,1.969-0.615L147.973,338.647z"/>
	<path d="M148.689,339.028h0.293c0.53,0,0.868-0.176,0.868-1.219v-2.968c0-0.588-0.178-0.75-0.457-0.75
		c-0.222,0-0.47,0.089-0.633,0.162v-0.44c0.633-0.233,1.646-0.765,2.058-1.058h0.146v5.053c0,1.043,0.339,1.219,0.866,1.219h0.294
		v0.441c-0.56-0.016-1.248-0.045-1.719-0.045c-0.472,0-1.16,0.029-1.721,0.045v-0.44H148.689z M150.407,329.818
		c0.41,0,0.732,0.323,0.732,0.734c0,0.41-0.323,0.734-0.732,0.734c-0.412,0-0.734-0.324-0.734-0.734
		C149.673,330.141,149.996,329.818,150.407,329.818z"/>
	<path d="M152.799,339.028h0.266c0.661,0,0.778-0.176,0.778-1.026v-2.498c0-1.321-0.177-1.543-0.515-1.543
		c-0.133,0-0.323,0.061-0.529,0.162v-0.439c0.617-0.206,1.323-0.544,1.926-0.926h0.147v1.291c0.542-0.572,1.276-1.291,2.231-1.291
		c0.5,0,1.353,0.264,1.792,1.115c0.277,0.514,0.321,1.16,0.321,1.775v2.659c0,0.571,0.104,0.72,0.824,0.72h0.221v0.441
		c-0.354-0.016-1.015-0.045-1.515-0.045c-0.527,0-1.203,0.029-1.601,0.045v-0.441h0.266c0.616,0,0.688-0.311,0.688-1.219v-2.307
		c0-0.793-0.072-1.176-0.483-1.571c-0.191-0.192-0.515-0.353-1.016-0.353c-0.616,0-1.308,0.557-1.645,0.881v3.791
		c0,0.66,0.07,0.775,0.646,0.775h0.277v0.441c-0.337-0.016-0.983-0.045-1.469-0.045c-0.5,0-1.146,0.029-1.616,0.045L152.799,339.028
		L152.799,339.028L152.799,339.028z"/>
	<path d="M167.265,333.638h-1.265c0.222,0.279,0.529,0.632,0.529,1.365c0,1.481-1.454,2.16-2.35,2.16
		c-0.281,0-0.517-0.029-0.618-0.045c-0.25,0.161-0.883,0.559-0.883,0.838c0,0.412,0.721,0.455,1.545,0.5
		c1.896,0.104,3.1,0.412,3.1,2.026c0,1.499-1.558,2.177-3.115,2.177c-1.07,0-3.012-0.326-3.012-1.839
		c0-0.927,0.749-1.409,1.482-1.543v-0.026c-0.234-0.045-0.997-0.223-0.997-0.912c0-0.455,0.353-0.764,1.232-1.322l0.118-0.072
		c-0.911-0.367-1.484-1.115-1.484-1.925c0-1.321,1.104-2.263,2.482-2.263c0.571,0,0.938,0.117,1.264,0.265h2.396L167.265,333.638z
		 M164.328,342.158c1.115,0,2.174-0.383,2.174-1.353c0-1.015-1.115-1.292-2.381-1.292c-0.573,0-2.102,0-2.102,1.292
		C162.021,341.482,162.623,342.158,164.328,342.158z M164.077,336.722c0.938,0,1.336-0.688,1.336-1.543
		c0-1.41-0.689-1.983-1.438-1.983c-0.706,0-1.31,0.688-1.31,1.603C162.668,335.694,163.138,336.722,164.077,336.722z"/>
</g>
<g>
	<path d="M55.678,287.4h0.189c0.676,0,0.896-0.25,0.896-0.908v-6.466c0-0.589-0.178-0.749-0.457-0.749
		c-0.221,0-0.471,0.09-0.632,0.16v-0.439c0.632-0.234,1.645-0.765,2.058-1.059h0.146v1.104c0.617-0.5,1.439-1.104,2.454-1.104
		c1.82,0,2.747,1.616,2.747,3.188c0,1.703-1.132,3.627-3.6,3.627c-0.662,0-1.337-0.219-1.603-0.353v2.086
		c0,0.765,0.221,0.91,0.81,0.91h0.249v0.44c-0.47-0.016-1.015-0.043-1.527-0.043c-0.589,0-1.234,0.027-1.732,0.043L55.678,287.4
		L55.678,287.4z M57.881,283.523c0.515,0.396,0.927,0.734,1.853,0.734c1.438,0,2.232-1.104,2.232-2.543
		c0-2.115-1.22-2.896-2.232-2.896c-0.794,0-1.308,0.396-1.853,0.839V283.523z"/>
	<path d="M64.164,284.214h0.265c0.66,0,0.777-0.178,0.777-1.028v-3.203c0-0.483-0.132-0.705-0.471-0.705
		c-0.132,0-0.367,0.062-0.571,0.16V279c0.615-0.266,1.32-0.603,1.924-1.06h0.146v1.528h0.03c0.483-1,1.114-1.528,1.864-1.528
		c0.412,0,0.688,0.088,0.883,0.147v1.381h-0.237c-0.103-0.412-0.542-0.529-0.938-0.529c-0.588,0-1.514,0.441-1.514,1.865v2.63
		c0,0.661,0.074,0.778,0.646,0.778h0.279v0.438c-0.337-0.015-0.982-0.044-1.47-0.044c-0.5,0-1.146,0.029-1.614,0.044L64.164,284.214
		L64.164,284.214z"/>
	<path d="M75.737,283.976c-0.589,0.369-1.353,0.777-2.481,0.777c-2.352,0-3.423-1.896-3.423-3.467c0-1.72,1.481-3.35,3.156-3.35
		c1.822,0,2.852,1.131,2.852,2.719v0.146h-4.834c0.06,1.865,0.853,3.335,2.676,3.335c1.087,0,1.702-0.353,2.057-0.603
		L75.737,283.976L75.737,283.976z M74.665,280.304c0-1.602-1.336-1.864-1.792-1.864c-1.353,0-1.866,1.321-1.866,1.864H74.665z"/>
	<path d="M76.659,284.214h0.264c0.661,0,0.778-0.178,0.778-1.028v-2.498c0-1.321-0.177-1.543-0.515-1.543
		c-0.132,0-0.325,0.06-0.527,0.161v-0.439c0.615-0.205,1.32-0.545,1.924-0.927h0.146v1.16c0.616-0.528,1.336-1.16,2.249-1.16
		c0.896,0,1.718,0.354,2.102,1.265c0.558-0.543,1.438-1.265,2.525-1.265c0.75,0,1.308,0.25,1.63,0.679
		c0.339,0.453,0.456,0.924,0.456,1.807v2.895c0,0.778,0.191,0.896,0.793,0.896h0.25v0.438c-0.543-0.016-1.043-0.045-1.542-0.045
		c-0.514,0-1.027,0.029-1.63,0.045v-0.438h0.146c0.765,0,0.867-0.281,0.867-1.147v-2.745c0-1.072-0.546-1.559-1.528-1.559
		c-0.733,0-1.233,0.456-1.792,0.854v3.819c0,0.646,0.205,0.778,0.733,0.778h0.31v0.438c-0.5-0.015-0.983-0.045-1.482-0.045
		c-0.528,0-1.072,0.03-1.646,0.045v-0.438h0.132c0.633,0,0.839-0.148,0.839-0.778v-3.086c0-0.998-0.618-1.587-1.528-1.587
		c-0.733,0-1.233,0.456-1.792,0.854v3.717c0,0.75,0.294,0.883,0.778,0.883h0.279v0.439c-0.558-0.016-1.103-0.046-1.66-0.046
		c-0.527,0-1.085,0.03-1.556,0.046v-0.439h-0.002V284.214z"/>
	<path d="M89.402,284.214h0.293c0.53,0,0.868-0.178,0.868-1.221v-2.969c0-0.589-0.176-0.749-0.456-0.749
		c-0.22,0-0.47,0.089-0.633,0.16v-0.438c0.633-0.235,1.646-0.766,2.057-1.06h0.148v5.054c0,1.045,0.337,1.221,0.864,1.221h0.294
		v0.438c-0.559-0.015-1.247-0.044-1.719-0.044s-1.16,0.029-1.72,0.044v-0.438h0.003V284.214z M91.121,275.001
		c0.411,0,0.733,0.324,0.733,0.733c0,0.412-0.323,0.735-0.733,0.735c-0.412,0-0.733-0.324-0.733-0.735
		C90.387,275.326,90.709,275.001,91.121,275.001z"/>
	<path d="M94.585,279.85c0-0.483-0.132-0.706-0.47-0.706c-0.249,0-0.484,0.061-0.661,0.161v-0.438
		c0.678-0.205,1.381-0.546,2.071-0.928h0.177v3.864c0,1.219,0.293,2.188,1.527,2.188c0.515,0,1.247-0.441,1.82-0.84v-3.304
		c0-0.483-0.133-0.706-0.47-0.706c-0.161,0-0.368,0.061-0.603,0.161v-0.438c0.615-0.205,1.321-0.545,2.014-0.928h0.176v5.188
		c0,0.646,0.162,0.705,0.338,0.705c0.189,0,0.544-0.162,0.793-0.25v0.438l-1.908,0.823l-0.104-0.045
		c-0.117-0.293-0.161-0.748-0.177-1.115c-0.75,0.47-1.615,1.07-2.498,1.07c-0.732,0-1.263-0.308-1.615-0.791
		c-0.368-0.516-0.412-1.088-0.412-2.131L94.585,279.85L94.585,279.85z"/>
	<path d="M101.94,284.214h0.266c0.662,0,0.778-0.178,0.778-1.028v-2.498c0-1.321-0.177-1.543-0.515-1.543
		c-0.133,0-0.323,0.06-0.529,0.161v-0.439c0.618-0.205,1.323-0.545,1.926-0.927h0.147v1.16c0.615-0.528,1.335-1.16,2.246-1.16
		c0.896,0,1.722,0.354,2.102,1.265c0.56-0.543,1.438-1.265,2.527-1.265c0.749,0,1.307,0.25,1.63,0.679
		c0.339,0.453,0.456,0.924,0.456,1.807v2.895c0,0.778,0.19,0.896,0.794,0.896h0.25v0.438c-0.545-0.016-1.044-0.045-1.544-0.045
		c-0.514,0-1.025,0.029-1.63,0.045v-0.438h0.146c0.765,0,0.865-0.281,0.865-1.147v-2.745c0-1.072-0.543-1.559-1.526-1.559
		c-0.733,0-1.232,0.456-1.792,0.854v3.819c0,0.646,0.205,0.778,0.733,0.778h0.31v0.438c-0.5-0.015-0.982-0.045-1.483-0.045
		c-0.528,0-1.071,0.03-1.645,0.045v-0.438h0.132c0.632,0,0.837-0.148,0.837-0.778v-3.086c0-0.998-0.615-1.587-1.526-1.587
		c-0.733,0-1.232,0.456-1.792,0.854v3.717c0,0.75,0.294,0.883,0.777,0.883h0.279v0.439c-0.56-0.016-1.103-0.046-1.66-0.046
		c-0.528,0-1.087,0.03-1.559,0.046v-0.439l0,0V284.214z"/>
	<path d="M118.737,287.4h0.189c0.679,0,0.896-0.25,0.896-0.908v-6.466c0-0.589-0.177-0.749-0.456-0.749
		c-0.222,0-0.471,0.09-0.633,0.16v-0.439c0.633-0.234,1.645-0.765,2.058-1.059h0.146v1.104c0.618-0.5,1.439-1.104,2.454-1.104
		c1.819,0,2.747,1.616,2.747,3.188c0,1.703-1.132,3.627-3.601,3.627c-0.661,0-1.336-0.219-1.603-0.353v2.086
		c0,0.765,0.223,0.91,0.811,0.91h0.248v0.44c-0.47-0.016-1.015-0.043-1.527-0.043c-0.587,0-1.232,0.027-1.731,0.043L118.737,287.4
		L118.737,287.4z M120.94,283.523c0.516,0.396,0.927,0.734,1.854,0.734c1.438,0,2.232-1.104,2.232-2.543
		c0-2.115-1.221-2.896-2.232-2.896c-0.794,0-1.309,0.396-1.854,0.839V283.523z"/>
	<path d="M127.223,284.214h0.265c0.661,0,0.779-0.178,0.779-1.028v-3.203c0-0.483-0.134-0.705-0.472-0.705
		c-0.132,0-0.366,0.062-0.572,0.16V279c0.616-0.266,1.321-0.603,1.925-1.06h0.146v1.528h0.028c0.484-1,1.116-1.528,1.865-1.528
		c0.411,0,0.689,0.088,0.882,0.147v1.381h-0.234c-0.104-0.412-0.545-0.529-0.939-0.529c-0.588,0-1.514,0.441-1.514,1.865v2.63
		c0,0.661,0.073,0.778,0.646,0.778h0.279v0.438c-0.337-0.015-0.983-0.044-1.47-0.044c-0.5,0-1.146,0.029-1.615,0.044V284.214
		L127.223,284.214z"/>
	<path d="M132.626,284.214h0.292c0.528,0,0.867-0.178,0.867-1.221v-2.969c0-0.589-0.177-0.749-0.455-0.749
		c-0.222,0-0.472,0.089-0.634,0.16v-0.438c0.634-0.235,1.646-0.766,2.057-1.06h0.147v5.054c0,1.045,0.337,1.221,0.867,1.221h0.293
		v0.438c-0.56-0.015-1.248-0.044-1.72-0.044s-1.159,0.029-1.719,0.044v-0.438h0.004V284.214z M134.345,275.001
		c0.41,0,0.733,0.324,0.733,0.733c0,0.412-0.325,0.735-0.733,0.735c-0.412,0-0.734-0.324-0.734-0.735
		C133.611,275.326,133.933,275.001,134.345,275.001z"/>
	<path d="M142.79,283.832c-0.646,0.471-1.543,0.924-2.514,0.924c-1.792,0-3.305-1.453-3.305-3.348c0-1.514,1.219-3.469,3.495-3.469
		c0.911,0,1.646,0.266,2.014,0.428l0.088,1.381l-0.116,0.026c-0.515-0.808-1.41-1.335-2.263-1.335c-1.309,0-2.102,1.102-2.102,2.307
		c0,1.731,1.176,3.305,2.688,3.305c0.439,0,1.103-0.102,1.97-0.616L142.79,283.832z"/>
	<path d="M143.506,284.214h0.292c0.529,0,0.867-0.178,0.867-1.221v-2.969c0-0.589-0.176-0.749-0.456-0.749
		c-0.22,0-0.47,0.089-0.633,0.16v-0.438c0.633-0.235,1.646-0.766,2.057-1.06h0.148v5.054c0,1.045,0.337,1.221,0.865,1.221h0.293
		v0.438c-0.559-0.015-1.247-0.044-1.718-0.044c-0.473,0-1.161,0.029-1.72,0.044v-0.438h0.004V284.214z M145.225,275.001
		c0.409,0,0.733,0.324,0.733,0.733c0,0.412-0.325,0.735-0.733,0.735c-0.413,0-0.733-0.324-0.733-0.735
		C144.491,275.326,144.812,275.001,145.225,275.001z"/>
	<path d="M147.616,284.214h0.265c0.661,0,0.779-0.178,0.779-1.028v-2.498c0-1.321-0.177-1.543-0.515-1.543
		c-0.133,0-0.325,0.06-0.529,0.161v-0.439c0.617-0.205,1.321-0.545,1.925-0.927h0.146v1.293c0.544-0.571,1.277-1.293,2.231-1.293
		c0.501,0,1.354,0.267,1.792,1.116c0.28,0.514,0.324,1.158,0.324,1.777v2.658c0,0.57,0.104,0.721,0.821,0.721h0.222v0.438
		c-0.354-0.015-1.016-0.044-1.514-0.044c-0.528,0-1.205,0.029-1.603,0.044v-0.438h0.266c0.616,0,0.689-0.311,0.689-1.221v-2.307
		c0-0.793-0.073-1.176-0.483-1.572c-0.189-0.189-0.516-0.354-1.016-0.354c-0.616,0-1.308,0.56-1.646,0.883v3.79
		c0,0.661,0.073,0.778,0.646,0.778h0.278v0.438c-0.337-0.015-0.983-0.044-1.469-0.044c-0.5,0-1.146,0.029-1.614,0.044v-0.435
		H147.616L147.616,284.214z"/>
	<path d="M162.083,278.821h-1.265c0.221,0.279,0.529,0.634,0.529,1.367c0,1.483-1.454,2.159-2.352,2.159
		c-0.279,0-0.517-0.03-0.617-0.044c-0.25,0.161-0.882,0.558-0.882,0.838c0,0.411,0.72,0.455,1.543,0.499
		c1.896,0.104,3.1,0.412,3.1,2.027c0,1.498-1.558,2.174-3.114,2.174c-1.071,0-3.011-0.323-3.011-1.836
		c0-0.926,0.749-1.409,1.482-1.543v-0.028c-0.235-0.044-0.999-0.22-0.999-0.91c0-0.456,0.354-0.767,1.233-1.321l0.117-0.074
		c-0.911-0.366-1.482-1.115-1.482-1.924c0-1.322,1.102-2.264,2.481-2.264c0.571,0,0.938,0.118,1.264,0.266h2.395L162.083,278.821z
		 M159.144,287.341c1.115,0,2.174-0.381,2.174-1.352c0-1.015-1.114-1.291-2.38-1.291c-0.571,0-2.102,0-2.102,1.291
		C156.838,286.666,157.44,287.341,159.144,287.341z M158.895,281.908c0.938,0,1.336-0.691,1.336-1.543
		c0-1.412-0.688-1.984-1.438-1.984c-0.705,0-1.309,0.688-1.309,1.602C157.484,280.878,157.954,281.908,158.895,281.908z"/>
</g>
<text transform="matrix(1 0 0 1 252.0623 127.855)" fill="#492D08" font-family="'DeGenerate'" font-size="19">Price comparison </text>
<text transform="matrix(1 0 0 1 304.0818 146.855)" fill="#492D08" font-family="'DeGenerate'" font-size="19">chart</text>
<circle fill="#E83658" stroke="#492D08" stroke-linecap="round" stroke-miterlimit="10" stroke-dasharray="2.7853" cx="271.057" cy="166.535" r="15.057"/>
<circle fill="#E5E538" stroke="#492D08" stroke-linecap="round" stroke-miterlimit="10" stroke-dasharray="2.7853" cx="271.057" cy="207.235" r="15.058"/>
<text transform="matrix(1 0 0 1 299.6726 200.4888)" font-family="'Berling-Roman'" font-size="12">affordable pricing</text>
<text transform="matrix(1 0 0 1 299.6736 168.8843)" font-family="'Berling-Roman'" font-size="12">premium pricing</text>
<g id="Layer_2">
	<path fill="#E83658" stroke="#492D08" stroke-width="0.75" stroke-linecap="round" stroke-miterlimit="10" d="M75.435,68.796
		c9.521-5.479,38.777-27.646,68.58,8.896c31.812,39.001-21.988,105.104-43.469,107.866c-12.61,1.622-28.231-1.844-28.231-1.844
		s-15.025,8.385-25.774,2.147C5.285,161.932-18.519,79.998,30.58,64.622C61.399,54.969,65.908,74.271,75.435,68.796z"/>
	<path fill="#E5E538" stroke="#492D08" stroke-width="0.75" stroke-linecap="round" stroke-miterlimit="10" d="M122.286,60.21
		l-43.815,59.3l11.146,66.402c0,0,32.851,4.803,54.544-42.62c21.69-47.423,2.71-64.369,2.71-64.369
		C137.732,68.149,126.478,61.434,122.286,60.21z"/>
	
		<path fill="none" stroke="#492D08" stroke-width="0.75" stroke-linecap="round" stroke-miterlimit="10" stroke-dasharray="4.7498" d="
		M78.013,72.637c17.109-8.324,38.59-25.303,66.323,11.829c22.127,29.632-19.759,93.843-41.228,96.436
		c-12.604,1.521-28.214-1.729-28.214-1.729s-15.019,7.863-25.762,2.015C7.909,158.735-15.876,81.879,33.191,67.454
		C63.988,58.4,60.901,80.964,78.013,72.637z"/>
	<g>
		<path fill="#B5DC87" stroke="#492D08" stroke-width="0.75" stroke-linecap="round" stroke-miterlimit="10" d="M100.611,2.417
			c0,0-17.837,18.776-24.123,30.79C70.206,45.219,73.006,64.3,73.006,64.3s20.518-5.173,30.14-20.171
			C112.762,29.131,100.611,2.417,100.611,2.417z"/>
		<path fill="#B5DC87" stroke="#492D08" stroke-width="0.75" stroke-linecap="round" stroke-miterlimit="10" d="M100.611,2.417
			c2.904,31.8-23.758,38.646-27.604,61.884"/>
		<path fill="#B5DC87" stroke="#492D08" stroke-width="0.75" stroke-linecap="round" stroke-miterlimit="10" d="M94.23,29.74
			c-0.09-0.563,5.527-1.95,12.562-3.096"/>
		
			<line fill="none" stroke="#492D08" stroke-width="0.75" stroke-linecap="round" stroke-miterlimit="10" x1="98.118" y1="22.704" x2="105.704" y2="21.468"/>
		<path fill="#B5DC87" stroke="#492D08" stroke-width="0.75" stroke-linecap="round" stroke-miterlimit="10" d="M77.563,52.118
			c-1.196-7.364-2.687-13.237-3.319-13.134"/>
		<path fill="#B5DC87" stroke="#492D08" stroke-width="0.75" stroke-linecap="round" stroke-miterlimit="10" d="M81.932,45.75
			c-1.354-8.317-3.229-14.927-4.195-14.768"/>
		<path fill="#B5DC87" stroke="#492D08" stroke-width="0.75" stroke-linecap="round" stroke-miterlimit="10" d="M4.641,68.359
			c0,0,23.816-10.188,37.262-11.896c13.454-1.712,30.364,7.557,30.364,7.557s-11.99,17.434-29.399,21.232
			C25.456,89.047,4.641,68.359,4.641,68.359z"/>
		<path fill="#B5DC87" stroke="#492D08" stroke-width="0.75" stroke-linecap="round" stroke-miterlimit="10" d="M4.641,68.359
			c28.804,13.793,44.502-8.817,67.626-4.339"/>
		<path fill="#B5DC87" stroke="#492D08" stroke-width="0.75" stroke-linecap="round" stroke-miterlimit="10" d="M32.481,71.892
			c-0.5-0.283-3.75,4.502-7.277,10.696"/>
		
			<line fill="none" stroke="#492D08" stroke-width="0.75" stroke-linecap="round" stroke-miterlimit="10" x1="24.531" y1="73.083" x2="20.736" y2="79.767"/>
		<path fill="#B5DC87" stroke="#492D08" stroke-width="0.75" stroke-linecap="round" stroke-miterlimit="10" d="M59.261,64.052
			c-6.481-3.688-11.479-7.126-11.16-7.683"/>
		<path fill="#B5DC87" stroke="#492D08" stroke-width="0.75" stroke-linecap="round" stroke-miterlimit="10" d="M51.767,65.934
			c-7.325-4.167-12.866-8.228-12.377-9.076"/>
	</g>
	<g>
		<path fill="#492D08" d="M30.474,123.96c0.239,0.221,2.44-1.399,3.961-1.399c1.661,0,4.301,1.222,4.301,4.921
			c0,4.041-2.739,5.32-4.581,5.32c-2.479,0-4.979-2.06-4.979-7.141c0-6.103,2.682-9.062,5.821-9.062c1.22,0,3.341,0.84,2.859,1.359
			l-0.22,0.46c-0.221,0.939-1.421-1.319-2.341-1.141c-0.5,0.101-2.261-0.021-3.261,1.5c-0.16,0.261-0.46,0.82-0.722,1.421
			c-0.061,0.14-0.238-0.021-0.358,0.34c-0.12,0.34,0.08,0.38,0.04,0.521C30.574,122.521,30.174,123.621,30.474,123.96z
			 M38.016,127.401c0-1.659-1.682-4.001-3.479-4.001c-1.7,0-4.281,0.561-4.263,2.722c0.062,1.34,0.46,3.642,1.182,4.181
			C33.615,131.902,38.016,130.442,38.016,127.401z M30.875,120.14c-0.34-0.261-0.74,0.76-0.399,0.899
			C30.814,121.18,31.015,120.26,30.875,120.14z"/>
		<path fill="#492D08" d="M46.115,116.999c1.118,0.04,2.938-0.399,2.898,0.2l-0.08,0.56c-0.04,0.601-1.38,0.08-2.262,0.12
			c-0.859,0.04-1.18-0.04-2.18,0.12c-1.44-0.2-1.843,1.601-1.94,2.681c-0.1,1.021,0.061,1.562,0.24,2.58
			c0.42,1.121,1.682-1.3,2.881-1.3c2.9,0,4.361,2.562,4.361,5.182c0,2.961-1.683,5.182-4.861,5.182c-2.08,0-4.501-2.181-3.859-2.721
			l0.34-0.221c0.58-0.26,2.161,2.301,3.603,2.301c2.302,0,3.142-2.439,3.142-4.421c0-2.602-1.221-4.462-2.7-4.462
			c-1.318,0-2.659,3.062-3.239,2.621l-0.5-0.101c-0.319-0.039-0.24-2.819-0.12-4.601c0.101-1.479,0.24-3.882,0.62-3.802
			C43.175,116.959,44.715,116.939,46.115,116.999z M43.615,119.58c-0.182,0.46,0.1,0.359,0.198,0.3
			C43.915,119.82,43.875,118.939,43.615,119.58z M48.696,125.721c-0.198-0.28-0.42-0.602-0.618-0.421
			c-0.222,0.181,0.061,0.841,0.3,0.681c0.021,0,0.061-0.12,0.12-0.141c0.141-0.061,0.12,0.381-0.04,0.381
			c-0.062,0-0.12-0.021-0.182-0.021c-0.198-0.061,0.82-0.28,0.58-0.181c-0.22,0.08-0.72,0.061-0.54,0.141
			c0.021,0,0.12,0.061,0.182,0.061c0.141,0,0.141-0.479,0.021-0.421c-0.061,0.04-0.061,0.16-0.12,0.181
			c-0.2,0.181-0.561-0.54-0.318-0.721C48.316,125.081,48.856,125.901,48.696,125.721z"/>
		<path fill="#492D08" d="M52.134,120.58c0-2.48,1.181-3.501,2.66-3.501s2.461,1.199,2.461,3.681c0,2.482-0.979,3.321-2.461,3.321
			c-0.8,0-1.5-0.28-1.979-0.92c-0.08-0.12-0.061-0.341-0.12-0.46c-0.14-0.24-0.34-0.42-0.42-0.74
			C52.193,121.56,52.134,121.1,52.134,120.58z M52.854,122.5c-0.181,0.061-0.021,0.66,0.062,0.5c0.021-0.061,0.04-0.12,0.04-0.2
			C52.954,122.68,52.894,122.58,52.854,122.5z M54.654,117.699c-1.34,0-1.42,1.68-1.42,2.96c0,1.279,0.08,2.961,1.42,2.961
			c1.342,0,1.422-1.682,1.422-2.961C56.075,119.379,55.995,117.699,54.654,117.699z M62.576,116.519c0,0,0.398,0.601-0.04,0.96
			c-0.682,0.581-6.001,9.842-7.281,13.264c-0.439,1.18-1.103,1.239-1.103,1.239l-0.76-0.399c0,0,1.439-2.08,1.859-2.88
			c1.66-3.262,4.802-10.122,6.381-12.224c0.2-0.261,0.7-0.061,0.7-0.061L62.576,116.519z M59.035,128.682
			c0-2.479,1.18-3.501,2.659-3.501s2.46,1.2,2.46,3.681c0,2.479-0.979,3.32-2.46,3.32c-0.8,0-1.5-0.28-1.979-0.92
			c-0.08-0.12-0.062-0.341-0.119-0.461c-0.141-0.239-0.341-0.42-0.421-0.739C59.095,129.662,59.035,129.202,59.035,128.682z
			 M61.556,125.801c-1.341,0-1.42,1.682-1.42,2.962c0,1.279,0.079,2.96,1.42,2.96c1.34,0,1.42-1.681,1.42-2.96
			C62.976,127.482,62.896,125.801,61.556,125.801z"/>
	</g>
	<g>
		<path fill="#492D08" d="M99.286,124.781c0,0-0.439,0.1-0.439-0.4c0-0.699,0.521-0.46,0.521-0.46l0.777-0.021
			c2.301-0.061,3.121-1.96,3.121-3.541c0-1.739-0.82-3.081-2.562-3.081c-1.359,0-2.103,3.102-3.041,2.521l-0.762-0.42
			c-0.92-0.979,2.2-2.779,4.062-2.779c2.562,0,4.062,1.84,4.062,4.001c0,1.819-2.301,3.279-1.938,3.661c0,0,2.36,2.021,2.36,3.881
			c0,1.66-1.021,2.8-1.541,3.46c-0.079,0.101-0.462,0.3-0.58,0.359c-0.102,0.061-0.438,0.439-0.54,0.5
			c-0.5,0.261-1.222,0.341-2.142,0.341c-2.081,0-5.161-2.102-4.121-3.222l0.262-0.061c0.618-1.182,1.221,2.42,3.581,2.38
			c2.318-0.04,3.898-1.859,3.898-3.78c0-0.88-0.58-1.46-1.061-1.88c-0.16-0.141-0.521-0.96-0.921-1.102
			c-0.722-0.24-1.302-0.42-2.223-0.42L99.286,124.781z"/>
		<path fill="#492D08" d="M112.846,117c1.119,0.04,2.939-0.399,2.899,0.2l-0.08,0.56c-0.04,0.601-1.38,0.08-2.262,0.12
			c-0.858,0.04-1.181-0.04-2.181,0.12c-1.438-0.2-1.842,1.601-1.938,2.681c-0.103,1.021,0.061,1.562,0.238,2.58
			c0.42,1.121,1.682-1.3,2.88-1.3c2.901,0,4.361,2.562,4.361,5.182c0,2.961-1.682,5.182-4.861,5.182
			c-2.078,0-4.501-2.181-3.858-2.722l0.34-0.221c0.58-0.26,2.16,2.301,3.602,2.301c2.303,0,3.143-2.439,3.143-4.421
			c0-2.602-1.22-4.462-2.699-4.462c-1.32,0-2.661,3.062-3.241,2.621l-0.5-0.101c-0.318-0.039-0.24-2.819-0.12-4.601
			c0.103-1.479,0.24-3.882,0.62-3.802C109.905,116.959,111.445,116.939,112.846,117z M110.345,119.58
			c-0.181,0.46,0.101,0.359,0.199,0.3C110.646,119.82,110.605,118.94,110.345,119.58z M115.426,125.722
			c-0.198-0.28-0.42-0.601-0.619-0.421c-0.221,0.181,0.062,0.841,0.301,0.681c0.021,0,0.062-0.12,0.12-0.141
			c0.142-0.06,0.12,0.381-0.04,0.381c-0.062,0-0.12-0.021-0.182-0.021c-0.199-0.061,0.82-0.28,0.58-0.181
			c-0.22,0.08-0.72,0.061-0.54,0.141c0.021,0,0.12,0.061,0.182,0.061c0.142,0,0.142-0.479,0.021-0.421
			c-0.062,0.04-0.062,0.16-0.12,0.181c-0.199,0.181-0.562-0.54-0.319-0.72C115.046,125.082,115.586,125.901,115.426,125.722z"/>
		<path fill="#492D08" d="M118.864,120.581c0-2.48,1.182-3.501,2.66-3.501c1.479,0,2.461,1.2,2.461,3.681
			c0,2.481-0.979,3.321-2.461,3.321c-0.8,0-1.5-0.28-1.979-0.92c-0.08-0.12-0.062-0.34-0.12-0.46c-0.14-0.24-0.34-0.42-0.42-0.74
			C118.924,121.561,118.864,121.101,118.864,120.581z M119.584,122.501c-0.182,0.061-0.021,0.66,0.062,0.5
			c0.021-0.061,0.04-0.12,0.04-0.2C119.685,122.681,119.624,122.581,119.584,122.501z M121.385,117.7
			c-1.341,0-1.421,1.68-1.421,2.96c0,1.279,0.08,2.961,1.421,2.961s1.421-1.682,1.421-2.961
			C122.805,119.38,122.725,117.7,121.385,117.7z M129.307,116.52c0,0,0.398,0.601-0.04,0.96c-0.682,0.581-6.002,9.842-7.282,13.264
			c-0.438,1.18-1.1,1.239-1.1,1.239l-0.762-0.399c0,0,1.438-2.08,1.858-2.88c1.661-3.262,4.804-10.122,6.384-12.224
			c0.198-0.261,0.698-0.061,0.698-0.061L129.307,116.52z M125.766,128.682c0-2.479,1.18-3.501,2.659-3.501s2.462,1.2,2.462,3.681
			c0,2.479-0.979,3.32-2.462,3.32c-0.8,0-1.5-0.28-1.979-0.92c-0.078-0.12-0.06-0.341-0.118-0.461
			c-0.142-0.239-0.342-0.42-0.422-0.739C125.825,129.662,125.766,129.202,125.766,128.682z M128.286,125.801
			c-1.343,0-1.42,1.682-1.42,2.962c0,1.279,0.077,2.96,1.42,2.96c1.34,0,1.42-1.681,1.42-2.96
			C129.706,127.482,129.626,125.801,128.286,125.801z"/>
	</g>
</g>
<g enable-background="new    ">
	<path fill="#492D08" d="M3.945,236.937c-0.304,0.152-0.912,0.096-0.912,0.096c-0.513,0.152-0.228-1.158-0.209-2.945
		c0.019-2.375-0.266-5.735-0.171-8.416c0.038-1.082-0.133-2.146-0.133-2.887c0-0.816,3.724-0.627,3.724-0.627
		c3.628-0.607,4.844,2.336,4.844,4.047c0,1.805-1.063,4.293-5.091,4.084l-1.689-0.096C3.584,230.574,4.591,236.615,3.945,236.937z
		 M4.021,228.958h1.007c2.033,0,5.167-0.076,5.167-2.736c0-2.811-3.496-3.324-5.376-2.734c0,0-0.646-0.02-0.779,0.246
		C3.546,224.703,3.565,228.863,4.021,228.958z M4.002,234.488c0,0-0.247,0.664-0.285,1.082c-0.057,0.627,0.134,1.025,0.323,1.082
		C4.287,236.728,4.325,233.878,4.002,234.488z"/>
	<path fill="#492D08" d="M14.072,236.767c-0.285,0.037-0.304,0.133-0.836,0.113c0,0-0.57,0.02-0.38-0.949
		c0.398-2.033,0-7.182-0.038-9.062c0-0.438,0.893-0.418,0.893-0.418l0.532,0.189l0.057,2.072l0.02,0.057
		c0.437,0.209,1.672-2.66,2.963-2.471c0,0,0.342-0.018,0.494,0.076c0.285,0.19,0.019,0.514,0.038,0.932
		c0.133,0.455-0.874,0.361-1.312,0.646c-0.949,0.606-1.577,1.651-2.166,3.039c0,0-0.151,3.096-0.113,4.063
		c0,0.133-0.02,0.514,0.057,0.666c0.076,0.17,0.133,0.112,0.152,0.284c0.038,0.246-0.02,0.304-0.02,0.418
		C14.413,236.634,14.242,236.748,14.072,236.767z M13.122,235.152c0,0-0.475,1.463,0.058,1.463
		C13.369,236.615,13.369,235.189,13.122,235.152z M14.965,227.078c-0.038-0.418-0.798,0.057-1.063-0.246
		c-0.361-0.418,0.342-0.875,0.285-1.445c-0.058-0.531-0.323-0.834-0.589-1.271c-0.343-0.57,0.551,0.607,0.569,1.348
		c0.02,0.57-0.589,0.951-0.266,1.369c0.247,0.322,1.045-0.151,1.063,0.267c0,0.151-0.171,0.418-0.113,0.397
		C14.85,227.496,14.965,227.25,14.965,227.078z M14.11,235.816c0,0-0.152,0.342,0.209,0.494
		C14.509,236.386,14.205,235.55,14.11,235.816z M15.573,229.966c0,0-0.494,0.359,0.038,0.359
		C15.801,230.326,15.82,230.003,15.573,229.966z"/>
	<path fill="#492D08" d="M20.779,223.697c0,0-0.323,0.322-0.57,0.322c-0.133,0-0.342-0.133-0.342-0.133s-0.475-0.379-0.513-0.723
		c-0.058-0.379,0.322-0.91,0.322-0.91s0.285-0.115,0.438-0.133c0.285-0.039,0.76,0.037,0.76,0.037s0.096,0.438,0.096,0.723
		C20.969,223.203,20.779,223.697,20.779,223.697z M20.969,236.937h-1.482c0,0,0.228-5.945-0.038-9.879
		c-0.019-0.209,0.038-0.607,0.038-0.607s0.608-0.113,0.912,0.039c0.114,0.057,0.285,0.246,0.285,0.246s0.189,0.133,0.095,1.652
		C20.589,231.429,20.969,236.937,20.969,236.937z"/>
	<path fill="#492D08" d="M21.387,226.298c-0.152,0.02-0.229-0.359-0.076-0.379C21.463,225.899,21.539,226.281,21.387,226.298z
		 M30.506,228.921c0.761,0.209-1.558-2.773-3.286-2.773c-2.337,0-4.198,1.613-4.198,5.547c0,3.932,1.861,5.547,4.198,5.547
		c1.69,0,4.293-2.604,3.381-2.869l-0.134-0.303c-0.342-0.418-1.596,2.316-2.868,2.373c-2.28,0-3.21-2.926-3.516-5.242
		c-0.228-1.768,0.855-3.799,3.135-3.799c1.179-0.039,1.844,2.051,2.395,1.879L30.506,228.921z M26.441,236.595
		c-0.229-0.342,0-0.455,0-0.455C29.1,236.937,26.725,237.013,26.441,236.595z M27.2,233.175c-0.019,0.096,0.02,0.209,0.076,0.268
		c0.133,0.133,0.398-0.494,0.189-0.494C27.333,232.949,27.219,233.042,27.2,233.175z M29.366,228.958c-0.228-0.342,0-0.455,0-0.455
		C29.214,228.427,29.651,229.376,29.366,228.958z"/>
	<path fill="#492D08" d="M26.309,235.304c0,0.113-0.038,0.209-0.076,0.303c-0.114,0.268-0.361-0.701-0.095-0.777
		C26.214,234.962,26.309,235.113,26.309,235.304z M35.351,231.96c0.893-0.57,4.882-0.248,4.882-0.248
		c0.304-0.058,0.323-1.082-0.02-2.297c-0.057-0.172-0.133-0.951-0.209-1.104c-0.151-0.285-0.189-0.058-0.342-0.343
		c-0.285-0.551-0.532-1.045-1.045-1.102c-0.152-0.02-0.266-0.475-0.342-0.512c-0.456-0.248-0.855-0.209-1.463-0.209
		c-0.76,0-1.559,0.246-2.128,0.512c-0.456,0.209-0.267,0.209-0.343,0.324c-0.684,1.043-1.538,2.26-1.729,4.711
		c-0.038,0.551-0.114,1.082,0,1.52c0.779,2.793,2.185,4.027,4.198,4.027c1.805,0,3.628-2.641,2.981-2.621l-0.113-0.248
		c-0.494-0.152-2.527,2.338-2.982,2.146c-0.418-0.17-1.881-0.494-2.736-1.576c-0.171-0.209-0.057-0.229-0.266-0.455
		c-0.57-0.59,0.133-0.988,0.133-2.508C33.832,231.98,34.858,232.265,35.351,231.96z M37.669,230.82
		c-1.368,0.248-3.608,0.4-3.608,0.4c-0.514,0.018-0.229-2.604,1.158-3.402c0.438-0.246,1.141-0.76,1.862-0.607
		c0.589,0.133,1.615,0.457,1.806,1.179c0.057,0.209,0.266,0.075,0.228,0.59c-0.076,0.949,0.247,1.86,0,1.938
		C39.113,230.916,38.106,230.744,37.669,230.82z M39.151,231.429c-0.229-0.344,0.076-0.836,0.076-0.836
		C39.075,230.517,39.436,231.847,39.151,231.429z"/>
	<path fill="#492D08" d="M46.182,226.298c-0.152,0.02-0.229-0.359-0.076-0.379C46.258,225.899,46.334,226.281,46.182,226.298z
		 M55.301,228.921c0.761,0.209-1.558-2.773-3.286-2.773c-2.338,0-4.198,1.613-4.198,5.547c0,3.932,1.86,5.547,4.198,5.547
		c1.69,0,4.293-2.604,3.381-2.869l-0.133-0.303c-0.343-0.418-1.597,2.316-2.869,2.373c-2.28,0-3.21-2.926-3.516-5.242
		c-0.228-1.768,0.855-3.799,3.136-3.799c1.178-0.039,1.843,2.051,2.394,1.879L55.301,228.921z M51.235,236.595
		c-0.229-0.342,0-0.455,0-0.455C53.895,236.937,51.52,237.013,51.235,236.595z M51.995,233.175c-0.019,0.096,0.02,0.209,0.076,0.268
		c0.133,0.133,0.399-0.494,0.19-0.494C52.128,232.949,52.014,233.042,51.995,233.175z M54.16,228.958c-0.228-0.342,0-0.455,0-0.455
		C54.009,228.427,54.446,229.376,54.16,228.958z"/>
	<path fill="#492D08" d="M57.41,231.695c0-3.934,1.861-5.547,4.198-5.547c2.336,0,3.914,1.898,3.914,5.832
		c0,3.932-1.577,5.262-3.914,5.262c-1.254,0-2.355-0.457-3.116-1.482c-0.133-0.17-0.095-0.512-0.209-0.721
		c-0.209-0.381-0.532-0.666-0.646-1.178C57.486,233.234,57.41,232.511,57.41,231.695z M58.531,234.734
		c-0.266,0.076-0.019,1.045,0.095,0.779c0.038-0.096,0.076-0.191,0.076-0.305C58.702,235.019,58.607,234.867,58.531,234.734z
		 M64.23,231.695c0.266-1.768-0.152-4.77-2.433-4.77c-2.279,0-2.906,2.982-2.906,4.77c0,1.785,0.627,5.148,2.906,5.148
		C64.078,236.843,63.565,236.044,64.23,231.695z"/>
	<path fill="#492D08" d="M73.578,236.273c0,0,0.02-2.736,0.038-4.465c0-0.836,0.057-2.203,0.057-2.203
		c0.058-1.92,0-2.242-1.576-2.242c-1.272,0.039-2.033,0.703-2.792,1.387c0,0-0.209,2.812-0.247,4.578
		c-0.038,1.35-0.038,3.516-0.038,3.516l-1.103,0.095c0,0,0.02-4.672,0-5.033c-0.285-3.362-0.095-4.444,0.096-5.396
		c0.133-0.646,0.569-0.246,0.569-0.246l0.438,0.475l0.285,0.646c0.911-0.742,1.69-1.234,2.906-1.234
		c1.121,0,1.977,0.475,2.526,1.424c0.969-0.779,1.9-1.406,3.21-1.424c1.482,0,2.488,0.721,2.488,3.457c0,0,0,2.412,0.02,3.912
		c0,1.312,0.076,3.42,0.076,3.42c-0.532,0-1.159-0.037-1.311,0c-0.494,0.152,0.019-6.762,0.019-6.762
		c0.019-3.572,0.19-3.191-1.387-3.191c-1.083-0.02-2.262,1.102-2.889,1.766c0,0-0.151,6.744-0.209,7.81
		C74.718,237.146,73.578,236.273,73.578,236.273z M69.437,226.205c-0.038,0.037,0.38,0.684,0.095,0.094
		C69.019,225.236,69.475,226.166,69.437,226.205z M77.606,238.457c-0.247,0.172,0.76,1.254,0.475,0.666
		C77.568,238.058,77.853,238.287,77.606,238.457z"/>
	<path fill="#492D08" d="M82.946,226.603c-0.379,0,0.058-1.158,0.457-1.008c0.17,0.076,0.512,0.477,0.455,0.646
		c0.057,0.096-0.037,0.133-0.058,0.133C83.25,226.375,83.194,226.603,82.946,226.603z M83.003,227.724
		c0.096,3.553,0,12.689-0.095,13.963c-0.038,0.607,0.322,0.873,0.322,0.873s0.398,0.115,0.627,0.076
		c0.665-0.133,0.475-1.689,0.475-1.689l0.097-5.207c0.702-0.455,1.52,1.502,2.679,1.502c1.425,0,3.837-1.311,3.837-5.338
		c0-4.123-2.09-5.756-3.896-5.756c-1.006,0-2.127,0.283-2.811,1.006l-0.381-0.607C83.858,226.546,82.965,226.185,83.003,227.724z
		 M84.143,230.667c0.038-1.025,0.475-2.582,0.475-2.582c0.457-0.912,1.312-0.742,2.451-0.742c2.07,0,2.317,2.945,2.317,4.521
		c0,3.077-1.463,4.084-2.488,4.084c-1.045,0-1.862-0.873-2.28-1.767C84.617,234.183,84.086,232.056,84.143,230.667z"/>
	<path fill="#492D08" d="M99,236.861l-0.342-1.254c-1.083,0.305-1.805,1.635-3.04,1.635c-1.614,0-2.906-1.35-2.906-3.002
		c0-3.002,3.153-3.646,5.473-4.273l0.475-0.133v-0.59c0-1.197-0.285-1.994-2.033-1.842c-1.957,0.17-2.487,2.051-3.135,1.311
		l-0.17-0.399c-0.457-0.228,1.747-2.164,3.343-2.164c1.425,0,3.077,1.14,3.173,3.533l0.229,4.672
		c0.019,0.269,0.171,2.375-0.209,2.396L99,236.861z M93.567,236.253c0.114-0.267,0.152,0.606,0.152-0.229l-0.229-0.075
		C93.225,236.71,93.567,236.253,93.567,236.253z M98.563,230.916c0.133-0.949-4.844,1.291-4.844,3.172
		c0,0.875,1.062,1.748,1.956,1.748c1.179,0,3.135-1.158,2.982-1.709l-0.114-3.078L98.563,230.916z M94.365,228.085
		c0.685,0.018,1.481-0.476,1.14-0.912C95.164,226.736,93.814,228.066,94.365,228.085z M98.81,229.908c0,0-0.417,1.635-0.19,1.977
		C98.905,232.302,98.658,229.833,98.81,229.908z M99,235.949c0,0-0.209,0.114,0,0.456C99.703,237.583,98.848,235.875,99,235.949z"/>
	<path fill="#492D08" d="M103.713,236.767c-0.284,0.037-0.305,0.133-0.836,0.113c0,0-0.569,0.02-0.381-0.949
		c0.399-2.033,0-7.182-0.037-9.062c0-0.438,0.894-0.418,0.894-0.418l0.53,0.189l0.059,2.072l0.019,0.057
		c0.438,0.209,1.672-2.66,2.964-2.471c0,0,0.344-0.018,0.494,0.076c0.285,0.19,0.02,0.514,0.038,0.932
		c0.133,0.455-0.874,0.361-1.311,0.646c-0.95,0.606-1.577,1.651-2.166,3.039c0,0-0.152,3.096-0.114,4.063
		c0,0.133-0.019,0.514,0.058,0.666c0.076,0.17,0.134,0.112,0.151,0.284c0.038,0.246-0.019,0.304-0.019,0.418
		C104.055,236.634,103.883,236.748,103.713,236.767z M102.763,235.152c0,0-0.477,1.463,0.058,1.463
		C103.01,236.615,103.01,235.189,102.763,235.152z M104.606,227.078c-0.038-0.418-0.798,0.057-1.064-0.246
		c-0.359-0.418,0.342-0.875,0.285-1.445c-0.057-0.531-0.322-0.834-0.588-1.271c-0.343-0.57,0.551,0.607,0.569,1.348
		c0.019,0.57-0.589,0.951-0.268,1.369c0.248,0.322,1.045-0.151,1.064,0.267c0,0.151-0.171,0.418-0.114,0.397
		C104.491,227.496,104.606,227.25,104.606,227.078z M103.75,235.816c0,0-0.15,0.342,0.209,0.494
		C104.15,236.386,103.846,235.55,103.75,235.816z M105.213,229.966c0,0-0.494,0.359,0.039,0.359
		C105.442,230.326,105.461,230.003,105.213,229.966z"/>
	<path fill="#492D08" d="M110.42,223.697c0,0-0.323,0.322-0.569,0.322c-0.134,0-0.343-0.133-0.343-0.133s-0.475-0.379-0.514-0.723
		c-0.057-0.379,0.323-0.91,0.323-0.91s0.285-0.115,0.437-0.133c0.285-0.039,0.761,0.037,0.761,0.037s0.096,0.438,0.096,0.723
		C110.61,223.203,110.42,223.697,110.42,223.697z M110.61,236.937h-1.482c0,0,0.229-5.945-0.037-9.879
		c-0.02-0.209,0.037-0.607,0.037-0.607s0.608-0.113,0.912,0.039c0.114,0.057,0.285,0.246,0.285,0.246s0.189,0.133,0.096,1.652
		C110.23,231.429,110.61,236.937,110.61,236.937z"/>
	<path fill="#492D08" d="M115.854,233.556c0.019,0.057-0.248-0.096-0.399-0.096c-0.418,0.057,0.133,0.817-0.171,1.084
		c-0.397,0.36-0.816-0.209-1.387-0.133c-0.741,0.075-1.843,1.062-1.292,0.684c0.398-0.305,0.685-0.59,1.216-0.703
		c0.551-0.096,1.063,0.551,1.463,0.152c0.266-0.285-0.266-1.008,0.152-1.064C115.606,233.46,115.854,233.556,115.854,233.556z
		 M119.52,228.503c0.475-0.342-1.729-2.355-3.191-2.355c-1.729,0-2.83,1.938-2.83,3.742c0,3.762,5.338,1.178,5.338,3.818
		c0,1.197-0.854,2.811-1.938,2.811c-1.254,0-2.89-2.279-3.269-1.881l-0.607,0.02c-0.285,0.664,1.881,2.584,3.57,2.584
		c1.978,0,3.63-1.748,3.63-3.799c0-3.535-6.1-1.236-6.1-3.801c0-1.633,1.292-2.24,2.261-2.24c0.933,0,1.824,0.588,2.355,1.215
		c0.114,0.133,0.665,0.418,0.723-0.02L119.52,228.503z"/>
	<path fill="#492D08" d="M121.781,231.695c0-3.934,1.862-5.547,4.199-5.547c2.336,0,3.913,1.898,3.913,5.832
		c0,3.932-1.577,5.262-3.913,5.262c-1.254,0-2.355-0.457-3.116-1.482c-0.133-0.17-0.095-0.512-0.209-0.721
		c-0.209-0.381-0.532-0.666-0.646-1.178C121.858,233.234,121.781,232.511,121.781,231.695z M122.903,234.734
		c-0.266,0.076-0.021,1.045,0.096,0.779c0.037-0.096,0.075-0.191,0.075-0.305C123.073,235.019,122.979,234.867,122.903,234.734z
		 M128.602,231.695c0.266-1.768-0.152-4.77-2.433-4.77c-2.279,0-2.905,2.982-2.905,4.77c0,1.785,0.627,5.148,2.905,5.148
		C128.449,236.843,127.937,236.044,128.602,231.695z"/>
	<path fill="#492D08" d="M133.486,236.558c0,0-0.171,0.551-0.438,0.57c-0.305,0.018-0.569-0.57-0.569-0.57l-0.285-10.297
		c0,0,0.893-0.209,1.141,0.133c0.113,0.172,0.151,0.531,0.151,0.531l0.189,0.609c0.873-0.703,1.69-1.388,2.888-1.388
		c1.481,0,2.831,0.815,2.68,3.552c0,0,0.569,4.161-0.399,6.479c-0.075,0.209-0.267,0.57-0.267,0.57l-0.627,0.096
		c0,0-0.437,0.113-0.379-0.285c0.094-0.836,0.531-2.812,0.512-3.895c-0.019-0.933-0.228-2.396-0.228-2.396
		c-0.096-1.062,0-2.315-1.481-2.906c-1.672-0.663-2.108,0.894-2.697,1.597L133.486,236.558z"/>
	<path fill="#492D08" d="M145.095,226.298c-0.152,0.02-0.229-0.359-0.076-0.379C145.171,225.899,145.246,226.281,145.095,226.298z
		 M154.213,228.921c0.761,0.209-1.558-2.773-3.286-2.773c-2.337,0-4.197,1.613-4.197,5.547c0,3.932,1.86,5.547,4.197,5.547
		c1.69,0,4.295-2.604,3.383-2.869l-0.134-0.303c-0.342-0.418-1.596,2.316-2.868,2.373c-2.279,0-3.211-2.926-3.516-5.242
		c-0.228-1.768,0.854-3.799,3.135-3.799c1.179-0.039,1.844,2.051,2.395,1.879L154.213,228.921z M150.149,236.595
		c-0.229-0.342,0-0.455,0-0.455C152.808,236.937,150.433,237.013,150.149,236.595z M150.908,233.175
		c-0.02,0.096,0.019,0.209,0.076,0.268c0.133,0.133,0.397-0.494,0.188-0.494C151.041,232.949,150.927,233.042,150.908,233.175z
		 M153.073,228.958c-0.228-0.342,0-0.455,0-0.455C152.922,228.427,153.359,229.376,153.073,228.958z"/>
	<path fill="#492D08" d="M158.071,227.628c0.685,0.438,1.691-1.48,2.888-1.48c1.482,0,2.717,0.816,2.68,3.551l-0.285,6.764
		l-0.816,0.476c0,0-0.475-0.476-0.437-0.854c0.15-1.824,0.057-6.004,0.057-6.004c-0.019-1.102,0.285-2.906-1.292-2.906
		c-0.912,0-3.059,1.082-2.793,1.882l-0.285,7.219l-0.531,0.476c0,0-0.798,0.096-0.76-0.189c0.57-5.055,0.74-12.234,0.531-13.754
		c-0.246-1.729,0.799-1.596,0.799-1.596l0.531,0.379L158.071,227.628z"/>
	<path fill="#492D08" d="M171.959,236.861l-0.342-1.254c-1.083,0.305-1.805,1.635-3.039,1.635c-1.615,0-2.907-1.35-2.907-3.002
		c0-3.002,3.154-3.646,5.473-4.273l0.475-0.133v-0.59c0-1.197-0.285-1.994-2.032-1.842c-1.957,0.17-2.488,2.051-3.135,1.311
		l-0.171-0.399c-0.456-0.228,1.747-2.164,3.344-2.164c1.425,0,3.077,1.14,3.172,3.533l0.229,4.672
		c0.019,0.269,0.171,2.375-0.209,2.396L171.959,236.861z M166.527,236.253c0.113-0.267,0.151,0.606,0.151-0.229l-0.229-0.075
		C166.185,236.71,166.527,236.253,166.527,236.253z M171.523,230.916c0.133-0.949-4.845,1.291-4.845,3.172
		c0,0.875,1.063,1.748,1.956,1.748c1.179,0,3.136-1.158,2.982-1.709l-0.114-3.078L171.523,230.916z M167.324,228.085
		c0.684,0.018,1.481-0.476,1.14-0.912C168.123,226.736,166.774,228.066,167.324,228.085z M171.77,229.908
		c0,0-0.418,1.635-0.19,1.977C171.865,232.302,171.617,229.833,171.77,229.908z M171.959,235.949c0,0-0.209,0.114,0,0.456
		C172.662,237.583,171.808,235.875,171.959,235.949z"/>
	<path fill="#492D08" d="M176.672,236.767c-0.284,0.037-0.304,0.133-0.836,0.113c0,0-0.568,0.02-0.38-0.949
		c0.399-2.033,0-7.182-0.038-9.062c0-0.438,0.894-0.418,0.894-0.418l0.531,0.189l0.059,2.072l0.019,0.057
		c0.438,0.209,1.672-2.66,2.964-2.471c0,0,0.343-0.018,0.493,0.076c0.285,0.19,0.021,0.514,0.038,0.932
		c0.134,0.455-0.873,0.361-1.311,0.646c-0.95,0.606-1.577,1.651-2.166,3.039c0,0-0.151,3.096-0.113,4.063
		c0,0.133-0.02,0.514,0.057,0.666c0.076,0.17,0.134,0.112,0.152,0.284c0.038,0.246-0.02,0.304-0.02,0.418
		C177.014,236.634,176.843,236.748,176.672,236.767z M175.722,235.152c0,0-0.476,1.463,0.058,1.463
		C175.969,236.615,175.969,235.189,175.722,235.152z M177.565,227.078c-0.038-0.418-0.798,0.057-1.063-0.246
		c-0.36-0.418,0.342-0.875,0.285-1.445c-0.058-0.531-0.323-0.834-0.589-1.271c-0.342-0.57,0.551,0.607,0.569,1.348
		c0.02,0.57-0.589,0.951-0.267,1.369c0.247,0.322,1.045-0.151,1.063,0.267c0,0.151-0.171,0.418-0.113,0.397
		C177.451,227.496,177.565,227.25,177.565,227.078z M176.71,235.816c0,0-0.151,0.342,0.209,0.494
		C177.11,236.386,176.805,235.55,176.71,235.816z M178.173,229.966c0,0-0.493,0.359,0.038,0.359
		C178.401,230.326,178.42,230.003,178.173,229.966z"/>
	<path fill="#492D08" d="M181.404,226.49c0.285-0.381,1.254-0.039,1.254-0.039l0.075-3.135c0,0,0.096-0.342,0.229-0.436
		c0.305-0.229,0.988,0.322,0.988,0.322s0.151,0.873,0.037,1.881c-0.057,0.569,0.152,1.367,0.152,1.367s2.107-0.685,2.354,0.188
		c0.038,0.135,0.058,0.381,0.058,0.381l-0.343,0.606l-2.069,0.076c0,0,0,0.457,0,0.76c0,0.172-0.267,0.398-0.267,0.59
		c0,0.134,0.267,0.873,0.267,1.007c0,2.187,0,4.235,0,4.235c0,1.025-0.114,2.965,0.816,2.146c0.304-0.266,1.158-1.672,1.443-1.006
		l0.266,0.209c0.627,0.398-1.12,1.596-1.634,1.596c-2.507,0-2.374-1.691-2.374-3.609v-5.928l-1.026-0.037
		C181.631,227.667,181.118,226.869,181.404,226.49z"/>
</g>
</svg>
