<?xml version="1.0" encoding="utf-8"?>
<!-- Generator: Adobe Illustrator 16.0.0, SVG Export Plug-In . SVG Version: 6.00 Build 0)  -->
<!DOCTYPE svg PUBLIC "-//W3C//DTD SVG 1.1//EN" "http://www.w3.org/Graphics/SVG/1.1/DTD/svg11.dtd">
<svg version="1.1" id="Layer_1" xmlns="http://www.w3.org/2000/svg" xmlns:xlink="http://www.w3.org/1999/xlink" x="0px" y="0px"
	 width="226.163px" height="219.765px" viewBox="0 0 226.163 219.765" enable-background="new 0 0 226.163 219.765"
	 xml:space="preserve">
<g>
	<path fill="#E83658" d="M222.674,41.601c0,4.671-1.608,8.458-3.594,8.458H6.063c-1.985,0-3.593-3.787-3.593-8.458V35.13
		c0-4.671,1.608-8.458,3.593-8.458H219.08c1.985,0,3.594,3.787,3.594,8.458V41.601z"/>
	
		<path fill="none" stroke="#492D08" stroke-width="0.4737" stroke-linecap="round" stroke-miterlimit="10" stroke-dasharray="2.7736" d="
		M218.566,40.396c0,2.931-1.548,5.307-3.458,5.307H10.035c-1.911,0-3.459-2.376-3.459-5.307v-4.061c0-2.93,1.548-5.307,3.459-5.307
		h205.073c1.91,0,3.458,2.376,3.458,5.307V40.396z"/>
</g>
<g>
	<path fill="#E83658" d="M96.09,124.623c0,4.672-0.684,8.458-1.528,8.458H3.998c-0.844,0-1.528-3.786-1.528-8.458v-6.471
		c0-4.67,0.684-8.458,1.528-8.458h90.564c0.844,0,1.528,3.788,1.528,8.458V124.623z"/>
	
		<path fill="none" stroke="#492D08" stroke-width="0.4737" stroke-linecap="round" stroke-miterlimit="10" stroke-dasharray="2.9975" d="
		M92.92,123.42c0,2.931-0.638,5.306-1.425,5.306H7.064c-0.786,0-1.424-2.375-1.424-5.306v-4.062c0-2.93,0.638-5.307,1.424-5.307
		h84.431c0.787,0,1.425,2.377,1.425,5.307V123.42z"/>
</g>
<g>
	<path fill="#E83658" d="M52.927,206.447c0,4.672-0.369,8.458-0.823,8.458H3.293c-0.455,0-0.823-3.786-0.823-8.458v-6.471
		c0-4.67,0.369-8.458,0.823-8.458h48.811c0.455,0,0.823,3.788,0.823,8.458V206.447z"/>
	
		<path fill="none" stroke="#492D08" stroke-width="0.4737" stroke-linecap="round" stroke-miterlimit="10" stroke-dasharray="2.9975" d="
		M49.518,205.243c0,2.932-0.319,5.307-0.712,5.307H6.59c-0.393,0-0.712-2.375-0.712-5.307v-4.062c0-2.93,0.319-5.306,0.712-5.306
		h42.216c0.394,0,0.712,2.376,0.712,5.306V205.243z"/>
</g>
<g>
	<path d="M9.81,87.396H9.28c-0.016-0.499-0.14-2.447-2.494-2.447c-1.293,0-2.119,0.826-2.119,1.839c0,0.904,0.467,1.543,1.761,2.135
		l1.434,0.655c1.122,0.515,2.322,1.356,2.322,2.915c0,1.948-1.278,3.366-3.88,3.366c-0.25,0-1.605-0.016-2.79-0.39l-0.062-2.556
		h0.467c0.125,1.434,1.325,2.416,2.65,2.416c1.34,0,2.493-0.811,2.493-2.12c0-1.372-1.075-1.901-1.948-2.322l-1.683-0.794
		C4.246,89.531,3.42,88.69,3.42,87.412c0-1.605,1.371-3.054,3.475-3.054c0.982,0,1.948,0.233,2.915,0.42V87.396z"/>
	<path d="M11.447,98.571h0.203c0.717,0,0.951-0.266,0.951-0.966v-6.858c0-0.623-0.188-0.794-0.484-0.794
		c-0.233,0-0.499,0.094-0.67,0.171v-0.468c0.67-0.25,1.746-0.81,2.182-1.122h0.156v1.168c0.655-0.53,1.527-1.168,2.603-1.168
		c1.933,0,2.915,1.714,2.915,3.382c0,1.808-1.2,3.849-3.818,3.849c-0.701,0-1.418-0.233-1.699-0.374v2.213
		c0,0.81,0.234,0.966,0.857,0.966h0.265v0.467c-0.499-0.016-1.075-0.046-1.621-0.046c-0.624,0-1.31,0.031-1.839,0.046V98.571z
		 M13.785,94.456c0.545,0.421,0.982,0.779,1.964,0.779c1.527,0,2.369-1.169,2.369-2.696c0-2.244-1.293-3.071-2.369-3.071
		c-0.842,0-1.387,0.421-1.964,0.888V94.456z"/>
	<path d="M26.971,94.939c-0.624,0.39-1.434,0.826-2.634,0.826c-2.494,0-3.631-2.01-3.631-3.678c0-1.824,1.574-3.553,3.351-3.553
		c1.933,0,3.023,1.2,3.023,2.883v0.156h-5.127c0.062,1.979,0.904,3.538,2.836,3.538c1.153,0,1.808-0.375,2.182-0.639V94.939z
		 M25.833,91.043c0-1.699-1.418-1.98-1.901-1.98c-1.434,0-1.979,1.403-1.979,1.98H25.833z"/>
	<path d="M34.375,94.784c-0.686,0.499-1.636,0.981-2.665,0.981c-1.901,0-3.506-1.542-3.506-3.553c0-1.605,1.293-3.678,3.709-3.678
		c0.966,0,1.745,0.28,2.135,0.452l0.094,1.465l-0.125,0.031c-0.545-0.857-1.496-1.418-2.4-1.418c-1.387,0-2.229,1.169-2.229,2.447
		c0,1.839,1.247,3.506,2.852,3.506c0.467,0,1.169-0.109,2.088-0.654L34.375,94.784z"/>
	<path d="M35.139,95.188h0.312c0.561,0,0.919-0.187,0.919-1.293v-3.148c0-0.623-0.187-0.794-0.483-0.794
		c-0.233,0-0.499,0.094-0.67,0.171v-0.468c0.67-0.25,1.746-0.81,2.182-1.122h0.156v5.361c0,1.106,0.358,1.293,0.919,1.293h0.312
		v0.468c-0.592-0.016-1.325-0.047-1.823-0.047s-1.231,0.031-1.824,0.047V95.188z M36.962,85.417c0.437,0,0.779,0.343,0.779,0.779
		c0,0.436-0.343,0.779-0.779,0.779s-0.779-0.343-0.779-0.779C36.183,85.76,36.526,85.417,36.962,85.417z"/>
	<path d="M43.773,90.918c0-0.842-0.375-1.792-1.31-1.792c-0.42,0-1.184,0.421-1.184,0.873c0,0.249,0.109,0.467,0.218,0.701
		L40.5,91.184c-0.156-0.328-0.281-0.562-0.281-0.827c0-0.499,0.358-0.841,1.044-1.247c0.67-0.405,1.169-0.576,1.465-0.576
		c1.933,0,2.229,1.387,2.229,2.072v3.164c0,0.826,0.14,0.998,0.39,0.998c0.156,0,0.468-0.109,0.701-0.219v0.421l-1.511,0.716
		c-0.172,0.078-0.234,0.078-0.296,0.078c-0.202,0-0.312-0.405-0.39-0.888c-1.044,0.748-1.496,0.888-2.151,0.888
		c-1.138,0-1.761-0.841-1.761-1.683c0-0.966,0.592-1.325,1.636-1.73l2.198-0.857V90.918z M43.773,92.025l-1.621,0.67
		c-0.312,0.125-1.028,0.437-1.028,1.123c0,0.42,0.405,1.137,1.247,1.137c0.515,0,0.951-0.296,1.449-0.67
		c-0.031-0.171-0.046-0.374-0.046-0.748V92.025z"/>
	<path d="M46.688,84.419c0.717-0.28,1.418-0.607,2.307-1.122h0.156c-0.031,0.358-0.047,1.45-0.047,2.961v7.637
		c0,1.106,0.359,1.293,0.919,1.293h0.312v0.468c-0.592-0.016-1.324-0.047-1.823-0.047c-0.499,0-1.232,0.031-1.824,0.047v-0.468H47
		c0.561,0,0.919-0.187,0.919-1.293v-8.337c0-0.484-0.187-0.78-0.577-0.78c-0.265,0-0.53,0.125-0.654,0.172V84.419z"/>
	<path d="M50.71,89.188c0.966-0.592,1.871-1.481,2.525-2.728l0.218-0.047v2.276h2.479l-0.218,0.654h-2.26v3.538
		c0,0.841,0.265,1.886,1.356,1.886c0.515,0,0.982-0.25,1.232-0.405l0.233,0.265l-1.278,1.075c-0.108,0.047-0.233,0.062-0.374,0.062
		c-0.156,0-1.153-0.078-1.746-0.717c-0.545-0.592-0.608-1.387-0.608-2.073v-3.631H50.71V89.188z"/>
	<path d="M56.976,97.698h0.156c0.233,0.203,0.607,0.342,0.888,0.342c0.811,0,1.34-0.795,1.683-1.589l0.249-0.592l-2.478-5.829
		c-0.281-0.639-0.483-0.92-1.107-0.92h-0.093v-0.467c0.467,0.015,0.841,0.047,1.48,0.047c0.515,0,1.029-0.047,1.543-0.047v0.467
		h-0.156c-0.436,0-0.576,0.156-0.576,0.421c0,0.171,0.109,0.515,0.187,0.686l1.776,4.115l1.294-3.803
		c0.078-0.25,0.202-0.592,0.202-0.857c0-0.483-0.39-0.561-0.701-0.561h-0.109v-0.467c0.452,0.015,0.873,0.047,1.247,0.047
		c0.467,0,0.919-0.032,1.387-0.047v0.467h-0.125c-0.732,0-0.95,0.483-1.324,1.512l-2.12,5.845c-0.561,1.558-1.216,2.571-2.821,2.571
		c-0.203,0-0.312-0.032-0.483-0.062V97.698z"/>
	<path d="M69.554,85.558c0-0.484-0.188-0.78-0.577-0.78c-0.265,0-0.53,0.125-0.655,0.172v-0.53c0.717-0.28,1.418-0.607,2.307-1.122
		h0.156c-0.031,0.358-0.046,1.45-0.046,2.961v3.164c0.826-0.483,1.667-0.888,2.478-0.888c1.808,0,2.961,1.714,2.961,3.538
		c0,2.119-1.683,3.693-3.834,3.693c-0.686,0-1.995-0.233-2.899-0.468c0.047-0.358,0.109-0.857,0.109-1.621V85.558z M70.739,94.752
		c0.639,0.312,1.184,0.545,1.901,0.545c1.387,0,2.353-1.262,2.353-2.898c0-1.185-0.686-2.993-2.556-2.993
		c-0.624,0-1.107,0.25-1.699,0.608V94.752z"/>
	<path d="M81.602,90.918c0-0.842-0.375-1.792-1.309-1.792c-0.421,0-1.185,0.421-1.185,0.873c0,0.249,0.109,0.467,0.218,0.701
		l-0.997,0.483c-0.156-0.328-0.281-0.562-0.281-0.827c0-0.499,0.359-0.841,1.044-1.247c0.67-0.405,1.169-0.576,1.465-0.576
		c1.933,0,2.229,1.387,2.229,2.072v3.164c0,0.826,0.14,0.998,0.39,0.998c0.156,0,0.468-0.109,0.702-0.219v0.421l-1.512,0.716
		c-0.171,0.078-0.234,0.078-0.296,0.078c-0.203,0-0.312-0.405-0.39-0.888c-1.044,0.748-1.496,0.888-2.151,0.888
		c-1.138,0-1.761-0.841-1.761-1.683c0-0.966,0.592-1.325,1.636-1.73l2.198-0.857V90.918z M81.602,92.025l-1.621,0.67
		c-0.312,0.125-1.028,0.437-1.028,1.123c0,0.42,0.405,1.137,1.247,1.137c0.515,0,0.951-0.296,1.45-0.67
		c-0.031-0.171-0.047-0.374-0.047-0.748V92.025z"/>
	<path d="M84.518,95.188h0.233c0.842,0,0.998-0.202,0.998-0.998v-8.633c0-0.484-0.187-0.78-0.577-0.78
		c-0.265,0-0.529,0.125-0.654,0.172v-0.53c0.717-0.28,1.418-0.607,2.307-1.122h0.156c-0.031,0.358-0.047,1.45-0.047,2.961v5.486
		l2.198-1.901c0.14-0.125,0.296-0.281,0.296-0.437c0-0.203-0.218-0.296-0.53-0.296v-0.467c0.343,0.015,0.842,0.047,1.31,0.047
		c0.514,0,1.122-0.032,1.527-0.047v0.467c-0.716,0-1.013,0.093-2.244,1.106l-1.168,0.967l2.26,2.852
		c0.919,1.153,1.387,1.153,1.917,1.153v0.468c-0.359-0.016-0.748-0.047-1.122-0.047c-0.39,0-0.779,0.031-1.185,0.047
		c-0.125-0.327-0.312-0.623-0.499-0.873l-2.229-2.837l-0.53,0.39v1.979c0,0.701,0.171,0.873,0.749,0.873h0.343v0.468
		c-0.468-0.016-1.044-0.047-1.699-0.047c-0.686,0-1.309,0.031-1.808,0.047V95.188z"/>
	<path d="M99.153,94.939c-0.624,0.39-1.434,0.826-2.634,0.826c-2.494,0-3.631-2.01-3.631-3.678c0-1.824,1.574-3.553,3.351-3.553
		c1.933,0,3.023,1.2,3.023,2.883v0.156h-5.127c0.062,1.979,0.904,3.538,2.837,3.538c1.153,0,1.807-0.375,2.182-0.639V94.939z
		 M98.015,91.043c0-1.699-1.418-1.98-1.901-1.98c-1.434,0-1.979,1.403-1.979,1.98H98.015z"/>
	<path d="M100.135,95.188h0.28c0.702,0,0.826-0.187,0.826-1.091V90.7c0-0.514-0.14-0.748-0.499-0.748
		c-0.14,0-0.389,0.062-0.607,0.171v-0.468c0.654-0.28,1.402-0.639,2.042-1.122h0.156v1.62h0.031c0.514-1.059,1.185-1.62,1.979-1.62
		c0.437,0,0.732,0.093,0.935,0.156v1.464h-0.249c-0.109-0.436-0.577-0.561-0.998-0.561c-0.623,0-1.605,0.467-1.605,1.979v2.79
		c0,0.701,0.078,0.826,0.686,0.826h0.296v0.468c-0.359-0.016-1.044-0.047-1.559-0.047c-0.53,0-1.215,0.031-1.714,0.047V95.188z"/>
	<path d="M105.871,95.188h0.312c0.561,0,0.919-0.187,0.919-1.293v-3.148c0-0.623-0.187-0.794-0.483-0.794
		c-0.233,0-0.499,0.094-0.67,0.171v-0.468c0.67-0.25,1.746-0.81,2.182-1.122h0.156v5.361c0,1.106,0.358,1.293,0.919,1.293h0.312
		v0.468c-0.592-0.016-1.325-0.047-1.823-0.047c-0.499,0-1.231,0.031-1.824,0.047V95.188z M107.695,85.417
		c0.436,0,0.779,0.343,0.779,0.779c0,0.436-0.343,0.779-0.779,0.779c-0.437,0-0.78-0.343-0.78-0.779
		C106.915,85.76,107.258,85.417,107.695,85.417z"/>
	<path d="M116.75,94.939c-0.624,0.39-1.434,0.826-2.634,0.826c-2.494,0-3.632-2.01-3.632-3.678c0-1.824,1.574-3.553,3.351-3.553
		c1.933,0,3.023,1.2,3.023,2.883v0.156h-5.127c0.062,1.979,0.904,3.538,2.836,3.538c1.153,0,1.808-0.375,2.182-0.639V94.939z
		 M115.612,91.043c0-1.699-1.418-1.98-1.901-1.98c-1.434,0-1.979,1.403-1.979,1.98H115.612z"/>
	<path d="M122.392,90.466h-0.312c-0.187-0.623-0.42-1.403-1.683-1.403c-0.981,0-1.324,0.608-1.324,1.044
		c0,0.639,0.592,0.982,1.2,1.262l0.857,0.39c0.499,0.234,1.465,0.67,1.465,1.871c0,1.138-0.842,2.135-2.524,2.135
		c-0.904,0-1.621-0.218-2.183-0.405c0.032-0.296,0.047-0.592,0.047-0.919c0-0.343-0.015-0.623-0.047-0.919h0.437
		c0.125,1.107,0.763,1.714,1.729,1.714c0.732,0,1.48-0.296,1.48-1.169c0-0.732-0.592-1.013-1.106-1.278l-1.168-0.592
		c-0.405-0.202-1.247-0.67-1.247-1.714c0-0.794,0.655-1.948,2.416-1.948c0.811,0,1.481,0.202,1.901,0.312L122.392,90.466z"/>
	<path d="M139.459,95.609h-6.795l-0.109-0.093c0.093-0.515,0.296-0.92,1.168-1.964l1.481-1.792c2.197-2.665,2.478-3.569,2.478-4.504
		c0-1.231-0.857-1.745-2.135-1.745c-0.904,0-1.948,0.42-2.541,0.998h-0.171c0.125-0.499,0.156-1.076,0.187-1.575
		c0.811-0.28,1.714-0.483,2.556-0.483c2.743,0,3.476,1.418,3.476,2.509c0,1.388-1.091,2.821-1.933,3.709
		c-1.168,1.231-2.665,2.774-3.444,3.756h5.782V95.609z"/>
	<path d="M144.774,84.451c1.901,0,3.803,1.527,3.803,5.486c0,2.868-0.841,5.829-3.865,5.829c-2.088,0-3.709-1.714-3.709-5.159
		C141.003,85.199,143.73,84.451,144.774,84.451z M144.774,95.297c1.824,0,2.432-1.776,2.432-5.096c0-3.132-0.483-5.283-2.369-5.283
		c-1.948,0-2.462,2.463-2.462,5.221C142.375,92.321,142.483,95.297,144.774,95.297z"/>
	<path d="M152.319,84.451c1.387,0,2.307,1.122,2.307,3.21c0,2.01-0.92,3.085-2.307,3.085c-1.387,0-2.307-1.075-2.307-3.085
		C150.012,85.573,150.932,84.451,152.319,84.451z M152.319,90.404c1.029,0,1.372-1.013,1.372-2.743c0-1.933-0.499-2.868-1.372-2.868
		s-1.371,0.935-1.371,2.868C150.948,89.391,151.29,90.404,152.319,90.404z M157.462,84.357h0.654l-4.925,11.501h-0.654
		L157.462,84.357z M158.335,89.469c1.387,0,2.307,1.123,2.307,3.211c0,2.01-0.92,3.085-2.307,3.085s-2.307-1.076-2.307-3.085
		C156.028,90.591,156.948,89.469,158.335,89.469z M158.335,95.422c1.028,0,1.371-1.013,1.371-2.743c0-1.933-0.498-2.868-1.371-2.868
		s-1.372,0.935-1.372,2.868C156.963,94.409,157.307,95.422,158.335,95.422z"/>
</g>
<g>
	<path d="M3.062,178.211h0.281c0.717,0,1.028-0.265,1.028-1.277v-7.605c0-1.014-0.312-1.278-1.028-1.278H3.062v-0.467
		c0.452,0.016,2.229,0.046,3.787,0.046c1.839,0,2.572-0.03,3.663-0.046c0.015,0.904,0.062,1.808,0.109,2.571h-0.437
		c-0.125-1.2-0.265-1.979-2.836-1.979H5.742v4.411h1.356c1.902,0,1.964-0.328,1.995-1.154h0.436
		c-0.015,0.266-0.031,0.749-0.031,1.435c0,0.607,0.016,1.106,0.031,1.667H9.093c-0.078-1.028-0.093-1.355-1.854-1.355H5.742v3.756
		c0,1.013,0.312,1.277,1.029,1.277h0.28v0.469c-0.655-0.016-1.31-0.047-1.995-0.047c-0.701,0-1.449,0.031-1.995,0.047V178.211z"/>
	<path d="M15.095,173.941c0-0.842-0.374-1.792-1.309-1.792c-0.42,0-1.185,0.421-1.185,0.872c0,0.25,0.109,0.469,0.218,0.701
		l-0.998,0.483c-0.155-0.327-0.28-0.561-0.28-0.825c0-0.499,0.358-0.842,1.044-1.247c0.67-0.405,1.169-0.577,1.465-0.577
		c1.932,0,2.229,1.388,2.229,2.073v3.163c0,0.826,0.14,0.997,0.39,0.997c0.156,0,0.467-0.108,0.701-0.217v0.42l-1.511,0.717
		c-0.172,0.078-0.234,0.078-0.296,0.078c-0.203,0-0.312-0.404-0.39-0.889c-1.044,0.749-1.496,0.889-2.15,0.889
		c-1.138,0-1.761-0.842-1.761-1.684c0-0.966,0.592-1.324,1.636-1.729l2.197-0.857V173.941z M15.095,175.048l-1.621,0.67
		c-0.311,0.125-1.028,0.437-1.028,1.122c0,0.421,0.405,1.139,1.247,1.139c0.514,0,0.951-0.297,1.449-0.671
		c-0.031-0.171-0.047-0.374-0.047-0.748V175.048z"/>
	<path d="M22.702,173.49H22.39c-0.187-0.624-0.42-1.403-1.683-1.403c-0.981,0-1.325,0.608-1.325,1.044c0,0.64,0.592,0.981,1.2,1.263
		l0.857,0.39c0.499,0.233,1.465,0.67,1.465,1.87c0,1.137-0.842,2.135-2.525,2.135c-0.904,0-1.621-0.218-2.182-0.404
		c0.031-0.297,0.047-0.594,0.047-0.92c0-0.344-0.016-0.624-0.047-0.92h0.437c0.125,1.106,0.764,1.715,1.73,1.715
		c0.732,0,1.48-0.296,1.48-1.17c0-0.731-0.592-1.012-1.106-1.277l-1.169-0.593c-0.405-0.202-1.247-0.67-1.247-1.714
		c0-0.795,0.654-1.948,2.416-1.948c0.81,0,1.48,0.203,1.901,0.312L22.702,173.49z"/>
	<path d="M23.466,172.211c0.966-0.592,1.87-1.48,2.525-2.727l0.218-0.047v2.274h2.479l-0.218,0.655h-2.26v3.537
		c0,0.843,0.265,1.886,1.356,1.886c0.515,0,0.982-0.249,1.231-0.404l0.234,0.265l-1.278,1.075c-0.109,0.048-0.233,0.062-0.374,0.062
		c-0.156,0-1.154-0.078-1.746-0.717c-0.545-0.592-0.608-1.387-0.608-2.073v-3.631h-1.559V172.211z"/>
	<path d="M33.877,178.211h0.234c0.811,0,0.919-0.155,0.919-1.371v-4.473h-1.464l0.125-0.655h1.34v-2.072
		c0-1.527,0.873-3.226,3.258-3.226c0.436,0,0.811,0.062,1.247,0.14v1.917h-0.343c-0.062-0.498-0.39-1.464-1.543-1.464
		c-0.981,0-1.434,0.872-1.434,1.807v2.898h2.399l-0.327,0.655h-2.073v4.473c0,1.216,0.109,1.371,0.919,1.371h0.234v0.469
		c-0.468-0.016-1.013-0.047-1.668-0.047c-0.701,0-1.34,0.031-1.823,0.047V178.211z"/>
	<path d="M42.56,171.557c2.244,0,3.631,1.715,3.631,3.803c0,1.839-1.465,3.429-3.569,3.429c-1.745,0-3.553-1.371-3.553-3.725
		C39.068,173.396,40.299,171.557,42.56,171.557z M42.294,172.087c-0.967,0-1.917,0.919-1.917,2.681c0,1.512,0.795,3.491,2.479,3.491
		c1.48,0,2.026-1.122,2.026-2.603C44.881,173.863,44.008,172.087,42.294,172.087z"/>
	<path d="M50.929,171.557c2.244,0,3.631,1.715,3.631,3.803c0,1.839-1.465,3.429-3.569,3.429c-1.746,0-3.553-1.371-3.553-3.725
		C47.438,173.396,48.669,171.557,50.929,171.557z M50.664,172.087c-0.966,0-1.917,0.919-1.917,2.681
		c0,1.512,0.795,3.491,2.478,3.491c1.48,0,2.026-1.122,2.026-2.603C53.251,173.863,52.378,172.087,50.664,172.087z"/>
	<path d="M63.756,177.931c-0.623,0.265-1.324,0.562-2.119,0.95c-0.218-0.232-0.296-0.731-0.328-1.091
		c-0.67,0.562-1.464,0.998-2.462,0.998c-1.45,0-3.039-1.091-3.039-3.413c0-2.058,1.574-3.818,3.584-3.818
		c0.717,0,1.247,0.155,1.917,0.452v-3.429c0-0.482-0.187-0.778-0.576-0.778c-0.265,0-0.53,0.124-0.655,0.171v-0.53
		c0.717-0.28,1.418-0.608,2.307-1.122h0.155c-0.031,0.358-0.046,1.449-0.046,2.961v7.122c0,1.014,0.203,1.263,0.561,1.263
		c0.172,0,0.421-0.031,0.701-0.202V177.931z M61.309,172.944c-0.405-0.344-1.028-0.857-1.963-0.857
		c-1.527,0-2.354,1.246-2.354,2.665c0,1.402,0.702,3.227,2.354,3.227c0.935,0,1.512-0.359,1.963-0.718V172.944z"/>
	<path d="M72.298,171.557c2.244,0,3.631,1.715,3.631,3.803c0,1.839-1.465,3.429-3.569,3.429c-1.745,0-3.553-1.371-3.553-3.725
		C68.807,173.396,70.038,171.557,72.298,171.557z M72.033,172.087c-0.967,0-1.917,0.919-1.917,2.681
		c0,1.512,0.795,3.491,2.479,3.491c1.48,0,2.026-1.122,2.026-2.603C74.62,173.863,73.747,172.087,72.033,172.087z"/>
	<path d="M76.865,181.593h0.203c0.716,0,0.951-0.265,0.951-0.966v-6.856c0-0.624-0.188-0.795-0.483-0.795
		c-0.234,0-0.499,0.093-0.67,0.171v-0.467c0.67-0.25,1.746-0.811,2.182-1.123h0.156v1.169c0.655-0.529,1.527-1.169,2.603-1.169
		c1.932,0,2.914,1.715,2.914,3.382c0,1.809-1.2,3.85-3.818,3.85c-0.701,0-1.418-0.233-1.699-0.374v2.213
		c0,0.811,0.234,0.966,0.857,0.966h0.265v0.469c-0.499-0.016-1.075-0.047-1.621-0.047c-0.624,0-1.309,0.031-1.839,0.047V181.593z
		 M79.203,177.479c0.545,0.42,0.982,0.779,1.964,0.779c1.527,0,2.369-1.17,2.369-2.696c0-2.245-1.293-3.07-2.369-3.07
		c-0.842,0-1.387,0.42-1.964,0.889V177.479z"/>
	<path d="M85.531,172.211c0.966-0.592,1.87-1.48,2.525-2.727l0.218-0.047v2.274h2.479l-0.218,0.655h-2.26v3.537
		c0,0.843,0.265,1.886,1.356,1.886c0.515,0,0.982-0.249,1.231-0.404l0.234,0.265l-1.278,1.075c-0.109,0.048-0.233,0.062-0.374,0.062
		c-0.156,0-1.153-0.078-1.745-0.717c-0.545-0.592-0.608-1.387-0.608-2.073v-3.631h-1.559V172.211z"/>
	<path d="M91.329,178.211h0.312c0.561,0,0.919-0.187,0.919-1.293v-3.147c0-0.624-0.187-0.795-0.483-0.795
		c-0.233,0-0.499,0.093-0.67,0.171v-0.467c0.67-0.25,1.746-0.811,2.182-1.123h0.156v5.361c0,1.106,0.358,1.293,0.919,1.293h0.312
		v0.469c-0.592-0.016-1.324-0.047-1.823-0.047c-0.499,0-1.231,0.031-1.824,0.047V178.211z M93.153,168.439
		c0.437,0,0.779,0.344,0.779,0.779c0,0.437-0.343,0.78-0.779,0.78s-0.779-0.344-0.779-0.78
		C92.374,168.783,92.716,168.439,93.153,168.439z"/>
	<path d="M99.434,171.557c2.245,0,3.631,1.715,3.631,3.803c0,1.839-1.465,3.429-3.569,3.429c-1.746,0-3.554-1.371-3.554-3.725
		C95.943,173.396,97.174,171.557,99.434,171.557z M99.169,172.087c-0.966,0-1.917,0.919-1.917,2.681
		c0,1.512,0.794,3.491,2.478,3.491c1.48,0,2.026-1.122,2.026-2.603C101.756,173.863,100.883,172.087,99.169,172.087z"/>
	<path d="M104.064,178.211h0.28c0.702,0,0.826-0.187,0.826-1.091v-2.648c0-1.403-0.187-1.637-0.546-1.637
		c-0.14,0-0.343,0.062-0.561,0.171v-0.467c0.654-0.219,1.402-0.577,2.042-0.982h0.156v1.371c0.577-0.607,1.356-1.371,2.369-1.371
		c0.529,0,1.434,0.28,1.901,1.185c0.296,0.546,0.343,1.231,0.343,1.886v2.821c0,0.607,0.109,0.763,0.873,0.763h0.234v0.469
		c-0.374-0.016-1.076-0.047-1.605-0.047c-0.561,0-1.278,0.031-1.699,0.047v-0.469h0.28c0.655,0,0.733-0.327,0.733-1.293v-2.446
		c0-0.842-0.078-1.247-0.514-1.668c-0.203-0.203-0.545-0.374-1.075-0.374c-0.655,0-1.388,0.592-1.746,0.936v4.021
		c0,0.701,0.078,0.825,0.686,0.825h0.296v0.469c-0.359-0.016-1.044-0.047-1.559-0.047c-0.529,0-1.215,0.031-1.714,0.047V178.211z"/>
	<path d="M117.39,173.49h-0.312c-0.187-0.624-0.42-1.403-1.683-1.403c-0.981,0-1.324,0.608-1.324,1.044
		c0,0.64,0.592,0.981,1.2,1.263l0.856,0.39c0.499,0.233,1.465,0.67,1.465,1.87c0,1.137-0.842,2.135-2.524,2.135
		c-0.904,0-1.621-0.218-2.183-0.404c0.032-0.297,0.047-0.594,0.047-0.92c0-0.344-0.015-0.624-0.047-0.92h0.437
		c0.125,1.106,0.763,1.715,1.729,1.715c0.732,0,1.48-0.296,1.48-1.17c0-0.731-0.592-1.012-1.106-1.277l-1.168-0.593
		c-0.405-0.202-1.247-0.67-1.247-1.714c0-0.795,0.655-1.948,2.416-1.948c0.811,0,1.481,0.203,1.901,0.312L117.39,173.49z"/>
	<path d="M129.127,178.211h0.233c0.951,0,1.185-0.265,1.185-1.199v-7.777c0-0.701-0.312-0.92-0.966-0.92
		c-0.265,0-0.732,0.063-0.888,0.109v-0.529l2.883-0.266h0.28v9.383c0,1.044,0.296,1.199,0.982,1.199h0.296v0.469
		c-0.468-0.016-1.293-0.047-1.948-0.047c-0.794,0-1.559,0.031-2.057,0.047V178.211z"/>
	<path d="M143.123,178.633h-6.795l-0.108-0.094c0.093-0.515,0.296-0.92,1.168-1.964l1.481-1.792
		c2.197-2.666,2.478-3.569,2.478-4.504c0-1.231-0.857-1.746-2.135-1.746c-0.904,0-1.948,0.421-2.541,0.997H136.5
		c0.125-0.498,0.156-1.075,0.187-1.573c0.811-0.28,1.714-0.483,2.556-0.483c2.743,0,3.476,1.419,3.476,2.51
		c0,1.387-1.091,2.82-1.933,3.709c-1.168,1.23-2.665,2.774-3.444,3.756h5.782V178.633z"/>
	<path d="M147.316,167.474c1.388,0,2.307,1.122,2.307,3.211c0,2.011-0.919,3.086-2.307,3.086c-1.387,0-2.306-1.075-2.306-3.086
		C145.01,168.596,145.929,167.474,147.316,167.474z M147.316,173.427c1.029,0,1.372-1.013,1.372-2.742
		c0-1.933-0.499-2.868-1.372-2.868c-0.873,0-1.372,0.936-1.372,2.868C145.945,172.414,146.288,173.427,147.316,173.427z
		 M152.459,167.38h0.655l-4.925,11.501h-0.655L152.459,167.38z M153.332,172.492c1.387,0,2.307,1.121,2.307,3.21
		c0,2.011-0.92,3.086-2.307,3.086s-2.307-1.075-2.307-3.086C151.025,173.613,151.945,172.492,153.332,172.492z M153.332,178.445
		c1.029,0,1.371-1.013,1.371-2.743c0-1.932-0.498-2.867-1.371-2.867c-0.873,0-1.371,0.936-1.371,2.867
		C151.961,177.433,152.303,178.445,153.332,178.445z"/>
</g>
<g>
	<path fill="#E83658" d="M-47.421-81.744c0,4.93-1.982,8.927-4.43,8.927h-262.583c-2.447,0-4.429-3.997-4.429-8.927v-6.83
		c0-4.93,1.982-8.927,4.429-8.927h262.583c2.447,0,4.43,3.997,4.43,8.927V-81.744z"/>
	
		<path fill="none" stroke="#492D08" stroke-width="0.3164" stroke-linecap="round" stroke-miterlimit="10" stroke-dasharray="3.1637" d="
		M-52.484-83.016c0,3.093-1.908,5.601-4.264,5.601h-252.791c-2.355,0-4.264-2.508-4.264-5.601v-4.286
		c0-3.093,1.909-5.601,4.264-5.601h252.791c2.355,0,4.264,2.508,4.264,5.601V-83.016z"/>
</g>
<g>
	<path fill="#E83658" d="M-220.052,5.882c0,4.931-0.722,8.927-1.613,8.927h-95.586c-0.891,0-1.612-3.996-1.612-8.927v-6.83
		c0-4.929,0.722-8.927,1.612-8.927h95.586c0.891,0,1.613,3.998,1.613,8.927V5.882z"/>
	
		<path fill="none" stroke="#492D08" stroke-width="0.3164" stroke-linecap="round" stroke-miterlimit="10" stroke-dasharray="3.1637" d="
		M-223.398,4.611c0,3.094-0.673,5.601-1.503,5.601h-89.113c-0.83,0-1.503-2.507-1.503-5.601V0.324c0-3.093,0.673-5.601,1.503-5.601
		h89.113c0.83,0,1.503,2.508,1.503,5.601V4.611z"/>
</g>
<g>
	<path fill="#E83658" d="M-265.609,92.243c0,4.931-0.389,8.927-0.869,8.927h-51.517c-0.48,0-0.869-3.996-0.869-8.927v-6.83
		c0-4.929,0.389-8.927,0.869-8.927h51.517c0.48,0,0.869,3.998,0.869,8.927V92.243z"/>
	
		<path fill="none" stroke="#492D08" stroke-width="0.3164" stroke-linecap="round" stroke-miterlimit="10" stroke-dasharray="3.1637" d="
		M-269.207,90.972c0,3.095-0.337,5.602-0.752,5.602h-44.557c-0.415,0-0.751-2.507-0.751-5.602v-4.286c0-3.093,0.336-5.6,0.751-5.6
		h44.557c0.415,0,0.752,2.507,0.752,5.6V90.972z"/>
</g>
<text transform="matrix(1 0 0 1 -318.8643 -112.1523)" font-family="'Berling-Roman'" font-size="16.4511">Vegetarian restaurant and cafe  75%</text>
<text transform="matrix(1 0 0 1 -318.8643 -24.7407)" font-family="'Berling-Roman'" font-size="16.4511">Specialty bakeries  20%</text>
<text transform="matrix(1 0 0 1 -318.8643 62.8857)" font-family="'Berling-Roman'" font-size="16.4511">Fast food options  12%</text>
<g>
	<path d="M2.608,12.08h0.288c0.736,0,1.056-0.272,1.056-1.312V2.956c0-1.041-0.32-1.312-1.056-1.312H2.608v-0.48
		c0.56,0.016,1.329,0.048,2.049,0.048c1.072,0,1.841-0.048,2.545-0.048c2.833,0,3.345,2.225,3.345,2.961
		c0,2.097-1.473,2.737-2.273,2.993l2.145,3.553c0.88,1.44,1.136,1.537,2.433,1.617v0.336c-0.304,0-0.592,0.016-0.896,0.016
		c-1.409,0-2.065-0.176-2.913-1.568L7.17,8.014C6.802,7.422,6.594,7.39,5.361,7.357v3.025c0,1.521,0.272,1.697,0.913,1.697h0.464
		v0.48c-0.704-0.016-1.376-0.048-2.081-0.048c-0.72,0-1.489,0.032-2.049,0.048V12.08z M5.361,6.637
		C5.633,6.733,6.034,6.75,6.45,6.75c1.44,0,2.625-0.656,2.625-2.321c0-0.704-0.48-2.657-2.705-2.657
		c-0.384,0-0.688,0.032-1.008,0.064V6.637z"/>
	<path d="M20.035,11.823c-0.64,0.4-1.473,0.849-2.705,0.849c-2.561,0-3.729-2.065-3.729-3.778c0-1.873,1.617-3.649,3.441-3.649
		c1.985,0,3.105,1.232,3.105,2.961v0.16h-5.266C14.945,10.399,15.809,12,17.794,12c1.185,0,1.857-0.384,2.241-0.656V11.823z
		 M18.866,7.822c0-1.745-1.457-2.033-1.953-2.033c-1.473,0-2.033,1.44-2.033,2.033H18.866z"/>
	<path d="M25.826,7.229h-0.32c-0.192-0.64-0.432-1.44-1.729-1.44c-1.008,0-1.36,0.624-1.36,1.072c0,0.656,0.608,1.008,1.232,1.297
		l0.88,0.4c0.512,0.24,1.504,0.688,1.504,1.921c0,1.168-0.864,2.193-2.593,2.193c-0.928,0-1.665-0.224-2.241-0.416
		c0.032-0.304,0.048-0.608,0.048-0.945c0-0.352-0.016-0.64-0.048-0.944h0.448c0.128,1.137,0.785,1.761,1.777,1.761
		c0.752,0,1.521-0.304,1.521-1.2c0-0.752-0.608-1.041-1.136-1.312l-1.201-0.608c-0.416-0.208-1.28-0.688-1.28-1.761
		c0-0.816,0.672-2.001,2.481-2.001c0.833,0,1.521,0.208,1.953,0.32L25.826,7.229z"/>
	<path d="M26.608,5.917c0.992-0.608,1.92-1.521,2.593-2.801l0.224-0.048v2.337h2.545l-0.224,0.672h-2.321V9.71
		c0,0.864,0.272,1.937,1.393,1.937c0.528,0,1.008-0.256,1.265-0.416l0.24,0.272l-1.312,1.104c-0.112,0.048-0.24,0.064-0.384,0.064
		c-0.16,0-1.185-0.08-1.793-0.736c-0.56-0.608-0.624-1.425-0.624-2.129V6.077h-1.601V5.917z"/>
	<path d="M36.978,7.694c0-0.864-0.384-1.841-1.345-1.841c-0.432,0-1.216,0.432-1.216,0.896c0,0.256,0.112,0.48,0.224,0.72
		l-1.024,0.496c-0.16-0.336-0.288-0.576-0.288-0.848c0-0.512,0.368-0.864,1.072-1.281c0.688-0.416,1.201-0.592,1.504-0.592
		c1.985,0,2.289,1.425,2.289,2.129v3.25c0,0.848,0.144,1.024,0.4,1.024c0.16,0,0.48-0.112,0.72-0.224v0.432l-1.553,0.736
		c-0.176,0.08-0.24,0.08-0.304,0.08c-0.208,0-0.32-0.416-0.4-0.913c-1.073,0.769-1.537,0.913-2.209,0.913
		c-1.168,0-1.809-0.864-1.809-1.729c0-0.992,0.608-1.36,1.681-1.776l2.257-0.88V7.694z M36.978,8.83l-1.665,0.688
		c-0.32,0.128-1.057,0.448-1.057,1.152c0,0.432,0.416,1.168,1.28,1.168c0.528,0,0.977-0.304,1.489-0.688
		c-0.032-0.176-0.048-0.384-0.048-0.769V8.83z"/>
	<path d="M41.168,7.326c0-0.528-0.144-0.769-0.512-0.769c-0.272,0-0.528,0.064-0.72,0.176v-0.48
		c0.736-0.224,1.504-0.592,2.257-1.009h0.192v4.21c0,1.329,0.32,2.385,1.665,2.385c0.561,0,1.361-0.48,1.985-0.912V7.326
		c0-0.528-0.144-0.769-0.512-0.769c-0.176,0-0.4,0.064-0.656,0.176v-0.48c0.672-0.224,1.441-0.592,2.193-1.009h0.192v5.65
		c0,0.704,0.176,0.769,0.368,0.769c0.208,0,0.592-0.176,0.864-0.272v0.48l-2.081,0.896l-0.112-0.048
		c-0.128-0.32-0.176-0.816-0.192-1.216c-0.816,0.512-1.761,1.168-2.721,1.168c-0.8,0-1.377-0.336-1.761-0.864
		c-0.4-0.561-0.448-1.185-0.448-2.321V7.326z"/>
	<path d="M49.184,12.08h0.288c0.72,0,0.848-0.192,0.848-1.121V7.47c0-0.528-0.144-0.769-0.512-0.769c-0.144,0-0.4,0.064-0.624,0.176
		v-0.48c0.672-0.288,1.44-0.656,2.097-1.153h0.16V6.91h0.032C52,5.821,52.689,5.245,53.505,5.245c0.448,0,0.752,0.096,0.96,0.16
		V6.91h-0.256c-0.112-0.448-0.592-0.577-1.024-0.577c-0.64,0-1.648,0.48-1.648,2.033v2.865c0,0.72,0.08,0.848,0.704,0.848h0.304
		v0.48c-0.368-0.016-1.073-0.048-1.601-0.048c-0.544,0-1.249,0.032-1.761,0.048V12.08z"/>
	<path d="M59.204,7.694c0-0.864-0.384-1.841-1.345-1.841c-0.432,0-1.216,0.432-1.216,0.896c0,0.256,0.112,0.48,0.224,0.72
		l-1.024,0.496c-0.16-0.336-0.288-0.576-0.288-0.848c0-0.512,0.368-0.864,1.072-1.281c0.688-0.416,1.201-0.592,1.504-0.592
		c1.985,0,2.289,1.425,2.289,2.129v3.25c0,0.848,0.144,1.024,0.4,1.024c0.16,0,0.48-0.112,0.72-0.224v0.432l-1.553,0.736
		c-0.176,0.08-0.24,0.08-0.304,0.08c-0.208,0-0.32-0.416-0.4-0.913c-1.073,0.769-1.537,0.913-2.209,0.913
		c-1.168,0-1.809-0.864-1.809-1.729c0-0.992,0.608-1.36,1.681-1.776l2.257-0.88V7.694z M59.204,8.83L57.54,9.519
		c-0.32,0.128-1.057,0.448-1.057,1.152c0,0.432,0.416,1.168,1.28,1.168c0.528,0,0.977-0.304,1.489-0.688
		c-0.032-0.176-0.048-0.384-0.048-0.769V8.83z"/>
	<path d="M62.227,12.08h0.288c0.72,0,0.848-0.192,0.848-1.121V8.238c0-1.44-0.192-1.681-0.56-1.681
		c-0.144,0-0.352,0.064-0.576,0.176v-0.48c0.672-0.224,1.44-0.592,2.097-1.009h0.16v1.409c0.592-0.624,1.393-1.409,2.433-1.409
		c0.544,0,1.473,0.288,1.953,1.217c0.304,0.56,0.352,1.264,0.352,1.937v2.897c0,0.624,0.112,0.784,0.896,0.784h0.24v0.48
		c-0.384-0.016-1.104-0.048-1.649-0.048c-0.576,0-1.312,0.032-1.745,0.048v-0.48h0.288c0.672,0,0.752-0.336,0.752-1.329V8.238
		c0-0.864-0.08-1.28-0.528-1.712c-0.208-0.208-0.56-0.384-1.104-0.384c-0.672,0-1.424,0.608-1.792,0.96v4.13
		c0,0.72,0.08,0.848,0.704,0.848h0.304v0.48c-0.368-0.016-1.073-0.048-1.601-0.048c-0.544,0-1.249,0.032-1.761,0.048V12.08z"/>
	<path d="M70.77,5.917c0.992-0.608,1.92-1.521,2.593-2.801l0.224-0.048v2.337h2.545l-0.224,0.672h-2.321V9.71
		c0,0.864,0.272,1.937,1.393,1.937c0.528,0,1.008-0.256,1.265-0.416l0.24,0.272l-1.312,1.104c-0.112,0.048-0.24,0.064-0.384,0.064
		c-0.16,0-1.185-0.08-1.793-0.736c-0.56-0.608-0.624-1.425-0.624-2.129V6.077H70.77V5.917z"/>
	<path d="M81.54,7.229h-0.32c-0.192-0.64-0.432-1.44-1.729-1.44c-1.008,0-1.36,0.624-1.36,1.072c0,0.656,0.608,1.008,1.232,1.297
		l0.88,0.4c0.512,0.24,1.504,0.688,1.504,1.921c0,1.168-0.864,2.193-2.593,2.193c-0.928,0-1.665-0.224-2.241-0.416
		c0.032-0.304,0.048-0.608,0.048-0.945c0-0.352-0.016-0.64-0.048-0.944h0.448c0.128,1.137,0.785,1.761,1.777,1.761
		c0.752,0,1.521-0.304,1.521-1.2c0-0.752-0.608-1.041-1.136-1.312l-1.201-0.608c-0.416-0.208-1.28-0.688-1.28-1.761
		c0-0.816,0.672-2.001,2.481-2.001c0.833,0,1.521,0.208,1.953,0.32L81.54,7.229z"/>
	<path d="M91.508,7.694c0-0.864-0.384-1.841-1.345-1.841c-0.432,0-1.216,0.432-1.216,0.896c0,0.256,0.112,0.48,0.224,0.72
		l-1.024,0.496c-0.16-0.336-0.288-0.576-0.288-0.848c0-0.512,0.368-0.864,1.072-1.281c0.688-0.416,1.201-0.592,1.504-0.592
		c1.985,0,2.289,1.425,2.289,2.129v3.25c0,0.848,0.144,1.024,0.4,1.024c0.16,0,0.48-0.112,0.72-0.224v0.432l-1.553,0.736
		c-0.176,0.08-0.24,0.08-0.304,0.08c-0.208,0-0.32-0.416-0.4-0.913c-1.073,0.769-1.537,0.913-2.209,0.913
		c-1.168,0-1.809-0.864-1.809-1.729c0-0.992,0.608-1.36,1.681-1.776l2.257-0.88V7.694z M91.508,8.83l-1.665,0.688
		c-0.32,0.128-1.057,0.448-1.057,1.152c0,0.432,0.416,1.168,1.28,1.168c0.528,0,0.977-0.304,1.489-0.688
		c-0.032-0.176-0.048-0.384-0.048-0.769V8.83z"/>
	<path d="M94.53,12.08h0.288c0.72,0,0.848-0.192,0.848-1.121V8.238c0-1.44-0.192-1.681-0.56-1.681c-0.144,0-0.352,0.064-0.576,0.176
		v-0.48c0.672-0.224,1.44-0.592,2.097-1.009h0.16v1.409c0.592-0.624,1.393-1.409,2.433-1.409c0.544,0,1.473,0.288,1.953,1.217
		c0.304,0.56,0.352,1.264,0.352,1.937v2.897c0,0.624,0.112,0.784,0.896,0.784h0.24v0.48c-0.384-0.016-1.104-0.048-1.649-0.048
		c-0.576,0-1.312,0.032-1.745,0.048v-0.48h0.288c0.672,0,0.752-0.336,0.752-1.329V8.238c0-0.864-0.08-1.28-0.528-1.712
		c-0.208-0.208-0.56-0.384-1.104-0.384c-0.672,0-1.424,0.608-1.792,0.96v4.13c0,0.72,0.08,0.848,0.704,0.848h0.304v0.48
		c-0.368-0.016-1.073-0.048-1.601-0.048c-0.544,0-1.249,0.032-1.761,0.048V12.08z"/>
	<path d="M111.845,11.792c-0.641,0.272-1.361,0.576-2.177,0.976c-0.224-0.24-0.304-0.752-0.336-1.12
		c-0.688,0.576-1.504,1.024-2.529,1.024c-1.489,0-3.122-1.121-3.122-3.505c0-2.113,1.617-3.922,3.682-3.922
		c0.736,0,1.28,0.16,1.969,0.464V2.188c0-0.496-0.192-0.8-0.592-0.8c-0.272,0-0.544,0.128-0.672,0.176V1.019
		c0.736-0.288,1.457-0.624,2.369-1.152h0.16c-0.032,0.368-0.048,1.488-0.048,3.041v7.315c0,1.041,0.208,1.297,0.577,1.297
		c0.176,0,0.432-0.032,0.72-0.208V11.792z M109.332,6.669c-0.416-0.352-1.057-0.88-2.017-0.88c-1.569,0-2.417,1.28-2.417,2.737
		c0,1.441,0.72,3.313,2.417,3.313c0.96,0,1.552-0.368,2.017-0.736V6.669z"/>
	<path d="M123.365,11.664c-0.705,0.512-1.681,1.008-2.737,1.008c-1.953,0-3.602-1.585-3.602-3.649c0-1.649,1.329-3.778,3.81-3.778
		c0.993,0,1.793,0.288,2.193,0.464l0.096,1.504l-0.128,0.032c-0.561-0.88-1.537-1.457-2.465-1.457c-1.424,0-2.289,1.2-2.289,2.513
		c0,1.889,1.28,3.601,2.929,3.601c0.48,0,1.2-0.112,2.145-0.672L123.365,11.664z"/>
	<path d="M128.563,7.694c0-0.864-0.384-1.841-1.345-1.841c-0.432,0-1.216,0.432-1.216,0.896c0,0.256,0.112,0.48,0.224,0.72
		l-1.024,0.496c-0.16-0.336-0.288-0.576-0.288-0.848c0-0.512,0.368-0.864,1.072-1.281c0.688-0.416,1.201-0.592,1.504-0.592
		c1.985,0,2.289,1.425,2.289,2.129v3.25c0,0.848,0.144,1.024,0.4,1.024c0.16,0,0.48-0.112,0.72-0.224v0.432l-1.553,0.736
		c-0.176,0.08-0.24,0.08-0.304,0.08c-0.208,0-0.32-0.416-0.4-0.913c-1.073,0.769-1.537,0.913-2.209,0.913
		c-1.168,0-1.809-0.864-1.809-1.729c0-0.992,0.608-1.36,1.681-1.776l2.257-0.88V7.694z M128.563,8.83l-1.665,0.688
		c-0.32,0.128-1.057,0.448-1.057,1.152c0,0.432,0.416,1.168,1.28,1.168c0.528,0,0.977-0.304,1.489-0.688
		c-0.032-0.176-0.048-0.384-0.048-0.769V8.83z"/>
	<path d="M131.842,12.08h0.24c0.833,0,0.944-0.16,0.944-1.409V6.077h-1.504l0.128-0.672h1.376V3.276
		c0-1.568,0.896-3.313,3.345-3.313c0.448,0,0.833,0.064,1.281,0.144v1.969H137.3c-0.064-0.512-0.4-1.505-1.585-1.505
		c-1.008,0-1.473,0.896-1.473,1.857v2.977h2.465l-0.336,0.672h-2.129v4.594c0,1.249,0.112,1.409,0.945,1.409h0.24v0.48
		c-0.48-0.016-1.041-0.048-1.712-0.048c-0.72,0-1.377,0.032-1.873,0.048V12.08z"/>
	<path d="M143.604,11.823c-0.64,0.4-1.473,0.849-2.705,0.849c-2.561,0-3.729-2.065-3.729-3.778c0-1.873,1.617-3.649,3.441-3.649
		c1.985,0,3.105,1.232,3.105,2.961v0.16h-5.266c0.064,2.033,0.928,3.633,2.913,3.633c1.185,0,1.857-0.384,2.241-0.656V11.823z
		 M142.436,7.822c0-1.745-1.457-2.033-1.953-2.033c-1.473,0-2.033,1.44-2.033,2.033H142.436z"/>
	<path d="M149.395,7.229h-0.32c-0.192-0.64-0.432-1.44-1.729-1.44c-1.008,0-1.36,0.624-1.36,1.072c0,0.656,0.608,1.008,1.232,1.297
		l0.88,0.4c0.512,0.24,1.504,0.688,1.504,1.921c0,1.168-0.864,2.193-2.593,2.193c-0.928,0-1.665-0.224-2.241-0.416
		c0.032-0.304,0.048-0.608,0.048-0.945c0-0.352-0.016-0.64-0.048-0.944h0.448c0.128,1.137,0.785,1.761,1.777,1.761
		c0.752,0,1.521-0.304,1.521-1.2c0-0.752-0.608-1.041-1.136-1.312l-1.201-0.608c-0.416-0.208-1.28-0.688-1.28-1.761
		c0-0.816,0.672-2.001,2.481-2.001c0.833,0,1.521,0.208,1.953,0.32L149.395,7.229z"/>
	<path d="M165.876,2.428h-5.635V1.211h6.691v0.192l-4.578,11.108h-0.961L165.876,2.428z"/>
	<path d="M169.985,1.211h5.203l-0.176,1.153h-4.611l-0.303,2.545c0.223-0.016,0.416-0.032,0.656-0.032
		c4.113,0,4.785,2.657,4.785,3.778c0,2.113-1.648,4.018-4.273,4.018c-1.186,0-1.842-0.288-2.193-0.448l0.064-1.457l0.111-0.048
		c0.77,0.833,1.602,1.185,2.641,1.185c1.793,0,2.689-1.424,2.689-2.529c0-2.529-2.289-3.089-4.24-3.089h-0.945L169.985,1.211z"/>
	<path d="M180.114,1.051c1.426,0,2.369,1.152,2.369,3.297c0,2.064-0.943,3.169-2.369,3.169c-1.424,0-2.369-1.104-2.369-3.169
		C177.745,2.204,178.69,1.051,180.114,1.051z M180.114,7.166c1.057,0,1.408-1.041,1.408-2.817c0-1.985-0.512-2.945-1.408-2.945
		s-1.408,0.96-1.408,2.945C178.706,6.125,179.058,7.166,180.114,7.166z M185.397,0.955h0.672l-5.059,11.812h-0.672L185.397,0.955z
		 M186.294,6.205c1.424,0,2.369,1.152,2.369,3.297c0,2.065-0.945,3.169-2.369,3.169c-1.426,0-2.369-1.104-2.369-3.169
		C183.925,7.357,184.868,6.205,186.294,6.205z M186.294,12.32c1.057,0,1.408-1.041,1.408-2.817c0-1.985-0.512-2.945-1.408-2.945
		s-1.41,0.96-1.41,2.945C184.884,11.279,185.237,12.32,186.294,12.32z"/>
</g>
</svg>
