<?xml version="1.0" encoding="utf-8"?>
<!-- Generator: Adobe Illustrator 16.0.0, SVG Export Plug-In . SVG Version: 6.00 Build 0)  -->
<!DOCTYPE svg PUBLIC "-//W3C//DTD SVG 1.1//EN" "http://www.w3.org/Graphics/SVG/1.1/DTD/svg11.dtd">
<svg version="1.1" id="Layer_1" xmlns="http://www.w3.org/2000/svg" xmlns:xlink="http://www.w3.org/1999/xlink" x="0px" y="0px"
	 width="235px" height="226.5px" viewBox="0 0 235 226.5" enable-background="new 0 0 235 226.5" xml:space="preserve">
<g>
	
		<circle fill="#DBF7FC" stroke="#416B6D" stroke-width="0.75" stroke-linecap="round" stroke-miterlimit="10" stroke-dasharray="5.5726" cx="117.318" cy="113.742" r="107.293"/>
	<g>
		<g>
			<path fill="#E83658" stroke="#492D08" stroke-width="0.75" stroke-linecap="round" stroke-miterlimit="10" d="M117.197,58.925
				c0,0,29.657-23.567,50.969,6.834c17.006,24.257-15.184,76.829-31.682,78.95c-9.686,1.245-21.682-1.414-21.682-1.414
				s-11.541,6.439-19.796,1.65C63.322,126.563,45.045,63.638,82.752,51.83C106.42,44.418,117.197,58.925,117.197,58.925z"/>
			
				<path fill="none" stroke="#492D08" stroke-width="0.75" stroke-linecap="round" stroke-miterlimit="10" stroke-dasharray="3.3436" d="
				M117.618,62.497c0,0,27.868-21.723,47.895,6.3c15.979,22.36-14.269,70.816-29.771,72.771c-9.102,1.147-20.374-1.303-20.374-1.303
				s-10.845,5.935-18.603,1.52C66.992,124.841,49.816,66.841,85.25,55.957C107.49,49.125,117.618,62.497,117.618,62.497z"/>
			<path fill="none" stroke="#492D08" stroke-width="0.75" stroke-linecap="round" stroke-miterlimit="10" d="M117.197,58.925
				c1.38,60.567,8.446,64.573-2.158,83.664"/>
			
				<path fill="#F2F7B5" stroke="#492D08" stroke-width="0.75" stroke-linecap="round" stroke-miterlimit="10" stroke-dasharray="3.3436" d="
				M116.213,63.638c0,0,33.143,38.856,14.76,49.933c-7.861,4.738-15.274-0.938-15.274-0.938s-11.007,8.954-17.483-2.125
				C89.26,95.189,107.493,94.511,116.213,63.638z"/>
			<g>
				<path fill="#B5DC87" stroke="#492D08" stroke-width="0.75" stroke-linecap="round" stroke-miterlimit="10" d="M132.559,19.214
					c0,0-10.391,10.938-14.053,17.938c-3.662,6.998-2.029,18.112-2.029,18.112s11.951-3.013,17.556-11.75
					C139.636,34.776,132.559,19.214,132.559,19.214z"/>
				<path fill="#B5DC87" stroke="#492D08" stroke-width="0.75" stroke-linecap="round" stroke-miterlimit="10" d="M132.559,19.214
					c1.691,18.525-13.841,22.514-16.082,36.05"/>
				<path fill="#B5DC87" stroke="#492D08" stroke-width="0.75" stroke-linecap="round" stroke-miterlimit="10" d="M128.842,35.132
					c-0.053-0.329,3.219-1.136,7.317-1.804"/>
				
					<line fill="#B5DC87" stroke="#492D08" stroke-width="0.75" stroke-linecap="round" stroke-miterlimit="10" x1="131.104" y1="31.033" x2="135.525" y2="30.314"/>
				<path fill="#B5DC87" stroke="#492D08" stroke-width="0.75" stroke-linecap="round" stroke-miterlimit="10" d="M119.131,48.167
					c-0.698-4.289-1.564-7.711-1.934-7.65"/>
				<path fill="#B5DC87" stroke="#492D08" stroke-width="0.75" stroke-linecap="round" stroke-miterlimit="10" d="M121.678,44.458
					c-0.789-4.846-1.883-8.694-2.445-8.603"/>
			</g>
			<path fill="#492D08" d="M122.369,85.527c0,0,13.318,17.676,3.607,20.739C116.992,109.101,122.369,85.527,122.369,85.527z"/>
			<path fill="#492D08" d="M117.574,84.746c0,0-21.748,15.487-11.693,22.544C115.185,113.819,117.574,84.746,117.574,84.746z"/>
		</g>
		<g>
			<path fill="#416B6D" d="M79.604,169.834c-0.305-1.105,0.229-10.845-0.381-14.58c-0.096-0.533,1.943-0.362,1.906,0.667
				c-0.115,3.336-0.458,10.006,0.381,12.483c0.267,0.781,3.659,0.134,6.117,0.19c0,0,0.172,0.4,0.172,0.667
				s-0.172,0.667-0.172,0.667C84.559,169.281,79.604,169.834,79.604,169.834z M82.711,154.054c1.371,0.095,2.572,0.305,2.705,0.896
				c0.134,0.553-0.037,0.991-0.323,1.486c-0.819,1.372-2.916-1.238-4.116-0.229c-0.306,0.248-0.877,0.495-0.687,0.857
				c0.134,0.248,0.819-0.076,0.781,0.229c0,0.096-0.076,0.21-0.134,0.248c-0.095,0.076,0.134-0.19,0.134-0.324
				c0-0.305-0.61,0.114-0.781-0.133c-0.229-0.344,0.343-0.591,0.647-0.857c1.182-1.049,3.202,1.601,4.098,0.285
				c0.324-0.495,0.534-0.934,0.42-1.524C85.227,153.901,80.348,153.882,82.711,154.054z"/>
			<path fill="#416B6D" d="M95.422,169.853l-0.344-1.258c-1.086,0.305-1.811,1.64-3.049,1.64c-1.619,0-2.916-1.354-2.916-3.012
				c0-3.011,3.164-3.659,5.488-4.288l0.477-0.134v-0.591c0-1.2-0.285-2.001-2.039-1.849c-1.963,0.172-2.496,2.059-3.145,1.315
				l-0.172-0.4c-0.457-0.229,1.754-2.173,3.355-2.173c1.429,0,3.087,1.144,3.182,3.545l0.229,4.688
				c0.019,0.267,0.171,2.383-0.21,2.401L95.422,169.853z M89.971,169.243c0.115-0.268,0.152,0.609,0.152-0.229l-0.229-0.077
				C89.628,169.7,89.971,169.243,89.971,169.243z M94.983,163.888c0.134-0.953-4.86,1.296-4.86,3.183
				c0,0.877,1.068,1.753,1.963,1.753c1.182,0,3.146-1.162,2.992-1.715l-0.113-3.088L94.983,163.888z M90.771,161.048
				c0.686,0.019,1.486-0.477,1.144-0.915S90.219,161.028,90.771,161.048z M95.231,162.877c0,0-0.419,1.64-0.19,1.982
				C95.326,165.278,95.078,162.801,95.231,162.877z M95.422,168.938c0,0-0.21,0.115,0,0.458
				C96.127,170.577,95.27,168.861,95.422,168.938z"/>
			<path fill="#416B6D" d="M96.984,159.257c-0.153,0.019-0.229-0.362-0.076-0.382C97.061,158.856,97.137,159.237,96.984,159.257z
				 M106.132,161.887c0.763,0.209-1.563-2.783-3.298-2.783c-2.344,0-4.211,1.62-4.211,5.565s1.867,5.565,4.211,5.565
				c1.697,0,4.308-2.611,3.393-2.878l-0.133-0.306c-0.344-0.419-1.602,2.325-2.878,2.383c-2.287,0-3.221-2.936-3.526-5.26
				c-0.229-1.772,0.858-3.812,3.145-3.812c1.182-0.038,1.85,2.059,2.402,1.887L106.132,161.887z M102.053,169.586
				c-0.229-0.343,0-0.457,0-0.457C104.721,169.929,102.34,170.005,102.053,169.586z M102.815,166.155
				c-0.019,0.096,0.019,0.21,0.076,0.267c0.134,0.134,0.4-0.495,0.19-0.495C102.949,165.927,102.834,166.022,102.815,166.155z
				 M104.988,161.925c-0.229-0.344,0-0.458,0-0.458C104.836,161.391,105.273,162.344,104.988,161.925z"/>
			<path fill="#416B6D" d="M107.865,159.447c0.286-0.382,1.258-0.038,1.258-0.038l0.076-3.145c0,0,0.096-0.344,0.229-0.438
				c0.306-0.229,0.992,0.323,0.992,0.323s0.152,0.877,0.037,1.888c-0.057,0.571,0.152,1.372,0.152,1.372s2.116-0.687,2.363,0.19
				c0.039,0.133,0.058,0.381,0.058,0.381l-0.343,0.61l-2.078,0.076c0,0,0,0.457,0,0.762c0,0.172-0.266,0.4-0.266,0.591
				c0,0.134,0.266,0.877,0.266,1.011c0,2.191,0,4.25,0,4.25c0,1.028-0.113,2.973,0.82,2.153c0.305-0.267,1.162-1.678,1.448-1.01
				l0.267,0.209c0.629,0.4-1.124,1.602-1.639,1.602c-2.516,0-2.383-1.696-2.383-3.621v-5.946l-1.029-0.038
				C108.094,160.629,107.58,159.828,107.865,159.447z"/>
			<path fill="#416B6D" d="M114.021,164.669c0-3.945,1.867-5.565,4.211-5.565c2.345,0,3.927,1.906,3.927,5.852
				c0,3.944-1.582,5.279-3.927,5.279c-1.258,0-2.363-0.458-3.125-1.487c-0.133-0.171-0.096-0.515-0.209-0.724
				c-0.21-0.382-0.534-0.667-0.648-1.182C114.098,166.213,114.021,165.488,114.021,164.669z M115.146,167.718
				c-0.267,0.077-0.019,1.049,0.095,0.782c0.039-0.096,0.077-0.191,0.077-0.306C115.317,168.004,115.222,167.852,115.146,167.718z
				 M120.863,164.669c0.267-1.772-0.152-4.783-2.439-4.783s-2.916,2.991-2.916,4.783c0,1.791,0.629,5.165,2.916,5.165
				S120.196,169.033,120.863,164.669z"/>
			<path fill="#416B6D" d="M121.225,167.165c0.076-0.305,0.285-0.476,0.381-0.762c0.076-0.248,0.076-0.438,0.19-0.667
				c0.153-0.324-0.134,0.591-0.19,0.953L121.225,167.165z M122.939,164.097c0,0,0.362-0.361,0.953-0.343
				c1.41,0.038-0.286,0.096,1.62-0.019c1.353-0.076,2.286,0.267,2.286,0.267l0.191,0.667c0,0-0.629,0.419-1.049,0.4
				c-2.572-0.172-1.963,0.076-3.43,0.076c-0.42,0-0.572-0.286-0.572-0.286V164.097z M126.465,164.688
				c-0.095-0.247-0.762,0.038-0.666,0.286C125.894,165.222,126.561,164.936,126.465,164.688z"/>
			<path fill="#416B6D" d="M128.104,164.669c0-3.945,1.868-5.565,4.213-5.565c2.344,0,3.926,1.906,3.926,5.852
				c0,3.944-1.582,5.279-3.926,5.279c-1.258,0-2.363-0.458-3.126-1.487c-0.134-0.171-0.095-0.515-0.21-0.724
				c-0.209-0.382-0.533-0.667-0.647-1.182C128.181,166.213,128.104,165.488,128.104,164.669z M129.229,167.718
				c-0.267,0.077-0.02,1.049,0.096,0.782c0.038-0.096,0.076-0.191,0.076-0.306C129.4,168.004,129.305,167.852,129.229,167.718z
				 M134.946,164.669c0.267-1.772-0.153-4.783-2.439-4.783c-2.287,0-2.916,2.991-2.916,4.783c0,1.791,0.629,5.165,2.916,5.165
				C134.793,169.834,134.279,169.033,134.946,164.669z"/>
			<path fill="#416B6D" d="M143.979,160.495c0.191-0.781,1.201-0.134,1.201-0.134s-0.4,3.145-1.506,5.661
				c-0.686,1.562-0.553,0.743-1.314,2.648c0,0-0.02,1.62-1.145,1.029c0,0-3.678-8.614-3.163-9.472
				c0.382-0.629,1.144-0.572,0.991,0.038c0,0,0.19-0.4,0.267,0.133c0.458,3.222,1.696,6.689,2.097,7.795
				C142.188,170.367,141.997,168.767,143.979,160.495z"/>
			<path fill="#416B6D" d="M146.78,164.669c0-3.945,1.868-5.565,4.212-5.565s3.926,1.906,3.926,5.852
				c0,3.944-1.582,5.279-3.926,5.279c-1.258,0-2.363-0.458-3.125-1.487c-0.134-0.171-0.096-0.515-0.21-0.724
				c-0.21-0.382-0.534-0.667-0.647-1.182C146.857,166.213,146.78,165.488,146.78,164.669z M147.904,167.718
				c-0.266,0.077-0.019,1.049,0.096,0.782c0.038-0.096,0.076-0.191,0.076-0.306C148.076,168.004,147.98,167.852,147.904,167.718z
				 M153.623,164.669c0.266-1.772-0.153-4.783-2.439-4.783c-2.287,0-2.916,2.991-2.916,4.783c0,1.791,0.629,5.165,2.916,5.165
				C153.47,169.834,152.955,169.033,153.623,164.669z"/>
			<path fill="#416B6D" d="M68.208,183.364c0.19-0.781,1.2-0.134,1.2-0.134s-0.4,3.145-1.506,5.661
				c-0.686,1.562-0.553,0.743-1.314,2.648c0,0-0.02,1.62-1.144,1.029c0,0-3.679-8.614-3.163-9.472
				c0.381-0.629,1.143-0.572,0.99,0.038c0,0,0.191-0.4,0.268,0.133c0.457,3.222,1.695,6.689,2.096,7.795
				C66.416,193.236,66.227,191.636,68.208,183.364z"/>
			<path fill="#416B6D" d="M64.682,191.159c0,0.114-0.038,0.21-0.076,0.305c-0.114,0.267-0.362-0.705-0.096-0.781
				C64.586,190.816,64.682,190.969,64.682,191.159z M73.754,187.805c0.895-0.571,4.897-0.248,4.897-0.248
				c0.305-0.057,0.324-1.086-0.019-2.306c-0.058-0.172-0.134-0.953-0.21-1.105c-0.153-0.286-0.19-0.057-0.343-0.343
				c-0.286-0.553-0.534-1.048-1.049-1.105c-0.152-0.02-0.267-0.477-0.343-0.515c-0.458-0.248-0.858-0.21-1.468-0.21
				c-0.762,0-1.562,0.248-2.135,0.515c-0.457,0.21-0.267,0.21-0.343,0.324c-0.687,1.048-1.544,2.268-1.734,4.727
				c-0.038,0.553-0.114,1.086,0,1.524c0.782,2.802,2.192,4.041,4.212,4.041c1.811,0,3.641-2.649,2.992-2.631l-0.114-0.247
				c-0.495-0.152-2.534,2.344-2.992,2.153c-0.419-0.172-1.887-0.495-2.744-1.582c-0.172-0.21-0.058-0.229-0.267-0.457
				c-0.572-0.591,0.133-0.991,0.133-2.516C72.229,187.824,73.258,188.109,73.754,187.805z M76.078,186.661
				c-1.372,0.248-3.621,0.4-3.621,0.4c-0.514,0.02-0.229-2.611,1.163-3.411c0.438-0.248,1.144-0.763,1.868-0.61
				c0.59,0.134,1.619,0.458,1.811,1.182c0.057,0.21,0.266,0.076,0.229,0.591c-0.076,0.953,0.248,1.868,0,1.944
				C77.527,186.757,76.517,186.585,76.078,186.661z M77.564,187.271c-0.229-0.344,0.076-0.839,0.076-0.839
				C77.488,186.356,77.852,187.69,77.564,187.271z"/>
			<path fill="#416B6D" d="M89.818,183.136l-0.553,0.19c-0.266,0.076-0.647-0.19-1.028,0.02c-0.306,0.019,0.419,1.505,0.419,2.286
				c0,2.04-1.506,3.621-3.545,3.621c-0.609,0-1.715-0.171-2.268-0.381c-0.21-0.362-1.296,0.61-1.296,1.124
				c0,1.335,7.985-0.285,7.985,3.697c0,0.782-0.305,3.202-4.518,3.202c-3.43,0-4.439-1.791-4.439-3.087
				c0-1.087,0.953-1.678,1.829-2.059c0.058-0.305-1.315-0.705-1.315-1.468c0-0.934,1.239-1.62,1.201-1.981
				c-0.762-0.896-1.049-1.468-1.049-2.707c0-2.134,1.602-3.621,3.717-3.621c0.839,0,1.602,0.248,2.287,0.743
				c0.686-0.514,1.486-0.896,2.383-0.8L89.818,183.136z M82.576,192.741c0.268-0.572-1.505,1.562-0.686,1.543
				c0.648-0.019,0.21-0.495,0.344-0.8C82.348,193.218,82.463,193.008,82.576,192.741z M83.93,191.922
				c-0.801,0.152-1.925,0.857-1.925,1.811c0,1.448,2.363,2.554,3.374,2.554c1.066,0,2.725-1.239,2.725-2.688
				c0-1.105-1.811-2.173-2.496-2.039L83.93,191.922z M84.997,182.755c-1.429,0-2.668,1.543-2.668,2.896
				c0,1.314,1.22,2.764,2.592,2.764c1.524,0,2.363-1.334,2.363-2.783C87.284,184.26,86.484,182.755,84.997,182.755z M86.408,198.572
				c-0.229,0.134,0.152,0.648,0.342,0.572C87.132,199.011,86.637,198.439,86.408,198.572z"/>
			<path fill="#416B6D" d="M84.978,191.159c0,0.114-0.038,0.21-0.076,0.305c-0.114,0.267-0.362-0.705-0.095-0.781
				C84.883,190.816,84.978,190.969,84.978,191.159z M94.049,187.805c0.896-0.571,4.898-0.248,4.898-0.248
				c0.305-0.057,0.324-1.086-0.02-2.306c-0.057-0.172-0.133-0.953-0.209-1.105c-0.152-0.286-0.191-0.057-0.344-0.343
				c-0.285-0.553-0.533-1.048-1.048-1.105c-0.152-0.02-0.267-0.477-0.343-0.515c-0.457-0.248-0.857-0.21-1.468-0.21
				c-0.763,0-1.562,0.248-2.134,0.515c-0.458,0.21-0.268,0.21-0.344,0.324c-0.686,1.048-1.543,2.268-1.734,4.727
				c-0.038,0.553-0.114,1.086,0,1.524c0.781,2.802,2.191,4.041,4.212,4.041c1.811,0,3.64-2.649,2.992-2.631l-0.114-0.247
				c-0.496-0.152-2.535,2.344-2.992,2.153c-0.42-0.172-1.887-0.495-2.744-1.582c-0.172-0.21-0.057-0.229-0.268-0.457
				c-0.571-0.591,0.134-0.991,0.134-2.516C92.524,187.824,93.554,188.109,94.049,187.805z M96.375,186.661
				c-1.373,0.248-3.621,0.4-3.621,0.4c-0.516,0.02-0.229-2.611,1.162-3.411c0.438-0.248,1.144-0.763,1.867-0.61
				c0.592,0.134,1.62,0.458,1.811,1.182c0.058,0.21,0.268,0.076,0.229,0.591c-0.076,0.953,0.248,1.868,0,1.944
				C97.822,186.757,96.812,186.585,96.375,186.661z M97.861,187.271c-0.229-0.344,0.076-0.839,0.076-0.839
				C97.785,186.356,98.146,187.69,97.861,187.271z"/>
			<path fill="#416B6D" d="M100.682,182.316c0.285-0.382,1.258-0.038,1.258-0.038l0.076-3.145c0,0,0.095-0.344,0.229-0.438
				c0.305-0.229,0.99,0.323,0.99,0.323s0.152,0.877,0.039,1.888c-0.058,0.571,0.152,1.372,0.152,1.372s2.115-0.687,2.363,0.19
				c0.037,0.133,0.057,0.381,0.057,0.381l-0.343,0.61l-2.077,0.076c0,0,0,0.457,0,0.762c0,0.172-0.268,0.4-0.268,0.591
				c0,0.134,0.268,0.877,0.268,1.011c0,2.191,0,4.25,0,4.25c0,1.028-0.115,2.973,0.819,2.153c0.305-0.267,1.163-1.678,1.448-1.01
				l0.267,0.209c0.629,0.4-1.124,1.602-1.639,1.602c-2.516,0-2.382-1.696-2.382-3.621v-5.946l-1.029-0.038
				C100.91,183.498,100.395,182.697,100.682,182.316z"/>
			<path fill="#416B6D" d="M113.164,192.722l-0.344-1.258c-1.086,0.305-1.811,1.64-3.049,1.64c-1.619,0-2.916-1.354-2.916-3.012
				c0-3.011,3.164-3.659,5.488-4.288l0.477-0.134v-0.591c0-1.2-0.285-2.001-2.039-1.849c-1.963,0.172-2.496,2.059-3.145,1.315
				l-0.172-0.4c-0.457-0.229,1.754-2.173,3.355-2.173c1.429,0,3.087,1.144,3.182,3.545l0.229,4.688
				c0.019,0.267,0.171,2.383-0.21,2.401L113.164,192.722z M107.713,192.112c0.115-0.268,0.152,0.609,0.152-0.229l-0.229-0.077
				C107.37,192.569,107.713,192.112,107.713,192.112z M112.726,186.757c0.134-0.953-4.86,1.296-4.86,3.183
				c0,0.877,1.068,1.753,1.963,1.753c1.182,0,3.146-1.162,2.992-1.715l-0.113-3.088L112.726,186.757z M108.514,183.917
				c0.686,0.019,1.486-0.477,1.144-0.915S107.961,183.897,108.514,183.917z M112.974,185.746c0,0-0.419,1.64-0.19,1.982
				C113.068,188.147,112.82,185.67,112.974,185.746z M113.164,191.807c0,0-0.21,0.115,0,0.458
				C113.869,193.446,113.012,191.73,113.164,191.807z"/>
			<path fill="#416B6D" d="M117.89,192.627c-0.286,0.038-0.306,0.133-0.839,0.114c0,0-0.571,0.019-0.381-0.953
				c0.4-2.039,0-7.204-0.038-9.091c0-0.438,0.896-0.419,0.896-0.419l0.533,0.19l0.058,2.077l0.019,0.058
				c0.439,0.209,1.678-2.669,2.974-2.478c0,0,0.343-0.02,0.495,0.076c0.286,0.19,0.02,0.514,0.039,0.934
				c0.133,0.457-0.877,0.362-1.315,0.647c-0.953,0.61-1.582,1.658-2.173,3.05c0,0-0.152,3.106-0.114,4.078
				c0,0.134-0.019,0.515,0.058,0.667c0.076,0.172,0.133,0.114,0.152,0.286c0.038,0.248-0.02,0.305-0.02,0.419
				C118.232,192.493,118.061,192.607,117.89,192.627z M116.937,191.007c0,0-0.476,1.467,0.058,1.467
				C117.185,192.474,117.185,191.045,116.937,191.007z M118.785,182.907c-0.038-0.42-0.801,0.057-1.066-0.248
				c-0.363-0.419,0.342-0.877,0.285-1.448c-0.057-0.534-0.324-0.839-0.591-1.277c-0.343-0.571,0.553,0.61,0.571,1.354
				c0.02,0.571-0.59,0.953-0.266,1.372c0.247,0.324,1.047-0.152,1.066,0.267c0,0.152-0.172,0.42-0.114,0.4
				C118.671,183.326,118.785,183.078,118.785,182.907z M117.928,191.674c0,0-0.152,0.343,0.209,0.495
				C118.328,192.245,118.023,191.407,117.928,191.674z M119.395,185.804c0,0-0.494,0.362,0.039,0.362
				C119.624,186.166,119.643,185.842,119.395,185.804z"/>
			<path fill="#416B6D" d="M124.617,179.515c0,0-0.324,0.324-0.572,0.324c-0.133,0-0.342-0.134-0.342-0.134
				s-0.477-0.381-0.516-0.725c-0.057-0.381,0.324-0.914,0.324-0.914s0.286-0.114,0.438-0.134c0.286-0.038,0.763,0.038,0.763,0.038
				s0.095,0.438,0.095,0.725C124.808,179.019,124.617,179.515,124.617,179.515z M124.808,192.798h-1.486c0,0,0.229-5.965-0.038-9.91
				c-0.02-0.21,0.038-0.609,0.038-0.609s0.61-0.114,0.915,0.038c0.114,0.057,0.285,0.247,0.285,0.247s0.191,0.134,0.096,1.658
				C124.427,187.271,124.808,192.798,124.808,192.798z"/>
			<path fill="#416B6D" d="M133.193,192.722l-0.344-1.258c-1.086,0.305-1.811,1.64-3.049,1.64c-1.619,0-2.916-1.354-2.916-3.012
				c0-3.011,3.164-3.659,5.488-4.288l0.477-0.134v-0.591c0-1.2-0.285-2.001-2.039-1.849c-1.963,0.172-2.496,2.059-3.145,1.315
				l-0.172-0.4c-0.457-0.229,1.754-2.173,3.355-2.173c1.429,0,3.087,1.144,3.182,3.545l0.229,4.688
				c0.019,0.267,0.171,2.383-0.21,2.401L133.193,192.722z M127.742,192.112c0.115-0.268,0.152,0.609,0.152-0.229l-0.229-0.077
				C127.399,192.569,127.742,192.112,127.742,192.112z M132.755,186.757c0.134-0.953-4.86,1.296-4.86,3.183
				c0,0.877,1.068,1.753,1.963,1.753c1.182,0,3.146-1.162,2.992-1.715l-0.113-3.088L132.755,186.757z M128.543,183.917
				c0.686,0.019,1.486-0.477,1.144-0.915S127.99,183.897,128.543,183.917z M133.003,185.746c0,0-0.419,1.64-0.19,1.982
				C133.098,188.147,132.85,185.67,133.003,185.746z M133.193,191.807c0,0-0.21,0.115,0,0.458
				C133.898,193.446,133.041,191.73,133.193,191.807z"/>
			<path fill="#416B6D" d="M137.957,192.417c0,0-0.172,0.553-0.438,0.571c-0.305,0.02-0.571-0.571-0.571-0.571l-0.286-10.33
				c0,0,0.896-0.209,1.144,0.134c0.114,0.172,0.152,0.534,0.152,0.534l0.19,0.609c0.877-0.705,1.696-1.392,2.897-1.392
				c1.486,0,2.84,0.82,2.687,3.564c0,0,0.571,4.174-0.399,6.499c-0.076,0.209-0.268,0.571-0.268,0.571l-0.629,0.096
				c0,0-0.438,0.114-0.381-0.286c0.096-0.839,0.533-2.82,0.515-3.907c-0.019-0.934-0.229-2.401-0.229-2.401
				c-0.095-1.067,0-2.325-1.486-2.916c-1.677-0.667-2.115,0.896-2.706,1.602L137.957,192.417z"/>
			<path fill="#416B6D" d="M147.353,179.515c0,0-0.323,0.324-0.571,0.324c-0.134,0-0.344-0.134-0.344-0.134
				s-0.477-0.381-0.514-0.725c-0.058-0.381,0.323-0.914,0.323-0.914s0.286-0.114,0.438-0.134c0.285-0.038,0.762,0.038,0.762,0.038
				s0.096,0.438,0.096,0.725C147.543,179.019,147.353,179.515,147.353,179.515z M147.543,192.798h-1.486c0,0,0.229-5.965-0.038-9.91
				c-0.019-0.21,0.038-0.609,0.038-0.609s0.609-0.114,0.914,0.038c0.115,0.057,0.287,0.247,0.287,0.247s0.189,0.134,0.095,1.658
				C147.162,187.271,147.543,192.798,147.543,192.798z"/>
			<path fill="#416B6D" d="M152.803,189.405c0.02,0.058-0.248-0.095-0.4-0.095c-0.419,0.057,0.134,0.819-0.171,1.086
				c-0.4,0.362-0.819-0.209-1.392-0.133c-0.743,0.076-1.849,1.067-1.296,0.686c0.4-0.305,0.687-0.591,1.22-0.705
				c0.553-0.095,1.067,0.553,1.468,0.152c0.267-0.285-0.267-1.01,0.152-1.067C152.555,189.311,152.803,189.405,152.803,189.405z
				 M156.481,184.336c0.477-0.343-1.734-2.363-3.202-2.363c-1.734,0-2.84,1.944-2.84,3.755c0,3.773,5.355,1.182,5.355,3.831
				c0,1.2-0.857,2.82-1.943,2.82c-1.258,0-2.896-2.287-3.278-1.887l-0.61,0.019c-0.285,0.667,1.887,2.593,3.584,2.593
				c1.981,0,3.64-1.754,3.64-3.812c0-3.545-6.118-1.238-6.118-3.812c0-1.639,1.297-2.249,2.269-2.249
				c0.934,0,1.829,0.591,2.362,1.22c0.115,0.134,0.668,0.42,0.725-0.019L156.481,184.336z"/>
			<path fill="#416B6D" d="M164.79,192.131c0,0,0.019-2.744,0.038-4.479c0-0.839,0.058-2.211,0.058-2.211
				c0.058-1.925,0-2.249-1.582-2.249c-1.276,0.038-2.039,0.705-2.802,1.392c0,0-0.209,2.82-0.248,4.593
				c-0.037,1.354-0.037,3.526-0.037,3.526l-1.105,0.095c0,0,0.019-4.688,0-5.05c-0.286-3.374-0.096-4.46,0.095-5.413
				c0.134-0.647,0.571-0.248,0.571-0.248l0.439,0.477l0.285,0.648c0.915-0.743,1.696-1.239,2.916-1.239
				c1.125,0,1.982,0.477,2.535,1.43c0.972-0.781,1.905-1.41,3.221-1.43c1.486,0,2.496,0.725,2.496,3.469c0,0,0,2.421,0.02,3.926
				c0,1.315,0.076,3.431,0.076,3.431c-0.533,0-1.162-0.038-1.314,0c-0.496,0.152,0.019-6.784,0.019-6.784
				c0.019-3.583,0.19-3.202-1.392-3.202c-1.086-0.019-2.268,1.105-2.896,1.772c0,0-0.152,6.766-0.21,7.833
				C165.934,193.008,164.79,192.131,164.79,192.131z M160.636,182.03c-0.038,0.038,0.381,0.686,0.095,0.096
				C160.217,181.059,160.674,181.992,160.636,182.03z M168.83,194.323c-0.247,0.171,0.763,1.258,0.477,0.667
				C168.793,193.923,169.078,194.151,168.83,194.323z"/>
		</g>
	</g>
</g>
</svg>
