<?xml version="1.0" encoding="utf-8"?>
<!-- Generator: Adobe Illustrator 16.0.0, SVG Export Plug-In . SVG Version: 6.00 Build 0)  -->
<!DOCTYPE svg PUBLIC "-//W3C//DTD SVG 1.1//EN" "http://www.w3.org/Graphics/SVG/1.1/DTD/svg11.dtd">
<svg version="1.1" id="Layer_1" xmlns="http://www.w3.org/2000/svg" xmlns:xlink="http://www.w3.org/1999/xlink" x="0px" y="0px"
	 width="235px" height="226.5px" viewBox="0 0 235 226.5" enable-background="new 0 0 235 226.5" xml:space="preserve">
<circle fill="#DBF7FC" stroke="#416B6D" stroke-width="0.75" stroke-linecap="round" stroke-miterlimit="10" stroke-dasharray="5.5659" cx="116.45" cy="112.921" r="107.165"/>
<g>
	<g>
		<path fill="#416B6D" d="M92.306,166.465c-0.304-1.104,0.229-10.827-0.38-14.556c-0.095-0.533,1.941-0.361,1.903,0.666
			c-0.114,3.33-0.457,9.99,0.38,12.463c0.267,0.78,3.653,0.133,6.108,0.19c0,0,0.171,0.4,0.171,0.666
			c0,0.267-0.171,0.666-0.171,0.666C97.253,165.914,92.306,166.465,92.306,166.465z M95.407,150.71
			c1.37,0.095,2.569,0.305,2.702,0.895c0.133,0.552-0.038,0.989-0.324,1.484c-0.818,1.37-2.911-1.237-4.11-0.229
			c-0.304,0.248-0.875,0.495-0.685,0.856c0.133,0.248,0.818-0.076,0.78,0.229c0,0.095-0.076,0.209-0.133,0.247
			c-0.095,0.076,0.133-0.19,0.133-0.323c0-0.305-0.609,0.114-0.78-0.133c-0.228-0.342,0.343-0.59,0.647-0.856
			c1.18-1.046,3.197,1.599,4.091,0.286c0.324-0.495,0.533-0.932,0.419-1.522C97.919,150.558,93.048,150.539,95.407,150.71z"/>
		<path fill="#416B6D" d="M108.102,166.484l-0.342-1.256c-1.084,0.305-1.808,1.637-3.044,1.637c-1.618,0-2.911-1.351-2.911-3.007
			c0-3.006,3.158-3.653,5.48-4.281l0.476-0.133v-0.59c0-1.199-0.286-1.998-2.036-1.846c-1.96,0.171-2.493,2.055-3.14,1.313
			l-0.171-0.4c-0.457-0.228,1.75-2.169,3.349-2.169c1.427,0,3.083,1.142,3.178,3.539l0.228,4.681
			c0.019,0.267,0.171,2.378-0.209,2.397L108.102,166.484z M102.66,165.875c0.114-0.266,0.152,0.609,0.152-0.228l-0.229-0.076
			C102.318,166.332,102.66,165.875,102.66,165.875z M107.665,160.529c0.133-0.952-4.852,1.294-4.852,3.178
			c0,0.875,1.065,1.75,1.96,1.75c1.18,0,3.14-1.161,2.987-1.712l-0.114-3.083L107.665,160.529z M103.459,157.694
			c0.685,0.019,1.484-0.476,1.142-0.914S102.908,157.675,103.459,157.694z M107.912,159.521c0,0-0.419,1.636-0.19,1.979
			C108.007,161.918,107.76,159.444,107.912,159.521z M108.102,165.571c0,0-0.209,0.114,0,0.457
			C108.806,167.208,107.95,165.495,108.102,165.571z"/>
		<path fill="#416B6D" d="M109.666,155.905c-0.152,0.019-0.228-0.362-0.076-0.381C109.742,155.505,109.818,155.886,109.666,155.905z
			 M118.799,158.531c0.761,0.209-1.56-2.778-3.292-2.778c-2.34,0-4.205,1.617-4.205,5.556c0,3.938,1.865,5.556,4.205,5.556
			c1.693,0,4.3-2.607,3.387-2.874l-0.133-0.304c-0.342-0.419-1.598,2.321-2.873,2.378c-2.283,0-3.216-2.93-3.52-5.252
			c-0.229-1.77,0.856-3.805,3.14-3.805c1.18-0.038,1.846,2.055,2.397,1.884L118.799,158.531z M114.727,166.218
			c-0.229-0.343,0-0.457,0-0.457C117.391,166.561,115.012,166.637,114.727,166.218z M115.488,162.793
			c-0.019,0.095,0.019,0.209,0.076,0.267c0.133,0.133,0.399-0.495,0.19-0.495C115.621,162.565,115.507,162.66,115.488,162.793z
			 M117.657,158.569c-0.229-0.342,0-0.457,0-0.457C117.505,158.036,117.943,158.987,117.657,158.569z"/>
		<path fill="#416B6D" d="M120.534,156.095c0.286-0.38,1.256-0.038,1.256-0.038l0.076-3.14c0,0,0.095-0.342,0.229-0.438
			c0.304-0.228,0.989,0.324,0.989,0.324s0.152,0.875,0.038,1.884c-0.057,0.571,0.152,1.37,0.152,1.37s2.112-0.685,2.359,0.19
			c0.038,0.133,0.057,0.38,0.057,0.38l-0.343,0.609l-2.074,0.076c0,0,0,0.457,0,0.761c0,0.171-0.267,0.399-0.267,0.59
			c0,0.133,0.267,0.875,0.267,1.008c0,2.188,0,4.243,0,4.243c0,1.028-0.114,2.968,0.818,2.15c0.305-0.267,1.161-1.674,1.446-1.009
			l0.267,0.209c0.628,0.399-1.123,1.599-1.637,1.599c-2.512,0-2.378-1.694-2.378-3.616v-5.937l-1.027-0.038
			C120.762,157.275,120.249,156.476,120.534,156.095z"/>
		<path fill="#416B6D" d="M126.682,161.309c0-3.939,1.865-5.556,4.205-5.556s3.919,1.903,3.919,5.841
			c0,3.939-1.579,5.271-3.919,5.271c-1.256,0-2.359-0.457-3.121-1.484c-0.133-0.171-0.095-0.514-0.209-0.723
			c-0.209-0.38-0.533-0.666-0.647-1.18C126.758,162.85,126.682,162.127,126.682,161.309z M127.805,164.354
			c-0.267,0.076-0.019,1.046,0.095,0.78c0.038-0.095,0.076-0.19,0.076-0.304C127.976,164.639,127.881,164.486,127.805,164.354z
			 M133.513,161.309c0.267-1.77-0.152-4.776-2.436-4.776c-2.283,0-2.911,2.988-2.911,4.776s0.628,5.156,2.911,5.156
			C133.361,166.465,132.847,165.666,133.513,161.309z"/>
		<path fill="#416B6D" d="M133.878,163.802c0.076-0.305,0.286-0.476,0.381-0.761c0.076-0.248,0.076-0.438,0.19-0.666
			c0.152-0.324-0.133,0.59-0.19,0.951L133.878,163.802z M135.591,160.738c0,0,0.361-0.362,0.951-0.343
			c1.408,0.038-0.285,0.095,1.617-0.019c1.351-0.076,2.284,0.267,2.284,0.267l0.19,0.666c0,0-0.628,0.418-1.046,0.399
			c-2.569-0.171-1.96,0.076-3.425,0.076c-0.419,0-0.571-0.286-0.571-0.286V160.738z M139.111,161.328
			c-0.095-0.248-0.761,0.038-0.666,0.285C138.54,161.861,139.206,161.575,139.111,161.328z"/>
		<path fill="#416B6D" d="M66.512,179.983c0.19-0.78,1.199-0.133,1.199-0.133s-0.399,3.14-1.503,5.651
			c-0.685,1.561-0.552,0.742-1.313,2.645c0,0-0.019,1.617-1.142,1.027c0,0-3.672-8.601-3.159-9.457
			c0.38-0.628,1.142-0.571,0.989,0.038c0,0,0.19-0.4,0.267,0.133c0.457,3.215,1.693,6.679,2.093,7.782
			C64.723,189.84,64.533,188.242,66.512,179.983z"/>
		<path fill="#416B6D" d="M62.995,187.766c0,0.114-0.038,0.209-0.076,0.304c-0.114,0.267-0.361-0.704-0.095-0.78
			C62.899,187.423,62.995,187.576,62.995,187.766z M72.052,184.417c0.895-0.571,4.89-0.247,4.89-0.247
			c0.305-0.057,0.324-1.085-0.019-2.303c-0.057-0.171-0.133-0.951-0.209-1.104c-0.152-0.285-0.19-0.057-0.342-0.342
			c-0.286-0.552-0.533-1.047-1.046-1.104c-0.152-0.019-0.267-0.476-0.343-0.514c-0.457-0.247-0.856-0.209-1.465-0.209
			c-0.761,0-1.561,0.247-2.131,0.514c-0.457,0.209-0.266,0.209-0.342,0.323c-0.685,1.047-1.542,2.265-1.731,4.719
			c-0.038,0.552-0.114,1.084,0,1.522c0.78,2.797,2.188,4.034,4.205,4.034c1.808,0,3.634-2.645,2.987-2.626l-0.114-0.248
			c-0.495-0.152-2.531,2.34-2.987,2.15c-0.418-0.171-1.884-0.495-2.74-1.58c-0.171-0.209-0.057-0.228-0.266-0.457
			c-0.571-0.59,0.133-0.989,0.133-2.512C70.53,184.436,71.557,184.722,72.052,184.417z M74.373,183.275
			c-1.37,0.248-3.615,0.399-3.615,0.399c-0.514,0.019-0.228-2.606,1.161-3.406c0.438-0.248,1.142-0.761,1.865-0.609
			c0.59,0.133,1.618,0.457,1.808,1.18c0.057,0.209,0.267,0.076,0.229,0.59c-0.076,0.952,0.247,1.865,0,1.941
			C75.819,183.371,74.811,183.199,74.373,183.275z M75.857,183.884c-0.229-0.342,0.076-0.837,0.076-0.837
			C75.781,182.971,76.143,184.303,75.857,183.884z"/>
		<path fill="#416B6D" d="M88.096,179.755l-0.552,0.19c-0.267,0.076-0.647-0.19-1.028,0.019c-0.304,0.019,0.419,1.503,0.419,2.283
			c0,2.036-1.503,3.615-3.54,3.615c-0.609,0-1.712-0.171-2.264-0.381c-0.209-0.361-1.294,0.609-1.294,1.123
			c0,1.332,7.973-0.286,7.973,3.691c0,0.78-0.304,3.196-4.509,3.196c-3.425,0-4.434-1.789-4.434-3.083
			c0-1.084,0.951-1.674,1.827-2.055c0.057-0.305-1.313-0.704-1.313-1.465c0-0.932,1.237-1.617,1.199-1.979
			c-0.761-0.894-1.046-1.465-1.046-2.702c0-2.131,1.598-3.615,3.71-3.615c0.837,0,1.598,0.247,2.283,0.742
			c0.685-0.514,1.484-0.895,2.378-0.799L88.096,179.755z M80.865,189.345c0.266-0.571-1.503,1.561-0.685,1.542
			c0.647-0.019,0.209-0.495,0.342-0.799C80.637,189.821,80.751,189.612,80.865,189.345z M82.216,188.527
			c-0.799,0.152-1.921,0.856-1.921,1.808c0,1.446,2.359,2.55,3.368,2.55c1.065,0,2.721-1.237,2.721-2.683
			c0-1.104-1.808-2.169-2.493-2.036L82.216,188.527z M83.282,179.375c-1.427,0-2.664,1.542-2.664,2.893
			c0,1.313,1.218,2.759,2.588,2.759c1.522,0,2.359-1.332,2.359-2.778C85.565,180.878,84.766,179.375,83.282,179.375z
			 M84.689,195.168c-0.228,0.133,0.152,0.646,0.343,0.571C85.413,195.605,84.918,195.035,84.689,195.168z"/>
		<path fill="#416B6D" d="M83.267,187.766c0,0.114-0.038,0.209-0.076,0.304c-0.114,0.267-0.361-0.704-0.095-0.78
			C83.171,187.423,83.267,187.576,83.267,187.766z M92.324,184.417c0.895-0.571,4.89-0.247,4.89-0.247
			c0.305-0.057,0.323-1.085-0.019-2.303c-0.057-0.171-0.133-0.951-0.209-1.104c-0.152-0.285-0.19-0.057-0.342-0.342
			c-0.286-0.552-0.533-1.047-1.046-1.104c-0.152-0.019-0.267-0.476-0.343-0.514c-0.457-0.247-0.856-0.209-1.465-0.209
			c-0.761,0-1.561,0.247-2.131,0.514c-0.457,0.209-0.266,0.209-0.342,0.323c-0.685,1.047-1.542,2.265-1.731,4.719
			c-0.038,0.552-0.114,1.084,0,1.522c0.78,2.797,2.188,4.034,4.205,4.034c1.808,0,3.634-2.645,2.987-2.626l-0.114-0.248
			c-0.495-0.152-2.531,2.34-2.987,2.15c-0.418-0.171-1.884-0.495-2.74-1.58c-0.171-0.209-0.057-0.228-0.266-0.457
			c-0.571-0.59,0.133-0.989,0.133-2.512C90.802,184.436,91.829,184.722,92.324,184.417z M94.645,183.275
			c-1.37,0.248-3.615,0.399-3.615,0.399c-0.514,0.019-0.228-2.606,1.161-3.406c0.438-0.248,1.142-0.761,1.865-0.609
			c0.59,0.133,1.618,0.457,1.808,1.18c0.057,0.209,0.267,0.076,0.229,0.59c-0.076,0.952,0.247,1.865,0,1.941
			C96.091,183.371,95.083,183.199,94.645,183.275z M96.129,183.884c-0.229-0.342,0.076-0.837,0.076-0.837
			C96.053,182.971,96.415,184.303,96.129,183.884z"/>
		<path fill="#416B6D" d="M98.949,178.937c0.286-0.38,1.256-0.038,1.256-0.038l0.076-3.14c0,0,0.095-0.342,0.229-0.438
			c0.304-0.228,0.989,0.324,0.989,0.324s0.152,0.875,0.038,1.884c-0.057,0.571,0.152,1.37,0.152,1.37s2.112-0.685,2.359,0.19
			c0.038,0.133,0.057,0.38,0.057,0.38l-0.343,0.609l-2.074,0.076c0,0,0,0.457,0,0.761c0,0.171-0.267,0.399-0.267,0.59
			c0,0.133,0.267,0.875,0.267,1.008c0,2.188,0,4.243,0,4.243c0,1.028-0.114,2.968,0.818,2.15c0.305-0.267,1.161-1.674,1.446-1.009
			l0.267,0.209c0.628,0.399-1.123,1.599-1.637,1.599c-2.512,0-2.378-1.694-2.378-3.616v-5.937l-1.027-0.038
			C99.177,180.117,98.664,179.318,98.949,178.937z"/>
		<path fill="#416B6D" d="M111.414,189.326l-0.342-1.256c-1.084,0.305-1.808,1.637-3.044,1.637c-1.618,0-2.911-1.351-2.911-3.007
			c0-3.006,3.158-3.653,5.48-4.281l0.476-0.133v-0.59c0-1.199-0.286-1.998-2.036-1.846c-1.96,0.171-2.493,2.055-3.14,1.313
			l-0.171-0.4c-0.457-0.228,1.75-2.169,3.349-2.169c1.427,0,3.083,1.142,3.178,3.539l0.228,4.681
			c0.019,0.267,0.171,2.378-0.209,2.397L111.414,189.326z M105.972,188.717c0.114-0.266,0.152,0.609,0.152-0.228l-0.229-0.076
			C105.629,189.174,105.972,188.717,105.972,188.717z M110.976,183.371c0.133-0.952-4.852,1.294-4.852,3.178
			c0,0.875,1.065,1.75,1.96,1.75c1.18,0,3.14-1.161,2.987-1.712l-0.114-3.083L110.976,183.371z M106.771,180.536
			c0.685,0.019,1.484-0.476,1.142-0.914S106.219,180.517,106.771,180.536z M111.224,182.362c0,0-0.419,1.636-0.19,1.979
			C111.318,184.76,111.071,182.286,111.224,182.362z M111.414,188.413c0,0-0.209,0.114,0,0.457
			C112.118,190.049,111.261,188.337,111.414,188.413z"/>
		<path fill="#416B6D" d="M116.136,189.231c-0.285,0.038-0.304,0.133-0.837,0.114c0,0-0.571,0.019-0.38-0.951
			c0.399-2.036,0-7.193-0.038-9.076c0-0.438,0.895-0.419,0.895-0.419l0.533,0.19l0.057,2.074l0.019,0.057
			c0.438,0.209,1.674-2.664,2.968-2.473c0,0,0.342-0.019,0.495,0.076c0.285,0.19,0.019,0.514,0.038,0.933
			c0.133,0.457-0.875,0.361-1.313,0.647c-0.951,0.609-1.579,1.655-2.169,3.044c0,0-0.152,3.102-0.114,4.072
			c0,0.133-0.019,0.514,0.057,0.666c0.076,0.171,0.133,0.114,0.152,0.286c0.038,0.247-0.019,0.304-0.019,0.418
			C116.479,189.098,116.308,189.212,116.136,189.231z M115.185,187.614c0,0-0.476,1.465,0.057,1.465
			C115.432,189.079,115.432,187.652,115.185,187.614z M117.031,179.527c-0.038-0.418-0.799,0.057-1.066-0.247
			c-0.361-0.419,0.343-0.875,0.286-1.446c-0.057-0.533-0.324-0.837-0.59-1.275c-0.343-0.571,0.552,0.609,0.571,1.351
			c0.019,0.571-0.59,0.951-0.267,1.37c0.248,0.323,1.047-0.152,1.066,0.266c0,0.152-0.171,0.419-0.114,0.4
			C116.917,179.946,117.031,179.698,117.031,179.527z M116.174,188.28c0,0-0.152,0.342,0.209,0.495
			C116.574,188.851,116.27,188.013,116.174,188.28z M117.64,182.419c0,0-0.495,0.362,0.038,0.362
			C117.868,182.781,117.887,182.457,117.64,182.419z"/>
		<path fill="#416B6D" d="M122.855,176.14c0,0-0.324,0.323-0.571,0.323c-0.133,0-0.343-0.133-0.343-0.133s-0.476-0.38-0.514-0.723
			c-0.057-0.381,0.324-0.914,0.324-0.914s0.285-0.114,0.438-0.133c0.286-0.038,0.761,0.038,0.761,0.038s0.095,0.438,0.095,0.723
			C123.046,175.646,122.855,176.14,122.855,176.14z M123.046,189.402h-1.484c0,0,0.229-5.956-0.038-9.895
			c-0.019-0.209,0.038-0.609,0.038-0.609s0.609-0.114,0.914,0.038c0.114,0.057,0.285,0.248,0.285,0.248s0.19,0.133,0.095,1.655
			C122.665,183.884,123.046,189.402,123.046,189.402z"/>
		<path fill="#416B6D" d="M131.419,189.326l-0.342-1.256c-1.084,0.305-1.808,1.637-3.044,1.637c-1.618,0-2.911-1.351-2.911-3.007
			c0-3.006,3.158-3.653,5.48-4.281l0.476-0.133v-0.59c0-1.199-0.286-1.998-2.036-1.846c-1.96,0.171-2.493,2.055-3.14,1.313
			l-0.171-0.4c-0.457-0.228,1.75-2.169,3.349-2.169c1.427,0,3.083,1.142,3.178,3.539l0.228,4.681
			c0.019,0.267,0.171,2.378-0.209,2.397L131.419,189.326z M125.977,188.717c0.114-0.266,0.152,0.609,0.152-0.228l-0.229-0.076
			C125.635,189.174,125.977,188.717,125.977,188.717z M130.981,183.371c0.133-0.952-4.852,1.294-4.852,3.178
			c0,0.875,1.065,1.75,1.96,1.75c1.18,0,3.139-1.161,2.987-1.712l-0.114-3.083L130.981,183.371z M126.776,180.536
			c0.685,0.019,1.484-0.476,1.142-0.914C127.575,179.185,126.225,180.517,126.776,180.536z M131.229,182.362
			c0,0-0.418,1.636-0.19,1.979C131.324,184.76,131.077,182.286,131.229,182.362z M131.419,188.413c0,0-0.209,0.114,0,0.457
			C132.123,190.049,131.267,188.337,131.419,188.413z"/>
		<path fill="#416B6D" d="M136.18,189.022c0,0-0.171,0.552-0.438,0.571c-0.305,0.019-0.571-0.571-0.571-0.571l-0.286-10.313
			c0,0,0.895-0.209,1.142,0.133c0.114,0.171,0.152,0.533,0.152,0.533l0.19,0.609c0.875-0.704,1.693-1.389,2.892-1.389
			c1.484,0,2.835,0.818,2.683,3.558c0,0,0.571,4.167-0.4,6.488c-0.076,0.209-0.266,0.571-0.266,0.571l-0.628,0.095
			c0,0-0.438,0.114-0.381-0.285c0.095-0.837,0.533-2.816,0.514-3.901c-0.019-0.932-0.228-2.397-0.228-2.397
			c-0.095-1.065,0-2.321-1.484-2.911c-1.674-0.666-2.112,0.894-2.702,1.598L136.18,189.022z"/>
		<path fill="#416B6D" d="M145.563,176.14c0,0-0.324,0.323-0.571,0.323c-0.133,0-0.343-0.133-0.343-0.133s-0.476-0.38-0.514-0.723
			c-0.057-0.381,0.324-0.914,0.324-0.914s0.285-0.114,0.438-0.133c0.286-0.038,0.761,0.038,0.761,0.038s0.095,0.438,0.095,0.723
			C145.754,175.646,145.563,176.14,145.563,176.14z M145.754,189.402h-1.484c0,0,0.229-5.956-0.038-9.895
			c-0.019-0.209,0.038-0.609,0.038-0.609s0.609-0.114,0.914,0.038c0.114,0.057,0.285,0.248,0.285,0.248s0.19,0.133,0.095,1.655
			C145.373,183.884,145.754,189.402,145.754,189.402z"/>
		<path fill="#416B6D" d="M151.006,186.016c0.019,0.057-0.247-0.095-0.399-0.095c-0.418,0.057,0.133,0.818-0.171,1.084
			c-0.399,0.361-0.818-0.209-1.389-0.133c-0.742,0.076-1.846,1.065-1.294,0.685c0.399-0.304,0.685-0.59,1.218-0.704
			c0.552-0.095,1.065,0.552,1.465,0.152c0.267-0.286-0.266-1.008,0.152-1.065C150.759,185.92,151.006,186.016,151.006,186.016z
			 M154.679,180.954c0.476-0.343-1.731-2.359-3.196-2.359c-1.732,0-2.835,1.941-2.835,3.749c0,3.767,5.347,1.18,5.347,3.824
			c0,1.199-0.856,2.816-1.94,2.816c-1.256,0-2.893-2.284-3.273-1.884l-0.609,0.019c-0.286,0.666,1.884,2.588,3.577,2.588
			c1.979,0,3.634-1.751,3.634-3.806c0-3.539-6.108-1.237-6.108-3.806c0-1.636,1.294-2.245,2.264-2.245
			c0.933,0,1.827,0.59,2.36,1.218c0.114,0.133,0.666,0.418,0.723-0.019L154.679,180.954z"/>
		<path fill="#416B6D" d="M162.979,188.736c0,0,0.019-2.74,0.038-4.472c0-0.837,0.057-2.207,0.057-2.207
			c0.057-1.922,0-2.245-1.579-2.245c-1.275,0.038-2.036,0.704-2.797,1.389c0,0-0.209,2.816-0.248,4.586
			c-0.038,1.351-0.038,3.52-0.038,3.52l-1.104,0.095c0,0,0.019-4.681,0-5.042c-0.286-3.368-0.095-4.452,0.095-5.404
			c0.133-0.647,0.571-0.247,0.571-0.247l0.438,0.476l0.286,0.647c0.913-0.742,1.693-1.237,2.911-1.237
			c1.123,0,1.979,0.476,2.531,1.427c0.97-0.78,1.903-1.408,3.215-1.427c1.484,0,2.493,0.723,2.493,3.463c0,0,0,2.417,0.019,3.92
			c0,1.312,0.076,3.425,0.076,3.425c-0.533,0-1.161-0.038-1.313,0c-0.495,0.152,0.019-6.774,0.019-6.774
			c0.019-3.577,0.19-3.197-1.389-3.197c-1.085-0.019-2.265,1.104-2.893,1.77c0,0-0.152,6.755-0.209,7.821
			C164.12,189.612,162.979,188.736,162.979,188.736z M158.83,178.652c-0.038,0.038,0.381,0.685,0.095,0.095
			C158.412,177.681,158.868,178.614,158.83,178.652z M167.012,190.925c-0.248,0.171,0.761,1.255,0.476,0.666
			C166.974,190.525,167.26,190.753,167.012,190.925z"/>
	</g>
	<g>
		<path fill="#F2F7B5" stroke="#492D08" stroke-width="0.75" stroke-linecap="round" stroke-miterlimit="10" d="M124.283,129.543
			l-22.001,6.518c0,0-3.373-13.29-8.595-19.848c-5.221-6.557-12.916-16.222-12.916-16.222l4.427-3.672l8.697,6.766
			c0,0,2.997,1.71-1.195-4.498c-4.193-6.209-8.185-7.767-8.185-7.767l7.652-5.042l7.45,12.571l-1.14-13.573l4.627,0.78l2.488,10.959
			l2.466-11.098l1.541,0.085c0,0,4.408,18.122,7.896,26.921C120.984,121.222,124.283,129.543,124.283,129.543z"/>
		
			<path fill="none" stroke="#492D08" stroke-width="0.75" stroke-linecap="round" stroke-miterlimit="10" stroke-dasharray="2.2631" d="
			M121.798,128.864l-17.918,5.308c0,0-2.747-10.823-6.999-16.164c-4.251-5.34-13.888-17.517-13.888-17.517l2.613-1.809l8.749,7.044
			c0,0,4.793-0.126,1.377-5.182c-3.414-5.055-7.584-10.188-7.584-10.188l3.669-2.495l9.894,15.601l-1.856-16.67l1.953-0.083
			l3.531,15.294l2.973-9.706l0.791-2.738c0,0,4.329,18.199,7.169,25.364C119.111,122.087,121.798,128.864,121.798,128.864z"/>
		<path fill="#77B65F" stroke="#492D08" stroke-width="0.75" stroke-linecap="round" stroke-miterlimit="10" d="M90.514,87.749
			c0,0,33.907,4.863,29.428-16.003c-4.479-20.866-18.491-16.065-18.491-16.065s-6.274-13.331-17.437-8.998
			c-11.163,4.332-9.989,11.095-9.989,11.095s-8.719-4.5-15.399,2.657c-6.681,7.155-2.242,14.51-2.242,14.51
			s-14.376,17.759,6.431,31.066C83.623,119.317,90.514,87.749,90.514,87.749z"/>
		<path fill="none" stroke="#492D08" stroke-width="0.75" stroke-linecap="round" stroke-miterlimit="10" d="M56.228,81.532
			c-2.5,20.865,18.909,27.354,21.889,19.859"/>
		<path fill="none" stroke="#492D08" stroke-width="0.75" stroke-linecap="round" stroke-miterlimit="10" d="M102.583,59.454
			c21.323,8.127,9.973,22.511,10.206,22.41"/>
		<path fill="none" stroke="#492D08" stroke-width="0.75" stroke-linecap="round" stroke-miterlimit="10" d="M79.641,56.85
			c-1.43-1.158,8.56-13.603,16.096-2.205"/>
		<path fill="none" stroke="#492D08" stroke-width="0.75" stroke-linecap="round" stroke-miterlimit="10" d="M73.12,62.057
			c-3.188-3.76-18.219-1.54-13.089,10.305"/>
		<path fill="none" stroke="#492D08" stroke-width="0.75" stroke-linecap="round" stroke-miterlimit="10" d="M76.392,79.739
			c-1.979-4.569-7.287-6.669-11.855-4.691c-3.655,1.583-5.333,5.829-3.751,9.484c1.266,2.923,4.663,4.267,7.587,3.001
			c2.339-1.013,3.414-3.73,2.401-6.07c-0.811-1.871-2.984-2.73-4.855-1.92"/>
		<path fill="none" stroke="#492D08" stroke-width="0.75" stroke-linecap="round" stroke-miterlimit="10" d="M91.674,75.377
			c-1.979-4.569,0.122-9.876,4.69-11.854c3.655-1.583,7.9,0.096,9.482,3.752c1.266,2.923-0.078,6.32-3.002,7.586
			c-2.338,1.013-5.056-0.062-6.069-2.401c-0.81-1.871,0.05-4.045,1.92-4.855"/>
		<path fill="none" stroke="#492D08" stroke-width="0.75" stroke-linecap="round" stroke-miterlimit="10" d="M77.944,74.591
			c-2.49-1.74-3.096-5.168-1.356-7.657c1.392-1.991,4.135-2.477,6.126-1.085c1.593,1.114,1.981,3.308,0.867,4.901
			c-0.891,1.273-2.646,1.585-3.92,0.693c-1.019-0.713-1.269-2.118-0.555-3.136c0.57-0.816,1.693-1.015,2.509-0.444
			c0.652,0.456,0.812,1.354,0.355,2.007"/>
		<path fill="none" stroke="#492D08" stroke-width="0.75" stroke-linecap="round" stroke-miterlimit="10" d="M76.424,89.612
			c-0.434,3.005,1.652,5.793,4.657,6.227c2.405,0.347,4.635-1.321,4.982-3.725c0.277-1.923-1.057-3.708-2.981-3.986
			c-1.538-0.222-2.966,0.845-3.188,2.384c-0.178,1.231,0.677,2.374,1.907,2.551c0.985,0.142,1.898-0.541,2.04-1.526
			c0.114-0.788-0.433-1.518-1.221-1.632"/>
		<path fill="#F2F7B5" stroke="#492D08" stroke-width="0.75" stroke-linecap="round" stroke-miterlimit="10" d="M151.534,143.349
			l-28.309-3.432c0,0,2.716-16.821,0-26.878c-2.717-10.057-6.72-24.877-6.72-24.877l6.863-2.001l6.577,12.01
			c0,0,2.574,3.431,0.858-5.719c-1.716-9.151-5.497-12.897-5.497-12.897l11.216-1.972l2.287,18.015l5.403-16.042l4.891,3.175
			l-2.573,13.726l8.292-11.438l1.716,0.857c0,0-3.922,22.843-4.29,34.6C151.881,132.23,151.534,143.349,151.534,143.349z"/>
		
			<path fill="none" stroke="#492D08" stroke-width="0.75" stroke-linecap="round" stroke-miterlimit="10" stroke-dasharray="2.8124" d="
			M149.035,141.348l-23.054-2.795c0,0,2.211-13.699,0-21.889c-2.212-8.19-7.188-26.835-7.188-26.835l3.873-0.772l6.5,12.354
			c0,0,5.527,2.223,4.13-5.229s-3.619-15.363-3.619-15.363l5.417-1.035l3.579,22.677l6.116-19.927l2.267,0.87l-3.525,19.184
			l8.183-9.6l2.255-2.732c0,0-4.052,22.892-4.351,32.466C149.318,132.292,149.035,141.348,149.035,141.348z"/>
		<path fill="#73D100" stroke="#492D08" stroke-width="0.75" stroke-linecap="round" stroke-miterlimit="10" d="M133.662,79.011
			c0,0,36.266,22.29,41.462-3.718c5.197-26.008-13.153-27.451-13.153-27.451s-0.572-18.301-15.441-18.872
			c-14.87-0.572-16.871,7.72-16.871,7.72s-7.721-9.436-18.873-4.575c-11.152,4.862-9.723,15.441-9.723,15.441
			S75.9,60.71,93.058,86.16C110.215,111.608,133.662,79.011,133.662,79.011z"/>
		<path fill="none" stroke="#492D08" stroke-width="0.75" stroke-linecap="round" stroke-miterlimit="10" d="M97.633,54.991
			c-13.154,22.561,8.056,40.531,15.155,33.456"/>
		<path fill="none" stroke="#492D08" stroke-width="0.75" stroke-linecap="round" stroke-miterlimit="10" d="M161.398,52.704
			c20.303,19.796,0.256,30.595,0.572,30.595"/>
		<path fill="none" stroke="#492D08" stroke-width="0.75" stroke-linecap="round" stroke-miterlimit="10" d="M136.522,38.407
			C135.463,36.379,153,27.12,155.966,43.84"/>
		<path fill="none" stroke="#492D08" stroke-width="0.75" stroke-linecap="round" stroke-miterlimit="10" d="M126.514,41.123
			c-1.78-5.862-20.017-10.751-20.017,5.29"/>
		<path fill="none" stroke="#492D08" stroke-width="0.75" stroke-linecap="round" stroke-miterlimit="10" d="M121.512,62.903
			c0-6.188-5.015-11.203-11.202-11.203c-4.949,0-8.962,4.012-8.962,8.961c0,3.959,3.21,7.169,7.17,7.169
			c3.167,0,5.735-2.568,5.735-5.736c0-2.534-2.054-4.588-4.588-4.588"/>
		<path fill="none" stroke="#492D08" stroke-width="0.75" stroke-linecap="round" stroke-miterlimit="10" d="M141.095,65.477
			c0-6.187,5.015-11.203,11.202-11.203c4.949,0,8.962,4.012,8.962,8.961c0,3.96-3.21,7.17-7.169,7.17
			c-3.167,0-5.736-2.567-5.736-5.736c0-2.533,2.055-4.588,4.588-4.588"/>
		<path fill="none" stroke="#492D08" stroke-width="0.75" stroke-linecap="round" stroke-miterlimit="10" d="M125.825,57.799
			c-1.979-3.213-0.979-7.422,2.235-9.401c2.571-1.583,5.938-0.782,7.521,1.789c1.267,2.057,0.625,4.75-1.431,6.017
			c-1.646,1.013-3.801,0.501-4.813-1.144c-0.811-1.316-0.401-3.042,0.915-3.851c1.053-0.649,2.432-0.321,3.081,0.732
			c0.518,0.842,0.255,1.946-0.586,2.465"/>
		<path fill="none" stroke="#492D08" stroke-width="0.75" stroke-linecap="round" stroke-miterlimit="10" d="M116.674,74.179
			c-1.979,3.213-0.978,7.422,2.235,9.401c2.57,1.583,5.938,0.782,7.521-1.788c1.267-2.057,0.626-4.75-1.431-6.018
			c-1.645-1.013-3.8-0.501-4.814,1.145c-0.81,1.315-0.4,3.041,0.916,3.85c1.052,0.649,2.432,0.321,3.081-0.732
			c0.519-0.842,0.256-1.945-0.586-2.464"/>
	</g>
</g>
</svg>
