<?xml version="1.0" encoding="utf-8"?>
<!-- Generator: Adobe Illustrator 16.0.0, SVG Export Plug-In . SVG Version: 6.00 Build 0)  -->
<!DOCTYPE svg PUBLIC "-//W3C//DTD SVG 1.1//EN" "http://www.w3.org/Graphics/SVG/1.1/DTD/svg11.dtd">
<svg version="1.1" id="Layer_1" xmlns="http://www.w3.org/2000/svg" xmlns:xlink="http://www.w3.org/1999/xlink" x="0px" y="0px"
	 width="235px" height="226.5px" viewBox="0 0 235 226.5" enable-background="new 0 0 235 226.5" xml:space="preserve">
<circle fill="#C7E2E5" stroke="#416B6D" stroke-width="0.75" stroke-linecap="round" stroke-miterlimit="10" stroke-dasharray="5.5659" cx="116.45" cy="112.921" r="107.165"/>
<g>
	<path fill="#416B6D" d="M92.306,166.465c-0.304-1.104,0.229-10.826-0.38-14.556c-0.095-0.533,1.941-0.361,1.903,0.666
		c-0.114,3.33-0.457,9.989,0.38,12.463c0.267,0.78,3.653,0.133,6.108,0.19c0,0,0.171,0.399,0.171,0.666s-0.171,0.666-0.171,0.666
		C97.253,165.914,92.306,166.465,92.306,166.465z M95.407,150.71c1.37,0.095,2.569,0.306,2.702,0.896
		c0.133,0.552-0.038,0.988-0.324,1.483c-0.818,1.37-2.911-1.237-4.11-0.229c-0.304,0.248-0.875,0.496-0.685,0.856
		c0.133,0.248,0.818-0.075,0.78,0.229c0,0.095-0.076,0.209-0.133,0.246c-0.095,0.076,0.133-0.189,0.133-0.322
		c0-0.305-0.609,0.113-0.78-0.133c-0.228-0.342,0.343-0.59,0.647-0.856c1.18-1.046,3.197,1.599,4.091,0.286
		c0.324-0.495,0.533-0.932,0.419-1.521C97.919,150.559,93.048,150.539,95.407,150.71z"/>
	<path fill="#416B6D" d="M108.102,166.484l-0.342-1.256c-1.084,0.305-1.808,1.637-3.044,1.637c-1.618,0-2.911-1.352-2.911-3.008
		c0-3.006,3.158-3.652,5.48-4.28l0.476-0.134v-0.59c0-1.199-0.286-1.998-2.036-1.846c-1.96,0.172-2.493,2.055-3.14,1.312
		l-0.171-0.399c-0.457-0.228,1.75-2.169,3.349-2.169c1.427,0,3.083,1.143,3.178,3.539l0.228,4.682
		c0.019,0.267,0.171,2.377-0.209,2.396L108.102,166.484z M102.66,165.875c0.114-0.266,0.152,0.609,0.152-0.229l-0.229-0.076
		C102.318,166.332,102.66,165.875,102.66,165.875z M107.665,160.529c0.133-0.952-4.852,1.294-4.852,3.178
		c0,0.875,1.065,1.75,1.96,1.75c1.18,0,3.14-1.161,2.987-1.712l-0.114-3.083L107.665,160.529z M103.459,157.693
		c0.685,0.02,1.484-0.476,1.142-0.913C104.259,156.342,102.908,157.675,103.459,157.693z M107.912,159.521
		c0,0-0.419,1.636-0.19,1.979C108.007,161.918,107.76,159.443,107.912,159.521z M108.102,165.57c0,0-0.209,0.115,0,0.457
		C108.806,167.208,107.95,165.495,108.102,165.57z"/>
	<path fill="#416B6D" d="M109.666,155.905c-0.152,0.019-0.228-0.362-0.076-0.382C109.742,155.505,109.818,155.886,109.666,155.905z
		 M118.799,158.531c0.762,0.209-1.56-2.778-3.292-2.778c-2.34,0-4.205,1.617-4.205,5.556s1.865,5.557,4.205,5.557
		c1.693,0,4.3-2.607,3.388-2.874l-0.133-0.304c-0.343-0.42-1.599,2.32-2.874,2.377c-2.283,0-3.216-2.93-3.52-5.252
		c-0.229-1.77,0.856-3.805,3.14-3.805c1.18-0.037,1.846,2.055,2.397,1.885L118.799,158.531z M114.727,166.218
		c-0.229-0.343,0-0.457,0-0.457C117.391,166.561,115.012,166.637,114.727,166.218z M115.488,162.793
		c-0.019,0.096,0.019,0.209,0.076,0.268c0.133,0.133,0.399-0.496,0.19-0.496C115.621,162.564,115.507,162.66,115.488,162.793z
		 M117.657,158.568c-0.229-0.342,0-0.457,0-0.457C117.505,158.036,117.943,158.986,117.657,158.568z"/>
	<path fill="#416B6D" d="M120.534,156.095c0.286-0.38,1.256-0.038,1.256-0.038l0.076-3.14c0,0,0.095-0.342,0.229-0.438
		c0.303-0.228,0.988,0.324,0.988,0.324s0.152,0.875,0.038,1.885c-0.058,0.57,0.151,1.369,0.151,1.369s2.112-0.685,2.359,0.19
		c0.038,0.133,0.057,0.38,0.057,0.38l-0.342,0.609l-2.074,0.076c0,0,0,0.457,0,0.761c0,0.171-0.268,0.399-0.268,0.59
		c0,0.133,0.268,0.875,0.268,1.008c0,2.188,0,4.243,0,4.243c0,1.027-0.114,2.968,0.817,2.15c0.306-0.268,1.161-1.674,1.446-1.01
		l0.268,0.209c0.627,0.399-1.123,1.6-1.638,1.6c-2.513,0-2.378-1.694-2.378-3.616v-5.937l-1.027-0.039
		C120.762,157.275,120.249,156.477,120.534,156.095z"/>
	<path fill="#416B6D" d="M126.682,161.309c0-3.938,1.865-5.556,4.205-5.556s3.92,1.903,3.92,5.841c0,3.939-1.58,5.271-3.92,5.271
		c-1.256,0-2.359-0.457-3.121-1.484c-0.133-0.171-0.095-0.514-0.209-0.723c-0.209-0.381-0.533-0.666-0.646-1.18
		C126.758,162.85,126.682,162.127,126.682,161.309z M127.805,164.354c-0.267,0.076-0.019,1.047,0.096,0.78
		c0.037-0.095,0.076-0.19,0.076-0.304C127.977,164.639,127.881,164.486,127.805,164.354z M133.514,161.309
		c0.266-1.77-0.152-4.775-2.437-4.775c-2.283,0-2.911,2.988-2.911,4.775c0,1.789,0.628,5.156,2.911,5.156
		C133.361,166.465,132.848,165.666,133.514,161.309z"/>
	<path fill="#416B6D" d="M133.878,163.802c0.076-0.305,0.286-0.476,0.381-0.761c0.076-0.248,0.076-0.438,0.19-0.666
		c0.152-0.324-0.133,0.59-0.19,0.951L133.878,163.802z M135.591,160.738c0,0,0.361-0.362,0.951-0.344
		c1.408,0.039-0.285,0.096,1.617-0.019c1.351-0.076,2.284,0.267,2.284,0.267l0.189,0.666c0,0-0.628,0.418-1.046,0.399
		c-2.569-0.171-1.96,0.076-3.425,0.076c-0.419,0-0.571-0.286-0.571-0.286V160.738z M139.111,161.328
		c-0.096-0.248-0.762,0.038-0.666,0.285C138.54,161.861,139.206,161.575,139.111,161.328z"/>
	<path fill="#416B6D" d="M66.512,179.982c0.19-0.779,1.199-0.133,1.199-0.133s-0.399,3.141-1.503,5.651
		c-0.685,1.562-0.552,0.742-1.313,2.646c0,0-0.019,1.617-1.142,1.026c0,0-3.672-8.601-3.159-9.457
		c0.38-0.628,1.142-0.571,0.989,0.038c0,0,0.19-0.4,0.267,0.133c0.457,3.215,1.693,6.68,2.093,7.782
		C64.723,189.84,64.533,188.242,66.512,179.982z"/>
	<path fill="#416B6D" d="M62.995,187.766c0,0.114-0.038,0.209-0.076,0.305c-0.114,0.267-0.361-0.704-0.095-0.78
		C62.899,187.423,62.995,187.576,62.995,187.766z M72.052,184.417c0.895-0.571,4.89-0.247,4.89-0.247
		c0.305-0.057,0.324-1.085-0.019-2.303c-0.057-0.172-0.133-0.951-0.209-1.104c-0.152-0.285-0.19-0.058-0.342-0.343
		c-0.286-0.552-0.533-1.047-1.046-1.104c-0.152-0.019-0.267-0.476-0.343-0.514c-0.457-0.246-0.856-0.209-1.465-0.209
		c-0.761,0-1.561,0.247-2.131,0.514c-0.457,0.209-0.266,0.209-0.342,0.324c-0.685,1.047-1.542,2.264-1.731,4.719
		c-0.038,0.552-0.114,1.084,0,1.521c0.78,2.797,2.188,4.034,4.205,4.034c1.808,0,3.634-2.646,2.987-2.626l-0.114-0.248
		c-0.495-0.152-2.531,2.34-2.987,2.15c-0.418-0.172-1.884-0.496-2.74-1.58c-0.171-0.209-0.057-0.229-0.266-0.457
		c-0.571-0.59,0.133-0.989,0.133-2.512C70.53,184.436,71.557,184.723,72.052,184.417z M74.373,183.275
		c-1.37,0.248-3.615,0.398-3.615,0.398c-0.514,0.02-0.228-2.605,1.161-3.406c0.438-0.248,1.142-0.761,1.865-0.608
		c0.59,0.133,1.618,0.457,1.808,1.18c0.057,0.209,0.267,0.076,0.229,0.591c-0.076,0.951,0.247,1.864,0,1.94
		C75.819,183.371,74.811,183.199,74.373,183.275z M75.857,183.884c-0.229-0.342,0.076-0.837,0.076-0.837
		C75.781,182.971,76.143,184.303,75.857,183.884z"/>
	<path fill="#416B6D" d="M88.096,179.755l-0.552,0.19c-0.267,0.076-0.647-0.19-1.028,0.019c-0.304,0.019,0.419,1.503,0.419,2.283
		c0,2.036-1.503,3.614-3.54,3.614c-0.609,0-1.712-0.17-2.264-0.381c-0.209-0.36-1.294,0.609-1.294,1.123
		c0,1.332,7.973-0.285,7.973,3.691c0,0.78-0.304,3.196-4.509,3.196c-3.425,0-4.434-1.789-4.434-3.083
		c0-1.084,0.951-1.674,1.827-2.055c0.057-0.306-1.313-0.705-1.313-1.465c0-0.933,1.237-1.617,1.199-1.979
		c-0.761-0.894-1.046-1.466-1.046-2.702c0-2.131,1.598-3.615,3.71-3.615c0.837,0,1.598,0.247,2.283,0.742
		c0.685-0.514,1.484-0.895,2.378-0.799L88.096,179.755z M80.865,189.346c0.266-0.572-1.503,1.561-0.685,1.541
		c0.647-0.019,0.209-0.494,0.342-0.799C80.637,189.82,80.751,189.611,80.865,189.346z M82.216,188.527
		c-0.799,0.152-1.921,0.855-1.921,1.808c0,1.446,2.359,2.55,3.368,2.55c1.065,0,2.721-1.236,2.721-2.683
		c0-1.104-1.808-2.169-2.493-2.036L82.216,188.527z M83.282,179.375c-1.427,0-2.664,1.542-2.664,2.893
		c0,1.313,1.218,2.76,2.588,2.76c1.522,0,2.359-1.332,2.359-2.778C85.565,180.878,84.766,179.375,83.282,179.375z M84.689,195.168
		c-0.228,0.133,0.152,0.646,0.343,0.571C85.413,195.605,84.918,195.035,84.689,195.168z"/>
	<path fill="#416B6D" d="M83.267,187.766c0,0.114-0.038,0.209-0.076,0.305c-0.114,0.267-0.361-0.704-0.095-0.78
		C83.171,187.423,83.267,187.576,83.267,187.766z M92.324,184.417c0.895-0.571,4.89-0.247,4.89-0.247
		c0.305-0.057,0.323-1.085-0.019-2.303c-0.057-0.172-0.133-0.951-0.209-1.104c-0.152-0.285-0.19-0.058-0.342-0.343
		c-0.286-0.552-0.533-1.047-1.046-1.104c-0.152-0.019-0.267-0.476-0.343-0.514c-0.457-0.246-0.856-0.209-1.465-0.209
		c-0.761,0-1.561,0.247-2.131,0.514c-0.457,0.209-0.266,0.209-0.342,0.324c-0.685,1.047-1.542,2.264-1.731,4.719
		c-0.038,0.552-0.114,1.084,0,1.521c0.78,2.797,2.188,4.034,4.205,4.034c1.808,0,3.634-2.646,2.987-2.626l-0.114-0.248
		c-0.495-0.152-2.531,2.34-2.987,2.15c-0.418-0.172-1.884-0.496-2.74-1.58c-0.171-0.209-0.057-0.229-0.266-0.457
		c-0.571-0.59,0.133-0.989,0.133-2.512C90.802,184.436,91.829,184.723,92.324,184.417z M94.645,183.275
		c-1.37,0.248-3.615,0.398-3.615,0.398c-0.514,0.02-0.228-2.605,1.161-3.406c0.438-0.248,1.142-0.761,1.865-0.608
		c0.59,0.133,1.618,0.457,1.808,1.18c0.057,0.209,0.267,0.076,0.229,0.591c-0.076,0.951,0.247,1.864,0,1.94
		C96.091,183.371,95.083,183.199,94.645,183.275z M96.129,183.884c-0.229-0.342,0.076-0.837,0.076-0.837
		C96.053,182.971,96.415,184.303,96.129,183.884z"/>
	<path fill="#416B6D" d="M98.949,178.938c0.286-0.381,1.256-0.039,1.256-0.039l0.076-3.14c0,0,0.095-0.342,0.229-0.438
		c0.304-0.228,0.989,0.324,0.989,0.324s0.152,0.875,0.038,1.885c-0.057,0.57,0.152,1.369,0.152,1.369s2.112-0.685,2.359,0.19
		c0.038,0.134,0.057,0.38,0.057,0.38l-0.343,0.609l-2.074,0.076c0,0,0,0.457,0,0.761c0,0.171-0.267,0.399-0.267,0.59
		c0,0.134,0.267,0.875,0.267,1.009c0,2.188,0,4.242,0,4.242c0,1.028-0.114,2.969,0.818,2.15c0.305-0.268,1.161-1.674,1.446-1.01
		l0.267,0.209c0.628,0.399-1.123,1.6-1.637,1.6c-2.512,0-2.378-1.694-2.378-3.616v-5.937l-1.027-0.038
		C99.177,180.117,98.664,179.318,98.949,178.938z"/>
	<path fill="#416B6D" d="M111.414,189.326l-0.342-1.256c-1.084,0.305-1.808,1.637-3.044,1.637c-1.618,0-2.911-1.352-2.911-3.007
		c0-3.007,3.158-3.653,5.48-4.281l0.476-0.133v-0.591c0-1.198-0.286-1.997-2.036-1.846c-1.96,0.172-2.493,2.055-3.14,1.313
		l-0.171-0.399c-0.457-0.229,1.75-2.17,3.349-2.17c1.427,0,3.083,1.143,3.178,3.539l0.228,4.682
		c0.019,0.267,0.171,2.377-0.209,2.396L111.414,189.326z M105.972,188.717c0.114-0.266,0.152,0.609,0.152-0.228l-0.229-0.076
		C105.629,189.174,105.972,188.717,105.972,188.717z M110.976,183.371c0.133-0.952-4.852,1.294-4.852,3.178
		c0,0.875,1.065,1.75,1.96,1.75c1.18,0,3.14-1.16,2.987-1.712l-0.114-3.083L110.976,183.371z M106.771,180.536
		c0.685,0.019,1.484-0.476,1.142-0.914C107.571,179.184,106.219,180.518,106.771,180.536z M111.224,182.361
		c0,0-0.419,1.637-0.19,1.979C111.318,184.76,111.071,182.286,111.224,182.361z M111.414,188.413c0,0-0.209,0.114,0,0.457
		C112.118,190.049,111.261,188.337,111.414,188.413z"/>
	<path fill="#416B6D" d="M116.136,189.23c-0.285,0.039-0.304,0.134-0.837,0.115c0,0-0.571,0.019-0.38-0.951
		c0.399-2.037,0-7.193-0.038-9.076c0-0.438,0.895-0.42,0.895-0.42l0.533,0.19l0.057,2.074l0.019,0.058
		c0.438,0.209,1.674-2.664,2.969-2.474c0,0,0.342-0.019,0.494,0.076c0.285,0.19,0.02,0.514,0.039,0.933
		c0.133,0.457-0.875,0.361-1.313,0.646c-0.951,0.609-1.579,1.656-2.169,3.045c0,0-0.152,3.102-0.114,4.072
		c0,0.133-0.019,0.514,0.057,0.666c0.076,0.17,0.133,0.113,0.152,0.285c0.038,0.247-0.019,0.305-0.019,0.418
		C116.479,189.098,116.308,189.212,116.136,189.23z M115.185,187.614c0,0-0.476,1.465,0.057,1.465
		C115.432,189.079,115.432,187.652,115.185,187.614z M117.031,179.527c-0.038-0.418-0.799,0.057-1.066-0.248
		c-0.361-0.418,0.343-0.875,0.286-1.445c-0.057-0.533-0.324-0.837-0.59-1.275c-0.343-0.57,0.552,0.609,0.571,1.352
		c0.019,0.57-0.59,0.951-0.267,1.369c0.248,0.324,1.047-0.151,1.066,0.267c0,0.152-0.171,0.419-0.114,0.399
		C116.917,179.945,117.031,179.698,117.031,179.527z M116.174,188.279c0,0-0.152,0.343,0.209,0.496
		C116.574,188.852,116.27,188.014,116.174,188.279z M117.64,182.419c0,0-0.495,0.362,0.038,0.362
		C117.868,182.781,117.887,182.457,117.64,182.419z"/>
	<path fill="#416B6D" d="M122.855,176.141c0,0-0.324,0.322-0.571,0.322c-0.134,0-0.343-0.133-0.343-0.133s-0.477-0.38-0.515-0.723
		c-0.057-0.381,0.324-0.914,0.324-0.914s0.285-0.114,0.438-0.133c0.285-0.039,0.761,0.037,0.761,0.037s0.095,0.438,0.095,0.723
		C123.046,175.646,122.855,176.141,122.855,176.141z M123.046,189.402h-1.483c0,0,0.229-5.957-0.039-9.896
		c-0.019-0.209,0.039-0.608,0.039-0.608s0.608-0.114,0.914,0.037c0.113,0.058,0.285,0.248,0.285,0.248s0.189,0.133,0.094,1.655
		C122.665,183.884,123.046,189.402,123.046,189.402z"/>
	<path fill="#416B6D" d="M131.419,189.326l-0.342-1.256c-1.084,0.305-1.808,1.637-3.044,1.637c-1.618,0-2.911-1.352-2.911-3.007
		c0-3.007,3.157-3.653,5.479-4.281l0.477-0.133v-0.591c0-1.198-0.286-1.997-2.036-1.846c-1.96,0.172-2.493,2.055-3.14,1.313
		l-0.172-0.399c-0.457-0.229,1.75-2.17,3.35-2.17c1.427,0,3.083,1.143,3.178,3.539l0.229,4.682c0.019,0.267,0.171,2.377-0.209,2.396
		L131.419,189.326z M125.977,188.717c0.114-0.266,0.152,0.609,0.152-0.228l-0.229-0.076
		C125.635,189.174,125.977,188.717,125.977,188.717z M130.98,183.371c0.133-0.952-4.852,1.294-4.852,3.178
		c0,0.875,1.064,1.75,1.96,1.75c1.181,0,3.14-1.16,2.987-1.712l-0.114-3.083L130.98,183.371z M126.775,180.536
		c0.686,0.019,1.484-0.476,1.143-0.914C127.575,179.186,126.225,180.518,126.775,180.536z M131.229,182.361
		c0,0-0.418,1.637-0.189,1.979C131.324,184.76,131.077,182.286,131.229,182.361z M131.419,188.413c0,0-0.209,0.114,0,0.457
		C132.123,190.049,131.268,188.337,131.419,188.413z"/>
	<path fill="#416B6D" d="M136.18,189.021c0,0-0.171,0.553-0.438,0.571c-0.305,0.019-0.571-0.571-0.571-0.571l-0.286-10.312
		c0,0,0.895-0.209,1.143,0.133c0.113,0.172,0.152,0.533,0.152,0.533l0.189,0.609c0.875-0.705,1.693-1.39,2.892-1.39
		c1.484,0,2.835,0.818,2.683,3.558c0,0,0.572,4.168-0.399,6.488c-0.076,0.209-0.267,0.571-0.267,0.571l-0.627,0.095
		c0,0-0.438,0.114-0.381-0.285c0.094-0.836,0.532-2.815,0.514-3.9c-0.02-0.932-0.229-2.396-0.229-2.396
		c-0.095-1.065,0-2.322-1.484-2.912c-1.674-0.666-2.111,0.895-2.701,1.599L136.18,189.021z"/>
	<path fill="#416B6D" d="M145.562,176.141c0,0-0.323,0.322-0.57,0.322c-0.133,0-0.344-0.133-0.344-0.133s-0.476-0.38-0.514-0.723
		c-0.057-0.381,0.324-0.914,0.324-0.914s0.285-0.114,0.438-0.133c0.287-0.039,0.762,0.037,0.762,0.037s0.095,0.438,0.095,0.723
		C145.754,175.646,145.562,176.141,145.562,176.141z M145.754,189.402h-1.484c0,0,0.229-5.957-0.037-9.896
		c-0.02-0.209,0.037-0.608,0.037-0.608s0.609-0.114,0.914,0.037c0.114,0.058,0.285,0.248,0.285,0.248s0.19,0.133,0.096,1.655
		C145.373,183.884,145.754,189.402,145.754,189.402z"/>
	<path fill="#416B6D" d="M151.006,186.016c0.02,0.058-0.247-0.095-0.398-0.095c-0.418,0.058,0.133,0.818-0.172,1.084
		c-0.398,0.361-0.817-0.209-1.389-0.133c-0.742,0.076-1.846,1.065-1.294,0.685c0.399-0.304,0.685-0.59,1.218-0.703
		c0.553-0.096,1.065,0.552,1.465,0.151c0.268-0.286-0.266-1.008,0.152-1.065C150.759,185.92,151.006,186.016,151.006,186.016z
		 M154.68,180.954c0.475-0.343-1.731-2.358-3.197-2.358c-1.731,0-2.834,1.94-2.834,3.748c0,3.768,5.347,1.18,5.347,3.824
		c0,1.199-0.856,2.816-1.94,2.816c-1.256,0-2.893-2.284-3.272-1.885l-0.609,0.02c-0.286,0.666,1.884,2.588,3.577,2.588
		c1.979,0,3.634-1.751,3.634-3.807c0-3.539-6.108-1.236-6.108-3.806c0-1.636,1.295-2.245,2.265-2.245c0.933,0,1.827,0.59,2.36,1.219
		c0.113,0.133,0.666,0.418,0.723-0.02L154.68,180.954z"/>
	<path fill="#416B6D" d="M162.979,188.736c0,0,0.02-2.74,0.039-4.473c0-0.837,0.057-2.207,0.057-2.207
		c0.057-1.922,0-2.244-1.579-2.244c-1.274,0.037-2.036,0.703-2.797,1.389c0,0-0.209,2.816-0.248,4.586
		c-0.038,1.352-0.038,3.52-0.038,3.52l-1.104,0.096c0,0,0.019-4.682,0-5.043c-0.287-3.367-0.096-4.451,0.094-5.403
		c0.134-0.647,0.572-0.247,0.572-0.247l0.438,0.477l0.286,0.646c0.913-0.742,1.692-1.236,2.911-1.236
		c1.123,0,1.979,0.475,2.531,1.426c0.969-0.779,1.902-1.407,3.215-1.426c1.483,0,2.492,0.723,2.492,3.463c0,0,0,2.416,0.02,3.92
		c0,1.312,0.076,3.424,0.076,3.424c-0.533,0-1.161-0.037-1.313,0c-0.495,0.152,0.019-6.773,0.019-6.773
		c0.02-3.577,0.19-3.197-1.389-3.197c-1.085-0.019-2.265,1.104-2.893,1.771c0,0-0.152,6.755-0.209,7.821
		C164.12,189.611,162.979,188.736,162.979,188.736z M158.83,178.652c-0.038,0.037,0.381,0.685,0.095,0.095
		C158.412,177.682,158.868,178.614,158.83,178.652z M167.012,190.925c-0.248,0.171,0.762,1.255,0.477,0.666
		C166.975,190.525,167.26,190.753,167.012,190.925z"/>
</g>
<g>
	<path fill="#F2F7B5" stroke="#492D08" stroke-width="0.75" stroke-linecap="round" stroke-miterlimit="10" d="M124.283,129.543
		l-22.001,6.518c0,0-3.373-13.289-8.595-19.848c-5.221-6.557-12.916-16.222-12.916-16.222l4.427-3.672l8.697,6.766
		c0,0,2.997,1.71-1.195-4.498c-4.193-6.209-8.185-7.767-8.185-7.767l7.652-5.042l7.45,12.571l-1.14-13.573l4.627,0.78l2.488,10.959
		l2.466-11.098l1.541,0.085c0,0,4.408,18.122,7.896,26.921C120.984,121.223,124.283,129.543,124.283,129.543z"/>
	
		<path fill="none" stroke="#492D08" stroke-width="0.75" stroke-linecap="round" stroke-miterlimit="10" stroke-dasharray="2.2631" d="
		M121.798,128.864l-17.918,5.308c0,0-2.747-10.822-6.999-16.164c-4.251-5.34-13.888-17.517-13.888-17.517l2.613-1.809l8.749,7.044
		c0,0,4.793-0.126,1.377-5.182c-3.414-5.055-7.584-10.188-7.584-10.188l3.669-2.495l9.894,15.601l-1.856-16.67l1.953-0.083
		l3.531,15.294l2.973-9.706l0.791-2.738c0,0,4.329,18.199,7.169,25.364C119.111,122.087,121.798,128.864,121.798,128.864z"/>
	<path fill="#77B65F" stroke="#492D08" stroke-width="0.75" stroke-linecap="round" stroke-miterlimit="10" d="M90.514,87.749
		c0,0,33.907,4.863,29.427-16.003c-4.479-20.866-18.49-16.065-18.49-16.065s-6.274-13.331-17.437-8.998
		c-11.163,4.332-9.989,11.095-9.989,11.095s-8.719-4.5-15.399,2.657c-6.681,7.155-2.242,14.51-2.242,14.51
		s-14.376,17.759,6.431,31.066C83.623,119.316,90.514,87.749,90.514,87.749z"/>
	<path fill="none" stroke="#492D08" stroke-width="0.75" stroke-linecap="round" stroke-miterlimit="10" d="M56.228,81.532
		c-2.5,20.865,18.909,27.354,21.889,19.859"/>
	<path fill="none" stroke="#492D08" stroke-width="0.75" stroke-linecap="round" stroke-miterlimit="10" d="M102.583,59.454
		c21.323,8.127,9.973,22.511,10.206,22.41"/>
	<path fill="none" stroke="#492D08" stroke-width="0.75" stroke-linecap="round" stroke-miterlimit="10" d="M79.641,56.85
		c-1.43-1.158,8.56-13.603,16.096-2.205"/>
	<path fill="none" stroke="#492D08" stroke-width="0.75" stroke-linecap="round" stroke-miterlimit="10" d="M73.12,62.057
		c-3.188-3.76-18.219-1.54-13.089,10.305"/>
	<path fill="none" stroke="#492D08" stroke-width="0.75" stroke-linecap="round" stroke-miterlimit="10" d="M76.392,79.739
		c-1.979-4.569-7.287-6.669-11.855-4.691c-3.655,1.583-5.333,5.829-3.751,9.484c1.266,2.923,4.663,4.267,7.587,3.001
		c2.339-1.013,3.414-3.73,2.401-6.07c-0.811-1.871-2.984-2.73-4.855-1.92"/>
	<path fill="none" stroke="#492D08" stroke-width="0.75" stroke-linecap="round" stroke-miterlimit="10" d="M91.674,75.377
		c-1.979-4.569,0.122-9.876,4.69-11.854c3.655-1.583,7.9,0.096,9.482,3.752c1.266,2.923-0.078,6.32-3.002,7.586
		c-2.338,1.013-5.056-0.062-6.069-2.401c-0.81-1.871,0.05-4.045,1.92-4.855"/>
	<path fill="none" stroke="#492D08" stroke-width="0.75" stroke-linecap="round" stroke-miterlimit="10" d="M77.944,74.591
		c-2.49-1.74-3.096-5.168-1.356-7.657c1.392-1.991,4.135-2.477,6.126-1.085c1.593,1.114,1.981,3.308,0.867,4.901
		c-0.891,1.273-2.646,1.585-3.92,0.693c-1.019-0.713-1.269-2.118-0.555-3.136c0.57-0.816,1.693-1.015,2.509-0.444
		c0.652,0.456,0.812,1.354,0.355,2.007"/>
	<path fill="none" stroke="#492D08" stroke-width="0.75" stroke-linecap="round" stroke-miterlimit="10" d="M76.424,89.612
		c-0.434,3.005,1.652,5.793,4.657,6.227c2.405,0.347,4.635-1.321,4.982-3.725c0.277-1.923-1.057-3.708-2.981-3.986
		c-1.538-0.222-2.966,0.845-3.188,2.384c-0.178,1.231,0.677,2.374,1.907,2.551c0.985,0.142,1.898-0.541,2.04-1.526
		c0.114-0.788-0.433-1.518-1.221-1.632"/>
	<path fill="#F2F7B5" stroke="#492D08" stroke-width="0.75" stroke-linecap="round" stroke-miterlimit="10" d="M151.534,143.35
		l-28.31-3.433c0,0,2.717-16.821,0-26.878c-2.717-10.057-6.72-24.877-6.72-24.877l6.863-2.001l6.577,12.01
		c0,0,2.574,3.431,0.857-5.719c-1.716-9.151-5.496-12.897-5.496-12.897l11.215-1.972l2.287,18.015l5.403-16.042l4.892,3.175
		l-2.574,13.726l8.293-11.438l1.716,0.857c0,0-3.922,22.843-4.29,34.601C151.881,132.23,151.534,143.35,151.534,143.35z"/>
	
		<path fill="none" stroke="#492D08" stroke-width="0.75" stroke-linecap="round" stroke-miterlimit="10" stroke-dasharray="2.8124" d="
		M149.035,141.348l-23.055-2.795c0,0,2.211-13.699,0-21.889c-2.211-8.19-7.188-26.835-7.188-26.835l3.873-0.772l6.5,12.354
		c0,0,5.527,2.223,4.13-5.229c-1.397-7.452-3.619-15.363-3.619-15.363l5.417-1.035l3.579,22.677l6.116-19.927l2.268,0.87
		l-3.525,19.184l8.183-9.6l2.255-2.732c0,0-4.052,22.892-4.351,32.467C149.318,132.292,149.035,141.348,149.035,141.348z"/>
	<path fill="#73D100" stroke="#492D08" stroke-width="0.75" stroke-linecap="round" stroke-miterlimit="10" d="M133.662,79.011
		c0,0,36.266,22.29,41.462-3.718s-13.153-27.451-13.153-27.451s-0.572-18.301-15.44-18.872c-14.87-0.572-16.871,7.72-16.871,7.72
		s-7.722-9.436-18.873-4.575c-11.152,4.862-9.723,15.441-9.723,15.441S75.9,60.71,93.058,86.16
		C110.215,111.608,133.662,79.011,133.662,79.011z"/>
	<path fill="none" stroke="#492D08" stroke-width="0.75" stroke-linecap="round" stroke-miterlimit="10" d="M97.633,54.991
		c-13.154,22.561,8.056,40.531,15.155,33.456"/>
	<path fill="none" stroke="#492D08" stroke-width="0.75" stroke-linecap="round" stroke-miterlimit="10" d="M161.398,52.704
		c20.303,19.796,0.256,30.595,0.572,30.595"/>
	<path fill="none" stroke="#492D08" stroke-width="0.75" stroke-linecap="round" stroke-miterlimit="10" d="M136.521,38.407
		C135.463,36.379,153,27.12,155.966,43.84"/>
	<path fill="none" stroke="#492D08" stroke-width="0.75" stroke-linecap="round" stroke-miterlimit="10" d="M126.514,41.123
		c-1.779-5.862-20.017-10.751-20.017,5.29"/>
	<path fill="none" stroke="#492D08" stroke-width="0.75" stroke-linecap="round" stroke-miterlimit="10" d="M121.512,62.903
		c0-6.188-5.015-11.203-11.202-11.203c-4.949,0-8.962,4.012-8.962,8.961c0,3.959,3.21,7.169,7.17,7.169
		c3.167,0,5.735-2.568,5.735-5.736c0-2.534-2.054-4.588-4.588-4.588"/>
	<path fill="none" stroke="#492D08" stroke-width="0.75" stroke-linecap="round" stroke-miterlimit="10" d="M141.096,65.477
		c0-6.187,5.014-11.203,11.201-11.203c4.949,0,8.962,4.012,8.962,8.961c0,3.96-3.21,7.17-7.169,7.17
		c-3.167,0-5.736-2.567-5.736-5.736c0-2.533,2.056-4.588,4.588-4.588"/>
	<path fill="none" stroke="#492D08" stroke-width="0.75" stroke-linecap="round" stroke-miterlimit="10" d="M125.825,57.799
		c-1.979-3.213-0.979-7.422,2.235-9.401c2.57-1.583,5.938-0.782,7.521,1.789c1.267,2.057,0.625,4.75-1.431,6.017
		c-1.646,1.013-3.801,0.501-4.813-1.144c-0.812-1.316-0.401-3.042,0.915-3.851c1.053-0.649,2.432-0.321,3.081,0.732
		c0.519,0.842,0.255,1.946-0.586,2.465"/>
	<path fill="none" stroke="#492D08" stroke-width="0.75" stroke-linecap="round" stroke-miterlimit="10" d="M116.674,74.179
		c-1.979,3.213-0.978,7.422,2.235,9.401c2.569,1.583,5.938,0.782,7.521-1.788c1.268-2.057,0.627-4.75-1.431-6.018
		c-1.646-1.013-3.8-0.501-4.813,1.145c-0.811,1.315-0.4,3.041,0.916,3.85c1.051,0.649,2.432,0.321,3.08-0.732
		c0.52-0.842,0.256-1.945-0.586-2.464"/>
</g>
</svg>
