<?xml version="1.0" encoding="utf-8"?>
<!-- Generator: Adobe Illustrator 16.0.0, SVG Export Plug-In . SVG Version: 6.00 Build 0)  -->
<!DOCTYPE svg PUBLIC "-//W3C//DTD SVG 1.1//EN" "http://www.w3.org/Graphics/SVG/1.1/DTD/svg11.dtd">
<svg version="1.1" id="Layer_1" xmlns="http://www.w3.org/2000/svg" xmlns:xlink="http://www.w3.org/1999/xlink" x="0px" y="0px"
	 width="235px" height="226.5px" viewBox="0 0 235 226.5" enable-background="new 0 0 235 226.5" xml:space="preserve">
<circle fill="#C7E2E5" stroke="#416B6D" stroke-width="0.75" stroke-linecap="round" stroke-miterlimit="10" stroke-dasharray="5.5726" cx="117.318" cy="113.742" r="107.293"/>
<g>
	<g>
		<path fill="#E83658" stroke="#492D08" stroke-width="0.75" stroke-linecap="round" stroke-miterlimit="10" d="M117.197,58.925
			c0,0,29.657-23.567,50.969,6.834c17.006,24.257-15.184,76.829-31.682,78.95c-9.687,1.245-21.683-1.414-21.683-1.414
			s-11.541,6.439-19.796,1.65C63.322,126.562,45.045,63.638,82.752,51.83C106.42,44.418,117.197,58.925,117.197,58.925z"/>
		
			<path fill="none" stroke="#492D08" stroke-width="0.75" stroke-linecap="round" stroke-miterlimit="10" stroke-dasharray="3.3436" d="
			M117.618,62.497c0,0,27.868-21.723,47.896,6.3c15.979,22.36-14.27,70.816-29.771,72.771c-9.102,1.146-20.374-1.303-20.374-1.303
			s-10.845,5.935-18.603,1.52C66.992,124.841,49.816,66.841,85.25,55.957C107.49,49.125,117.618,62.497,117.618,62.497z"/>
		<path fill="none" stroke="#492D08" stroke-width="0.75" stroke-linecap="round" stroke-miterlimit="10" d="M117.197,58.925
			c1.38,60.567,8.446,64.573-2.158,83.664"/>
		
			<path fill="#F2F7B5" stroke="#492D08" stroke-width="0.75" stroke-linecap="round" stroke-miterlimit="10" stroke-dasharray="3.3436" d="
			M116.213,63.638c0,0,33.143,38.856,14.76,49.933c-7.861,4.738-15.273-0.938-15.273-0.938s-11.007,8.954-17.483-2.125
			C89.26,95.189,107.493,94.511,116.213,63.638z"/>
		<g>
			<path fill="#B5DC87" stroke="#492D08" stroke-width="0.75" stroke-linecap="round" stroke-miterlimit="10" d="M132.559,19.214
				c0,0-10.391,10.938-14.053,17.938c-3.662,6.998-2.029,18.112-2.029,18.112s11.951-3.013,17.556-11.75
				C139.637,34.776,132.559,19.214,132.559,19.214z"/>
			<path fill="#B5DC87" stroke="#492D08" stroke-width="0.75" stroke-linecap="round" stroke-miterlimit="10" d="M132.559,19.214
				c1.691,18.525-13.841,22.514-16.082,36.05"/>
			<path fill="#B5DC87" stroke="#492D08" stroke-width="0.75" stroke-linecap="round" stroke-miterlimit="10" d="M128.842,35.132
				c-0.053-0.329,3.219-1.136,7.317-1.804"/>
			
				<line fill="none" stroke="#492D08" stroke-width="0.75" stroke-linecap="round" stroke-miterlimit="10" x1="131.104" y1="31.033" x2="135.525" y2="30.314"/>
			<path fill="#B5DC87" stroke="#492D08" stroke-width="0.75" stroke-linecap="round" stroke-miterlimit="10" d="M119.131,48.167
				c-0.697-4.289-1.564-7.711-1.934-7.65"/>
			<path fill="#B5DC87" stroke="#492D08" stroke-width="0.75" stroke-linecap="round" stroke-miterlimit="10" d="M121.678,44.458
				c-0.789-4.846-1.883-8.694-2.445-8.603"/>
		</g>
		<path fill="#492D08" d="M122.369,85.527c0,0,13.318,17.676,3.607,20.739C116.992,109.101,122.369,85.527,122.369,85.527z"/>
		<path fill="#492D08" d="M117.574,84.746c0,0-21.748,15.487-11.693,22.544C115.185,113.818,117.574,84.746,117.574,84.746z"/>
	</g>
	<g>
		<path fill="#416B6D" d="M79.604,169.834c-0.305-1.105,0.229-10.845-0.381-14.58c-0.096-0.533,1.943-0.361,1.906,0.667
			c-0.115,3.336-0.458,10.006,0.381,12.483c0.267,0.781,3.659,0.134,6.117,0.189c0,0,0.172,0.4,0.172,0.667
			s-0.172,0.667-0.172,0.667C84.559,169.281,79.604,169.834,79.604,169.834z M82.711,154.055c1.371,0.094,2.572,0.305,2.705,0.896
			c0.134,0.553-0.037,0.991-0.323,1.485c-0.819,1.373-2.916-1.237-4.116-0.229c-0.306,0.248-0.877,0.495-0.687,0.857
			c0.134,0.248,0.819-0.076,0.781,0.229c0,0.096-0.076,0.21-0.134,0.248c-0.095,0.076,0.134-0.189,0.134-0.324
			c0-0.305-0.61,0.114-0.781-0.133c-0.229-0.344,0.343-0.591,0.647-0.857c1.182-1.049,3.202,1.602,4.098,0.285
			c0.324-0.494,0.534-0.934,0.42-1.523C85.227,153.9,80.348,153.882,82.711,154.055z"/>
		<path fill="#416B6D" d="M95.422,169.854l-0.344-1.259c-1.086,0.306-1.811,1.64-3.049,1.64c-1.619,0-2.916-1.354-2.916-3.012
			c0-3.011,3.164-3.658,5.488-4.287l0.477-0.135v-0.591c0-1.2-0.285-2.001-2.039-1.849c-1.963,0.172-2.496,2.059-3.145,1.314
			l-0.172-0.4c-0.457-0.229,1.754-2.172,3.355-2.172c1.429,0,3.087,1.144,3.182,3.545l0.229,4.688c0.019,0.268,0.171,2.383-0.21,2.4
			L95.422,169.854z M89.971,169.243c0.115-0.269,0.152,0.608,0.152-0.229l-0.229-0.076C89.628,169.7,89.971,169.243,89.971,169.243z
			 M94.983,163.889c0.134-0.953-4.86,1.295-4.86,3.182c0,0.878,1.068,1.754,1.963,1.754c1.182,0,3.146-1.162,2.992-1.715
			l-0.113-3.088L94.983,163.889z M90.771,161.048c0.686,0.019,1.486-0.478,1.144-0.915S90.219,161.027,90.771,161.048z
			 M95.231,162.877c0,0-0.419,1.641-0.19,1.982C95.326,165.277,95.078,162.801,95.231,162.877z M95.422,168.938
			c0,0-0.21,0.115,0,0.459C96.127,170.577,95.27,168.861,95.422,168.938z"/>
		<path fill="#416B6D" d="M96.984,159.257c-0.153,0.019-0.229-0.362-0.076-0.382C97.061,158.855,97.137,159.236,96.984,159.257z
			 M106.132,161.887c0.763,0.209-1.563-2.783-3.298-2.783c-2.344,0-4.211,1.621-4.211,5.565c0,3.945,1.867,5.565,4.211,5.565
			c1.697,0,4.308-2.611,3.393-2.879l-0.133-0.306c-0.344-0.419-1.602,2.325-2.878,2.384c-2.287,0-3.221-2.937-3.526-5.261
			c-0.229-1.772,0.858-3.812,3.145-3.812c1.182-0.038,1.85,2.059,2.402,1.887L106.132,161.887z M102.053,169.586
			c-0.229-0.343,0-0.457,0-0.457C104.721,169.93,102.34,170.005,102.053,169.586z M102.815,166.155
			c-0.019,0.096,0.019,0.21,0.076,0.267c0.134,0.135,0.4-0.495,0.19-0.495C102.949,165.927,102.834,166.021,102.815,166.155z
			 M104.988,161.925c-0.229-0.344,0-0.458,0-0.458C104.836,161.391,105.273,162.344,104.988,161.925z"/>
		<path fill="#416B6D" d="M107.865,159.447c0.286-0.383,1.258-0.038,1.258-0.038l0.076-3.146c0,0,0.096-0.344,0.229-0.438
			c0.306-0.229,0.992,0.322,0.992,0.322s0.152,0.877,0.037,1.889c-0.057,0.57,0.152,1.372,0.152,1.372s2.116-0.687,2.363,0.19
			c0.039,0.133,0.058,0.381,0.058,0.381l-0.343,0.609l-2.078,0.076c0,0,0,0.457,0,0.762c0,0.172-0.266,0.4-0.266,0.592
			c0,0.133,0.266,0.877,0.266,1.011c0,2.19,0,4.25,0,4.25c0,1.028-0.113,2.973,0.82,2.153c0.305-0.268,1.162-1.679,1.448-1.011
			l0.267,0.209c0.629,0.4-1.124,1.603-1.639,1.603c-2.516,0-2.383-1.696-2.383-3.621v-5.946l-1.029-0.038
			C108.094,160.629,107.58,159.828,107.865,159.447z"/>
		<path fill="#416B6D" d="M114.021,164.669c0-3.944,1.867-5.565,4.211-5.565c2.345,0,3.927,1.906,3.927,5.853
			c0,3.944-1.582,5.278-3.927,5.278c-1.258,0-2.363-0.457-3.125-1.486c-0.133-0.171-0.096-0.516-0.209-0.725
			c-0.21-0.381-0.534-0.666-0.648-1.182C114.098,166.213,114.021,165.488,114.021,164.669z M115.146,167.718
			c-0.267,0.077-0.019,1.05,0.095,0.782c0.039-0.096,0.077-0.191,0.077-0.307C115.317,168.004,115.222,167.852,115.146,167.718z
			 M120.863,164.669c0.267-1.772-0.152-4.783-2.439-4.783c-2.287,0-2.916,2.991-2.916,4.783c0,1.791,0.629,5.165,2.916,5.165
			C120.711,169.834,120.195,169.033,120.863,164.669z"/>
		<path fill="#416B6D" d="M121.225,167.165c0.076-0.306,0.285-0.476,0.381-0.763c0.076-0.247,0.076-0.438,0.19-0.666
			c0.153-0.324-0.134,0.591-0.19,0.953L121.225,167.165z M122.939,164.098c0,0,0.361-0.361,0.953-0.344
			c1.409,0.038-0.287,0.096,1.619-0.02c1.354-0.075,2.286,0.268,2.286,0.268l0.191,0.667c0,0-0.63,0.419-1.05,0.399
			c-2.571-0.172-1.963,0.076-3.43,0.076c-0.42,0-0.572-0.285-0.572-0.285v-0.762H122.939z M126.465,164.688
			c-0.095-0.246-0.762,0.039-0.666,0.287S126.561,164.936,126.465,164.688z"/>
		<path fill="#416B6D" d="M128.104,164.669c0-3.944,1.869-5.565,4.213-5.565c2.345,0,3.927,1.906,3.927,5.853
			c0,3.944-1.582,5.278-3.927,5.278c-1.258,0-2.362-0.457-3.125-1.486c-0.135-0.171-0.096-0.516-0.211-0.725
			c-0.209-0.381-0.533-0.666-0.646-1.182C128.182,166.213,128.104,165.488,128.104,164.669z M129.229,167.718
			c-0.267,0.077-0.02,1.05,0.097,0.782c0.038-0.096,0.075-0.191,0.075-0.307C129.4,168.004,129.305,167.852,129.229,167.718z
			 M134.945,164.669c0.268-1.772-0.152-4.783-2.438-4.783s-2.916,2.991-2.916,4.783c0,1.791,0.63,5.165,2.916,5.165
			S134.279,169.033,134.945,164.669z"/>
		<path fill="#416B6D" d="M143.979,160.495c0.191-0.781,1.201-0.134,1.201-0.134s-0.399,3.145-1.506,5.66
			c-0.686,1.562-0.553,0.744-1.314,2.648c0,0-0.02,1.62-1.145,1.029c0,0-3.678-8.614-3.162-9.473
			c0.381-0.629,1.143-0.572,0.99,0.039c0,0,0.189-0.4,0.268,0.133c0.457,3.222,1.695,6.688,2.097,7.795
			C142.188,170.367,141.997,168.768,143.979,160.495z"/>
		<path fill="#416B6D" d="M146.779,164.669c0-3.944,1.869-5.565,4.213-5.565s3.926,1.906,3.926,5.853
			c0,3.944-1.582,5.278-3.926,5.278c-1.258,0-2.363-0.457-3.125-1.486c-0.135-0.171-0.096-0.516-0.21-0.725
			c-0.21-0.381-0.534-0.666-0.647-1.182C146.857,166.213,146.779,165.488,146.779,164.669z M147.904,167.718
			c-0.266,0.077-0.02,1.05,0.096,0.782c0.038-0.096,0.076-0.191,0.076-0.307C148.076,168.004,147.98,167.852,147.904,167.718z
			 M153.623,164.669c0.266-1.772-0.152-4.783-2.439-4.783s-2.916,2.991-2.916,4.783c0,1.791,0.629,5.165,2.916,5.165
			S152.955,169.033,153.623,164.669z"/>
		<path fill="#416B6D" d="M68.208,183.364c0.19-0.781,1.2-0.134,1.2-0.134s-0.4,3.145-1.506,5.66
			c-0.686,1.562-0.553,0.743-1.314,2.648c0,0-0.02,1.62-1.144,1.029c0,0-3.679-8.614-3.163-9.473
			c0.381-0.629,1.143-0.572,0.99,0.038c0,0,0.191-0.399,0.268,0.134c0.457,3.221,1.695,6.688,2.096,7.795
			C66.416,193.236,66.227,191.636,68.208,183.364z"/>
		<path fill="#416B6D" d="M64.682,191.159c0,0.114-0.038,0.21-0.076,0.305c-0.114,0.267-0.362-0.705-0.096-0.78
			C64.586,190.816,64.682,190.969,64.682,191.159z M73.754,187.805c0.895-0.57,4.897-0.248,4.897-0.248
			c0.305-0.057,0.324-1.086-0.019-2.306c-0.058-0.172-0.134-0.953-0.21-1.104c-0.153-0.287-0.19-0.058-0.343-0.344
			c-0.286-0.553-0.534-1.048-1.049-1.104c-0.152-0.021-0.267-0.478-0.343-0.515c-0.458-0.248-0.858-0.211-1.468-0.211
			c-0.762,0-1.562,0.248-2.135,0.516c-0.457,0.21-0.267,0.21-0.343,0.324c-0.687,1.047-1.544,2.268-1.734,4.727
			c-0.038,0.553-0.114,1.086,0,1.523c0.782,2.803,2.192,4.041,4.212,4.041c1.811,0,3.641-2.648,2.992-2.631l-0.114-0.246
			c-0.495-0.152-2.534,2.344-2.992,2.152c-0.419-0.172-1.887-0.495-2.744-1.582c-0.172-0.21-0.058-0.229-0.267-0.457
			c-0.572-0.591,0.133-0.99,0.133-2.516C72.229,187.824,73.258,188.109,73.754,187.805z M76.078,186.661
			c-1.372,0.248-3.621,0.399-3.621,0.399c-0.514,0.021-0.229-2.61,1.163-3.41c0.438-0.248,1.144-0.764,1.868-0.61
			c0.59,0.134,1.619,0.458,1.811,1.183c0.057,0.209,0.266,0.075,0.229,0.59c-0.076,0.953,0.248,1.869,0,1.944
			C77.527,186.757,76.517,186.585,76.078,186.661z M77.564,187.271c-0.229-0.345,0.076-0.84,0.076-0.84
			C77.488,186.355,77.852,187.689,77.564,187.271z"/>
		<path fill="#416B6D" d="M89.818,183.136l-0.553,0.19c-0.266,0.076-0.647-0.19-1.028,0.02c-0.306,0.02,0.419,1.506,0.419,2.286
			c0,2.04-1.506,3.621-3.545,3.621c-0.609,0-1.715-0.171-2.268-0.381c-0.21-0.362-1.296,0.61-1.296,1.124
			c0,1.335,7.985-0.285,7.985,3.697c0,0.781-0.305,3.201-4.518,3.201c-3.43,0-4.439-1.791-4.439-3.086
			c0-1.088,0.953-1.679,1.829-2.06c0.058-0.306-1.315-0.705-1.315-1.468c0-0.934,1.239-1.62,1.201-1.981
			c-0.762-0.896-1.049-1.468-1.049-2.707c0-2.134,1.602-3.62,3.717-3.62c0.839,0,1.602,0.247,2.287,0.742
			c0.686-0.514,1.486-0.896,2.383-0.8L89.818,183.136z M82.576,192.741c0.268-0.572-1.505,1.562-0.686,1.543
			c0.648-0.019,0.21-0.495,0.344-0.8C82.348,193.218,82.463,193.008,82.576,192.741z M83.93,191.922
			c-0.801,0.152-1.925,0.857-1.925,1.811c0,1.449,2.363,2.555,3.374,2.555c1.066,0,2.725-1.239,2.725-2.688
			c0-1.105-1.811-2.174-2.496-2.039L83.93,191.922z M84.997,182.755c-1.429,0-2.668,1.543-2.668,2.896
			c0,1.314,1.22,2.765,2.592,2.765c1.524,0,2.363-1.334,2.363-2.783C87.284,184.26,86.484,182.755,84.997,182.755z M86.408,198.572
			c-0.229,0.134,0.152,0.648,0.342,0.572C87.132,199.011,86.637,198.439,86.408,198.572z"/>
		<path fill="#416B6D" d="M84.978,191.159c0,0.114-0.038,0.21-0.076,0.305c-0.114,0.267-0.362-0.705-0.095-0.78
			C84.883,190.816,84.978,190.969,84.978,191.159z M94.049,187.805c0.896-0.57,4.898-0.248,4.898-0.248
			c0.305-0.057,0.324-1.086-0.02-2.306c-0.057-0.172-0.133-0.953-0.209-1.104c-0.152-0.287-0.191-0.058-0.344-0.344
			c-0.285-0.553-0.533-1.048-1.048-1.104c-0.152-0.021-0.267-0.478-0.343-0.515c-0.457-0.248-0.857-0.211-1.468-0.211
			c-0.763,0-1.562,0.248-2.134,0.516c-0.458,0.21-0.268,0.21-0.344,0.324c-0.686,1.047-1.543,2.268-1.734,4.727
			c-0.038,0.553-0.114,1.086,0,1.523c0.781,2.803,2.191,4.041,4.212,4.041c1.811,0,3.64-2.648,2.992-2.631l-0.114-0.246
			c-0.496-0.152-2.535,2.344-2.992,2.152c-0.42-0.172-1.887-0.495-2.744-1.582c-0.172-0.21-0.057-0.229-0.268-0.457
			c-0.571-0.591,0.134-0.99,0.134-2.516C92.524,187.824,93.554,188.109,94.049,187.805z M96.375,186.661
			c-1.373,0.248-3.621,0.399-3.621,0.399c-0.516,0.021-0.229-2.61,1.162-3.41c0.438-0.248,1.144-0.764,1.867-0.61
			c0.592,0.134,1.62,0.458,1.811,1.183c0.058,0.209,0.268,0.075,0.229,0.59c-0.076,0.953,0.248,1.869,0,1.944
			C97.822,186.757,96.812,186.585,96.375,186.661z M97.861,187.271c-0.229-0.345,0.076-0.84,0.076-0.84
			C97.785,186.355,98.146,187.689,97.861,187.271z"/>
		<path fill="#416B6D" d="M100.682,182.316c0.285-0.383,1.258-0.039,1.258-0.039l0.076-3.145c0,0,0.095-0.344,0.229-0.438
			c0.305-0.229,0.99,0.322,0.99,0.322s0.152,0.877,0.039,1.889c-0.058,0.57,0.152,1.371,0.152,1.371s2.115-0.687,2.363,0.19
			c0.037,0.134,0.057,0.382,0.057,0.382l-0.343,0.609l-2.077,0.076c0,0,0,0.457,0,0.762c0,0.172-0.268,0.4-0.268,0.592
			c0,0.133,0.268,0.877,0.268,1.01c0,2.191,0,4.25,0,4.25c0,1.028-0.115,2.974,0.819,2.153c0.305-0.267,1.163-1.678,1.448-1.01
			l0.267,0.209c0.629,0.399-1.124,1.603-1.639,1.603c-2.516,0-2.382-1.696-2.382-3.621v-5.946l-1.029-0.038
			C100.91,183.498,100.395,182.697,100.682,182.316z"/>
		<path fill="#416B6D" d="M113.164,192.723l-0.344-1.259c-1.086,0.306-1.811,1.64-3.049,1.64c-1.619,0-2.916-1.354-2.916-3.012
			c0-3.011,3.164-3.658,5.488-4.287l0.477-0.135v-0.591c0-1.2-0.285-2.001-2.039-1.849c-1.963,0.172-2.496,2.059-3.145,1.314
			l-0.172-0.4c-0.457-0.229,1.754-2.172,3.355-2.172c1.429,0,3.087,1.144,3.182,3.545l0.229,4.688c0.019,0.268,0.171,2.383-0.21,2.4
			L113.164,192.723z M107.713,192.111c0.115-0.268,0.152,0.609,0.152-0.229l-0.229-0.076
			C107.37,192.568,107.713,192.111,107.713,192.111z M112.726,186.757c0.134-0.952-4.86,1.296-4.86,3.183
			c0,0.877,1.068,1.754,1.963,1.754c1.182,0,3.146-1.162,2.992-1.715l-0.113-3.088L112.726,186.757z M108.514,183.917
			c0.686,0.019,1.486-0.478,1.144-0.915C109.316,182.564,107.961,183.896,108.514,183.917z M112.974,185.746
			c0,0-0.419,1.64-0.19,1.982C113.068,188.146,112.82,185.67,112.974,185.746z M113.164,191.807c0,0-0.21,0.115,0,0.459
			C113.869,193.445,113.012,191.73,113.164,191.807z"/>
		<path fill="#416B6D" d="M117.89,192.627c-0.286,0.038-0.306,0.133-0.839,0.114c0,0-0.571,0.019-0.381-0.953
			c0.4-2.039,0-7.204-0.038-9.091c0-0.438,0.896-0.42,0.896-0.42l0.533,0.19l0.059,2.077l0.02,0.059
			c0.438,0.209,1.678-2.67,2.973-2.479c0,0,0.344-0.02,0.496,0.076c0.285,0.189,0.02,0.514,0.039,0.934
			c0.133,0.457-0.877,0.362-1.315,0.647c-0.953,0.61-1.582,1.657-2.173,3.05c0,0-0.152,3.105-0.114,4.078
			c0,0.134-0.019,0.515,0.058,0.667c0.076,0.172,0.133,0.114,0.152,0.286c0.038,0.248-0.02,0.305-0.02,0.419
			C118.232,192.493,118.061,192.607,117.89,192.627z M116.937,191.007c0,0-0.476,1.468,0.058,1.468
			C117.185,192.475,117.185,191.045,116.937,191.007z M118.785,182.907c-0.038-0.421-0.801,0.057-1.066-0.248
			c-0.363-0.419,0.342-0.877,0.285-1.448c-0.057-0.534-0.324-0.839-0.591-1.277c-0.343-0.57,0.553,0.61,0.571,1.354
			c0.02,0.571-0.59,0.953-0.266,1.372c0.247,0.324,1.048-0.152,1.066,0.267c0,0.152-0.173,0.421-0.114,0.4
			C118.671,183.326,118.785,183.078,118.785,182.907z M117.928,191.674c0,0-0.152,0.344,0.208,0.495
			C118.328,192.245,118.023,191.407,117.928,191.674z M119.395,185.805c0,0-0.494,0.361,0.039,0.361
			C119.624,186.166,119.643,185.842,119.395,185.805z"/>
		<path fill="#416B6D" d="M124.617,179.516c0,0-0.324,0.323-0.572,0.323c-0.133,0-0.342-0.134-0.342-0.134s-0.477-0.381-0.516-0.725
			c-0.058-0.381,0.323-0.914,0.323-0.914s0.286-0.114,0.438-0.135c0.285-0.037,0.763,0.038,0.763,0.038s0.095,0.438,0.095,0.726
			C124.809,179.02,124.617,179.516,124.617,179.516z M124.809,192.798h-1.486c0,0,0.229-5.965-0.038-9.909
			c-0.021-0.211,0.038-0.609,0.038-0.609s0.609-0.114,0.914,0.037c0.115,0.058,0.285,0.248,0.285,0.248s0.191,0.134,0.097,1.658
			C124.427,187.271,124.809,192.798,124.809,192.798z"/>
		<path fill="#416B6D" d="M133.193,192.723l-0.344-1.259c-1.086,0.306-1.812,1.64-3.05,1.64c-1.618,0-2.916-1.354-2.916-3.012
			c0-3.011,3.164-3.658,5.488-4.287l0.478-0.135v-0.591c0-1.2-0.285-2.001-2.039-1.849c-1.963,0.172-2.496,2.059-3.146,1.314
			l-0.172-0.4c-0.457-0.229,1.754-2.172,3.354-2.172c1.43,0,3.088,1.144,3.183,3.545l0.229,4.688c0.019,0.268,0.171,2.383-0.21,2.4
			L133.193,192.723z M127.742,192.111c0.115-0.268,0.152,0.609,0.152-0.229l-0.229-0.076
			C127.398,192.568,127.742,192.111,127.742,192.111z M132.755,186.757c0.134-0.952-4.86,1.296-4.86,3.183
			c0,0.877,1.068,1.754,1.963,1.754c1.183,0,3.146-1.162,2.992-1.715l-0.113-3.088L132.755,186.757z M128.543,183.917
			c0.686,0.019,1.486-0.478,1.145-0.915S127.99,183.896,128.543,183.917z M133.003,185.746c0,0-0.419,1.64-0.19,1.982
			C133.098,188.146,132.85,185.67,133.003,185.746z M133.193,191.807c0,0-0.211,0.115,0,0.459
			C133.898,193.445,133.041,191.73,133.193,191.807z"/>
		<path fill="#416B6D" d="M137.957,192.417c0,0-0.172,0.554-0.438,0.571c-0.306,0.02-0.571-0.571-0.571-0.571l-0.286-10.33
			c0,0,0.896-0.209,1.145,0.134c0.113,0.172,0.151,0.534,0.151,0.534l0.19,0.609c0.877-0.705,1.695-1.392,2.896-1.392
			c1.486,0,2.84,0.819,2.688,3.563c0,0,0.57,4.174-0.399,6.499c-0.076,0.209-0.269,0.57-0.269,0.57l-0.629,0.097
			c0,0-0.438,0.114-0.381-0.286c0.096-0.839,0.533-2.82,0.516-3.907c-0.02-0.934-0.229-2.401-0.229-2.401
			c-0.095-1.066,0-2.324-1.485-2.916c-1.678-0.666-2.115,0.896-2.707,1.603L137.957,192.417z"/>
		<path fill="#416B6D" d="M147.354,179.516c0,0-0.324,0.323-0.571,0.323c-0.134,0-0.345-0.134-0.345-0.134s-0.477-0.381-0.514-0.725
			c-0.058-0.381,0.323-0.914,0.323-0.914s0.286-0.114,0.438-0.135c0.285-0.037,0.762,0.038,0.762,0.038s0.096,0.438,0.096,0.726
			C147.543,179.02,147.354,179.516,147.354,179.516z M147.543,192.798h-1.486c0,0,0.229-5.965-0.037-9.909
			c-0.02-0.211,0.037-0.609,0.037-0.609s0.609-0.114,0.914,0.037c0.115,0.058,0.287,0.248,0.287,0.248s0.189,0.134,0.096,1.658
			C147.162,187.271,147.543,192.798,147.543,192.798z"/>
		<path fill="#416B6D" d="M152.803,189.404c0.021,0.059-0.248-0.094-0.4-0.094c-0.418,0.057,0.135,0.818-0.17,1.086
			c-0.4,0.361-0.819-0.209-1.393-0.133c-0.742,0.075-1.849,1.066-1.296,0.686c0.399-0.305,0.687-0.592,1.22-0.705
			c0.553-0.096,1.067,0.553,1.469,0.152c0.267-0.285-0.268-1.011,0.151-1.067C152.555,189.311,152.803,189.404,152.803,189.404z
			 M156.48,184.336c0.478-0.343-1.733-2.363-3.201-2.363c-1.734,0-2.84,1.944-2.84,3.756c0,3.772,5.354,1.182,5.354,3.83
			c0,1.2-0.856,2.82-1.942,2.82c-1.259,0-2.896-2.287-3.278-1.887l-0.61,0.019c-0.285,0.667,1.887,2.593,3.584,2.593
			c1.98,0,3.641-1.754,3.641-3.812c0-3.545-6.119-1.237-6.119-3.812c0-1.64,1.298-2.25,2.27-2.25c0.934,0,1.829,0.592,2.362,1.221
			c0.114,0.134,0.668,0.42,0.725-0.02L156.48,184.336z"/>
		<path fill="#416B6D" d="M164.79,192.131c0,0,0.019-2.744,0.038-4.479c0-0.84,0.058-2.211,0.058-2.211
			c0.058-1.926,0-2.25-1.581-2.25c-1.277,0.039-2.039,0.705-2.803,1.393c0,0-0.209,2.82-0.248,4.593
			c-0.037,1.354-0.037,3.526-0.037,3.526l-1.105,0.095c0,0,0.02-4.688,0-5.05c-0.285-3.374-0.096-4.46,0.096-5.413
			c0.134-0.647,0.57-0.248,0.57-0.248l0.439,0.478l0.285,0.647c0.915-0.743,1.696-1.239,2.916-1.239c1.125,0,1.982,0.478,2.535,1.43
			c0.972-0.78,1.904-1.409,3.221-1.43c1.486,0,2.496,0.726,2.496,3.469c0,0,0,2.422,0.02,3.927c0,1.315,0.076,3.431,0.076,3.431
			c-0.533,0-1.162-0.038-1.313,0c-0.496,0.152,0.019-6.783,0.019-6.783c0.02-3.584,0.19-3.203-1.392-3.203
			c-1.086-0.019-2.269,1.105-2.896,1.772c0,0-0.152,6.767-0.211,7.833C165.934,193.008,164.79,192.131,164.79,192.131z
			 M160.636,182.029c-0.038,0.039,0.382,0.687,0.095,0.097C160.217,181.059,160.674,181.992,160.636,182.029z M168.83,194.323
			c-0.247,0.171,0.763,1.258,0.477,0.667C168.793,193.923,169.078,194.15,168.83,194.323z"/>
	</g>
</g>
</svg>
