<?xml version="1.0" encoding="utf-8"?>
<!-- Generator: Adobe Illustrator 16.0.0, SVG Export Plug-In . SVG Version: 6.00 Build 0)  -->
<!DOCTYPE svg PUBLIC "-//W3C//DTD SVG 1.1//EN" "http://www.w3.org/Graphics/SVG/1.1/DTD/svg11.dtd">
<svg version="1.1" id="Layer_1" xmlns="http://www.w3.org/2000/svg" xmlns:xlink="http://www.w3.org/1999/xlink" x="0px" y="0px"
	 width="229.5px" height="163.73px" viewBox="0 0 229.5 163.73" enable-background="new 0 0 229.5 163.73" xml:space="preserve">
<g>
	<path fill="none" stroke="#73D100" stroke-width="1.7472" stroke-linecap="round" stroke-miterlimit="10" d="M167.512,95.658
		c9.8,1.049,16.886,9.844,15.836,19.639c-0.735,6.854-6.891,11.82-13.748,11.083c-4.798-0.514-8.271-4.82-7.757-9.622
		c0.359-3.359,3.376-5.789,6.733-5.43c2.354,0.25,4.057,2.363,3.805,4.715c-0.176,1.646-1.654,2.838-3.301,2.662
		c-1.151-0.126-1.986-1.16-1.861-2.311c0.083-0.807,0.808-1.393,1.617-1.305c0.563,0.061,0.972,0.57,0.91,1.133"/>
	<path fill="#FFFFFF" stroke="#73D100" stroke-width="1.7472" stroke-linecap="round" stroke-miterlimit="10" d="M139.901,114.242
		c0,0,12.872-32.442,44.435-46.844c17.598-7.916,39.043-10.442,41.351,12.323c2.309,22.763-34.246,15.155-51.472,15.828
		C156.992,96.225,139.901,114.242,139.901,114.242z"/>
	<path fill="none" stroke="#73D100" stroke-width="1.7472" stroke-linecap="round" stroke-miterlimit="10" d="M144.913,163.73
		c-15.104-12.094-17.276-34.43-4.856-49.943"/>
	<path fill="none" stroke="#73D100" stroke-width="1.7472" stroke-linecap="round" stroke-miterlimit="10" d="M202.474,76.518
		c-4.898-6.864-27.388,0.816-50.28,17.163"/>
	<path fill="none" stroke="#73D100" stroke-width="1.7472" stroke-linecap="round" stroke-miterlimit="10" d="M200.376,88.23
		c-4.146-7.339-27.318-2.074-51.81,11.771"/>
	<path fill="#73D100" stroke="#DBF7FC" stroke-width="1.7472" stroke-linecap="round" stroke-miterlimit="10" d="M201.71,105.561
		c-1.823-2.549-5.368-3.143-7.918-1.32c-2.555,1.822-3.145,5.369-1.322,7.919c1.821,2.552,5.365,3.144,7.918,1.319
		C202.938,111.658,203.531,108.112,201.71,105.561z"/>
	<path fill="none" stroke="#73D100" stroke-width="1.7472" stroke-linecap="round" stroke-miterlimit="10" d="M137.354,80.516
		c-6.621-7.294-17.902-7.839-25.196-1.218c-5.106,4.637-5.487,12.534-0.851,17.638c3.244,3.574,8.771,3.842,12.346,0.596
		c2.501-2.271,2.688-6.139,0.416-8.639c-1.588-1.756-4.298-1.885-6.049-0.293c-1.226,1.11-1.316,3.007-0.204,4.233
		c0.778,0.857,2.107,0.921,2.963,0.142c0.602-0.542,0.647-1.475,0.102-2.072c-0.383-0.424-1.032-0.453-1.453-0.072"/>
	<path fill="#FFFFFF" stroke="#73D100" stroke-width="1.7472" stroke-linecap="round" stroke-miterlimit="10" d="M138.62,113.772
		c0,0,18.616-29.519,11.645-63.51c-3.979-18.881-14.579-37.689-34.327-26.138c-19.749,11.559,7.943,36.602,17.553,50.911
		C143.101,89.346,138.62,113.772,138.62,113.772z"/>
	<path fill="none" stroke="#73D100" stroke-width="1.7472" stroke-linecap="round" stroke-miterlimit="10" d="M132.207,40.99
		c8.434-0.091,15.487,22.603,15.777,50.732"/>
	<path fill="none" stroke="#73D100" stroke-width="1.7472" stroke-linecap="round" stroke-miterlimit="10" d="M123.98,49.59
		c8.373-0.977,17.781,20.845,21.033,48.787"/>
	<path fill="#73D100" stroke="#DBF7FC" stroke-width="1.7472" stroke-linecap="round" stroke-miterlimit="10" d="M109.195,58.729
		c3.136-0.031,5.703,2.484,5.738,5.616c0.031,3.137-2.485,5.705-5.619,5.737c-3.134,0.032-5.701-2.483-5.735-5.62
		C103.548,61.33,106.062,58.76,109.195,58.729z"/>
	<path fill="#FFFFFF" stroke="#73D100" stroke-width="1.7472" stroke-linecap="round" stroke-miterlimit="10" d="M154.935,77.24
		c0,0,17.309-7.706,44.959-28.666c15.314-11.737,27.706-29.419,8.763-42.246c-18.948-12.826-29.586,22.963-38.348,37.805
		C161.544,58.98,154.935,77.24,154.935,77.24z"/>
	<path fill="none" stroke="#73D100" stroke-width="1.4837" stroke-linecap="round" stroke-miterlimit="10" d="M195.565,31.587
		c-6.427-3.161-20.152,11.629-30.691,33.068"/>
	<path fill="none" stroke="#73D100" stroke-width="1.4837" stroke-linecap="round" stroke-miterlimit="10" d="M196.564,39.433
		c-6.017-3.878-21.358,9.227-34.305,29.305"/>
	<path fill="#73D100" stroke="#DBF7FC" stroke-width="1.7472" stroke-linecap="round" stroke-miterlimit="10" d="M160.377,23.782
		c3.135-0.029,5.701,2.485,5.732,5.619c0.034,3.138-2.48,5.705-5.616,5.738c-3.134,0.031-5.702-2.485-5.732-5.62
		C154.728,26.386,157.243,23.817,160.377,23.782z"/>
</g>
<g>
	<path fill="none" stroke="#73D100" stroke-width="1.286" stroke-linecap="round" stroke-miterlimit="10" d="M46.474,117.628
		c-7.214,0.772-12.429,7.244-11.656,14.455c0.541,5.045,5.071,8.699,10.118,8.157c3.532-0.379,6.088-3.548,5.709-7.082
		c-0.264-2.473-2.485-4.262-4.956-3.998c-1.732,0.185-2.986,1.741-2.801,3.472c0.129,1.212,1.218,2.088,2.43,1.959
		c0.847-0.093,1.461-0.854,1.37-1.7c-0.061-0.595-0.595-1.024-1.19-0.962c-0.416,0.045-0.716,0.421-0.67,0.835"/>
	<path fill="#FFFFFF" stroke="#73D100" stroke-width="1.286" stroke-linecap="round" stroke-miterlimit="10" d="M66.795,131.307
		c0,0-9.474-23.878-32.705-34.479c-12.953-5.826-28.737-7.686-30.435,9.07c-1.7,16.753,25.206,11.154,37.884,11.65
		C54.215,118.045,66.795,131.307,66.795,131.307z"/>
	<path fill="none" stroke="#73D100" stroke-width="1.286" stroke-linecap="round" stroke-miterlimit="10" d="M63.106,167.73
		c11.116-8.901,12.715-25.341,3.574-36.76"/>
	<path fill="none" stroke="#73D100" stroke-width="1.286" stroke-linecap="round" stroke-miterlimit="10" d="M20.74,103.54
		c3.605-5.052,20.157,0.601,37.007,12.632"/>
	<path fill="none" stroke="#73D100" stroke-width="1.286" stroke-linecap="round" stroke-miterlimit="10" d="M22.284,112.162
		c3.052-5.402,20.106-1.527,38.132,8.664"/>
	
		<circle fill="#73D100" stroke="#DBF7FC" stroke-width="1.286" stroke-linecap="round" stroke-miterlimit="10" cx="24.703" cy="127.345" r="4.179"/>
	<path fill="none" stroke="#73D100" stroke-width="1.286" stroke-linecap="round" stroke-miterlimit="10" d="M68.67,106.482
		c4.873-5.368,13.177-5.769,18.545-0.896c3.758,3.412,4.039,9.225,0.625,12.981c-2.387,2.63-6.455,2.826-9.086,0.438
		c-1.841-1.672-1.979-4.518-0.306-6.358c1.169-1.292,3.164-1.387,4.452-0.215c0.903,0.817,0.97,2.213,0.151,3.116
		c-0.574,0.631-1.552,0.678-2.181,0.104c-0.443-0.399-0.476-1.086-0.075-1.525c0.282-0.312,0.76-0.334,1.069-0.054"/>
	<path fill="#FFFFFF" stroke="#73D100" stroke-width="1.286" stroke-linecap="round" stroke-miterlimit="10" d="M67.738,130.961
		c0,0-13.702-21.727-8.571-46.745c2.928-13.897,10.73-27.74,25.266-19.238c14.535,8.507-5.847,26.939-12.919,37.471
		C64.44,112.982,67.738,130.961,67.738,130.961z"/>
	<path fill="none" stroke="#73D100" stroke-width="1.286" stroke-linecap="round" stroke-miterlimit="10" d="M72.458,77.391
		c-6.208-0.067-11.399,16.636-11.612,37.339"/>
	<path fill="none" stroke="#73D100" stroke-width="1.286" stroke-linecap="round" stroke-miterlimit="10" d="M78.513,83.722
		c-6.162-0.72-13.087,15.341-15.48,35.907"/>
	
		<circle fill="#73D100" stroke="#DBF7FC" stroke-width="1.286" stroke-linecap="round" stroke-miterlimit="10" cx="89.351" cy="94.625" r="4.178"/>
	<path fill="#FFFFFF" stroke="#73D100" stroke-width="1.286" stroke-linecap="round" stroke-miterlimit="10" d="M55.729,104.072
		c0,0-12.739-5.672-33.09-21.099c-11.272-8.639-20.392-21.653-6.45-31.094c13.946-9.44,21.776,16.901,28.225,27.825
		C50.865,90.633,55.729,104.072,55.729,104.072z"/>
	<path fill="none" stroke="#73D100" stroke-width="1.0921" stroke-linecap="round" stroke-miterlimit="10" d="M25.825,70.47
		c4.73-2.326,14.832,8.559,22.589,24.339"/>
	<path fill="none" stroke="#73D100" stroke-width="1.0921" stroke-linecap="round" stroke-miterlimit="10" d="M25.089,76.246
		c4.428-2.855,15.72,6.791,25.249,21.569"/>
	<path fill="#73D100" stroke="#DBF7FC" stroke-width="1.286" stroke-linecap="round" stroke-miterlimit="10" d="M51.724,64.726
		c-2.307-0.022-4.196,1.829-4.219,4.135c-0.025,2.31,1.826,4.199,4.134,4.223c2.307,0.023,4.197-1.829,4.219-4.137
		C55.883,66.643,54.031,64.751,51.724,64.726z"/>
</g>
<g>
	<path fill="#535656" d="M-227.529-110.725c0.297-0.4,1.308-0.04,1.308-0.04l0.078-3.306c0,0,0.1-0.361,0.237-0.461
		c0.316-0.24,1.029,0.341,1.029,0.341s0.158,0.921,0.039,1.983c-0.059,0.601,0.159,1.442,0.159,1.442s2.198-0.721,2.455,0.2
		c0.04,0.14,0.06,0.401,0.06,0.401l-0.355,0.641l-2.158,0.08c0,0,0,0.481,0,0.801c0,0.18-0.277,0.421-0.277,0.621
		c0,0.141,0.277,0.922,0.277,1.062c0,2.304,0,4.467,0,4.467c0,1.082-0.119,3.125,0.852,2.264c0.317-0.28,1.207-1.763,1.504-1.062
		l0.277,0.22c0.653,0.422-1.168,1.684-1.703,1.684c-2.613,0-2.474-1.784-2.474-3.807v-6.251l-1.07-0.04
		C-227.292-109.483-227.826-110.324-227.529-110.725z"/>
	<path fill="#535656" d="M-221.136-105.235c0-4.148,1.939-5.85,4.375-5.85c2.435,0,4.078,2.003,4.078,6.149
		c0,4.148-1.644,5.55-4.078,5.55c-1.308,0-2.455-0.481-3.247-1.563c-0.139-0.18-0.099-0.541-0.218-0.761
		c-0.218-0.4-0.555-0.701-0.673-1.242C-221.056-103.613-221.136-104.374-221.136-105.235z M-219.968-102.031
		c-0.277,0.081-0.021,1.103,0.1,0.822c0.039-0.101,0.079-0.2,0.079-0.321C-219.789-101.73-219.889-101.891-219.968-102.031z
		 M-214.028-105.235c0.277-1.864-0.158-5.03-2.534-5.03c-2.375,0-3.029,3.146-3.029,5.03c0,1.882,0.653,5.428,3.029,5.428
		S-214.721-100.647-214.028-105.235z"/>
	<path fill="#535656" d="M-205.262-110.725c0.297-0.4,1.306-0.04,1.306-0.04l0.08-3.306c0,0,0.099-0.361,0.237-0.461
		c0.315-0.24,1.03,0.341,1.03,0.341s0.156,0.921,0.038,1.983c-0.06,0.601,0.158,1.442,0.158,1.442s2.197-0.721,2.455,0.2
		c0.04,0.14,0.061,0.401,0.061,0.401l-0.356,0.641l-2.158,0.08c0,0,0,0.481,0,0.801c0,0.18-0.276,0.421-0.276,0.621
		c0,0.141,0.276,0.922,0.276,1.062c0,2.304,0,4.467,0,4.467c0,1.082-0.117,3.125,0.853,2.264c0.315-0.28,1.208-1.763,1.504-1.062
		l0.277,0.22c0.653,0.422-1.169,1.684-1.702,1.684c-2.613,0-2.477-1.784-2.477-3.807v-6.251l-1.066-0.04
		C-205.022-109.483-205.559-110.324-205.262-110.725z"/>
	<path fill="#535656" d="M-198.867-105.235c0-4.148,1.939-5.85,4.373-5.85c2.438,0,4.078,2.003,4.078,6.149
		c0,4.148-1.642,5.55-4.078,5.55c-1.306,0-2.453-0.481-3.244-1.563c-0.141-0.18-0.101-0.541-0.22-0.761
		c-0.218-0.4-0.554-0.701-0.673-1.242C-198.789-103.613-198.867-104.374-198.867-105.235z M-197.701-102.031
		c-0.275,0.081-0.019,1.103,0.1,0.822c0.041-0.101,0.08-0.2,0.08-0.321C-197.521-101.73-197.621-101.891-197.701-102.031z
		 M-191.762-105.235c0.278-1.864-0.157-5.03-2.533-5.03s-3.028,3.146-3.028,5.03c0,1.882,0.652,5.428,3.028,5.428
		S-192.454-100.647-191.762-105.235z"/>
	<path fill="#535656" d="M-187.98-110.604c-0.396,0,0.06-1.222,0.474-1.062c0.18,0.081,0.535,0.501,0.477,0.681
		c0.06,0.1-0.039,0.141-0.06,0.141C-187.664-110.845-187.724-110.604-187.98-110.604z M-187.922-109.423
		c0.099,3.746,0,13.382-0.1,14.725c-0.04,0.641,0.337,0.922,0.337,0.922s0.416,0.12,0.652,0.08c0.692-0.141,0.494-1.783,0.494-1.783
		l0.102-5.489c0.729-0.481,1.582,1.583,2.79,1.583c1.484,0,3.999-1.383,3.999-5.629c0-4.348-2.179-6.07-4.06-6.07
		c-1.049,0-2.216,0.3-2.93,1.062l-0.396-0.642C-187.031-110.665-187.962-111.045-187.922-109.423z M-186.732-106.318
		c0.037-1.082,0.493-2.725,0.493-2.725c0.476-0.961,1.365-0.781,2.555-0.781c2.156,0,2.415,3.105,2.415,4.769
		c0,3.245-1.523,4.307-2.593,4.307c-1.092,0-1.939-0.922-2.377-1.864C-186.239-102.612-186.795-104.855-186.732-106.318z"/>
</g>
<g>
	<path fill="none" stroke="#416B6D" stroke-width="0.753" stroke-linecap="round" stroke-miterlimit="10" d="M-190.729-72.934
		c3.84,0.791,6.312,4.545,5.522,8.383c-0.552,2.689-3.179,4.42-5.868,3.867c-1.879-0.387-3.094-2.225-2.706-4.107
		c0.271-1.317,1.56-2.165,2.875-1.895c0.924,0.189,1.519,1.09,1.327,2.014c-0.133,0.645-0.764,1.061-1.409,0.928
		c-0.451-0.092-0.741-0.535-0.647-0.984c0.063-0.316,0.374-0.521,0.688-0.455c0.223,0.045,0.363,0.264,0.318,0.482"/>
	<path fill="#DBF7FC" stroke="#416B6D" stroke-width="0.753" stroke-linecap="round" stroke-miterlimit="10" d="M-202.377-66.624
		c0,0,6.337-12.361,19.392-16.861c7.271-2.465,15.863-2.648,15.908,6.457c0.047,9.107-14.145,4.699-20.992,4.308
		C-194.919-73.112-202.377-66.624-202.377-66.624z"/>
	<path fill="none" stroke="#416B6D" stroke-width="0.753" stroke-linecap="round" stroke-miterlimit="10" d="M-202.279-46.83
		c-5.521-5.365-5.53-14.297-0.02-19.969"/>
	<path fill="none" stroke="#416B6D" stroke-width="0.753" stroke-linecap="round" stroke-miterlimit="10" d="M-176.148-79.183
		c-1.681-2.903-10.883-0.72-20.574,4.881"/>
	<path fill="none" stroke="#416B6D" stroke-width="0.753" stroke-linecap="round" stroke-miterlimit="10" d="M-177.428-74.622
		c-1.362-3.065-10.743-1.865-20.974,2.687"/>
	
		<circle fill="#73D100" stroke="#416B6D" stroke-width="0.753" stroke-linecap="round" stroke-miterlimit="10" cx="-179.518" cy="-66.575" r="2.259"/>
	
		<circle fill="#73D100" stroke="#416B6D" stroke-width="0.753" stroke-linecap="round" stroke-miterlimit="10" cx="-174.071" cy="-67.874" r="1.412"/>
	
		<circle fill="#73D100" stroke="#416B6D" stroke-width="0.753" stroke-linecap="round" stroke-miterlimit="10" cx="-168.884" cy="-69.242" r="1.317"/>
	
		<circle fill="#73D100" stroke="#416B6D" stroke-width="0.753" stroke-linecap="round" stroke-miterlimit="10" cx="-165.44" cy="-72.319" r="0.941"/>
	
		<circle fill="#73D100" stroke="#416B6D" stroke-width="0.753" stroke-linecap="round" stroke-miterlimit="10" cx="-163.941" cy="-77.29" r="1.482"/>
	
		<circle fill="#73D100" stroke="#416B6D" stroke-width="0.753" stroke-linecap="round" stroke-miterlimit="10" cx="-160.188" cy="-81.663" r="1.131"/>
	
		<circle fill="#73D100" stroke="#416B6D" stroke-width="0.753" stroke-linecap="round" stroke-miterlimit="10" cx="-158.349" cy="-86.194" r="1.223"/>
</g>
<g>
	
		<circle fill="#73D100" stroke="#416B6D" stroke-width="0.753" stroke-linecap="round" stroke-miterlimit="10" cx="-204.286" cy="-79.394" r="2.259"/>
	
		<circle fill="#73D100" stroke="#416B6D" stroke-width="0.753" stroke-linecap="round" stroke-miterlimit="10" cx="-209.863" cy="-79.908" r="1.413"/>
	
		<circle fill="#73D100" stroke="#416B6D" stroke-width="0.753" stroke-linecap="round" stroke-miterlimit="10" cx="-215.216" cy="-80.268" r="1.318"/>
	
		<circle fill="#73D100" stroke="#416B6D" stroke-width="0.753" stroke-linecap="round" stroke-miterlimit="10" cx="-219.46" cy="-78.456" r="0.941"/>
	
		<circle fill="#73D100" stroke="#416B6D" stroke-width="0.753" stroke-linecap="round" stroke-miterlimit="10" cx="-222.473" cy="-74.224" r="1.481"/>
	
		<circle fill="#73D100" stroke="#416B6D" stroke-width="0.753" stroke-linecap="round" stroke-miterlimit="10" cx="-227.428" cy="-71.282" r="1.132"/>
	
		<circle fill="#73D100" stroke="#416B6D" stroke-width="0.753" stroke-linecap="round" stroke-miterlimit="10" cx="-230.618" cy="-67.577" r="1.223"/>
</g>
<g>
	<path fill="none" stroke="#416B6D" stroke-width="0.6269" stroke-linecap="round" stroke-miterlimit="10" d="M-253.881,23.171
		c2.614,1.955,3.148,5.66,1.195,8.271c-1.367,1.832-3.959,2.207-5.79,0.838c-1.28-0.955-1.544-2.771-0.585-4.055
		c0.67-0.895,1.938-1.078,2.836-0.408c0.629,0.469,0.758,1.357,0.288,1.984c-0.328,0.439-0.951,0.529-1.392,0.201
		c-0.308-0.23-0.369-0.666-0.14-0.973c0.16-0.215,0.466-0.26,0.68-0.098c0.151,0.111,0.183,0.326,0.069,0.477"/>
	<path fill="#DBF7FC" stroke="#416B6D" stroke-width="0.6269" stroke-linecap="round" stroke-miterlimit="10" d="M-264.891,23.804
		c0,0,9.15-7.072,20.579-5.844c6.352,0.717,12.891,3.619,9.703,10.496c-3.188,6.879-12.321-1.465-17.344-4.184
		C-256.976,21.554-264.891,23.804-264.891,23.804z"/>
	<path fill="none" stroke="#416B6D" stroke-width="0.6269" stroke-linecap="round" stroke-miterlimit="10" d="M-271.822,38.753
		c-2.263-5.996,0.892-12.73,7.053-15.053"/>
	<path fill="none" stroke="#416B6D" stroke-width="0.6269" stroke-linecap="round" stroke-miterlimit="10" d="M-240.684,23.622
		c-0.237-2.783-7.944-4.395-17.229-3.604"/>
	<path fill="none" stroke="#416B6D" stroke-width="0.6269" stroke-linecap="round" stroke-miterlimit="10" d="M-243.26,26.606
		c0.059-2.793-7.436-5.207-16.755-5.398"/>
	
		<circle fill="#73D100" stroke="#416B6D" stroke-width="0.6269" stroke-linecap="round" stroke-miterlimit="10" cx="-247.683" cy="31.93" r="1.88"/>
	
		<circle fill="#73D100" stroke="#416B6D" stroke-width="0.6269" stroke-linecap="round" stroke-miterlimit="10" cx="-243.119" cy="32.88" r="1.176"/>
	
		<circle fill="#73D100" stroke="#416B6D" stroke-width="0.6269" stroke-linecap="round" stroke-miterlimit="10" cx="-238.726" cy="33.683" r="1.098"/>
	
		<circle fill="#73D100" stroke="#416B6D" stroke-width="0.6269" stroke-linecap="round" stroke-miterlimit="10" cx="-235.044" cy="32.584" r="0.784"/>
	
		<circle fill="#73D100" stroke="#416B6D" stroke-width="0.6269" stroke-linecap="round" stroke-miterlimit="10" cx="-232.153" cy="29.367" r="1.233"/>
	
		<circle fill="#73D100" stroke="#416B6D" stroke-width="0.6269" stroke-linecap="round" stroke-miterlimit="10" cx="-227.777" cy="27.401" r="0.941"/>
	
		<circle fill="#73D100" stroke="#416B6D" stroke-width="0.6269" stroke-linecap="round" stroke-miterlimit="10" cx="-224.79" cy="24.639" r="1.019"/>
</g>
<text transform="matrix(1 0 0 1 -296.1763 6.4941)" fill="#416B6D" font-family="'DeGenerate'" font-size="33.1667">to top</text>
<g>
	
		<circle fill="#73D100" stroke="#416B6D" stroke-width="0.6269" stroke-linecap="round" stroke-miterlimit="10" cx="-270.178" cy="20.149" r="1.881"/>
	
		<circle fill="#73D100" stroke="#416B6D" stroke-width="0.6269" stroke-linecap="round" stroke-miterlimit="10" cx="-274.82" cy="19.724" r="1.176"/>
	
		<circle fill="#73D100" stroke="#416B6D" stroke-width="0.6269" stroke-linecap="round" stroke-miterlimit="10" cx="-279.276" cy="19.422" r="1.097"/>
	
		<circle fill="#73D100" stroke="#416B6D" stroke-width="0.6269" stroke-linecap="round" stroke-miterlimit="10" cx="-282.809" cy="20.931" r="0.783"/>
	
		<circle fill="#73D100" stroke="#416B6D" stroke-width="0.6269" stroke-linecap="round" stroke-miterlimit="10" cx="-285.317" cy="24.454" r="1.234"/>
	
		<circle fill="#73D100" stroke="#416B6D" stroke-width="0.6269" stroke-linecap="round" stroke-miterlimit="10" cx="-289.443" cy="26.903" r="0.943"/>
	
		<circle fill="#73D100" stroke="#416B6D" stroke-width="0.6269" stroke-linecap="round" stroke-miterlimit="10" cx="-292.098" cy="29.988" r="1.019"/>
</g>
<g>
	
		<circle fill="#73D100" stroke="#416B6D" stroke-width="0.8398" stroke-linecap="round" stroke-miterlimit="10" cx="-231.624" cy="-82.095" r="2.519"/>
	
		<circle fill="#73D100" stroke="#416B6D" stroke-width="0.8398" stroke-linecap="round" stroke-miterlimit="10" cx="-237.274" cy="-84.751" r="1.576"/>
	
		<circle fill="#73D100" stroke="#416B6D" stroke-width="0.8398" stroke-linecap="round" stroke-miterlimit="10" cx="-242.627" cy="-87.426" r="1.469"/>
	
		<circle fill="#73D100" stroke="#416B6D" stroke-width="0.8398" stroke-linecap="round" stroke-miterlimit="10" cx="-245.687" cy="-91.566" r="1.049"/>
	<path fill="#73D100" stroke="#416B6D" stroke-width="0.8398" stroke-linecap="round" stroke-miterlimit="10" d="M-244.871-96.344
		c-0.55,0.729-1.584,0.877-2.314,0.329c-0.733-0.551-0.878-1.586-0.329-2.316c0.547-0.729,1.584-0.877,2.314-0.327
		C-244.47-98.111-244.324-97.074-244.871-96.344z"/>
	
		<circle fill="#73D100" stroke="#416B6D" stroke-width="0.8398" stroke-linecap="round" stroke-miterlimit="10" cx="-249.296" cy="-102.966" r="1.262"/>
	
		<circle fill="#73D100" stroke="#416B6D" stroke-width="0.8398" stroke-linecap="round" stroke-miterlimit="10" cx="-250.272" cy="-108.33" r="1.365"/>
</g>
<g>
	<path fill="#535656" d="M48.292,27.223c0.297-0.4,1.308-0.04,1.308-0.04l0.078-3.306c0,0,0.1-0.361,0.237-0.461
		c0.316-0.24,1.029,0.341,1.029,0.341s0.158,0.921,0.039,1.983c-0.059,0.601,0.159,1.442,0.159,1.442s2.198-0.721,2.455,0.2
		c0.04,0.14,0.06,0.401,0.06,0.401l-0.355,0.641l-2.158,0.08c0,0,0,0.481,0,0.801c0,0.18-0.277,0.421-0.277,0.621
		c0,0.141,0.277,0.922,0.277,1.062c0,2.304,0,4.467,0,4.467c0,1.082-0.119,3.125,0.852,2.264c0.317-0.279,1.207-1.763,1.504-1.062
		l0.277,0.22c0.653,0.422-1.168,1.684-1.703,1.684c-2.613,0-2.474-1.783-2.474-3.807v-6.251l-1.07-0.04
		C48.529,28.465,47.995,27.624,48.292,27.223z"/>
	<path fill="#535656" d="M54.685,32.713c0-4.148,1.939-5.85,4.375-5.85c2.435,0,4.078,2.003,4.078,6.149
		c0,4.148-1.644,5.55-4.078,5.55c-1.308,0-2.455-0.481-3.247-1.563c-0.139-0.18-0.099-0.541-0.218-0.761
		c-0.218-0.4-0.555-0.701-0.673-1.242C54.765,34.335,54.685,33.574,54.685,32.713z M55.853,35.917
		c-0.277,0.081-0.021,1.103,0.1,0.822c0.039-0.101,0.079-0.2,0.079-0.321C56.032,36.219,55.932,36.057,55.853,35.917z
		 M61.792,32.713c0.277-1.864-0.158-5.03-2.534-5.03c-2.375,0-3.029,3.146-3.029,5.03c0,1.883,0.653,5.428,3.029,5.428
		S61.1,37.301,61.792,32.713z"/>
	<path fill="#535656" d="M70.559,27.223c0.297-0.4,1.306-0.04,1.306-0.04l0.08-3.306c0,0,0.099-0.361,0.237-0.461
		c0.315-0.24,1.03,0.341,1.03,0.341s0.156,0.921,0.039,1.983c-0.061,0.601,0.158,1.442,0.158,1.442s2.197-0.721,2.455,0.2
		c0.039,0.14,0.061,0.401,0.061,0.401l-0.357,0.641l-2.158,0.08c0,0,0,0.481,0,0.801c0,0.18-0.275,0.421-0.275,0.621
		c0,0.141,0.275,0.922,0.275,1.062c0,2.304,0,4.467,0,4.467c0,1.082-0.117,3.125,0.854,2.264c0.314-0.279,1.207-1.763,1.504-1.062
		l0.277,0.22c0.652,0.422-1.17,1.684-1.703,1.684c-2.613,0-2.476-1.783-2.476-3.807v-6.251l-1.066-0.04
		C70.798,28.465,70.262,27.624,70.559,27.223z"/>
	<path fill="#535656" d="M76.954,32.713c0-4.148,1.939-5.85,4.373-5.85c2.438,0,4.078,2.003,4.078,6.149
		c0,4.148-1.643,5.55-4.078,5.55c-1.307,0-2.453-0.481-3.244-1.563c-0.141-0.18-0.102-0.541-0.221-0.761
		c-0.217-0.4-0.553-0.701-0.672-1.242C77.032,34.335,76.954,33.574,76.954,32.713z M78.12,35.917c-0.275,0.081-0.02,1.103,0.1,0.822
		c0.041-0.101,0.08-0.2,0.08-0.321C78.3,36.219,78.2,36.057,78.12,35.917z M84.06,32.713c0.277-1.864-0.158-5.03-2.533-5.03
		c-2.377,0-3.029,3.146-3.029,5.03c0,1.883,0.652,5.428,3.029,5.428C83.901,38.141,83.366,37.301,84.06,32.713z"/>
	<path fill="#535656" d="M87.841,27.344c-0.396,0,0.059-1.222,0.473-1.062c0.18,0.081,0.535,0.501,0.477,0.681
		c0.061,0.1-0.039,0.141-0.059,0.141C88.157,27.103,88.097,27.344,87.841,27.344z M87.899,28.525c0.098,3.746,0,13.382-0.1,14.725
		c-0.041,0.641,0.336,0.922,0.336,0.922s0.416,0.12,0.652,0.08c0.693-0.141,0.494-1.783,0.494-1.783l0.102-5.488
		c0.73-0.481,1.582,1.582,2.791,1.582c1.484,0,3.998-1.383,3.998-5.628c0-4.348-2.178-6.07-4.059-6.07
		c-1.049,0-2.217,0.3-2.93,1.062l-0.396-0.642C88.79,27.283,87.858,26.903,87.899,28.525z M89.089,31.63
		c0.037-1.082,0.492-2.725,0.492-2.725c0.477-0.961,1.365-0.781,2.555-0.781c2.156,0,2.416,3.105,2.416,4.769
		c0,3.246-1.523,4.307-2.594,4.307c-1.092,0-1.939-0.922-2.377-1.864C89.581,35.336,89.026,33.093,89.089,31.63z"/>
</g>
</svg>
