<?xml version="1.0" encoding="utf-8"?>
<!-- Generator: Adobe Illustrator 16.0.0, SVG Export Plug-In . SVG Version: 6.00 Build 0)  -->
<!DOCTYPE svg PUBLIC "-//W3C//DTD SVG 1.1//EN" "http://www.w3.org/Graphics/SVG/1.1/DTD/svg11.dtd">
<svg version="1.1" id="Layer_1" xmlns="http://www.w3.org/2000/svg" xmlns:xlink="http://www.w3.org/1999/xlink" x="0px" y="0px"
	 width="108.14px" height="90.116px" viewBox="0 0 108.14 90.116" enable-background="new 0 0 108.14 90.116" xml:space="preserve">
<g>
	<path fill="#535656" d="M30.174,23.271c0.296-0.4,1.307-0.04,1.307-0.04l0.078-3.306c0,0,0.1-0.361,0.238-0.461
		c0.316-0.24,1.029,0.341,1.029,0.341s0.158,0.921,0.039,1.983c-0.059,0.601,0.159,1.442,0.159,1.442s2.198-0.721,2.455,0.2
		c0.04,0.14,0.06,0.401,0.06,0.401l-0.356,0.641l-2.158,0.08c0,0,0,0.481,0,0.801c0,0.18-0.277,0.421-0.277,0.621
		c0,0.141,0.277,0.922,0.277,1.062c0,2.304,0,4.467,0,4.467c0,1.082-0.119,3.125,0.852,2.264c0.317-0.28,1.207-1.763,1.504-1.062
		l0.277,0.22c0.653,0.422-1.168,1.684-1.703,1.684c-2.613,0-2.474-1.784-2.474-3.807v-6.251l-1.07-0.04
		C30.411,24.513,29.877,23.672,30.174,23.271z"/>
	<path fill="#535656" d="M36.567,28.761c0-4.148,1.94-5.85,4.375-5.85s4.078,2.003,4.078,6.149c0,4.148-1.643,5.55-4.078,5.55
		c-1.307,0-2.455-0.481-3.247-1.563c-0.139-0.18-0.099-0.541-0.218-0.761c-0.217-0.4-0.554-0.701-0.673-1.242
		C36.647,30.383,36.567,29.622,36.567,28.761z M37.735,31.965c-0.277,0.081-0.02,1.103,0.1,0.822c0.039-0.101,0.079-0.2,0.079-0.321
		C37.914,32.266,37.814,32.105,37.735,31.965z M43.675,28.761c0.277-1.864-0.159-5.03-2.535-5.03c-2.375,0-3.029,3.146-3.029,5.03
		c0,1.882,0.653,5.428,3.029,5.428C43.516,34.189,42.982,33.349,43.675,28.761z"/>
	<path fill="#535656" d="M52.441,23.271c0.297-0.4,1.306-0.04,1.306-0.04l0.08-3.306c0,0,0.099-0.361,0.237-0.461
		c0.316-0.24,1.03,0.341,1.03,0.341s0.157,0.921,0.039,1.983c-0.06,0.601,0.158,1.442,0.158,1.442s2.197-0.721,2.455,0.2
		c0.04,0.14,0.06,0.401,0.06,0.401l-0.356,0.641l-2.158,0.08c0,0,0,0.481,0,0.801c0,0.18-0.277,0.421-0.277,0.621
		c0,0.141,0.277,0.922,0.277,1.062c0,2.304,0,4.467,0,4.467c0,1.082-0.117,3.125,0.852,2.264c0.316-0.28,1.208-1.763,1.504-1.062
		l0.278,0.22c0.653,0.422-1.169,1.684-1.703,1.684c-2.613,0-2.476-1.784-2.476-3.807v-6.251l-1.067-0.04
		C52.68,24.513,52.144,23.672,52.441,23.271z"/>
	<path fill="#535656" d="M58.836,28.761c0-4.148,1.939-5.85,4.373-5.85c2.437,0,4.078,2.003,4.078,6.149
		c0,4.148-1.642,5.55-4.078,5.55c-1.306,0-2.453-0.481-3.244-1.563c-0.141-0.18-0.101-0.541-0.22-0.761
		c-0.218-0.4-0.554-0.701-0.673-1.242C58.914,30.383,58.836,29.622,58.836,28.761z M60.002,31.965
		c-0.276,0.081-0.019,1.103,0.099,0.822c0.041-0.101,0.08-0.2,0.08-0.321C60.181,32.266,60.082,32.105,60.002,31.965z
		 M65.941,28.761c0.278-1.864-0.157-5.03-2.533-5.03s-3.028,3.146-3.028,5.03c0,1.882,0.652,5.428,3.028,5.428
		S65.249,33.349,65.941,28.761z"/>
	<path fill="#535656" d="M69.722,23.392c-0.396,0,0.06-1.222,0.474-1.062c0.18,0.081,0.535,0.501,0.477,0.681
		c0.059,0.1-0.039,0.141-0.06,0.141C70.039,23.151,69.979,23.392,69.722,23.392z M69.781,24.573c0.099,3.746,0,13.382-0.1,14.725
		c-0.04,0.641,0.337,0.922,0.337,0.922s0.416,0.12,0.653,0.08c0.692-0.141,0.494-1.783,0.494-1.783l0.101-5.489
		c0.73-0.481,1.582,1.583,2.79,1.583c1.485,0,3.999-1.383,3.999-5.629c0-4.348-2.178-6.07-4.059-6.07c-1.049,0-2.216,0.3-2.93,1.062
		l-0.396-0.642C70.672,23.331,69.741,22.951,69.781,24.573z M70.97,27.678c0.038-1.082,0.494-2.725,0.494-2.725
		c0.475-0.961,1.365-0.781,2.554-0.781c2.157,0,2.415,3.105,2.415,4.769c0,3.245-1.523,4.307-2.592,4.307
		c-1.092,0-1.94-0.922-2.377-1.864C71.464,31.384,70.908,29.141,70.97,27.678z"/>
</g>
<g>
	<path fill="none" stroke="#416B6D" stroke-width="0.753" stroke-linecap="round" stroke-miterlimit="10" d="M66.974,61.062
		c3.84,0.791,6.312,4.545,5.523,8.384c-0.552,2.688-3.179,4.419-5.868,3.866c-1.879-0.386-3.094-2.225-2.706-4.107
		c0.271-1.317,1.559-2.164,2.875-1.895c0.923,0.189,1.518,1.09,1.327,2.014c-0.133,0.645-0.764,1.061-1.409,0.928
		c-0.452-0.092-0.742-0.535-0.648-0.985c0.064-0.316,0.374-0.521,0.689-0.454c0.222,0.045,0.363,0.262,0.318,0.482"/>
	<path fill="#DBF7FC" stroke="#416B6D" stroke-width="0.753" stroke-linecap="round" stroke-miterlimit="10" d="M55.326,67.372
		c0,0,6.337-12.361,19.392-16.861c7.271-2.465,15.863-2.648,15.908,6.458c0.047,9.107-14.145,4.698-20.992,4.307
		C62.784,60.885,55.326,67.372,55.326,67.372z"/>
	<path fill="none" stroke="#416B6D" stroke-width="0.753" stroke-linecap="round" stroke-miterlimit="10" d="M55.424,87.166
		c-5.522-5.366-5.531-14.297-0.02-19.969"/>
	<path fill="none" stroke="#416B6D" stroke-width="0.753" stroke-linecap="round" stroke-miterlimit="10" d="M81.554,54.813
		c-1.68-2.904-10.882-0.719-20.574,4.881"/>
	<path fill="none" stroke="#416B6D" stroke-width="0.753" stroke-linecap="round" stroke-miterlimit="10" d="M80.275,59.375
		c-1.362-3.066-10.743-1.865-20.973,2.686"/>
	
		<circle fill="#73D100" stroke="#416B6D" stroke-width="0.753" stroke-linecap="round" stroke-miterlimit="10" cx="78.185" cy="67.42" r="2.259"/>
	
		<circle fill="#73D100" stroke="#416B6D" stroke-width="0.753" stroke-linecap="round" stroke-miterlimit="10" cx="83.632" cy="66.123" r="1.412"/>
	
		<circle fill="#73D100" stroke="#416B6D" stroke-width="0.753" stroke-linecap="round" stroke-miterlimit="10" cx="88.819" cy="64.754" r="1.317"/>
	
		<circle fill="#73D100" stroke="#416B6D" stroke-width="0.753" stroke-linecap="round" stroke-miterlimit="10" cx="92.262" cy="61.677" r="0.941"/>
	
		<circle fill="#73D100" stroke="#416B6D" stroke-width="0.753" stroke-linecap="round" stroke-miterlimit="10" cx="93.761" cy="56.706" r="1.482"/>
	
		<circle fill="#73D100" stroke="#416B6D" stroke-width="0.753" stroke-linecap="round" stroke-miterlimit="10" cx="97.515" cy="52.333" r="1.131"/>
	
		<circle fill="#73D100" stroke="#416B6D" stroke-width="0.753" stroke-linecap="round" stroke-miterlimit="10" cx="99.354" cy="47.802" r="1.223"/>
</g>
<g>
	
		<circle fill="#73D100" stroke="#416B6D" stroke-width="0.753" stroke-linecap="round" stroke-miterlimit="10" cx="53.417" cy="54.602" r="2.259"/>
	
		<circle fill="#73D100" stroke="#416B6D" stroke-width="0.753" stroke-linecap="round" stroke-miterlimit="10" cx="47.84" cy="54.089" r="1.413"/>
	
		<circle fill="#73D100" stroke="#416B6D" stroke-width="0.753" stroke-linecap="round" stroke-miterlimit="10" cx="42.487" cy="53.728" r="1.318"/>
	
		<circle fill="#73D100" stroke="#416B6D" stroke-width="0.753" stroke-linecap="round" stroke-miterlimit="10" cx="38.243" cy="55.54" r="0.941"/>
	
		<circle fill="#73D100" stroke="#416B6D" stroke-width="0.753" stroke-linecap="round" stroke-miterlimit="10" cx="35.23" cy="59.772" r="1.482"/>
	
		<circle fill="#73D100" stroke="#416B6D" stroke-width="0.753" stroke-linecap="round" stroke-miterlimit="10" cx="30.275" cy="62.714" r="1.132"/>
	
		<circle fill="#73D100" stroke="#416B6D" stroke-width="0.753" stroke-linecap="round" stroke-miterlimit="10" cx="27.085" cy="66.419" r="1.223"/>
</g>
<g>
	<path fill="none" stroke="#416B6D" stroke-width="0.6269" stroke-linecap="round" stroke-miterlimit="10" d="M-125,98.762
		c2.614,1.954,3.148,5.659,1.195,8.271c-1.367,1.831-3.959,2.206-5.79,0.837c-1.28-0.955-1.544-2.771-0.585-4.053
		c0.67-0.896,1.939-1.079,2.836-0.41c0.629,0.469,0.758,1.358,0.288,1.986c-0.328,0.439-0.951,0.529-1.391,0.201
		c-0.308-0.23-0.37-0.666-0.14-0.973c0.16-0.215,0.466-0.26,0.68-0.098c0.151,0.111,0.182,0.326,0.069,0.476"/>
	<path fill="#DBF7FC" stroke="#416B6D" stroke-width="0.6269" stroke-linecap="round" stroke-miterlimit="10" d="M-136.01,99.394
		c0,0,9.15-7.072,20.579-5.844c6.352,0.717,12.891,3.619,9.703,10.497c-3.188,6.878-12.321-1.466-17.344-4.184
		S-136.01,99.394-136.01,99.394z"/>
	<path fill="none" stroke="#416B6D" stroke-width="0.6269" stroke-linecap="round" stroke-miterlimit="10" d="M-142.941,114.344
		c-2.262-5.997,0.892-12.731,7.053-15.054"/>
	<path fill="none" stroke="#416B6D" stroke-width="0.6269" stroke-linecap="round" stroke-miterlimit="10" d="M-111.803,99.212
		c-0.237-2.783-7.944-4.393-17.229-3.603"/>
	<path fill="none" stroke="#416B6D" stroke-width="0.6269" stroke-linecap="round" stroke-miterlimit="10" d="M-114.379,102.197
		c0.058-2.793-7.436-5.208-16.755-5.398"/>
	
		<circle fill="#73D100" stroke="#416B6D" stroke-width="0.6269" stroke-linecap="round" stroke-miterlimit="10" cx="-118.802" cy="107.52" r="1.88"/>
	
		<circle fill="#73D100" stroke="#416B6D" stroke-width="0.6269" stroke-linecap="round" stroke-miterlimit="10" cx="-114.238" cy="108.47" r="1.176"/>
	
		<circle fill="#73D100" stroke="#416B6D" stroke-width="0.6269" stroke-linecap="round" stroke-miterlimit="10" cx="-109.845" cy="109.273" r="1.097"/>
	
		<circle fill="#73D100" stroke="#416B6D" stroke-width="0.6269" stroke-linecap="round" stroke-miterlimit="10" cx="-106.163" cy="108.174" r="0.784"/>
	
		<circle fill="#73D100" stroke="#416B6D" stroke-width="0.6269" stroke-linecap="round" stroke-miterlimit="10" cx="-103.272" cy="104.958" r="1.234"/>
	
		<circle fill="#73D100" stroke="#416B6D" stroke-width="0.6269" stroke-linecap="round" stroke-miterlimit="10" cx="-98.896" cy="102.992" r="0.942"/>
	
		<circle fill="#73D100" stroke="#416B6D" stroke-width="0.6269" stroke-linecap="round" stroke-miterlimit="10" cx="-95.908" cy="100.229" r="1.019"/>
</g>
<text transform="matrix(1 0 0 1 -167.2949 82.0845)" fill="#416B6D" font-family="'DeGenerate'" font-size="33.1667">to top</text>
<g>
	
		<circle fill="#73D100" stroke="#416B6D" stroke-width="0.6269" stroke-linecap="round" stroke-miterlimit="10" cx="-141.297" cy="95.74" r="1.88"/>
	
		<circle fill="#73D100" stroke="#416B6D" stroke-width="0.6269" stroke-linecap="round" stroke-miterlimit="10" cx="-145.939" cy="95.314" r="1.176"/>
	
		<circle fill="#73D100" stroke="#416B6D" stroke-width="0.6269" stroke-linecap="round" stroke-miterlimit="10" cx="-150.395" cy="95.013" r="1.097"/>
	
		<circle fill="#73D100" stroke="#416B6D" stroke-width="0.6269" stroke-linecap="round" stroke-miterlimit="10" cx="-153.928" cy="96.521" r="0.783"/>
	
		<circle fill="#73D100" stroke="#416B6D" stroke-width="0.6269" stroke-linecap="round" stroke-miterlimit="10" cx="-156.436" cy="100.045" r="1.234"/>
	
		<circle fill="#73D100" stroke="#416B6D" stroke-width="0.6269" stroke-linecap="round" stroke-miterlimit="10" cx="-160.562" cy="102.494" r="0.943"/>
	
		<circle fill="#73D100" stroke="#416B6D" stroke-width="0.6269" stroke-linecap="round" stroke-miterlimit="10" cx="-163.217" cy="105.579" r="1.018"/>
</g>
<g>
	
		<circle fill="#73D100" stroke="#416B6D" stroke-width="0.8398" stroke-linecap="round" stroke-miterlimit="10" cx="26.079" cy="51.901" r="2.518"/>
	
		<circle fill="#73D100" stroke="#416B6D" stroke-width="0.8398" stroke-linecap="round" stroke-miterlimit="10" cx="20.428" cy="49.245" r="1.576"/>
	
		<circle fill="#73D100" stroke="#416B6D" stroke-width="0.8398" stroke-linecap="round" stroke-miterlimit="10" cx="15.076" cy="46.57" r="1.469"/>
	
		<circle fill="#73D100" stroke="#416B6D" stroke-width="0.8398" stroke-linecap="round" stroke-miterlimit="10" cx="12.016" cy="42.43" r="1.049"/>
	<path fill="#73D100" stroke="#416B6D" stroke-width="0.8398" stroke-linecap="round" stroke-miterlimit="10" d="M12.832,37.652
		c-0.55,0.729-1.584,0.877-2.315,0.329c-0.733-0.551-0.878-1.586-0.329-2.316c0.547-0.729,1.584-0.877,2.315-0.327
		C13.233,35.885,13.379,36.922,12.832,37.652z"/>
	
		<circle fill="#73D100" stroke="#416B6D" stroke-width="0.8398" stroke-linecap="round" stroke-miterlimit="10" cx="8.407" cy="31.03" r="1.262"/>
	
		<circle fill="#73D100" stroke="#416B6D" stroke-width="0.8398" stroke-linecap="round" stroke-miterlimit="10" cx="7.43" cy="25.666" r="1.365"/>
</g>
</svg>
