<?xml version="1.0" encoding="utf-8"?>
<!-- Generator: Adobe Illustrator 16.0.0, SVG Export Plug-In . SVG Version: 6.00 Build 0)  -->
<!DOCTYPE svg PUBLIC "-//W3C//DTD SVG 1.1//EN" "http://www.w3.org/Graphics/SVG/1.1/DTD/svg11.dtd">
<svg version="1.1" xmlns="http://www.w3.org/2000/svg" xmlns:xlink="http://www.w3.org/1999/xlink" x="0px" y="0px"
	 width="182.917px" height="182.5px" viewBox="0 0 182.917 182.5" enable-background="new 0 0 182.917 182.5" xml:space="preserve">
<g id="Layer_1" display="none">
	
		<circle display="inline" fill="#FFFFFF" stroke="#E83658" stroke-linecap="round" stroke-miterlimit="10" stroke-dasharray="4.6311" cx="91.459" cy="91.298" r="89.166"/>
	<g display="inline">
		<path fill="#E83658" d="M40.937,139.789c-0.095,0-0.142-0.213-0.047-0.213C40.983,139.576,41.03,139.789,40.937,139.789z
			 M42.703,125.424c0,0-0.353-0.071-0.47,0.046c-1.154,1.155-0.048,3.156,0.047,5.912c0.165,4.969-0.142,10.997-0.142,10.997
			s0.023,0.259,0.047,0.378c0.306,1.53,3.98,0.235,3.98,0.235c5.488,0.307,8.125-2.851,8.125-8.69c0-5.229-2.402-9.302-7.725-9.066
			L42.703,125.424z M43.126,138.847c-0.07,0-0.07-0.189,0-0.189C43.198,138.657,43.198,138.847,43.126,138.847z M44.398,140.354
			c0-2.497-0.588-5.817-0.683-8.597c-0.07-2.167,0.307-3.014,0.095-4.05c-0.212-1.014,0.542-0.73,0.542-0.73l2.614-0.283
			c1.743-0.187,3.509,0.4,4.451,1.461c1.107,1.249,0.942,3.557,0.942,6.076c0,5.322-1.648,7.629-6.241,7.348l-0.73-0.047
			C45.387,141.532,44.398,141.532,44.398,140.354z M46.141,127.943c-0.094,0.023-0.188-0.213-0.094-0.235
			C46.141,127.685,46.235,127.92,46.141,127.943z M51.323,132.112c0.494-0.236,0.753-0.707,0.683-1.272
			c-0.071-0.612-1.578-0.659-1.178-1.06c0.236-0.235,1.579,0.966,1.343,0.353c-0.071-0.163-0.071-0.988-0.071-0.398
			c0,0.14,0.118,0.28,0.118,0.446c0,0.589-1.13-0.825-1.46-0.329c-0.212,0.306,1.225,0.398,1.272,1.035
			c0.047,0.589-0.283,1.061-0.848,1.271c-0.33,0.118-1.39-0.636-1.743-0.942C48.826,130.674,50.615,132.465,51.323,132.112z
			 M52.57,127.308c-0.448,0.329-0.636,0.825-0.471,1.389c0.188,0.589,1.672,0.376,1.343,0.825c-0.189,0.282-1.719-0.684-1.366-0.117
			c0.094,0.164,0.235,0.966,0.141,0.399c-0.023-0.142-0.165-0.259-0.211-0.425c-0.095-0.587,1.271,0.614,1.507,0.072
			c0.142-0.354-1.271-0.189-1.436-0.801c-0.142-0.565,0.094-1.107,0.612-1.414c0.307-0.165,1.483,0.4,1.884,0.636
			C55.278,128.296,53.183,126.837,52.57,127.308z"/>
		<path fill="#E83658" d="M58.433,127.144c0,0-0.401,0.399-0.707,0.399c-0.165,0-0.424-0.165-0.424-0.165s-0.589-0.471-0.636-0.896
			c-0.07-0.471,0.4-1.13,0.4-1.13s0.354-0.14,0.542-0.166c0.354-0.046,0.942,0.049,0.942,0.049s0.118,0.541,0.118,0.894
			C58.668,126.531,58.433,127.144,58.433,127.144z M58.668,143.558h-1.837c0,0,0.282-7.371-0.047-12.246
			c-0.023-0.259,0.047-0.755,0.047-0.755s0.753-0.141,1.131,0.048c0.142,0.069,0.353,0.308,0.353,0.308s0.235,0.163,0.118,2.048
			C58.198,136.729,58.668,143.558,58.668,143.558z"/>
		<path fill="#E83658" d="M63.143,143.086c0,0-0.212,0.683-0.542,0.707c-0.377,0.023-0.707-0.707-0.707-0.707l-0.353-12.765
			c0,0,1.107-0.258,1.414,0.166c0.14,0.212,0.188,0.659,0.188,0.659l0.235,0.753c1.084-0.87,2.096-1.719,3.58-1.719
			c1.837,0,3.509,1.012,3.321,4.404c0,0,0.707,5.157-0.495,8.03c-0.094,0.26-0.33,0.706-0.33,0.706l-0.777,0.117
			c0,0-0.541,0.142-0.471-0.353c0.118-1.036,0.66-3.486,0.636-4.828c-0.024-1.153-0.283-2.967-0.283-2.967
			c-0.118-1.318,0-2.873-1.836-3.603c-2.073-0.825-2.614,1.105-3.345,1.978L63.143,143.086z"/>
		<path fill="#E83658" d="M74.752,127.144c0,0-0.401,0.399-0.706,0.399c-0.165,0-0.424-0.165-0.424-0.165s-0.589-0.471-0.636-0.896
			c-0.07-0.471,0.4-1.13,0.4-1.13s0.354-0.14,0.542-0.166c0.353-0.046,0.942,0.049,0.942,0.049s0.117,0.541,0.117,0.894
			C74.987,126.531,74.752,127.144,74.752,127.144z M74.987,143.558h-1.836c0,0,0.283-7.371-0.047-12.246
			c-0.023-0.259,0.047-0.755,0.047-0.755s0.754-0.141,1.13,0.048c0.142,0.069,0.354,0.308,0.354,0.308s0.235,0.163,0.118,2.048
			C74.518,136.729,74.987,143.558,74.987,143.558z"/>
		<path fill="#E83658" d="M79.462,143.086c0,0-0.212,0.683-0.542,0.707c-0.376,0.023-0.706-0.707-0.706-0.707l-0.354-12.765
			c0,0,1.107-0.258,1.414,0.166c0.141,0.212,0.188,0.659,0.188,0.659l0.235,0.753c1.084-0.87,2.097-1.719,3.581-1.719
			c1.836,0,3.509,1.012,3.321,4.404c0,0,0.706,5.157-0.495,8.03c-0.094,0.26-0.33,0.706-0.33,0.706l-0.777,0.117
			c0,0-0.542,0.142-0.471-0.353c0.117-1.036,0.659-3.486,0.636-4.828c-0.023-1.153-0.282-2.967-0.282-2.967
			c-0.119-1.318,0-2.873-1.837-3.603c-2.073-0.825-2.614,1.105-3.345,1.978L79.462,143.086z"/>
		<path fill="#E83658" d="M100.28,131.616l-0.683,0.235c-0.33,0.096-0.801-0.235-1.271,0.024c-0.377,0.023,0.518,1.86,0.518,2.826
			c0,2.52-1.86,4.474-4.38,4.474c-0.753,0-2.12-0.212-2.802-0.47c-0.26-0.448-1.602,0.753-1.602,1.39
			c0,1.647,9.867-0.354,9.867,4.567c0,0.966-0.377,3.957-5.581,3.957c-4.239,0-5.487-2.214-5.487-3.814
			c0-1.344,1.177-2.073,2.261-2.544c0.07-0.378-1.625-0.871-1.625-1.813c0-1.155,1.53-2.001,1.483-2.45
			c-0.942-1.105-1.295-1.812-1.295-3.344c0-2.637,1.979-4.474,4.592-4.474c1.037,0,1.979,0.307,2.827,0.918
			c0.848-0.636,1.836-1.105,2.944-0.988L100.28,131.616z M91.331,143.485c0.33-0.706-1.861,1.931-0.848,1.909
			c0.801-0.024,0.259-0.614,0.424-0.99C91.048,144.076,91.189,143.816,91.331,143.485z M93.002,142.474
			c-0.989,0.188-2.378,1.061-2.378,2.237c0,1.789,2.92,3.155,4.168,3.155c1.319,0,3.368-1.529,3.368-3.32
			c0-1.367-2.238-2.686-3.086-2.52L93.002,142.474z M94.321,131.146c-1.766,0-3.297,1.906-3.297,3.579
			c0,1.625,1.507,3.415,3.203,3.415c1.885,0,2.92-1.648,2.92-3.438C97.147,133.007,96.158,131.146,94.321,131.146z M96.064,150.692
			c-0.283,0.166,0.188,0.802,0.423,0.707C96.959,151.234,96.347,150.528,96.064,150.692z"/>
		<path fill="#E83658" d="M122.156,134.396c0,6.029-2.826,9.539-6.64,9.539c-3.815,0-6.642-3.51-6.642-9.539
			c0-6.027,2.826-9.538,6.642-9.538C119.33,124.857,122.156,128.368,122.156,134.396z M110.334,134.043
			c0,5.557,2.638,8.313,5.182,8.313c2.542,0,5.534-2.991,5.534-8.55c0-5.557-2.991-7.371-5.534-7.371
			C112.972,126.436,110.334,128.485,110.334,134.043z"/>
		<path fill="#E83658" d="M133.199,133.194l0.166,10.363c0,0-1.061,0.423-1.484,0.046c-0.094-0.069-0.213-0.282-0.213-0.282
			l-0.047-0.542c-0.047-1.719-2.189,1.155-3.672,1.155c-1.838,0-3.322-1.014-3.322-4.404c0,0,0.33-4.993,0-7.984
			c-0.141-1.296,0.99-0.989,0.99-0.989l0.564,0.048c0,0,0.377,0,0.283,0.707c-0.4,3.084-0.236,7.747-0.236,7.747
			c-0.047,1.366,1.178,3.604,2.662,3.604c1.129,0,2.518-0.825,2.637-2.214c0,0,0.141-6.829,0.023-9.326
			c0-0.141,0.283-0.141,0.424-0.235c0.189-0.095,0.283-0.258,0.471-0.33c0.119-0.046,0.707,0.094,0.848,0.094
			C133.812,130.699,133.199,133.194,133.199,133.194z M126.818,133.689c0.021-0.495-1.061-0.729-0.73-1.131
			c0.117-0.165,0.447-0.282,0.447-0.282c0.07,0.023-0.33,0.117-0.447,0.259C125.758,132.936,126.865,133.173,126.818,133.689z"/>
		<path fill="#E83658" d="M135.389,130.604c0.354-0.472,1.555-0.048,1.555-0.048l0.094-3.886c0,0,0.117-0.423,0.283-0.542
			c0.377-0.28,1.225,0.402,1.225,0.402s0.188,1.082,0.047,2.331c-0.07,0.706,0.188,1.694,0.188,1.694s2.615-0.847,2.922,0.235
			c0.047,0.165,0.07,0.473,0.07,0.473l-0.424,0.753l-2.568,0.095c0,0,0,0.564,0,0.94c0,0.213-0.33,0.496-0.33,0.73
			c0,0.166,0.33,1.084,0.33,1.249c0,2.708,0,5.252,0,5.252c0,1.271-0.141,3.674,1.014,2.66c0.377-0.329,1.436-2.072,1.791-1.247
			l0.328,0.259c0.777,0.494-1.389,1.979-2.025,1.979c-3.107,0-2.943-2.098-2.943-4.476v-7.347l-1.271-0.048
			C135.672,132.064,135.037,131.075,135.389,130.604z"/>
	</g>
	<g display="inline">
		<g>
			<path fill="#F2F7B5" stroke="#492D08" stroke-width="0.5002" stroke-linecap="round" stroke-miterlimit="10" d="M92.533,41.989
				l4.418,4.676c0,0-2.168,1.513-5.669,6.886c-3.501,5.371-6.341,9.605-6.341,9.605l-15.172-2.55l5.257-6.632
				c0,0,6.922-2.23,11.165-6.12C90.434,43.964,92.533,41.989,92.533,41.989z"/>
			<polygon fill="#416B6D" points="45.266,54.167 91.282,54.167 84.53,100.167 52.018,100.167 			"/>
			
				<ellipse fill="none" stroke="#416B6D" stroke-width="5.051" stroke-miterlimit="10" cx="48.018" cy="66.642" rx="7.086" ry="7.226"/>
			
				<ellipse fill="none" stroke="#416B6D" stroke-width="5.051" stroke-miterlimit="10" cx="89.031" cy="66.642" rx="7.086" ry="7.226"/>
			
				<line fill="none" stroke="#DBF7FC" stroke-width="2.0204" stroke-linecap="round" stroke-miterlimit="10" x1="49.836" y1="84.582" x2="86.691" y2="84.468"/>
			
				<line fill="none" stroke="#DBF7FC" stroke-width="2.0204" stroke-linecap="round" stroke-miterlimit="10" x1="50.837" y1="90.192" x2="85.441" y2="90.078"/>
			<path fill="#F2F7B5" stroke="#492D08" stroke-width="0.5002" stroke-linecap="round" stroke-miterlimit="10" d="M94.034,40.119
				l4.667,4.846c0,0,6.836-4.931,3.46-8.161C98.785,33.573,94.034,40.119,94.034,40.119z"/>
			<polygon fill="#F2F7B5" stroke="#492D08" stroke-linecap="round" stroke-miterlimit="10" points="91.532,67.667 112.04,67.667 
				101.786,84.313 			"/>
			
				<line fill="#F2F7B5" stroke="#492D08" stroke-linecap="round" stroke-miterlimit="10" x1="96.75" y1="99.667" x2="107.75" y2="99.667"/>
			
				<line fill="#F2F7B5" stroke="#492D08" stroke-linecap="round" stroke-miterlimit="10" x1="102.25" y1="84.167" x2="102.25" y2="99.167"/>
			
				<circle fill="#F2F7B5" stroke="#492D08" stroke-width="0.5002" stroke-linecap="round" stroke-miterlimit="10" cx="103.099" cy="77.696" r="1.188"/>
			
				<circle fill="#F2F7B5" stroke="#492D08" stroke-width="0.5002" stroke-linecap="round" stroke-miterlimit="10" cx="105.246" cy="74.841" r="0.959"/>
			
				<circle fill="#F2F7B5" stroke="#492D08" stroke-width="0.5002" stroke-linecap="round" stroke-miterlimit="10" cx="103.203" cy="71.839" r="1.292"/>
			
				<circle fill="#F2F7B5" stroke="#492D08" stroke-width="0.5002" stroke-linecap="round" stroke-miterlimit="10" cx="105.538" cy="67.088" r="1.042"/>
			
				<circle fill="#F2F7B5" stroke="#492D08" stroke-width="0.5002" stroke-linecap="round" stroke-miterlimit="10" cx="106.059" cy="62.232" r="0.521"/>
			
				<circle fill="#F2F7B5" stroke="#492D08" stroke-width="0.5002" stroke-linecap="round" stroke-miterlimit="10" cx="103.745" cy="57.751" r="0.542"/>
			
				<circle fill="#F2F7B5" stroke="#492D08" stroke-width="0.5002" stroke-linecap="round" stroke-miterlimit="10" cx="110.706" cy="55.042" r="0.333"/>
			
				<circle fill="#F2F7B5" stroke="#492D08" stroke-width="0.5002" stroke-linecap="round" stroke-miterlimit="10" cx="107.059" cy="53.52" r="0.479"/>
			<polygon fill="#F2F7B5" stroke="#492D08" stroke-linecap="round" stroke-miterlimit="10" points="141.05,67.667 120.542,67.667 
				130.796,84.313 			"/>
			
				<line fill="#F2F7B5" stroke="#492D08" stroke-linecap="round" stroke-miterlimit="10" x1="136.75" y1="99.667" x2="125.75" y2="99.667"/>
			
				<line fill="#F2F7B5" stroke="#492D08" stroke-linecap="round" stroke-miterlimit="10" x1="131.25" y1="84.167" x2="131.25" y2="99.167"/>
			
				<circle fill="#F2F7B5" stroke="#492D08" stroke-width="0.5002" stroke-linecap="round" stroke-miterlimit="10" cx="129.483" cy="77.696" r="1.188"/>
			
				<circle fill="#F2F7B5" stroke="#492D08" stroke-width="0.5002" stroke-linecap="round" stroke-miterlimit="10" cx="127.336" cy="74.841" r="0.958"/>
			
				<circle fill="#F2F7B5" stroke="#492D08" stroke-width="0.5002" stroke-linecap="round" stroke-miterlimit="10" cx="129.379" cy="71.839" r="1.292"/>
			
				<circle fill="#F2F7B5" stroke="#492D08" stroke-width="0.5002" stroke-linecap="round" stroke-miterlimit="10" cx="127.045" cy="67.088" r="1.042"/>
			
				<circle fill="#F2F7B5" stroke="#492D08" stroke-width="0.5002" stroke-linecap="round" stroke-miterlimit="10" cx="126.524" cy="62.232" r="0.521"/>
			
				<circle fill="#F2F7B5" stroke="#492D08" stroke-width="0.5002" stroke-linecap="round" stroke-miterlimit="10" cx="128.837" cy="57.751" r="0.542"/>
			
				<circle fill="#F2F7B5" stroke="#492D08" stroke-width="0.5002" stroke-linecap="round" stroke-miterlimit="10" cx="121.876" cy="55.042" r="0.333"/>
			
				<circle fill="#F2F7B5" stroke="#492D08" stroke-width="0.5002" stroke-linecap="round" stroke-miterlimit="10" cx="125.523" cy="53.52" r="0.479"/>
		</g>
		<g>
			<g>
				<path fill="none" stroke="#416B6D" stroke-width="0.14" stroke-linecap="round" stroke-miterlimit="10" d="M58.138,65.634
					c-0.64,0.731-0.566,1.844,0.166,2.483c0.511,0.448,1.291,0.396,1.738-0.116c0.314-0.357,0.277-0.902-0.081-1.216
					c-0.251-0.22-0.632-0.194-0.852,0.057c-0.154,0.175-0.136,0.442,0.04,0.596c0.124,0.108,0.31,0.095,0.418-0.028
					c0.075-0.086,0.066-0.217-0.02-0.292c-0.061-0.053-0.151-0.046-0.205,0.014c-0.038,0.043-0.033,0.106,0.009,0.144"/>
				<path fill="#DBF7FC" stroke="#416B6D" stroke-width="0.14" stroke-linecap="round" stroke-miterlimit="10" d="M61.384,65.135
					c0,0-3.104-1.491-6.356-0.423c-1.805,0.603-3.529,1.854-2.173,3.658c1.356,1.806,3.497-1.191,4.79-2.295
					C58.939,64.971,61.384,65.135,61.384,65.135z"/>
				<path fill="none" stroke="#416B6D" stroke-width="0.14" stroke-linecap="round" stroke-miterlimit="10" d="M64.331,69.057
					c0.286-1.886-1.051-3.651-2.99-3.944"/>
				<path fill="none" stroke="#416B6D" stroke-width="0.14" stroke-linecap="round" stroke-miterlimit="10" d="M54.323,66.585
					c-0.103-0.825,2.041-1.772,4.794-2.119"/>
				<path fill="none" stroke="#416B6D" stroke-width="0.14" stroke-linecap="round" stroke-miterlimit="10" d="M55.259,67.295
					c-0.189-0.81,1.842-1.979,4.544-2.613"/>
				
					<circle fill="#73D100" stroke="#416B6D" stroke-width="0.14" stroke-linecap="round" stroke-miterlimit="10" cx="56.877" cy="68.57" r="0.56"/>
				
					<circle fill="#73D100" stroke="#416B6D" stroke-width="0.14" stroke-linecap="round" stroke-miterlimit="10" cx="55.607" cy="69.129" r="0.35"/>
				
					<circle fill="#73D100" stroke="#416B6D" stroke-width="0.14" stroke-linecap="round" stroke-miterlimit="10" cx="54.378" cy="69.637" r="0.327"/>
				
					<circle fill="#73D100" stroke="#416B6D" stroke-width="0.14" stroke-linecap="round" stroke-miterlimit="10" cx="53.238" cy="69.545" r="0.233"/>
				
					<circle fill="#73D100" stroke="#416B6D" stroke-width="0.14" stroke-linecap="round" stroke-miterlimit="10" cx="52.196" cy="68.789" r="0.367"/>
				
					<circle fill="#73D100" stroke="#416B6D" stroke-width="0.14" stroke-linecap="round" stroke-miterlimit="10" cx="50.8" cy="68.488" r="0.28"/>
				
					<circle fill="#73D100" stroke="#416B6D" stroke-width="0.14" stroke-linecap="round" stroke-miterlimit="10" cx="49.758" cy="67.869" r="0.303"/>
			</g>
			<g>
				<path fill="none" stroke="#416B6D" stroke-width="0.1133" stroke-linecap="round" stroke-miterlimit="10" d="M78.613,65.395
					c0.612,0.494,0.707,1.391,0.212,2.002c-0.346,0.428-0.974,0.495-1.401,0.149c-0.3-0.243-0.346-0.683-0.104-0.982
					c0.17-0.21,0.477-0.242,0.687-0.072c0.147,0.119,0.17,0.335,0.051,0.481c-0.083,0.103-0.233,0.118-0.336,0.035
					c-0.072-0.058-0.083-0.164-0.025-0.236c0.041-0.05,0.114-0.058,0.166-0.017c0.035,0.028,0.041,0.079,0.012,0.114"/>
				<path fill="#DBF7FC" stroke="#416B6D" stroke-width="0.1133" stroke-linecap="round" stroke-miterlimit="10" d="M75.958,65.445
					c0,0,2.267-1.618,5.007-1.219c1.522,0.231,3.069,0.99,2.238,2.616c-0.83,1.626-2.952-0.466-4.136-1.165
					C77.884,64.978,75.958,65.445,75.958,65.445z"/>
				<path fill="none" stroke="#416B6D" stroke-width="0.1133" stroke-linecap="round" stroke-miterlimit="10" d="M74.152,68.98
					c-0.49-1.464,0.331-3.056,1.835-3.56"/>
				<path fill="none" stroke="#416B6D" stroke-width="0.1133" stroke-linecap="round" stroke-miterlimit="10" d="M81.786,65.625
					c-0.031-0.673-1.871-1.131-4.114-1.026"/>
				<path fill="none" stroke="#416B6D" stroke-width="0.1133" stroke-linecap="round" stroke-miterlimit="10" d="M81.139,66.318
					c0.039-0.671-1.743-1.321-3.985-1.452"/>
				
					<circle fill="#73D100" stroke="#416B6D" stroke-width="0.1133" stroke-linecap="round" stroke-miterlimit="10" cx="80.025" cy="67.56" r="0.453"/>
				
					<circle fill="#73D100" stroke="#416B6D" stroke-width="0.1133" stroke-linecap="round" stroke-miterlimit="10" cx="81.115" cy="67.831" r="0.283"/>
				
					<circle fill="#73D100" stroke="#416B6D" stroke-width="0.1133" stroke-linecap="round" stroke-miterlimit="10" cx="82.164" cy="68.063" r="0.264"/>
				
					<circle fill="#73D100" stroke="#416B6D" stroke-width="0.1133" stroke-linecap="round" stroke-miterlimit="10" cx="83.062" cy="67.833" r="0.188"/>
				
					<circle fill="#73D100" stroke="#416B6D" stroke-width="0.1133" stroke-linecap="round" stroke-miterlimit="10" cx="83.787" cy="67.086" r="0.297"/>
				
					<circle fill="#73D100" stroke="#416B6D" stroke-width="0.1133" stroke-linecap="round" stroke-miterlimit="10" cx="84.859" cy="66.652" r="0.227"/>
				
					<circle fill="#73D100" stroke="#416B6D" stroke-width="0.1133" stroke-linecap="round" stroke-miterlimit="10" cx="85.603" cy="66.015" r="0.246"/>
			</g>
			<g>
				<g>
					<circle fill="#73D100" stroke="#416B6D" stroke-width="0.0765" stroke-miterlimit="10" cx="62.731" cy="70.667" r="0.281"/>
					<circle fill="#73D100" stroke="#416B6D" stroke-width="0.0765" stroke-miterlimit="10" cx="62.353" cy="70.204" r="0.28"/>
					<circle fill="#73D100" stroke="#416B6D" stroke-width="0.0765" stroke-miterlimit="10" cx="62.358" cy="69.669" r="0.28"/>
					<circle fill="#73D100" stroke="#416B6D" stroke-width="0.0765" stroke-miterlimit="10" cx="62.67" cy="69.137" r="0.281"/>
					<circle fill="#73D100" stroke="#416B6D" stroke-width="0.0765" stroke-miterlimit="10" cx="62.677" cy="68.449" r="0.28"/>
					<circle fill="#73D100" stroke="#416B6D" stroke-width="0.0765" stroke-miterlimit="10" cx="62.453" cy="67.912" r="0.28"/>
					<circle fill="#73D100" stroke="#416B6D" stroke-width="0.0765" stroke-miterlimit="10" cx="62.458" cy="67.376" r="0.28"/>
					<circle fill="#73D100" stroke="#416B6D" stroke-width="0.0765" stroke-miterlimit="10" cx="62.692" cy="66.92" r="0.281"/>
					<circle fill="#73D100" stroke="#416B6D" stroke-width="0.0765" stroke-miterlimit="10" cx="63.079" cy="66.465" r="0.28"/>
					<circle fill="#73D100" stroke="#416B6D" stroke-width="0.0765" stroke-miterlimit="10" cx="63.007" cy="65.929" r="0.28"/>
					<circle fill="#73D100" stroke="#416B6D" stroke-width="0.0765" stroke-miterlimit="10" cx="63.395" cy="65.398" r="0.28"/>
					<circle fill="#73D100" stroke="#416B6D" stroke-width="0.0765" stroke-miterlimit="10" cx="63.782" cy="64.943" r="0.28"/>
					<circle fill="#73D100" stroke="#416B6D" stroke-width="0.0765" stroke-miterlimit="10" cx="64.092" cy="64.563" r="0.28"/>
					<circle fill="#73D100" stroke="#416B6D" stroke-width="0.0765" stroke-miterlimit="10" cx="64.403" cy="64.032" r="0.28"/>
					<circle fill="#73D100" stroke="#416B6D" stroke-width="0.0765" stroke-miterlimit="10" cx="64.712" cy="63.652" r="0.28"/>
					<circle fill="#73D100" stroke="#416B6D" stroke-width="0.0765" stroke-miterlimit="10" cx="65.248" cy="63.658" r="0.281"/>
					<circle fill="#73D100" stroke="#416B6D" stroke-width="0.0765" stroke-miterlimit="10" cx="65.635" cy="63.203" r="0.28"/>
					<circle fill="#73D100" stroke="#416B6D" stroke-width="0.0765" stroke-miterlimit="10" cx="65.64" cy="62.668" r="0.28"/>
					<circle fill="#73D100" stroke="#416B6D" stroke-width="0.0765" stroke-miterlimit="10" cx="66.177" cy="62.444" r="0.28"/>
					<circle fill="#73D100" stroke="#416B6D" stroke-width="0.0765" stroke-miterlimit="10" cx="66.714" cy="62.296" r="0.281"/>
					<circle fill="#73D100" stroke="#416B6D" stroke-width="0.0765" stroke-miterlimit="10" cx="67.249" cy="62.302" r="0.28"/>
					<circle fill="#73D100" stroke="#416B6D" stroke-width="0.0765" stroke-miterlimit="10" cx="62.731" cy="70.667" r="0.281"/>
					<circle fill="#73D100" stroke="#416B6D" stroke-width="0.0765" stroke-miterlimit="10" cx="62.731" cy="70.667" r="0.281"/>
					<circle fill="#73D100" stroke="#416B6D" stroke-width="0.0765" stroke-miterlimit="10" cx="67.863" cy="62.155" r="0.28"/>
					<circle fill="#73D100" stroke="#416B6D" stroke-width="0.0765" stroke-miterlimit="10" cx="68.398" cy="62.161" r="0.281"/>
					<circle fill="#73D100" stroke="#416B6D" stroke-width="0.0765" stroke-miterlimit="10" cx="68.929" cy="62.472" r="0.281"/>
					<circle fill="#73D100" stroke="#416B6D" stroke-width="0.0765" stroke-miterlimit="10" cx="69.308" cy="62.857" r="0.28"/>
					<circle fill="#73D100" stroke="#416B6D" stroke-width="0.0765" stroke-miterlimit="10" cx="69.609" cy="63.319" r="0.28"/>
					<circle fill="#73D100" stroke="#416B6D" stroke-width="0.0765" stroke-miterlimit="10" cx="70.07" cy="63.171" r="0.281"/>
					<circle fill="#73D100" stroke="#416B6D" stroke-width="0.0765" stroke-miterlimit="10" cx="70.531" cy="62.87" r="0.28"/>
					<circle fill="#73D100" stroke="#416B6D" stroke-width="0.0765" stroke-miterlimit="10" cx="71.066" cy="62.952" r="0.281"/>
					<circle fill="#73D100" stroke="#416B6D" stroke-width="0.0765" stroke-miterlimit="10" cx="71.598" cy="63.263" r="0.28"/>
					<circle fill="#73D100" stroke="#416B6D" stroke-width="0.0765" stroke-miterlimit="10" cx="71.899" cy="63.725" r="0.28"/>
					<circle fill="#73D100" stroke="#416B6D" stroke-width="0.0765" stroke-miterlimit="10" cx="72.2" cy="64.187" r="0.28"/>
					<circle fill="#73D100" stroke="#416B6D" stroke-width="0.0765" stroke-miterlimit="10" cx="72.656" cy="64.497" r="0.28"/>
					<circle fill="#73D100" stroke="#416B6D" stroke-width="0.0765" stroke-miterlimit="10" cx="73.112" cy="64.73" r="0.281"/>
					<circle fill="#73D100" stroke="#416B6D" stroke-width="0.0765" stroke-miterlimit="10" cx="73.568" cy="65.041" r="0.281"/>
					<circle fill="#73D100" stroke="#416B6D" stroke-width="0.0765" stroke-miterlimit="10" cx="73.639" cy="65.577" r="0.28"/>
					<circle fill="#73D100" stroke="#416B6D" stroke-width="0.0765" stroke-miterlimit="10" cx="73.633" cy="66.112" r="0.28"/>
					<circle fill="#73D100" stroke="#416B6D" stroke-width="0.0765" stroke-miterlimit="10" cx="73.551" cy="66.723" r="0.281"/>
					<circle fill="#73D100" stroke="#416B6D" stroke-width="0.0765" stroke-miterlimit="10" cx="73.24" cy="67.178" r="0.28"/>
					<circle fill="#73D100" stroke="#416B6D" stroke-width="0.0765" stroke-miterlimit="10" cx="73.849" cy="67.49" r="0.28"/>
					<circle fill="#73D100" stroke="#416B6D" stroke-width="0.0765" stroke-miterlimit="10" cx="74.382" cy="67.725" r="0.28"/>
					<circle fill="#73D100" stroke="#416B6D" stroke-width="0.0765" stroke-miterlimit="10" cx="74.684" cy="68.111" r="0.28"/>
					<circle fill="#73D100" stroke="#416B6D" stroke-width="0.0765" stroke-miterlimit="10" cx="74.907" cy="68.724" r="0.281"/>
					<circle fill="#73D100" stroke="#416B6D" stroke-width="0.0765" stroke-miterlimit="10" cx="74.825" cy="69.258" r="0.281"/>
					<circle fill="#73D100" stroke="#416B6D" stroke-width="0.0765" stroke-miterlimit="10" cx="74.514" cy="69.791" r="0.28"/>
					<circle fill="#73D100" stroke="#416B6D" stroke-width="0.0765" stroke-miterlimit="10" cx="74.509" cy="70.326" r="0.28"/>
					<circle fill="#73D100" stroke="#416B6D" stroke-width="0.0765" stroke-miterlimit="10" cx="74.504" cy="70.862" r="0.28"/>
					<circle fill="#73D100" stroke="#416B6D" stroke-width="0.0765" stroke-miterlimit="10" cx="74.498" cy="71.396" r="0.28"/>
					<circle fill="#73D100" stroke="#416B6D" stroke-width="0.0765" stroke-miterlimit="10" cx="74.111" cy="71.928" r="0.281"/>
					<circle fill="#73D100" stroke="#416B6D" stroke-width="0.0765" stroke-miterlimit="10" cx="73.574" cy="72.075" r="0.28"/>
					<circle fill="#73D100" stroke="#416B6D" stroke-width="0.0765" stroke-miterlimit="10" cx="73.04" cy="71.918" r="0.28"/>
					<circle fill="#73D100" stroke="#416B6D" stroke-width="0.0765" stroke-miterlimit="10" cx="73.339" cy="72.608" r="0.281"/>
					<circle fill="#73D100" stroke="#416B6D" stroke-width="0.0765" stroke-miterlimit="10" cx="73.181" cy="73.142" r="0.28"/>
					<circle fill="#73D100" stroke="#416B6D" stroke-width="0.0765" stroke-miterlimit="10" cx="72.87" cy="73.674" r="0.281"/>
					<circle fill="#73D100" stroke="#416B6D" stroke-width="0.0765" stroke-miterlimit="10" cx="72.332" cy="73.897" r="0.28"/>
					<circle fill="#73D100" stroke="#416B6D" stroke-width="0.0765" stroke-miterlimit="10" cx="71.87" cy="74.275" r="0.28"/>
					<circle fill="#73D100" stroke="#416B6D" stroke-width="0.0765" stroke-miterlimit="10" cx="71.559" cy="74.731" r="0.28"/>
					<circle fill="#73D100" stroke="#416B6D" stroke-width="0.0765" stroke-miterlimit="10" cx="71.097" cy="75.032" r="0.28"/>
					<circle fill="#73D100" stroke="#416B6D" stroke-width="0.0765" stroke-miterlimit="10" cx="70.637" cy="75.181" r="0.281"/>
					<circle fill="#73D100" stroke="#416B6D" stroke-width="0.0765" stroke-miterlimit="10" cx="70.102" cy="75.175" r="0.28"/>
					<circle fill="#73D100" stroke="#416B6D" stroke-width="0.0765" stroke-miterlimit="10" cx="69.791" cy="75.707" r="0.28"/>
					<circle fill="#73D100" stroke="#416B6D" stroke-width="0.0765" stroke-miterlimit="10" cx="69.328" cy="76.161" r="0.28"/>
					<circle fill="#73D100" stroke="#416B6D" stroke-width="0.0765" stroke-miterlimit="10" cx="68.792" cy="76.156" r="0.28"/>
					<circle fill="#73D100" stroke="#416B6D" stroke-width="0.0765" stroke-miterlimit="10" cx="68.259" cy="75.998" r="0.281"/>
					<circle fill="#73D100" stroke="#416B6D" stroke-width="0.0765" stroke-miterlimit="10" cx="67.727" cy="75.687" r="0.28"/>
					<circle fill="#73D100" stroke="#416B6D" stroke-width="0.0765" stroke-miterlimit="10" cx="67.115" cy="75.68" r="0.28"/>
					<circle fill="#73D100" stroke="#416B6D" stroke-width="0.0765" stroke-miterlimit="10" cx="66.58" cy="75.599" r="0.28"/>
					<circle fill="#73D100" stroke="#416B6D" stroke-width="0.0765" stroke-miterlimit="10" cx="66.048" cy="75.44" r="0.28"/>
					<circle fill="#73D100" stroke="#416B6D" stroke-width="0.0765" stroke-miterlimit="10" cx="65.746" cy="74.979" r="0.28"/>
					<circle fill="#73D100" stroke="#416B6D" stroke-width="0.0765" stroke-miterlimit="10" cx="65.597" cy="74.519" r="0.281"/>
					<circle fill="#73D100" stroke="#416B6D" stroke-width="0.0765" stroke-miterlimit="10" cx="65.064" cy="74.36" r="0.281"/>
					<circle fill="#73D100" stroke="#416B6D" stroke-width="0.0765" stroke-miterlimit="10" cx="64.53" cy="74.202" r="0.28"/>
					<circle fill="#73D100" stroke="#416B6D" stroke-width="0.0765" stroke-miterlimit="10" cx="64.075" cy="73.892" r="0.28"/>
					<circle fill="#73D100" stroke="#416B6D" stroke-width="0.0765" stroke-miterlimit="10" cx="63.775" cy="73.354" r="0.28"/>
					<circle fill="#73D100" stroke="#416B6D" stroke-width="0.0765" stroke-miterlimit="10" cx="63.474" cy="72.815" r="0.28"/>
					<circle fill="#73D100" stroke="#416B6D" stroke-width="0.0765" stroke-miterlimit="10" cx="63.02" cy="72.352" r="0.28"/>
					<circle fill="#73D100" stroke="#416B6D" stroke-width="0.0765" stroke-miterlimit="10" cx="62.641" cy="71.967" r="0.28"/>
					<circle fill="#73D100" stroke="#416B6D" stroke-width="0.0765" stroke-miterlimit="10" cx="62.648" cy="71.278" r="0.28"/>
				</g>
				<path fill="#E0E0E0" stroke="#416B6D" stroke-width="0.0765" stroke-miterlimit="10" d="M69.584,63.889
					c0,0-0.184-1.468-0.95-1.586c-0.765-0.119-1.054,0.209-1.311,0.181c-0.257-0.028-1.069-0.139-1.453-0.015
					c-0.384,0.123-0.203,1.221-0.203,1.221s-0.851-0.289-1.109-0.011s-0.368,1.041-0.587,1.371c-0.22,0.328-0.935,0.462-1.042,0.912
					c-0.106,0.453,0.375,0.66,0.375,0.66s-0.767,0.272-0.888,0.908c-0.121,0.637,0.412,0.897,0.408,1.292
					c-0.005,0.396-0.594,0.721-0.433,1.219c0.16,0.499,0.874,0.468,0.874,0.468s-0.899,0.743-0.549,1.37
					c0.351,0.629,0.681,0.683,1.022,1.044c0.34,0.359,0.155,1.097,0.713,1.268c0.56,0.172,1.226-0.159,1.226-0.159
					s0.062,1.409,0.558,1.515c0.497,0.108,0.448-0.097,1.262,0.014c0.814,0.11,0.835,0.568,1.678,0.438
					c0.842-0.133,0.738-1.254,0.738-1.254s0.693,0.693,1.413,0.165c0.72-0.527,0.466-0.708,0.852-1.062
					c0.385-0.353,0.357,0.003,0.885-0.603c0.529-0.606-0.309-1.608-0.309-1.608s1.354,0.318,1.665-0.251
					c0.312-0.571,0.061-1.032,0.015-1.492c-0.046-0.458,0.337-0.632,0.246-1.679c-0.092-1.045-2.248-0.749-2.248-0.749
					s1.731-1.091,1.319-1.859c-0.413-0.769-1.148-1.185-1.477-1.442c-0.329-0.258-0.526-0.999-1.249-1.274
					C70.305,62.615,69.584,63.889,69.584,63.889z"/>
				<path fill="#DBF7FC" stroke="#416B6D" stroke-width="0.0912" stroke-miterlimit="10" d="M68.389,69.373
					c0,0,5.322-2.548,4.973-3.339c-0.349-0.789-1.492-0.418-1.722-0.933c-0.229-0.513,0.304-0.691-0.604-1.355
					c-0.908-0.664-3.418,4.886-3.418,4.886l0.078,0.808L68.389,69.373z"/>
				<path fill="#DBF7FC" stroke="#416B6D" stroke-width="0.0765" stroke-miterlimit="10" d="M69.168,68.98
					c0,0,4.819-1.087,4.997-0.385c0.179,0.7-0.77,1.041-0.655,1.5c0.114,0.458,0.556,0.296,0.301,1.202
					c-0.255,0.908-4.783-1.453-4.783-1.453l-0.352-0.549L69.168,68.98z"/>
				<path fill="#DBF7FC" stroke="#416B6D" stroke-width="0.0765" stroke-miterlimit="10" d="M68.938,69.994
					c0,0,4.114,2.194,3.809,2.806c-0.305,0.61-1.193,0.27-1.394,0.668c-0.2,0.397,0.215,0.554-0.525,1.045
					c-0.742,0.491-2.522-3.986-2.522-3.986l0.088-0.61L68.938,69.994z"/>
				<path fill="#DBF7FC" stroke="#416B6D" stroke-width="0.0765" stroke-miterlimit="10" d="M68.254,67.876
					c0,0,1.277-4.78,0.583-4.987c-0.694-0.207-1.08,0.723-1.533,0.589s-0.275-0.571-1.193-0.354c-0.918,0.217,1.25,4.841,1.25,4.841
					l0.558,0.391L68.254,67.876z"/>
				<path fill="#DBF7FC" stroke="#416B6D" stroke-width="0.0765" stroke-miterlimit="10" d="M67.356,67.736
					c0,0-1.752-3.523-2.276-3.28c-0.522,0.243-0.255,1.001-0.596,1.159c-0.34,0.161-0.462-0.194-0.895,0.419
					c-0.431,0.614,3.304,2.224,3.304,2.224l0.517-0.061L67.356,67.736z"/>
				<path fill="#DBF7FC" stroke="#416B6D" stroke-width="0.0765" stroke-miterlimit="10" d="M67.67,68.896
					c0,0-4.114-2.195-4.451-1.601c-0.338,0.593,0.441,1.141,0.222,1.529s-0.58,0.13-0.575,1.019
					c0.005,0.891,4.716-0.127,4.716-0.127l0.457-0.412L67.67,68.896z"/>
				<path fill="#DBF7FC" stroke="#416B6D" stroke-width="0.0765" stroke-miterlimit="10" d="M68.493,70.683
					c0,0,0.913,4.431,0.268,4.582s-0.941-0.724-1.362-0.626c-0.422,0.097-0.281,0.505-1.107,0.256
					c-0.826-0.249,1.414-4.354,1.414-4.354l0.509-0.312L68.493,70.683z"/>
				<path fill="#DBF7FC" stroke="#416B6D" stroke-width="0.0765" stroke-miterlimit="10" d="M67.569,70.454
					c0,0-2.079,3.729-2.634,3.439c-0.554-0.289-0.226-1.098-0.586-1.287c-0.362-0.189-0.512,0.188-0.949-0.5
					c-0.437-0.688,3.694-2.24,3.694-2.24l0.556,0.091L67.569,70.454z"/>
				<path fill="none" stroke="#416B6D" stroke-width="0.0765" stroke-miterlimit="10" d="M66.796,65.592
					c-0.004,0.424,0.235,0.77,0.536,0.772"/>
				<path fill="none" stroke="#416B6D" stroke-width="0.0765" stroke-miterlimit="10" d="M67.633,66.235
					c0.003-0.445-0.045-0.806-0.109-0.807"/>
				<path fill="none" stroke="#416B6D" stroke-width="0.0765" stroke-miterlimit="10" d="M66.547,67.006
					c0.003-0.326-0.305-0.594-0.691-0.597"/>
				<path fill="none" stroke="#416B6D" stroke-width="0.0765" stroke-miterlimit="10" d="M66.17,67.22
					c0.001-0.136-0.277-0.249-0.621-0.251"/>
				<path fill="none" stroke="#416B6D" stroke-width="0.0765" stroke-miterlimit="10" d="M65.752,68.722
					c0.002-0.215-0.398-0.392-0.896-0.396"/>
				<path fill="none" stroke="#416B6D" stroke-width="0.0765" stroke-miterlimit="10" d="M65.834,69.568
					c0,0.085-0.278,0.15-0.622,0.146"/>
				<path fill="none" stroke="#416B6D" stroke-width="0.0765" stroke-miterlimit="10" d="M65.852,71.019
					c-0.001,0.113-0.375,0.2-0.833,0.195"/>
				<path fill="none" stroke="#416B6D" stroke-width="0.0765" stroke-miterlimit="10" d="M66.369,71.414
					c-0.005,0.479-0.242,0.863-0.529,0.86"/>
				<path fill="none" stroke="#416B6D" stroke-width="0.0765" stroke-miterlimit="10" d="M65.503,71.676
					c0.001-0.148,0.388-0.267,0.865-0.262"/>
				<path fill="none" stroke="#416B6D" stroke-width="0.0765" stroke-miterlimit="10" d="M67.513,72.292
					c-0.004,0.474-0.116,0.858-0.25,0.856"/>
				<path fill="none" stroke="#416B6D" stroke-width="0.0765" stroke-miterlimit="10" d="M68.143,72.298
					c-0.005,0.475,0.058,0.859,0.14,0.86"/>
				<path fill="none" stroke="#416B6D" stroke-width="0.0765" stroke-miterlimit="10" d="M67.767,72.294
					c-0.006,0.622-0.066,1.126-0.134,1.126"/>
				<path fill="none" stroke="#416B6D" stroke-width="0.0765" stroke-miterlimit="10" d="M69.263,71.876
					c-0.004,0.477,0.216,0.864,0.494,0.867"/>
				<path fill="none" stroke="#416B6D" stroke-width="0.0765" stroke-miterlimit="10" d="M69.648,71.583
					c-0.004,0.36,0.209,0.653,0.476,0.656"/>
				<path fill="none" stroke="#416B6D" stroke-width="0.0765" stroke-miterlimit="10" d="M69.935,71.264
					c-0.002,0.178,0.286,0.324,0.643,0.327"/>
				<path fill="none" stroke="#416B6D" stroke-width="0.0765" stroke-miterlimit="10" d="M70.882,69.164
					c0.001-0.11,0.552-0.193,1.232-0.187"/>
				<path fill="none" stroke="#416B6D" stroke-width="0.0765" stroke-miterlimit="10" d="M70.878,69.618
					c0,0.043,0.652,0.084,1.458,0.092"/>
				<path fill="none" stroke="#416B6D" stroke-width="0.0765" stroke-miterlimit="10" d="M70.833,69.939
					c-0.002,0.188,0.291,0.341,0.653,0.345"/>
				<path fill="none" stroke="#416B6D" stroke-width="0.0765" stroke-miterlimit="10" d="M69.569,66.445
					c-0.006,0.638-0.21,1.151-0.454,1.148"/>
				<path fill="none" stroke="#416B6D" stroke-width="0.0765" stroke-miterlimit="10" d="M69.556,67.79
					c0.004-0.363,0.461-0.655,1.022-0.648"/>
				<path fill="none" stroke="#416B6D" stroke-width="0.0765" stroke-miterlimit="10" d="M69.763,68.068
					c0.001-0.152,0.237-0.274,0.529-0.271"/>
				<path fill="none" stroke="#73D100" stroke-width="0.1529" stroke-miterlimit="10" d="M67.491,68.715
					c-0.005,0.564-0.468,1.019-1.033,1.014c-0.396-0.006-0.713-0.329-0.709-0.724c0.003-0.276,0.229-0.499,0.507-0.496
					c0.193,0.002,0.349,0.161,0.347,0.354c-0.001,0.137-0.113,0.245-0.248,0.243c-0.095-0.001-0.171-0.078-0.17-0.174
					c0.001-0.064,0.055-0.119,0.122-0.119c0.047,0.001,0.084,0.039,0.083,0.086"/>
				<path fill="none" stroke="#73D100" stroke-width="0.1529" stroke-miterlimit="10" d="M67.272,69.97
					c0.251,0.505,0.045,1.119-0.46,1.37c-0.354,0.177-0.784,0.033-0.959-0.321c-0.124-0.248-0.023-0.549,0.226-0.672
					c0.173-0.087,0.383-0.016,0.471,0.157c0.059,0.121,0.01,0.27-0.112,0.33c-0.084,0.041-0.188,0.007-0.229-0.079
					c-0.03-0.058-0.006-0.131,0.054-0.16c0.042-0.021,0.092-0.003,0.113,0.037"/>
				<path fill="none" stroke="#73D100" stroke-width="0.1529" stroke-miterlimit="10" d="M68.276,69.02
					c-0.217-0.521,0.03-1.121,0.552-1.338c0.365-0.151,0.784,0.021,0.936,0.387c0.106,0.255-0.015,0.549-0.27,0.655
					c-0.179,0.074-0.384-0.011-0.459-0.189c-0.051-0.125,0.008-0.269,0.132-0.321c0.088-0.035,0.189,0.006,0.225,0.094
					c0.026,0.061-0.003,0.131-0.064,0.156c-0.042,0.019-0.092-0.002-0.11-0.045"/>
				<path fill="none" stroke="#73D100" stroke-width="0.1529" stroke-miterlimit="10" d="M69.095,69.625
					c0.196-0.529,0.785-0.801,1.314-0.604c0.37,0.137,0.56,0.548,0.423,0.919c-0.096,0.26-0.384,0.393-0.644,0.296
					c-0.181-0.066-0.274-0.269-0.208-0.449c0.047-0.128,0.188-0.193,0.316-0.146c0.088,0.033,0.134,0.132,0.102,0.221
					c-0.023,0.063-0.092,0.095-0.155,0.072c-0.043-0.017-0.066-0.065-0.05-0.108"/>
				<path fill="none" stroke="#73D100" stroke-width="0.1529" stroke-miterlimit="10" d="M68.617,70.128
					c0.537-0.171,1.113,0.125,1.286,0.662c0.12,0.376-0.087,0.78-0.463,0.899c-0.264,0.085-0.546-0.06-0.63-0.324
					c-0.059-0.184,0.042-0.381,0.227-0.44c0.129-0.041,0.267,0.031,0.309,0.159c0.03,0.09-0.021,0.188-0.111,0.216
					c-0.064,0.021-0.131-0.015-0.151-0.078c-0.014-0.043,0.011-0.091,0.054-0.106"/>
				<path fill="none" stroke="#73D100" stroke-width="0.1529" stroke-miterlimit="10" d="M67.035,68.124
					c-0.38,0.093-0.762-0.141-0.854-0.521c-0.064-0.267,0.1-0.534,0.366-0.597c0.187-0.046,0.374,0.069,0.418,0.255
					c0.032,0.131-0.049,0.262-0.179,0.293c-0.09,0.021-0.182-0.033-0.205-0.126c-0.015-0.063,0.023-0.128,0.088-0.143
					c0.044-0.011,0.09,0.017,0.1,0.062c0.007,0.031-0.012,0.062-0.043,0.071"/>
				<path fill="none" stroke="#73D100" stroke-width="0.1529" stroke-miterlimit="10" d="M67.5,70.549
					c0.564,0.014,1.012,0.481,0.999,1.046c-0.009,0.396-0.336,0.708-0.732,0.699c-0.277-0.007-0.496-0.236-0.489-0.513
					c0.004-0.193,0.165-0.347,0.359-0.343c0.135,0.003,0.242,0.116,0.239,0.251c-0.001,0.096-0.081,0.171-0.175,0.168
					c-0.067-0.001-0.119-0.056-0.118-0.123c0.002-0.046,0.04-0.083,0.087-0.081"/>
				<path fill="none" stroke="#73D100" stroke-width="0.1529" stroke-miterlimit="10" d="M67.766,68.021
					c-0.539-0.17-0.838-0.744-0.667-1.283c0.119-0.376,0.521-0.586,0.898-0.467c0.264,0.083,0.41,0.364,0.327,0.629
					c-0.059,0.185-0.256,0.286-0.44,0.229c-0.129-0.041-0.201-0.179-0.16-0.309c0.029-0.09,0.125-0.14,0.216-0.111
					c0.063,0.021,0.099,0.087,0.078,0.15c-0.014,0.045-0.061,0.069-0.105,0.055"/>
				<circle fill="#73D100" stroke="#416B6D" stroke-width="0.0765" stroke-miterlimit="10" cx="67.791" cy="69.242" r="1.262"/>
				<circle fill="#DBF7FC" stroke="#416B6D" stroke-width="0.0765" stroke-miterlimit="10" cx="67.791" cy="69.242" r="0.774"/>
				<path fill="none" stroke="#416B6D" stroke-width="0.0765" stroke-miterlimit="10" d="M65.622,69.134
					c0,0.084-0.278,0.151-0.621,0.146"/>
				<path fill="none" stroke="#416B6D" stroke-width="0.0765" stroke-miterlimit="10" d="M67.925,66.137
					c0.136-0.007,0.232-0.29,0.216-0.634"/>
			</g>
		</g>
	</g>
	
		<circle display="inline" fill="none" stroke="#E83658" stroke-linecap="round" stroke-miterlimit="10" stroke-dasharray="4.3733" cx="91.458" cy="91.298" r="84.202"/>
	
		<circle display="inline" fill="#FFFFFF" stroke="#E83658" stroke-linecap="round" stroke-miterlimit="10" stroke-dasharray="4.6311" cx="322.99" cy="42.298" r="89.166"/>
	<g display="inline">
		<text transform="matrix(1 0 0 1 288.8613 92.9189)" fill="#E83658" font-family="'DeGenerate'" font-size="15.8377">Dining Out</text>
		<g>
			<g>
				<path fill="#F2F7B5" stroke="#492D08" stroke-width="0.5002" stroke-linecap="round" stroke-miterlimit="10" d="M324.533-7.011
					l4.418,4.676c0,0-2.168,1.513-5.669,6.886c-3.501,5.371-6.341,9.605-6.341,9.605l-15.172-2.55l5.257-6.632
					c0,0,6.922-2.23,11.165-6.12C322.434-5.036,324.533-7.011,324.533-7.011z"/>
				<polygon fill="#416B6D" points="277.266,5.167 323.282,5.167 316.529,51.167 284.018,51.167 				"/>
				
					<ellipse fill="none" stroke="#416B6D" stroke-width="5.051" stroke-miterlimit="10" cx="280.018" cy="17.642" rx="7.086" ry="7.226"/>
				
					<ellipse fill="none" stroke="#416B6D" stroke-width="5.051" stroke-miterlimit="10" cx="321.031" cy="17.642" rx="7.086" ry="7.226"/>
				
					<line fill="none" stroke="#DBF7FC" stroke-width="2.0204" stroke-linecap="round" stroke-miterlimit="10" x1="281.836" y1="35.582" x2="318.691" y2="35.468"/>
				
					<line fill="none" stroke="#DBF7FC" stroke-width="2.0204" stroke-linecap="round" stroke-miterlimit="10" x1="282.837" y1="41.192" x2="317.441" y2="41.078"/>
				<path fill="#F2F7B5" stroke="#492D08" stroke-width="0.5002" stroke-linecap="round" stroke-miterlimit="10" d="M326.033-8.881
					l4.668,4.846c0,0,6.836-4.931,3.461-8.161C330.785-15.427,326.033-8.881,326.033-8.881z"/>
				<polygon fill="#F2F7B5" stroke="#492D08" stroke-linecap="round" stroke-miterlimit="10" points="323.531,18.667 
					344.039,18.667 333.785,35.313 				"/>
				
					<line fill="#F2F7B5" stroke="#492D08" stroke-linecap="round" stroke-miterlimit="10" x1="328.75" y1="50.667" x2="339.75" y2="50.667"/>
				
					<line fill="#F2F7B5" stroke="#492D08" stroke-linecap="round" stroke-miterlimit="10" x1="334.25" y1="35.167" x2="334.25" y2="50.167"/>
				
					<circle fill="#F2F7B5" stroke="#492D08" stroke-width="0.5002" stroke-linecap="round" stroke-miterlimit="10" cx="335.099" cy="28.696" r="1.188"/>
				
					<circle fill="#F2F7B5" stroke="#492D08" stroke-width="0.5002" stroke-linecap="round" stroke-miterlimit="10" cx="337.246" cy="25.841" r="0.959"/>
				
					<circle fill="#F2F7B5" stroke="#492D08" stroke-width="0.5002" stroke-linecap="round" stroke-miterlimit="10" cx="335.203" cy="22.839" r="1.293"/>
				
					<circle fill="#F2F7B5" stroke="#492D08" stroke-width="0.5002" stroke-linecap="round" stroke-miterlimit="10" cx="337.538" cy="18.088" r="1.042"/>
				
					<circle fill="#F2F7B5" stroke="#492D08" stroke-width="0.5002" stroke-linecap="round" stroke-miterlimit="10" cx="338.059" cy="13.232" r="0.521"/>
				
					<circle fill="#F2F7B5" stroke="#492D08" stroke-width="0.5002" stroke-linecap="round" stroke-miterlimit="10" cx="335.745" cy="8.751" r="0.542"/>
				
					<circle fill="#F2F7B5" stroke="#492D08" stroke-width="0.5002" stroke-linecap="round" stroke-miterlimit="10" cx="342.706" cy="6.042" r="0.333"/>
				
					<circle fill="#F2F7B5" stroke="#492D08" stroke-width="0.5002" stroke-linecap="round" stroke-miterlimit="10" cx="339.059" cy="4.52" r="0.479"/>
				<polygon fill="#F2F7B5" stroke="#492D08" stroke-linecap="round" stroke-miterlimit="10" points="373.05,18.667 352.543,18.667 
					362.796,35.313 				"/>
				
					<line fill="#F2F7B5" stroke="#492D08" stroke-linecap="round" stroke-miterlimit="10" x1="368.75" y1="50.667" x2="357.75" y2="50.667"/>
				
					<line fill="#F2F7B5" stroke="#492D08" stroke-linecap="round" stroke-miterlimit="10" x1="363.25" y1="35.167" x2="363.25" y2="50.167"/>
				
					<circle fill="#F2F7B5" stroke="#492D08" stroke-width="0.5002" stroke-linecap="round" stroke-miterlimit="10" cx="361.483" cy="28.696" r="1.188"/>
				
					<circle fill="#F2F7B5" stroke="#492D08" stroke-width="0.5002" stroke-linecap="round" stroke-miterlimit="10" cx="359.336" cy="25.841" r="0.958"/>
				
					<circle fill="#F2F7B5" stroke="#492D08" stroke-width="0.5002" stroke-linecap="round" stroke-miterlimit="10" cx="361.379" cy="22.839" r="1.292"/>
				
					<circle fill="#F2F7B5" stroke="#492D08" stroke-width="0.5002" stroke-linecap="round" stroke-miterlimit="10" cx="359.045" cy="18.088" r="1.042"/>
				
					<circle fill="#F2F7B5" stroke="#492D08" stroke-width="0.5002" stroke-linecap="round" stroke-miterlimit="10" cx="358.524" cy="13.232" r="0.521"/>
				
					<circle fill="#F2F7B5" stroke="#492D08" stroke-width="0.5002" stroke-linecap="round" stroke-miterlimit="10" cx="360.837" cy="8.751" r="0.542"/>
				
					<circle fill="#F2F7B5" stroke="#492D08" stroke-width="0.5002" stroke-linecap="round" stroke-miterlimit="10" cx="353.876" cy="6.042" r="0.333"/>
				
					<circle fill="#F2F7B5" stroke="#492D08" stroke-width="0.5002" stroke-linecap="round" stroke-miterlimit="10" cx="357.523" cy="4.52" r="0.479"/>
			</g>
			<g>
				<g>
					<path fill="none" stroke="#416B6D" stroke-width="0.14" stroke-linecap="round" stroke-miterlimit="10" d="M290.139,16.634
						c-0.641,0.731-0.566,1.844,0.166,2.483c0.511,0.448,1.29,0.396,1.737-0.116c0.314-0.357,0.277-0.902-0.081-1.216
						c-0.25-0.22-0.632-0.194-0.852,0.057c-0.154,0.175-0.136,0.442,0.039,0.596c0.124,0.108,0.311,0.095,0.418-0.028
						c0.075-0.086,0.066-0.217-0.02-0.292c-0.061-0.053-0.15-0.046-0.204,0.014c-0.038,0.043-0.032,0.106,0.009,0.144"/>
					<path fill="#DBF7FC" stroke="#416B6D" stroke-width="0.14" stroke-linecap="round" stroke-miterlimit="10" d="M293.384,16.135
						c0,0-3.104-1.491-6.356-0.423c-1.805,0.603-3.528,1.854-2.172,3.658c1.355,1.806,3.496-1.191,4.789-2.295
						C290.939,15.971,293.384,16.135,293.384,16.135z"/>
					<path fill="none" stroke="#416B6D" stroke-width="0.14" stroke-linecap="round" stroke-miterlimit="10" d="M296.331,20.057
						c0.286-1.886-1.052-3.651-2.989-3.944"/>
					<path fill="none" stroke="#416B6D" stroke-width="0.14" stroke-linecap="round" stroke-miterlimit="10" d="M286.322,17.585
						c-0.103-0.825,2.041-1.772,4.795-2.119"/>
					<path fill="none" stroke="#416B6D" stroke-width="0.14" stroke-linecap="round" stroke-miterlimit="10" d="M287.259,18.295
						c-0.189-0.81,1.842-1.979,4.544-2.613"/>
					
						<circle fill="#73D100" stroke="#416B6D" stroke-width="0.14" stroke-linecap="round" stroke-miterlimit="10" cx="288.878" cy="19.57" r="0.56"/>
					
						<circle fill="#73D100" stroke="#416B6D" stroke-width="0.14" stroke-linecap="round" stroke-miterlimit="10" cx="287.607" cy="20.129" r="0.35"/>
					
						<circle fill="#73D100" stroke="#416B6D" stroke-width="0.14" stroke-linecap="round" stroke-miterlimit="10" cx="286.378" cy="20.637" r="0.326"/>
					
						<circle fill="#73D100" stroke="#416B6D" stroke-width="0.14" stroke-linecap="round" stroke-miterlimit="10" cx="285.237" cy="20.545" r="0.233"/>
					
						<circle fill="#73D100" stroke="#416B6D" stroke-width="0.14" stroke-linecap="round" stroke-miterlimit="10" cx="284.196" cy="19.789" r="0.367"/>
					
						<circle fill="#73D100" stroke="#416B6D" stroke-width="0.14" stroke-linecap="round" stroke-miterlimit="10" cx="282.8" cy="19.488" r="0.281"/>
					
						<circle fill="#73D100" stroke="#416B6D" stroke-width="0.14" stroke-linecap="round" stroke-miterlimit="10" cx="281.758" cy="18.869" r="0.303"/>
				</g>
				<g>
					<path fill="none" stroke="#416B6D" stroke-width="0.1133" stroke-linecap="round" stroke-miterlimit="10" d="M310.613,16.395
						c0.611,0.494,0.707,1.391,0.211,2.002c-0.346,0.428-0.973,0.495-1.4,0.149c-0.301-0.243-0.346-0.683-0.104-0.982
						c0.17-0.21,0.477-0.242,0.686-0.072c0.148,0.119,0.171,0.335,0.051,0.481c-0.082,0.103-0.232,0.118-0.336,0.035
						c-0.072-0.058-0.083-0.164-0.025-0.236c0.041-0.05,0.115-0.058,0.166-0.017c0.035,0.028,0.041,0.079,0.012,0.114"/>
					<path fill="#DBF7FC" stroke="#416B6D" stroke-width="0.1133" stroke-linecap="round" stroke-miterlimit="10" d="
						M307.957,16.445c0,0,2.268-1.618,5.008-1.219c1.521,0.231,3.069,0.99,2.238,2.616c-0.83,1.626-2.952-0.466-4.137-1.165
						C309.884,15.978,307.957,16.445,307.957,16.445z"/>
					<path fill="none" stroke="#416B6D" stroke-width="0.1133" stroke-linecap="round" stroke-miterlimit="10" d="M306.152,19.98
						c-0.49-1.464,0.33-3.056,1.835-3.56"/>
					<path fill="none" stroke="#416B6D" stroke-width="0.1133" stroke-linecap="round" stroke-miterlimit="10" d="M313.785,16.625
						c-0.031-0.673-1.871-1.131-4.113-1.026"/>
					<path fill="none" stroke="#416B6D" stroke-width="0.1133" stroke-linecap="round" stroke-miterlimit="10" d="M313.139,17.318
						c0.039-0.671-1.742-1.321-3.984-1.452"/>
					
						<circle fill="#73D100" stroke="#416B6D" stroke-width="0.1133" stroke-linecap="round" stroke-miterlimit="10" cx="312.025" cy="18.56" r="0.453"/>
					
						<circle fill="#73D100" stroke="#416B6D" stroke-width="0.1133" stroke-linecap="round" stroke-miterlimit="10" cx="313.115" cy="18.831" r="0.284"/>
					
						<circle fill="#73D100" stroke="#416B6D" stroke-width="0.1133" stroke-linecap="round" stroke-miterlimit="10" cx="314.164" cy="19.063" r="0.264"/>
					
						<circle fill="#73D100" stroke="#416B6D" stroke-width="0.1133" stroke-linecap="round" stroke-miterlimit="10" cx="315.062" cy="18.833" r="0.189"/>
					
						<circle fill="#73D100" stroke="#416B6D" stroke-width="0.1133" stroke-linecap="round" stroke-miterlimit="10" cx="315.787" cy="18.086" r="0.297"/>
					
						<circle fill="#73D100" stroke="#416B6D" stroke-width="0.1133" stroke-linecap="round" stroke-miterlimit="10" cx="316.859" cy="17.652" r="0.227"/>
					
						<circle fill="#73D100" stroke="#416B6D" stroke-width="0.1133" stroke-linecap="round" stroke-miterlimit="10" cx="317.603" cy="17.015" r="0.245"/>
				</g>
				<g>
					<g>
						<circle fill="#73D100" stroke="#416B6D" stroke-width="0.0765" stroke-miterlimit="10" cx="294.731" cy="21.667" r="0.281"/>
						<circle fill="#73D100" stroke="#416B6D" stroke-width="0.0765" stroke-miterlimit="10" cx="294.353" cy="21.204" r="0.28"/>
						<circle fill="#73D100" stroke="#416B6D" stroke-width="0.0765" stroke-miterlimit="10" cx="294.358" cy="20.669" r="0.28"/>
						<circle fill="#73D100" stroke="#416B6D" stroke-width="0.0765" stroke-miterlimit="10" cx="294.669" cy="20.137" r="0.281"/>
						<circle fill="#73D100" stroke="#416B6D" stroke-width="0.0765" stroke-miterlimit="10" cx="294.677" cy="19.449" r="0.28"/>
						<circle fill="#73D100" stroke="#416B6D" stroke-width="0.0765" stroke-miterlimit="10" cx="294.452" cy="18.912" r="0.28"/>
						<circle fill="#73D100" stroke="#416B6D" stroke-width="0.0765" stroke-miterlimit="10" cx="294.458" cy="18.376" r="0.28"/>
						<circle fill="#73D100" stroke="#416B6D" stroke-width="0.0765" stroke-miterlimit="10" cx="294.692" cy="17.92" r="0.28"/>
						<circle fill="#73D100" stroke="#416B6D" stroke-width="0.0765" stroke-miterlimit="10" cx="295.079" cy="17.465" r="0.28"/>
						<circle fill="#73D100" stroke="#416B6D" stroke-width="0.0765" stroke-miterlimit="10" cx="295.007" cy="16.929" r="0.28"/>
						<circle fill="#73D100" stroke="#416B6D" stroke-width="0.0765" stroke-miterlimit="10" cx="295.396" cy="16.398" r="0.28"/>
						<circle fill="#73D100" stroke="#416B6D" stroke-width="0.0765" stroke-miterlimit="10" cx="295.782" cy="15.943" r="0.28"/>
						<circle fill="#73D100" stroke="#416B6D" stroke-width="0.0765" stroke-miterlimit="10" cx="296.092" cy="15.563" r="0.279"/>
						<circle fill="#73D100" stroke="#416B6D" stroke-width="0.0765" stroke-miterlimit="10" cx="296.403" cy="15.032" r="0.28"/>
						<circle fill="#73D100" stroke="#416B6D" stroke-width="0.0765" stroke-miterlimit="10" cx="296.712" cy="14.652" r="0.28"/>
						<circle fill="#73D100" stroke="#416B6D" stroke-width="0.0765" stroke-miterlimit="10" cx="297.248" cy="14.658" r="0.281"/>
						<circle fill="#73D100" stroke="#416B6D" stroke-width="0.0765" stroke-miterlimit="10" cx="297.634" cy="14.203" r="0.28"/>
						<circle fill="#73D100" stroke="#416B6D" stroke-width="0.0765" stroke-miterlimit="10" cx="297.64" cy="13.668" r="0.28"/>
						<circle fill="#73D100" stroke="#416B6D" stroke-width="0.0765" stroke-miterlimit="10" cx="298.177" cy="13.444" r="0.28"/>
						<circle fill="#73D100" stroke="#416B6D" stroke-width="0.0765" stroke-miterlimit="10" cx="298.714" cy="13.296" r="0.28"/>
						<circle fill="#73D100" stroke="#416B6D" stroke-width="0.0765" stroke-miterlimit="10" cx="299.249" cy="13.302" r="0.28"/>
						<circle fill="#73D100" stroke="#416B6D" stroke-width="0.0765" stroke-miterlimit="10" cx="294.731" cy="21.667" r="0.281"/>
						<circle fill="#73D100" stroke="#416B6D" stroke-width="0.0765" stroke-miterlimit="10" cx="294.731" cy="21.667" r="0.281"/>
						<circle fill="#73D100" stroke="#416B6D" stroke-width="0.0765" stroke-miterlimit="10" cx="299.862" cy="13.155" r="0.28"/>
						<circle fill="#73D100" stroke="#416B6D" stroke-width="0.0765" stroke-miterlimit="10" cx="300.397" cy="13.161" r="0.28"/>
						<circle fill="#73D100" stroke="#416B6D" stroke-width="0.0765" stroke-miterlimit="10" cx="300.929" cy="13.472" r="0.281"/>
						<circle fill="#73D100" stroke="#416B6D" stroke-width="0.0765" stroke-miterlimit="10" cx="301.308" cy="13.857" r="0.28"/>
						<circle fill="#73D100" stroke="#416B6D" stroke-width="0.0765" stroke-miterlimit="10" cx="301.609" cy="14.319" r="0.28"/>
						<circle fill="#73D100" stroke="#416B6D" stroke-width="0.0765" stroke-miterlimit="10" cx="302.069" cy="14.171" r="0.28"/>
						<circle fill="#73D100" stroke="#416B6D" stroke-width="0.0765" stroke-miterlimit="10" cx="302.531" cy="13.87" r="0.28"/>
						<circle fill="#73D100" stroke="#416B6D" stroke-width="0.0765" stroke-miterlimit="10" cx="303.065" cy="13.952" r="0.28"/>
						<circle fill="#73D100" stroke="#416B6D" stroke-width="0.0765" stroke-miterlimit="10" cx="303.598" cy="14.263" r="0.28"/>
						<circle fill="#73D100" stroke="#416B6D" stroke-width="0.0765" stroke-miterlimit="10" cx="303.899" cy="14.725" r="0.28"/>
						<circle fill="#73D100" stroke="#416B6D" stroke-width="0.0765" stroke-miterlimit="10" cx="304.201" cy="15.187" r="0.28"/>
						<circle fill="#73D100" stroke="#416B6D" stroke-width="0.0765" stroke-miterlimit="10" cx="304.656" cy="15.497" r="0.28"/>
						<circle fill="#73D100" stroke="#416B6D" stroke-width="0.0765" stroke-miterlimit="10" cx="305.112" cy="15.73" r="0.28"/>
						<circle fill="#73D100" stroke="#416B6D" stroke-width="0.0765" stroke-miterlimit="10" cx="305.567" cy="16.041" r="0.28"/>
						<circle fill="#73D100" stroke="#416B6D" stroke-width="0.0765" stroke-miterlimit="10" cx="305.639" cy="16.577" r="0.28"/>
						<circle fill="#73D100" stroke="#416B6D" stroke-width="0.0765" stroke-miterlimit="10" cx="305.634" cy="17.112" r="0.28"/>
						<circle fill="#73D100" stroke="#416B6D" stroke-width="0.0765" stroke-miterlimit="10" cx="305.551" cy="17.723" r="0.281"/>
						<circle fill="#73D100" stroke="#416B6D" stroke-width="0.0765" stroke-miterlimit="10" cx="305.241" cy="18.178" r="0.28"/>
						<circle fill="#73D100" stroke="#416B6D" stroke-width="0.0765" stroke-miterlimit="10" cx="305.849" cy="18.49" r="0.28"/>
						<circle fill="#73D100" stroke="#416B6D" stroke-width="0.0765" stroke-miterlimit="10" cx="306.382" cy="18.725" r="0.28"/>
						<circle fill="#73D100" stroke="#416B6D" stroke-width="0.0765" stroke-miterlimit="10" cx="306.684" cy="19.111" r="0.28"/>
						<circle fill="#73D100" stroke="#416B6D" stroke-width="0.0765" stroke-miterlimit="10" cx="306.907" cy="19.724" r="0.28"/>
						<circle fill="#73D100" stroke="#416B6D" stroke-width="0.0765" stroke-miterlimit="10" cx="306.825" cy="20.258" r="0.28"/>
						<circle fill="#73D100" stroke="#416B6D" stroke-width="0.0765" stroke-miterlimit="10" cx="306.515" cy="20.791" r="0.28"/>
						<circle fill="#73D100" stroke="#416B6D" stroke-width="0.0765" stroke-miterlimit="10" cx="306.509" cy="21.326" r="0.28"/>
						<circle fill="#73D100" stroke="#416B6D" stroke-width="0.0765" stroke-miterlimit="10" cx="306.504" cy="21.862" r="0.28"/>
						<circle fill="#73D100" stroke="#416B6D" stroke-width="0.0765" stroke-miterlimit="10" cx="306.498" cy="22.396" r="0.28"/>
						<circle fill="#73D100" stroke="#416B6D" stroke-width="0.0765" stroke-miterlimit="10" cx="306.11" cy="22.928" r="0.28"/>
						<circle fill="#73D100" stroke="#416B6D" stroke-width="0.0765" stroke-miterlimit="10" cx="305.573" cy="23.075" r="0.28"/>
						<circle fill="#73D100" stroke="#416B6D" stroke-width="0.0765" stroke-miterlimit="10" cx="305.04" cy="22.918" r="0.28"/>
						<circle fill="#73D100" stroke="#416B6D" stroke-width="0.0765" stroke-miterlimit="10" cx="305.339" cy="23.608" r="0.28"/>
						<circle fill="#73D100" stroke="#416B6D" stroke-width="0.0765" stroke-miterlimit="10" cx="305.181" cy="24.142" r="0.28"/>
						<circle fill="#73D100" stroke="#416B6D" stroke-width="0.0765" stroke-miterlimit="10" cx="304.87" cy="24.674" r="0.28"/>
						<circle fill="#73D100" stroke="#416B6D" stroke-width="0.0765" stroke-miterlimit="10" cx="304.332" cy="24.897" r="0.28"/>
						<circle fill="#73D100" stroke="#416B6D" stroke-width="0.0765" stroke-miterlimit="10" cx="303.87" cy="25.275" r="0.28"/>
						<circle fill="#73D100" stroke="#416B6D" stroke-width="0.0765" stroke-miterlimit="10" cx="303.56" cy="25.731" r="0.28"/>
						<circle fill="#73D100" stroke="#416B6D" stroke-width="0.0765" stroke-miterlimit="10" cx="303.097" cy="26.032" r="0.28"/>
						<circle fill="#73D100" stroke="#416B6D" stroke-width="0.0765" stroke-miterlimit="10" cx="302.638" cy="26.181" r="0.28"/>
						<circle fill="#73D100" stroke="#416B6D" stroke-width="0.0765" stroke-miterlimit="10" cx="302.102" cy="26.175" r="0.28"/>
						<circle fill="#73D100" stroke="#416B6D" stroke-width="0.0765" stroke-miterlimit="10" cx="301.792" cy="26.707" r="0.28"/>
						<circle fill="#73D100" stroke="#416B6D" stroke-width="0.0765" stroke-miterlimit="10" cx="301.328" cy="27.161" r="0.28"/>
						<circle fill="#73D100" stroke="#416B6D" stroke-width="0.0765" stroke-miterlimit="10" cx="300.792" cy="27.156" r="0.28"/>
						<circle fill="#73D100" stroke="#416B6D" stroke-width="0.0765" stroke-miterlimit="10" cx="300.259" cy="26.998" r="0.28"/>
						<circle fill="#73D100" stroke="#416B6D" stroke-width="0.0765" stroke-miterlimit="10" cx="299.728" cy="26.687" r="0.28"/>
						<circle fill="#73D100" stroke="#416B6D" stroke-width="0.0765" stroke-miterlimit="10" cx="299.115" cy="26.68" r="0.279"/>
						<circle fill="#73D100" stroke="#416B6D" stroke-width="0.0765" stroke-miterlimit="10" cx="298.581" cy="26.599" r="0.28"/>
						<circle fill="#73D100" stroke="#416B6D" stroke-width="0.0765" stroke-miterlimit="10" cx="298.048" cy="26.44" r="0.28"/>
						<circle fill="#73D100" stroke="#416B6D" stroke-width="0.0765" stroke-miterlimit="10" cx="297.745" cy="25.979" r="0.28"/>
						<circle fill="#73D100" stroke="#416B6D" stroke-width="0.0765" stroke-miterlimit="10" cx="297.597" cy="25.519" r="0.281"/>
						<circle fill="#73D100" stroke="#416B6D" stroke-width="0.0765" stroke-miterlimit="10" cx="297.064" cy="25.36" r="0.281"/>
						<circle fill="#73D100" stroke="#416B6D" stroke-width="0.0765" stroke-miterlimit="10" cx="296.53" cy="25.202" r="0.28"/>
						<circle fill="#73D100" stroke="#416B6D" stroke-width="0.0765" stroke-miterlimit="10" cx="296.075" cy="24.892" r="0.28"/>
						<circle fill="#73D100" stroke="#416B6D" stroke-width="0.0765" stroke-miterlimit="10" cx="295.774" cy="24.354" r="0.28"/>
						<circle fill="#73D100" stroke="#416B6D" stroke-width="0.0765" stroke-miterlimit="10" cx="295.474" cy="23.815" r="0.28"/>
						<circle fill="#73D100" stroke="#416B6D" stroke-width="0.0765" stroke-miterlimit="10" cx="295.02" cy="23.352" r="0.28"/>
						<circle fill="#73D100" stroke="#416B6D" stroke-width="0.0765" stroke-miterlimit="10" cx="294.641" cy="22.967" r="0.28"/>
						<circle fill="#73D100" stroke="#416B6D" stroke-width="0.0765" stroke-miterlimit="10" cx="294.648" cy="22.278" r="0.28"/>
					</g>
					<path fill="#E0E0E0" stroke="#416B6D" stroke-width="0.0765" stroke-miterlimit="10" d="M301.584,14.889
						c0,0-0.184-1.468-0.949-1.586c-0.766-0.119-1.054,0.209-1.311,0.181c-0.258-0.028-1.07-0.139-1.453-0.015
						c-0.384,0.123-0.203,1.221-0.203,1.221s-0.851-0.289-1.108-0.011s-0.368,1.041-0.587,1.371
						c-0.221,0.328-0.936,0.462-1.042,0.912c-0.106,0.453,0.376,0.66,0.376,0.66s-0.768,0.272-0.889,0.908
						c-0.121,0.637,0.412,0.897,0.408,1.292c-0.005,0.396-0.594,0.721-0.433,1.219c0.16,0.499,0.874,0.468,0.874,0.468
						s-0.899,0.743-0.549,1.37c0.351,0.629,0.681,0.683,1.021,1.044c0.34,0.359,0.155,1.097,0.713,1.268
						c0.561,0.172,1.227-0.159,1.227-0.159s0.061,1.409,0.557,1.515c0.497,0.108,0.448-0.097,1.263,0.014
						c0.813,0.11,0.835,0.568,1.679,0.438c0.842-0.133,0.737-1.254,0.737-1.254s0.693,0.693,1.413,0.165
						c0.72-0.527,0.466-0.708,0.852-1.062c0.386-0.353,0.357,0.003,0.886-0.603c0.528-0.606-0.309-1.608-0.309-1.608
						s1.354,0.318,1.665-0.251c0.312-0.571,0.061-1.032,0.016-1.492c-0.047-0.458,0.337-0.632,0.245-1.679
						c-0.092-1.045-2.248-0.749-2.248-0.749s1.731-1.091,1.319-1.859c-0.414-0.769-1.148-1.185-1.477-1.442
						c-0.33-0.258-0.526-0.999-1.25-1.274C302.305,13.615,301.584,14.889,301.584,14.889z"/>
					<path fill="#DBF7FC" stroke="#416B6D" stroke-width="0.0912" stroke-miterlimit="10" d="M300.389,20.373
						c0,0,5.322-2.548,4.973-3.339c-0.349-0.789-1.491-0.418-1.722-0.933c-0.229-0.513,0.304-0.691-0.604-1.355
						c-0.908-0.664-3.418,4.886-3.418,4.886l0.077,0.808L300.389,20.373z"/>
					<path fill="#DBF7FC" stroke="#416B6D" stroke-width="0.0765" stroke-miterlimit="10" d="M301.168,19.98
						c0,0,4.818-1.087,4.996-0.385c0.18,0.7-0.77,1.041-0.654,1.5c0.113,0.458,0.555,0.296,0.301,1.202
						c-0.256,0.908-4.783-1.453-4.783-1.453l-0.352-0.549L301.168,19.98z"/>
					<path fill="#DBF7FC" stroke="#416B6D" stroke-width="0.0765" stroke-miterlimit="10" d="M300.938,20.994
						c0,0,4.113,2.194,3.809,2.806c-0.305,0.61-1.193,0.27-1.394,0.668c-0.2,0.397,0.216,0.554-0.525,1.045
						c-0.742,0.491-2.522-3.986-2.522-3.986l0.088-0.61L300.938,20.994z"/>
					<path fill="#DBF7FC" stroke="#416B6D" stroke-width="0.0765" stroke-miterlimit="10" d="M300.254,18.876
						c0,0,1.277-4.78,0.584-4.987c-0.695-0.207-1.08,0.723-1.533,0.589s-0.275-0.571-1.193-0.354
						c-0.918,0.217,1.25,4.841,1.25,4.841l0.559,0.391L300.254,18.876z"/>
					<path fill="#DBF7FC" stroke="#416B6D" stroke-width="0.0765" stroke-miterlimit="10" d="M299.356,18.736
						c0,0-1.753-3.523-2.276-3.28c-0.521,0.243-0.255,1.001-0.596,1.159c-0.34,0.161-0.462-0.194-0.895,0.419
						c-0.432,0.614,3.304,2.224,3.304,2.224l0.517-0.061L299.356,18.736z"/>
					<path fill="#DBF7FC" stroke="#416B6D" stroke-width="0.0765" stroke-miterlimit="10" d="M299.67,19.896
						c0,0-4.113-2.195-4.45-1.601c-0.338,0.593,0.44,1.141,0.222,1.529s-0.58,0.13-0.574,1.019c0.004,0.891,4.715-0.127,4.715-0.127
						l0.457-0.412L299.67,19.896z"/>
					<path fill="#DBF7FC" stroke="#416B6D" stroke-width="0.0765" stroke-miterlimit="10" d="M300.493,21.683
						c0,0,0.913,4.431,0.268,4.582s-0.94-0.724-1.362-0.626c-0.422,0.097-0.281,0.505-1.107,0.256s1.414-4.354,1.414-4.354
						l0.508-0.312L300.493,21.683z"/>
					<path fill="#DBF7FC" stroke="#416B6D" stroke-width="0.0765" stroke-miterlimit="10" d="M299.568,21.454
						c0,0-2.078,3.729-2.633,3.439c-0.555-0.289-0.227-1.098-0.587-1.287c-0.362-0.189-0.512,0.188-0.949-0.5
						c-0.437-0.688,3.694-2.24,3.694-2.24l0.556,0.091L299.568,21.454z"/>
					<path fill="none" stroke="#416B6D" stroke-width="0.0765" stroke-miterlimit="10" d="M298.796,16.592
						c-0.005,0.424,0.235,0.77,0.536,0.772"/>
					<path fill="none" stroke="#416B6D" stroke-width="0.0765" stroke-miterlimit="10" d="M299.633,17.235
						c0.004-0.445-0.045-0.806-0.109-0.807"/>
					<path fill="none" stroke="#416B6D" stroke-width="0.0765" stroke-miterlimit="10" d="M298.547,18.006
						c0.004-0.326-0.305-0.594-0.691-0.597"/>
					<path fill="none" stroke="#416B6D" stroke-width="0.0765" stroke-miterlimit="10" d="M298.17,18.22
						c0.001-0.136-0.277-0.249-0.621-0.251"/>
					<path fill="none" stroke="#416B6D" stroke-width="0.0765" stroke-miterlimit="10" d="M297.752,19.722
						c0.002-0.215-0.397-0.392-0.895-0.396"/>
					<path fill="none" stroke="#416B6D" stroke-width="0.0765" stroke-miterlimit="10" d="M297.834,20.568
						c0,0.085-0.278,0.15-0.621,0.146"/>
					<path fill="none" stroke="#416B6D" stroke-width="0.0765" stroke-miterlimit="10" d="M297.852,22.019
						c-0.001,0.113-0.374,0.2-0.832,0.195"/>
					<path fill="none" stroke="#416B6D" stroke-width="0.0765" stroke-miterlimit="10" d="M298.369,22.414
						c-0.006,0.479-0.242,0.863-0.529,0.86"/>
					<path fill="none" stroke="#416B6D" stroke-width="0.0765" stroke-miterlimit="10" d="M297.504,22.676
						c0.001-0.148,0.388-0.267,0.865-0.262"/>
					<path fill="none" stroke="#416B6D" stroke-width="0.0765" stroke-miterlimit="10" d="M299.514,23.292
						c-0.004,0.474-0.117,0.858-0.25,0.856"/>
					<path fill="none" stroke="#416B6D" stroke-width="0.0765" stroke-miterlimit="10" d="M300.143,23.298
						c-0.004,0.475,0.059,0.859,0.141,0.86"/>
					<path fill="none" stroke="#416B6D" stroke-width="0.0765" stroke-miterlimit="10" d="M299.768,23.294
						c-0.007,0.622-0.066,1.126-0.135,1.126"/>
					<path fill="none" stroke="#416B6D" stroke-width="0.0765" stroke-miterlimit="10" d="M301.264,22.876
						c-0.004,0.477,0.216,0.864,0.493,0.867"/>
					<path fill="none" stroke="#416B6D" stroke-width="0.0765" stroke-miterlimit="10" d="M301.648,22.583
						c-0.004,0.36,0.209,0.653,0.476,0.656"/>
					<path fill="none" stroke="#416B6D" stroke-width="0.0765" stroke-miterlimit="10" d="M301.936,22.264
						c-0.003,0.178,0.285,0.324,0.643,0.327"/>
					<path fill="none" stroke="#416B6D" stroke-width="0.0765" stroke-miterlimit="10" d="M302.882,20.164
						c0.001-0.11,0.552-0.193,1.231-0.187"/>
					<path fill="none" stroke="#416B6D" stroke-width="0.0765" stroke-miterlimit="10" d="M302.878,20.618
						c-0.001,0.043,0.651,0.084,1.458,0.092"/>
					<path fill="none" stroke="#416B6D" stroke-width="0.0765" stroke-miterlimit="10" d="M302.832,20.939
						c-0.002,0.188,0.291,0.341,0.653,0.345"/>
					<path fill="none" stroke="#416B6D" stroke-width="0.0765" stroke-miterlimit="10" d="M301.569,17.445
						c-0.007,0.638-0.21,1.151-0.454,1.148"/>
					<path fill="none" stroke="#416B6D" stroke-width="0.0765" stroke-miterlimit="10" d="M301.556,18.79
						c0.004-0.363,0.462-0.655,1.022-0.648"/>
					<path fill="none" stroke="#416B6D" stroke-width="0.0765" stroke-miterlimit="10" d="M301.764,19.068
						c0.001-0.152,0.236-0.274,0.529-0.271"/>
					<path fill="none" stroke="#73D100" stroke-width="0.1529" stroke-miterlimit="10" d="M299.49,19.715
						c-0.005,0.564-0.468,1.019-1.032,1.014c-0.396-0.006-0.713-0.329-0.709-0.724c0.003-0.276,0.229-0.499,0.507-0.496
						c0.193,0.002,0.349,0.161,0.347,0.354c-0.001,0.137-0.112,0.245-0.247,0.243c-0.096-0.001-0.172-0.078-0.171-0.174
						c0.001-0.064,0.056-0.119,0.122-0.119c0.047,0.001,0.084,0.039,0.083,0.086"/>
					<path fill="none" stroke="#73D100" stroke-width="0.1529" stroke-miterlimit="10" d="M299.271,20.97
						c0.252,0.505,0.046,1.119-0.46,1.37c-0.354,0.177-0.784,0.033-0.96-0.321c-0.123-0.248-0.022-0.549,0.227-0.672
						c0.172-0.087,0.383-0.016,0.471,0.157c0.059,0.121,0.01,0.27-0.112,0.33c-0.085,0.041-0.188,0.007-0.229-0.079
						c-0.029-0.058-0.006-0.131,0.054-0.16c0.042-0.021,0.093-0.003,0.112,0.037"/>
					<path fill="none" stroke="#73D100" stroke-width="0.1529" stroke-miterlimit="10" d="M300.275,20.02
						c-0.217-0.521,0.031-1.121,0.553-1.338c0.364-0.151,0.783,0.021,0.936,0.387c0.105,0.255-0.016,0.549-0.271,0.655
						c-0.179,0.074-0.384-0.011-0.459-0.189c-0.052-0.125,0.008-0.269,0.132-0.321c0.088-0.035,0.189,0.006,0.225,0.094
						c0.026,0.061-0.003,0.131-0.064,0.156c-0.042,0.019-0.092-0.002-0.109-0.045"/>
					<path fill="none" stroke="#73D100" stroke-width="0.1529" stroke-miterlimit="10" d="M301.096,20.625
						c0.195-0.529,0.784-0.801,1.313-0.604c0.37,0.137,0.56,0.548,0.423,0.919c-0.096,0.26-0.384,0.393-0.644,0.296
						c-0.181-0.066-0.274-0.269-0.208-0.449c0.048-0.128,0.188-0.193,0.316-0.146c0.088,0.033,0.135,0.132,0.102,0.221
						c-0.023,0.063-0.092,0.095-0.154,0.072c-0.044-0.017-0.066-0.065-0.051-0.108"/>
					<path fill="none" stroke="#73D100" stroke-width="0.1529" stroke-miterlimit="10" d="M300.617,21.128
						c0.537-0.171,1.113,0.125,1.285,0.662c0.121,0.376-0.087,0.78-0.463,0.899c-0.264,0.085-0.546-0.06-0.63-0.324
						c-0.059-0.184,0.042-0.381,0.228-0.44c0.129-0.041,0.267,0.031,0.309,0.159c0.029,0.09-0.021,0.188-0.111,0.216
						c-0.064,0.021-0.131-0.015-0.152-0.078c-0.014-0.043,0.012-0.091,0.055-0.106"/>
					<path fill="none" stroke="#73D100" stroke-width="0.1529" stroke-miterlimit="10" d="M299.035,19.124
						c-0.381,0.093-0.763-0.141-0.854-0.521c-0.064-0.267,0.1-0.534,0.365-0.597c0.187-0.046,0.374,0.069,0.418,0.255
						c0.032,0.131-0.049,0.262-0.18,0.293c-0.09,0.021-0.182-0.033-0.204-0.126c-0.015-0.063,0.023-0.128,0.089-0.143
						c0.044-0.011,0.09,0.017,0.1,0.062c0.008,0.031-0.012,0.062-0.043,0.071"/>
					<path fill="none" stroke="#73D100" stroke-width="0.1529" stroke-miterlimit="10" d="M299.5,21.549
						c0.564,0.014,1.012,0.481,0.999,1.046c-0.009,0.396-0.337,0.708-0.731,0.699c-0.277-0.007-0.496-0.236-0.49-0.513
						c0.004-0.193,0.166-0.347,0.359-0.343c0.135,0.003,0.242,0.116,0.239,0.251c-0.001,0.096-0.081,0.171-0.175,0.168
						c-0.067-0.001-0.119-0.056-0.119-0.123c0.002-0.046,0.041-0.083,0.088-0.081"/>
					<path fill="none" stroke="#73D100" stroke-width="0.1529" stroke-miterlimit="10" d="M299.766,19.021
						c-0.539-0.17-0.838-0.744-0.668-1.283c0.119-0.376,0.521-0.586,0.898-0.467c0.264,0.083,0.41,0.364,0.327,0.629
						c-0.06,0.185-0.256,0.286-0.44,0.229c-0.129-0.041-0.201-0.179-0.16-0.309c0.029-0.09,0.125-0.14,0.216-0.111
						c0.063,0.021,0.099,0.087,0.078,0.15c-0.014,0.045-0.062,0.069-0.105,0.055"/>
					<circle fill="#73D100" stroke="#416B6D" stroke-width="0.0765" stroke-miterlimit="10" cx="299.791" cy="20.242" r="1.262"/>
					<circle fill="#DBF7FC" stroke="#416B6D" stroke-width="0.0765" stroke-miterlimit="10" cx="299.792" cy="20.242" r="0.774"/>
					<path fill="none" stroke="#416B6D" stroke-width="0.0765" stroke-miterlimit="10" d="M297.622,20.134
						c0,0.084-0.278,0.151-0.62,0.146"/>
					<path fill="none" stroke="#416B6D" stroke-width="0.0765" stroke-miterlimit="10" d="M299.925,17.137
						c0.136-0.007,0.231-0.29,0.216-0.634"/>
				</g>
			</g>
		</g>
	</g>
	
		<circle display="inline" fill="none" stroke="#E83658" stroke-linecap="round" stroke-miterlimit="10" stroke-dasharray="4.3733" cx="322.99" cy="42.298" r="84.202"/>
</g>
<g id="Layer_2">
	
		<circle fill="#FFFFFF" stroke="#E83658" stroke-linecap="round" stroke-miterlimit="10" stroke-dasharray="4.6415" cx="91.458" cy="90.469" r="89.366"/>
	<g>
		<path fill="#E83658" d="M69.896,126.248c-0.673,0-1.424,0.692-1.701,0c0,0-2.373-5.181-4.034-8.404
			c-1.127-2.176-3.046-5.577-3.046-5.577h-0.039l0.099,13.685c-0.099,1.167-1.245,0.692-1.266,0.198
			c-0.118-3.461,0-8.959-0.396-15.029c-0.02-0.198,2.334-0.969,2.512-0.258c0,0,2.018,4.628,3.52,7.476
			c1.009,1.918,1.958,4.351,2.77,4.845c0.652,0.396,0-12.973,0.375-12.518l1.127,0.594
			C70.606,110.902,69.896,126.248,69.896,126.248z M64.675,108.45c-0.1,0.06,0.078,0.336,0.178,0.277
			C64.951,108.668,64.773,108.391,64.675,108.45z M64.833,110.31c-0.119,0.02-0.04,0.336,0.078,0.316
			C65.03,110.605,64.951,110.289,64.833,110.31z M65.485,125.318c1.166-0.355,1.721-0.554,2.136-0.336
			c1.146,0.593-1.246,3.065,0,3.204c0.731,0.078,1.958-1.188,1.642-0.91c-0.198,0.178-0.891,0.969-1.603,0.91
			c-1.226-0.119,1.068-2.571,0-3.164C66.929,124.626,64.457,125.635,65.485,125.318z M66.059,110.744
			c-0.139,0.04,0.02,0.435,0.158,0.396S66.197,110.704,66.059,110.744z"/>
		<path fill="#E83658" d="M78.521,126.169l-0.355-1.305c-1.127,0.316-1.879,1.7-3.164,1.7c-1.681,0-3.025-1.404-3.025-3.124
			c0-3.125,3.282-3.797,5.695-4.45l0.494-0.138v-0.613c0-1.246-0.297-2.076-2.116-1.918c-2.036,0.178-2.591,2.135-3.263,1.364
			l-0.178-0.415c-0.475-0.238,1.819-2.255,3.48-2.255c1.482,0,3.203,1.187,3.303,3.679l0.236,4.864
			c0.021,0.276,0.179,2.472-0.217,2.491L78.521,126.169z M72.865,125.536c0.118-0.277,0.158,0.633,0.158-0.237l-0.237-0.079
			C72.509,126.011,72.865,125.536,72.865,125.536z M78.066,119.979c0.138-0.989-5.043,1.345-5.043,3.303
			c0,0.909,1.107,1.818,2.037,1.818c1.226,0,3.263-1.206,3.104-1.779l-0.119-3.203L78.066,119.979z M73.696,117.032
			c0.711,0.021,1.542-0.494,1.186-0.949C74.526,115.629,73.122,117.013,73.696,117.032z M78.323,118.931
			c0,0-0.436,1.701-0.197,2.057C78.422,121.423,78.165,118.853,78.323,118.931z M78.521,125.22c0,0-0.217,0.119,0,0.475
			C79.253,126.921,78.362,125.141,78.521,125.22z"/>
		<path fill="#E83658" d="M81.45,115.372c0.297-0.396,1.306-0.04,1.306-0.04l0.079-3.263c0,0,0.099-0.356,0.237-0.455
			c0.316-0.237,1.028,0.336,1.028,0.336s0.158,0.91,0.039,1.958c-0.059,0.593,0.158,1.424,0.158,1.424s2.195-0.712,2.453,0.198
			c0.039,0.138,0.059,0.395,0.059,0.395l-0.355,0.633l-2.156,0.08c0,0,0,0.475,0,0.791c0,0.178-0.276,0.415-0.276,0.612
			c0,0.139,0.276,0.91,0.276,1.048c0,2.274,0,4.41,0,4.41c0,1.068-0.118,3.085,0.851,2.234c0.316-0.276,1.206-1.74,1.503-1.048
			l0.277,0.218c0.652,0.415-1.167,1.661-1.701,1.661c-2.61,0-2.472-1.76-2.472-3.757v-6.17l-1.067-0.04
			C81.688,116.598,81.154,115.767,81.45,115.372z"/>
		<path fill="#E83658" d="M95.315,117.547l0.139,8.701c0,0-0.891,0.356-1.246,0.04c-0.079-0.06-0.178-0.238-0.178-0.238l-0.04-0.454
			c-0.039-1.444-1.839,0.969-3.085,0.969c-1.542,0-2.788-0.851-2.788-3.698c0,0,0.276-4.192,0-6.703
			c-0.118-1.088,0.831-0.831,0.831-0.831l0.475,0.04c0,0,0.316,0,0.236,0.593c-0.336,2.591-0.197,6.506-0.197,6.506
			c-0.039,1.147,0.988,3.026,2.234,3.026c0.949,0,2.116-0.692,2.215-1.859c0,0,0.119-5.734,0.02-7.831
			c0-0.118,0.238-0.118,0.356-0.198c0.158-0.078,0.237-0.217,0.396-0.276c0.099-0.04,0.594,0.079,0.712,0.079
			C95.829,115.45,95.315,117.547,95.315,117.547z M89.956,117.962c0.02-0.415-0.89-0.613-0.613-0.949
			c0.1-0.139,0.376-0.237,0.376-0.237c0.06,0.021-0.276,0.099-0.376,0.218C89.066,117.329,89.996,117.527,89.956,117.962z"/>
		<path fill="#E83658" d="M99.134,126.07c-0.296,0.039-0.316,0.138-0.869,0.118c0,0-0.594,0.02-0.396-0.988
			c0.416-2.116,0-7.476-0.039-9.434c0-0.454,0.93-0.435,0.93-0.435l0.554,0.198l0.06,2.155l0.02,0.06
			c0.455,0.217,1.74-2.77,3.085-2.571c0,0,0.355-0.02,0.514,0.079c0.297,0.197,0.021,0.534,0.04,0.969
			c0.139,0.475-0.91,0.376-1.365,0.673c-0.988,0.633-1.641,1.72-2.254,3.164c0,0-0.158,3.224-0.119,4.231
			c0,0.139-0.02,0.534,0.06,0.692c0.079,0.178,0.139,0.118,0.158,0.297c0.04,0.257-0.02,0.316-0.02,0.435
			C99.49,125.932,99.312,126.05,99.134,126.07z M98.146,124.39c0,0-0.494,1.522,0.06,1.522
			C98.402,125.912,98.402,124.429,98.146,124.39z M100.063,115.984c-0.039-0.435-0.83,0.06-1.107-0.257
			c-0.375-0.436,0.356-0.91,0.297-1.503c-0.06-0.554-0.336-0.87-0.613-1.325c-0.355-0.593,0.574,0.633,0.594,1.404
			c0.02,0.594-0.613,0.988-0.277,1.424c0.258,0.336,1.088-0.158,1.107,0.277c0,0.158-0.178,0.435-0.118,0.415
			C99.945,116.42,100.063,116.163,100.063,115.984z M99.174,125.081c0,0-0.158,0.356,0.218,0.515
			C99.589,125.675,99.272,124.805,99.174,125.081z M100.696,118.99c0,0-0.514,0.376,0.04,0.376
			C100.934,119.366,100.954,119.03,100.696,118.99z"/>
		<path fill="#E83658" d="M111.022,126.169l-0.356-1.305c-1.127,0.316-1.879,1.7-3.164,1.7c-1.681,0-3.025-1.404-3.025-3.124
			c0-3.125,3.282-3.797,5.695-4.45l0.494-0.138v-0.613c0-1.246-0.297-2.076-2.116-1.918c-2.037,0.178-2.59,2.135-3.263,1.364
			l-0.178-0.415c-0.475-0.238,1.819-2.255,3.48-2.255c1.483,0,3.203,1.187,3.302,3.679l0.238,4.864
			c0.02,0.276,0.178,2.472-0.218,2.491L111.022,126.169z M105.366,125.536c0.119-0.277,0.158,0.633,0.158-0.237l-0.237-0.079
			C105.011,126.011,105.366,125.536,105.366,125.536z M110.567,119.979c0.139-0.989-5.043,1.345-5.043,3.303
			c0,0.909,1.107,1.818,2.037,1.818c1.226,0,3.263-1.206,3.104-1.779l-0.118-3.203L110.567,119.979z M106.196,117.032
			c0.713,0.021,1.543-0.494,1.188-0.949C107.027,115.629,105.623,117.013,106.196,117.032z M110.824,118.931
			c0,0-0.435,1.701-0.198,2.057C110.923,121.423,110.666,118.853,110.824,118.931z M111.022,125.22c0,0-0.218,0.119,0,0.475
			C111.754,126.921,110.864,125.141,111.022,125.22z"/>
		<path fill="#E83658" d="M116.918,110.605c-0.297,5.834,0.139,8.029,0.198,15.326c0,0.475-1.701,0.751-1.682,0.099
			c0.06-4.152-0.118-8.345-0.118-11.727c0-0.355-0.396-1.028-0.376-1.424c0-0.336,0.197-0.594,0.197-0.988
			c0.04-1.128,0.198,0.514,0.297-1.088C115.475,110.25,116.938,110.032,116.918,110.605z M115.534,113.474
			c0.197-0.891,0.494-1.286,0-1.286C115.039,112.188,115.435,113.948,115.534,113.474z M115.949,118.14
			c-0.099,0.416-0.198-1.522-0.06-1.127c0.079,0.218,0.119,0.356,0.119,0.594C116.009,117.823,115.988,117.942,115.949,118.14z"/>
		<path fill="#E83658" d="M44.579,139.722c0.395-0.099,1.048-0.297,1.048-0.297l0.118-2.333c0.158-1.858,0.515-3.342,2.354-3.342
			l0.93,0.415l-0.237,0.791c-0.179,0.277-0.297,0.178-0.515,0.039c-1.166-0.711-1.324,1.188-1.345,2.077l-0.06,2.353
			c0,0,0.831-0.02,1.325,0.119c0.396,0.119,0.989,0.06,0.949,0.475c-0.039,0.396-0.573,0.297-0.949,0.355
			c-0.396,0.06-1.087,0-1.087,0s-0.396-0.178-0.218,0.653c0.336,1.582,0.039,8.721,0.039,8.721s-0.118,0.336-0.276,0.415
			c-0.316,0.178-0.851-0.475-0.851-0.475l-0.178-9.136l-1.364-0.237c0,0-0.594-0.079-0.633-0.356
			C43.57,139.583,44.223,139.801,44.579,139.722z M45.943,142.985c0,0.236,0.039,0.375,0.118,0.593
			c0.139,0.396,0.04-1.542-0.059-1.127C45.963,142.648,45.943,142.768,45.943,142.985z"/>
		<path fill="#E83658" d="M50.335,144.527c0-4.094,1.938-5.774,4.37-5.774s4.073,1.978,4.073,6.071c0,4.093-1.641,5.478-4.073,5.478
			c-1.306,0-2.452-0.475-3.243-1.543c-0.139-0.178-0.1-0.533-0.218-0.751c-0.218-0.396-0.554-0.692-0.673-1.226
			C50.413,146.129,50.335,145.378,50.335,144.527z M51.501,147.691c-0.276,0.079-0.02,1.088,0.1,0.811
			c0.039-0.099,0.078-0.197,0.078-0.316C51.679,147.988,51.58,147.83,51.501,147.691z M57.434,144.527
			c0.277-1.839-0.158-4.964-2.531-4.964s-3.025,3.105-3.025,4.964s0.652,5.359,3.025,5.359S56.741,149.056,57.434,144.527z"/>
		<path fill="#E83658" d="M60.897,144.527c0-4.094,1.938-5.774,4.371-5.774c2.432,0,4.073,1.978,4.073,6.071
			c0,4.093-1.642,5.478-4.073,5.478c-1.306,0-2.452-0.475-3.243-1.543c-0.139-0.178-0.099-0.533-0.218-0.751
			c-0.218-0.396-0.554-0.692-0.672-1.226C60.978,146.129,60.897,145.378,60.897,144.527z M62.064,147.691
			c-0.276,0.079-0.02,1.088,0.099,0.811c0.04-0.099,0.08-0.197,0.08-0.316C62.243,147.988,62.144,147.83,62.064,147.691z
			 M67.997,144.527c0.277-1.839-0.158-4.964-2.531-4.964s-3.025,3.105-3.025,4.964s0.652,5.359,3.025,5.359
			S67.306,149.056,67.997,144.527z"/>
		<path fill="#E83658" d="M78.759,134.383c0.197,0.237,0.554,0.612,0.554,0.612s0.336,0.93,0.039,1.662
			c-0.178,0.435,0.237,2.293,0.06,4.054c-0.039,0.475,0.099,1.483,0.079,2.036c0,0.436-0.178,0.396-0.178,0.851
			c0,2.729,0.237,5.616,0.237,5.616s-0.316,0.752-0.752,0.831c-0.731,0.138-0.375-1.839-0.375-1.839
			c-0.732,0.909-1.761,2.096-2.967,2.096c-1.483,0-3.876-1.305-3.876-5.498c0-0.475,0.099-1.166,0.158-1.621
			c0.04-0.297-0.079-0.415-0.02-0.712c0.514-2.195,1.642-3.599,2.827-3.342c0.633,0.138-0.02-0.554,1.266-0.257
			c1.029,0.236,2.373,1.463,2.789,2.808c0,0-0.1-1.226-0.218-2.788c-0.118-1.642-0.257-3.639-0.02-4.213L78.759,134.383z
			 M78.244,141.857c-0.475-0.949-1.424-2.175-2.61-2.175c-1.067,0-1.661,0.909-2.175,1.7c-0.119,0.179-0.396,0.06-0.475,0.237
			c-0.337,0.712-0.495,1.523-0.495,2.195c0,1.879,0.949,3.322,1.523,4.568c0.118,0.257,1.641,0.87,2.076,0.87
			c1.088,0,1.721-1.404,2.155-2.334c0,0,0.139-1.522,0.139-2.511C78.383,143.42,78.244,141.857,78.244,141.857z M76.108,147.612
			c0,0-0.237,0.119,0,0.475C76.405,148.522,75.95,147.533,76.108,147.612z"/>
		<path fill="#E83658" d="M90.944,146.466c0.021,0.059-0.257-0.1-0.415-0.1c-0.435,0.06,0.139,0.851-0.178,1.127
			c-0.415,0.376-0.851-0.217-1.443-0.138c-0.771,0.079-1.919,1.107-1.345,0.712c0.415-0.316,0.712-0.613,1.266-0.732
			c0.573-0.099,1.107,0.574,1.522,0.158c0.276-0.296-0.276-1.048,0.158-1.107C90.688,146.366,90.944,146.466,90.944,146.466z
			 M94.762,141.205c0.494-0.356-1.8-2.452-3.322-2.452c-1.8,0-2.946,2.018-2.946,3.896c0,3.916,5.557,1.227,5.557,3.976
			c0,1.245-0.891,2.926-2.018,2.926c-1.305,0-3.006-2.373-3.401-1.957l-0.633,0.02c-0.296,0.692,1.958,2.689,3.718,2.689
			c2.057,0,3.777-1.819,3.777-3.955c0-3.678-6.348-1.285-6.348-3.955c0-1.701,1.345-2.334,2.354-2.334
			c0.969,0,1.898,0.613,2.451,1.266c0.119,0.139,0.692,0.436,0.752-0.02L94.762,141.205z"/>
		<path fill="#E83658" d="M96.722,139.108c0.297-0.395,1.306-0.039,1.306-0.039l0.079-3.263c0,0,0.099-0.356,0.237-0.455
			c0.316-0.237,1.028,0.336,1.028,0.336s0.158,0.91,0.039,1.958c-0.059,0.594,0.158,1.424,0.158,1.424s2.195-0.712,2.453,0.197
			c0.039,0.139,0.059,0.396,0.059,0.396l-0.355,0.633l-2.156,0.078c0,0,0,0.475,0,0.791c0,0.179-0.276,0.416-0.276,0.613
			c0,0.139,0.276,0.91,0.276,1.049c0,2.273,0,4.409,0,4.409c0,1.068-0.118,3.085,0.851,2.235c0.316-0.277,1.206-1.74,1.503-1.049
			l0.277,0.218c0.652,0.415-1.167,1.661-1.701,1.661c-2.61,0-2.472-1.76-2.472-3.758v-6.17l-1.067-0.039
			C96.96,140.335,96.426,139.505,96.722,139.108z"/>
		<path fill="#E83658" d="M103.11,144.527c0-4.094,1.938-5.774,4.371-5.774c2.432,0,4.073,1.978,4.073,6.071
			c0,4.093-1.642,5.478-4.073,5.478c-1.306,0-2.452-0.475-3.243-1.543c-0.139-0.178-0.099-0.533-0.218-0.751
			c-0.218-0.396-0.554-0.692-0.672-1.226C103.19,146.129,103.11,145.378,103.11,144.527z M104.277,147.691
			c-0.276,0.079-0.02,1.088,0.099,0.811c0.04-0.099,0.08-0.197,0.08-0.316C104.456,147.988,104.356,147.83,104.277,147.691z
			 M110.21,144.527c0.277-1.839-0.158-4.964-2.531-4.964s-3.025,3.105-3.025,4.964s0.652,5.359,3.025,5.359
			S109.519,149.056,110.21,144.527z"/>
		<path fill="#E83658" d="M115.257,149.808c-0.297,0.039-0.316,0.139-0.871,0.118c0,0-0.593,0.021-0.395-0.988
			c0.415-2.116,0-7.476-0.04-9.433c0-0.455,0.93-0.436,0.93-0.436l0.554,0.197l0.059,2.156l0.021,0.059
			c0.454,0.218,1.74-2.768,3.085-2.57c0,0,0.355-0.02,0.514,0.079c0.297,0.198,0.02,0.534,0.04,0.969
			c0.138,0.475-0.91,0.376-1.364,0.673c-0.989,0.633-1.642,1.721-2.255,3.164c0,0-0.158,3.223-0.118,4.231
			c0,0.139-0.021,0.534,0.059,0.692c0.079,0.178,0.139,0.119,0.158,0.297c0.04,0.257-0.02,0.316-0.02,0.435
			C115.612,149.669,115.435,149.788,115.257,149.808z M114.268,148.126c0,0-0.494,1.523,0.06,1.523
			C114.524,149.649,114.524,148.166,114.268,148.126z M116.186,139.722c-0.039-0.435-0.83,0.06-1.107-0.257
			c-0.376-0.435,0.356-0.909,0.297-1.503c-0.06-0.554-0.336-0.87-0.613-1.325c-0.355-0.593,0.573,0.633,0.594,1.404
			c0.02,0.593-0.613,0.989-0.277,1.424c0.257,0.336,1.088-0.158,1.107,0.276c0,0.158-0.178,0.436-0.118,0.416
			C116.067,140.157,116.186,139.899,116.186,139.722z M115.296,148.818c0,0-0.158,0.356,0.218,0.515
			C115.711,149.412,115.395,148.542,115.296,148.818z M116.818,142.728c0,0-0.514,0.376,0.04,0.376
			C117.056,143.104,117.075,142.768,116.818,142.728z"/>
		<path fill="#E83658" d="M114.013,148.284c0,0.119-0.04,0.218-0.08,0.316c-0.118,0.277-0.375-0.731-0.099-0.811
			C113.913,147.929,114.013,148.087,114.013,148.284z M123.425,144.804c0.93-0.593,5.083-0.257,5.083-0.257
			c0.316-0.06,0.336-1.127-0.021-2.393c-0.059-0.178-0.138-0.989-0.217-1.147c-0.158-0.296-0.198-0.059-0.356-0.355
			c-0.296-0.573-0.554-1.088-1.087-1.146c-0.158-0.021-0.277-0.495-0.356-0.534c-0.475-0.257-0.89-0.218-1.522-0.218
			c-0.791,0-1.622,0.257-2.215,0.534c-0.475,0.218-0.277,0.218-0.356,0.336c-0.712,1.088-1.602,2.354-1.8,4.904
			c-0.039,0.573-0.118,1.127,0,1.582c0.812,2.907,2.274,4.192,4.371,4.192c1.879,0,3.777-2.749,3.104-2.729l-0.118-0.258
			c-0.515-0.158-2.631,2.433-3.105,2.234c-0.435-0.178-1.957-0.514-2.848-1.641c-0.178-0.218-0.059-0.237-0.276-0.475
			c-0.594-0.613,0.138-1.028,0.138-2.61C121.843,144.824,122.911,145.12,123.425,144.804z M125.838,143.618
			c-1.424,0.257-3.757,0.415-3.757,0.415c-0.534,0.02-0.238-2.71,1.206-3.54c0.454-0.257,1.187-0.791,1.938-0.633
			c0.613,0.139,1.681,0.475,1.879,1.227c0.06,0.217,0.276,0.078,0.237,0.612c-0.079,0.989,0.257,1.938,0,2.018
			C127.341,143.717,126.293,143.538,125.838,143.618z M127.38,144.251c-0.236-0.356,0.08-0.871,0.08-0.871
			C127.302,143.302,127.677,144.686,127.38,144.251z"/>
		<path fill="#E83658" d="M134.028,146.466c0.02,0.059-0.258-0.1-0.416-0.1c-0.435,0.06,0.139,0.851-0.178,1.127
			c-0.415,0.376-0.851-0.217-1.443-0.138c-0.771,0.079-1.918,1.107-1.345,0.712c0.415-0.316,0.712-0.613,1.266-0.732
			c0.573-0.099,1.107,0.574,1.522,0.158c0.277-0.296-0.277-1.048,0.158-1.107C133.771,146.366,134.028,146.466,134.028,146.466z
			 M137.845,141.205c0.494-0.356-1.8-2.452-3.322-2.452c-1.8,0-2.947,2.018-2.947,3.896c0,3.916,5.558,1.227,5.558,3.976
			c0,1.245-0.89,2.926-2.018,2.926c-1.305,0-3.006-2.373-3.401-1.957l-0.633,0.02c-0.297,0.692,1.958,2.689,3.718,2.689
			c2.057,0,3.777-1.819,3.777-3.955c0-3.678-6.348-1.285-6.348-3.955c0-1.701,1.345-2.334,2.353-2.334
			c0.97,0,1.898,0.613,2.453,1.266c0.118,0.139,0.691,0.436,0.751-0.02L137.845,141.205z"/>
	</g>
	<g>
		<path fill="#492D08" stroke="#F2F7B5" stroke-width="0.3432" stroke-linecap="round" stroke-miterlimit="10" d="M96.281,83.181
			c-1.091-0.317-4.814-35.686,9.068-34.014C123.231,51.323,98.414,83.799,96.281,83.181z"/>
		<path fill="#416B6D" d="M80.073,85.419c-1.172,0.055-17.122-34.069-3.017-37.122C95.223,44.367,82.366,85.312,80.073,85.419z"/>
		<path fill="#416B6D" d="M91.35,79.14c-1.091,0.032-15.325-31.882-2.173-34.518C106.114,41.229,93.48,79.073,91.35,79.14z"/>
		<polygon fill="#F2F7B5" stroke="#492D08" stroke-width="0.4461" stroke-linecap="round" stroke-miterlimit="10" points="
			71.021,96.65 69.619,60.962 91.57,67.14 100.909,80.757 91.57,102.403 		"/>
		<path fill="#F2F7B5" stroke="#492D08" stroke-width="0.4461" stroke-linecap="round" stroke-miterlimit="10" d="M114.219,53.464
			L91.57,67.14c0,0,3.502,12.783,2.566,16.408c-0.935,3.621-2.1,1.917-3.968,4.898c-1.868,2.982,1.401,13.957,1.401,13.957
			l19.379-8.203c0,0-0.714-16.07,0.235-21.947C114.687,65.86,114.219,53.464,114.219,53.464z"/>
		<path fill="#77B65F" stroke="#492D08" stroke-width="0.2623" stroke-linecap="round" stroke-miterlimit="10" d="M75.259,49.515
			c0,0,0.949-0.902,2.913-1.252c1.969-0.348,3.482,0.437,3.482,0.437s-4.129-4.461-4.467-7.899
			c-0.337-3.438-5.922-11.16-5.922-11.16s6.09,5.917,4.846,8.958c-1.243,3.039,0.607,6.327,0.607,6.327s-2.935-1.857-3.211-3.69
			c-0.278-1.834-7.391-14.579-7.391-14.579s5.644,14.274,6.083,16.25c0.439,1.977,3.172,3.363,3.172,3.363s-1.458-0.092-2.961-0.456
			c-1.505-0.365-3.851-6.116-3.851-6.116s3.94,6.689,4.772,7.633C74.167,48.272,75.259,49.515,75.259,49.515z"/>
		<path fill="#77B65F" stroke="#492D08" stroke-width="0.2437" stroke-linecap="round" stroke-miterlimit="10" d="M86.325,45.997
			c0,0,0.763-0.929,2.53-1.455c1.77-0.526,3.264,0.042,3.264,0.042s-4.362-3.687-5.1-6.82c-0.739-3.134-5.365-7.698-5.365-7.698
			s4.865,2.848,4.099,5.778c-0.767,2.932,1.347,5.771,1.347,5.771s-2.937-1.408-3.421-3.068c-0.482-1.661-2.755-5.072-2.755-5.072
			s1.108,4.972,1.759,6.748c0.651,1.776,3.344,2.771,3.344,2.771s-1.356,0.065-2.788-0.114c-1.431-0.179-2.314-3.605-2.314-3.605
			s2.47,4.124,3.353,4.908C85.162,44.966,86.325,45.997,86.325,45.997z"/>
		<path fill="#416B6D" d="M67.749,84.524c0,0,4.629-2.156,9.25,2.023c4,3.614-2.761,13.979-5.762,14.363
			c-1.763,0.228-3.945-0.258-3.945-0.258s-2.101,1.173-3.603,0.301c-5.765-3.346-9.361-16.031-2.23-16.941
			C66.057,83.428,67.749,84.524,67.749,84.524z"/>
		<path fill="#77B65F" stroke="#492D08" stroke-width="0.1504" stroke-linecap="round" stroke-miterlimit="10" d="M67.312,84.655
			c0,0,0.647-0.381,1.739-0.295c1.094,0.09,1.765,0.767,1.765,0.767s-1.455-3.187-1.079-5.222c0.378-2.037,2.448-3.379,2.448-3.379
			s-1.512,0.373-2.658,1.946s-0.704,3.746-0.704,3.746s-1.245-1.507-1.095-2.606c0.149-1.099,1.99-2.748,1.99-2.748
			s-2.861,2.315-2.95,3.521c-0.089,1.207,1.129,2.411,1.129,2.411s-0.755-0.269-1.487-0.7c-0.734-0.432-1.472-0.017-1.472-0.017
			s1.427,0.361,1.715,1.028C66.937,83.776,67.312,84.655,67.312,84.655z"/>
		<path fill="#688E8E" stroke="#F2F7B5" stroke-linecap="round" stroke-miterlimit="10" d="M119.25,96.805c0,0-2.445,1.757-7,2.101
			c-4.553,0.346-7-1.756-7-1.756V81.506l14-0.01V96.805z"/>
		
			<ellipse fill="#416B6D" stroke="#F2F7B5" stroke-width="0.4124" stroke-linecap="round" stroke-miterlimit="10" cx="111.78" cy="81.496" rx="7.367" ry="1.999"/>
		<path fill="#688E8E" stroke="#F2F7B5" stroke-linecap="round" stroke-miterlimit="10" d="M125.25,101.521
			c0,0-2.041,1.334-5.5,1.597c-3.461,0.263-5.5-1.336-5.5-1.336V89.896l11-0.008V101.521z"/>
		
			<ellipse fill="#416B6D" stroke="#F2F7B5" stroke-width="0.3134" stroke-linecap="round" stroke-miterlimit="10" cx="119.816" cy="89.888" rx="5.598" ry="1.52"/>
	</g>
	
		<circle fill="none" stroke="#E83658" stroke-linecap="round" stroke-miterlimit="10" stroke-dasharray="4.3831" cx="91.458" cy="90.469" r="84.391"/>
</g>
</svg>
