<?xml version="1.0" encoding="utf-8"?>
<!-- Generator: Adobe Illustrator 16.0.0, SVG Export Plug-In . SVG Version: 6.00 Build 0)  -->
<!DOCTYPE svg PUBLIC "-//W3C//DTD SVG 1.1//EN" "http://www.w3.org/Graphics/SVG/1.1/DTD/svg11.dtd">
<svg version="1.1" id="flower" xmlns="http://www.w3.org/2000/svg" xmlns:xlink="http://www.w3.org/1999/xlink" x="0px" y="0px"
	 width="286px" height="173px" viewBox="0 0 286 173" enable-background="new 0 0 286 173" xml:space="preserve">
<path fill="none" stroke="#416B6D" stroke-width="0.7998" stroke-linecap="round" stroke-miterlimit="10" d="M227.723,42.387
	c4.325,3.482,5.008,9.812,1.523,14.136c-2.438,3.027-6.869,3.505-9.895,1.066c-2.119-1.706-2.453-4.807-0.746-6.925
	c1.194-1.483,3.362-1.716,4.847-0.523c1.04,0.835,1.204,2.355,0.368,3.394c-0.588,0.728-1.65,0.841-2.377,0.256
	c-0.508-0.409-0.588-1.153-0.182-1.664c0.289-0.355,0.809-0.413,1.166-0.125c0.25,0.202,0.289,0.565,0.088,0.814"/>
<path fill="#73D100" stroke="#416B6D" stroke-width="0.8031" stroke-miterlimit="10" d="M208.968,42.782
	c0,0,15.988-11.459,35.343-8.668c10.756,1.608,21.695,6.945,15.852,18.442c-5.844,11.497-20.855-3.25-29.229-8.179
	C222.562,39.45,208.968,42.782,208.968,42.782z"/>
<path fill="none" stroke="#416B6D" stroke-width="0.7998" stroke-linecap="round" stroke-miterlimit="10" d="M196.264,67.775
	c-3.476-10.335,2.301-21.589,12.918-25.16"/>
<path fill="none" stroke="#416B6D" stroke-width="0.7998" stroke-linecap="round" stroke-miterlimit="10" d="M250.132,43.963
	c-0.233-4.746-13.233-7.959-29.071-7.183"/>
<path fill="none" stroke="#416B6D" stroke-width="0.7998" stroke-linecap="round" stroke-miterlimit="10" d="M245.568,48.878
	c0.27-4.742-12.321-9.309-28.151-10.206"/>
<circle fill="#FFFFFF" stroke="#416B6D" stroke-width="0.7998" stroke-linecap="round" stroke-miterlimit="10" cx="237.723" cy="57.658" r="3.2"/>
<circle fill="#FFFFFF" stroke="#416B6D" stroke-width="0.7998" stroke-linecap="round" stroke-miterlimit="10" cx="245.423" cy="59.551" r="2"/>
<circle fill="#FFFFFF" stroke="#416B6D" stroke-width="0.7998" stroke-linecap="round" stroke-miterlimit="10" cx="252.844" cy="61.189" r="1.866"/>
<circle fill="#FFFFFF" stroke="#416B6D" stroke-width="0.7998" stroke-linecap="round" stroke-miterlimit="10" cx="259.17" cy="59.546" r="1.333"/>
<circle fill="#FFFFFF" stroke="#416B6D" stroke-width="0.7998" stroke-linecap="round" stroke-miterlimit="10" cx="264.282" cy="54.257" r="2.1"/>
<circle fill="#FFFFFF" stroke="#416B6D" stroke-width="0.7998" stroke-linecap="round" stroke-miterlimit="10" cx="271.842" cy="51.182" r="1.602"/>
<circle fill="#FFFFFF" stroke="#416B6D" stroke-width="0.7998" stroke-linecap="round" stroke-miterlimit="10" cx="277.09" cy="46.669" r="1.734"/>
<g>
	
		<ellipse transform="matrix(0.1089 -0.994 0.994 0.1089 -31.3374 153.8097)" fill="#FFFFFF" stroke="#416B6D" stroke-width="0.8031" stroke-miterlimit="10" cx="70.124" cy="94.384" rx="2.918" ry="2.944"/>
	<path fill="#FFFFFF" stroke="#416B6D" stroke-width="0.8031" stroke-miterlimit="10" d="M69.58,89.473
		c-0.175,1.604-1.628,2.758-3.247,2.582c-1.617-0.178-2.783-1.619-2.608-3.223c0.175-1.602,1.625-2.756,3.243-2.579
		C68.588,86.43,69.755,87.873,69.58,89.473z"/>
	
		<ellipse transform="matrix(0.109 -0.994 0.994 0.109 -23.1269 141.317)" fill="#FFFFFF" stroke="#416B6D" stroke-width="0.8031" stroke-miterlimit="10" cx="67.264" cy="83.559" rx="2.917" ry="2.945"/>
	<path fill="#FFFFFF" stroke="#416B6D" stroke-width="0.8031" stroke-miterlimit="10" d="M73.996,78.646
		c-0.176,1.603-1.628,2.758-3.243,2.581c-1.618-0.177-2.785-1.619-2.608-3.223c0.174-1.6,1.626-2.756,3.243-2.58
		C73.003,75.603,74.172,77.046,73.996,78.646z"/>
	
		<ellipse transform="matrix(0.1088 -0.9941 0.9941 0.1088 -6.678 134.8367)" fill="#FFFFFF" stroke="#416B6D" stroke-width="0.8031" stroke-miterlimit="10" cx="71.862" cy="71.143" rx="2.919" ry="2.943"/>
	
		<ellipse transform="matrix(0.1087 -0.9941 0.9941 0.1087 -2.4486 127.8575)" fill="#FFFFFF" stroke="#416B6D" stroke-width="0.8031" stroke-miterlimit="10" cx="70.074" cy="65.294" rx="2.916" ry="2.945"/>
	
		<ellipse transform="matrix(0.1088 -0.9941 0.9941 0.1088 3.6412 123.4747)" fill="#FFFFFF" stroke="#416B6D" stroke-width="0.8031" stroke-miterlimit="10" cx="70.687" cy="59.707" rx="2.918" ry="2.944"/>
	
		<ellipse transform="matrix(0.1088 -0.9941 0.9941 0.1088 10.7538 122.347)" fill="#FFFFFF" stroke="#416B6D" stroke-width="0.8031" stroke-miterlimit="10" cx="73.608" cy="55.176" rx="2.918" ry="2.944"/>
	
		<ellipse transform="matrix(0.1088 -0.9941 0.9941 0.1088 19.1064 122.957)" fill="#FFFFFF" stroke="#416B6D" stroke-width="0.8031" stroke-miterlimit="10" cx="78.125" cy="50.823" rx="2.918" ry="2.944"/>
	
		<ellipse transform="matrix(0.1088 -0.9941 0.9941 0.1088 24.5808 117.7121)" fill="#FFFFFF" stroke="#416B6D" stroke-width="0.8031" stroke-miterlimit="10" cx="77.938" cy="45.147" rx="2.92" ry="2.944"/>
	<path fill="#FFFFFF" stroke="#416B6D" stroke-width="0.8031" stroke-miterlimit="10" d="M85.469,40.315
		c-0.176,1.604-1.63,2.758-3.249,2.582c-1.614-0.177-2.784-1.62-2.608-3.223c0.175-1.601,1.629-2.756,3.243-2.579
		C84.474,37.272,85.644,38.714,85.469,40.315z"/>
	
		<ellipse transform="matrix(0.1089 -0.9941 0.9941 0.1089 42.1443 118.3059)" fill="#FFFFFF" stroke="#416B6D" stroke-width="0.8031" stroke-miterlimit="10" cx="87.059" cy="35.646" rx="2.919" ry="2.945"/>
	
		<ellipse transform="matrix(0.1089 -0.9941 0.9941 0.1089 49.0032 118.6535)" fill="#FFFFFF" stroke="#416B6D" stroke-width="0.8031" stroke-miterlimit="10" cx="90.683" cy="31.994" rx="2.919" ry="2.945"/>
	
		<ellipse transform="matrix(0.109 -0.994 0.994 0.109 57.5848 117.7656)" fill="#FFFFFF" stroke="#416B6D" stroke-width="0.8031" stroke-miterlimit="10" cx="94.487" cy="26.76" rx="2.918" ry="2.945"/>
	
		<ellipse transform="matrix(0.1089 -0.994 0.994 0.1089 64.455 118.1439)" fill="#FFFFFF" stroke="#416B6D" stroke-width="0.8031" stroke-miterlimit="10" cx="98.126" cy="23.12" rx="2.918" ry="2.943"/>
	
		<ellipse transform="matrix(0.1089 -0.9941 0.9941 0.1089 68.8289 124.2463)" fill="#FFFFFF" stroke="#416B6D" stroke-width="0.8031" stroke-miterlimit="10" cx="103.715" cy="23.733" rx="2.919" ry="2.946"/>
	
		<ellipse transform="matrix(0.1088 -0.9941 0.9941 0.1088 77.1897 124.8557)" fill="#FFFFFF" stroke="#416B6D" stroke-width="0.8031" stroke-miterlimit="10" cx="108.231" cy="19.376" rx="2.918" ry="2.943"/>
	
		<ellipse transform="matrix(0.1089 -0.9941 0.9941 0.1089 83.2851 120.4864)" fill="#FFFFFF" stroke="#416B6D" stroke-width="0.8031" stroke-miterlimit="10" cx="108.844" cy="13.791" rx="2.917" ry="2.943"/>
	<path fill="#FFFFFF" stroke="#416B6D" stroke-width="0.8031" stroke-miterlimit="10" d="M117.614,12.328
		c-0.175,1.603-1.626,2.759-3.243,2.581c-1.616-0.177-2.784-1.618-2.609-3.222c0.176-1.601,1.629-2.756,3.243-2.579
		C116.625,9.286,117.791,10.728,117.614,12.328z"/>
	<path fill="#FFFFFF" stroke="#416B6D" stroke-width="0.8031" stroke-miterlimit="10" d="M123.38,11.346
		c-0.176,1.6-1.631,2.756-3.248,2.579c-1.613-0.177-2.783-1.62-2.608-3.22c0.176-1.604,1.631-2.758,3.243-2.582
		C122.385,8.3,123.555,9.742,123.38,11.346z"/>
	<path fill="#FFFFFF" stroke="#416B6D" stroke-width="0.8031" stroke-miterlimit="10" d="M128.967,11.958
		c-0.175,1.6-1.63,2.756-3.243,2.578c-1.616-0.177-2.787-1.62-2.612-3.219c0.175-1.604,1.631-2.758,3.247-2.582
		C127.973,8.912,129.143,10.354,128.967,11.958z"/>
	
		<ellipse transform="matrix(0.1089 -0.994 0.994 0.1089 -31.3374 153.8097)" fill="#FFFFFF" stroke="#416B6D" stroke-width="0.8031" stroke-miterlimit="10" cx="70.124" cy="94.384" rx="2.918" ry="2.944"/>
	
		<ellipse transform="matrix(0.1089 -0.994 0.994 0.1089 -31.3374 153.8097)" fill="#FFFFFF" stroke="#416B6D" stroke-width="0.8031" stroke-miterlimit="10" cx="70.124" cy="94.384" rx="2.918" ry="2.944"/>
	
		<ellipse transform="matrix(0.1086 -0.9941 0.9941 0.1086 107.5228 141.3938)" fill="#FFFFFF" stroke="#416B6D" stroke-width="0.8031" stroke-miterlimit="10" cx="132.605" cy="10.74" rx="2.917" ry="2.944"/>
	
		<ellipse transform="matrix(0.1088 -0.9941 0.9941 0.1088 111.8763 147.4916)" fill="#FFFFFF" stroke="#416B6D" stroke-width="0.8031" stroke-miterlimit="10" cx="138.196" cy="11.351" rx="2.917" ry="2.944"/>
	
		<ellipse transform="matrix(0.1086 -0.9941 0.9941 0.1086 112.7898 156.0897)" fill="#FFFFFF" stroke="#416B6D" stroke-width="0.8031" stroke-miterlimit="10" cx="143.434" cy="15.151" rx="2.919" ry="2.943"/>
	
		<ellipse transform="matrix(0.1091 -0.994 0.994 0.1091 111.4816 163.5611)" fill="#FFFFFF" stroke="#416B6D" stroke-width="0.8031" stroke-miterlimit="10" cx="146.988" cy="19.587" rx="2.918" ry="2.944"/>
	<path fill="#FFFFFF" stroke="#416B6D" stroke-width="0.8031" stroke-miterlimit="10" d="M152.579,25.045
		c-0.177,1.603-1.629,2.758-3.244,2.581c-1.618-0.178-2.786-1.62-2.61-3.224c0.174-1.6,1.627-2.756,3.246-2.579
		C151.585,22,152.754,23.443,152.579,25.045z"/>
	<path fill="#FFFFFF" stroke="#416B6D" stroke-width="0.8031" stroke-miterlimit="10" d="M157.543,23.973
		c-0.176,1.603-1.628,2.758-3.244,2.581c-1.613-0.177-2.785-1.619-2.609-3.221s1.631-2.758,3.246-2.58
		C156.55,20.929,157.718,22.372,157.543,23.973z"/>
	<path fill="#FFFFFF" stroke="#416B6D" stroke-width="0.8031" stroke-miterlimit="10" d="M162.686,21.304
		c-0.176,1.603-1.631,2.758-3.248,2.582c-1.615-0.178-2.785-1.62-2.608-3.222c0.174-1.602,1.628-2.757,3.243-2.579
		C161.689,18.26,162.861,19.703,162.686,21.304z"/>
	
		<ellipse transform="matrix(0.1091 -0.994 0.994 0.1091 124.9775 184.2098)" fill="#FFFFFF" stroke="#416B6D" stroke-width="0.8031" stroke-miterlimit="10" cx="165.252" cy="22.385" rx="2.919" ry="2.945"/>
	
		<ellipse transform="matrix(0.1091 -0.994 0.994 0.1091 125.8535 192.8303)" fill="#FFFFFF" stroke="#416B6D" stroke-width="0.8031" stroke-miterlimit="10" cx="170.502" cy="26.205" rx="2.918" ry="2.944"/>
	
		<ellipse transform="matrix(0.1087 -0.9941 0.9941 0.1087 123.1867 200.0771)" fill="#FFFFFF" stroke="#416B6D" stroke-width="0.8031" stroke-miterlimit="10" cx="173.17" cy="31.341" rx="2.919" ry="2.944"/>
	
		<ellipse transform="matrix(0.109 -0.994 0.994 0.109 120.4191 207.2988)" fill="#FFFFFF" stroke="#416B6D" stroke-width="0.8031" stroke-miterlimit="10" cx="175.842" cy="36.479" rx="2.917" ry="2.943"/>
	<path fill="#FFFFFF" stroke="#416B6D" stroke-width="0.8031" stroke-miterlimit="10" d="M183.199,40.519
		c-0.176,1.599-1.629,2.755-3.243,2.579c-1.617-0.177-2.784-1.62-2.608-3.22c0.176-1.604,1.627-2.759,3.243-2.582
		C182.207,37.473,183.375,38.915,183.199,40.519z"/>
	
		<ellipse transform="matrix(0.1089 -0.9941 0.9941 0.1089 121.8214 222.1299)" fill="#FFFFFF" stroke="#416B6D" stroke-width="0.8031" stroke-miterlimit="10" cx="184.806" cy="43.118" rx="2.919" ry="2.944"/>
	
		<ellipse transform="matrix(0.1091 -0.994 0.994 0.1091 122.0487 229.8249)" fill="#FFFFFF" stroke="#416B6D" stroke-width="0.8031" stroke-miterlimit="10" cx="189.234" cy="46.826" rx="2.919" ry="2.945"/>
	
		<ellipse transform="matrix(0.1087 -0.9941 0.9941 0.1087 116.6514 235.1165)" fill="#FFFFFF" stroke="#416B6D" stroke-width="0.8031" stroke-miterlimit="10" cx="189.435" cy="52.509" rx="2.916" ry="2.944"/>
	
		<ellipse transform="matrix(0.1088 -0.9941 0.9941 0.1088 110.53 239.4785)" fill="#FFFFFF" stroke="#416B6D" stroke-width="0.8031" stroke-miterlimit="10" cx="188.824" cy="58.096" rx="2.917" ry="2.943"/>
	
		<ellipse transform="matrix(0.1091 -0.994 0.994 0.1091 102.8704 243.5888)" fill="#FFFFFF" stroke="#416B6D" stroke-width="0.8031" stroke-miterlimit="10" cx="187.322" cy="64.408" rx="2.919" ry="2.945"/>
	<path fill="#FFFFFF" stroke="#416B6D" stroke-width="0.8031" stroke-miterlimit="10" d="M186.527,69.157
		c-0.176,1.603-1.631,2.759-3.248,2.581c-1.612-0.177-2.783-1.62-2.607-3.222c0.176-1.601,1.629-2.756,3.243-2.58
		C185.533,66.114,186.703,67.556,186.527,69.157z"/>
	
		<ellipse transform="matrix(0.1087 -0.9941 0.9941 0.1087 96.7147 253.3449)" fill="#FFFFFF" stroke="#416B6D" stroke-width="0.8031" stroke-miterlimit="10" cx="189.64" cy="72.738" rx="2.919" ry="2.945"/>
	
		<ellipse transform="matrix(0.1088 -0.9941 0.9941 0.1088 98.4626 261.3093)" fill="#FFFFFF" stroke="#416B6D" stroke-width="0.8031" stroke-miterlimit="10" cx="194.966" cy="75.741" rx="2.917" ry="2.946"/>
	
		<ellipse transform="matrix(0.1088 -0.9941 0.9941 0.1088 96.6095 267.9138)" fill="#FFFFFF" stroke="#416B6D" stroke-width="0.8031" stroke-miterlimit="10" cx="197.729" cy="80.074" rx="2.916" ry="2.944"/>
	
		<ellipse transform="matrix(0.1089 -0.9941 0.9941 0.1089 91.4691 275.5005)" fill="#FFFFFF" stroke="#416B6D" stroke-width="0.8031" stroke-miterlimit="10" cx="199.401" cy="86.731" rx="2.919" ry="2.944"/>
	
		<ellipse transform="matrix(0.1087 -0.9941 0.9941 0.1087 84.7961 279.0419)" fill="#FFFFFF" stroke="#416B6D" stroke-width="0.8031" stroke-miterlimit="10" cx="198.011" cy="92.233" rx="2.919" ry="2.944"/>
	
		<ellipse transform="matrix(0.1088 -0.9941 0.9941 0.1088 76.1826 279.9284)" fill="#FFFFFF" stroke="#416B6D" stroke-width="0.8031" stroke-miterlimit="10" cx="194.204" cy="97.478" rx="2.918" ry="2.945"/>
	
		<ellipse transform="matrix(0.1089 -0.9941 0.9941 0.1089 70.0582 284.2799)" fill="#FFFFFF" stroke="#416B6D" stroke-width="0.8031" stroke-miterlimit="10" cx="193.592" cy="103.063" rx="2.919" ry="2.944"/>
	
		<ellipse transform="matrix(0.1088 -0.9941 0.9941 0.1088 63.978 288.6623)" fill="#FFFFFF" stroke="#416B6D" stroke-width="0.8031" stroke-miterlimit="10" cx="192.981" cy="108.649" rx="2.917" ry="2.944"/>
	
		<ellipse transform="matrix(0.109 -0.994 0.994 0.109 57.8311 292.9885)" fill="#FFFFFF" stroke="#416B6D" stroke-width="0.8031" stroke-miterlimit="10" cx="192.348" cy="114.235" rx="2.917" ry="2.944"/>
	
		<ellipse transform="matrix(0.1088 -0.9941 0.9941 0.1088 48.6525 293.0461)" fill="#FFFFFF" stroke="#416B6D" stroke-width="0.8031" stroke-miterlimit="10" cx="187.767" cy="119.388" rx="2.916" ry="2.944"/>
	
		<ellipse transform="matrix(0.1089 -0.9941 0.9941 0.1089 42.5206 288.1601)" fill="#FFFFFF" stroke="#416B6D" stroke-width="0.8031" stroke-miterlimit="10" cx="181.988" cy="120.363" rx="2.919" ry="2.942"/>
	
		<ellipse transform="matrix(0.1088 -0.9941 0.9941 0.1088 39.9046 280.8451)" fill="#FFFFFF" stroke="#416B6D" stroke-width="0.8031" stroke-miterlimit="10" cx="176.585" cy="118.167" rx="2.917" ry="2.944"/>
	
		<ellipse transform="matrix(0.1087 -0.9941 0.9941 0.1087 34.578 289.9615)" fill="#FFFFFF" stroke="#416B6D" stroke-width="0.8031" stroke-miterlimit="10" cx="178.991" cy="125.698" rx="2.919" ry="2.945"/>
	<path fill="#FFFFFF" stroke="#416B6D" stroke-width="0.8031" stroke-miterlimit="10" d="M179.708,131.427
		c-0.176,1.604-1.63,2.759-3.248,2.581c-1.614-0.176-2.783-1.619-2.608-3.222c0.176-1.601,1.631-2.756,3.244-2.58
		C178.713,128.383,179.882,129.826,179.708,131.427z"/>
	
		<ellipse transform="matrix(0.109 -0.994 0.994 0.109 18.5802 293.42)" fill="#FFFFFF" stroke="#416B6D" stroke-width="0.8031" stroke-miterlimit="10" cx="172.963" cy="136.346" rx="2.917" ry="2.944"/>
	
		<ellipse transform="matrix(0.1087 -0.9941 0.9941 0.1087 11.6552 289.2478)" fill="#FFFFFF" stroke="#416B6D" stroke-width="0.8031" stroke-miterlimit="10" cx="167.135" cy="138.124" rx="2.919" ry="2.945"/>
	<path fill="#FFFFFF" stroke="#416B6D" stroke-width="0.8031" stroke-miterlimit="10" d="M164.825,141.916
		c-0.175,1.602-1.632,2.758-3.244,2.582c-1.619-0.178-2.789-1.622-2.613-3.223c0.177-1.603,1.63-2.758,3.25-2.582
		C163.829,138.871,165,140.314,164.825,141.916z"/>
	
		<ellipse transform="matrix(0.1088 -0.9941 0.9941 0.1088 -4.1833 287.3799)" fill="#FFFFFF" stroke="#416B6D" stroke-width="0.8031" stroke-miterlimit="10" cx="158.177" cy="146.023" rx="2.918" ry="2.945"/>
	
		<ellipse transform="matrix(0.1086 -0.9941 0.9941 0.1086 -11.4009 284.6957)" fill="#FFFFFF" stroke="#416B6D" stroke-width="0.8031" stroke-miterlimit="10" cx="153.047" cy="148.705" rx="2.918" ry="2.944"/>
	
		<ellipse transform="matrix(0.1087 -0.9941 0.9941 0.1087 -16.9273 280.6923)" fill="#FFFFFF" stroke="#416B6D" stroke-width="0.8031" stroke-miterlimit="10" cx="148.072" cy="149.786" rx="2.919" ry="2.945"/>
	
		<ellipse transform="matrix(0.1088 -0.9941 0.9941 0.1088 -21.2779 274.5942)" fill="#FFFFFF" stroke="#416B6D" stroke-width="0.8031" stroke-miterlimit="10" cx="142.499" cy="149.164" rx="2.918" ry="2.945"/>
	
		<ellipse transform="matrix(0.1091 -0.994 0.994 0.1091 -29.9371 275.401)" fill="#FFFFFF" stroke="#416B6D" stroke-width="0.8031" stroke-miterlimit="10" cx="138.668" cy="154.401" rx="2.919" ry="2.944"/>
	
		<ellipse transform="matrix(0.1087 -0.9941 0.9941 0.1087 -38.8615 274)" fill="#FFFFFF" stroke="#416B6D" stroke-width="0.8031" stroke-miterlimit="10" cx="133.374" cy="158.672" rx="2.916" ry="2.944"/>
	
		<ellipse transform="matrix(0.109 -0.994 0.994 0.109 -43.2615 267.836)" fill="#FFFFFF" stroke="#416B6D" stroke-width="0.8031" stroke-miterlimit="10" cx="127.771" cy="158.05" rx="2.917" ry="2.943"/>
	
		<ellipse transform="matrix(0.1087 -0.9941 0.9941 0.1087 -45.8724 260.5488)" fill="#FFFFFF" stroke="#416B6D" stroke-width="0.8031" stroke-miterlimit="10" cx="122.361" cy="155.855" rx="2.92" ry="2.943"/>
	
		<ellipse transform="matrix(0.1089 -0.9941 0.9941 0.1089 -46.7713 251.9281)" fill="#FFFFFF" stroke="#416B6D" stroke-width="0.8031" stroke-miterlimit="10" cx="117.127" cy="152.051" rx="2.92" ry="2.944"/>
	
		<ellipse transform="matrix(0.1088 -0.9941 0.9941 0.1088 -51.7616 244.9638)" fill="#FFFFFF" stroke="#416B6D" stroke-width="0.8031" stroke-miterlimit="10" cx="110.739" cy="151.35" rx="2.919" ry="2.945"/>
	<path fill="#FFFFFF" stroke="#416B6D" stroke-width="0.8031" stroke-miterlimit="10" d="M108.165,150.252
		c-0.175,1.602-1.629,2.756-3.247,2.58c-1.613-0.176-2.783-1.619-2.608-3.221c0.175-1.603,1.63-2.758,3.244-2.581
		C107.171,147.208,108.341,148.65,108.165,150.252z"/>
	
		<ellipse transform="matrix(0.1089 -0.994 0.994 0.1089 -57.8969 230.8721)" fill="#FFFFFF" stroke="#416B6D" stroke-width="0.8031" stroke-miterlimit="10" cx="99.83" cy="147.73" rx="2.918" ry="2.944"/>
	
		<ellipse transform="matrix(0.1088 -0.9941 0.9941 0.1088 -55.1674 223.6489)" fill="#FFFFFF" stroke="#416B6D" stroke-width="0.8031" stroke-miterlimit="10" cx="97.153" cy="142.593" rx="2.918" ry="2.945"/>
	<path fill="#FFFFFF" stroke="#416B6D" stroke-width="0.8031" stroke-miterlimit="10" d="M99.013,137.939
		c-0.176,1.602-1.63,2.758-3.248,2.58c-1.617-0.177-2.783-1.619-2.607-3.222c0.174-1.603,1.625-2.757,3.242-2.58
		C98.018,134.896,99.188,136.337,99.013,137.939z"/>
	
		<ellipse transform="matrix(0.1087 -0.9941 0.9941 0.1087 -53.7933 210.828)" fill="#FFFFFF" stroke="#416B6D" stroke-width="0.8031" stroke-miterlimit="10" cx="90.678" cy="135.414" rx="2.916" ry="2.943"/>
	
		<ellipse transform="matrix(0.1089 -0.9941 0.9941 0.1089 -56.4356 203.458)" fill="#FFFFFF" stroke="#416B6D" stroke-width="0.8031" stroke-miterlimit="10" cx="85.263" cy="133.207" rx="2.919" ry="2.945"/>
	
		<ellipse transform="matrix(0.109 -0.994 0.994 0.109 -56.7052 195.6944)" fill="#FFFFFF" stroke="#416B6D" stroke-width="0.8031" stroke-miterlimit="10" cx="80.811" cy="129.479" rx="2.918" ry="2.944"/>
	
		<ellipse transform="matrix(0.1089 -0.994 0.994 0.1089 -53.1046 187.8643)" fill="#FFFFFF" stroke="#416B6D" stroke-width="0.8031" stroke-miterlimit="10" cx="78.236" cy="123.553" rx="2.92" ry="2.945"/>
	<path fill="#FFFFFF" stroke="#416B6D" stroke-width="0.8031" stroke-miterlimit="10" d="M78.582,117.927
		c-0.175,1.604-1.628,2.759-3.244,2.582c-1.618-0.177-2.787-1.618-2.611-3.224c0.174-1.6,1.629-2.755,3.247-2.578
		C77.59,114.884,78.758,116.327,78.582,117.927z"/>
	
		<ellipse transform="matrix(0.1088 -0.9941 0.9941 0.1088 -48.0067 171.0467)" fill="#FFFFFF" stroke="#416B6D" stroke-width="0.8031" stroke-miterlimit="10" cx="71.392" cy="112.297" rx="2.919" ry="2.944"/>
	
		<ellipse transform="matrix(0.1088 -0.9941 0.9941 0.1088 -46.7681 163.5669)" fill="#FFFFFF" stroke="#416B6D" stroke-width="0.8031" stroke-miterlimit="10" cx="67.84" cy="107.867" rx="2.919" ry="2.945"/>
	
		<ellipse transform="matrix(0.1088 -0.9941 0.9941 0.1088 -38.9259 157.9436)" fill="#FFFFFF" stroke="#416B6D" stroke-width="0.8031" stroke-miterlimit="10" cx="68.628" cy="100.682" rx="2.918" ry="2.943"/>
</g>
<path fill="#BFD898" stroke="#416B6D" stroke-width="0.8031" stroke-miterlimit="10" d="M148.999,30.604
	c0,0-0.399-15.526-8.274-17.568c-7.876-2.041-11.237,1.091-13.894,0.53c-2.657-0.56-11.032-2.554-15.167-1.662
	c-4.135,0.896-3.393,12.555-3.393,12.555s-8.595-3.903-11.578-1.268c-2.98,2.637-4.92,10.502-7.562,13.714
	c-2.638,3.212-10.251,3.862-11.833,8.468c-1.581,4.606,3.241,7.292,3.241,7.292s-8.303,2.049-10.228,8.569
	c-1.928,6.522,3.369,9.794,2.917,13.919c-0.451,4.126-6.95,6.915-5.788,12.292c1.16,5.381,8.654,5.796,8.654,5.796
	s-10.172,6.829-7.162,13.758c3.012,6.928,6.416,7.839,9.599,11.958c3.184,4.12,0.477,11.632,6.141,14.002
	c5.665,2.373,12.97-0.398,12.97-0.398s-0.812,14.791,4.26,16.424c5.074,1.634,4.774-0.555,13.172,1.442
	c8.398,1.998,8.142,6.817,17.083,6.315c8.941-0.502,9.028-12.342,9.028-12.342s6.53,7.984,14.594,3.214
	c8.062-4.771,5.604-6.927,10.004-10.216c4.4-3.285,3.726,0.408,9.881-5.381c6.154-5.789-1.557-17.136-1.557-17.136
	s13.819,4.747,17.67-0.893c3.851-5.636,1.711-10.718,1.705-15.566c-0.01-4.85,4.188-6.274,4.316-17.303
	c0.129-11.025-22.719-10.162-22.719-10.162s19.23-9.608,15.716-18.072c-3.521-8.464-10.769-13.569-13.938-16.607
	c-3.166-3.039-4.448-10.992-11.728-14.616C157.85,18.041,148.999,30.604,148.999,30.604z"/>
<g>
	<path fill="#416B6D" d="M112.934,55.216h0.35c0.895,0,1.284-0.33,1.284-1.595V44.13c0-1.265-0.389-1.595-1.284-1.595h-0.35v-0.583
		c0.622,0.019,2.839,0.058,4.784,0.058c2.295,0,3.209-0.039,4.571-0.058c0.039,1.206,0.078,2.256,0.175,3.306h-0.544
		c-0.195-1.361-0.331-2.567-3.774-2.567h-1.867v5.504h1.692c2.373,0,2.451-0.409,2.49-1.556h0.544
		c-0.02,0.447-0.039,1.051-0.039,1.906c0,0.759,0.02,1.381,0.039,1.771h-0.544c-0.098-0.973-0.117-1.381-2.315-1.381h-1.867v4.667
		c0,1.167,0.428,1.459,1.673,1.459h0.525c3.268,0,4.123-0.623,4.435-2.781h0.544c-0.136,1.206-0.253,2.334-0.389,3.521
		c-1.167-0.02-3.248-0.058-5.349-0.058c-2.412,0-4.162,0.039-4.784,0.058V55.216z"/>
	<path fill="#416B6D" d="M130.241,49.887c0-1.05-0.467-2.236-1.634-2.236c-0.525,0-1.478,0.525-1.478,1.089
		c0,0.312,0.136,0.583,0.272,0.875l-1.245,0.603c-0.195-0.409-0.35-0.7-0.35-1.031c0-0.622,0.447-1.05,1.303-1.556
		c0.836-0.506,1.459-0.72,1.828-0.72c2.412,0,2.781,1.73,2.781,2.587v3.948c0,1.031,0.175,1.245,0.486,1.245
		c0.194,0,0.583-0.136,0.875-0.272v0.525l-1.887,0.895c-0.214,0.097-0.292,0.097-0.37,0.097c-0.252,0-0.389-0.505-0.486-1.109
		c-1.303,0.934-1.867,1.109-2.684,1.109c-1.42,0-2.198-1.05-2.198-2.101c0-1.206,0.739-1.653,2.042-2.159l2.742-1.07v-0.719H130.241
		z M130.241,51.268l-2.023,0.837c-0.389,0.156-1.284,0.544-1.284,1.4c0,0.525,0.506,1.42,1.557,1.42c0.642,0,1.187-0.37,1.809-0.837
		c-0.039-0.213-0.059-0.467-0.059-0.933V51.268L130.241,51.268z"/>
	<path fill="#416B6D" d="M133.488,47.729c1.206-0.739,2.333-1.849,3.15-3.404l0.272-0.058v2.839h3.093l-0.272,0.817h-2.82v4.415
		c0,1.05,0.331,2.353,1.692,2.353c0.642,0,1.225-0.311,1.537-0.505l0.292,0.33l-1.595,1.343c-0.136,0.059-0.292,0.078-0.467,0.078
		c-0.194,0-1.439-0.097-2.178-0.895c-0.68-0.739-0.758-1.73-0.758-2.587v-4.531h-1.945v-0.195H133.488z"/>
	<path fill="#416B6D" d="M81.506,65.288c0.778,0.019,1.75,0.058,2.665,0.058c0.895,0,1.848-0.039,2.646-0.058v0.583h-0.273
		c-0.895,0-1.167,0.389-1.167,0.798c0,0.35,0.117,0.719,0.408,1.439l3.598,8.87l3.832-9.044c0.233-0.564,0.409-1.108,0.409-1.498
		c0-0.389-0.331-0.564-0.778-0.564h-0.37v-0.583c0.604,0.019,1.361,0.058,2.062,0.058c0.681,0,1.381-0.039,2.062-0.058v0.583h-0.37
		c-0.719,0-1.206,0.253-1.887,1.829L89.305,79.39h-0.739l-4.959-11.942c-0.506-1.206-0.856-1.576-1.731-1.576h-0.37V65.288
		L81.506,65.288z"/>
	<path fill="#416B6D" d="M103.271,78.241c-0.778,0.486-1.79,1.031-3.287,1.031c-3.112,0-4.532-2.509-4.532-4.59
		c0-2.275,1.964-4.435,4.182-4.435c2.412,0,3.773,1.498,3.773,3.599v0.194h-6.399c0.078,2.47,1.128,4.415,3.54,4.415
		c1.439,0,2.256-0.467,2.723-0.797V78.241z M101.851,73.378c0-2.12-1.77-2.47-2.373-2.47c-1.789,0-2.47,1.751-2.47,2.47H101.851z"/>
	<path fill="#416B6D" d="M112.838,71.414h-1.672c0.292,0.37,0.7,0.836,0.7,1.809c0,1.965-1.926,2.859-3.112,2.859
		c-0.369,0-0.68-0.039-0.816-0.058c-0.331,0.213-1.167,0.739-1.167,1.108c0,0.544,0.953,0.603,2.042,0.661
		c2.509,0.136,4.104,0.545,4.104,2.684c0,1.984-2.062,2.879-4.124,2.879c-1.42,0-3.987-0.428-3.987-2.431
		c0-1.225,0.992-1.867,1.964-2.042v-0.039c-0.312-0.058-1.322-0.292-1.322-1.207c0-0.603,0.466-1.011,1.633-1.75l0.156-0.097
		c-1.206-0.487-1.964-1.479-1.964-2.548c0-1.751,1.459-2.996,3.287-2.996c0.759,0,1.245,0.156,1.673,0.35h3.17L112.838,71.414z
		 M108.948,82.695c1.479,0,2.879-0.506,2.879-1.79c0-1.342-1.479-1.711-3.151-1.711c-0.758,0-2.781,0-2.781,1.711
		C105.895,81.8,106.692,82.695,108.948,82.695z M108.618,75.499c1.245,0,1.77-0.914,1.77-2.042c0-1.867-0.915-2.626-1.907-2.626
		c-0.933,0-1.73,0.915-1.73,2.12C106.751,74.137,107.373,75.499,108.618,75.499z"/>
	<path fill="#416B6D" d="M121.979,78.241c-0.778,0.486-1.79,1.031-3.287,1.031c-3.112,0-4.532-2.509-4.532-4.59
		c0-2.275,1.965-4.435,4.182-4.435c2.412,0,3.773,1.498,3.773,3.599v0.194h-6.399c0.078,2.47,1.128,4.415,3.54,4.415
		c1.439,0,2.256-0.467,2.723-0.797V78.241z M120.559,73.378c0-2.12-1.77-2.47-2.373-2.47c-1.789,0-2.47,1.751-2.47,2.47H120.559z"/>
	<path fill="#416B6D" d="M122.774,71.064c1.206-0.739,2.334-1.848,3.151-3.404l0.272-0.058v2.839h3.093l-0.272,0.817h-2.82v4.415
		c0,1.05,0.331,2.354,1.692,2.354c0.642,0,1.225-0.312,1.537-0.506l0.292,0.331l-1.595,1.342c-0.136,0.058-0.292,0.078-0.467,0.078
		c-0.195,0-1.44-0.098-2.178-0.895c-0.681-0.739-0.759-1.731-0.759-2.586v-4.532h-1.945L122.774,71.064L122.774,71.064z"/>
	<path fill="#416B6D" d="M135.376,73.223c0-1.05-0.467-2.237-1.634-2.237c-0.525,0-1.478,0.526-1.478,1.089
		c0,0.312,0.136,0.584,0.272,0.875l-1.245,0.604c-0.194-0.409-0.35-0.7-0.35-1.031c0-0.622,0.447-1.05,1.303-1.556
		c0.836-0.506,1.459-0.72,1.828-0.72c2.412,0,2.782,1.731,2.782,2.587v3.948c0,1.031,0.175,1.245,0.486,1.245
		c0.195,0,0.584-0.136,0.875-0.272v0.525l-1.886,0.895c-0.214,0.098-0.292,0.098-0.37,0.098c-0.252,0-0.389-0.506-0.486-1.108
		c-1.303,0.933-1.867,1.108-2.684,1.108c-1.419,0-2.198-1.05-2.198-2.101c0-1.206,0.739-1.652,2.042-2.159l2.743-1.069V73.223z
		 M135.376,74.604l-2.022,0.836c-0.389,0.155-1.284,0.544-1.284,1.4c0,0.525,0.505,1.42,1.556,1.42c0.641,0,1.186-0.369,1.808-0.836
		c-0.039-0.214-0.058-0.467-0.058-0.934V74.604z"/>
	<path fill="#416B6D" d="M139.051,78.552h0.35c0.875,0,1.032-0.233,1.032-1.361V72.95c0-0.642-0.176-0.934-0.623-0.934
		c-0.176,0-0.486,0.078-0.759,0.214v-0.583c0.817-0.35,1.75-0.797,2.548-1.4h0.194v2.023h0.039c0.642-1.323,1.478-2.023,2.471-2.023
		c0.545,0,0.914,0.117,1.168,0.194v1.829h-0.312c-0.138-0.545-0.72-0.701-1.245-0.701c-0.779,0-2.003,0.584-2.003,2.471v3.481
		c0,0.875,0.097,1.031,0.855,1.031h0.369v0.583c-0.447-0.02-1.303-0.059-1.944-0.059c-0.662,0-1.517,0.039-2.14,0.059V78.552z"/>
	<path fill="#416B6D" d="M146.207,78.552h0.389c0.7,0,1.147-0.233,1.147-1.615v-3.929c0-0.778-0.234-0.992-0.603-0.992
		c-0.293,0-0.623,0.117-0.836,0.214v-0.583c0.836-0.312,2.178-1.012,2.723-1.4h0.193v6.69c0,1.382,0.447,1.615,1.147,1.615h0.389
		v0.583c-0.739-0.02-1.651-0.059-2.274-0.059s-1.537,0.039-2.276,0.059L146.207,78.552L146.207,78.552z M148.482,66.357
		c0.545,0,0.973,0.428,0.973,0.972c0,0.545-0.428,0.973-0.973,0.973s-0.973-0.428-0.973-0.973
		C147.51,66.785,147.938,66.357,148.482,66.357z"/>
	<path fill="#416B6D" d="M156.98,73.223c0-1.05-0.467-2.237-1.633-2.237c-0.525,0-1.479,0.526-1.479,1.089
		c0,0.312,0.136,0.584,0.271,0.875l-1.244,0.604c-0.195-0.409-0.351-0.7-0.351-1.031c0-0.622,0.447-1.05,1.304-1.556
		c0.836-0.506,1.459-0.72,1.827-0.72c2.412,0,2.781,1.731,2.781,2.587v3.948c0,1.031,0.176,1.245,0.487,1.245
		c0.193,0,0.582-0.136,0.875-0.272v0.525l-1.887,0.895c-0.213,0.098-0.291,0.098-0.369,0.098c-0.254,0-0.39-0.506-0.486-1.108
		c-1.303,0.933-1.867,1.108-2.684,1.108c-1.42,0-2.199-1.05-2.199-2.101c0-1.206,0.74-1.652,2.043-2.159l2.742-1.069V73.223z
		 M156.98,74.604l-2.022,0.836c-0.39,0.155-1.284,0.544-1.284,1.4c0,0.525,0.506,1.42,1.557,1.42c0.642,0,1.186-0.369,1.809-0.836
		c-0.039-0.214-0.059-0.467-0.059-0.934V74.604z"/>
	<path fill="#416B6D" d="M160.656,78.552h0.35c0.875,0,1.031-0.233,1.031-1.361v-3.307c0-1.75-0.232-2.042-0.682-2.042
		c-0.174,0-0.428,0.078-0.699,0.214v-0.583c0.816-0.272,1.75-0.719,2.548-1.225h0.194v1.712c0.719-0.759,1.691-1.712,2.957-1.712
		c0.66,0,1.789,0.35,2.373,1.479c0.369,0.681,0.428,1.536,0.428,2.354v3.52c0,0.759,0.136,0.953,1.089,0.953h0.292v0.583
		c-0.467-0.02-1.342-0.059-2.003-0.059c-0.7,0-1.595,0.039-2.12,0.059v-0.583h0.35c0.817,0,0.914-0.409,0.914-1.615v-3.053
		c0-1.05-0.097-1.556-0.642-2.081c-0.253-0.253-0.681-0.467-1.343-0.467c-0.816,0-1.73,0.739-2.178,1.167v5.018
		c0,0.875,0.098,1.031,0.855,1.031h0.37v0.583c-0.447-0.02-1.304-0.059-1.945-0.059c-0.661,0-1.517,0.039-2.139,0.059
		L160.656,78.552L160.656,78.552z"/>
	<path fill="#416B6D" d="M118.562,101.889h0.389c0.7,0,1.147-0.233,1.147-1.613v-3.931c0-0.776-0.233-0.991-0.603-0.991
		c-0.292,0-0.622,0.117-0.836,0.215v-0.584c0.836-0.312,2.178-1.012,2.723-1.4h0.195v6.691c0,1.38,0.447,1.613,1.147,1.613h0.389
		v0.584c-0.739-0.02-1.653-0.06-2.276-0.06c-0.622,0-1.536,0.04-2.275,0.06V101.889L118.562,101.889z M120.838,89.693
		c0.544,0,0.972,0.428,0.972,0.972c0,0.545-0.428,0.972-0.972,0.972s-0.972-0.427-0.972-0.972
		C119.866,90.121,120.293,89.693,120.838,89.693z"/>
	<path fill="#416B6D" d="M124.007,101.889h0.35c0.875,0,1.031-0.233,1.031-1.361v-3.307c0-1.75-0.234-2.043-0.681-2.043
		c-0.175,0-0.428,0.078-0.7,0.215v-0.584c0.817-0.271,1.75-0.72,2.548-1.226h0.194v1.711c0.72-0.758,1.693-1.711,2.957-1.711
		c0.662,0,1.79,0.351,2.373,1.479c0.37,0.681,0.428,1.537,0.428,2.354v3.521c0,0.758,0.136,0.953,1.089,0.953h0.292v0.582
		c-0.467-0.019-1.342-0.059-2.003-0.059c-0.7,0-1.595,0.04-2.12,0.059v-0.582h0.35c0.817,0,0.914-0.408,0.914-1.615v-3.053
		c0-1.051-0.097-1.557-0.642-2.082c-0.253-0.252-0.681-0.468-1.342-0.468c-0.817,0-1.731,0.739-2.178,1.167v5.018
		c0,0.875,0.097,1.031,0.855,1.031h0.37v0.584c-0.448-0.02-1.303-0.06-1.945-0.06c-0.662,0-1.517,0.04-2.14,0.06V101.889
		L124.007,101.889z"/>
	<path fill="#416B6D" d="M99.281,125.225h0.448c1.05,0,1.245-0.252,1.245-1.848v-10.602h-2.217c-2.082,0-2.334,1.207-2.451,2.724
		h-0.661v-3.54c0.583,0.02,3.656,0.059,6.185,0.059c2.333,0,5.523-0.039,6.185-0.059v3.54h-0.662
		c-0.117-1.517-0.37-2.724-2.451-2.724h-2.217v10.602c0,1.596,0.194,1.848,1.245,1.848h0.448v0.584
		c-0.739-0.021-1.576-0.059-2.548-0.059c-0.973,0-1.809,0.039-2.548,0.059L99.281,125.225L99.281,125.225z"/>
	<path fill="#416B6D" d="M111.516,116.919c2.801,0,4.532,2.14,4.532,4.746c0,2.295-1.828,4.278-4.454,4.278
		c-2.178,0-4.435-1.711-4.435-4.647C107.159,119.214,108.695,116.919,111.516,116.919z M111.185,117.581
		c-1.206,0-2.392,1.147-2.392,3.345c0,1.887,0.992,4.357,3.092,4.357c1.848,0,2.529-1.4,2.529-3.249
		C114.414,119.798,113.324,117.581,111.185,117.581z"/>
	<path fill="#416B6D" d="M117.29,125.225h0.351c0.875,0,1.031-0.232,1.031-1.36v-4.24c0-0.644-0.175-0.935-0.623-0.935
		c-0.175,0-0.486,0.078-0.759,0.215v-0.584c0.817-0.35,1.75-0.797,2.548-1.4h0.194v2.023h0.039c0.642-1.323,1.478-2.023,2.47-2.023
		c0.545,0,0.914,0.117,1.167,0.194v1.829h-0.312c-0.136-0.545-0.72-0.701-1.246-0.701c-0.777,0-2.003,0.584-2.003,2.471v3.48
		c0,0.875,0.097,1.031,0.856,1.031h0.37v0.584c-0.447-0.021-1.303-0.059-1.945-0.059c-0.661,0-1.517,0.039-2.14,0.059v-0.584H117.29
		z"/>
	<path fill="#416B6D" d="M129.153,116.919c2.801,0,4.532,2.14,4.532,4.746c0,2.295-1.829,4.278-4.455,4.278
		c-2.178,0-4.434-1.711-4.434-4.647C124.797,119.214,126.333,116.919,129.153,116.919z M128.823,117.581
		c-1.206,0-2.392,1.147-2.392,3.345c0,1.887,0.992,4.357,3.093,4.357c1.847,0,2.528-1.4,2.528-3.249
		C132.052,119.798,130.962,117.581,128.823,117.581z"/>
	<path fill="#416B6D" d="M134.928,125.225h0.35c0.875,0,1.031-0.232,1.031-1.36v-3.308c0-1.75-0.233-2.043-0.681-2.043
		c-0.175,0-0.428,0.078-0.7,0.215v-0.584c0.817-0.271,1.75-0.72,2.548-1.226h0.194v1.712c0.72-0.759,1.692-1.712,2.957-1.712
		c0.662,0,1.79,0.351,2.373,1.479c0.369,0.681,0.428,1.535,0.428,2.354v3.521c0,0.758,0.136,0.953,1.089,0.953h0.291v0.582
		c-0.467-0.02-1.342-0.058-2.002-0.058c-0.7,0-1.595,0.039-2.121,0.058v-0.582h0.351c0.817,0,0.914-0.41,0.914-1.615v-3.053
		c0-1.052-0.097-1.558-0.642-2.082c-0.253-0.254-0.681-0.468-1.341-0.468c-0.817,0-1.731,0.74-2.179,1.167v5.018
		c0,0.875,0.098,1.031,0.856,1.031h0.37v0.584c-0.447-0.021-1.303-0.059-1.945-0.059c-0.661,0-1.517,0.039-2.14,0.059
		L134.928,125.225L134.928,125.225z"/>
	<path fill="#416B6D" d="M145.312,117.736c1.207-0.739,2.334-1.848,3.15-3.404l0.271-0.059v2.84h3.094l-0.271,0.816h-2.822v4.415
		c0,1.05,0.332,2.354,1.692,2.354c0.642,0,1.226-0.311,1.536-0.506l0.292,0.33l-1.595,1.343c-0.137,0.059-0.292,0.077-0.467,0.077
		c-0.195,0-1.439-0.096-2.18-0.895c-0.681-0.738-0.758-1.73-0.758-2.586v-4.531h-1.945v-0.195H145.312z"/>
	<path fill="#416B6D" d="M157.253,116.919c2.802,0,4.532,2.14,4.532,4.746c0,2.295-1.829,4.278-4.455,4.278
		c-2.178,0-4.434-1.711-4.434-4.647C152.896,119.214,154.434,116.919,157.253,116.919z M156.923,117.581
		c-1.206,0-2.392,1.147-2.392,3.345c0,1.887,0.992,4.357,3.093,4.357c1.847,0,2.528-1.4,2.528-3.249
		C160.152,119.798,159.062,117.581,156.923,117.581z"/>
</g>
<path fill="none" stroke="#416B6D" stroke-width="0.7998" stroke-linecap="round" stroke-miterlimit="10" d="M59.658,137.982
	c-4.325,3.482-5.009,9.812-1.525,14.136c2.438,3.028,6.869,3.506,9.896,1.067c2.119-1.707,2.452-4.809,0.747-6.928
	c-1.195-1.48-3.363-1.716-4.848-0.521c-1.039,0.836-1.203,2.356-0.368,3.394c0.587,0.728,1.65,0.843,2.377,0.257
	c0.509-0.408,0.588-1.152,0.182-1.664c-0.29-0.355-0.809-0.412-1.167-0.125c-0.25,0.202-0.289,0.565-0.088,0.815"/>
<path fill="#73D100" stroke="#416B6D" stroke-width="0.8031" stroke-miterlimit="10" d="M78.411,138.378
	c0,0-15.988-11.459-35.344-8.668c-10.754,1.608-21.694,6.946-15.85,18.442c5.844,11.498,20.856-3.25,29.229-8.178
	C64.817,135.046,78.411,138.378,78.411,138.378z"/>
<path fill="none" stroke="#416B6D" stroke-width="0.7998" stroke-linecap="round" stroke-miterlimit="10" d="M91.115,163.371
	c3.476-10.335-2.3-21.589-12.917-25.159"/>
<path fill="none" stroke="#416B6D" stroke-width="0.7998" stroke-linecap="round" stroke-miterlimit="10" d="M37.247,139.559
	c0.233-4.746,13.234-7.957,29.071-7.183"/>
<path fill="none" stroke="#416B6D" stroke-width="0.7998" stroke-linecap="round" stroke-miterlimit="10" d="M41.811,144.475
	c-0.269-4.742,12.322-9.309,28.153-10.207"/>
<circle fill="#FFFFFF" stroke="#416B6D" stroke-width="0.7998" stroke-linecap="round" stroke-miterlimit="10" cx="49.656" cy="153.255" r="3.2"/>
<circle fill="#FFFFFF" stroke="#416B6D" stroke-width="0.7998" stroke-linecap="round" stroke-miterlimit="10" cx="41.956" cy="155.146" r="2"/>
<circle fill="#FFFFFF" stroke="#416B6D" stroke-width="0.7998" stroke-linecap="round" stroke-miterlimit="10" cx="34.537" cy="156.786" r="1.866"/>
<circle fill="#FFFFFF" stroke="#416B6D" stroke-width="0.7998" stroke-linecap="round" stroke-miterlimit="10" cx="28.21" cy="155.142" r="1.333"/>
<circle fill="#FFFFFF" stroke="#416B6D" stroke-width="0.7998" stroke-linecap="round" stroke-miterlimit="10" cx="23.097" cy="149.853" r="2.1"/>
<circle fill="#FFFFFF" stroke="#416B6D" stroke-width="0.7998" stroke-linecap="round" stroke-miterlimit="10" cx="15.538" cy="146.779" r="1.602"/>
<circle fill="#FFFFFF" stroke="#416B6D" stroke-width="0.7998" stroke-linecap="round" stroke-miterlimit="10" cx="10.289" cy="142.264" r="1.734"/>
</svg>
