<?xml version="1.0" encoding="utf-8"?>
<!-- Generator: Adobe Illustrator 16.0.0, SVG Export Plug-In . SVG Version: 6.00 Build 0)  -->
<!DOCTYPE svg PUBLIC "-//W3C//DTD SVG 1.1//EN" "http://www.w3.org/Graphics/SVG/1.1/DTD/svg11.dtd">
<svg version="1.1" id="flower" xmlns="http://www.w3.org/2000/svg" xmlns:xlink="http://www.w3.org/1999/xlink" x="0px" y="0px"
	 width="178px" height="164px" viewBox="0 0 178 164" enable-background="new 0 0 178 164" xml:space="preserve">
<g>
	
		<ellipse transform="matrix(-0.3299 0.944 -0.944 -0.3299 252.3372 117.1133)" fill="#DBF7FC" stroke="#416B6D" stroke-width="0.8543" stroke-miterlimit="10" cx="84.605" cy="148.111" rx="3.131" ry="3.104"/>
	<path fill="#DBF7FC" stroke="#416B6D" stroke-width="0.8543" stroke-miterlimit="10" d="M79.389,147.499
		c1.62,0.565,2.469,2.348,1.897,3.983c-0.571,1.633-2.347,2.496-3.965,1.931c-1.617-0.564-2.468-2.347-1.896-3.979
		C75.998,147.796,77.772,146.933,79.389,147.499z"/>
	
		<ellipse transform="matrix(-0.3301 0.9439 -0.9439 -0.3301 236.8879 128.8613)" fill="#DBF7FC" stroke="#416B6D" stroke-width="0.8543" stroke-miterlimit="10" cx="72.72" cy="148.485" rx="3.133" ry="3.104"/>
	
		<ellipse transform="matrix(-0.33 0.944 -0.944 -0.33 225.945 126.1902)" fill="#DBF7FC" stroke="#416B6D" stroke-width="0.8543" stroke-miterlimit="10" cx="68.19" cy="143.279" rx="3.131" ry="3.105"/>
	
		<ellipse transform="matrix(-0.3301 0.9439 -0.9439 -0.3301 213.9156 129.6679)" fill="#DBF7FC" stroke="#416B6D" stroke-width="0.8543" stroke-miterlimit="10" cx="60.948" cy="140.737" rx="3.131" ry="3.105"/>
	<path fill="#DBF7FC" stroke="#416B6D" stroke-width="0.8543" stroke-miterlimit="10" d="M55.48,138.235
		c1.616,0.564,2.467,2.348,1.895,3.979c-0.571,1.634-2.345,2.5-3.962,1.933c-1.621-0.565-2.469-2.347-1.898-3.981
		C52.086,138.533,53.861,137.669,55.48,138.235z"/>
	
		<ellipse transform="matrix(-0.3302 0.9439 -0.9439 -0.3302 196.3043 139.1197)" fill="#DBF7FC" stroke="#416B6D" stroke-width="0.8543" stroke-miterlimit="10" cx="48.792" cy="139.21" rx="3.131" ry="3.105"/>
	
		<ellipse transform="matrix(-0.3302 0.9439 -0.9439 -0.3302 187.1175 137.4341)" fill="#DBF7FC" stroke="#416B6D" stroke-width="0.8543" stroke-miterlimit="10" cx="44.799" cy="135.104" rx="3.13" ry="3.103"/>
	
		<ellipse transform="matrix(-0.33 0.944 -0.944 -0.33 177.1849 133.0093)" fill="#DBF7FC" stroke="#416B6D" stroke-width="0.8543" stroke-miterlimit="10" cx="41.392" cy="129.381" rx="3.132" ry="3.105"/>
	
		<ellipse transform="matrix(-0.3302 0.9439 -0.9439 -0.3302 168.1899 137.0894)" fill="#DBF7FC" stroke="#416B6D" stroke-width="0.8543" stroke-miterlimit="10" cx="35.456" cy="128.218" rx="3.131" ry="3.105"/>
	<path fill="#DBF7FC" stroke="#416B6D" stroke-width="0.8543" stroke-miterlimit="10" d="M32.252,119.251
		c1.62,0.563,2.468,2.349,1.896,3.984c-0.57,1.63-2.345,2.496-3.964,1.932c-1.617-0.565-2.465-2.349-1.895-3.979
		C28.861,119.552,30.635,118.685,32.252,119.251z"/>
	
		<ellipse transform="matrix(-0.3298 0.944 -0.944 -0.3298 146.9238 128.6709)" fill="#DBF7FC" stroke="#416B6D" stroke-width="0.8543" stroke-miterlimit="10" cx="27.791" cy="116.485" rx="3.13" ry="3.105"/>
	
		<ellipse transform="matrix(-0.3299 0.944 -0.944 -0.3299 138.687 125.2456)" fill="#DBF7FC" stroke="#416B6D" stroke-width="0.8543" stroke-miterlimit="10" cx="24.89" cy="111.847" rx="3.133" ry="3.105"/>
	
		<ellipse transform="matrix(-0.3304 0.9438 -0.9438 -0.3304 127.7638 122.6456)" fill="#DBF7FC" stroke="#416B6D" stroke-width="0.8543" stroke-miterlimit="10" cx="20.376" cy="106.644" rx="3.132" ry="3.105"/>
	
		<ellipse transform="matrix(-0.3302 0.9439 -0.9439 -0.3302 119.5288 119.2109)" fill="#DBF7FC" stroke="#416B6D" stroke-width="0.8543" stroke-miterlimit="10" cx="17.467" cy="102.016" rx="3.13" ry="3.104"/>
	
		<ellipse transform="matrix(-0.3301 0.9439 -0.9439 -0.3301 116.8223 109.8364)" fill="#DBF7FC" stroke="#416B6D" stroke-width="0.8543" stroke-miterlimit="10" cx="19.438" cy="96.37" rx="3.133" ry="3.104"/>
	
		<ellipse transform="matrix(-0.33 0.944 -0.944 -0.33 106.8458 105.4474)" fill="#DBF7FC" stroke="#416B6D" stroke-width="0.8543" stroke-miterlimit="10" cx="16.003" cy="90.64" rx="3.13" ry="3.104"/>
	
		<ellipse transform="matrix(-0.3298 0.944 -0.944 -0.3298 97.5051 108.1315)" fill="#DBF7FC" stroke="#416B6D" stroke-width="0.8543" stroke-miterlimit="10" cx="10.371" cy="88.676" rx="3.131" ry="3.104"/>
	
		<ellipse transform="matrix(-0.33 0.944 -0.944 -0.33 90.7688 99.9223)" fill="#DBF7FC" stroke="#416B6D" stroke-width="0.8543" stroke-miterlimit="10" cx="9.924" cy="82.173" rx="3.131" ry="3.105"/>
	<path fill="#DBF7FC" stroke="#416B6D" stroke-width="0.8543" stroke-miterlimit="10" d="M11.317,73.016
		c1.617,0.565,2.465,2.349,1.894,3.983c-0.57,1.629-2.346,2.496-3.962,1.932c-1.62-0.566-2.467-2.352-1.898-3.98
		C7.921,73.315,9.698,72.45,11.317,73.016z"/>
	<path fill="#DBF7FC" stroke="#416B6D" stroke-width="0.8543" stroke-miterlimit="10" d="M13.291,67.372
		c1.616,0.564,2.465,2.349,1.896,3.979c-0.571,1.632-2.347,2.5-3.963,1.936c-1.619-0.566-2.468-2.352-1.897-3.984
		C9.896,67.671,11.67,66.805,13.291,67.372z"/>
	
		<ellipse transform="matrix(-0.3299 0.944 -0.944 -0.3299 252.3372 117.1133)" fill="#DBF7FC" stroke="#416B6D" stroke-width="0.8543" stroke-miterlimit="10" cx="84.605" cy="148.111" rx="3.131" ry="3.104"/>
	
		<ellipse transform="matrix(-0.3299 0.944 -0.944 -0.3299 252.3372 117.1133)" fill="#DBF7FC" stroke="#416B6D" stroke-width="0.8543" stroke-miterlimit="10" cx="84.605" cy="148.111" rx="3.131" ry="3.104"/>
	
		<ellipse transform="matrix(-0.3302 0.9439 -0.9439 -0.3302 76.9192 72.0486)" fill="#DBF7FC" stroke="#416B6D" stroke-width="0.8543" stroke-miterlimit="10" cx="12.897" cy="63.314" rx="3.132" ry="3.103"/>
	
		<ellipse transform="matrix(-0.33 0.944 -0.944 -0.33 74.2082 62.6513)" fill="#DBF7FC" stroke="#416B6D" stroke-width="0.8543" stroke-miterlimit="10" cx="14.871" cy="57.66" rx="3.131" ry="3.104"/>
	
		<ellipse transform="matrix(-0.33 0.944 -0.944 -0.33 76.8638 51.7428)" fill="#DBF7FC" stroke="#416B6D" stroke-width="0.8543" stroke-miterlimit="10" cx="20.07" cy="53.147" rx="3.13" ry="3.105"/>
	
		<ellipse transform="matrix(-0.33 0.944 -0.944 -0.33 81.63 43.1146)" fill="#DBF7FC" stroke="#416B6D" stroke-width="0.8543" stroke-miterlimit="10" cx="25.515" cy="50.525" rx="3.132" ry="3.105"/>
	<path fill="#DBF7FC" stroke="#416B6D" stroke-width="0.8543" stroke-miterlimit="10" d="M32.513,46.038
		c1.62,0.566,2.468,2.35,1.898,3.981c-0.572,1.633-2.346,2.499-3.966,1.933c-1.617-0.565-2.467-2.348-1.895-3.981
		C29.12,46.339,30.896,45.473,32.513,46.038z"/>
	
		<ellipse transform="matrix(-0.33 0.944 -0.944 -0.33 83.1196 28.1804)" fill="#DBF7FC" stroke="#416B6D" stroke-width="0.8543" stroke-miterlimit="10" cx="31.56" cy="43.586" rx="3.132" ry="3.104"/>
	<path fill="#DBF7FC" stroke="#416B6D" stroke-width="0.8543" stroke-miterlimit="10" d="M31.058,34.667
		c1.619,0.567,2.468,2.353,1.895,3.986c-0.57,1.632-2.345,2.498-3.964,1.931c-1.617-0.565-2.466-2.349-1.895-3.98
		C27.666,34.972,29.441,34.103,31.058,34.667z"/>
	
		<ellipse transform="matrix(-0.3301 0.944 -0.944 -0.3301 74.0762 11.9443)" fill="#DBF7FC" stroke="#416B6D" stroke-width="0.8543" stroke-miterlimit="10" cx="32.8" cy="32.259" rx="3.134" ry="3.105"/>
	
		<ellipse transform="matrix(-0.3299 0.944 -0.944 -0.3299 76.7333 1.0173)" fill="#DBF7FC" stroke="#416B6D" stroke-width="0.8543" stroke-miterlimit="10" cx="38.006" cy="27.741" rx="3.132" ry="3.105"/>
	
		<ellipse transform="matrix(-0.3302 0.9439 -0.9439 -0.3302 83.2395 -6.6367)" fill="#DBF7FC" stroke="#416B6D" stroke-width="0.8543" stroke-miterlimit="10" cx="43.974" cy="26.214" rx="3.131" ry="3.105"/>
	
		<ellipse transform="matrix(-0.33 0.944 -0.944 -0.33 89.7047 -14.3058)" fill="#DBF7FC" stroke="#416B6D" stroke-width="0.8543" stroke-miterlimit="10" cx="49.929" cy="24.682" rx="3.131" ry="3.104"/>
	
		<ellipse transform="matrix(-0.33 0.944 -0.944 -0.33 92.7438 -23.9006)" fill="#DBF7FC" stroke="#416B6D" stroke-width="0.8543" stroke-miterlimit="10" cx="54.854" cy="20.963" rx="3.13" ry="3.103"/>
	
		<ellipse transform="matrix(-0.3302 0.9439 -0.9439 -0.3302 94.4685 -33.0695)" fill="#DBF7FC" stroke="#416B6D" stroke-width="0.8543" stroke-miterlimit="10" cx="58.967" cy="16.983" rx="3.132" ry="3.105"/>
	<path fill="#DBF7FC" stroke="#416B6D" stroke-width="0.8543" stroke-miterlimit="10" d="M64.917,10.311
		c1.617,0.566,2.468,2.346,1.896,3.981c-0.571,1.633-2.347,2.498-3.964,1.933c-1.617-0.566-2.466-2.348-1.895-3.982
		C61.526,10.606,63.3,9.744,64.917,10.311z"/>
	
		<ellipse transform="matrix(-0.33 0.944 -0.944 -0.33 106.47 -46.7003)" fill="#DBF7FC" stroke="#416B6D" stroke-width="0.8543" stroke-miterlimit="10" cx="69.808" cy="14.434" rx="3.131" ry="3.103"/>
	
		<ellipse transform="matrix(-0.33 0.944 -0.944 -0.33 115.831 -49.4155)" fill="#DBF7FC" stroke="#416B6D" stroke-width="0.8543" stroke-miterlimit="10" cx="75.453" cy="16.4" rx="3.131" ry="3.104"/>
	
		<ellipse transform="matrix(-0.3301 0.944 -0.944 -0.3301 126.9419 -51.1449)" fill="#DBF7FC" stroke="#416B6D" stroke-width="0.8543" stroke-miterlimit="10" cx="81.62" cy="19.473" rx="3.133" ry="3.105"/>
	<path fill="#DBF7FC" stroke="#416B6D" stroke-width="0.8543" stroke-miterlimit="10" d="M86.369,21.43
		c1.617,0.566,2.467,2.35,1.896,3.984c-0.569,1.631-2.345,2.497-3.963,1.931c-1.619-0.566-2.466-2.35-1.896-3.98
		C82.975,21.73,84.75,20.863,86.369,21.43z"/>
	<path fill="#DBF7FC" stroke="#416B6D" stroke-width="0.8543" stroke-miterlimit="10" d="M91.85,16.106
		c1.619,0.565,2.467,2.348,1.896,3.981c-0.57,1.633-2.346,2.499-3.963,1.934c-1.62-0.566-2.468-2.349-1.897-3.982
		C88.457,16.405,90.232,15.542,91.85,16.106z"/>
	
		<ellipse transform="matrix(-0.3302 0.9439 -0.9439 -0.3302 140.1096 -70.8756)" fill="#DBF7FC" stroke="#416B6D" stroke-width="0.8543" stroke-miterlimit="10" cx="95.202" cy="14.274" rx="3.132" ry="3.103"/>
	
		<ellipse transform="matrix(-0.3301 0.944 -0.944 -0.3301 145.2352 -78.1964)" fill="#DBF7FC" stroke="#416B6D" stroke-width="0.8543" stroke-miterlimit="10" cx="100.366" cy="12.44" rx="3.133" ry="3.102"/>
	
		<ellipse transform="matrix(-0.3299 0.944 -0.944 -0.3299 154.7704 -85.2984)" fill="#DBF7FC" stroke="#416B6D" stroke-width="0.8543" stroke-miterlimit="10" cx="107.66" cy="12.283" rx="3.132" ry="3.106"/>
	
		<ellipse transform="matrix(-0.3301 0.944 -0.944 -0.3301 164.5472 -86.6536)" fill="#DBF7FC" stroke="#416B6D" stroke-width="0.8543" stroke-miterlimit="10" cx="113.022" cy="15.062" rx="3.133" ry="3.107"/>
	
		<ellipse transform="matrix(-0.3302 0.9439 -0.9439 -0.3302 175.4847 -83.9932)" fill="#DBF7FC" stroke="#416B6D" stroke-width="0.8543" stroke-miterlimit="10" cx="117.544" cy="20.267" rx="3.132" ry="3.105"/>
	
		<ellipse transform="matrix(-0.3302 0.9439 -0.9439 -0.3302 184.8661 -86.6893)" fill="#DBF7FC" stroke="#416B6D" stroke-width="0.8543" stroke-miterlimit="10" cx="123.19" cy="22.246" rx="3.132" ry="3.105"/>
	
		<ellipse transform="matrix(-0.3301 0.944 -0.944 -0.3301 194.2052 -89.4196)" fill="#DBF7FC" stroke="#416B6D" stroke-width="0.8543" stroke-miterlimit="10" cx="128.833" cy="24.204" rx="3.133" ry="3.105"/>
	
		<ellipse transform="matrix(-0.3302 0.9439 -0.9439 -0.3302 203.6205 -92.0999)" fill="#DBF7FC" stroke="#416B6D" stroke-width="0.8543" stroke-miterlimit="10" cx="134.487" cy="26.195" rx="3.132" ry="3.103"/>
	<path fill="#DBF7FC" stroke="#416B6D" stroke-width="0.8543" stroke-miterlimit="10" d="M139.75,29.236
		c1.615,0.565,2.467,2.348,1.893,3.981c-0.568,1.633-2.346,2.497-3.961,1.932c-1.621-0.566-2.469-2.348-1.896-3.981
		C136.354,29.536,138.129,28.67,139.75,29.236z"/>
	
		<ellipse transform="matrix(-0.3301 0.9439 -0.9439 -0.3301 220.2766 -79.5168)" fill="#DBF7FC" stroke="#416B6D" stroke-width="0.8543" stroke-miterlimit="10" cx="138.354" cy="38.403" rx="3.13" ry="3.106"/>
	<path fill="#DBF7FC" stroke="#416B6D" stroke-width="0.8543" stroke-miterlimit="10" d="M131.836,42.465
		c0.572-1.632,2.346-2.498,3.963-1.932c1.619,0.566,2.467,2.348,1.895,3.98c-0.572,1.633-2.346,2.498-3.963,1.932
		C132.113,45.88,131.266,44.099,131.836,42.465z"/>
	<path fill="#DBF7FC" stroke="#416B6D" stroke-width="0.8543" stroke-miterlimit="10" d="M144.186,39.836
		c1.619,0.566,2.471,2.349,1.898,3.981c-0.572,1.633-2.35,2.5-3.965,1.933c-1.619-0.565-2.469-2.349-1.896-3.983
		C140.793,40.137,142.568,39.272,144.186,39.836z"/>
	<path fill="#DBF7FC" stroke="#416B6D" stroke-width="0.8543" stroke-miterlimit="10" d="M149.268,43.423
		c1.617,0.566,2.467,2.351,1.896,3.984c-0.57,1.629-2.348,2.497-3.965,1.932c-1.617-0.566-2.469-2.351-1.896-3.98
		C145.875,43.725,147.65,42.858,149.268,43.423z"/>
	<path fill="#DBF7FC" stroke="#416B6D" stroke-width="0.8543" stroke-miterlimit="10" d="M153.785,48.624
		c1.617,0.564,2.465,2.35,1.895,3.98c-0.572,1.632-2.344,2.497-3.961,1.932c-1.621-0.565-2.471-2.349-1.898-3.98
		C150.391,48.923,152.166,48.057,153.785,48.624z"/>
	
		<ellipse transform="matrix(-0.3301 0.944 -0.944 -0.3301 258.6013 -67.379)" fill="#DBF7FC" stroke="#416B6D" stroke-width="0.8543" stroke-miterlimit="10" cx="153.21" cy="58.075" rx="3.133" ry="3.103"/>
	<path fill="#DBF7FC" stroke="#416B6D" stroke-width="0.8543" stroke-miterlimit="10" d="M156.572,61.361
		c1.615,0.565,2.465,2.353,1.896,3.981c-0.574,1.634-2.35,2.5-3.967,1.935c-1.619-0.565-2.469-2.351-1.896-3.985
		C153.178,61.665,154.953,60.796,156.572,61.361z"/>
	
		<ellipse transform="matrix(-0.3303 0.9439 -0.9439 -0.3303 277.1973 -58.1801)" fill="#DBF7FC" stroke="#416B6D" stroke-width="0.8543" stroke-miterlimit="10" cx="159.239" cy="69.251" rx="3.131" ry="3.103"/>
	
		<ellipse transform="matrix(-0.3303 0.9439 -0.9439 -0.3303 284.877 -51.7113)" fill="#DBF7FC" stroke="#416B6D" stroke-width="0.8543" stroke-miterlimit="10" cx="160.784" cy="75.21" rx="3.131" ry="3.103"/>
	
		<ellipse transform="matrix(-0.33 0.944 -0.944 -0.33 289.8038 -44.4833)" fill="#DBF7FC" stroke="#416B6D" stroke-width="0.8543" stroke-miterlimit="10" cx="160.688" cy="80.606" rx="3.134" ry="3.105"/>
	
		<ellipse transform="matrix(-0.3302 0.9439 -0.9439 -0.3302 292.5598 -35.0791)" fill="#DBF7FC" stroke="#416B6D" stroke-width="0.8543" stroke-miterlimit="10" cx="158.726" cy="86.258" rx="3.132" ry="3.103"/>
	
		<ellipse transform="matrix(-0.3298 0.9441 -0.9441 -0.3298 303.3835 -32.5219)" fill="#DBF7FC" stroke="#416B6D" stroke-width="0.8543" stroke-miterlimit="10" cx="163.236" cy="91.434" rx="3.133" ry="3.105"/>
	
		<ellipse transform="matrix(-0.3299 0.944 -0.944 -0.3299 313.7561 -26.7887)" fill="#DBF7FC" stroke="#416B6D" stroke-width="0.8543" stroke-miterlimit="10" cx="166.386" cy="97.962" rx="3.129" ry="3.103"/>
	
		<ellipse transform="matrix(-0.3299 0.944 -0.944 -0.3299 316.4803 -17.4172)" fill="#DBF7FC" stroke="#416B6D" stroke-width="0.8543" stroke-miterlimit="10" cx="164.422" cy="103.617" rx="3.132" ry="3.103"/>
	
		<ellipse transform="matrix(-0.3299 0.944 -0.944 -0.3299 316.5289 -7.2837)" fill="#DBF7FC" stroke="#416B6D" stroke-width="0.8543" stroke-miterlimit="10" cx="160.85" cy="108.701" rx="3.132" ry="3.105"/>
	<path fill="#DBF7FC" stroke="#416B6D" stroke-width="0.8543" stroke-miterlimit="10" d="M156.664,110.265
		c1.619,0.564,2.467,2.349,1.896,3.98c-0.57,1.635-2.346,2.5-3.965,1.934c-1.617-0.566-2.467-2.35-1.895-3.981
		C153.271,110.565,155.047,109.699,156.664,110.265z"/>
	<path fill="#DBF7FC" stroke="#416B6D" stroke-width="0.8543" stroke-miterlimit="10" d="M154.408,116.716
		c1.617,0.566,2.469,2.351,1.898,3.979c-0.572,1.633-2.348,2.502-3.967,1.936c-1.619-0.564-2.465-2.352-1.895-3.981
		S152.791,116.15,154.408,116.716z"/>
	<path fill="#DBF7FC" stroke="#416B6D" stroke-width="0.8543" stroke-miterlimit="10" d="M151.629,122.081
		c1.619,0.565,2.465,2.351,1.895,3.982c-0.568,1.629-2.346,2.497-3.965,1.93c-1.617-0.563-2.467-2.349-1.895-3.979
		C148.234,122.38,150.01,121.513,151.629,122.081z"/>
	
		<ellipse transform="matrix(-0.3302 0.9439 -0.9439 -0.3302 318.3813 34.3133)" fill="#DBF7FC" stroke="#416B6D" stroke-width="0.8543" stroke-miterlimit="10" cx="147.017" cy="130.115" rx="3.132" ry="3.103"/>
	
		<ellipse transform="matrix(-0.33 0.944 -0.944 -0.33 311.8519 41.9621)" fill="#DBF7FC" stroke="#416B6D" stroke-width="0.8543" stroke-miterlimit="10" cx="141.035" cy="131.646" rx="3.13" ry="3.104"/>
	
		<ellipse transform="matrix(-0.3299 0.944 -0.944 -0.3299 304.5837 46.9319)" fill="#DBF7FC" stroke="#416B6D" stroke-width="0.8543" stroke-miterlimit="10" cx="135.635" cy="131.569" rx="3.132" ry="3.106"/>
	<path fill="#DBF7FC" stroke="#416B6D" stroke-width="0.8543" stroke-miterlimit="10" d="M133.086,133.697
		c1.617,0.564,2.467,2.345,1.895,3.978c-0.568,1.636-2.346,2.498-3.959,1.934c-1.621-0.566-2.471-2.347-1.898-3.98
		C129.693,133.995,131.469,133.13,133.086,133.697z"/>
	
		<ellipse transform="matrix(-0.33 0.944 -0.944 -0.33 304.6665 67.2518)" fill="#DBF7FC" stroke="#416B6D" stroke-width="0.8543" stroke-miterlimit="10" cx="128.468" cy="141.742" rx="3.134" ry="3.105"/>
	<path fill="#DBF7FC" stroke="#416B6D" stroke-width="0.8543" stroke-miterlimit="10" d="M124.58,142.487
		c1.621,0.564,2.471,2.348,1.898,3.979c-0.572,1.638-2.346,2.498-3.967,1.934c-1.615-0.564-2.465-2.348-1.893-3.98
		C121.189,142.786,122.965,141.921,124.58,142.487z"/>
	
		<ellipse transform="matrix(-0.3299 0.944 -0.944 -0.3299 293.7802 84.8649)" fill="#DBF7FC" stroke="#416B6D" stroke-width="0.8543" stroke-miterlimit="10" cx="116.771" cy="146.695" rx="3.131" ry="3.104"/>
	<path fill="#DBF7FC" stroke="#416B6D" stroke-width="0.8543" stroke-miterlimit="10" d="M111.037,144.989
		c1.619,0.566,2.469,2.35,1.895,3.98c-0.568,1.634-2.344,2.502-3.963,1.935c-1.617-0.563-2.467-2.35-1.896-3.981
		C107.645,145.29,109.418,144.425,111.037,144.989z"/>
	
		<ellipse transform="matrix(-0.33 0.944 -0.944 -0.33 280.2555 103.3048)" fill="#DBF7FC" stroke="#416B6D" stroke-width="0.8543" stroke-miterlimit="10" cx="103.469" cy="151.104" rx="3.13" ry="3.106"/>
	
		<ellipse transform="matrix(-0.3303 0.9439 -0.9439 -0.3303 275.5324 111.9445)" fill="#DBF7FC" stroke="#416B6D" stroke-width="0.8543" stroke-miterlimit="10" cx="98.054" cy="153.718" rx="3.131" ry="3.107"/>
	
		<ellipse transform="matrix(-0.3301 0.9439 -0.9439 -0.3301 263.4734 115.3863)" fill="#DBF7FC" stroke="#416B6D" stroke-width="0.8543" stroke-miterlimit="10" cx="90.795" cy="151.18" rx="3.13" ry="3.104"/>
</g>
<path fill="#D8D4D4" stroke="#416B6D" stroke-width="0.8543" stroke-miterlimit="10" d="M37.417,51.081
	c0,0-16.188-3.308-20.19,4.364c-4.003,7.673-1.563,11.907-2.782,14.526c-1.218,2.619-5.292,10.82-5.357,15.32
	c-0.064,4.5,12.198,6.526,12.198,6.526s-6.105,7.972-4.089,11.695c2.019,3.721,9.705,7.614,12.4,11.123
	c2.697,3.506,1.546,11.55,5.94,14.294c4.394,2.742,8.334-1.61,8.334-1.61s0.134,9.097,6.43,12.654
	c6.297,3.562,10.958-1.146,15.124,0.312c4.167,1.459,5.5,8.861,11.352,8.946c5.854,0.086,8.08-7.579,8.08-7.579
	s4.641,12.18,12.542,10.721c7.902-1.461,9.662-4.771,14.693-7.082c5.033-2.312,12.17,2.295,15.982-3.008
	c3.818-5.304,2.697-13.535,2.697-13.535s15.133,4.385,18.041-0.479c2.91-4.868,0.57-5.081,4.654-13.306
	c4.082-8.225,9.016-6.803,10.637-16.189c1.625-9.387-10.625-12.314-10.625-12.314s9.84-4.854,6.83-14.354
	c-3.014-9.501-5.836-7.468-8.188-12.815c-2.354-5.35,1.314-3.765-3.209-11.531c-4.523-7.766-18.131-2.495-18.131-2.495
	s8.23-13.184,3.309-18.527c-4.918-5.341-10.697-4.342-15.725-5.498c-5.025-1.151-5.496-5.843-16.896-8.62
	C90.076,9.842,85.492,33.727,85.492,33.727s-5.348-22.232-14.961-20.618c-9.617,1.617-16.645,7.907-20.554,10.462
	c-3.91,2.554-12.459,1.976-17.959,8.651C26.518,38.897,37.417,51.081,37.417,51.081z"/>
<g>
	<path fill="#416B6D" d="M63.693,64.046h0.477c1.117,0,1.322-0.269,1.322-1.963V50.81h-2.356c-2.214,0-2.481,1.281-2.606,2.895
		h-0.705v-3.765c0.621,0.021,3.889,0.062,6.578,0.062c2.483,0,5.875-0.041,6.578-0.062v3.765h-0.703
		c-0.125-1.613-0.393-2.895-2.605-2.895h-2.358v11.273c0,1.695,0.207,1.963,1.324,1.963h0.476v0.621
		c-0.787-0.021-1.676-0.062-2.709-0.062c-1.035,0-1.924,0.042-2.711,0.062V64.046L63.693,64.046z"/>
	<path fill="#416B6D" d="M72.322,67.378h0.207c0.311,0.269,0.807,0.455,1.18,0.455c1.076,0,1.779-1.056,2.233-2.11l0.331-0.786
		l-3.289-7.734c-0.371-0.85-0.641-1.222-1.468-1.222h-0.125v-0.62c0.621,0.02,1.118,0.062,1.965,0.062
		c0.683,0,1.366-0.062,2.048-0.062v0.62h-0.207c-0.578,0-0.765,0.207-0.765,0.56c0,0.228,0.146,0.683,0.247,0.91l2.357,5.461
		l1.717-5.047c0.104-0.33,0.27-0.785,0.27-1.138c0-0.642-0.517-0.745-0.932-0.745h-0.145v-0.62c0.6,0.019,1.158,0.062,1.655,0.062
		c0.621,0,1.22-0.041,1.843-0.062v0.62h-0.166c-0.973,0-1.264,0.641-1.759,2.007l-2.813,7.757c-0.744,2.068-1.611,3.413-3.744,3.413
		c-0.269,0-0.413-0.04-0.641-0.083V67.38l0,0V67.378z"/>
	<path fill="#416B6D" d="M82.001,68.536h0.27c0.952,0,1.262-0.352,1.262-1.283v-9.101c0-0.828-0.248-1.055-0.641-1.055
		c-0.311,0-0.662,0.124-0.891,0.227v-0.62c0.891-0.332,2.316-1.076,2.896-1.488h0.207v1.551c0.868-0.704,2.027-1.551,3.454-1.551
		c2.565,0,3.87,2.274,3.87,4.488c0,2.399-1.594,5.108-5.069,5.108c-0.931,0-1.882-0.31-2.254-0.497v2.938
		c0,1.076,0.311,1.283,1.137,1.283h0.353v0.621c-0.662-0.021-1.427-0.062-2.151-0.062c-0.828,0-1.736,0.042-2.441,0.062V68.536
		L82.001,68.536z M85.106,63.073c0.726,0.559,1.304,1.034,2.606,1.034c2.028,0,3.143-1.551,3.143-3.578
		c0-2.979-1.714-4.075-3.143-4.075c-1.117,0-1.84,0.56-2.606,1.18V63.073z"/>
	<path fill="#416B6D" d="M102.605,63.716c-0.826,0.517-1.902,1.096-3.496,1.096c-3.311,0-4.818-2.668-4.818-4.881
		c0-2.422,2.088-4.717,4.447-4.717c2.564,0,4.014,1.594,4.014,3.826v0.209h-6.805c0.082,2.627,1.199,4.694,3.766,4.694
		c1.531,0,2.396-0.498,2.895-0.849L102.605,63.716L102.605,63.716z M101.094,58.544c0-2.254-1.881-2.627-2.521-2.627
		c-1.902,0-2.627,1.862-2.627,2.627H101.094z"/>
	<path fill="#416B6D" d="M110.094,57.779h-0.414c-0.248-0.827-0.559-1.862-2.234-1.862c-1.303,0-1.756,0.809-1.756,1.388
		c0,0.848,0.785,1.303,1.592,1.675l1.139,0.518c0.662,0.31,1.943,0.89,1.943,2.481c0,1.51-1.115,2.833-3.35,2.833
		c-1.203,0-2.152-0.289-2.896-0.537c0.039-0.395,0.062-0.787,0.062-1.221c0-0.455-0.021-0.827-0.062-1.221h0.578
		c0.164,1.47,1.012,2.275,2.297,2.275c0.971,0,1.965-0.393,1.965-1.551c0-0.973-0.785-1.346-1.469-1.696l-1.553-0.787
		c-0.537-0.268-1.654-0.889-1.654-2.274c0-1.055,0.867-2.584,3.207-2.584c1.074,0,1.965,0.27,2.521,0.412L110.094,57.779z"/>
	<path fill="#416B6D" d="M81.744,80.038c2.979,0,4.819,2.274,4.819,5.045c0,2.442-1.944,4.551-4.737,4.551
		c-2.315,0-4.717-1.818-4.717-4.941C77.109,82.479,78.744,80.038,81.744,80.038z M81.391,80.741c-1.282,0-2.544,1.221-2.544,3.557
		c0,2.008,1.055,4.634,3.289,4.634c1.964,0,2.689-1.488,2.689-3.453C84.826,83.1,83.667,80.741,81.391,80.741z"/>
	<path fill="#416B6D" d="M88.217,88.87h0.31c1.077,0,1.221-0.205,1.221-1.82v-5.937h-1.945l0.165-0.868h1.78v-2.753
		c0-2.024,1.16-4.28,4.324-4.28c0.578,0,1.074,0.082,1.654,0.186v2.545H95.27c-0.082-0.662-0.514-1.945-2.047-1.945
		c-1.303,0-1.902,1.158-1.902,2.399v3.849h3.188l-0.438,0.868h-2.752v5.937c0,1.615,0.146,1.82,1.223,1.82h0.311v0.62
		c-0.621-0.021-1.346-0.061-2.213-0.061c-0.93,0-1.779,0.04-2.42,0.061L88.217,88.87L88.217,88.87z"/>
	<path fill="#416B6D" d="M36.741,99.587c0.826,0.02,1.86,0.062,2.833,0.062c0.951,0,1.964-0.042,2.813-0.062v0.619h-0.29
		c-0.952,0-1.241,0.414-1.241,0.848c0,0.375,0.125,0.766,0.435,1.531l3.826,9.432l4.076-9.617c0.249-0.6,0.435-1.18,0.435-1.594
		c0-0.413-0.353-0.6-0.827-0.6h-0.394v-0.619c0.641,0.02,1.448,0.062,2.192,0.062c0.724,0,1.469-0.042,2.192-0.062v0.619h-0.393
		c-0.766,0-1.283,0.27-2.006,1.944l-5.358,12.431h-0.785l-5.274-12.701c-0.539-1.28-0.91-1.674-1.841-1.674h-0.393V99.587
		L36.741,99.587z"/>
	<path fill="#416B6D" d="M59.89,113.363c-0.828,0.517-1.904,1.095-3.496,1.095c-3.309,0-4.819-2.668-4.819-4.881
		c0-2.422,2.089-4.717,4.447-4.717c2.565,0,4.013,1.594,4.013,3.827v0.207H53.23c0.083,2.627,1.2,4.694,3.765,4.694
		c1.531,0,2.399-0.496,2.896-0.848L59.89,113.363L59.89,113.363z M58.38,108.191c0-2.255-1.882-2.628-2.523-2.628
		c-1.903,0-2.627,1.861-2.627,2.628H58.38z"/>
	<path fill="#416B6D" d="M70.068,106.102h-1.779c0.311,0.394,0.744,0.89,0.744,1.924c0,2.089-2.048,3.041-3.309,3.041
		c-0.395,0-0.725-0.042-0.869-0.062c-0.354,0.227-1.242,0.785-1.242,1.179c0,0.579,1.014,0.642,2.172,0.703
		c2.668,0.145,4.364,0.579,4.364,2.854c0,2.111-2.192,3.063-4.385,3.063c-1.511,0-4.24-0.455-4.24-2.588
		c0-1.301,1.056-1.983,2.089-2.172v-0.039c-0.332-0.062-1.408-0.312-1.408-1.284c0-0.642,0.498-1.076,1.737-1.862l0.166-0.104
		c-1.282-0.518-2.089-1.571-2.089-2.707c0-1.863,1.551-3.188,3.496-3.188c0.807,0,1.324,0.166,1.779,0.374h3.371L70.068,106.102z
		 M65.93,118.1c1.573,0,3.062-0.537,3.062-1.904c0-1.428-1.57-1.819-3.351-1.819c-0.808,0-2.958,0-2.958,1.819
		C62.683,117.147,63.531,118.1,65.93,118.1z M65.58,110.444c1.324,0,1.881-0.972,1.881-2.172c0-1.984-0.973-2.79-2.026-2.79
		c-0.994,0-1.842,0.972-1.842,2.252C63.592,108.997,64.253,110.444,65.58,110.444z"/>
	<path fill="#416B6D" d="M79.789,113.363c-0.828,0.517-1.902,1.095-3.496,1.095c-3.311,0-4.819-2.668-4.819-4.881
		c0-2.422,2.09-4.717,4.446-4.717c2.565,0,4.014,1.594,4.014,3.827v0.207h-6.805c0.082,2.627,1.199,4.694,3.765,4.694
		c1.53,0,2.399-0.496,2.896-0.848V113.363L79.789,113.363z M78.279,108.191c0-2.255-1.883-2.628-2.522-2.628
		c-1.904,0-2.628,1.861-2.628,2.628H78.279z"/>
	<path fill="#416B6D" d="M80.638,105.729c1.281-0.784,2.482-1.966,3.35-3.619l0.291-0.062v3.02h3.288l-0.288,0.869h-3v4.695
		c0,1.117,0.35,2.502,1.799,2.502c0.683,0,1.303-0.33,1.633-0.536l0.311,0.352l-1.695,1.427c-0.146,0.062-0.311,0.082-0.496,0.082
		c-0.207,0-1.53-0.103-2.316-0.951c-0.725-0.785-0.807-1.84-0.807-2.75v-4.819h-2.069L80.638,105.729L80.638,105.729z"/>
	<path fill="#416B6D" d="M94.043,108.025c0-1.117-0.498-2.378-1.738-2.378c-0.561,0-1.572,0.559-1.572,1.157
		c0,0.329,0.146,0.62,0.289,0.931l-1.324,0.643c-0.206-0.436-0.372-0.744-0.372-1.097c0-0.661,0.477-1.116,1.385-1.655
		c0.891-0.539,1.551-0.766,1.943-0.766c2.564,0,2.959,1.842,2.959,2.753v4.197c0,1.097,0.186,1.325,0.518,1.325
		c0.205,0,0.619-0.146,0.93-0.29v0.558l-2.006,0.953c-0.227,0.104-0.311,0.104-0.391,0.104c-0.271,0-0.416-0.537-0.52-1.18
		c-1.385,0.992-1.986,1.18-2.854,1.18c-1.51,0-2.338-1.117-2.338-2.233c0-1.282,0.788-1.759,2.172-2.296l2.918-1.139V108.025z
		 M94.043,109.495l-2.152,0.889c-0.414,0.166-1.365,0.578-1.365,1.49c0,0.559,0.537,1.51,1.654,1.51
		c0.684,0,1.262-0.394,1.924-0.889c-0.041-0.229-0.061-0.498-0.061-0.994V109.495L94.043,109.495z"/>
	<path fill="#416B6D" d="M97.953,113.692h0.371c0.932,0,1.096-0.248,1.096-1.447v-4.51c0-0.684-0.188-0.992-0.66-0.992
		c-0.188,0-0.518,0.081-0.807,0.229v-0.622c0.869-0.372,1.859-0.849,2.707-1.488h0.209v2.151h0.041
		c0.684-1.406,1.57-2.151,2.627-2.151c0.578,0,0.971,0.125,1.24,0.208v1.943h-0.33c-0.145-0.579-0.768-0.744-1.324-0.744
		c-0.828,0-2.131,0.62-2.131,2.628v3.701c0,0.932,0.104,1.096,0.91,1.096h0.393v0.621c-0.475-0.021-1.385-0.062-2.066-0.062
		c-0.705,0-1.613,0.041-2.275,0.062V113.692L97.953,113.692z"/>
	<path fill="#416B6D" d="M105.564,113.692h0.412c0.746,0,1.221-0.248,1.221-1.716v-4.179c0-0.827-0.246-1.056-0.641-1.056
		c-0.311,0-0.664,0.124-0.891,0.229v-0.622c0.891-0.329,2.316-1.075,2.896-1.488h0.205v7.116c0,1.468,0.479,1.716,1.223,1.716h0.412
		v0.621c-0.785-0.021-1.758-0.062-2.42-0.062s-1.635,0.041-2.42,0.062L105.564,113.692L105.564,113.692z M107.984,100.724
		c0.578,0,1.033,0.454,1.033,1.033c0,0.58-0.455,1.033-1.033,1.033s-1.033-0.453-1.033-1.033
		C106.951,101.178,107.406,100.724,107.984,100.724z"/>
	<path fill="#416B6D" d="M117.023,108.025c0-1.117-0.496-2.378-1.736-2.378c-0.561,0-1.572,0.559-1.572,1.157
		c0,0.329,0.145,0.62,0.289,0.931l-1.322,0.643c-0.207-0.436-0.373-0.744-0.373-1.097c0-0.661,0.477-1.116,1.387-1.655
		c0.889-0.539,1.551-0.766,1.943-0.766c2.564,0,2.957,1.842,2.957,2.753v4.197c0,1.097,0.186,1.325,0.518,1.325
		c0.207,0,0.619-0.146,0.932-0.29v0.558l-2.006,0.953c-0.229,0.104-0.312,0.104-0.396,0.104c-0.266,0-0.412-0.537-0.516-1.18
		c-1.385,0.992-1.984,1.18-2.855,1.18c-1.508,0-2.336-1.117-2.336-2.233c0-1.282,0.785-1.759,2.172-2.296l2.916-1.139V108.025
		L117.023,108.025z M117.023,109.495l-2.152,0.889c-0.414,0.166-1.363,0.578-1.363,1.49c0,0.559,0.539,1.51,1.654,1.51
		c0.684,0,1.262-0.394,1.924-0.889c-0.041-0.229-0.062-0.498-0.062-0.994V109.495L117.023,109.495z"/>
	<path fill="#416B6D" d="M120.934,113.692h0.373c0.932,0,1.096-0.248,1.096-1.447v-3.517c0-1.862-0.248-2.171-0.723-2.171
		c-0.188,0-0.457,0.081-0.746,0.227v-0.619c0.869-0.291,1.861-0.766,2.709-1.305h0.207v1.82c0.766-0.807,1.799-1.82,3.145-1.82
		c0.705,0,1.902,0.374,2.523,1.572c0.393,0.725,0.455,1.635,0.455,2.503v3.745c0,0.807,0.145,1.012,1.156,1.012h0.312v0.621
		c-0.498-0.021-1.428-0.062-2.131-0.062c-0.744,0-1.697,0.041-2.256,0.062v-0.621h0.373c0.869,0,0.973-0.434,0.973-1.716v-3.248
		c0-1.116-0.104-1.655-0.684-2.215c-0.27-0.267-0.725-0.494-1.428-0.494c-0.867,0-1.842,0.785-2.316,1.239v5.338
		c0,0.932,0.105,1.096,0.912,1.096h0.393v0.621c-0.479-0.021-1.389-0.062-2.07-0.062c-0.701,0-1.611,0.041-2.273,0.062V113.692
		L120.934,113.692z"/>
	<path fill="#416B6D" d="M138.621,107.425h-0.414c-0.248-0.828-0.561-1.861-2.234-1.861c-1.303,0-1.76,0.807-1.76,1.387
		c0,0.848,0.787,1.305,1.592,1.676l1.141,0.518c0.66,0.311,1.943,0.891,1.943,2.48c0,1.512-1.117,2.836-3.35,2.836
		c-1.199,0-2.152-0.291-2.898-0.539c0.043-0.392,0.062-0.784,0.062-1.219c0-0.457-0.02-0.828-0.062-1.223h0.58
		c0.166,1.471,1.014,2.275,2.297,2.275c0.973,0,1.965-0.392,1.965-1.551c0-0.974-0.785-1.346-1.469-1.697l-1.551-0.785
		c-0.537-0.268-1.656-0.889-1.656-2.274c0-1.055,0.869-2.586,3.207-2.586c1.076,0,1.965,0.269,2.523,0.413L138.621,107.425z"/>
</g>
</svg>
