<?xml version="1.0" encoding="utf-8"?>
<!-- Generator: Adobe Illustrator 16.0.0, SVG Export Plug-In . SVG Version: 6.00 Build 0)  -->
<!DOCTYPE svg PUBLIC "-//W3C//DTD SVG 1.1//EN" "http://www.w3.org/Graphics/SVG/1.1/DTD/svg11.dtd">
<svg version="1.1" id="flower" xmlns="http://www.w3.org/2000/svg" xmlns:xlink="http://www.w3.org/1999/xlink" x="0px" y="0px"
	 width="176px" height="216px" viewBox="0 0 176 216" enable-background="new 0 0 176 216" xml:space="preserve">
<path fill="none" stroke="#73D100" stroke-width="1.3104" stroke-linecap="round" stroke-miterlimit="10" d="M47.869,161.638
	c-3.552,10.088,1.565,22.106-3.914,27.842c-3.836,4.016-10.199,4.16-14.214,0.322c-2.81-2.684-2.912-7.139-0.228-9.947
	c1.881-1.969,4.999-2.039,6.966-0.159c1.377,1.313,1.427,3.498,0.11,4.876c-0.92,0.963-2.448,0.998-3.412,0.078
	c-0.675-0.646-0.699-1.717-0.055-2.391c0.452-0.471,1.2-0.488,1.673-0.037"/>
<path fill="none" stroke="#416B6D" stroke-width="1.0586" stroke-miterlimit="10" d="M46.421,194.485c0,0-9.06-18.2-0.011-31.128
	c9.049-12.929,10.688-30.06,10.688-30.06"/>
<path fill="#416B6D" stroke="#416B6D" stroke-width="1.0586" stroke-miterlimit="10" d="M46.432,194.376
	c0,0,4.495,0.684,5.179,3.598c0.686,2.914-1.774,5.832-1.667,8.66c0.106,2.83-2.082-4.141-1.685-6.136
	C48.655,198.505,46.432,194.376,46.432,194.376z"/>
<path fill="none" stroke="#416B6D" stroke-width="0.8691" stroke-miterlimit="10" d="M52.008,184.933c0,0-8.709-14.236-2.234-25.457
	c6.475-11.219,6.592-25.346,6.592-25.346"/>
<path fill="#416B6D" stroke="#416B6D" stroke-width="0.8691" stroke-miterlimit="10" d="M52.009,184.841
	c0,0,3.725,0.241,4.493,2.572c0.771,2.334-1.034,4.896-0.745,7.204s-1.998-3.237-1.816-4.897
	C54.122,188.062,52.009,184.841,52.009,184.841z"/>
<path fill="none" stroke="#416B6D" stroke-width="1.2098" stroke-miterlimit="10" d="M57.409,138.015
	c-0.166,9.176-7.883,17.31-5.194,23.562c1.882,4.377,6.957,6.399,11.334,4.521c3.063-1.316,4.479-4.871,3.162-7.935
	c-0.923-2.146-3.408-3.136-5.554-2.215c-1.5,0.646-2.194,2.388-1.549,3.888c0.451,1.053,1.668,1.536,2.721,1.086
	c0.736-0.316,1.076-1.171,0.76-1.906c-0.223-0.516-0.818-0.752-1.333-0.531"/>
<path fill="none" stroke="#416B6D" stroke-width="1.4097" stroke-miterlimit="10" d="M58.667,138.448
	c-6.816,8.244-6.164,21.29-13.286,24.781c-4.986,2.443-11.009,0.383-13.452-4.604c-1.71-3.49-0.268-7.705,3.222-9.416
	c2.443-1.199,5.394-0.188,6.59,2.256c0.838,1.711,0.131,3.775-1.579,4.613c-1.197,0.587-2.643,0.094-3.229-1.104
	c-0.411-0.84-0.065-1.853,0.773-2.262c0.587-0.287,1.295-0.047,1.583,0.541"/>
<path fill="#FFFFFF" stroke="#416B6D" stroke-width="0.8587" stroke-miterlimit="10" d="M71.392,17.929
	c-1.724-0.016-3.109-1.437-3.092-3.177c0.018-1.739,1.427-3.133,3.15-3.117c1.722,0.016,3.105,1.436,3.09,3.175
	C74.524,16.551,73.114,17.946,71.392,17.929z"/>
<path fill="#FFFFFF" stroke="#416B6D" stroke-width="0.8587" stroke-miterlimit="10" d="M76.584,13.685
	c-1.726-0.016-3.107-1.438-3.091-3.179c0.017-1.739,1.428-3.134,3.149-3.119c1.724,0.016,3.106,1.437,3.091,3.177
	C79.717,12.306,78.306,13.701,76.584,13.685z"/>
<ellipse transform="matrix(0.0095 -1 1 0.0095 71.2435 93.119)" fill="#FFFFFF" stroke="#416B6D" stroke-width="0.8587" stroke-miterlimit="10" cx="82.624" cy="10.599" rx="3.15" ry="3.12"/>
<ellipse transform="matrix(0.0093 -1 1 0.0093 73.6914 102.5545)" fill="#FFFFFF" stroke="#416B6D" stroke-width="0.8587" stroke-miterlimit="10" cx="88.603" cy="14.087" rx="3.147" ry="3.12"/>
<ellipse transform="matrix(0.0093 -1 1 0.0093 81.2757 110.3562)" fill="#FFFFFF" stroke="#416B6D" stroke-width="0.8587" stroke-miterlimit="10" cx="96.332" cy="14.16" rx="3.147" ry="3.121"/>
<path fill="#FFFFFF" stroke="#416B6D" stroke-width="0.8587" stroke-miterlimit="10" d="M102.333,14.784
	c-1.721-0.016-3.104-1.439-3.088-3.177c0.017-1.739,1.427-3.135,3.146-3.12c1.725,0.017,3.107,1.439,3.094,3.179
	C105.47,13.402,104.06,14.8,102.333,14.784z"/>
<ellipse transform="matrix(0.0095 -1 1 0.0095 95.6566 119.968)" fill="#FFFFFF" stroke="#416B6D" stroke-width="0.8587" stroke-miterlimit="10" cx="108.382" cy="11.701" rx="3.149" ry="3.121"/>
<ellipse transform="matrix(0.0093 -1 1 0.0093 98.1322 127.6953)" fill="#FFFFFF" stroke="#416B6D" stroke-width="0.8587" stroke-miterlimit="10" cx="113.511" cy="14.323" rx="3.148" ry="3.12"/>
<ellipse transform="matrix(0.0093 -1 1 0.0093 98.8498 137.0993)" fill="#FFFFFF" stroke="#416B6D" stroke-width="0.8587" stroke-miterlimit="10" cx="118.615" cy="18.663" rx="3.149" ry="3.12"/>
<ellipse transform="matrix(0.0093 -1 1 0.0093 105.6118 142.3255)" fill="#FFFFFF" stroke="#416B6D" stroke-width="0.8587" stroke-miterlimit="10" cx="124.634" cy="17.863" rx="3.149" ry="3.122"/>
<path fill="#FFFFFF" stroke="#416B6D" stroke-width="0.8587" stroke-miterlimit="10" d="M130.575,25.354
	c-1.724-0.016-3.107-1.44-3.094-3.181c0.019-1.736,1.428-3.133,3.152-3.118c1.723,0.017,3.105,1.44,3.09,3.176
	C133.708,23.973,132.3,25.371,130.575,25.354z"/>
<ellipse transform="matrix(0.0095 -1 1 0.0095 107.8743 162.0205)" fill="#FFFFFF" stroke="#416B6D" stroke-width="0.8587" stroke-miterlimit="10" cx="135.717" cy="26.561" rx="3.149" ry="3.12"/>
<path fill="#FFFFFF" stroke="#416B6D" stroke-width="0.8587" stroke-miterlimit="10" d="M139.95,33.169
	c-1.726-0.017-3.108-1.44-3.094-3.177c0.019-1.738,1.428-3.135,3.151-3.119c1.721,0.016,3.104,1.438,3.091,3.178
	C143.082,31.787,141.673,33.185,139.95,33.169z"/>
<ellipse transform="matrix(0.0093 -1 1 0.0093 111.0922 179.1687)" fill="#FFFFFF" stroke="#416B6D" stroke-width="0.8587" stroke-miterlimit="10" cx="145.968" cy="33.519" rx="3.149" ry="3.121"/>
<ellipse transform="matrix(0.0093 -1 1 0.0093 111.8335 186.8782)" fill="#FFFFFF" stroke="#416B6D" stroke-width="0.8587" stroke-miterlimit="10" cx="150.229" cy="37" rx="3.148" ry="3.119"/>
<ellipse transform="matrix(0.0093 -1 1 0.0093 105.7697 192.7704)" fill="#FFFFFF" stroke="#416B6D" stroke-width="0.8587" stroke-miterlimit="10" cx="150.171" cy="43.006" rx="3.149" ry="3.121"/>
<path fill="#FFFFFF" stroke="#416B6D" stroke-width="0.8587" stroke-miterlimit="10" d="M155.243,50.485
	c-1.723-0.016-3.104-1.436-3.09-3.176c0.016-1.739,1.428-3.134,3.149-3.118c1.724,0.016,3.106,1.436,3.09,3.176
	C158.377,49.107,156.967,50.502,155.243,50.485z"/>
<path fill="#FFFFFF" stroke="#416B6D" stroke-width="0.8587" stroke-miterlimit="10" d="M161.256,50.542
	c-1.726-0.016-3.106-1.438-3.091-3.176c0.017-1.74,1.425-3.134,3.148-3.118c1.723,0.016,3.107,1.437,3.092,3.176
	C164.388,49.164,162.979,50.557,161.256,50.542z"/>
<ellipse transform="matrix(0.0095 -1 1 0.0095 108.8168 216.7344)" fill="#FFFFFF" stroke="#416B6D" stroke-width="0.8587" stroke-miterlimit="10" cx="163.806" cy="53.441" rx="3.147" ry="3.122"/>
<path fill="#FFFFFF" stroke="#416B6D" stroke-width="0.8587" stroke-miterlimit="10" d="M165.436,62.605
	c-1.721-0.016-3.106-1.441-3.089-3.18c0.016-1.735,1.426-3.134,3.146-3.118c1.726,0.016,3.108,1.441,3.094,3.176
	C168.569,61.222,167.159,62.62,165.436,62.605z"/>
<path fill="#FFFFFF" stroke="#416B6D" stroke-width="0.8587" stroke-miterlimit="10" d="M165.378,68.614
	c-1.721-0.015-3.105-1.439-3.09-3.175c0.019-1.737,1.429-3.137,3.148-3.122c1.727,0.016,3.107,1.442,3.092,3.179
	C168.515,67.233,167.104,68.631,165.378,68.614z"/>
<path fill="#FFFFFF" stroke="#416B6D" stroke-width="0.8587" stroke-miterlimit="10" d="M71.392,17.929
	c-1.724-0.016-3.109-1.437-3.092-3.177c0.018-1.739,1.427-3.133,3.15-3.117c1.722,0.016,3.105,1.436,3.09,3.175
	C74.524,16.551,73.114,17.946,71.392,17.929z"/>
<path fill="#FFFFFF" stroke="#416B6D" stroke-width="0.8587" stroke-miterlimit="10" d="M71.392,17.929
	c-1.724-0.016-3.109-1.437-3.092-3.177c0.018-1.739,1.427-3.133,3.15-3.117c1.722,0.016,3.105,1.436,3.09,3.175
	C74.524,16.551,73.114,17.946,71.392,17.929z"/>
<path fill="#FFFFFF" stroke="#416B6D" stroke-width="0.8587" stroke-miterlimit="10" d="M167.032,75.501
	c-1.724-0.016-3.104-1.438-3.09-3.176c0.019-1.74,1.426-3.136,3.147-3.121c1.728,0.017,3.108,1.439,3.093,3.179
	C170.166,74.119,168.757,75.517,167.032,75.501z"/>
<path fill="#FFFFFF" stroke="#416B6D" stroke-width="0.8587" stroke-miterlimit="10" d="M170.114,78.396
	c-0.017,1.737-1.426,3.134-3.148,3.118c-1.723-0.017-3.105-1.438-3.088-3.178c0.013-1.738,1.425-3.134,3.146-3.119
	C168.747,75.235,170.13,76.657,170.114,78.396z"/>
<path fill="#FFFFFF" stroke="#416B6D" stroke-width="0.8587" stroke-miterlimit="10" d="M166.635,84.38
	c-0.015,1.737-1.425,3.133-3.149,3.118c-1.725-0.016-3.106-1.438-3.092-3.176c0.016-1.739,1.428-3.135,3.149-3.119
	C165.27,81.22,166.653,82.642,166.635,84.38z"/>
<ellipse transform="matrix(0.0093 -1 1 0.0093 69.1127 246.963)" fill="#FFFFFF" stroke="#416B6D" stroke-width="0.8587" stroke-miterlimit="10" cx="159.192" cy="88.602" rx="3.148" ry="3.122"/>
<path fill="#FFFFFF" stroke="#416B6D" stroke-width="0.8587" stroke-miterlimit="10" d="M153.97,95.13
	c-1.725-0.017-3.107-1.439-3.091-3.178c0.016-1.74,1.426-3.136,3.149-3.121c1.724,0.016,3.107,1.439,3.09,3.18
	C157.103,93.748,155.692,95.146,153.97,95.13z"/>
<path fill="#FFFFFF" stroke="#416B6D" stroke-width="0.8587" stroke-miterlimit="10" d="M155.639,100.296
	c-1.723-0.016-3.106-1.438-3.092-3.176c0.017-1.734,1.427-3.136,3.151-3.12c1.723,0.015,3.104,1.442,3.088,3.179
	C158.772,98.916,157.36,100.312,155.639,100.296z"/>
<path fill="#FFFFFF" stroke="#416B6D" stroke-width="0.8587" stroke-miterlimit="10" d="M159.026,105.483
	c-1.724-0.018-3.107-1.442-3.092-3.182c0.016-1.738,1.428-3.135,3.149-3.119c1.722,0.017,3.106,1.438,3.089,3.177
	C162.157,104.099,160.747,105.5,159.026,105.483z"/>
<ellipse transform="matrix(0.009 -1 1 0.009 48.3962 265.5226)" fill="#FFFFFF" stroke="#416B6D" stroke-width="0.8587" stroke-miterlimit="10" cx="158.158" cy="108.345" rx="3.151" ry="3.122"/>
<ellipse transform="matrix(0.0095 -1 1 0.0095 38.8621 267.8964)" fill="#FFFFFF" stroke="#416B6D" stroke-width="0.8587" stroke-miterlimit="10" cx="154.652" cy="114.333" rx="3.15" ry="3.121"/>
<ellipse transform="matrix(0.009 -1 1 0.009 30.4034 266.1041)" fill="#FFFFFF" stroke="#416B6D" stroke-width="0.8587" stroke-miterlimit="10" cx="149.457" cy="117.713" rx="3.146" ry="3.12"/>
<ellipse transform="matrix(0.009 -1 1 0.009 21.8806 264.2932)" fill="#FFFFFF" stroke="#416B6D" stroke-width="0.8587" stroke-miterlimit="10" cx="144.281" cy="121.107" rx="3.148" ry="3.118"/>
<path fill="#FFFFFF" stroke="#416B6D" stroke-width="0.8587" stroke-miterlimit="10" d="M140.769,129.354
	c-1.723-0.018-3.105-1.438-3.089-3.176s1.425-3.133,3.146-3.117c1.726,0.017,3.11,1.437,3.094,3.177
	C143.903,127.974,142.491,129.371,140.769,129.354z"/>
<ellipse transform="matrix(0.009 -1 1 0.009 5.581 268.3238)" fill="#FFFFFF" stroke="#416B6D" stroke-width="0.8587" stroke-miterlimit="10" cx="138.164" cy="131.346" rx="3.15" ry="3.12"/>
<path fill="#FFFFFF" stroke="#416B6D" stroke-width="0.8587" stroke-miterlimit="10" d="M134.661,139.604
	c-1.721-0.015-3.107-1.438-3.09-3.179c0.016-1.74,1.426-3.136,3.148-3.119c1.721,0.018,3.105,1.438,3.091,3.179
	C137.794,138.226,136.385,139.62,134.661,139.604z"/>
<ellipse transform="matrix(0.0095 -1 1 0.0095 -9.8119 264.6466)" fill="#FFFFFF" stroke="#416B6D" stroke-width="0.8587" stroke-miterlimit="10" cx="128.675" cy="137.276" rx="3.148" ry="3.118"/>
<path fill="#FFFFFF" stroke="#416B6D" stroke-width="0.8587" stroke-miterlimit="10" d="M122.632,140.349
	c-1.723-0.016-3.105-1.438-3.091-3.176c0.018-1.74,1.427-3.135,3.149-3.117c1.721,0.017,3.106,1.438,3.092,3.175
	C125.766,138.97,124.356,140.364,122.632,140.349z"/>
<path fill="#FFFFFF" stroke="#416B6D" stroke-width="0.8587" stroke-miterlimit="10" d="M118.911,136.308
	c-0.016,1.74-1.428,3.137-3.149,3.121c-1.728-0.017-3.108-1.438-3.093-3.18c0.016-1.738,1.426-3.136,3.15-3.119
	C117.544,133.147,118.927,134.57,118.911,136.308z"/>
<path fill="#FFFFFF" stroke="#416B6D" stroke-width="0.8587" stroke-miterlimit="10" d="M110.653,135.944
	c-1.723-0.016-3.107-1.439-3.093-3.178c0.017-1.737,1.427-3.137,3.149-3.119c1.722,0.017,3.105,1.441,3.091,3.177
	C113.782,134.563,112.374,135.962,110.653,135.944z"/>
<path fill="#FFFFFF" stroke="#416B6D" stroke-width="0.8587" stroke-miterlimit="10" d="M110.292,139.664
	c-0.018,1.739-1.428,3.136-3.151,3.12c-1.721-0.018-3.104-1.439-3.091-3.18c0.018-1.737,1.428-3.137,3.152-3.119
	C108.925,136.503,110.308,137.925,110.292,139.664z"/>
<ellipse transform="matrix(0.0091 -1 1 0.0091 -42.0223 248.8434)" fill="#FFFFFF" stroke="#416B6D" stroke-width="0.8587" stroke-miterlimit="10" cx="104.554" cy="145.626" rx="3.149" ry="3.119"/>
<ellipse transform="matrix(0.0095 -1 1 0.0095 -49.7456 247.8265)" fill="#FFFFFF" stroke="#416B6D" stroke-width="0.8587" stroke-miterlimit="10" cx="100.218" cy="149.022" rx="3.149" ry="3.119"/>
<ellipse transform="matrix(0.0095 -1 1 0.0095 -59.0859 243.418)" fill="#FFFFFF" stroke="#416B6D" stroke-width="0.8587" stroke-miterlimit="10" cx="93.323" cy="151.533" rx="3.149" ry="3.12"/>
<ellipse transform="matrix(0.0091 -1 1 0.0091 -64.0784 236.565)" fill="#FFFFFF" stroke="#416B6D" stroke-width="0.8587" stroke-miterlimit="10" cx="87.331" cy="150.616" rx="3.149" ry="3.122"/>
<ellipse transform="matrix(0.0093 -1 1 0.0093 -66.5412 227.1111)" fill="#FFFFFF" stroke="#416B6D" stroke-width="0.8587" stroke-miterlimit="10" cx="81.347" cy="147.137" rx="3.148" ry="3.119"/>
<ellipse transform="matrix(0.0093 -1 1 0.0093 -72.4403 221.045)" fill="#FFFFFF" stroke="#416B6D" stroke-width="0.8587" stroke-miterlimit="10" cx="75.335" cy="147.081" rx="3.151" ry="3.121"/>
<ellipse transform="matrix(0.0093 -1 1 0.0093 -78.3198 214.9648)" fill="#FFFFFF" stroke="#416B6D" stroke-width="0.8587" stroke-miterlimit="10" cx="69.327" cy="147.008" rx="3.149" ry="3.12"/>
<ellipse transform="matrix(0.0093 -1 1 0.0093 -84.2367 208.9103)" fill="#FFFFFF" stroke="#416B6D" stroke-width="0.8587" stroke-miterlimit="10" cx="63.313" cy="146.967" rx="3.148" ry="3.119"/>
<path fill="#FFFFFF" stroke="#416B6D" stroke-width="0.8587" stroke-miterlimit="10" d="M57.317,145.753
	c-1.722-0.017-3.104-1.438-3.09-3.179c0.016-1.739,1.426-3.134,3.148-3.117c1.724,0.017,3.107,1.437,3.092,3.175
	C60.45,144.372,59.042,145.769,57.317,145.753z"/>
<path fill="#FFFFFF" stroke="#416B6D" stroke-width="0.8587" stroke-miterlimit="10" d="M55.657,139.724
	c-1.726-0.016-3.108-1.438-3.092-3.176c0.016-1.74,1.426-3.134,3.149-3.117c1.724,0.016,3.104,1.438,3.089,3.175
	C58.79,138.345,57.38,139.74,55.657,139.724z"/>
<path fill="#FFFFFF" stroke="#416B6D" stroke-width="0.8587" stroke-miterlimit="10" d="M57.428,133.73
	c-1.722-0.017-3.104-1.438-3.089-3.177c0.018-1.741,1.427-3.138,3.148-3.119c1.724,0.016,3.107,1.437,3.09,3.177
	C60.563,132.351,59.155,133.745,57.428,133.73z"/>
<ellipse transform="matrix(0.0095 -1 1 0.0095 -84.7066 182.3775)" fill="#FFFFFF" stroke="#416B6D" stroke-width="0.8587" stroke-miterlimit="10" cx="49.702" cy="133.944" rx="3.151" ry="3.122"/>
<path fill="#FFFFFF" stroke="#416B6D" stroke-width="0.8587" stroke-miterlimit="10" d="M43.676,135.32
	c-1.724-0.017-3.108-1.438-3.092-3.179c0.017-1.735,1.426-3.135,3.151-3.118c1.721,0.017,3.106,1.438,3.089,3.177
	C46.808,133.938,45.399,135.337,43.676,135.32z"/>
<path fill="#FFFFFF" stroke="#416B6D" stroke-width="0.8587" stroke-miterlimit="10" d="M37.696,131.83
	c-1.722-0.017-3.106-1.44-3.09-3.178c0.017-1.738,1.427-3.133,3.148-3.118c1.725,0.016,3.108,1.438,3.093,3.175
	C40.83,130.447,39.42,131.847,37.696,131.83z"/>
<ellipse transform="matrix(0.0094 -1 1 0.0094 -87.7791 156.7073)" fill="#FFFFFF" stroke="#416B6D" stroke-width="0.8587" stroke-miterlimit="10" cx="35.202" cy="122.657" rx="3.15" ry="3.12"/>
<path fill="#FFFFFF" stroke="#416B6D" stroke-width="0.8587" stroke-miterlimit="10" d="M30.932,120.604
	c-1.723-0.018-3.109-1.443-3.093-3.178c0.017-1.74,1.428-3.141,3.151-3.123c1.722,0.017,3.107,1.439,3.091,3.182
	C34.065,119.22,32.653,120.619,30.932,120.604z"/>
<ellipse transform="matrix(0.0095 -1 1 0.0095 -88.3839 138.7278)" fill="#FFFFFF" stroke="#416B6D" stroke-width="0.8587" stroke-miterlimit="10" cx="25.832" cy="113.976" rx="3.147" ry="3.121"/>
<ellipse transform="matrix(0.0095 -1 1 0.0095 -86.5581 130.2009)" fill="#FFFFFF" stroke="#416B6D" stroke-width="0.8587" stroke-miterlimit="10" cx="22.446" cy="108.794" rx="3.147" ry="3.121"/>
<path fill="#FFFFFF" stroke="#416B6D" stroke-width="0.8587" stroke-miterlimit="10" d="M20.757,106.767
	c-1.725-0.016-3.108-1.436-3.091-3.174c0.016-1.742,1.425-3.138,3.15-3.123c1.722,0.016,3.104,1.438,3.088,3.181
	C23.887,105.39,22.479,106.783,20.757,106.767z"/>
<ellipse transform="matrix(0.0092 -1 1 0.0092 -76.9584 117.558)" fill="#FFFFFF" stroke="#416B6D" stroke-width="0.8587" stroke-miterlimit="10" cx="20.844" cy="97.615" rx="3.15" ry="3.12"/>
<ellipse transform="matrix(0.0094 -1 1 0.0094 -79.3987 108.0959)" fill="#FFFFFF" stroke="#416B6D" stroke-width="0.8587" stroke-miterlimit="10" cx="14.858" cy="94.122" rx="3.148" ry="3.122"/>
<path fill="#FFFFFF" stroke="#416B6D" stroke-width="0.8587" stroke-miterlimit="10" d="M9.729,92.065
	c-1.722-0.018-3.106-1.438-3.089-3.176c0.016-1.74,1.427-3.135,3.146-3.119c1.725,0.016,3.109,1.437,3.092,3.176
	C12.864,90.688,11.452,92.081,9.729,92.065z"/>
<ellipse transform="matrix(0.0092 -1 1 0.0092 -73.1937 91.9614)" fill="#FFFFFF" stroke="#416B6D" stroke-width="0.8587" stroke-miterlimit="10" cx="9.807" cy="82.914" rx="3.148" ry="3.119"/>
<path fill="#FFFFFF" stroke="#416B6D" stroke-width="0.8587" stroke-miterlimit="10" d="M11.559,80.06
	c-1.723-0.016-3.108-1.439-3.092-3.176c0.016-1.74,1.428-3.134,3.15-3.119c1.723,0.017,3.107,1.438,3.092,3.177
	C14.692,78.679,13.28,80.076,11.559,80.06z"/>
<path fill="#FFFFFF" stroke="#416B6D" stroke-width="0.8587" stroke-miterlimit="10" d="M15.051,74.082
	c-1.726-0.016-3.108-1.438-3.092-3.176c0.016-1.741,1.426-3.137,3.15-3.12c1.722,0.016,3.106,1.438,3.089,3.179
	C18.183,72.701,16.772,74.099,15.051,74.082z"/>
<path fill="#FFFFFF" stroke="#416B6D" stroke-width="0.8587" stroke-miterlimit="10" d="M15.114,67.212
	c-1.723-0.017-3.107-1.441-3.091-3.176c0.016-1.737,1.426-3.138,3.15-3.122c1.722,0.017,3.105,1.442,3.089,3.18
	C18.247,65.83,16.837,67.229,15.114,67.212z"/>
<path fill="#FFFFFF" stroke="#416B6D" stroke-width="0.8587" stroke-miterlimit="10" d="M16.029,61.21
	c-1.723-0.016-3.105-1.441-3.09-3.181c0.016-1.734,1.426-3.133,3.149-3.117c1.722,0.016,3.107,1.441,3.092,3.176
	C19.161,59.827,17.751,61.226,16.029,61.21z"/>
<ellipse transform="matrix(0.0093 -1 1 0.0093 -34.4062 69.421)" fill="#FFFFFF" stroke="#416B6D" stroke-width="0.8587" stroke-miterlimit="10" cx="17.832" cy="52.074" rx="3.147" ry="3.12"/>
<path fill="#FFFFFF" stroke="#416B6D" stroke-width="0.8587" stroke-miterlimit="10" d="M22.986,51.828
	c-1.724-0.017-3.107-1.438-3.09-3.177c0.015-1.736,1.426-3.135,3.15-3.119c1.722,0.016,3.106,1.44,3.09,3.177
	C26.12,50.447,24.708,51.844,22.986,51.828z"/>
<path fill="#FFFFFF" stroke="#416B6D" stroke-width="0.8587" stroke-miterlimit="10" d="M28.155,50.16
	c-1.724-0.016-3.107-1.441-3.091-3.181c0.016-1.74,1.427-3.134,3.15-3.118c1.722,0.017,3.104,1.438,3.089,3.175
	C31.287,48.778,29.878,50.177,28.155,50.16z"/>
<path fill="#FFFFFF" stroke="#416B6D" stroke-width="0.8587" stroke-miterlimit="10" d="M29.926,44.164
	c-1.721-0.016-3.106-1.438-3.089-3.176c0.016-1.74,1.427-3.134,3.148-3.118c1.724,0.016,3.107,1.437,3.093,3.176
	C33.06,42.785,31.651,44.18,29.926,44.164z"/>
<ellipse transform="matrix(0.0093 -1 1 0.0093 -3.5862 66.4301)" fill="#FFFFFF" stroke="#416B6D" stroke-width="0.8587" stroke-miterlimit="10" cx="31.732" cy="35.025" rx="3.149" ry="3.122"/>
<ellipse transform="matrix(0.0094 -1 1 0.0094 4.977 64.8438)" fill="#FFFFFF" stroke="#416B6D" stroke-width="0.8587" stroke-miterlimit="10" cx="35.216" cy="29.91" rx="3.148" ry="3.121"/>
<ellipse transform="matrix(0.0092 -1 1 0.0092 14.3506 67.5403)" fill="#FFFFFF" stroke="#416B6D" stroke-width="0.8587" stroke-miterlimit="10" cx="41.259" cy="26.528" rx="3.148" ry="3.122"/>
<path fill="#FFFFFF" stroke="#416B6D" stroke-width="0.8587" stroke-miterlimit="10" d="M47.271,26.293
	c-1.726-0.017-3.109-1.438-3.093-3.177c0.017-1.74,1.426-3.137,3.151-3.121c1.722,0.016,3.106,1.439,3.089,3.18
	C50.402,24.912,48.991,26.308,47.271,26.293z"/>
<path fill="#FFFFFF" stroke="#416B6D" stroke-width="0.8587" stroke-miterlimit="10" d="M52.47,21.188
	c-1.725-0.016-3.108-1.438-3.092-3.178c0.016-1.737,1.427-3.133,3.15-3.117c1.723,0.016,3.105,1.438,3.09,3.175
	C55.602,19.81,54.192,21.205,52.47,21.188z"/>
<ellipse transform="matrix(0.0092 -1 1 0.0092 42.5274 70.4935)" fill="#FFFFFF" stroke="#416B6D" stroke-width="0.8587" stroke-miterlimit="10" cx="56.834" cy="13.788" rx="3.148" ry="3.121"/>
<ellipse transform="matrix(0.0093 -1 1 0.0093 50.0972 78.2898)" fill="#FFFFFF" stroke="#416B6D" stroke-width="0.8587" stroke-miterlimit="10" cx="64.56" cy="13.862" rx="3.147" ry="3.12"/>
<path fill="#DBD8AD" stroke="#416B6D" stroke-width="0.8587" stroke-miterlimit="10" d="M147.674,91.913
	c0,0,16.478-2.081,17.81-10.674c1.334-8.598-2.355-11.841-2.041-14.727c0.312-2.887,1.543-12.01,0.152-16.314
	c-1.395-4.305-13.721-2.273-13.721-2.273s3.236-9.559,0.115-12.452c-3.123-2.891-11.699-4.117-15.396-6.586
	c-3.699-2.465-5.2-10.494-10.268-11.688c-5.07-1.192-7.414,4.224-7.414,4.224s-3.062-8.615-10.205-9.968
	c-7.146-1.356-10.062,4.627-14.5,4.586c-4.437-0.042-8.096-6.658-13.694-4.849c-5.601,1.808-5.244,9.823-5.244,9.823
	s-8.349-10.094-15.399-6.155c-7.048,3.942-7.656,7.661-11.7,11.486c-4.042,3.827-12.326,1.746-14.242,8.024
	c-1.921,6.281,1.802,13.756,1.802,13.756s-15.821,0.711-17.018,6.281c-1.199,5.574,1.097,5.021-0.133,14.168
	c-1.231,9.148-6.386,9.389-4.9,18.848c1.486,9.461,14.092,8.291,14.092,8.291s-7.8,7.799-1.864,15.869
	c5.934,8.07,7.965,5.227,11.933,9.557c3.964,4.332-0.038,4.008,6.777,9.938c6.813,5.933,18.065-3.479,18.065-3.479
	s-3.578,15.207,2.831,18.705c6.407,3.496,11.587,0.68,16.743,0.154c5.159-0.525,7.122,3.788,18.868,2.751
	c11.744-1.036,8.395-25.253,8.395-25.253s12.27,19.436,20.899,14.794c8.63-4.646,13.291-12.903,16.187-16.597
	c2.896-3.691,11.223-5.904,14.301-14.034C161.983,99.99,147.674,91.913,147.674,91.913z"/>
<circle fill="#E83658" stroke="#416B6D" stroke-width="0.8587" stroke-miterlimit="10" cx="54.256" cy="172.02" r="3.202"/>
<circle fill="#E83658" stroke="#416B6D" stroke-width="0.5049" stroke-miterlimit="10" cx="66.915" cy="185.333" r="1.883"/>
<circle fill="#E83658" stroke="#416B6D" stroke-width="0.6569" stroke-miterlimit="10" cx="60.711" cy="179.566" r="2.45"/>
<path fill="#416B6D" d="M52.995,56.67h0.375c0.957,0,1.373-0.353,1.373-1.705V44.819c0-1.351-0.418-1.705-1.373-1.705h-0.375V42.49
	c0.728,0.021,1.726,0.062,2.662,0.062c0.916,0,1.789-0.041,2.703-0.062v0.624h-0.604c-0.832,0-1.186,0.228-1.186,2.205v3.847h8.588
	v-3.848c0-1.976-0.354-2.204-1.186-2.204H63.37v-0.625c0.916,0.021,1.789,0.062,2.705,0.062c0.935,0,1.933-0.041,2.662-0.062v0.625
	h-0.375c-0.957,0-1.373,0.354-1.373,1.706v10.146c0,1.352,0.416,1.705,1.373,1.705h0.375v0.624
	c-0.729-0.021-1.727-0.062-2.662-0.062c-0.916,0-1.789,0.042-2.705,0.062v-0.624h0.604c0.832,0,1.186-0.229,1.186-2.204v-4.429
	h-8.588v4.429c0,1.975,0.354,2.204,1.186,2.204h0.604v0.624c-0.914-0.021-1.789-0.062-2.703-0.062c-0.937,0-1.935,0.042-2.662,0.062
	V56.67L52.995,56.67z"/>
<path fill="#416B6D" d="M78.716,56.338c-0.831,0.52-1.913,1.102-3.514,1.102c-3.326,0-4.844-2.682-4.844-4.907
	c0-2.433,2.101-4.74,4.471-4.74c2.578,0,4.033,1.603,4.033,3.846v0.209h-6.84c0.084,2.641,1.206,4.72,3.784,4.72
	c1.54,0,2.412-0.499,2.911-0.852v0.623L78.716,56.338L78.716,56.338z M77.198,51.14c0-2.266-1.893-2.641-2.537-2.641
	c-1.912,0-2.641,1.872-2.641,2.641H77.198z"/>
<path fill="#416B6D" d="M85.723,50.972c0-1.122-0.499-2.39-1.748-2.39c-0.562,0-1.58,0.561-1.58,1.165
	c0,0.332,0.146,0.624,0.291,0.935l-1.332,0.645c-0.206-0.437-0.374-0.749-0.374-1.103c0-0.665,0.479-1.123,1.393-1.664
	c0.896-0.54,1.561-0.769,1.957-0.769c2.578,0,2.973,1.85,2.973,2.765v4.221c0,1.102,0.188,1.332,0.521,1.332
	c0.207,0,0.623-0.146,0.935-0.292v0.562l-2.017,0.956c-0.228,0.105-0.311,0.105-0.395,0.105c-0.271,0-0.416-0.541-0.521-1.186
	c-1.394,0.998-1.996,1.186-2.869,1.186c-1.518,0-2.35-1.124-2.35-2.246c0-1.29,0.791-1.768,2.184-2.308l2.932-1.144L85.723,50.972
	L85.723,50.972z M85.723,52.448l-2.164,0.895c-0.416,0.166-1.372,0.582-1.372,1.498c0,0.561,0.541,1.518,1.663,1.518
	c0.687,0,1.269-0.395,1.935-0.894c-0.041-0.229-0.062-0.499-0.062-0.998V52.448z"/>
<path fill="#416B6D" d="M89.612,42.302c0.957-0.374,1.894-0.811,3.078-1.497h0.205c-0.039,0.478-0.061,1.934-0.061,3.951v10.188
	c0,1.476,0.479,1.726,1.227,1.726h0.416v0.624c-0.789-0.021-1.767-0.062-2.433-0.062c-0.664,0-1.644,0.041-2.433,0.062V56.67h0.416
	c0.748,0,1.227-0.25,1.227-1.726V43.821c0-0.645-0.25-1.04-0.77-1.04c-0.354,0-0.707,0.166-0.873,0.229V42.302L89.612,42.302z"/>
<path fill="#416B6D" d="M94.978,48.665c1.287-0.79,2.495-1.975,3.367-3.639l0.291-0.062V48h3.305l-0.289,0.873h-3.016v4.72
	c0,1.122,0.354,2.517,1.809,2.517c0.688,0,1.312-0.333,1.644-0.541l0.312,0.354l-1.703,1.434c-0.146,0.063-0.312,0.084-0.498,0.084
	c-0.211,0-1.539-0.105-2.33-0.958c-0.729-0.789-0.811-1.85-0.811-2.765v-4.845h-2.078v-0.208H94.978z"/>
<path fill="#416B6D" d="M102.711,56.67h0.334c0.685,0,1.309-0.27,1.309-1.726V43.821c0-0.645-0.247-1.04-0.771-1.04
	c-0.354,0-0.706,0.166-0.872,0.229v-0.707c0.956-0.374,1.894-0.811,3.077-1.497h0.207c-0.041,0.478-0.062,1.934-0.062,3.951v4.595
	c0.937-0.707,1.953-1.56,3.161-1.56c1.207,0,1.869,0.499,2.371,1.186c0.54,0.727,0.622,1.518,0.622,2.848v3.307
	c0,1.331,0.21,1.518,1.165,1.539h0.355v0.624c-0.627-0.021-1.666-0.062-2.496-0.062c-0.688,0-1.562,0.041-2.082,0.062v-0.624h0.375
	c0.873-0.042,1.103-0.291,1.103-1.809v-3.202c0-0.644,0-1.289-0.332-1.83c-0.292-0.478-0.832-0.873-1.665-0.873
	c-0.936,0-1.852,0.686-2.577,1.186v5.198c0,1.102,0.208,1.31,1.123,1.331h0.292v0.624c-0.521-0.021-1.438-0.062-2.309-0.062
	c-0.749,0-1.77,0.041-2.329,0.062V56.67L102.711,56.67z"/>
<path fill="#416B6D" d="M115.27,60.018h0.208c0.311,0.271,0.811,0.458,1.188,0.458c1.082,0,1.787-1.061,2.244-2.121l0.332-0.79
	l-3.304-7.777c-0.376-0.852-0.646-1.228-1.477-1.228h-0.126v-0.623c0.621,0.021,1.123,0.062,1.977,0.062
	c0.686,0,1.371-0.062,2.059-0.062v0.623h-0.209c-0.582,0-0.771,0.208-0.771,0.562c0,0.229,0.146,0.686,0.25,0.915l2.372,5.488
	l1.727-5.073c0.104-0.332,0.27-0.79,0.27-1.143c0-0.645-0.52-0.749-0.936-0.749h-0.146v-0.624c0.603,0.021,1.164,0.062,1.662,0.062
	c0.625,0,1.228-0.042,1.851-0.062v0.624h-0.166c-0.978,0-1.268,0.644-1.767,2.016l-2.827,7.797c-0.75,2.08-1.624,3.431-3.768,3.431
	c-0.269,0-0.413-0.041-0.643-0.082L115.27,60.018L115.27,60.018z"/>
<path fill="#416B6D" d="M68.975,81.622h0.374c0.956,0,1.372-0.354,1.372-1.706V69.769c0-1.352-0.416-1.705-1.372-1.705h-0.374
	v-0.625c0.728,0.021,1.726,0.063,2.661,0.063c1.665,0,3.348-0.063,5.012-0.063c5.614,0,7.59,4.574,7.59,7.258
	c0,3.035-1.998,7.547-8.36,7.547c-1.269,0-2.765-0.062-4.241-0.062c-0.936,0-1.934,0.043-2.661,0.062V81.622L68.975,81.622z
	 M72.551,79.563c0,1.621,0.666,1.892,3.036,1.892c3.64,0,6.654-1.58,6.654-6.217c0-3.035-1.894-7.09-7.049-7.09
	c-0.875,0-1.746,0.084-2.642,0.167V79.563z"/>
<path fill="#416B6D" d="M85.963,81.622h0.416c0.749,0,1.228-0.25,1.228-1.726v-4.201c0-0.831-0.25-1.06-0.646-1.06
	c-0.312,0-0.666,0.125-0.894,0.229V74.24c0.894-0.333,2.328-1.081,2.91-1.497h0.208v7.153c0,1.476,0.479,1.726,1.228,1.726h0.416
	v0.623c-0.791-0.02-1.768-0.062-2.434-0.062c-0.664,0-1.642,0.043-2.433,0.062V81.622L85.963,81.622z M88.396,68.586
	c0.582,0,1.04,0.457,1.04,1.039c0,0.583-0.458,1.04-1.04,1.04s-1.039-0.457-1.039-1.04S87.813,68.586,88.396,68.586z"/>
<path fill="#416B6D" d="M100.476,81.29c-0.832,0.52-1.912,1.102-3.515,1.102c-3.325,0-4.845-2.682-4.845-4.905
	c0-2.435,2.102-4.742,4.471-4.742c2.579,0,4.033,1.603,4.033,3.847V76.8h-6.84c0.082,2.641,1.203,4.719,3.783,4.719
	c1.539,0,2.411-0.498,2.911-0.853L100.476,81.29L100.476,81.29z M98.958,76.093c0-2.268-1.893-2.642-2.537-2.642
	c-1.911,0-2.641,1.871-2.641,2.642H98.958z"/>
<path fill="#416B6D" d="M101.327,73.616c1.289-0.79,2.496-1.975,3.369-3.638l0.291-0.062v3.035h3.306l-0.292,0.873h-3.014v4.72
	c0,1.125,0.354,2.518,1.811,2.518c0.686,0,1.309-0.333,1.643-0.543l0.312,0.354l-1.704,1.435c-0.146,0.062-0.312,0.084-0.499,0.084
	c-0.208,0-1.54-0.105-2.33-0.957c-0.728-0.791-0.81-1.851-0.81-2.767v-4.845h-2.08v-0.207H101.327z"/>
<path fill="#416B6D" d="M54.719,106.573h0.374c0.958,0,1.374-0.354,1.374-1.705V94.722c0-1.351-0.417-1.705-1.374-1.705h-0.374
	v-0.625c0.728,0.021,1.726,0.062,2.661,0.062c1.124,0,2.268-0.062,3.39-0.062c3.347,0,4.388,2.287,4.388,3.93
	c0,1.852-1.123,3.971-4.949,3.971c-0.645,0-1.268-0.062-1.912-0.125v4.2c0,1.976,0.354,2.202,1.186,2.202h0.603v0.626
	c-0.915-0.021-1.788-0.062-2.703-0.062c-0.935,0-1.935,0.041-2.662,0.062V106.573L54.719,106.573z M58.296,99.005
	c0.77,0.375,1.455,0.5,2.141,0.5c2.059,0,2.725-1.539,2.725-2.787c0-2.434-1.332-3.701-3.557-3.701c-0.5,0-0.957,0.041-1.31,0.082
	L58.296,99.005L58.296,99.005z"/>
<path fill="#416B6D" d="M66.944,109.923h0.209c0.312,0.27,0.811,0.457,1.185,0.457c1.082,0,1.789-1.062,2.246-2.123l0.333-0.789
	l-3.307-7.776c-0.373-0.853-0.645-1.228-1.476-1.228h-0.124v-0.623c0.623,0.021,1.122,0.062,1.975,0.062
	c0.687,0,1.373-0.062,2.059-0.062v0.623h-0.208c-0.582,0-0.769,0.209-0.769,0.562c0,0.229,0.146,0.687,0.25,0.915l2.371,5.488
	l1.727-5.072c0.103-0.333,0.271-0.79,0.271-1.145c0-0.645-0.521-0.748-0.937-0.748h-0.146v-0.625
	c0.604,0.021,1.166,0.062,1.664,0.062c0.624,0,1.227-0.041,1.85-0.062v0.625H75.95c-0.978,0-1.269,0.644-1.767,2.018l-2.829,7.796
	c-0.748,2.08-1.621,3.432-3.764,3.432c-0.271,0-0.416-0.042-0.645-0.083v-1.703H66.944z"/>
<path fill="#416B6D" d="M76.76,106.573h0.375c0.937,0,1.103-0.248,1.103-1.456v-4.533c0-0.686-0.188-0.997-0.666-0.997
	c-0.188,0-0.52,0.082-0.812,0.229V99.19c0.873-0.374,1.872-0.852,2.724-1.497h0.209v2.163h0.041c0.688-1.414,1.58-2.163,2.641-2.163
	c0.582,0,0.978,0.125,1.248,0.207v1.956H83.29c-0.146-0.583-0.771-0.749-1.331-0.749c-0.832,0-2.144,0.624-2.144,2.641v3.722
	c0,0.937,0.104,1.102,0.914,1.102h0.396v0.626c-0.479-0.021-1.393-0.062-2.08-0.062c-0.708,0-1.622,0.041-2.287,0.062L76.76,106.573
	L76.76,106.573z"/>
<path fill="#416B6D" d="M89.778,100.878c0-1.123-0.498-2.392-1.746-2.392c-0.561,0-1.58,0.562-1.58,1.165
	c0,0.333,0.146,0.625,0.291,0.936l-1.33,0.646c-0.209-0.437-0.375-0.749-0.375-1.103c0-0.666,0.478-1.123,1.394-1.664
	c0.894-0.541,1.56-0.77,1.954-0.77c2.578,0,2.973,1.852,2.973,2.766v4.221c0,1.104,0.188,1.33,0.521,1.33
	c0.208,0,0.624-0.146,0.936-0.291v0.562l-2.018,0.956c-0.227,0.104-0.311,0.104-0.395,0.104c-0.271,0-0.416-0.541-0.52-1.186
	c-1.395,0.998-1.996,1.186-2.871,1.186c-1.518,0-2.35-1.125-2.35-2.246c0-1.289,0.791-1.77,2.183-2.309l2.933-1.144V100.878
	L89.778,100.878z M89.778,102.353l-2.162,0.895c-0.416,0.166-1.371,0.582-1.371,1.497c0,0.562,0.539,1.519,1.664,1.519
	c0.686,0,1.269-0.396,1.933-0.894c-0.042-0.229-0.063-0.5-0.063-1V102.353L89.778,102.353z"/>
<path fill="#416B6D" d="M93.708,106.573h0.373c0.938,0,1.104-0.248,1.104-1.456v-3.534c0-1.871-0.25-2.183-0.727-2.183
	c-0.188,0-0.458,0.083-0.75,0.229v-0.625c0.873-0.291,1.871-0.77,2.727-1.311h0.208v1.643c0.874-0.75,1.892-1.643,3.181-1.643
	c1.27,0,2.433,0.498,2.975,1.788c0.79-0.771,2.037-1.788,3.574-1.788c1.062,0,1.852,0.354,2.31,0.956
	c0.479,0.646,0.646,1.312,0.646,2.558v4.096c0,1.103,0.271,1.268,1.121,1.268h0.354v0.626c-0.77-0.021-1.477-0.062-2.184-0.062
	c-0.727,0-1.455,0.041-2.309,0.062v-0.626h0.21c1.08,0,1.228-0.395,1.228-1.621v-3.888c0-1.519-0.771-2.205-2.163-2.205
	c-1.04,0-1.747,0.646-2.537,1.207v5.405c0,0.916,0.292,1.101,1.04,1.101h0.438v0.626c-0.709-0.021-1.394-0.062-2.102-0.062
	c-0.748,0-1.52,0.041-2.329,0.062v-0.626h0.187c0.896,0,1.188-0.207,1.188-1.101v-4.365c0-1.414-0.873-2.247-2.163-2.247
	c-1.038,0-1.745,0.646-2.535,1.207v5.26c0,1.062,0.419,1.246,1.103,1.246h0.396v0.626c-0.789-0.021-1.559-0.062-2.35-0.062
	c-0.748,0-1.538,0.041-2.204,0.062v-0.624L93.708,106.573L93.708,106.573z"/>
<path fill="#416B6D" d="M111.76,106.573h0.413c0.75,0,1.229-0.248,1.229-1.727v-4.198c0-0.832-0.248-1.062-0.646-1.062
	c-0.311,0-0.664,0.125-0.893,0.229v-0.625c0.893-0.333,2.326-1.081,2.91-1.497h0.206v7.152c0,1.477,0.48,1.724,1.229,1.724h0.416
	v0.626c-0.79-0.021-1.77-0.062-2.434-0.062s-1.645,0.041-2.432,0.062L111.76,106.573L111.76,106.573z M114.192,93.536
	c0.582,0,1.037,0.458,1.037,1.04c0,0.583-0.455,1.04-1.037,1.04c-0.584,0-1.039-0.458-1.039-1.04S113.608,93.536,114.192,93.536z"/>
<path fill="#416B6D" d="M128.519,106.2c-0.832,0.354-1.769,0.748-2.828,1.268c-0.293-0.312-0.396-0.978-0.438-1.455
	c-0.895,0.748-1.956,1.33-3.285,1.33c-1.936,0-4.055-1.455-4.055-4.554c0-2.745,2.101-5.094,4.781-5.094
	c0.957,0,1.664,0.208,2.559,0.603v-4.574c0-0.644-0.25-1.041-0.771-1.041c-0.354,0-0.705,0.168-0.873,0.23v-0.707
	c0.957-0.374,1.895-0.812,3.076-1.498h0.21c-0.042,0.479-0.062,1.936-0.062,3.95v9.503c0,1.352,0.271,1.686,0.747,1.686
	c0.229,0,0.562-0.041,0.938-0.271v0.625L128.519,106.2L128.519,106.2z M125.253,99.546c-0.542-0.457-1.372-1.144-2.621-1.144
	c-2.038,0-3.139,1.664-3.139,3.556c0,1.871,0.935,4.305,3.139,4.305c1.249,0,2.018-0.479,2.621-0.959V99.546z"/>
</svg>
