<?xml version="1.0" encoding="utf-8"?>
<!-- Generator: Adobe Illustrator 16.0.0, SVG Export Plug-In . SVG Version: 6.00 Build 0)  -->
<!DOCTYPE svg PUBLIC "-//W3C//DTD SVG 1.1//EN" "http://www.w3.org/Graphics/SVG/1.1/DTD/svg11.dtd">
<svg version="1.1" id="flower" xmlns="http://www.w3.org/2000/svg" xmlns:xlink="http://www.w3.org/1999/xlink" x="0px" y="0px"
	 width="174px" height="173px" viewBox="0 0 174 173" enable-background="new 0 0 174 173" xml:space="preserve">
<g>
	<g>
		<g>
			
				<ellipse transform="matrix(0.3604 0.9328 -0.9328 0.3604 212.7265 -28.9553)" fill="#73D100" stroke="#416B6D" stroke-width="0.8805" stroke-miterlimit="10" cx="127.477" cy="140.636" rx="3.228" ry="3.201"/>
			<path fill="#73D100" stroke="#416B6D" stroke-width="0.8805" stroke-miterlimit="10" d="M122.976,143.629
				c1.647-0.637,3.504,0.195,4.148,1.861c0.643,1.662-0.175,3.525-1.824,4.162c-1.646,0.637-3.502-0.193-4.146-1.857
				C120.513,146.129,121.329,144.266,122.976,143.629z"/>
			<path fill="#73D100" stroke="#416B6D" stroke-width="0.8805" stroke-miterlimit="10" d="M117.226,145.848
				c1.646-0.637,3.506,0.195,4.146,1.861c0.645,1.666-0.173,3.527-1.82,4.162c-1.647,0.639-3.504-0.193-4.147-1.855
				C114.761,148.35,115.576,146.486,117.226,145.848z"/>
			
				<ellipse transform="matrix(0.3601 0.9329 -0.9329 0.3601 209.134 -9.3194)" fill="#73D100" stroke="#416B6D" stroke-width="0.8805" stroke-miterlimit="10" cx="111.36" cy="147.788" rx="3.227" ry="3.201"/>
			
				<ellipse transform="matrix(0.3604 0.9328 -0.9328 0.3604 207.0499 -0.6341)" fill="#73D100" stroke="#416B6D" stroke-width="0.8805" stroke-miterlimit="10" cx="103.987" cy="150.657" rx="3.228" ry="3.199"/>
			<path fill="#73D100" stroke="#416B6D" stroke-width="0.8805" stroke-miterlimit="10" d="M98.019,152.322
				c1.645-0.637,3.504,0.199,4.146,1.859c0.642,1.662-0.173,3.527-1.819,4.162c-1.65,0.639-3.508-0.193-4.149-1.857
				C95.554,154.826,96.368,152.961,98.019,152.322z"/>
			
				<ellipse transform="matrix(0.3601 0.9329 -0.9329 0.3601 206.7821 13.6361)" fill="#73D100" stroke="#416B6D" stroke-width="0.8805" stroke-miterlimit="10" cx="93.451" cy="157.557" rx="3.228" ry="3.2"/>
			
				<ellipse transform="matrix(0.3604 0.9328 -0.9328 0.3604 202.4533 18.7568)" fill="#73D100" stroke="#416B6D" stroke-width="0.8805" stroke-miterlimit="10" cx="87.55" cy="157.001" rx="3.228" ry="3.198"/>
			
				<ellipse transform="matrix(0.3602 0.9329 -0.9329 0.3602 196.2617 23.4429)" fill="#73D100" stroke="#416B6D" stroke-width="0.8805" stroke-miterlimit="10" cx="81.041" cy="154.796" rx="3.229" ry="3.2"/>
			
				<ellipse transform="matrix(0.3604 0.9328 -0.9328 0.3604 195.5741 30.4258)" fill="#73D100" stroke="#416B6D" stroke-width="0.8805" stroke-miterlimit="10" cx="75.602" cy="157.819" rx="3.228" ry="3.201"/>
			<path fill="#73D100" stroke="#416B6D" stroke-width="0.8805" stroke-miterlimit="10" d="M67.103,152.932
				c1.649-0.639,3.508,0.195,4.149,1.861c0.642,1.66-0.173,3.525-1.823,4.162c-1.646,0.637-3.504-0.197-4.145-1.855
				C64.64,155.434,65.455,153.566,67.103,152.932z"/>
			
				<ellipse transform="matrix(0.3602 0.9329 -0.9329 0.3602 182.9391 40.7516)" fill="#73D100" stroke="#416B6D" stroke-width="0.8805" stroke-miterlimit="10" cx="61.759" cy="153.749" rx="3.227" ry="3.2"/>
			<path fill="#73D100" stroke="#416B6D" stroke-width="0.8805" stroke-miterlimit="10" d="M55.214,149.029
				c1.648-0.637,3.508,0.195,4.148,1.857c0.643,1.662-0.176,3.527-1.823,4.164s-3.504-0.195-4.146-1.859
				C52.751,151.529,53.566,149.666,55.214,149.029z"/>
			
				<ellipse transform="matrix(0.3602 0.9329 -0.9329 0.3602 172.4194 50.5576)" fill="#73D100" stroke="#416B6D" stroke-width="0.8805" stroke-miterlimit="10" cx="49.352" cy="150.977" rx="3.23" ry="3.2"/>
			
				<ellipse transform="matrix(0.3603 0.9328 -0.9328 0.3603 167.388 54.4693)" fill="#73D100" stroke="#416B6D" stroke-width="0.8805" stroke-miterlimit="10" cx="43.979" cy="149.28" rx="3.225" ry="3.199"/>
			
				<ellipse transform="matrix(0.3603 0.9329 -0.9329 0.3603 160.6002 52.8533)" fill="#73D100" stroke="#416B6D" stroke-width="0.8805" stroke-miterlimit="10" cx="41.766" cy="143.518" rx="3.229" ry="3.2"/>
			
				<ellipse transform="matrix(0.3605 0.9327 -0.9327 0.3605 154.3539 57.5051)" fill="#73D100" stroke="#416B6D" stroke-width="0.8805" stroke-miterlimit="10" cx="35.238" cy="141.324" rx="3.227" ry="3.199"/>
			
				<ellipse transform="matrix(0.3601 0.9329 -0.9329 0.3601 152.8023 64.3181)" fill="#73D100" stroke="#416B6D" stroke-width="0.8805" stroke-miterlimit="10" cx="29.517" cy="143.544" rx="3.227" ry="3.199"/>
			
				<ellipse transform="matrix(0.36 0.933 -0.933 0.36 145.3206 65.6522)" fill="#73D100" stroke="#416B6D" stroke-width="0.8805" stroke-miterlimit="10" cx="24.811" cy="138.741" rx="3.227" ry="3.2"/>
			<path fill="#73D100" stroke="#416B6D" stroke-width="0.8805" stroke-miterlimit="10" d="M19.79,130.615
				c1.646-0.635,3.504,0.199,4.147,1.863c0.641,1.658-0.174,3.525-1.82,4.16c-1.65,0.639-3.508-0.195-4.149-1.857
				C17.325,133.119,18.14,131.252,19.79,130.615z"/>
			<path fill="#73D100" stroke="#416B6D" stroke-width="0.8805" stroke-miterlimit="10" d="M17.57,124.865
				c1.646-0.635,3.504,0.199,4.145,1.859c0.642,1.66-0.174,3.527-1.82,4.166c-1.65,0.637-3.507-0.199-4.149-1.859
				C15.105,127.369,15.919,125.504,17.57,124.865z"/>
			
				<ellipse transform="matrix(0.3604 0.9328 -0.9328 0.3604 212.7265 -28.9553)" fill="#73D100" stroke="#416B6D" stroke-width="0.8805" stroke-miterlimit="10" cx="127.477" cy="140.636" rx="3.228" ry="3.201"/>
			
				<ellipse transform="matrix(0.3604 0.9328 -0.9328 0.3604 212.7265 -28.9553)" fill="#73D100" stroke="#416B6D" stroke-width="0.8805" stroke-miterlimit="10" cx="127.477" cy="140.636" rx="3.228" ry="3.201"/>
			
				<ellipse transform="matrix(0.3602 0.9329 -0.9329 0.3602 123.0784 64.4471)" fill="#73D100" stroke="#416B6D" stroke-width="0.8805" stroke-miterlimit="10" cx="14.555" cy="121.951" rx="3.228" ry="3.199"/>
			
				<ellipse transform="matrix(0.3601 0.9329 -0.9329 0.3601 116.2883 62.8447)" fill="#73D100" stroke="#416B6D" stroke-width="0.8805" stroke-miterlimit="10" cx="12.332" cy="116.193" rx="3.228" ry="3.198"/>
			
				<ellipse transform="matrix(0.3601 0.9329 -0.9329 0.3601 110.4194 57.3544)" fill="#73D100" stroke="#416B6D" stroke-width="0.8805" stroke-miterlimit="10" cx="13.4" cy="109.17" rx="3.228" ry="3.2"/>
			
				<ellipse transform="matrix(0.3602 0.9329 -0.9329 0.3602 106.7093 51.3527)" fill="#73D100" stroke="#416B6D" stroke-width="0.8805" stroke-miterlimit="10" cx="15.916" cy="103.474" rx="3.227" ry="3.2"/>
			
				<ellipse transform="matrix(0.3604 0.9328 -0.9328 0.3604 104.207 44.6161)" fill="#73D100" stroke="#416B6D" stroke-width="0.8805" stroke-miterlimit="10" cx="19.571" cy="98.292" rx="3.23" ry="3.2"/>
			<path fill="#73D100" stroke="#416B6D" stroke-width="0.8805" stroke-miterlimit="10" d="M14.869,90.988
				c1.649-0.637,3.506,0.195,4.147,1.857c0.641,1.658-0.173,3.527-1.822,4.164c-1.647,0.637-3.505-0.199-4.146-1.859
				C12.405,93.486,13.221,91.623,14.869,90.988z"/>
			<path fill="#73D100" stroke="#416B6D" stroke-width="0.8805" stroke-miterlimit="10" d="M9.679,87.324
				c1.648-0.635,3.508,0.201,4.15,1.863s-0.174,3.525-1.823,4.164c-1.646,0.635-3.504-0.197-4.146-1.859
				C7.217,89.828,8.032,87.963,9.679,87.324z"/>
			
				<ellipse transform="matrix(0.3602 0.9329 -0.9329 0.3602 84.6515 45.0983)" fill="#73D100" stroke="#416B6D" stroke-width="0.8805" stroke-miterlimit="10" cx="9.446" cy="84.265" rx="3.229" ry="3.2"/>
			
				<ellipse transform="matrix(0.3606 0.9327 -0.9327 0.3606 78.7694 39.6046)" fill="#73D100" stroke="#416B6D" stroke-width="0.8805" stroke-miterlimit="10" cx="10.5" cy="77.251" rx="3.228" ry="3.2"/>
			
				<ellipse transform="matrix(0.3601 0.9329 -0.9329 0.3601 76.2996 32.8863)" fill="#73D100" stroke="#416B6D" stroke-width="0.8805" stroke-miterlimit="10" cx="14.177" cy="72.062" rx="3.228" ry="3.2"/>
			
				<ellipse transform="matrix(0.3603 0.9328 -0.9328 0.3603 73.7889 26.1411)" fill="#73D100" stroke="#416B6D" stroke-width="0.8805" stroke-miterlimit="10" cx="17.835" cy="66.87" rx="3.227" ry="3.199"/>
			
				<ellipse transform="matrix(0.3603 0.9328 -0.9328 0.3603 68.9013 20.8942)" fill="#73D100" stroke="#416B6D" stroke-width="0.8805" stroke-miterlimit="10" cx="19.216" cy="60.686" rx="3.227" ry="3.198"/>
			
				<ellipse transform="matrix(0.3601 0.9329 -0.9329 0.3601 63.7779 16.6158)" fill="#73D100" stroke="#416B6D" stroke-width="0.8805" stroke-miterlimit="10" cx="19.777" cy="54.798" rx="3.227" ry="3.2"/>
			
				<ellipse transform="matrix(0.3601 0.9329 -0.9329 0.3601 58.8876 11.3703)" fill="#73D100" stroke="#416B6D" stroke-width="0.8805" stroke-miterlimit="10" cx="21.156" cy="48.611" rx="3.229" ry="3.2"/>
			
				<ellipse transform="matrix(0.3602 0.9329 -0.9329 0.3602 59.5129 4.342)" fill="#73D100" stroke="#416B6D" stroke-width="0.8805" stroke-miterlimit="10" cx="26.591" cy="45.557" rx="3.227" ry="3.198"/>
			
				<ellipse transform="matrix(0.3601 0.9329 -0.9329 0.3601 61.1271 -2.4374)" fill="#73D100" stroke="#416B6D" stroke-width="0.8805" stroke-miterlimit="10" cx="32.34" cy="43.341" rx="3.226" ry="3.199"/>
			
				<ellipse transform="matrix(0.3602 0.9329 -0.9329 0.3602 63.9235 -9.9595)" fill="#73D100" stroke="#416B6D" stroke-width="0.8805" stroke-miterlimit="10" cx="39.223" cy="41.623" rx="3.229" ry="3.201"/>
			<path fill="#73D100" stroke="#416B6D" stroke-width="0.8805" stroke-miterlimit="10" d="M44.259,39.995
				c1.648-0.636,3.508,0.198,4.148,1.862c0.643,1.661-0.175,3.526-1.823,4.163c-1.647,0.637-3.505-0.197-4.146-1.858
				C41.796,42.497,42.611,40.631,44.259,39.995z"/>
			
				<ellipse transform="matrix(0.3602 0.9329 -0.9329 0.3602 62.3443 -20.5759)" fill="#73D100" stroke="#416B6D" stroke-width="0.8805" stroke-miterlimit="10" cx="46.173" cy="35.164" rx="3.229" ry="3.2"/>
			
				<ellipse transform="matrix(0.3602 0.9329 -0.9329 0.3602 56.2517 -25.0802)" fill="#73D100" stroke="#416B6D" stroke-width="0.8805" stroke-miterlimit="10" cx="46.41" cy="28.468" rx="3.228" ry="3.198"/>
			
				<ellipse transform="matrix(0.36 0.9329 -0.9329 0.36 53.5358 -30.8535)" fill="#73D100" stroke="#416B6D" stroke-width="0.8805" stroke-miterlimit="10" cx="49.257" cy="23.596" rx="3.229" ry="3.198"/>
			
				<ellipse transform="matrix(0.3604 0.9328 -0.9328 0.3604 52.4338 -39.2852)" fill="#73D100" stroke="#416B6D" stroke-width="0.8805" stroke-miterlimit="10" cx="54.863" cy="18.592" rx="3.227" ry="3.2"/>
			
				<ellipse transform="matrix(0.3603 0.9328 -0.9328 0.3603 55.0166 -45.8376)" fill="#73D100" stroke="#416B6D" stroke-width="0.8805" stroke-miterlimit="10" cx="60.929" cy="17.194" rx="3.228" ry="3.201"/>
			
				<ellipse transform="matrix(0.36 0.9329 -0.9329 0.36 60.5198 -51.7203)" fill="#73D100" stroke="#416B6D" stroke-width="0.8805" stroke-miterlimit="10" cx="67.958" cy="18.252" rx="3.228" ry="3.199"/>
			
				<ellipse transform="matrix(0.36 0.9329 -0.9329 0.36 62.1353 -58.509)" fill="#73D100" stroke="#416B6D" stroke-width="0.8805" stroke-miterlimit="10" cx="73.714" cy="16.035" rx="3.228" ry="3.201"/>
			
				<ellipse transform="matrix(0.3601 0.9329 -0.9329 0.3601 63.7252 -65.2831)" fill="#73D100" stroke="#416B6D" stroke-width="0.8805" stroke-miterlimit="10" cx="79.454" cy="13.814" rx="3.228" ry="3.199"/>
			
				<ellipse transform="matrix(0.3602 0.9329 -0.9329 0.3602 65.331 -72.0694)" fill="#73D100" stroke="#416B6D" stroke-width="0.8805" stroke-miterlimit="10" cx="85.207" cy="11.594" rx="3.229" ry="3.2"/>
			
				<ellipse transform="matrix(0.36 0.9329 -0.9329 0.36 71.8021 -77.7172)" fill="#73D100" stroke="#416B6D" stroke-width="0.8805" stroke-miterlimit="10" cx="92.548" cy="13.477" rx="3.228" ry="3.199"/>
			
				<ellipse transform="matrix(0.3603 0.9328 -0.9328 0.3603 79.0118 -78.0218)" fill="#73D100" stroke="#416B6D" stroke-width="0.8805" stroke-miterlimit="10" cx="96.394" cy="18.599" rx="3.228" ry="3.201"/>
			<path fill="#73D100" stroke="#416B6D" stroke-width="0.8805" stroke-miterlimit="10" d="M95.821,21.973
				c1.646-0.636,3.503,0.196,4.146,1.859c0.644,1.664-0.174,3.528-1.819,4.164C96.497,28.633,94.64,27.8,94,26.137
				C93.356,24.474,94.175,22.61,95.821,21.973z"/>
			
				<ellipse transform="matrix(0.3601 0.9329 -0.9329 0.3601 83.5536 -84.1352)" fill="#73D100" stroke="#416B6D" stroke-width="0.8805" stroke-miterlimit="10" cx="103.109" cy="18.841" rx="3.23" ry="3.2"/>
			<path fill="#73D100" stroke="#416B6D" stroke-width="0.8805" stroke-miterlimit="10" d="M108.327,15.256
				c1.65-0.637,3.509,0.197,4.148,1.86c0.643,1.66-0.172,3.527-1.821,4.164c-1.647,0.636-3.507-0.197-4.146-1.859
				C105.864,17.758,106.681,15.891,108.327,15.256z"/>
			
				<ellipse transform="matrix(0.3603 0.9328 -0.9328 0.3603 92.5555 -96.3291)" fill="#73D100" stroke="#416B6D" stroke-width="0.8805" stroke-miterlimit="10" cx="116.512" cy="19.318" rx="3.228" ry="3.198"/>
			
				<ellipse transform="matrix(0.3601 0.9329 -0.9329 0.3601 100.068 -97.6236)" fill="#73D100" stroke="#416B6D" stroke-width="0.8805" stroke-miterlimit="10" cx="121.197" cy="24.133" rx="3.23" ry="3.2"/>
			<path fill="#73D100" stroke="#416B6D" stroke-width="0.8805" stroke-miterlimit="10" d="M126.041,24.461
				c1.647-0.637,3.509,0.198,4.149,1.858c0.64,1.666-0.178,3.532-1.823,4.168c-1.647,0.637-3.507-0.197-4.149-1.863
				C123.577,26.965,124.394,25.096,126.041,24.461z"/>
			
				<ellipse transform="matrix(0.3603 0.9329 -0.9329 0.3603 112.2541 -105.9855)" fill="#73D100" stroke="#416B6D" stroke-width="0.8805" stroke-miterlimit="10" cx="133.399" cy="28.849" rx="3.227" ry="3.199"/>
			
				<ellipse transform="matrix(0.3602 0.9329 -0.9329 0.3602 119.0115 -108.4854)" fill="#73D100" stroke="#416B6D" stroke-width="0.8805" stroke-miterlimit="10" cx="138.593" cy="32.519" rx="3.228" ry="3.2"/>
			
				<ellipse transform="matrix(0.3604 0.9328 -0.9328 0.3604 125.2531 -109.0611)" fill="#73D100" stroke="#416B6D" stroke-width="0.8805" stroke-miterlimit="10" cx="142.151" cy="36.801" rx="3.229" ry="3.199"/>
			
				<ellipse transform="matrix(0.3602 0.9329 -0.9329 0.3602 132.0591 -107.4397)" fill="#73D100" stroke="#416B6D" stroke-width="0.8805" stroke-miterlimit="10" cx="144.357" cy="42.557" rx="3.229" ry="3.2"/>
			
				<ellipse transform="matrix(0.3603 0.9328 -0.9328 0.3603 137.5239 -113.3036)" fill="#73D100" stroke="#416B6D" stroke-width="0.8805" stroke-miterlimit="10" cx="151.377" cy="43.623" rx="3.228" ry="3.2"/>
			<path fill="#73D100" stroke="#416B6D" stroke-width="0.8805" stroke-miterlimit="10" d="M157.042,43.64
				c1.649-0.636,3.506,0.194,4.146,1.858c0.644,1.663-0.174,3.525-1.819,4.16c-1.651,0.639-3.506-0.193-4.149-1.857
				C154.578,46.139,155.394,44.276,157.042,43.64z"/>
			
				<ellipse transform="matrix(0.3604 0.9328 -0.9328 0.3604 151.4916 -116.1376)" fill="#73D100" stroke="#416B6D" stroke-width="0.8805" stroke-miterlimit="10" cx="160.43" cy="52.394" rx="3.228" ry="3.198"/>
			
				<ellipse transform="matrix(0.3604 0.9328 -0.9328 0.3604 157.8176 -112.5789)" fill="#73D100" stroke="#416B6D" stroke-width="0.8805" stroke-miterlimit="10" cx="161.005" cy="58.797" rx="3.228" ry="3.2"/>
			
				<ellipse transform="matrix(0.3601 0.9329 -0.9329 0.3601 163.7122 -107.0916)" fill="#73D100" stroke="#416B6D" stroke-width="0.8805" stroke-miterlimit="10" cx="159.925" cy="65.799" rx="3.227" ry="3.201"/>
			<path fill="#73D100" stroke="#416B6D" stroke-width="0.8805" stroke-miterlimit="10" d="M161.31,69.363
				c1.65-0.638,3.51,0.198,4.148,1.856c0.645,1.662-0.172,3.529-1.82,4.168c-1.647,0.635-3.506-0.201-4.146-1.863
				C158.851,71.864,159.664,69.999,161.31,69.363z"/>
			<path fill="#73D100" stroke="#416B6D" stroke-width="0.8805" stroke-miterlimit="10" d="M162.711,75.428
				c1.647-0.637,3.505,0.197,4.147,1.861c0.64,1.66-0.174,3.527-1.821,4.163s-3.507-0.196-4.147-1.856
				C160.248,77.932,161.063,76.065,162.711,75.428z"/>
			
				<ellipse transform="matrix(0.3603 0.9328 -0.9328 0.3603 184.3139 -99.1388)" fill="#73D100" stroke="#416B6D" stroke-width="0.8805" stroke-miterlimit="10" cx="164.439" cy="84.815" rx="3.228" ry="3.199"/>
			
				<ellipse transform="matrix(0.3603 0.9329 -0.9329 0.3603 186.8346 -92.4008)" fill="#73D100" stroke="#416B6D" stroke-width="0.8805" stroke-miterlimit="10" cx="160.785" cy="90.018" rx="3.229" ry="3.2"/>
			
				<ellipse transform="matrix(0.3602 0.9329 -0.9329 0.3602 187.4225 -86.1382)" fill="#73D100" stroke="#416B6D" stroke-width="0.8805" stroke-miterlimit="10" cx="156.506" cy="93.562" rx="3.229" ry="3.2"/>
			<path fill="#73D100" stroke="#416B6D" stroke-width="0.8805" stroke-miterlimit="10" d="M155.912,96.932
				c1.647-0.637,3.504,0.195,4.146,1.857c0.645,1.664-0.172,3.527-1.819,4.162c-1.649,0.637-3.506-0.193-4.146-1.855
				C153.447,99.432,154.263,97.568,155.912,96.932z"/>
			
				<ellipse transform="matrix(0.3602 0.9329 -0.9329 0.3602 200.0822 -79.0414)" fill="#73D100" stroke="#416B6D" stroke-width="0.8805" stroke-miterlimit="10" cx="157.662" cy="106.339" rx="3.229" ry="3.202"/>
			
				<ellipse transform="matrix(0.3601 0.9329 -0.9329 0.3601 204.9494 -73.7934)" fill="#73D100" stroke="#416B6D" stroke-width="0.8805" stroke-miterlimit="10" cx="156.268" cy="112.506" rx="3.228" ry="3.2"/>
			
				<ellipse transform="matrix(0.3605 0.9328 -0.9328 0.3605 207.1732 -66.0861)" fill="#73D100" stroke="#416B6D" stroke-width="0.8805" stroke-miterlimit="10" cx="151.782" cy="118.044" rx="3.228" ry="3.2"/>
			<path fill="#73D100" stroke="#416B6D" stroke-width="0.8805" stroke-miterlimit="10" d="M146.144,120.525
				c1.648-0.639,3.508,0.193,4.146,1.855c0.645,1.664-0.172,3.529-1.82,4.166c-1.646,0.639-3.504-0.197-4.146-1.859
				S144.497,121.16,146.144,120.525z"/>
			
				<ellipse transform="matrix(0.3605 0.9328 -0.9328 0.3605 213.8723 -51.2234)" fill="#73D100" stroke="#416B6D" stroke-width="0.8805" stroke-miterlimit="10" cx="144.291" cy="130.355" rx="3.227" ry="3.201"/>
			
				<ellipse transform="matrix(0.3601 0.9329 -0.9329 0.3601 217.6592 -45.1897)" fill="#73D100" stroke="#416B6D" stroke-width="0.8805" stroke-miterlimit="10" cx="141.771" cy="136.067" rx="3.227" ry="3.199"/>
			
				<ellipse transform="matrix(0.3601 0.9329 -0.9329 0.3601 215.594 -36.4795)" fill="#73D100" stroke="#416B6D" stroke-width="0.8805" stroke-miterlimit="10" cx="134.389" cy="138.917" rx="3.227" ry="3.199"/>
		</g>
		<path fill="#DBF7FC" stroke="#416B6D" stroke-width="0.8805" stroke-miterlimit="10" d="M25.632,95.963
			c0,0-14.918,8.215-12.937,16.912c1.982,8.695,6.726,10.393,7.518,13.262c0.794,2.867,3.072,12.027,6.026,15.605
			c2.956,3.574,13.936-3.023,13.936-3.023s0.53,10.336,4.6,11.91c4.07,1.574,12.705-0.502,17.164,0.453
			c4.457,0.951,8.927,8.033,14.209,7.256c5.281-0.781,5.467-6.832,5.467-6.832s6.179,7.053,13.498,5.641
			c7.32-1.408,7.839-8.213,12.084-9.854c4.244-1.641,10.232,3.281,14.885-0.561c4.653-3.84,1.282-11.346,1.282-11.346
			s11.776,6.463,17.005,0.041c5.229-6.424,4.4-10.197,6.807-15.371c2.407-5.18,11.086-6.326,10.541-13.037
			c-0.547-6.713-6.926-12.428-6.926-12.428s14.812-6.664,13.846-12.425c-0.965-5.765-2.944-4.369-5.231-13.552
			c-2.287-9.187,2.535-11.362-2.461-19.817c-4.993-8.453-16.565-2.57-16.565-2.57s4.483-10.382-4.227-15.83
			c-8.708-5.446-9.566-1.965-14.987-4.593c-5.416-2.628-1.479-3.833-10.219-6.909c-8.737-3.077-15.899,10.15-15.899,10.15
			s-2.344-15.847-9.775-16.755c-7.428-0.908-11.299,3.736-16.016,6.185c-4.718,2.455-8.22-0.916-19.022,4.517
			c-10.8,5.43,1.554,27.243,1.554,27.243S32.74,36.354,26.269,44.042c-6.468,7.692-7.785,17.322-9.147,21.939
			c-1.363,4.615-8.461,9.873-8.322,18.784C8.938,93.678,25.632,95.963,25.632,95.963z"/>
	</g>
	<g>
		<path fill="#416B6D" d="M44.136,84.729h0.385c0.981,0,1.408-0.363,1.408-1.748V72.577c0-1.387-0.427-1.75-1.408-1.75h-0.385
			v-0.639c0.746,0.021,1.771,0.064,2.729,0.064c1.429,0,2.452-0.064,3.392-0.064c3.772,0,4.455,2.963,4.455,3.943
			c0,2.793-1.961,3.646-3.027,3.987l2.857,4.734c1.172,1.92,1.514,2.047,3.24,2.151v0.448c-0.405,0-0.789,0.023-1.193,0.023
			c-1.875,0-2.75-0.236-3.879-2.091l-2.496-4.073c-0.49-0.788-0.768-0.831-2.408-0.874v4.029c0,2.026,0.361,2.261,1.215,2.261h0.617
			v0.639c-0.938-0.021-1.832-0.063-2.771-0.063c-0.959,0-1.982,0.043-2.729,0.063v-0.638H44.136z M47.804,77.48
			c0.362,0.127,0.896,0.149,1.449,0.149c1.92,0,3.497-0.875,3.497-3.093c0-0.937-0.639-3.538-3.603-3.538
			c-0.512,0-0.918,0.041-1.344,0.086V77.48L47.804,77.48z"/>
		<path fill="#416B6D" d="M67.354,84.385c-0.854,0.535-1.961,1.132-3.604,1.132c-3.41,0-4.967-2.749-4.967-5.031
			c0-2.494,2.152-4.86,4.583-4.86c2.644,0,4.138,1.642,4.138,3.945v0.213h-7.016c0.086,2.708,1.236,4.84,3.88,4.84
			c1.578,0,2.474-0.513,2.985-0.875V84.385L67.354,84.385z M65.798,79.058c0-2.324-1.938-2.708-2.601-2.708
			c-1.962,0-2.708,1.918-2.708,2.708H65.798z"/>
		<path fill="#416B6D" d="M75.073,78.269h-0.426c-0.256-0.854-0.576-1.918-2.303-1.918c-1.344,0-1.812,0.832-1.812,1.428
			c0,0.875,0.809,1.345,1.641,1.728l1.172,0.533c0.685,0.319,2.004,0.916,2.004,2.558c0,1.557-1.15,2.921-3.453,2.921
			c-1.236,0-2.217-0.299-2.984-0.555c0.042-0.404,0.064-0.811,0.064-1.258c0-0.47-0.021-0.854-0.064-1.257h0.596
			c0.172,1.513,1.047,2.345,2.368,2.345c1.001,0,2.026-0.406,2.026-1.6c0-1.002-0.811-1.386-1.514-1.748l-1.6-0.811
			c-0.554-0.277-1.706-0.918-1.706-2.346c0-1.089,0.896-2.664,3.306-2.664c1.107,0,2.023,0.276,2.601,0.426L75.073,78.269z"/>
		<path fill="#416B6D" d="M81.703,75.625c3.07,0,4.968,2.344,4.968,5.201c0,2.516-2.004,4.69-4.881,4.69
			c-2.39,0-4.861-1.875-4.861-5.095C76.929,78.141,78.611,75.625,81.703,75.625z M81.341,76.35c-1.32,0-2.621,1.257-2.621,3.668
			c0,2.066,1.086,4.773,3.389,4.773c2.025,0,2.771-1.535,2.771-3.561C84.88,78.78,83.685,76.35,81.341,76.35z"/>
		<path fill="#416B6D" d="M89.593,78.396c0-0.702-0.191-1.022-0.683-1.022c-0.362,0-0.704,0.086-0.961,0.234v-0.639
			c0.979-0.299,2.006-0.789,3.007-1.344h0.256v5.606c0,1.771,0.428,3.177,2.217,3.177c0.748,0,1.812-0.64,2.645-1.215v-4.799
			c0-0.702-0.191-1.021-0.682-1.021c-0.234,0-0.532,0.084-0.875,0.233v-0.64c0.895-0.297,1.918-0.789,2.92-1.342h0.258v7.524
			c0,0.938,0.234,1.022,0.49,1.022c0.277,0,0.789-0.233,1.149-0.362v0.64l-2.771,1.194l-0.149-0.063
			c-0.171-0.426-0.235-1.087-0.257-1.621c-1.087,0.684-2.344,1.558-3.624,1.558c-1.065,0-1.834-0.447-2.347-1.15
			c-0.53-0.747-0.596-1.577-0.596-3.093v-2.878H89.593z"/>
		<path fill="#416B6D" d="M100.274,84.729h0.382c0.961,0,1.131-0.256,1.131-1.493v-4.647c0-0.703-0.192-1.022-0.683-1.022
			c-0.19,0-0.533,0.085-0.832,0.233v-0.639c0.896-0.384,1.917-0.874,2.793-1.535h0.214v2.217h0.043
			c0.703-1.449,1.619-2.217,2.707-2.217c0.598,0,1.001,0.127,1.278,0.213v2.004h-0.34c-0.147-0.596-0.789-0.768-1.365-0.768
			c-0.853,0-2.195,0.641-2.195,2.708v3.815c0,0.96,0.105,1.13,0.938,1.13h0.405v0.639c-0.491-0.021-1.429-0.063-2.132-0.063
			c-0.727,0-1.663,0.043-2.345,0.063L100.274,84.729L100.274,84.729z"/>
		<path fill="#416B6D" d="M116.946,84.174c-0.938,0.682-2.238,1.343-3.646,1.343c-2.602,0-4.798-2.11-4.798-4.861
			c0-2.196,1.771-5.03,5.075-5.03c1.321,0,2.389,0.383,2.92,0.617l0.129,2.004l-0.171,0.043c-0.746-1.174-2.047-1.939-3.282-1.939
			c-1.897,0-3.051,1.599-3.051,3.347c0,2.517,1.707,4.798,3.902,4.798c0.641,0,1.601-0.148,2.857-0.896L116.946,84.174z"/>
		<path fill="#416B6D" d="M126.945,84.385c-0.853,0.535-1.962,1.132-3.604,1.132c-3.41,0-4.968-2.749-4.968-5.031
			c0-2.494,2.154-4.86,4.584-4.86c2.644,0,4.138,1.642,4.138,3.945v0.213h-7.016c0.084,2.708,1.236,4.84,3.879,4.84
			c1.58,0,2.475-0.513,2.986-0.875L126.945,84.385L126.945,84.385z M125.39,79.058c0-2.324-1.94-2.708-2.603-2.708
			c-1.961,0-2.707,1.918-2.707,2.708H125.39z"/>
		<path fill="#416B6D" d="M71.64,99.59H71.3c-0.556-1.107-1.578-3.197-5.608-3.197c-4.328,0-5.714,3.984-5.714,7.119
			c0,5.074,3.604,6.824,5.82,6.824c3.348,0,4.883-1.896,5.883-3.154h0.149v1.619c-0.746,0.703-2.558,2.432-5.862,2.432
			c-4.842,0-8.123-3.049-8.123-7.334c0-4.117,2.877-8.4,7.931-8.4c2.11,0,4.136,0.66,4.882,0.896
			c0.404,0.127,0.811,0.275,1.066,0.299L71.64,99.59z"/>
		<path fill="#416B6D" d="M82.151,109.973c-0.854,0.531-1.963,1.129-3.604,1.129c-3.412,0-4.968-2.75-4.968-5.029
			c0-2.496,2.153-4.861,4.584-4.861c2.642,0,4.136,1.641,4.136,3.943v0.215h-7.015c0.086,2.705,1.237,4.838,3.881,4.838
			c1.578,0,2.474-0.512,2.984-0.875L82.151,109.973L82.151,109.973z M80.595,104.643c0-2.322-1.939-2.707-2.601-2.707
			c-1.962,0-2.708,1.918-2.708,2.707H80.595z"/>
		<path fill="#416B6D" d="M83.494,110.314h0.384c0.959,0,1.131-0.256,1.131-1.492v-3.625c0-1.918-0.256-2.24-0.746-2.24
			c-0.192,0-0.471,0.086-0.769,0.236v-0.641c0.896-0.299,1.919-0.787,2.793-1.344h0.214v1.877c0.788-0.832,1.854-1.877,3.239-1.877
			c0.726,0,1.961,0.385,2.601,1.619c0.406,0.748,0.469,1.688,0.469,2.582v3.857c0,0.83,0.148,1.045,1.193,1.045h0.319v0.641
			c-0.511-0.021-1.47-0.064-2.194-0.064c-0.769,0-1.748,0.043-2.324,0.064v-0.641h0.385c0.895,0,1.003-0.449,1.003-1.771v-3.346
			c0-1.154-0.108-1.707-0.705-2.283c-0.277-0.275-0.746-0.51-1.472-0.51c-0.896,0-1.897,0.809-2.387,1.277v5.498
			c0,0.963,0.105,1.133,0.938,1.133h0.404v0.641c-0.489-0.021-1.43-0.064-2.133-0.064c-0.726,0-1.662,0.043-2.346,0.064v-0.639
			h0.003V110.314z"/>
		<path fill="#416B6D" d="M94.88,102.105c1.321-0.812,2.559-2.025,3.455-3.73l0.297-0.064v3.111h3.392l-0.3,0.896h-3.092v4.838
			c0,1.152,0.362,2.58,1.855,2.58c0.702,0,1.342-0.34,1.684-0.555l0.318,0.361l-1.747,1.475c-0.147,0.061-0.319,0.082-0.512,0.082
			c-0.214,0-1.578-0.105-2.388-0.98c-0.746-0.811-0.832-1.896-0.832-2.834v-4.969H94.88V102.105L94.88,102.105z"/>
		<path fill="#416B6D" d="M102.853,110.314h0.385c0.96,0,1.13-0.256,1.13-1.492v-4.65c0-0.703-0.192-1.021-0.685-1.021
			c-0.19,0-0.531,0.084-0.83,0.234v-0.641c0.896-0.385,1.918-0.873,2.795-1.533h0.212v2.215h0.042
			c0.704-1.449,1.621-2.215,2.708-2.215c0.597,0,1.002,0.127,1.278,0.211v2.004h-0.34c-0.148-0.596-0.789-0.768-1.363-0.768
			c-0.854,0-2.197,0.641-2.197,2.709v3.814c0,0.961,0.105,1.133,0.938,1.133h0.404v0.639c-0.49-0.021-1.429-0.062-2.132-0.062
			c-0.726,0-1.662,0.043-2.345,0.062V110.314L102.853,110.314z"/>
		<path fill="#416B6D" d="M119.655,109.973c-0.854,0.531-1.962,1.129-3.604,1.129c-3.41,0-4.968-2.75-4.968-5.029
			c0-2.496,2.153-4.861,4.584-4.861c2.644,0,4.136,1.641,4.136,3.943v0.215h-7.014c0.085,2.705,1.235,4.838,3.881,4.838
			c1.577,0,2.473-0.512,2.984-0.875V109.973L119.655,109.973z M118.097,104.643c0-2.322-1.938-2.707-2.602-2.707
			c-1.961,0-2.707,1.918-2.707,2.707H118.097z"/>
	</g>
</g>
</svg>
