<?xml version="1.0" encoding="utf-8"?>
<!-- Generator: Adobe Illustrator 16.0.0, SVG Export Plug-In . SVG Version: 6.00 Build 0)  -->
<!DOCTYPE svg PUBLIC "-//W3C//DTD SVG 1.1//EN" "http://www.w3.org/Graphics/SVG/1.1/DTD/svg11.dtd">
<svg version="1.1" xmlns="http://www.w3.org/2000/svg" xmlns:xlink="http://www.w3.org/1999/xlink" x="0px" y="0px" width="1914px"
	 height="192px" viewBox="0 0 1914 192" enable-background="new 0 0 1914 192" xml:space="preserve">
<g id="Layer_1">
	<g opacity="0.26">
		<polygon fill="#545656" points="1916,192 1916,163 1913,163 1913,150 1910,150 1910,147 1906,147 1906,124.652 1904,123.608 
			1904,113.765 1904,113.765 1904,107.278 1902.303,106.409 1898,100.502 1898,97 1890,97 1890,100.328 1886.217,106.062 
			1884,106.409 1884,111.447 1883,112.142 1883,123.957 1880,124.304 1880,150.364 1879,150.017 1879,106.583 1877,106.409 
			1877,102.412 1871,102.239 1871,96.159 1866,95.812 1866,94 1864,94 1864,95.464 1863,95.638 1863,94.074 1860.612,93.987 
			1859.9,95.728 1857,95.812 1857,93 1846,93 1846,144.804 1843,144.632 1843,120.483 1841,119.786 1841,116 1832,116 1832,117.701 
			1826,117.528 1826,119 1823,119 1823,121.872 1821,122.046 1821,127 1818,127 1818,70 1804,70 1804,111.447 1802,111.273 
			1802,107.278 1793,107.451 1793,110.753 1790,110.926 1790,117 1785,117 1785,121.178 1783,121.264 1783,119 1776,119 1776,127 
			1771,127 1771,122.567 1770,122.132 1770,119.092 1769,119.179 1769,121.178 1765,120.917 1765,112.142 1755,112.317 
			1755,126.042 1754,126.129 1754,123.262 1749.305,120.223 1744,120.308 1744,126.042 1743,126.129 1743,132.297 1740,132.209 
			1740,128.126 1738,128.213 1738,132.297 1737,132.123 1737,112.142 1710,112.402 1710,154 1705,154 1705,119.092 
			1702.846,119.179 1698,115.964 1698,114.923 1697,114.835 1697,116.312 1691,118.397 1691,151.755 1689,151.842 1689,146.891 
			1687.092,145.5 1680.144,144.894 1677.234,145.029 1677.019,133 1674.759,133 1675.106,119 1670,119 1670,117 1666,117 1666,118 
			1662,118 1662,148 1660,148 1660,151 1659,151 1659,127.431 1657.584,126.911 1654.662,123.957 1651.94,126.215 1648,126.129 
			1648,127.431 1645,127.691 1645,146.195 1642,146.369 1642,131 1635,131 1635,151.061 1631.946,148.055 1554.881,148 1553,148 
			1553,159 1549,159 1549,133 1538,133 1538,137.856 1535,137.942 1535,162.178 1532,162.266 1532,123 1531,123 1531,113.533 
			1527.193,110.58 1518,110.491 1518,127 1511,127 1511,158 1508,158 1508,144.11 1506,144.197 1506,128.126 1505,128.039 
			1505,126.042 1503,125.954 1503,128 1502,128 1502,123.957 1500,123.869 1500,134.382 1495,134.207 1495,110.753 1492,110.58 
			1492,109.363 1486,109.189 1486,110.753 1485,110.84 1485,105.193 1483,105.279 1483,110.753 1477,110.491 1477,139.246 
			1472,139.158 1472,151.061 1470,151.146 1470,144.11 1469,144.197 1469,95.377 1464,95.638 1464,93.379 1455,93.552 1455,96.159 
			1451,95.638 1451,138 1447,138 1447,151.061 1445,151.146 1445,158.009 1441,157.923 1441,162.178 1439,162.266 1439,192 		"/>
		<polyline fill="#545656" points="1624.154,148.454 1631,147.123 1631,154.533 1626.242,153.493 1624.154,148.976 		"/>
		<rect x="1562.525" y="118.397" fill="#545656" width="29.188" height="48.646"/>
		<rect x="1594.84" y="103.108" fill="#545656" width="29.651" height="66.367"/>
		<rect x="1600.053" y="93.727" fill="#545656" width="19.459" height="18.765"/>
		<rect x="1569.821" y="111.101" fill="#545656" width="15.29" height="14.246"/>
	</g>
	<rect x="954" y="216" fill="#545656" width="960" height="100"/>
	<g opacity="0.26">
		<polygon fill="#545656" points="954,192 954,163 951,163 951,150 948,150 948,147 944,147 944,124.652 942,123.608 942,113.765 
			942,113.765 942,107.278 940.303,106.409 936,100.502 936,97 928,97 928,100.328 924.217,106.062 922,106.409 922,111.447 
			921,112.142 921,123.957 918,124.304 918,150.364 917,150.017 917,106.583 915,106.409 915,102.412 909,102.239 909,96.159 
			904,95.812 904,94 902,94 902,95.464 901,95.638 901,94.074 898.612,93.987 897.9,95.728 895,95.812 895,93 884,93 884,144.804 
			881,144.632 881,120.483 879,119.786 879,116 870,116 870,117.701 864,117.528 864,119 861,119 861,121.872 859,122.046 859,127 
			856,127 856,70 842,70 842,111.447 840,111.273 840,107.278 831,107.451 831,110.753 828,110.926 828,117 823,117 823,121.178 
			821,121.264 821,119 814,119 814,127 809,127 809,122.567 808,122.132 808,119.092 807,119.179 807,121.178 803,120.917 
			803,112.142 793,112.317 793,126.042 792,126.129 792,123.262 787.305,120.223 782,120.308 782,126.042 781,126.129 781,132.297 
			778,132.209 778,128.126 776,128.213 776,132.297 775,132.123 775,112.142 748,112.402 748,154 743,154 743,119.092 
			740.846,119.179 736,115.964 736,114.923 735,114.835 735,116.312 729,118.397 729,151.755 727,151.842 727,146.891 
			725.092,145.5 718.144,144.894 715.234,145.029 715.019,133 712.759,133 713.106,119 708,119 708,117 704,117 704,118 700,118 
			700,148 698,148 698,151 697,151 697,127.431 695.584,126.911 692.662,123.957 689.94,126.215 686,126.129 686,127.431 
			683,127.691 683,146.195 680,146.369 680,131 673,131 673,151.061 669.946,148.055 592.881,148 591,148 591,159 587,159 587,133 
			576,133 576,137.856 573,137.942 573,162.178 570,162.266 570,123 569,123 569,113.533 565.193,110.58 556,110.491 556,127 
			549,127 549,158 546,158 546,144.11 544,144.197 544,128.126 543,128.039 543,126.042 541,125.954 541,128 540,128 540,123.957 
			538,123.869 538,134.382 533,134.207 533,110.753 530,110.58 530,109.363 524,109.189 524,110.753 523,110.84 523,105.193 
			521,105.279 521,110.753 515,110.491 515,139.246 510,139.158 510,151.061 508,151.146 508,144.11 507,144.197 507,95.377 
			502,95.638 502,93.379 493,93.552 493,96.159 489,95.638 489,138 485,138 485,151.061 483,151.146 483,158.009 479,157.923 
			479,162.178 477,162.266 477,192 		"/>
		<polyline fill="#545656" points="662.154,148.454 669,147.123 669,154.533 664.242,153.493 662.154,148.976 		"/>
		<rect x="600.525" y="118.397" fill="#545656" width="29.188" height="48.646"/>
		<rect x="632.84" y="103.108" fill="#545656" width="29.651" height="66.367"/>
		<rect x="638.053" y="93.727" fill="#545656" width="19.459" height="18.765"/>
		<rect x="607.821" y="111.101" fill="#545656" width="15.29" height="14.246"/>
	</g>
	<g opacity="0.26">
		<polygon fill="#545656" points="477,192 477,163 474,163 474,150 471,150 471,147 467,147 467,124.652 465,123.608 465,113.765 
			465,113.765 465,107.278 463.303,106.409 459,100.502 459,97 451,97 451,100.328 447.217,106.062 445,106.409 445,111.447 
			444,112.142 444,123.957 441,124.304 441,150.364 440,150.017 440,106.583 438,106.409 438,102.412 432,102.239 432,96.159 
			427,95.812 427,94 425,94 425,95.464 424,95.638 424,94.074 421.612,93.987 420.9,95.728 418,95.812 418,93 407,93 407,144.804 
			404,144.632 404,120.483 402,119.786 402,116 393,116 393,117.701 387,117.528 387,119 384,119 384,121.872 382,122.046 382,127 
			379,127 379,70 365,70 365,111.447 363,111.273 363,107.278 354,107.451 354,110.753 351,110.926 351,117 346,117 346,121.178 
			344,121.264 344,119 337,119 337,127 332,127 332,122.567 331,122.132 331,119.092 330,119.179 330,121.178 326,120.917 
			326,112.142 316,112.317 316,126.042 315,126.129 315,123.262 310.305,120.223 305,120.308 305,126.042 304,126.129 304,132.297 
			301,132.209 301,128.126 299,128.213 299,132.297 298,132.123 298,112.142 271,112.402 271,154 266,154 266,119.092 
			263.846,119.179 259,115.964 259,114.923 258,114.835 258,116.312 252,118.397 252,151.755 250,151.842 250,146.891 
			248.092,145.5 241.144,144.894 238.234,145.029 238.019,133 235.759,133 236.106,119 231,119 231,117 227,117 227,118 223,118 
			223,148 221,148 221,151 220,151 220,127.431 218.584,126.911 215.662,123.957 212.94,126.215 209,126.129 209,127.431 
			206,127.691 206,146.195 203,146.369 203,131 196,131 196,151.061 192.946,148.055 115.881,148 114,148 114,159 110,159 110,133 
			99,133 99,137.856 96,137.942 96,162.178 93,162.266 93,123 92,123 92,113.533 88.193,110.58 79,110.491 79,127 72,127 72,158 
			69,158 69,144.11 67,144.197 67,128.126 66,128.039 66,126.042 64,125.954 64,128 63,128 63,123.957 61,123.869 61,134.382 
			56,134.207 56,110.753 53,110.58 53,109.363 47,109.189 47,110.753 46,110.84 46,105.193 44,105.279 44,110.753 38,110.491 
			38,139.246 33,139.158 33,151.061 31,151.146 31,144.11 30,144.197 30,95.377 25,95.638 25,93.379 16,93.552 16,96.159 12,95.638 
			12,138 8,138 8,151.061 6,151.146 6,158.009 2,157.923 2,162.178 0,162.266 0,192 		"/>
		<polyline fill="#545656" points="185.154,148.454 192,147.123 192,154.533 187.242,153.493 185.154,148.976 		"/>
		<rect x="123.525" y="118.397" fill="#545656" width="29.188" height="48.646"/>
		<rect x="155.84" y="103.108" fill="#545656" width="29.651" height="66.367"/>
		<rect x="161.053" y="93.727" fill="#545656" width="19.459" height="18.765"/>
		<rect x="130.821" y="111.101" fill="#545656" width="15.29" height="14.246"/>
	</g>
</g>
<g id="Layer_2">
	<g opacity="0.26">
		<g>
			<polygon fill="#545656" points="1418.575,97.141 1416.855,83.736 1416.148,96.572 			"/>
			<circle fill="#545656" cx="1417.053" cy="85.868" r="1.777"/>
			<g>
				<g>
					<g>
						<path fill="#545656" d="M1439,192v-29h-3v-14h-1v-2h-6v-22.932l-1-1.062V112h-1v-5.621l-1.673-0.885L1421,99.479V96h-9v3.303
							l-3.296,5.838l-1.704,0.354v5.131l-1,0.708v12.027l-4,0.355v26.534l-1-0.354v-44.225l-1-0.178v-4.068l-5-0.177v-6.192
							l-5-0.354V93h-2v1.349l-2,0.179v-1.594l-2.264-0.088l0.248,1.771L1382,94.703V91h-14v53.589l-2-0.175v-24.589l-3-0.709V115h-9
							v1.994l-6-0.178V118h-4v3.238l-1,0.176V126h-4V69h-13v41.625l-3-0.179v-4.067l-8,0.177v3.36l-5,0.179V116h-4v4.529l-2,0.09
							V118h-8v8h-3v-4.054l-2-0.442v-3.097l-2,0.09v2.032l-2-0.264v-8.933l-10,0.176v13.975l-1,0.088v-2.917l-4.692-3.096
							l-5.308,0.088v5.837l-1,0.088v6.282l-3-0.09v-4.156l-2,0.088v4.158l-3-0.178v-20.343l-28,0.265V153h-4v-34.593l-2.631,0.09
							l-5.369-3.272v-1.062l-2-0.09v1.505l-4,2.122v33.966l-2,0.088V148h-2.304l-1.593-74.943l4.953-5.894l-4.953-4.628
							l-1.593-56.977l-1.77,56.822l-5.394,4.486l5.572,5.029l-2.035,72.786l-2.831,0.353L1196.967,133h-2.301l0.354-15H1190v-2h-4v2
							h-4v30h-1v2h-2v-23.101l-1.633-0.529l-3.071-3.01l-3.028,2.302l-4.268-0.091v1.328l-4,0.265v18.842l-1,0.176V130h-10v20.959
							l-2.018,1.682c0,0-5.668-22.74-40.549-22.709c-26.918,0.025-36.83,18.068-36.83,18.068H1070v10h-2v-25h-13v4.515l-2,0.087
							v24.679l-5,0.089V123h-1v-10.254l-3.259-3.006l-8.741-0.09V124h-8v34h-3v-14.117l-2,0.088v-16.363l-1-0.09v-2.034l-1-0.088
							V127h-2v-3.64l-2-0.088v10.703l-6-0.177v-23.883l-2-0.176v-1.238l-4-0.178v1.592l-1,0.088v-5.747l-4,0.088v5.571l-5-0.266
							v29.278l-6-0.086v12.116l-2,0.088v-7.164l-1.985,0.088l0.292-49.709L980,94.527v-2.301l-9,0.177v2.653l-5-0.529V138h-4v12.959
							l-1,0.088v6.987l-5-0.089v4.335l-2,0.089V192H1439z"/>
						<ellipse fill="#545656" cx="1203.378" cy="67.461" rx="7.296" ry="5.307"/>
					</g>
					<rect x="1200" y="37" fill="#545656" width="5" height="1"/>
				</g>
				<rect x="1332" y="54" fill="#545656" width="1" height="15"/>
				<rect x="1333" y="61" fill="#545656" width="1" height="8"/>
				<rect x="1335" y="58" fill="#545656" width="2" height="12"/>
				<rect x="1338" y="64" fill="#545656" width="1" height="6"/>
			</g>
		</g>
		<polyline fill="#545656" points="1143.586,148.306 1151,146.948 1151,154.496 1145.708,153.435 1143.586,148.836 		"/>
	</g>
</g>
</svg>
