<?xml version="1.0" encoding="utf-8"?>
<!-- Generator: Adobe Illustrator 16.0.0, SVG Export Plug-In . SVG Version: 6.00 Build 0)  -->
<!DOCTYPE svg PUBLIC "-//W3C//DTD SVG 1.1//EN" "http://www.w3.org/Graphics/SVG/1.1/DTD/svg11.dtd">
<svg version="1.1" id="Layer_1" xmlns="http://www.w3.org/2000/svg" xmlns:xlink="http://www.w3.org/1999/xlink" x="0px" y="0px"
	 width="235px" height="226.5px" viewBox="0 0 235 226.5" enable-background="new 0 0 235 226.5" xml:space="preserve">
<circle fill="#C7E2E5" stroke="#416B6D" stroke-width="0.75" stroke-linecap="round" stroke-miterlimit="10" stroke-dasharray="5.5862" cx="117.416" cy="113.724" r="107.556"/>
<g>
	<path fill="#416B6D" d="M68.95,185.722c-0.306,0.153-0.917,0.096-0.917,0.096c-0.516,0.153-0.229-1.166-0.21-2.961
		c0.019-2.388-0.268-5.77-0.172-8.463c0.038-1.089-0.134-2.159-0.134-2.904c0-0.822,3.745-0.63,3.745-0.63
		c3.648-0.611,4.871,2.35,4.871,4.069c0,1.815-1.07,4.318-5.12,4.107l-1.7-0.095C68.587,179.322,69.6,185.397,68.95,185.722z
		 M69.026,177.698h1.013c2.044,0,5.196-0.076,5.196-2.751c0-2.827-3.516-3.343-5.407-2.751c0,0-0.649-0.019-0.783,0.249
		C68.549,173.419,68.568,177.603,69.026,177.698z M69.007,183.258c0,0-0.249,0.668-0.287,1.089c-0.058,0.63,0.134,1.032,0.325,1.089
		C69.294,185.512,69.332,182.646,69.007,183.258z"/>
	<path fill="#416B6D" d="M71.261,184.079c0,0.115-0.038,0.21-0.076,0.306c-0.115,0.268-0.363-0.707-0.096-0.783
		C71.166,183.735,71.261,183.888,71.261,184.079z M80.355,180.717c0.898-0.573,4.91-0.248,4.91-0.248
		c0.306-0.058,0.325-1.089-0.019-2.312c-0.058-0.172-0.134-0.956-0.21-1.108c-0.153-0.287-0.191-0.057-0.344-0.344
		c-0.287-0.554-0.535-1.051-1.051-1.108c-0.153-0.019-0.268-0.478-0.344-0.516c-0.458-0.248-0.86-0.21-1.471-0.21
		c-0.764,0-1.566,0.249-2.14,0.516c-0.458,0.21-0.267,0.21-0.344,0.325c-0.688,1.05-1.547,2.273-1.738,4.737
		c-0.039,0.554-0.115,1.089,0,1.528c0.783,2.809,2.197,4.05,4.222,4.05c1.815,0,3.649-2.655,3-2.636l-0.115-0.249
		c-0.497-0.153-2.541,2.35-2.999,2.159c-0.42-0.172-1.892-0.497-2.751-1.585c-0.172-0.21-0.058-0.229-0.268-0.458
		c-0.573-0.592,0.134-0.994,0.134-2.522C78.827,180.736,79.858,181.022,80.355,180.717z M82.686,179.571
		c-1.375,0.248-3.63,0.401-3.63,0.401c-0.516,0.02-0.229-2.617,1.166-3.419c0.439-0.249,1.146-0.764,1.872-0.611
		c0.592,0.134,1.624,0.458,1.815,1.185c0.057,0.21,0.268,0.076,0.229,0.592c-0.077,0.955,0.248,1.872,0,1.948
		C84.138,179.666,83.125,179.494,82.686,179.571z M84.176,180.182c-0.229-0.344,0.076-0.841,0.076-0.841
		C84.099,179.265,84.462,180.603,84.176,180.182z"/>
	<path fill="#416B6D" d="M90.595,182.322c0.019,0.057-0.249-0.096-0.401-0.096c-0.42,0.057,0.134,0.822-0.172,1.089
		c-0.401,0.363-0.821-0.21-1.395-0.134c-0.745,0.077-1.853,1.07-1.299,0.688c0.401-0.306,0.688-0.592,1.223-0.707
		c0.554-0.095,1.07,0.554,1.471,0.153c0.268-0.287-0.268-1.012,0.153-1.07C90.346,182.226,90.595,182.322,90.595,182.322z
		 M94.282,177.24c0.478-0.344-1.739-2.369-3.209-2.369c-1.738,0-2.847,1.949-2.847,3.764c0,3.782,5.368,1.184,5.368,3.84
		c0,1.204-0.859,2.827-1.948,2.827c-1.261,0-2.904-2.292-3.286-1.891l-0.611,0.019c-0.287,0.668,1.892,2.598,3.592,2.598
		c1.987,0,3.648-1.757,3.648-3.821c0-3.553-6.132-1.242-6.132-3.821c0-1.643,1.299-2.254,2.273-2.254
		c0.936,0,1.834,0.592,2.369,1.223c0.115,0.134,0.668,0.42,0.726-0.019L94.282,177.24z"/>
	<path fill="#416B6D" d="M94.912,175.024c-0.153,0.019-0.229-0.363-0.076-0.382C94.988,174.623,95.065,175.005,94.912,175.024z
		 M104.082,177.66c0.764,0.21-1.566-2.789-3.305-2.789c-2.35,0-4.222,1.624-4.222,5.578c0,3.955,1.872,5.579,4.222,5.579
		c1.701,0,4.318-2.617,3.401-2.885l-0.134-0.306c-0.344-0.42-1.605,2.331-2.885,2.388c-2.292,0-3.229-2.942-3.534-5.273
		c-0.229-1.776,0.859-3.821,3.152-3.821c1.185-0.038,1.853,2.063,2.407,1.892L104.082,177.66z M99.994,185.378
		c-0.229-0.344,0-0.458,0-0.458C102.668,185.722,100.28,185.799,99.994,185.378z M100.758,181.939
		c-0.019,0.096,0.019,0.21,0.077,0.268c0.134,0.134,0.401-0.497,0.191-0.497C100.892,181.71,100.777,181.806,100.758,181.939z
		 M102.936,177.698c-0.229-0.344,0-0.458,0-0.458C102.783,177.164,103.222,178.119,102.936,177.698z"/>
	<path fill="#416B6D" d="M112.544,185.646l-0.344-1.261c-1.089,0.306-1.815,1.643-3.057,1.643c-1.624,0-2.923-1.356-2.923-3.019
		c0-3.018,3.171-3.668,5.502-4.298l0.478-0.134v-0.592c0-1.204-0.287-2.006-2.044-1.853c-1.968,0.172-2.503,2.063-3.152,1.318
		l-0.172-0.401c-0.458-0.229,1.757-2.178,3.362-2.178c1.433,0,3.095,1.146,3.19,3.553l0.229,4.7c0.019,0.268,0.172,2.388-0.21,2.407
		L112.544,185.646z M107.081,185.034c0.114-0.267,0.152,0.611,0.152-0.229l-0.229-0.077
		C106.737,185.493,107.081,185.034,107.081,185.034z M112.105,179.666c0.134-0.955-4.872,1.299-4.872,3.19
		c0,0.879,1.07,1.758,1.968,1.758c1.185,0,3.152-1.166,3-1.72l-0.115-3.095L112.105,179.666z M107.883,176.82
		c0.688,0.019,1.49-0.478,1.146-0.917S107.329,176.801,107.883,176.82z M112.354,178.654c0,0-0.42,1.643-0.191,1.987
		C112.449,181.061,112.201,178.577,112.354,178.654z M112.544,184.729c0,0-0.21,0.115,0,0.459
		C113.251,186.372,112.392,184.652,112.544,184.729z"/>
	<path fill="#416B6D" d="M115.372,175.215c0.287-0.382,1.261-0.038,1.261-0.038l0.077-3.152c0,0,0.096-0.344,0.229-0.439
		c0.306-0.229,0.994,0.325,0.994,0.325s0.153,0.878,0.038,1.891c-0.057,0.573,0.153,1.375,0.153,1.375s2.121-0.688,2.369,0.191
		c0.038,0.134,0.057,0.382,0.057,0.382l-0.344,0.611l-2.083,0.076c0,0,0,0.458,0,0.764c0,0.172-0.268,0.401-0.268,0.592
		c0,0.134,0.268,0.879,0.268,1.013c0,2.197,0,4.26,0,4.26c0,1.031-0.114,2.98,0.822,2.159c0.306-0.268,1.165-1.681,1.452-1.013
		l0.268,0.21c0.63,0.401-1.127,1.605-1.643,1.605c-2.521,0-2.388-1.7-2.388-3.63v-5.96l-1.031-0.038
		C115.602,176.399,115.085,175.597,115.372,175.215z"/>
	<path fill="#416B6D" d="M127.885,185.646l-0.344-1.261c-1.089,0.306-1.815,1.643-3.057,1.643c-1.624,0-2.923-1.356-2.923-3.019
		c0-3.018,3.171-3.668,5.502-4.298l0.478-0.134v-0.592c0-1.204-0.287-2.006-2.044-1.853c-1.968,0.172-2.503,2.063-3.152,1.318
		l-0.172-0.401c-0.458-0.229,1.757-2.178,3.362-2.178c1.433,0,3.095,1.146,3.19,3.553l0.229,4.7c0.019,0.268,0.172,2.388-0.21,2.407
		L127.885,185.646z M122.422,185.034c0.114-0.267,0.152,0.611,0.152-0.229l-0.229-0.077
		C122.078,185.493,122.422,185.034,122.422,185.034z M127.446,179.666c0.134-0.955-4.872,1.299-4.872,3.19
		c0,0.879,1.07,1.758,1.968,1.758c1.185,0,3.152-1.166,3-1.72l-0.115-3.095L127.446,179.666z M123.224,176.82
		c0.688,0.019,1.49-0.478,1.146-0.917S122.67,176.801,123.224,176.82z M127.694,178.654c0,0-0.42,1.643-0.191,1.987
		C127.79,181.061,127.542,178.577,127.694,178.654z M127.885,184.729c0,0-0.21,0.115,0,0.459
		C128.592,186.372,127.732,184.652,127.885,184.729z"/>
	<path fill="#416B6D" d="M132.623,185.55c-0.287,0.038-0.306,0.134-0.841,0.115c0,0-0.573,0.019-0.382-0.956
		c0.401-2.044,0-7.221-0.038-9.112c0-0.439,0.897-0.42,0.897-0.42l0.535,0.191l0.057,2.083l0.019,0.057
		c0.439,0.21,1.681-2.674,2.98-2.483c0,0,0.344-0.019,0.497,0.077c0.287,0.191,0.019,0.516,0.038,0.936
		c0.134,0.458-0.878,0.363-1.318,0.649c-0.955,0.611-1.586,1.662-2.178,3.057c0,0-0.153,3.114-0.115,4.088
		c0,0.134-0.019,0.516,0.057,0.668c0.077,0.172,0.134,0.115,0.153,0.287c0.038,0.248-0.019,0.306-0.019,0.42
		C132.967,185.417,132.795,185.531,132.623,185.55z M131.668,183.926c0,0-0.478,1.471,0.057,1.471
		C131.916,185.397,131.916,183.965,131.668,183.926z M133.521,175.807c-0.039-0.42-0.803,0.057-1.07-0.249
		c-0.363-0.42,0.344-0.878,0.286-1.452c-0.057-0.535-0.325-0.84-0.592-1.28c-0.344-0.573,0.554,0.611,0.573,1.356
		c0.019,0.573-0.592,0.955-0.267,1.375c0.248,0.325,1.051-0.152,1.07,0.268c0,0.153-0.172,0.42-0.115,0.401
		C133.406,176.228,133.521,175.979,133.521,175.807z M132.661,184.595c0,0-0.153,0.344,0.21,0.497
		C133.062,185.168,132.757,184.328,132.661,184.595z M134.132,178.711c0,0-0.497,0.363,0.038,0.363
		C134.361,179.074,134.38,178.749,134.132,178.711z"/>
	<path fill="#416B6D" d="M139.367,172.407c0,0-0.325,0.325-0.573,0.325c-0.134,0-0.344-0.134-0.344-0.134s-0.478-0.382-0.516-0.726
		c-0.057-0.382,0.325-0.917,0.325-0.917s0.287-0.114,0.439-0.133c0.287-0.039,0.764,0.038,0.764,0.038s0.095,0.439,0.095,0.726
		C139.558,171.91,139.367,172.407,139.367,172.407z M139.558,185.722h-1.49c0,0,0.229-5.979-0.039-9.934
		c-0.019-0.21,0.039-0.611,0.039-0.611s0.611-0.115,0.917,0.038c0.115,0.058,0.287,0.249,0.287,0.249s0.191,0.134,0.095,1.662
		C139.176,180.182,139.558,185.722,139.558,185.722z"/>
	<path fill="#416B6D" d="M147.963,185.646l-0.344-1.261c-1.089,0.306-1.815,1.643-3.057,1.643c-1.624,0-2.923-1.356-2.923-3.019
		c0-3.018,3.171-3.668,5.502-4.298l0.478-0.134v-0.592c0-1.204-0.287-2.006-2.044-1.853c-1.968,0.172-2.503,2.063-3.152,1.318
		l-0.172-0.401c-0.458-0.229,1.757-2.178,3.362-2.178c1.433,0,3.095,1.146,3.19,3.553l0.229,4.7c0.019,0.268,0.172,2.388-0.21,2.407
		L147.963,185.646z M142.5,185.034c0.114-0.267,0.152,0.611,0.152-0.229l-0.229-0.077C142.156,185.493,142.5,185.034,142.5,185.034z
		 M147.524,179.666c0.134-0.955-4.872,1.299-4.872,3.19c0,0.879,1.07,1.758,1.968,1.758c1.185,0,3.152-1.166,3-1.72l-0.115-3.095
		L147.524,179.666z M143.302,176.82c0.688,0.019,1.49-0.478,1.146-0.917S142.748,176.801,143.302,176.82z M147.772,178.654
		c0,0-0.42,1.643-0.191,1.987C147.868,181.061,147.62,178.577,147.772,178.654z M147.963,184.729c0,0-0.21,0.115,0,0.459
		C148.67,186.372,147.811,184.652,147.963,184.729z"/>
	<path fill="#416B6D" d="M152.739,185.34c0,0-0.172,0.554-0.439,0.573c-0.306,0.019-0.573-0.573-0.573-0.573l-0.286-10.354
		c0,0,0.897-0.21,1.146,0.134c0.115,0.172,0.153,0.535,0.153,0.535l0.191,0.611c0.879-0.707,1.7-1.395,2.904-1.395
		c1.49,0,2.847,0.821,2.694,3.572c0,0,0.573,4.184-0.401,6.515c-0.076,0.21-0.267,0.573-0.267,0.573l-0.631,0.095
		c0,0-0.439,0.115-0.382-0.287c0.096-0.84,0.535-2.827,0.516-3.916c-0.019-0.936-0.229-2.407-0.229-2.407
		c-0.096-1.07,0-2.331-1.49-2.923c-1.681-0.668-2.121,0.898-2.713,1.604L152.739,185.34z"/>
	<path fill="#416B6D" d="M163.763,182.322c0.019,0.057-0.249-0.096-0.401-0.096c-0.42,0.057,0.134,0.822-0.172,1.089
		c-0.401,0.363-0.821-0.21-1.395-0.134c-0.745,0.077-1.853,1.07-1.299,0.688c0.401-0.306,0.688-0.592,1.223-0.707
		c0.554-0.095,1.07,0.554,1.471,0.153c0.268-0.287-0.268-1.012,0.153-1.07C163.514,182.226,163.763,182.322,163.763,182.322z
		 M167.45,177.24c0.478-0.344-1.739-2.369-3.209-2.369c-1.738,0-2.847,1.949-2.847,3.764c0,3.782,5.368,1.184,5.368,3.84
		c0,1.204-0.859,2.827-1.948,2.827c-1.261,0-2.904-2.292-3.286-1.891l-0.611,0.019c-0.287,0.668,1.892,2.598,3.592,2.598
		c1.987,0,3.648-1.757,3.648-3.821c0-3.553-6.132-1.242-6.132-3.821c0-1.643,1.299-2.254,2.273-2.254
		c0.936,0,1.834,0.592,2.369,1.223c0.115,0.134,0.668,0.42,0.726-0.019L167.45,177.24z"/>
</g>
<path fill="#E8710F" stroke="#492D08" stroke-width="0.75" stroke-linecap="round" stroke-miterlimit="10" d="M25.753,147.926
	c-2.218-3.08,71.326-111.862,105.108-79.443C174.37,110.235,30.083,153.941,25.753,147.926z"/>
<path fill="#77B65F" stroke="#492D08" stroke-width="0.75" stroke-linecap="round" stroke-miterlimit="10" d="M140.677,81.302
	c0,0,0.316-4.413-3.024-9.954c-3.341-5.541-8.681-7.307-8.681-7.307s20.658-0.69,30.418-8.038
	c9.761-7.348,11.406-21.807,11.406-21.807s2.006,8.969-3.291,19.16c-5.295,10.192-17.932,13.559-17.932,13.559
	s11.229,2.626,16.645-1.057c5.417-3.683,9.284-17.748,9.284-17.748s-4.706,21.208-10.848,24.844
	c-6.141,3.638-15.699,0.376-15.699,0.376s3.398,3.275,7.611,6.017c4.212,2.742,3.96,7.723,3.96,7.723s-5.662-6.581-9.94-6.336
	C146.306,80.98,140.677,81.302,140.677,81.302z"/>
<path fill="none" stroke="#492D08" stroke-width="0.75" stroke-linecap="round" stroke-miterlimit="10" stroke-dasharray="3.3518" d="
	M32.146,143.417c-1.833-2.546,65.449-99.715,95.658-72.274C167.086,106.826,35.724,148.385,32.146,143.417z"/>
<path fill="#F98216" stroke="#492D08" stroke-width="0.75" stroke-linecap="round" stroke-miterlimit="10" d="M39.874,150.185
	c-1.418-3.52,95.98-91.588,121.042-52.04C193.189,149.083,42.641,157.06,39.874,150.185z"/>
<path fill="#73D100" stroke="#492D08" stroke-width="0.75" stroke-linecap="round" stroke-miterlimit="10" d="M167.384,112.938
	c0,0,1.362-4.21-0.559-10.389c-1.921-6.178-6.686-9.167-6.686-9.167s20.226,4.263,31.458-0.54
	c11.232-4.804,16.284-18.451,16.284-18.451s-0.194,9.188-7.771,17.819c-7.576,8.633-20.651,8.883-20.651,8.883
	s10.275,5.231,16.415,2.95c6.14-2.284,13.254-15.017,13.254-15.017s-9.635,19.469-16.467,21.533
	c-6.832,2.065-15.336-3.385-15.336-3.385s2.519,3.994,5.953,7.662c3.437,3.668,2.001,8.445,2.001,8.445s-3.926-7.744-8.139-8.527
	C172.926,113.97,167.384,112.938,167.384,112.938z"/>
<path fill="none" stroke="#492D08" stroke-width="0.75" stroke-linecap="round" stroke-miterlimit="10" stroke-dasharray="3.3518" d="
	M47.158,147.333c-1.172-2.911,87.372-81.197,110.152-47.334C186.932,144.032,49.445,153.012,47.158,147.333z"/>
</svg>
