<?xml version="1.0" encoding="utf-8"?>
<!-- Generator: Adobe Illustrator 16.0.0, SVG Export Plug-In . SVG Version: 6.00 Build 0)  -->
<!DOCTYPE svg PUBLIC "-//W3C//DTD SVG 1.1//EN" "http://www.w3.org/Graphics/SVG/1.1/DTD/svg11.dtd">
<svg version="1.1" id="Layer_1" xmlns="http://www.w3.org/2000/svg" xmlns:xlink="http://www.w3.org/1999/xlink" x="0px" y="0px"
	 width="162.209px" height="110.464px" viewBox="0 0 162.209 110.464" enable-background="new 0 0 162.209 110.464"
	 xml:space="preserve">
<text transform="matrix(1 0 0 1 -199.4092 -54.0874)" fill="#416B6D" font-family="'DeGenerate'" font-size="20">Helping your </text>
<text transform="matrix(1 0 0 1 -351.2363 16.0469)" fill="#416B6D" font-family="'DeGenerate'" font-size="20">Local Vegetarianism and the Planet</text>
<g>
	<path fill="none" stroke="#416B6D" stroke-linecap="round" stroke-miterlimit="10" d="M-198.169,130.824
		c4.171,3.117,5.024,9.025,1.907,13.195c-2.182,2.92-6.317,3.518-9.236,1.335c-2.044-1.526-2.462-4.422-0.935-6.466
		c1.069-1.43,3.095-1.723,4.525-0.654c1.002,0.748,1.207,2.168,0.458,3.169c-0.523,0.701-1.517,0.845-2.218,0.32
		c-0.49-0.366-0.591-1.062-0.224-1.552c0.256-0.344,0.743-0.414,1.086-0.158c0.241,0.181,0.29,0.521,0.11,0.762"/>
	<path fill="#DBF7FC" stroke="#416B6D" stroke-linecap="round" stroke-miterlimit="10" d="M-215.731,131.832
		c0,0,14.595-11.281,32.827-9.322c10.134,1.144,20.564,5.773,15.479,16.746c-5.087,10.972-19.654-2.34-27.667-6.674
		C-203.105,128.246-215.731,131.832-215.731,131.832z"/>
	<path fill="none" stroke="#416B6D" stroke-linecap="round" stroke-miterlimit="10" d="M-226.789,155.681
		c-3.608-9.568,1.424-20.309,11.251-24.016"/>
	<path fill="none" stroke="#416B6D" stroke-linecap="round" stroke-miterlimit="10" d="M-177.116,131.542
		c-0.378-4.439-12.672-7.01-27.485-5.748"/>
	<path fill="none" stroke="#416B6D" stroke-linecap="round" stroke-miterlimit="10" d="M-181.226,136.302
		c0.092-4.453-11.861-8.305-26.727-8.609"/>
	<circle fill="#73D100" stroke="#416B6D" stroke-linecap="round" stroke-miterlimit="10" cx="-188.28" cy="144.796" r="3"/>
	<circle fill="#73D100" stroke="#416B6D" stroke-linecap="round" stroke-miterlimit="10" cx="-181" cy="146.309" r="1.875"/>
	<circle fill="#73D100" stroke="#416B6D" stroke-linecap="round" stroke-miterlimit="10" cx="-173.991" cy="147.593" r="1.75"/>
	<circle fill="#73D100" stroke="#416B6D" stroke-linecap="round" stroke-miterlimit="10" cx="-168.119" cy="145.837" r="1.25"/>
	<circle fill="#73D100" stroke="#416B6D" stroke-linecap="round" stroke-miterlimit="10" cx="-163.507" cy="140.708" r="1.969"/>
	<circle fill="#73D100" stroke="#416B6D" stroke-linecap="round" stroke-miterlimit="10" cx="-156.527" cy="137.571" r="1.502"/>
	<circle fill="#73D100" stroke="#416B6D" stroke-linecap="round" stroke-miterlimit="10" cx="-151.761" cy="133.164" r="1.625"/>
</g>
<g>
	<g>
		<path fill="none" stroke="#416B6D" stroke-width="0.4345" stroke-linecap="round" stroke-miterlimit="10" d="M51.582,73.685
			c-1.986,2.271-1.756,5.721,0.515,7.707c1.588,1.391,4.003,1.229,5.395-0.359c0.973-1.113,0.858-2.805-0.253-3.777
			c-0.778-0.68-1.962-0.603-2.644,0.177c-0.477,0.545-0.421,1.374,0.124,1.851c0.382,0.334,0.962,0.295,1.296-0.087
			c0.233-0.267,0.206-0.672-0.061-0.905c-0.188-0.164-0.472-0.146-0.636,0.043c-0.113,0.131-0.101,0.328,0.029,0.442"/>
		<path fill="#DBF7FC" stroke="#416B6D" stroke-width="0.4345" stroke-linecap="round" stroke-miterlimit="10" d="M61.651,72.132
			c0,0-9.631-4.625-19.723-1.312c-5.603,1.872-10.953,5.756-6.746,11.357c4.208,5.601,10.853-3.701,14.868-7.125
			C54.064,71.626,61.651,72.132,61.651,72.132z"/>
		<path fill="none" stroke="#416B6D" stroke-width="0.4345" stroke-linecap="round" stroke-miterlimit="10" d="M70.798,84.307
			c0.888-5.854-3.26-11.333-9.276-12.243"/>
		<path fill="none" stroke="#416B6D" stroke-width="0.4345" stroke-linecap="round" stroke-miterlimit="10" d="M39.741,76.636
			c-0.322-2.561,6.33-5.502,14.877-6.576"/>
		<path fill="none" stroke="#416B6D" stroke-width="0.4345" stroke-linecap="round" stroke-miterlimit="10" d="M42.645,78.837
			c-0.59-2.514,5.716-6.141,14.102-8.108"/>
		
			<circle fill="#73D100" stroke="#416B6D" stroke-width="0.4345" stroke-linecap="round" stroke-miterlimit="10" cx="47.668" cy="82.795" r="1.738"/>
		
			<circle fill="#73D100" stroke="#416B6D" stroke-width="0.4345" stroke-linecap="round" stroke-miterlimit="10" cx="43.726" cy="84.532" r="1.086"/>
		
			<circle fill="#73D100" stroke="#416B6D" stroke-width="0.4345" stroke-linecap="round" stroke-miterlimit="10" cx="39.911" cy="86.107" r="1.014"/>
		
			<circle fill="#73D100" stroke="#416B6D" stroke-width="0.4345" stroke-linecap="round" stroke-miterlimit="10" cx="36.372" cy="85.822" r="0.724"/>
		
			<circle fill="#73D100" stroke="#416B6D" stroke-width="0.4345" stroke-linecap="round" stroke-miterlimit="10" cx="33.139" cy="83.475" r="1.142"/>
		
			<circle fill="#73D100" stroke="#416B6D" stroke-width="0.4345" stroke-linecap="round" stroke-miterlimit="10" cx="28.806" cy="82.54" r="0.87"/>
		
			<circle fill="#73D100" stroke="#416B6D" stroke-width="0.4345" stroke-linecap="round" stroke-miterlimit="10" cx="25.573" cy="80.619" r="0.941"/>
	</g>
	<g>
		<path fill="none" stroke="#416B6D" stroke-width="0.3515" stroke-linecap="round" stroke-miterlimit="10" d="M115.124,72.942
			c1.896,1.533,2.191,4.315,0.656,6.214c-1.074,1.326-3.021,1.533-4.35,0.459c-0.932-0.752-1.072-2.115-0.32-3.045
			c0.525-0.65,1.479-0.751,2.129-0.225c0.457,0.367,0.527,1.035,0.16,1.49c-0.26,0.32-0.729,0.369-1.045,0.11
			c-0.225-0.18-0.258-0.507-0.078-0.729c0.127-0.156,0.354-0.182,0.512-0.055c0.109,0.088,0.127,0.248,0.039,0.357"/>
		<path fill="#DBF7FC" stroke="#416B6D" stroke-width="0.3515" stroke-linecap="round" stroke-miterlimit="10" d="M106.88,73.098
			c0,0,7.037-5.021,15.539-3.778c4.727,0.717,9.527,3.071,6.949,8.117c-2.578,5.049-9.162-1.445-12.838-3.618
			C112.858,71.646,106.88,73.098,106.88,73.098z"/>
		<path fill="none" stroke="#416B6D" stroke-width="0.3515" stroke-linecap="round" stroke-miterlimit="10" d="M101.276,84.071
			c-1.52-4.546,1.029-9.485,5.699-11.046"/>
		<path fill="none" stroke="#416B6D" stroke-width="0.3515" stroke-linecap="round" stroke-miterlimit="10" d="M124.97,73.654
			c-0.098-2.087-5.811-3.51-12.77-3.183"/>
		<path fill="none" stroke="#416B6D" stroke-width="0.3515" stroke-linecap="round" stroke-miterlimit="10" d="M122.96,75.809
			c0.121-2.084-5.406-4.103-12.361-4.511"/>
		
			<circle fill="#73D100" stroke="#416B6D" stroke-width="0.3515" stroke-linecap="round" stroke-miterlimit="10" cx="119.505" cy="79.661" r="1.406"/>
		
			<circle fill="#73D100" stroke="#416B6D" stroke-width="0.3515" stroke-linecap="round" stroke-miterlimit="10" cx="122.888" cy="80.5" r="0.879"/>
		
			<circle fill="#73D100" stroke="#416B6D" stroke-width="0.3515" stroke-linecap="round" stroke-miterlimit="10" cx="126.146" cy="81.226" r="0.82"/>
		
			<circle fill="#73D100" stroke="#416B6D" stroke-width="0.3515" stroke-linecap="round" stroke-miterlimit="10" cx="128.929" cy="80.509" r="0.586"/>
		
			<circle fill="#73D100" stroke="#416B6D" stroke-width="0.3515" stroke-linecap="round" stroke-miterlimit="10" cx="131.181" cy="78.19" r="0.923"/>
		
			<circle fill="#73D100" stroke="#416B6D" stroke-width="0.3515" stroke-linecap="round" stroke-miterlimit="10" cx="134.503" cy="76.844" r="0.704"/>
		
			<circle fill="#73D100" stroke="#416B6D" stroke-width="0.3515" stroke-linecap="round" stroke-miterlimit="10" cx="136.815" cy="74.865" r="0.763"/>
	</g>
	<g>
		<g>
			
				<ellipse transform="matrix(0.0096 -1 1 0.0096 -24.0991 154.2653)" fill="#73D100" stroke="#416B6D" stroke-width="0.2373" stroke-miterlimit="10" cx="65.83" cy="89.299" rx="0.862" ry="0.87"/>
			
				<ellipse transform="matrix(0.0102 -0.9999 0.9999 0.0102 -23.86 151.6231)" fill="#73D100" stroke="#416B6D" stroke-width="0.2373" stroke-miterlimit="10" cx="64.658" cy="87.864" rx="0.862" ry="0.87"/>
			
				<ellipse transform="matrix(0.0096 -1 1 0.0096 -22.1429 150.0588)" fill="#73D100" stroke="#416B6D" stroke-width="0.2373" stroke-miterlimit="10" cx="64.684" cy="86.208" rx="0.862" ry="0.87"/>
			
				<ellipse transform="matrix(0.0096 -1 1 0.0096 -19.5352 149.39)" fill="#73D100" stroke="#416B6D" stroke-width="0.2373" stroke-miterlimit="10" cx="65.65" cy="84.557" rx="0.862" ry="0.871"/>
			
				<ellipse transform="matrix(0.0102 -0.9999 0.9999 0.0102 -17.4192 147.2343)" fill="#73D100" stroke="#416B6D" stroke-width="0.2373" stroke-miterlimit="10" cx="65.662" cy="82.416" rx="0.862" ry="0.87"/>
			
				<ellipse transform="matrix(0.0102 -0.9999 0.9999 0.0102 -16.4405 144.887)" fill="#73D100" stroke="#416B6D" stroke-width="0.2373" stroke-miterlimit="10" cx="64.966" cy="80.748" rx="0.862" ry="0.87"/>
			
				<ellipse transform="matrix(0.0096 -1 1 0.0096 -14.7262 143.3051)" fill="#73D100" stroke="#416B6D" stroke-width="0.2373" stroke-miterlimit="10" cx="64.983" cy="79.087" rx="0.862" ry="0.87"/>
			
				<ellipse transform="matrix(0.0096 -1 1 0.0096 -12.5859 142.6439)" fill="#73D100" stroke="#416B6D" stroke-width="0.2373" stroke-miterlimit="10" cx="65.719" cy="77.676" rx="0.862" ry="0.87"/>
			
				<ellipse transform="matrix(0.0102 -0.9999 0.9999 0.0102 -10.0288 142.3869)" fill="#73D100" stroke="#416B6D" stroke-width="0.2373" stroke-miterlimit="10" cx="66.909" cy="76.259" rx="0.861" ry="0.87"/>
			
				<ellipse transform="matrix(0.0102 -0.9999 0.9999 0.0102 -8.5818 140.5208)" fill="#73D100" stroke="#416B6D" stroke-width="0.2373" stroke-miterlimit="10" cx="66.688" cy="74.595" rx="0.863" ry="0.87"/>
			
				<ellipse transform="matrix(0.0102 -0.9999 0.9999 0.0102 -5.7443 140.0923)" fill="#73D100" stroke="#416B6D" stroke-width="0.2373" stroke-miterlimit="10" cx="67.892" cy="72.948" rx="0.862" ry="0.869"/>
			
				<ellipse transform="matrix(0.0102 -0.9999 0.9999 0.0102 -3.1442 139.8958)" fill="#73D100" stroke="#416B6D" stroke-width="0.2373" stroke-miterlimit="10" cx="69.093" cy="71.536" rx="0.862" ry="0.87"/>
			
				<ellipse transform="matrix(0.0108 -0.9999 0.9999 0.0108 -1.0592 139.652)" fill="#73D100" stroke="#416B6D" stroke-width="0.2373" stroke-miterlimit="10" cx="70.051" cy="70.361" rx="0.863" ry="0.87"/>
			
				<ellipse transform="matrix(0.0102 -0.9999 0.9999 0.0102 1.5918 139.0231)" fill="#73D100" stroke="#416B6D" stroke-width="0.2373" stroke-miterlimit="10" cx="71.02" cy="68.708" rx="0.862" ry="0.87"/>
			
				<ellipse transform="matrix(0.0102 -0.9999 0.9999 0.0102 3.7176 138.8192)" fill="#73D100" stroke="#416B6D" stroke-width="0.2373" stroke-miterlimit="10" cx="71.979" cy="67.532" rx="0.862" ry="0.87"/>
			
				<ellipse transform="matrix(0.0096 -1 1 0.0096 5.3929 140.5486)" fill="#73D100" stroke="#416B6D" stroke-width="0.2373" stroke-miterlimit="10" cx="73.651" cy="67.552" rx="0.862" ry="0.87"/>
			
				<ellipse transform="matrix(0.0102 -0.9999 0.9999 0.0102 7.9444 140.2983)" fill="#73D100" stroke="#416B6D" stroke-width="0.2373" stroke-miterlimit="10" cx="74.841" cy="66.136" rx="0.861" ry="0.871"/>
			
				<ellipse transform="matrix(0.0096 -1 1 0.0096 9.6709 138.7214)" fill="#73D100" stroke="#416B6D" stroke-width="0.2373" stroke-miterlimit="10" cx="74.867" cy="64.479" rx="0.863" ry="0.871"/>
			
				<ellipse transform="matrix(0.0096 -1 1 0.0096 12.02 139.7015)" fill="#73D100" stroke="#416B6D" stroke-width="0.2373" stroke-miterlimit="10" cx="76.536" cy="63.783" rx="0.863" ry="0.871"/>
			
				<ellipse transform="matrix(0.0102 -0.9999 0.9999 0.0102 14.075 140.8647)" fill="#73D100" stroke="#416B6D" stroke-width="0.2373" stroke-miterlimit="10" cx="78.191" cy="63.323" rx="0.862" ry="0.87"/>
			
				<ellipse transform="matrix(0.0096 -1 1 0.0096 15.7461 142.5773)" fill="#73D100" stroke="#416B6D" stroke-width="0.2373" stroke-miterlimit="10" cx="79.852" cy="63.339" rx="0.861" ry="0.87"/>
			
				<ellipse transform="matrix(0.0096 -1 1 0.0096 -24.0991 154.2653)" fill="#73D100" stroke="#416B6D" stroke-width="0.2373" stroke-miterlimit="10" cx="65.83" cy="89.299" rx="0.862" ry="0.87"/>
			
				<ellipse transform="matrix(0.0096 -1 1 0.0096 -24.0991 154.2653)" fill="#73D100" stroke="#416B6D" stroke-width="0.2373" stroke-miterlimit="10" cx="65.83" cy="89.299" rx="0.862" ry="0.87"/>
			
				<ellipse transform="matrix(0.0102 -0.9999 0.9999 0.0102 18.0387 143.9923)" fill="#73D100" stroke="#416B6D" stroke-width="0.2373" stroke-miterlimit="10" cx="81.754" cy="62.884" rx="0.861" ry="0.87"/>
			
				<ellipse transform="matrix(0.0102 -0.9999 0.9999 0.0102 19.6759 145.6832)" fill="#73D100" stroke="#416B6D" stroke-width="0.2373" stroke-miterlimit="10" cx="83.426" cy="62.903" rx="0.862" ry="0.87"/>
			
				<ellipse transform="matrix(0.0102 -0.9999 0.9999 0.0102 20.337 148.2768)" fill="#73D100" stroke="#416B6D" stroke-width="0.2373" stroke-miterlimit="10" cx="85.066" cy="63.866" rx="0.862" ry="0.87"/>
			
				<ellipse transform="matrix(0.0102 -0.9999 0.9999 0.0102 20.3017 150.6356)" fill="#73D100" stroke="#416B6D" stroke-width="0.2373" stroke-miterlimit="10" cx="86.24" cy="65.063" rx="0.862" ry="0.87"/>
			
				<ellipse transform="matrix(0.0102 -0.9999 0.9999 0.0102 19.7952 152.9918)" fill="#73D100" stroke="#416B6D" stroke-width="0.2373" stroke-miterlimit="10" cx="87.176" cy="66.497" rx="0.864" ry="0.872"/>
			
				<ellipse transform="matrix(0.0102 -0.9999 0.9999 0.0102 21.6759 153.9771)" fill="#73D100" stroke="#416B6D" stroke-width="0.2373" stroke-miterlimit="10" cx="88.615" cy="66.04" rx="0.862" ry="0.87"/>
			
				<ellipse transform="matrix(0.0102 -0.9999 0.9999 0.0102 24.0295 154.4826)" fill="#73D100" stroke="#416B6D" stroke-width="0.2373" stroke-miterlimit="10" cx="90.047" cy="65.104" rx="0.863" ry="0.872"/>
			
				<ellipse transform="matrix(0.0102 -0.9999 0.9999 0.0102 25.4023 156.3823)" fill="#73D100" stroke="#416B6D" stroke-width="0.2373" stroke-miterlimit="10" cx="91.693" cy="65.36" rx="0.862" ry="0.87"/>
			
				<ellipse transform="matrix(0.0102 -0.9999 0.9999 0.0102 26.0729 158.9861)" fill="#73D100" stroke="#416B6D" stroke-width="0.2373" stroke-miterlimit="10" cx="93.346" cy="66.323" rx="0.86" ry="0.87"/>
			
				<ellipse transform="matrix(0.0102 -0.9999 0.9999 0.0102 25.5683 161.3385)" fill="#73D100" stroke="#416B6D" stroke-width="0.2373" stroke-miterlimit="10" cx="94.281" cy="67.754" rx="0.861" ry="0.87"/>
			
				<ellipse transform="matrix(0.0091 -1 1 0.0091 25.1621 163.7889)" fill="#73D100" stroke="#416B6D" stroke-width="0.2373" stroke-miterlimit="10" cx="95.222" cy="69.199" rx="0.861" ry="0.869"/>
			
				<ellipse transform="matrix(0.0102 -0.9999 0.9999 0.0102 25.4965 166.0601)" fill="#73D100" stroke="#416B6D" stroke-width="0.2373" stroke-miterlimit="10" cx="96.631" cy="70.151" rx="0.86" ry="0.87"/>
			
				<ellipse transform="matrix(0.0102 -0.9999 0.9999 0.0102 26.1815 168.2085)" fill="#73D100" stroke="#416B6D" stroke-width="0.2373" stroke-miterlimit="10" cx="98.057" cy="70.879" rx="0.862" ry="0.87"/>
			
				<ellipse transform="matrix(0.0102 -0.9999 0.9999 0.0102 26.6087 170.562)" fill="#73D100" stroke="#416B6D" stroke-width="0.2373" stroke-miterlimit="10" cx="99.459" cy="71.84" rx="0.862" ry="0.872"/>
			
				<ellipse transform="matrix(0.0102 -0.9999 0.9999 0.0102 25.168 172.4279)" fill="#73D100" stroke="#416B6D" stroke-width="0.2373" stroke-miterlimit="10" cx="99.682" cy="73.501" rx="0.862" ry="0.868"/>
			
				<ellipse transform="matrix(0.0102 -0.9999 0.9999 0.0102 23.4895 174.0545)" fill="#73D100" stroke="#416B6D" stroke-width="0.2373" stroke-miterlimit="10" cx="99.664" cy="75.162" rx="0.862" ry="0.868"/>
			
				<ellipse transform="matrix(0.0102 -0.9999 0.9999 0.0102 21.3368 175.6768)" fill="#73D100" stroke="#416B6D" stroke-width="0.2373" stroke-miterlimit="10" cx="99.408" cy="77.061" rx="0.861" ry="0.87"/>
			
				<ellipse transform="matrix(0.009 -1 1 0.009 19.0767 176.2218)" fill="#73D100" stroke="#416B6D" stroke-width="0.2373" stroke-miterlimit="10" cx="98.45" cy="78.486" rx="0.863" ry="0.869"/>
			
				<ellipse transform="matrix(0.0102 -0.9999 0.9999 0.0102 19.8715 178.961)" fill="#73D100" stroke="#416B6D" stroke-width="0.2373" stroke-miterlimit="10" cx="100.334" cy="79.443" rx="0.861" ry="0.87"/>
			
				<ellipse transform="matrix(0.0102 -0.9999 0.9999 0.0102 20.7911 181.35)" fill="#73D100" stroke="#416B6D" stroke-width="0.2373" stroke-miterlimit="10" cx="102" cy="80.173" rx="0.862" ry="0.87"/>
			
				<ellipse transform="matrix(0.0102 -0.9999 0.9999 0.0102 20.511 183.453)" fill="#73D100" stroke="#416B6D" stroke-width="0.2373" stroke-miterlimit="10" cx="102.924" cy="81.366" rx="0.86" ry="0.87"/>
			
				<ellipse transform="matrix(0.0091 -1 1 0.0091 19.4078 186.1277)" fill="#73D100" stroke="#416B6D" stroke-width="0.2373" stroke-miterlimit="10" cx="103.616" cy="83.271" rx="0.861" ry="0.871"/>
			
				<ellipse transform="matrix(0.0102 -0.9999 0.9999 0.0102 17.3862 187.4225)" fill="#73D100" stroke="#416B6D" stroke-width="0.2373" stroke-miterlimit="10" cx="103.363" cy="84.929" rx="0.863" ry="0.87"/>
			
				<ellipse transform="matrix(0.0102 -0.9999 0.9999 0.0102 14.7744 188.0873)" fill="#73D100" stroke="#416B6D" stroke-width="0.2373" stroke-miterlimit="10" cx="102.396" cy="86.581" rx="0.86" ry="0.87"/>
			
				<ellipse transform="matrix(0.0091 -1 1 0.0091 13.2249 189.8355)" fill="#73D100" stroke="#416B6D" stroke-width="0.2373" stroke-miterlimit="10" cx="102.394" cy="88.245" rx="0.863" ry="0.871"/>
			
				<ellipse transform="matrix(0.0091 -1 1 0.0091 11.5288 191.4659)" fill="#73D100" stroke="#416B6D" stroke-width="0.2373" stroke-miterlimit="10" cx="102.37" cy="89.916" rx="0.861" ry="0.869"/>
			
				<ellipse transform="matrix(0.0102 -0.9999 0.9999 0.0102 9.7376 192.9896)" fill="#73D100" stroke="#416B6D" stroke-width="0.2373" stroke-miterlimit="10" cx="102.352" cy="91.576" rx="0.863" ry="0.87"/>
			
				<ellipse transform="matrix(0.0102 -0.9999 0.9999 0.0102 6.9071 193.4007)" fill="#73D100" stroke="#416B6D" stroke-width="0.2373" stroke-miterlimit="10" cx="101.145" cy="93.211" rx="0.862" ry="0.87"/>
			
				<ellipse transform="matrix(0.009 -1 1 0.009 4.9214 192.3128)" fill="#73D100" stroke="#416B6D" stroke-width="0.2373" stroke-miterlimit="10" cx="99.491" cy="93.673" rx="0.863" ry="0.871"/>
			
				<ellipse transform="matrix(0.0102 -0.9999 0.9999 0.0102 3.6519 190.0457)" fill="#73D100" stroke="#416B6D" stroke-width="0.2373" stroke-miterlimit="10" cx="97.822" cy="93.178" rx="0.862" ry="0.87"/>
			
				<ellipse transform="matrix(0.0102 -0.9999 0.9999 0.0102 2.4247 193.096)" fill="#73D100" stroke="#416B6D" stroke-width="0.2373" stroke-miterlimit="10" cx="98.75" cy="95.323" rx="0.862" ry="0.87"/>
			
				<ellipse transform="matrix(0.0102 -0.9999 0.9999 0.0102 0.2843 194.2452)" fill="#73D100" stroke="#416B6D" stroke-width="0.2373" stroke-miterlimit="10" cx="98.26" cy="96.979" rx="0.862" ry="0.87"/>
			
				<ellipse transform="matrix(0.0102 -0.9999 0.9999 0.0102 -2.324 194.912)" fill="#73D100" stroke="#416B6D" stroke-width="0.2373" stroke-miterlimit="10" cx="97.293" cy="98.63" rx="0.862" ry="0.87"/>
			
				<ellipse transform="matrix(0.0102 -0.9999 0.9999 0.0102 -4.6723 193.9321)" fill="#73D100" stroke="#416B6D" stroke-width="0.2373" stroke-miterlimit="10" cx="95.625" cy="99.326" rx="0.861" ry="0.87"/>
			
				<ellipse transform="matrix(0.0102 -0.9999 0.9999 0.0102 -7.264 193.6556)" fill="#73D100" stroke="#416B6D" stroke-width="0.2373" stroke-miterlimit="10" cx="94.189" cy="100.497" rx="0.861" ry="0.87"/>
			
				<ellipse transform="matrix(0.0102 -0.9999 0.9999 0.0102 -9.631 194.0945)" fill="#73D100" stroke="#416B6D" stroke-width="0.2373" stroke-miterlimit="10" cx="93.227" cy="101.912" rx="0.862" ry="0.87"/>
			
				<ellipse transform="matrix(0.0102 -0.9999 0.9999 0.0102 -11.9816 193.586)" fill="#73D100" stroke="#416B6D" stroke-width="0.2373" stroke-miterlimit="10" cx="91.795" cy="102.845" rx="0.861" ry="0.87"/>
			
				<ellipse transform="matrix(0.0102 -0.9999 0.9999 0.0102 -13.8634 192.6167)" fill="#73D100" stroke="#416B6D" stroke-width="0.2373" stroke-miterlimit="10" cx="90.363" cy="103.311" rx="0.862" ry="0.87"/>
			
				<ellipse transform="matrix(0.0102 -0.9999 0.9999 0.0102 -15.4851 190.9353)" fill="#73D100" stroke="#416B6D" stroke-width="0.2373" stroke-miterlimit="10" cx="88.703" cy="103.29" rx="0.862" ry="0.872"/>
			
				<ellipse transform="matrix(0.0102 -0.9999 0.9999 0.0102 -18.0905 191.6058)" fill="#73D100" stroke="#416B6D" stroke-width="0.2373" stroke-miterlimit="10" cx="87.74" cy="104.941" rx="0.861" ry="0.87"/>
			
				<ellipse transform="matrix(0.0113 -0.9999 0.9999 0.0113 -21.0247 191.4427)" fill="#73D100" stroke="#416B6D" stroke-width="0.2373" stroke-miterlimit="10" cx="86.3" cy="106.354" rx="0.862" ry="0.869"/>
			
				<ellipse transform="matrix(0.0091 -1 1 0.0091 -22.4671 190.0247)" fill="#73D100" stroke="#416B6D" stroke-width="0.2373" stroke-miterlimit="10" cx="84.644" cy="106.348" rx="0.862" ry="0.869"/>
			
				<ellipse transform="matrix(0.0102 -0.9999 0.9999 0.0102 -23.6925 187.7639)" fill="#73D100" stroke="#416B6D" stroke-width="0.2373" stroke-miterlimit="10" cx="82.998" cy="105.85" rx="0.862" ry="0.87"/>
			
				<ellipse transform="matrix(0.0108 -0.9999 0.9999 0.0108 -24.4197 185.0778)" fill="#73D100" stroke="#416B6D" stroke-width="0.2373" stroke-miterlimit="10" cx="81.331" cy="104.881" rx="0.862" ry="0.87"/>
			
				<ellipse transform="matrix(0.0096 -1 1 0.0096 -26.1741 183.2986)" fill="#73D100" stroke="#416B6D" stroke-width="0.2373" stroke-miterlimit="10" cx="79.448" cy="104.863" rx="0.863" ry="0.871"/>
			
				<ellipse transform="matrix(0.0102 -0.9999 0.9999 0.0102 -27.6139 181.3101)" fill="#73D100" stroke="#416B6D" stroke-width="0.2373" stroke-miterlimit="10" cx="77.777" cy="104.604" rx="0.862" ry="0.87"/>
			
				<ellipse transform="matrix(0.0091 -1 1 0.0091 -28.6896 179.302)" fill="#73D100" stroke="#416B6D" stroke-width="0.2373" stroke-miterlimit="10" cx="76.123" cy="104.126" rx="0.861" ry="0.869"/>
			
				<ellipse transform="matrix(0.0102 -0.9999 0.9999 0.0102 -28.2545 176.815)" fill="#73D100" stroke="#416B6D" stroke-width="0.2373" stroke-miterlimit="10" cx="75.188" cy="102.68" rx="0.861" ry="0.87"/>
			
				<ellipse transform="matrix(0.0102 -0.9999 0.9999 0.0102 -27.2812 174.9411)" fill="#73D100" stroke="#416B6D" stroke-width="0.2373" stroke-miterlimit="10" cx="74.727" cy="101.251" rx="0.862" ry="0.869"/>
			
				<ellipse transform="matrix(0.0102 -0.9999 0.9999 0.0102 -28.4294 172.7998)" fill="#73D100" stroke="#416B6D" stroke-width="0.2373" stroke-miterlimit="10" cx="73.07" cy="100.76" rx="0.862" ry="0.87"/>
			
				<ellipse transform="matrix(0.0096 -1 1 0.0096 -29.538 170.714)" fill="#73D100" stroke="#416B6D" stroke-width="0.2373" stroke-miterlimit="10" cx="71.415" cy="100.269" rx="0.861" ry="0.87"/>
			
				<ellipse transform="matrix(0.0096 -1 1 0.0096 -29.9702 168.3651)" fill="#73D100" stroke="#416B6D" stroke-width="0.2373" stroke-miterlimit="10" cx="70.011" cy="99.312" rx="0.863" ry="0.87"/>
			
				<ellipse transform="matrix(0.0096 -1 1 0.0096 -29.224 165.7786)" fill="#73D100" stroke="#416B6D" stroke-width="0.2373" stroke-miterlimit="10" cx="69.079" cy="97.643" rx="0.863" ry="0.871"/>
			
				<ellipse transform="matrix(0.0102 -0.9999 0.9999 0.0102 -28.5181 163.1204)" fill="#73D100" stroke="#416B6D" stroke-width="0.2373" stroke-miterlimit="10" cx="68.137" cy="95.965" rx="0.862" ry="0.87"/>
			
				<ellipse transform="matrix(0.0102 -0.9999 0.9999 0.0102 -28.4781 160.2863)" fill="#73D100" stroke="#416B6D" stroke-width="0.2373" stroke-miterlimit="10" cx="66.727" cy="94.528" rx="0.861" ry="0.87"/>
			
				<ellipse transform="matrix(0.0102 -0.9999 0.9999 0.0102 -28.44 157.9267)" fill="#73D100" stroke="#416B6D" stroke-width="0.2373" stroke-miterlimit="10" cx="65.553" cy="93.329" rx="0.862" ry="0.87"/>
			
				<ellipse transform="matrix(0.0102 -0.9999 0.9999 0.0102 -26.2832 155.8352)" fill="#73D100" stroke="#416B6D" stroke-width="0.2373" stroke-miterlimit="10" cx="65.574" cy="91.194" rx="0.862" ry="0.87"/>
		</g>
		<path fill="#E0E0E0" stroke="#416B6D" stroke-width="0.2373" stroke-miterlimit="10" d="M87.103,68.267
			c0,0-0.57-4.553-2.945-4.924c-2.375-0.369-3.271,0.65-4.069,0.562c-0.797-0.087-3.318-0.43-4.508-0.046
			c-1.19,0.384-0.631,3.79-0.631,3.79s-2.641-0.896-3.44-0.033c-0.8,0.862-1.14,3.23-1.822,4.252s-2.9,1.437-3.231,2.836
			c-0.331,1.4,1.166,2.049,1.166,2.049s-2.383,0.846-2.758,2.818s1.277,2.78,1.266,4.008c-0.012,1.227-1.841,2.234-1.342,3.782
			c0.498,1.548,2.713,1.451,2.713,1.451s-2.791,2.306-1.703,4.253c1.087,1.95,2.115,2.117,3.171,3.234
			c1.056,1.119,0.479,3.406,2.214,3.939c1.735,0.531,3.802-0.496,3.802-0.496s0.192,4.371,1.733,4.702
			c1.539,0.333,1.387-0.301,3.915,0.041c2.527,0.341,2.594,1.765,5.207,1.356s2.293-3.893,2.293-3.893s2.152,2.156,4.385,0.518
			c2.232-1.637,1.443-2.199,2.643-3.295c1.197-1.096,1.107,0.012,2.748-1.871c1.641-1.881-0.959-4.991-0.959-4.991
			s4.203,0.991,5.17-0.778c0.967-1.771,0.189-3.201,0.045-4.627c-0.143-1.426,1.049-1.967,0.766-5.213
			c-0.285-3.244-6.979-2.324-6.979-2.324s5.373-3.388,4.094-5.771c-1.281-2.387-3.562-3.674-4.584-4.477
			c-1.02-0.801-1.629-3.101-3.875-3.953C89.337,64.315,87.103,68.267,87.103,68.267z"/>
		<path fill="#DBF7FC" stroke="#416B6D" stroke-width="0.2829" stroke-miterlimit="10" d="M83.394,85.289
			c0,0,16.52-7.908,15.434-10.359c-1.084-2.449-4.631-1.299-5.344-2.895c-0.715-1.598,0.941-2.147-1.877-4.209
			C88.79,65.766,81,82.986,81,82.986l0.242,2.51L83.394,85.289z"/>
		<path fill="#DBF7FC" stroke="#416B6D" stroke-width="0.2373" stroke-miterlimit="10" d="M85.81,84.071
			c0,0,14.957-3.374,15.508-1.198c0.555,2.178-2.391,3.234-2.035,4.658c0.355,1.42,1.729,0.918,0.936,3.732
			c-0.791,2.816-14.842-4.512-14.842-4.512l-1.092-1.705L85.81,84.071z"/>
		<path fill="#DBF7FC" stroke="#416B6D" stroke-width="0.2373" stroke-miterlimit="10" d="M85.095,87.218
			c0,0,12.766,6.806,11.818,8.701c-0.943,1.896-3.701,0.838-4.324,2.074c-0.619,1.233,0.668,1.721-1.633,3.243
			c-2.299,1.525-7.826-12.37-7.826-12.37l0.271-1.893L85.095,87.218z"/>
		<path fill="#DBF7FC" stroke="#416B6D" stroke-width="0.2373" stroke-miterlimit="10" d="M82.976,80.646
			c0,0,3.963-14.839,1.809-15.482c-2.152-0.643-3.352,2.244-4.759,1.83c-1.405-0.416-0.854-1.771-3.704-1.099
			c-2.848,0.673,3.882,15.022,3.882,15.022l1.731,1.213L82.976,80.646z"/>
		<path fill="#DBF7FC" stroke="#416B6D" stroke-width="0.2373" stroke-miterlimit="10" d="M80.188,80.208
			c0,0-5.438-10.933-7.062-10.178c-1.623,0.752-0.794,3.102-1.852,3.598c-1.057,0.496-1.436-0.604-2.775,1.302
			c-1.34,1.905,10.252,6.896,10.252,6.896l1.602-0.184L80.188,80.208z"/>
		<path fill="#DBF7FC" stroke="#416B6D" stroke-width="0.2373" stroke-miterlimit="10" d="M81.164,83.804
			c0,0-12.767-6.809-13.813-4.967c-1.047,1.843,1.368,3.541,0.688,4.746c-0.681,1.203-1.802,0.403-1.784,3.164
			c0.016,2.76,14.635-0.396,14.635-0.396l1.42-1.278L81.164,83.804z"/>
		<path fill="#DBF7FC" stroke="#416B6D" stroke-width="0.2373" stroke-miterlimit="10" d="M83.716,89.352
			c0,0,2.832,13.75,0.83,14.222c-2.002,0.469-2.92-2.246-4.228-1.943c-1.308,0.301-0.87,1.564-3.436,0.791
			c-2.565-0.771,4.384-13.512,4.384-13.512l1.58-0.971L83.716,89.352z"/>
		<path fill="#DBF7FC" stroke="#416B6D" stroke-width="0.2373" stroke-miterlimit="10" d="M80.847,88.644
			c0,0-6.45,11.572-8.171,10.674c-1.72-0.898-0.703-3.404-1.824-3.994c-1.12-0.59-1.587,0.581-2.942-1.551
			c-1.356-2.133,11.461-6.955,11.461-6.955l1.728,0.281L80.847,88.644z"/>
		<path fill="none" stroke="#416B6D" stroke-width="0.2373" stroke-miterlimit="10" d="M78.449,73.554
			c-0.014,1.314,0.729,2.386,1.663,2.395"/>
		<path fill="none" stroke="#416B6D" stroke-width="0.2373" stroke-miterlimit="10" d="M81.045,75.55
			c0.014-1.381-0.138-2.5-0.338-2.504"/>
		<path fill="none" stroke="#416B6D" stroke-width="0.2373" stroke-miterlimit="10" d="M77.677,77.939
			c0.01-1.012-0.95-1.84-2.146-1.852"/>
		<path fill="none" stroke="#416B6D" stroke-width="0.2373" stroke-miterlimit="10" d="M76.506,78.606
			c0.004-0.421-0.859-0.771-1.928-0.78"/>
		<path fill="none" stroke="#416B6D" stroke-width="0.2373" stroke-miterlimit="10" d="M75.21,83.266
			c0.006-0.666-1.236-1.214-2.778-1.229"/>
		<path fill="none" stroke="#416B6D" stroke-width="0.2373" stroke-miterlimit="10" d="M75.466,85.894
			c-0.003,0.264-0.867,0.467-1.931,0.456"/>
		<path fill="none" stroke="#416B6D" stroke-width="0.2373" stroke-miterlimit="10" d="M75.519,90.394
			c-0.004,0.352-1.16,0.624-2.584,0.609"/>
		<path fill="none" stroke="#416B6D" stroke-width="0.2373" stroke-miterlimit="10" d="M77.122,91.623
			c-0.017,1.484-0.75,2.68-1.643,2.672"/>
		<path fill="none" stroke="#416B6D" stroke-width="0.2373" stroke-miterlimit="10" d="M74.437,92.436
			c0.005-0.464,1.206-0.828,2.687-0.813"/>
		<path fill="none" stroke="#416B6D" stroke-width="0.2373" stroke-miterlimit="10" d="M80.675,94.345
			c-0.014,1.475-0.361,2.664-0.774,2.66"/>
		<path fill="none" stroke="#416B6D" stroke-width="0.2373" stroke-miterlimit="10" d="M82.63,94.365
			c-0.016,1.475,0.178,2.67,0.432,2.674"/>
		<path fill="none" stroke="#416B6D" stroke-width="0.2373" stroke-miterlimit="10" d="M81.462,94.353
			c-0.02,1.934-0.206,3.496-0.415,3.494"/>
		<path fill="none" stroke="#416B6D" stroke-width="0.2373" stroke-miterlimit="10" d="M86.108,93.056
			c-0.016,1.479,0.67,2.684,1.529,2.693"/>
		<path fill="none" stroke="#416B6D" stroke-width="0.2373" stroke-miterlimit="10" d="M87.3,92.145
			c-0.012,1.118,0.648,2.03,1.479,2.038"/>
		<path fill="none" stroke="#416B6D" stroke-width="0.2373" stroke-miterlimit="10" d="M88.19,91.156
			c-0.006,0.553,0.887,1.006,1.996,1.018"/>
		<path fill="none" stroke="#416B6D" stroke-width="0.2373" stroke-miterlimit="10" d="M91.128,84.639
			c0.006-0.343,1.713-0.601,3.824-0.579"/>
		<path fill="none" stroke="#416B6D" stroke-width="0.2373" stroke-miterlimit="10" d="M91.116,86.05
			c-0.002,0.131,2.023,0.259,4.527,0.283"/>
		<path fill="none" stroke="#416B6D" stroke-width="0.2373" stroke-miterlimit="10" d="M90.976,87.044
			c-0.006,0.582,0.9,1.061,2.027,1.07"/>
		<path fill="none" stroke="#416B6D" stroke-width="0.2373" stroke-miterlimit="10" d="M87.056,76.205
			c-0.021,1.977-0.65,3.569-1.408,3.562"/>
		<path fill="none" stroke="#416B6D" stroke-width="0.2373" stroke-miterlimit="10" d="M87.015,80.375
			c0.012-1.129,1.43-2.031,3.174-2.013"/>
		<path fill="none" stroke="#416B6D" stroke-width="0.2373" stroke-miterlimit="10" d="M87.657,81.24
			c0.006-0.476,0.74-0.852,1.645-0.844"/>
		<path fill="none" stroke="#73D100" stroke-width="0.4745" stroke-miterlimit="10" d="M80.604,83.248
			c-0.018,1.752-1.453,3.16-3.205,3.143c-1.227-0.014-2.211-1.018-2.199-2.243c0.009-0.858,0.713-1.548,1.57-1.54
			c0.602,0.006,1.084,0.499,1.078,1.1c-0.004,0.422-0.349,0.76-0.77,0.754c-0.294-0.002-0.53-0.244-0.528-0.539
			c0.002-0.205,0.172-0.369,0.377-0.369c0.146,0.003,0.26,0.121,0.259,0.266"/>
		<path fill="none" stroke="#73D100" stroke-width="0.4745" stroke-miterlimit="10" d="M79.926,87.139
			c0.781,1.567,0.141,3.474-1.428,4.254c-1.1,0.547-2.432,0.101-2.979-0.999c-0.382-0.77-0.068-1.703,0.7-2.086
			c0.539-0.268,1.192-0.047,1.46,0.49c0.188,0.377,0.033,0.834-0.344,1.021c-0.264,0.133-0.584,0.023-0.715-0.24
			c-0.093-0.184-0.017-0.408,0.167-0.5c0.13-0.062,0.287-0.012,0.351,0.119"/>
		<path fill="none" stroke="#73D100" stroke-width="0.4745" stroke-miterlimit="10" d="M83.042,84.191
			c-0.674-1.617,0.092-3.479,1.711-4.15c1.133-0.471,2.434,0.066,2.902,1.199c0.332,0.793-0.045,1.703-0.838,2.032
			c-0.553,0.229-1.191-0.03-1.422-0.587c-0.162-0.389,0.021-0.835,0.41-0.996c0.271-0.113,0.586,0.016,0.697,0.287
			c0.078,0.191-0.012,0.408-0.201,0.488c-0.133,0.056-0.285-0.008-0.342-0.141"/>
		<path fill="none" stroke="#73D100" stroke-width="0.4745" stroke-miterlimit="10" d="M85.583,86.072
			c0.607-1.645,2.434-2.484,4.076-1.879c1.15,0.426,1.74,1.703,1.316,2.854c-0.299,0.806-1.193,1.219-1.998,0.92
			c-0.564-0.207-0.854-0.834-0.645-1.396c0.145-0.396,0.582-0.597,0.979-0.451c0.275,0.103,0.418,0.408,0.314,0.686
			c-0.07,0.193-0.285,0.292-0.479,0.222c-0.135-0.05-0.205-0.2-0.154-0.337"/>
		<path fill="none" stroke="#73D100" stroke-width="0.4745" stroke-miterlimit="10" d="M84.101,87.632
			c1.668-0.535,3.457,0.385,3.988,2.054c0.375,1.169-0.27,2.419-1.438,2.794c-0.816,0.262-1.693-0.189-1.953-1.008
			c-0.186-0.572,0.131-1.186,0.703-1.368c0.4-0.129,0.83,0.093,0.959,0.493c0.09,0.281-0.064,0.58-0.346,0.671
			c-0.197,0.063-0.406-0.046-0.471-0.242c-0.043-0.137,0.031-0.284,0.17-0.327"/>
		<path fill="none" stroke="#73D100" stroke-width="0.4745" stroke-miterlimit="10" d="M79.189,81.416
			c-1.18,0.283-2.364-0.442-2.648-1.621c-0.198-0.826,0.311-1.656,1.136-1.854c0.578-0.14,1.159,0.218,1.298,0.795
			c0.097,0.405-0.151,0.812-0.557,0.908c-0.282,0.067-0.567-0.104-0.636-0.39c-0.048-0.198,0.074-0.397,0.272-0.444
			c0.138-0.033,0.278,0.052,0.312,0.19c0.022,0.098-0.036,0.194-0.135,0.219"/>
		<path fill="none" stroke="#73D100" stroke-width="0.4745" stroke-miterlimit="10" d="M80.634,88.938
			c1.754,0.04,3.143,1.493,3.102,3.245c-0.029,1.227-1.047,2.197-2.273,2.17c-0.858-0.021-1.538-0.732-1.519-1.591
			c0.014-0.601,0.513-1.076,1.113-1.062c0.42,0.008,0.753,0.356,0.743,0.776c-0.006,0.296-0.25,0.528-0.545,0.521
			c-0.206-0.004-0.369-0.176-0.364-0.381c0.003-0.145,0.123-0.26,0.268-0.255"/>
		<path fill="none" stroke="#73D100" stroke-width="0.4745" stroke-miterlimit="10" d="M81.458,81.089
			c-1.671-0.526-2.6-2.311-2.071-3.98c0.37-1.17,1.617-1.818,2.788-1.449c0.816,0.258,1.271,1.131,1.016,1.95
			c-0.184,0.573-0.793,0.892-1.367,0.71c-0.4-0.126-0.622-0.555-0.497-0.955c0.089-0.281,0.388-0.438,0.669-0.349
			c0.195,0.062,0.305,0.271,0.244,0.469c-0.043,0.138-0.191,0.214-0.33,0.169"/>
		<circle fill="#73D100" stroke="#416B6D" stroke-width="0.2373" stroke-miterlimit="10" cx="81.538" cy="84.879" r="3.915"/>
		<circle fill="#DBF7FC" stroke="#416B6D" stroke-width="0.2373" stroke-miterlimit="10" cx="81.539" cy="84.881" r="2.402"/>
		<path fill="none" stroke="#416B6D" stroke-width="0.2373" stroke-miterlimit="10" d="M74.808,84.544
			c-0.002,0.265-0.867,0.469-1.93,0.457"/>
		<path fill="none" stroke="#416B6D" stroke-width="0.2373" stroke-miterlimit="10" d="M81.952,75.244
			c0.422-0.02,0.721-0.9,0.67-1.969"/>
	</g>
</g>
<g>
	<path fill="#416B6D" d="M26.29,10.293c0.92-3.021,1.58-6.381,1.84-6.262c0.6-0.02,1.34-0.42,1.26,0.06
		c-0.16,0.86-1.26,3.681-2.081,6.682c-1.14,4.161-2.081,8.642-2.48,8.722c-0.52,0.18-1.32,0.5-1.44,0
		c-0.36-1.52-4.801-14.823-4.401-15.503c0.32-0.56,1.04,0,1.68,0.04c0,0,0.46,4.081,1.121,6.562c0.68,2.561,1.68,6.341,2.4,6.401
		C25.049,17.074,25.489,12.573,26.29,10.293z"/>
	<path fill="#416B6D" d="M23.807,17.875c0,0.12-0.04,0.22-0.08,0.32c-0.12,0.28-0.38-0.74-0.1-0.82
		C23.707,17.514,23.807,17.674,23.807,17.875z M33.329,14.354c0.94-0.6,5.141-0.26,5.141-0.26c0.32-0.06,0.34-1.141-0.02-2.421
		c-0.06-0.18-0.14-1-0.22-1.16c-0.16-0.3-0.2-0.06-0.36-0.36c-0.3-0.58-0.56-1.101-1.1-1.16c-0.16-0.02-0.28-0.5-0.36-0.541
		c-0.48-0.26-0.9-0.22-1.54-0.22c-0.8,0-1.641,0.26-2.241,0.54c-0.48,0.22-0.28,0.22-0.36,0.34c-0.72,1.101-1.621,2.381-1.82,4.961
		c-0.04,0.58-0.12,1.14,0,1.6c0.82,2.941,2.3,4.241,4.421,4.241c1.9,0,3.821-2.78,3.141-2.76l-0.12-0.26
		c-0.52-0.16-2.661,2.46-3.141,2.261c-0.44-0.18-1.98-0.521-2.881-1.661c-0.18-0.22-0.06-0.24-0.28-0.48
		c-0.6-0.62,0.14-1.04,0.14-2.641C31.729,14.374,32.809,14.674,33.329,14.354z M35.769,13.153c-1.44,0.26-3.801,0.42-3.801,0.42
		c-0.54,0.02-0.24-2.74,1.22-3.581c0.46-0.26,1.2-0.8,1.96-0.64c0.62,0.14,1.701,0.48,1.9,1.24c0.06,0.22,0.28,0.08,0.24,0.62
		c-0.08,1,0.26,1.96,0,2.041C37.29,13.253,36.229,13.073,35.769,13.153z M37.33,13.793c-0.24-0.36,0.08-0.88,0.08-0.88
		C37.25,12.833,37.629,14.233,37.33,13.793z"/>
	<path fill="#416B6D" d="M50.19,9.453l-0.58,0.2c-0.28,0.08-0.68-0.2-1.081,0.02c-0.32,0.02,0.44,1.581,0.44,2.401
		c0,2.14-1.581,3.801-3.721,3.801c-0.64,0-1.8-0.18-2.38-0.4c-0.22-0.38-1.36,0.64-1.36,1.181c0,1.4,8.382-0.3,8.382,3.881
		c0,0.82-0.32,3.36-4.741,3.36c-3.601,0-4.661-1.88-4.661-3.241c0-1.14,1-1.76,1.92-2.16c0.06-0.32-1.38-0.74-1.38-1.541
		c0-0.98,1.3-1.7,1.26-2.081c-0.8-0.94-1.1-1.54-1.1-2.84c0-2.241,1.68-3.801,3.901-3.801c0.88,0,1.68,0.26,2.4,0.78
		c0.72-0.541,1.561-0.94,2.5-0.84L50.19,9.453z M42.588,19.535c0.28-0.6-1.581,1.641-0.72,1.621c0.68-0.02,0.22-0.521,0.36-0.84
		C42.348,20.035,42.468,19.815,42.588,19.535z M44.008,18.674c-0.84,0.16-2.02,0.9-2.02,1.9c0,1.521,2.48,2.681,3.541,2.681
		c1.12,0,2.861-1.3,2.861-2.82c0-1.16-1.9-2.281-2.621-2.141L44.008,18.674z M45.129,9.052c-1.5,0-2.801,1.621-2.801,3.041
		c0,1.38,1.28,2.9,2.721,2.9c1.6,0,2.48-1.4,2.48-2.92C47.529,10.633,46.689,9.052,45.129,9.052z M46.609,25.656
		c-0.24,0.14,0.16,0.68,0.36,0.6C47.369,26.116,46.849,25.516,46.609,25.656z"/>
	<path fill="#416B6D" d="M45.106,17.875c0,0.12-0.04,0.22-0.08,0.32c-0.12,0.28-0.38-0.74-0.1-0.82
		C45.006,17.514,45.106,17.674,45.106,17.875z M54.628,14.354c0.94-0.6,5.141-0.26,5.141-0.26c0.32-0.06,0.34-1.141-0.02-2.421
		c-0.06-0.18-0.14-1-0.22-1.16c-0.16-0.3-0.2-0.06-0.36-0.36c-0.3-0.58-0.56-1.101-1.1-1.16c-0.16-0.02-0.28-0.5-0.36-0.541
		c-0.48-0.26-0.9-0.22-1.54-0.22c-0.8,0-1.641,0.26-2.241,0.54c-0.48,0.22-0.28,0.22-0.36,0.34c-0.72,1.101-1.621,2.381-1.82,4.961
		c-0.04,0.58-0.12,1.14,0,1.6c0.82,2.941,2.3,4.241,4.421,4.241c1.9,0,3.821-2.78,3.141-2.76l-0.12-0.26
		c-0.52-0.16-2.661,2.46-3.141,2.261c-0.44-0.18-1.98-0.521-2.881-1.661c-0.18-0.22-0.06-0.24-0.28-0.48
		c-0.6-0.62,0.14-1.04,0.14-2.641C53.028,14.374,54.108,14.674,54.628,14.354z M57.068,13.153c-1.44,0.26-3.801,0.42-3.801,0.42
		c-0.54,0.02-0.24-2.74,1.22-3.581c0.46-0.26,1.2-0.8,1.96-0.64c0.62,0.14,1.701,0.48,1.9,1.24c0.06,0.22,0.28,0.08,0.24,0.62
		c-0.08,1,0.26,1.96,0,2.041C58.589,13.253,57.529,13.073,57.068,13.153z M58.629,13.793c-0.24-0.36,0.08-0.88,0.08-0.88
		C58.549,12.833,58.929,14.233,58.629,13.793z"/>
	<path fill="#416B6D" d="M61.587,8.592c0.3-0.4,1.32-0.04,1.32-0.04l0.08-3.301c0,0,0.1-0.36,0.24-0.46
		c0.32-0.24,1.04,0.34,1.04,0.34s0.16,0.92,0.04,1.98c-0.06,0.601,0.16,1.44,0.16,1.44s2.22-0.72,2.48,0.2
		c0.04,0.14,0.06,0.4,0.06,0.4l-0.36,0.64l-2.18,0.08c0,0,0,0.48,0,0.8c0,0.18-0.28,0.42-0.28,0.62c0,0.14,0.28,0.92,0.28,1.06
		c0,2.301,0,4.461,0,4.461c0,1.081-0.12,3.121,0.86,2.261c0.32-0.28,1.22-1.76,1.521-1.061l0.28,0.22
		c0.66,0.42-1.181,1.68-1.721,1.68c-2.641,0-2.5-1.78-2.5-3.801V9.873l-1.08-0.04C61.828,9.833,61.288,8.993,61.587,8.592z"/>
	<path fill="#416B6D" d="M74.688,19.515l-0.36-1.32c-1.14,0.32-1.9,1.72-3.201,1.72c-1.701,0-3.061-1.42-3.061-3.161
		c0-3.161,3.32-3.841,5.761-4.501l0.5-0.14v-0.62c0-1.26-0.3-2.101-2.141-1.94c-2.061,0.18-2.621,2.16-3.301,1.38l-0.18-0.42
		c-0.48-0.24,1.84-2.28,3.521-2.28c1.5,0,3.241,1.2,3.341,3.721l0.24,4.921c0.02,0.28,0.18,2.5-0.22,2.521L74.688,19.515z
		 M68.967,18.875c0.12-0.28,0.16,0.64,0.16-0.24l-0.24-0.08C68.607,19.354,68.967,18.875,68.967,18.875z M74.229,13.253
		c0.14-1-5.101,1.36-5.101,3.341c0,0.92,1.12,1.84,2.061,1.84c1.24,0,3.3-1.22,3.141-1.8l-0.12-3.241L74.229,13.253z M69.808,10.273
		c0.72,0.02,1.56-0.5,1.2-0.96C70.647,8.853,69.228,10.253,69.808,10.273z M74.488,12.193c0,0-0.44,1.72-0.2,2.08
		C74.588,14.714,74.329,12.113,74.488,12.193z M74.688,18.555c0,0-0.22,0.12,0,0.48C75.429,20.275,74.528,18.475,74.688,18.555z"/>
	<path fill="#416B6D" d="M79.647,19.415c-0.3,0.04-0.32,0.14-0.88,0.12c0,0-0.6,0.02-0.4-1c0.42-2.141,0-7.562-0.04-9.542
		c0-0.46,0.94-0.44,0.94-0.44l0.56,0.2l0.06,2.181l0.02,0.06c0.46,0.22,1.76-2.8,3.121-2.601c0,0,0.359-0.02,0.52,0.08
		c0.301,0.2,0.021,0.541,0.041,0.98c0.14,0.48-0.921,0.38-1.381,0.68c-1,0.64-1.66,1.74-2.28,3.201c0,0-0.16,3.261-0.12,4.281
		c0,0.14-0.02,0.54,0.06,0.7c0.08,0.18,0.14,0.12,0.16,0.3c0.04,0.26-0.02,0.32-0.02,0.44
		C80.008,19.275,79.828,19.395,79.647,19.415z M78.647,17.714c0,0-0.5,1.541,0.06,1.541C78.907,19.255,78.907,17.754,78.647,17.714z
		 M80.588,9.212c-0.04-0.44-0.84,0.06-1.121-0.26c-0.38-0.44,0.36-0.92,0.3-1.521c-0.06-0.56-0.34-0.88-0.62-1.34
		c-0.36-0.6,0.58,0.64,0.6,1.42c0.02,0.6-0.62,1-0.28,1.44c0.26,0.34,1.101-0.16,1.121,0.28c0,0.16-0.18,0.44-0.12,0.42
		C80.468,9.653,80.588,9.393,80.588,9.212z M79.688,18.415c0,0-0.16,0.36,0.22,0.52C80.107,19.015,79.788,18.134,79.688,18.415z
		 M81.228,12.253c0,0-0.521,0.38,0.04,0.38C81.468,12.633,81.488,12.293,81.228,12.253z"/>
	<path fill="#416B6D" d="M86.708,5.652c0,0-0.341,0.34-0.601,0.34c-0.14,0-0.36-0.14-0.36-0.14s-0.5-0.4-0.54-0.76
		c-0.06-0.4,0.341-0.96,0.341-0.96s0.299-0.12,0.459-0.14c0.301-0.04,0.801,0.04,0.801,0.04s0.1,0.46,0.1,0.76
		C86.907,5.132,86.708,5.652,86.708,5.652z M86.907,19.595h-1.561c0,0,0.24-6.261-0.039-10.402c-0.021-0.22,0.039-0.64,0.039-0.64
		s0.641-0.12,0.961,0.04c0.119,0.06,0.3,0.26,0.3,0.26s0.2,0.14,0.101,1.74C86.507,13.793,86.907,19.595,86.907,19.595z"/>
	<path fill="#416B6D" d="M95.708,19.515l-0.359-1.32c-1.141,0.32-1.9,1.72-3.201,1.72c-1.7,0-3.061-1.42-3.061-3.161
		c0-3.161,3.32-3.841,5.762-4.501l0.5-0.14v-0.62c0-1.26-0.301-2.101-2.141-1.94c-2.061,0.18-2.621,2.16-3.301,1.38l-0.18-0.42
		c-0.48-0.24,1.84-2.28,3.521-2.28c1.501,0,3.241,1.2,3.341,3.721l0.24,4.921c0.02,0.28,0.18,2.5-0.221,2.521L95.708,19.515z
		 M89.987,18.875c0.12-0.28,0.16,0.64,0.16-0.24l-0.24-0.08C89.628,19.354,89.987,18.875,89.987,18.875z M95.249,13.253
		c0.14-1-5.102,1.36-5.102,3.341c0,0.92,1.12,1.84,2.061,1.84c1.24,0,3.301-1.22,3.141-1.8l-0.12-3.241L95.249,13.253z
		 M90.827,10.273c0.721,0.02,1.561-0.5,1.201-0.96C91.668,8.853,90.247,10.253,90.827,10.273z M95.509,12.193
		c0,0-0.44,1.72-0.2,2.08C95.608,14.714,95.349,12.113,95.509,12.193z M95.708,18.555c0,0-0.219,0.12,0,0.48
		C96.448,20.275,95.548,18.475,95.708,18.555z"/>
	<path fill="#416B6D" d="M100.708,19.195c0,0-0.181,0.58-0.461,0.6c-0.32,0.02-0.6-0.6-0.6-0.6L99.347,8.353
		c0,0,0.941-0.22,1.201,0.14c0.119,0.18,0.16,0.56,0.16,0.56l0.199,0.64c0.92-0.74,1.781-1.46,3.041-1.46
		c1.561,0,2.98,0.86,2.82,3.741c0,0,0.601,4.381-0.42,6.821c-0.08,0.22-0.279,0.6-0.279,0.6l-0.66,0.1c0,0-0.461,0.12-0.4-0.3
		c0.1-0.88,0.56-2.961,0.539-4.101c-0.02-0.98-0.239-2.521-0.239-2.521c-0.101-1.12,0-2.44-1.561-3.061
		c-1.761-0.7-2.22,0.94-2.841,1.68L100.708,19.195z"/>
	<path fill="#416B6D" d="M110.567,5.652c0,0-0.34,0.34-0.6,0.34c-0.141,0-0.361-0.14-0.361-0.14s-0.5-0.4-0.539-0.76
		c-0.061-0.4,0.34-0.96,0.34-0.96s0.3-0.12,0.46-0.14c0.3-0.04,0.8,0.04,0.8,0.04s0.101,0.46,0.101,0.76
		C110.768,5.132,110.567,5.652,110.567,5.652z M110.768,19.595h-1.561c0,0,0.24-6.261-0.04-10.402c-0.02-0.22,0.04-0.64,0.04-0.64
		s0.64-0.12,0.96,0.04c0.12,0.06,0.301,0.26,0.301,0.26s0.199,0.14,0.1,1.74C110.367,13.793,110.768,19.595,110.768,19.595z"/>
	<path fill="#416B6D" d="M116.288,16.034c0.02,0.06-0.26-0.1-0.42-0.1c-0.44,0.06,0.14,0.86-0.181,1.14
		c-0.42,0.38-0.86-0.22-1.46-0.14c-0.78,0.08-1.94,1.12-1.36,0.72c0.42-0.32,0.72-0.62,1.28-0.74c0.58-0.1,1.12,0.58,1.54,0.16
		c0.28-0.3-0.28-1.06,0.16-1.12C116.028,15.934,116.288,16.034,116.288,16.034z M120.148,10.713c0.5-0.36-1.82-2.48-3.36-2.48
		c-1.82,0-2.98,2.041-2.98,3.941c0,3.96,5.621,1.24,5.621,4.021c0,1.26-0.9,2.961-2.041,2.961c-1.32,0-3.041-2.401-3.44-1.98
		l-0.64,0.02c-0.301,0.7,1.98,2.72,3.76,2.72c2.081,0,3.821-1.84,3.821-4c0-3.721-6.421-1.3-6.421-4.001
		c0-1.72,1.359-2.36,2.38-2.36c0.98,0,1.921,0.62,2.481,1.28c0.119,0.14,0.699,0.44,0.76-0.02L120.148,10.713z"/>
	<path fill="#416B6D" d="M128.868,18.895c0,0,0.021-2.88,0.041-4.701c0-0.88,0.06-2.32,0.06-2.32c0.06-2.021,0-2.36-1.661-2.36
		c-1.34,0.04-2.141,0.74-2.939,1.46c0,0-0.221,2.961-0.261,4.821c-0.04,1.42-0.04,3.701-0.04,3.701l-1.16,0.1
		c0,0,0.02-4.921,0-5.301c-0.301-3.541-0.1-4.681,0.1-5.681c0.141-0.68,0.601-0.26,0.601-0.26l0.46,0.5l0.301,0.68
		c0.959-0.78,1.779-1.3,3.061-1.3c1.18,0,2.08,0.5,2.66,1.5c1.02-0.82,2-1.48,3.381-1.5c1.561,0,2.62,0.76,2.62,3.641
		c0,0,0,2.541,0.021,4.121c0,1.38,0.08,3.601,0.08,3.601c-0.561,0-1.221-0.04-1.381,0c-0.52,0.16,0.02-7.122,0.02-7.122
		c0.021-3.761,0.201-3.361-1.459-3.361c-1.141-0.02-2.381,1.161-3.041,1.86c0,0-0.16,7.102-0.221,8.222
		C130.069,19.815,128.868,18.895,128.868,18.895z M124.507,8.292c-0.039,0.04,0.4,0.72,0.101,0.1
		C124.067,7.272,124.548,8.252,124.507,8.292z M133.109,21.195c-0.261,0.18,0.8,1.32,0.5,0.7
		C133.069,20.775,133.37,21.015,133.109,21.195z"/>
	<path fill="#416B6D" d="M28.109,43.515l-0.36-1.32c-1.14,0.32-1.9,1.72-3.201,1.72c-1.701,0-3.061-1.42-3.061-3.161
		c0-3.161,3.32-3.841,5.761-4.501l0.5-0.14v-0.62c0-1.26-0.3-2.101-2.141-1.94c-2.061,0.18-2.621,2.16-3.301,1.38l-0.18-0.42
		c-0.48-0.24,1.84-2.28,3.521-2.28c1.5,0,3.241,1.2,3.341,3.721l0.24,4.921c0.02,0.28,0.18,2.5-0.22,2.521L28.109,43.515z
		 M22.388,42.875c0.12-0.28,0.16,0.64,0.16-0.24l-0.24-0.08C22.028,43.354,22.388,42.875,22.388,42.875z M27.649,37.253
		c0.14-1-5.101,1.36-5.101,3.341c0,0.92,1.12,1.84,2.061,1.84c1.24,0,3.3-1.22,3.141-1.8l-0.12-3.241L27.649,37.253z M23.229,34.273
		c0.72,0.02,1.56-0.5,1.2-0.96C24.068,32.853,22.648,34.253,23.229,34.273z M27.909,36.193c0,0-0.44,1.72-0.2,2.08
		C28.009,38.714,27.75,36.113,27.909,36.193z M28.109,42.555c0,0-0.22,0.12,0,0.48C28.85,44.275,27.949,42.475,28.109,42.555z"/>
	<path fill="#416B6D" d="M33.108,43.195c0,0-0.18,0.58-0.46,0.6c-0.32,0.02-0.6-0.6-0.6-0.6l-0.3-10.842c0,0,0.94-0.22,1.2,0.14
		c0.12,0.18,0.16,0.56,0.16,0.56l0.2,0.64c0.92-0.74,1.78-1.46,3.041-1.46c1.56,0,2.98,0.86,2.821,3.741c0,0,0.6,4.381-0.42,6.821
		c-0.08,0.22-0.28,0.6-0.28,0.6l-0.66,0.1c0,0-0.46,0.12-0.4-0.3c0.1-0.88,0.56-2.961,0.54-4.101c-0.02-0.98-0.24-2.521-0.24-2.521
		c-0.1-1.12,0-2.44-1.561-3.061c-1.76-0.7-2.22,0.94-2.84,1.68L33.108,43.195z"/>
	<path fill="#416B6D" d="M48.669,27.812c0.2,0.24,0.56,0.62,0.56,0.62s0.34,0.94,0.04,1.68c-0.18,0.44,0.24,2.32,0.06,4.101
		c-0.04,0.48,0.1,1.5,0.08,2.06c0,0.44-0.18,0.4-0.18,0.86c0,2.761,0.24,5.681,0.24,5.681s-0.32,0.76-0.76,0.84
		c-0.74,0.14-0.38-1.86-0.38-1.86c-0.74,0.92-1.781,2.12-3.001,2.12c-1.5,0-3.921-1.32-3.921-5.561c0-0.48,0.1-1.18,0.16-1.64
		c0.04-0.3-0.08-0.42-0.02-0.72c0.52-2.221,1.661-3.641,2.861-3.381c0.64,0.14-0.02-0.56,1.28-0.26c1.04,0.24,2.4,1.48,2.82,2.84
		c0,0-0.1-1.24-0.22-2.82c-0.12-1.661-0.26-3.681-0.02-4.261L48.669,27.812z M48.149,35.373c-0.48-0.96-1.44-2.201-2.641-2.201
		c-1.08,0-1.68,0.92-2.201,1.721c-0.12,0.18-0.4,0.06-0.48,0.24c-0.34,0.72-0.5,1.541-0.5,2.221c0,1.9,0.96,3.361,1.541,4.621
		c0.12,0.26,1.66,0.88,2.1,0.88c1.101,0,1.741-1.42,2.181-2.36c0,0,0.14-1.541,0.14-2.541C48.29,36.953,48.149,35.373,48.149,35.373
		z M45.989,41.194c0,0-0.24,0.12,0,0.48C46.289,42.114,45.829,41.114,45.989,41.194z"/>
	<path fill="#416B6D" d="M57.228,32.592c0.3-0.4,1.32-0.04,1.32-0.04l0.08-3.301c0,0,0.1-0.36,0.24-0.46
		c0.32-0.24,1.04,0.34,1.04,0.34s0.16,0.92,0.04,1.98c-0.06,0.601,0.16,1.44,0.16,1.44s2.22-0.72,2.48,0.2
		c0.04,0.14,0.06,0.4,0.06,0.4l-0.36,0.64l-2.18,0.08c0,0,0,0.48,0,0.8c0,0.18-0.28,0.42-0.28,0.62c0,0.14,0.28,0.92,0.28,1.06
		c0,2.301,0,4.461,0,4.461c0,1.081-0.12,3.121,0.86,2.261c0.32-0.28,1.22-1.76,1.521-1.061l0.28,0.22
		c0.66,0.42-1.181,1.68-1.721,1.68c-2.641,0-2.5-1.78-2.5-3.801v-6.241l-1.08-0.04C57.468,33.833,56.928,32.993,57.228,32.592z"/>
	<path fill="#416B6D" d="M65.528,33.792c0.72,0.46,1.78-1.56,3.041-1.56c1.56,0,2.86,0.86,2.821,3.741l-0.3,7.122l-0.86,0.5
		c0,0-0.5-0.5-0.46-0.9c0.16-1.92,0.06-6.321,0.06-6.321c-0.02-1.16,0.3-3.061-1.36-3.061c-0.96,0-3.221,1.14-2.94,1.98l-0.3,7.602
		l-0.56,0.5c0,0-0.84,0.1-0.8-0.2c0.6-5.321,0.78-12.883,0.56-14.483c-0.26-1.82,0.84-1.68,0.84-1.68l0.56,0.4L65.528,33.792z"/>
	<path fill="#416B6D" d="M66.866,41.875c0,0.12-0.04,0.22-0.08,0.32c-0.12,0.28-0.38-0.74-0.1-0.82
		C66.766,41.514,66.866,41.674,66.866,41.875z M76.388,38.354c0.94-0.6,5.141-0.26,5.141-0.26c0.32-0.06,0.34-1.141-0.02-2.421
		c-0.06-0.18-0.14-1-0.22-1.16c-0.16-0.3-0.2-0.06-0.36-0.36c-0.3-0.58-0.56-1.101-1.1-1.16c-0.16-0.02-0.28-0.5-0.36-0.541
		c-0.48-0.26-0.9-0.22-1.54-0.22c-0.8,0-1.641,0.26-2.241,0.54c-0.48,0.22-0.28,0.22-0.36,0.34c-0.72,1.101-1.621,2.381-1.82,4.961
		c-0.04,0.58-0.12,1.14,0,1.6c0.82,2.941,2.3,4.241,4.421,4.241c1.9,0,3.82-2.78,3.141-2.76l-0.12-0.26
		c-0.52-0.16-2.661,2.46-3.141,2.261c-0.44-0.18-1.98-0.521-2.881-1.661c-0.18-0.22-0.06-0.24-0.28-0.48
		c-0.6-0.62,0.14-1.04,0.14-2.641C74.788,38.374,75.868,38.674,76.388,38.354z M78.829,37.153c-1.44,0.26-3.801,0.42-3.801,0.42
		c-0.54,0.02-0.24-2.74,1.22-3.581c0.46-0.26,1.2-0.8,1.96-0.64c0.62,0.14,1.701,0.48,1.9,1.24c0.06,0.22,0.28,0.08,0.24,0.62
		c-0.08,1,0.26,1.96,0,2.041C80.349,37.253,79.289,37.073,78.829,37.153z M80.389,37.793c-0.24-0.36,0.08-0.88,0.08-0.88
		C80.309,36.833,80.689,38.233,80.389,37.793z"/>
	<path fill="#416B6D" d="M91.688,43.595c-0.319,0.16-0.96,0.1-0.96,0.1c-0.54,0.16-0.24-1.22-0.221-3.101
		c0.021-2.5-0.279-6.042-0.18-8.862c0.04-1.141-0.14-2.261-0.14-3.041c0-0.86,3.921-0.66,3.921-0.66
		c3.82-0.64,5.101,2.46,5.101,4.261c0,1.9-1.12,4.521-5.36,4.301l-1.781-0.1C91.308,36.893,92.368,43.255,91.688,43.595z
		 M91.768,35.193h1.06c2.141,0,5.441-0.08,5.441-2.88c0-2.961-3.68-3.501-5.66-2.881c0,0-0.681-0.02-0.82,0.26
		C91.268,30.712,91.288,35.093,91.768,35.193z M91.747,41.014c0,0-0.26,0.7-0.299,1.14c-0.061,0.66,0.139,1.081,0.34,1.14
		C92.048,43.375,92.088,40.374,91.747,41.014z"/>
	<path fill="#416B6D" d="M103.348,27.771c-0.3,5.901,0.14,8.122,0.2,15.503c0,0.48-1.721,0.76-1.7,0.1
		c0.06-4.201-0.12-8.441-0.12-11.862c0-0.36-0.4-1.04-0.38-1.44c0-0.34,0.2-0.6,0.2-1c0.039-1.141,0.199,0.52,0.3-1.101
		C101.888,27.411,103.368,27.191,103.348,27.771z M101.948,30.672c0.199-0.9,0.5-1.3,0-1.3
		C101.447,29.372,101.848,31.152,101.948,30.672z M102.368,35.393c-0.101,0.42-0.201-1.541-0.061-1.14c0.08,0.22,0.12,0.36,0.12,0.6
		C102.428,35.073,102.407,35.193,102.368,35.393z"/>
	<path fill="#416B6D" d="M113.128,43.515l-0.359-1.32c-1.141,0.32-1.9,1.72-3.201,1.72c-1.7,0-3.061-1.42-3.061-3.161
		c0-3.161,3.32-3.841,5.762-4.501l0.5-0.14v-0.62c0-1.26-0.301-2.101-2.141-1.94c-2.061,0.18-2.621,2.16-3.301,1.38l-0.18-0.42
		c-0.48-0.24,1.84-2.28,3.521-2.28c1.501,0,3.241,1.2,3.341,3.721l0.24,4.921c0.02,0.28,0.18,2.5-0.221,2.521L113.128,43.515z
		 M107.407,42.875c0.12-0.28,0.16,0.64,0.16-0.24l-0.24-0.08C107.048,43.354,107.407,42.875,107.407,42.875z M112.669,37.253
		c0.14-1-5.102,1.36-5.102,3.341c0,0.92,1.12,1.84,2.061,1.84c1.24,0,3.301-1.22,3.141-1.8l-0.12-3.241L112.669,37.253z
		 M108.247,34.273c0.721,0.02,1.561-0.5,1.201-0.96C109.088,32.853,107.667,34.253,108.247,34.273z M112.929,36.193
		c0,0-0.44,1.72-0.2,2.08C113.028,38.714,112.769,36.113,112.929,36.193z M113.128,42.555c0,0-0.219,0.12,0,0.48
		C113.868,44.275,112.968,42.475,113.128,42.555z"/>
	<path fill="#416B6D" d="M118.128,43.195c0,0-0.181,0.58-0.461,0.6c-0.32,0.02-0.6-0.6-0.6-0.6l-0.301-10.842
		c0,0,0.941-0.22,1.201,0.14c0.119,0.18,0.16,0.56,0.16,0.56l0.199,0.64c0.92-0.74,1.781-1.46,3.041-1.46
		c1.561,0,2.98,0.86,2.82,3.741c0,0,0.601,4.381-0.42,6.821c-0.08,0.22-0.279,0.6-0.279,0.6l-0.66,0.1c0,0-0.461,0.12-0.4-0.3
		c0.1-0.88,0.56-2.961,0.539-4.101c-0.02-0.98-0.239-2.521-0.239-2.521c-0.101-1.12,0-2.44-1.561-3.061
		c-1.761-0.7-2.22,0.94-2.841,1.68L118.128,43.195z"/>
	<path fill="#416B6D" d="M119.665,41.875c0,0.12-0.039,0.22-0.08,0.32c-0.119,0.28-0.379-0.74-0.1-0.82
		C119.565,41.514,119.665,41.674,119.665,41.875z M129.188,38.354c0.94-0.6,5.142-0.26,5.142-0.26c0.32-0.06,0.34-1.141-0.021-2.421
		c-0.06-0.18-0.14-1-0.22-1.16c-0.16-0.3-0.2-0.06-0.36-0.36c-0.3-0.58-0.56-1.101-1.101-1.16c-0.16-0.02-0.279-0.5-0.359-0.541
		c-0.48-0.26-0.9-0.22-1.541-0.22c-0.8,0-1.641,0.26-2.24,0.54c-0.48,0.22-0.279,0.22-0.359,0.34
		c-0.721,1.101-1.621,2.381-1.82,4.961c-0.041,0.58-0.121,1.14,0,1.6c0.819,2.941,2.3,4.241,4.42,4.241c1.9,0,3.821-2.78,3.141-2.76
		l-0.119-0.26c-0.521-0.16-2.661,2.46-3.141,2.261c-0.44-0.18-1.98-0.521-2.881-1.661c-0.18-0.22-0.061-0.24-0.28-0.48
		c-0.601-0.62,0.14-1.04,0.14-2.641C127.587,38.374,128.667,38.674,129.188,38.354z M131.628,37.153
		c-1.44,0.26-3.801,0.42-3.801,0.42c-0.54,0.02-0.24-2.74,1.221-3.581c0.46-0.26,1.199-0.8,1.96-0.64c0.62,0.14,1.7,0.48,1.9,1.24
		c0.06,0.22,0.28,0.08,0.24,0.62c-0.08,1,0.26,1.96,0,2.041C133.148,37.253,132.089,37.073,131.628,37.153z M133.188,37.793
		c-0.24-0.36,0.08-0.88,0.08-0.88C133.108,36.833,133.488,38.233,133.188,37.793z"/>
	<path fill="#416B6D" d="M136.146,32.592c0.3-0.4,1.32-0.04,1.32-0.04l0.08-3.301c0,0,0.101-0.36,0.24-0.46
		c0.319-0.24,1.04,0.34,1.04,0.34s0.16,0.92,0.04,1.98c-0.06,0.601,0.16,1.44,0.16,1.44s2.22-0.72,2.48,0.2
		c0.04,0.14,0.06,0.4,0.06,0.4l-0.359,0.64l-2.181,0.08c0,0,0,0.48,0,0.8c0,0.18-0.28,0.42-0.28,0.62c0,0.14,0.28,0.92,0.28,1.06
		c0,2.301,0,4.461,0,4.461c0,1.081-0.12,3.121,0.86,2.261c0.32-0.28,1.22-1.76,1.52-1.061l0.281,0.22
		c0.659,0.42-1.182,1.68-1.721,1.68c-2.641,0-2.501-1.78-2.501-3.801v-6.241l-1.08-0.04
		C136.387,33.833,135.847,32.993,136.146,32.592z"/>
</g>
</svg>
