<?xml version="1.0" encoding="utf-8"?>
<!-- Generator: Adobe Illustrator 16.0.0, SVG Export Plug-In . SVG Version: 6.00 Build 0)  -->
<!DOCTYPE svg PUBLIC "-//W3C//DTD SVG 1.1//EN" "http://www.w3.org/Graphics/SVG/1.1/DTD/svg11.dtd">
<svg version="1.1" id="Layer_1" xmlns="http://www.w3.org/2000/svg" xmlns:xlink="http://www.w3.org/1999/xlink" x="0px" y="0px"
	 width="403px" height="402px" viewBox="0 0 403 402" enable-background="new 0 0 403 402" xml:space="preserve">
<path fill="#F7FCFC" stroke="#416B6D" stroke-linecap="round" stroke-miterlimit="10" stroke-dasharray="5,5" d="M252.536,43.914
	c4.464,37.25-28.206,41.75-63,41.75s-68.536-4.5-63-41.75c3.39-22.807,29.315-34.842,63-41.75
	C223.621-4.827,249.793,21.02,252.536,43.914z"/>
<path fill="#EFF9F9" stroke="#416B6D" stroke-linecap="round" stroke-miterlimit="10" stroke-dasharray="5,5" d="M302.536,149.664
	c11.464,53-51.273,47.575-114,53c-63.6,5.5-121.536,0-114-53c5.842-41.087,51.039-53,114-53S293.863,109.567,302.536,149.664z"/>
<path fill="#E8F7F9" stroke="#416B6D" stroke-linecap="round" stroke-miterlimit="10" stroke-dasharray="5,5" d="M340,271.9
	c15,53.264-63.992,53.264-151.463,53.264c-87.473,0-164.537-8-151.537-55.266c13.597-49.436,64.325-43.213,151.537-49.965
	C276,213.164,329.053,233.027,340,271.9z"/>
<path fill="#DBF7FC" stroke="#416B6D" stroke-linecap="round" stroke-miterlimit="10" stroke-dasharray="5,5" d="M393.536,364.414
	c15.464,34.75-91.781,22.75-205,22.75S-10,401.164,4,358.164c14.837-45.572,71.403-20.914,184.536-16.5
	C303.9,346.164,370.791,313.303,393.536,364.414z"/>
<g>
	<path fill="#416B6D" d="M160.885,42.452c0,0.102-0.034,0.187-0.068,0.272c-0.102,0.238-0.323-0.629-0.085-0.697
		C160.8,42.146,160.885,42.282,160.885,42.452z M168.976,39.46c0.799-0.51,4.369-0.221,4.369-0.221
		c0.271-0.051,0.288-0.969-0.018-2.057c-0.051-0.153-0.119-0.85-0.187-0.986c-0.137-0.255-0.17-0.051-0.307-0.306
		c-0.255-0.493-0.476-0.935-0.935-0.986c-0.136-0.017-0.238-0.425-0.306-0.459c-0.408-0.221-0.766-0.187-1.31-0.187
		c-0.68,0-1.394,0.221-1.903,0.459c-0.408,0.187-0.238,0.187-0.306,0.289c-0.612,0.935-1.377,2.023-1.547,4.216
		c-0.034,0.493-0.103,0.969,0,1.36c0.696,2.499,1.954,3.604,3.756,3.604c1.615,0,3.247-2.363,2.669-2.346l-0.102-0.221
		c-0.442-0.136-2.261,2.091-2.669,1.921c-0.374-0.153-1.683-0.442-2.447-1.411c-0.153-0.187-0.052-0.204-0.238-0.408
		c-0.51-0.527,0.119-0.884,0.119-2.244C167.616,39.477,168.534,39.732,168.976,39.46z M171.05,38.44
		c-1.224,0.221-3.229,0.357-3.229,0.357c-0.459,0.017-0.204-2.329,1.036-3.042c0.392-0.221,1.021-0.68,1.666-0.544
		c0.527,0.119,1.445,0.408,1.615,1.054c0.051,0.187,0.237,0.068,0.204,0.527c-0.068,0.85,0.221,1.666,0,1.733
		C172.342,38.525,171.44,38.372,171.05,38.44z M172.375,38.984c-0.203-0.306,0.068-0.748,0.068-0.748
		C172.308,38.168,172.631,39.358,172.375,38.984z"/>
	<path fill="#416B6D" d="M183.307,35.295l-0.493,0.17c-0.238,0.068-0.578-0.17-0.918,0.017c-0.272,0.017,0.374,1.343,0.374,2.04
		c0,1.819-1.343,3.23-3.162,3.23c-0.544,0-1.529-0.153-2.022-0.34c-0.187-0.323-1.156,0.544-1.156,1.003
		c0,1.189,7.123-0.255,7.123,3.297c0,0.697-0.272,2.856-4.029,2.856c-3.06,0-3.96-1.598-3.96-2.754c0-0.969,0.85-1.496,1.632-1.836
		c0.051-0.272-1.173-0.629-1.173-1.309c0-0.833,1.104-1.445,1.07-1.768c-0.68-0.799-0.935-1.309-0.935-2.414
		c0-1.904,1.428-3.23,3.314-3.23c0.748,0,1.428,0.221,2.04,0.663c0.611-0.459,1.326-0.799,2.125-0.714L183.307,35.295z
		 M176.847,43.863c0.238-0.51-1.343,1.394-0.611,1.376c0.577-0.017,0.187-0.442,0.306-0.714
		C176.643,44.288,176.745,44.101,176.847,43.863z M178.054,43.132c-0.714,0.136-1.717,0.765-1.717,1.615
		c0,1.292,2.107,2.278,3.009,2.278c0.952,0,2.431-1.105,2.431-2.397c0-0.986-1.614-1.938-2.227-1.819L178.054,43.132z
		 M179.006,34.956c-1.275,0-2.38,1.377-2.38,2.583c0,1.173,1.088,2.465,2.312,2.465c1.36,0,2.108-1.19,2.108-2.482
		C181.046,36.298,180.332,34.956,179.006,34.956z M180.264,49.064c-0.204,0.119,0.136,0.578,0.306,0.51
		C180.909,49.455,180.468,48.945,180.264,49.064z"/>
	<path fill="#416B6D" d="M192.707,35.295l-0.493,0.17c-0.238,0.068-0.578-0.17-0.918,0.017c-0.272,0.017,0.374,1.343,0.374,2.04
		c0,1.819-1.343,3.23-3.162,3.23c-0.544,0-1.529-0.153-2.022-0.34c-0.187-0.323-1.156,0.544-1.156,1.003
		c0,1.189,7.123-0.255,7.123,3.297c0,0.697-0.272,2.856-4.029,2.856c-3.06,0-3.96-1.598-3.96-2.754c0-0.969,0.85-1.496,1.632-1.836
		c0.051-0.272-1.173-0.629-1.173-1.309c0-0.833,1.104-1.445,1.07-1.768c-0.68-0.799-0.935-1.309-0.935-2.414
		c0-1.904,1.428-3.23,3.314-3.23c0.748,0,1.428,0.221,2.04,0.663c0.611-0.459,1.326-0.799,2.125-0.714L192.707,35.295z
		 M186.247,43.863c0.238-0.51-1.343,1.394-0.611,1.376c0.577-0.017,0.187-0.442,0.306-0.714
		C186.043,44.288,186.146,44.101,186.247,43.863z M187.454,43.132c-0.714,0.136-1.717,0.765-1.717,1.615
		c0,1.292,2.107,2.278,3.009,2.278c0.952,0,2.431-1.105,2.431-2.397c0-0.986-1.614-1.938-2.227-1.819L187.454,43.132z
		 M188.406,34.956c-1.275,0-2.38,1.377-2.38,2.583c0,1.173,1.088,2.465,2.312,2.465c1.36,0,2.108-1.19,2.108-2.482
		C190.446,36.298,189.732,34.956,188.406,34.956z M189.664,49.064c-0.204,0.119,0.136,0.578,0.306,0.51
		C190.31,49.455,189.868,48.945,189.664,49.064z"/>
	<path fill="#416B6D" d="M196.89,40.888c0.017,0.051-0.221-0.085-0.357-0.085c-0.374,0.051,0.119,0.731-0.152,0.969
		c-0.357,0.323-0.731-0.187-1.241-0.119c-0.663,0.068-1.648,0.952-1.156,0.612c0.357-0.272,0.612-0.527,1.088-0.629
		c0.493-0.085,0.952,0.493,1.31,0.136c0.237-0.255-0.238-0.901,0.136-0.952C196.669,40.803,196.89,40.888,196.89,40.888z
		 M200.17,36.366c0.426-0.306-1.547-2.108-2.855-2.108c-1.547,0-2.532,1.734-2.532,3.349c0,3.365,4.776,1.054,4.776,3.417
		c0,1.071-0.766,2.516-1.734,2.516c-1.122,0-2.583-2.04-2.924-1.683l-0.544,0.017c-0.255,0.595,1.684,2.312,3.196,2.312
		c1.768,0,3.246-1.564,3.246-3.4c0-3.162-5.456-1.104-5.456-3.399c0-1.462,1.156-2.006,2.022-2.006c0.833,0,1.632,0.527,2.108,1.088
		c0.102,0.119,0.595,0.374,0.646-0.017L200.17,36.366z"/>
	<path fill="#416B6D" d="M215.708,39.902c0.884,0.17-0.748,0.629-0.901,1.819c-0.017,0.629,1.258,1.513,0.918,2.363l-0.17,0.51
		c-0.034,0.765-0.544-2.209-1.632-2.09c-0.901,0.255-1.903,1.683-3.247,1.683c-2.039,0-3.705-1.632-3.705-3.723
		c0-1.853,3.025-4.25,3.161-5.083c-0.033-0.544-1.173-1.649-1.173-2.924c0-1.632,0.307-2.125,1.87-2.125
		c1.513,0,2.499,1.122,2.499,2.72c0,1.632-1.309,2.091-1.564,2.601c-0.067,0.374,0.851,2.448,1.088,3.026
		c0.527,1.207,0.918,2.142,1.326,2.278c0.663-0.102,0.306-1.802,1.19-1.275L215.708,39.902z M207.905,40.922
		c0,1.445,1.105,2.21,2.601,2.21c1.037,0,2.363-0.901,2.975-1.632c-0.102-0.408-0.68-1.496-1.258-2.499
		c-0.577-1.02-0.748-2.805-1.173-2.822C209.792,35.856,207.905,39.528,207.905,40.922z M212.223,33.426
		c0-0.799-0.476-1.411-1.24-1.411c-0.884,0-1.003-0.085-1.003,0.731c0,0.901,0.459,2.193,1.003,2.21
		C211.883,35.006,212.223,34.395,212.223,33.426z M211.067,36.434c-0.085,0.034,0.051,0.272,0.136,0.238
		S211.152,36.4,211.067,36.434z M213.787,35.822c-0.085,0.034,0.051,0.272,0.136,0.238
		C214.008,36.026,213.872,35.789,213.787,35.822z M214.263,35.415c-0.119,0.068,0.085,0.408,0.204,0.34
		S214.382,35.346,214.263,35.415z M215.826,40.752c-0.051,0.017,0.052,0.187,0.103,0.17S215.878,40.735,215.826,40.752z"/>
	<path fill="#416B6D" d="M169.944,61.288c0.017,0.051-0.221-0.085-0.357-0.085c-0.374,0.051,0.119,0.731-0.152,0.969
		c-0.357,0.323-0.731-0.187-1.241-0.119c-0.663,0.068-1.648,0.952-1.156,0.612c0.357-0.272,0.612-0.527,1.088-0.629
		c0.493-0.085,0.952,0.493,1.31,0.136c0.237-0.255-0.238-0.901,0.136-0.952C169.724,61.203,169.944,61.288,169.944,61.288z
		 M173.225,56.766c0.426-0.306-1.547-2.107-2.855-2.107c-1.547,0-2.532,1.733-2.532,3.349c0,3.365,4.776,1.054,4.776,3.417
		c0,1.071-0.766,2.516-1.734,2.516c-1.122,0-2.583-2.04-2.924-1.683l-0.544,0.017c-0.255,0.595,1.684,2.312,3.196,2.312
		c1.768,0,3.246-1.564,3.246-3.399c0-3.162-5.456-1.105-5.456-3.4c0-1.462,1.156-2.006,2.022-2.006c0.833,0,1.632,0.527,2.108,1.088
		c0.102,0.119,0.595,0.374,0.646-0.017L173.225,56.766z"/>
	<path fill="#416B6D" d="M180.076,56.664c-0.068,0.272-1.071,4.675-1.717,7.649l-1.003,0.085c0,0-0.323,0.238-0.51-0.68
		c-0.255-1.224-0.714-4.301-1.955-7.479c-0.067-0.153-0.017-0.816,0-1.003c0.018-0.323,0.103-0.17,0.425-0.187
		c0.392-0.017,0.629,0.357,0.766,0.68c1.206,2.89,1.614,6.833,1.614,6.833h0.034l1.904-6.646c0.051-0.51,0.747-0.357,0.951-0.034
		c0.392,0.629,2.057,6.612,2.142,6.799c0.8,1.904,1.326-3.875,1.666-7.241c0.018-0.221,0.408-0.272,0.646-0.204
		c0.407,0.119,0.255,0.646,0.204,1.054c-0.374,3.332-0.918,5.422-2.091,8.023c0,0-0.663,0.357-1.003,0.17
		c-0.103-0.051-0.238-0.204-0.238-0.204S180.467,55.101,180.076,56.664z M177.017,63.565c-0.221,0.102,0.085,0.68,0.306,0.578
		C177.544,64.042,177.237,63.463,177.017,63.565z"/>
	<path fill="#416B6D" d="M180.91,62.852c0,0.102-0.034,0.187-0.068,0.272c-0.102,0.238-0.323-0.629-0.085-0.697
		C180.825,62.545,180.91,62.682,180.91,62.852z M189.001,59.86c0.799-0.51,4.369-0.221,4.369-0.221
		c0.271-0.051,0.288-0.969-0.018-2.057c-0.051-0.153-0.119-0.85-0.187-0.986c-0.137-0.255-0.17-0.051-0.307-0.306
		c-0.255-0.493-0.476-0.935-0.935-0.986c-0.136-0.017-0.238-0.425-0.306-0.459c-0.408-0.221-0.766-0.187-1.31-0.187
		c-0.68,0-1.394,0.221-1.903,0.458c-0.408,0.187-0.238,0.187-0.306,0.289c-0.612,0.935-1.377,2.023-1.547,4.216
		c-0.034,0.493-0.103,0.969,0,1.36c0.696,2.499,1.954,3.604,3.756,3.604c1.615,0,3.247-2.363,2.669-2.346l-0.102-0.221
		c-0.442-0.136-2.261,2.091-2.669,1.921c-0.374-0.153-1.683-0.442-2.447-1.411c-0.153-0.187-0.052-0.204-0.238-0.408
		c-0.51-0.527,0.119-0.884,0.119-2.244C187.642,59.877,188.56,60.132,189.001,59.86z M191.075,58.84
		c-1.224,0.221-3.229,0.357-3.229,0.357c-0.459,0.017-0.204-2.329,1.036-3.042c0.392-0.221,1.021-0.68,1.666-0.544
		c0.527,0.119,1.445,0.408,1.615,1.054c0.051,0.187,0.237,0.068,0.204,0.527c-0.068,0.85,0.221,1.666,0,1.733
		C192.367,58.925,191.466,58.772,191.075,58.84z M192.4,59.384c-0.203-0.306,0.068-0.748,0.068-0.748
		C192.333,58.568,192.656,59.758,192.4,59.384z"/>
	<path fill="#416B6D" d="M189.614,62.852c0,0.102-0.034,0.187-0.068,0.272c-0.102,0.238-0.323-0.629-0.085-0.697
		C189.529,62.545,189.614,62.682,189.614,62.852z M197.705,59.86c0.799-0.51,4.369-0.221,4.369-0.221
		c0.271-0.051,0.289-0.969-0.018-2.057c-0.051-0.153-0.119-0.85-0.187-0.986c-0.137-0.255-0.17-0.051-0.307-0.306
		c-0.255-0.493-0.476-0.935-0.935-0.986c-0.136-0.017-0.238-0.425-0.306-0.459c-0.408-0.221-0.766-0.187-1.31-0.187
		c-0.68,0-1.394,0.221-1.903,0.458c-0.408,0.187-0.238,0.187-0.306,0.289c-0.612,0.935-1.377,2.023-1.547,4.216
		c-0.034,0.493-0.103,0.969,0,1.36c0.696,2.499,1.954,3.604,3.756,3.604c1.615,0,3.247-2.363,2.669-2.346l-0.102-0.221
		c-0.442-0.136-2.261,2.091-2.669,1.921c-0.374-0.153-1.683-0.442-2.447-1.411c-0.153-0.187-0.052-0.204-0.238-0.408
		c-0.51-0.527,0.119-0.884,0.119-2.244C196.346,59.877,197.264,60.132,197.705,59.86z M199.779,58.84
		c-1.225,0.221-3.229,0.357-3.229,0.357c-0.459,0.017-0.204-2.329,1.036-3.042c0.392-0.221,1.021-0.68,1.666-0.544
		c0.527,0.119,1.445,0.408,1.615,1.054c0.051,0.187,0.237,0.068,0.204,0.527c-0.068,0.85,0.221,1.666,0,1.733
		C201.071,58.925,200.17,58.772,199.779,58.84z M201.104,59.384c-0.203-0.306,0.068-0.748,0.068-0.748
		C201.037,58.568,201.36,59.758,201.104,59.384z"/>
	<path fill="#416B6D" d="M203.622,54.964c0.255-0.34,1.121-0.034,1.121-0.034l0.068-2.805c0,0,0.085-0.306,0.204-0.391
		c0.271-0.204,0.884,0.289,0.884,0.289s0.136,0.782,0.034,1.683c-0.051,0.51,0.136,1.224,0.136,1.224s1.887-0.612,2.107,0.17
		c0.034,0.119,0.052,0.34,0.052,0.34l-0.307,0.544l-1.853,0.068c0,0,0,0.408,0,0.68c0,0.153-0.238,0.357-0.238,0.527
		c0,0.119,0.238,0.782,0.238,0.901c0,1.955,0,3.791,0,3.791c0,0.918-0.102,2.652,0.731,1.921c0.271-0.238,1.036-1.496,1.291-0.901
		l0.238,0.187c0.561,0.357-1.003,1.428-1.462,1.428c-2.243,0-2.125-1.513-2.125-3.229v-5.304l-0.918-0.034
		C203.825,56.018,203.366,55.304,203.622,54.964z"/>
	<path fill="#416B6D" d="M211.968,61.288c0.017,0.051-0.221-0.085-0.357-0.085c-0.374,0.051,0.119,0.731-0.152,0.969
		c-0.357,0.323-0.731-0.187-1.241-0.119c-0.663,0.068-1.648,0.952-1.156,0.612c0.357-0.272,0.612-0.527,1.088-0.629
		c0.493-0.085,0.952,0.493,1.31,0.136c0.237-0.255-0.238-0.901,0.136-0.952C211.747,61.203,211.968,61.288,211.968,61.288z
		 M215.248,56.766c0.426-0.306-1.547-2.107-2.855-2.107c-1.547,0-2.532,1.733-2.532,3.349c0,3.365,4.776,1.054,4.776,3.417
		c0,1.071-0.766,2.516-1.734,2.516c-1.122,0-2.583-2.04-2.924-1.683l-0.544,0.017c-0.255,0.595,1.684,2.312,3.196,2.312
		c1.768,0,3.246-1.564,3.246-3.399c0-3.162-5.456-1.105-5.456-3.4c0-1.462,1.156-2.006,2.022-2.006c0.833,0,1.632,0.527,2.108,1.088
		c0.102,0.119,0.595,0.374,0.646-0.017L215.248,56.766z"/>
</g>
<g>
	<path fill="#416B6D" d="M144.557,134.324c0,0-0.153,0.493-0.391,0.51c-0.272,0.017-0.511-0.51-0.511-0.51l-0.255-9.213
		c0,0,0.799-0.187,1.021,0.119c0.102,0.153,0.136,0.476,0.136,0.476l0.17,0.544c0.782-0.629,1.513-1.241,2.584-1.241
		c1.326,0,2.532,0.731,2.396,3.179c0,0,0.51,3.723-0.356,5.797c-0.068,0.187-0.238,0.51-0.238,0.51l-0.562,0.085
		c0,0-0.391,0.102-0.34-0.255c0.085-0.748,0.477-2.516,0.459-3.485c-0.017-0.833-0.204-2.142-0.204-2.142
		c-0.085-0.952,0-2.074-1.325-2.601c-1.496-0.595-1.887,0.799-2.414,1.428L144.557,134.324z"/>
	<path fill="#416B6D" d="M157.935,127.184l0.119,7.479c0,0-0.765,0.306-1.071,0.034c-0.067-0.051-0.152-0.204-0.152-0.204
		l-0.034-0.391c-0.034-1.241-1.581,0.833-2.651,0.833c-1.326,0-2.397-0.731-2.397-3.179c0,0,0.238-3.604,0-5.762
		c-0.102-0.935,0.714-0.714,0.714-0.714l0.408,0.034c0,0,0.272,0,0.204,0.51c-0.289,2.227-0.17,5.592-0.17,5.592
		c-0.034,0.986,0.85,2.601,1.921,2.601c0.815,0,1.818-0.595,1.903-1.598c0,0,0.103-4.93,0.018-6.731c0-0.102,0.204-0.102,0.306-0.17
		c0.136-0.068,0.204-0.187,0.34-0.238c0.085-0.034,0.51,0.068,0.612,0.068C158.377,125.382,157.935,127.184,157.935,127.184z
		 M153.329,127.542c0.018-0.357-0.765-0.527-0.526-0.816c0.085-0.119,0.322-0.204,0.322-0.204c0.052,0.017-0.237,0.085-0.322,0.187
		C152.564,126.998,153.363,127.167,153.329,127.542z"/>
	<path fill="#416B6D" d="M159.518,125.314c0.255-0.34,1.121-0.034,1.121-0.034l0.068-2.805c0,0,0.085-0.306,0.204-0.391
		c0.271-0.204,0.884,0.289,0.884,0.289s0.136,0.782,0.034,1.683c-0.051,0.51,0.136,1.224,0.136,1.224s1.887-0.612,2.107,0.17
		c0.034,0.119,0.052,0.34,0.052,0.34l-0.307,0.544l-1.853,0.068c0,0,0,0.408,0,0.68c0,0.153-0.238,0.357-0.238,0.527
		c0,0.119,0.238,0.782,0.238,0.901c0,1.955,0,3.791,0,3.791c0,0.918-0.102,2.652,0.731,1.921c0.271-0.238,1.036-1.496,1.291-0.901
		l0.238,0.187c0.562,0.357-1.003,1.428-1.462,1.428c-2.243,0-2.125-1.513-2.125-3.229v-5.304l-0.918-0.034
		C159.721,126.369,159.262,125.654,159.518,125.314z"/>
	<path fill="#416B6D" d="M167.864,131.638c0.017,0.051-0.221-0.085-0.357-0.085c-0.374,0.051,0.119,0.731-0.152,0.969
		c-0.357,0.323-0.731-0.187-1.241-0.119c-0.663,0.068-1.648,0.952-1.156,0.612c0.357-0.272,0.612-0.527,1.088-0.629
		c0.493-0.085,0.952,0.493,1.31,0.136c0.237-0.255-0.238-0.901,0.136-0.952C167.643,131.553,167.864,131.638,167.864,131.638z
		 M171.144,127.116c0.425-0.306-1.547-2.108-2.855-2.108c-1.547,0-2.532,1.734-2.532,3.349c0,3.365,4.776,1.054,4.776,3.417
		c0,1.071-0.766,2.516-1.734,2.516c-1.122,0-2.583-2.04-2.924-1.683l-0.544,0.017c-0.255,0.595,1.684,2.312,3.196,2.312
		c1.768,0,3.246-1.564,3.246-3.4c0-3.162-5.456-1.104-5.456-3.399c0-1.462,1.156-2.006,2.022-2.006c0.833,0,1.632,0.527,2.108,1.088
		c0.102,0.119,0.595,0.374,0.646-0.017L171.144,127.116z"/>
	<path fill="#416B6D" d="M173.899,132.658c0.51-0.442,1.156-0.527,1.598-0.255c0.527,0.323,0.222,1.003,0.052,1.7
		c-0.307,1.258-1.071,3.179-2.21,2.89c-0.085-0.017-0.153-0.051-0.238-0.085c-0.714-0.357,1.343-1.564,1.037-2.294
		c-0.136-0.391-0.782-0.255-0.833-0.68C173.236,133.474,173.474,133.032,173.899,132.658z"/>
	<path fill="#416B6D" d="M185.816,131.638c0.017,0.051-0.221-0.085-0.357-0.085c-0.374,0.051,0.119,0.731-0.152,0.969
		c-0.357,0.323-0.731-0.187-1.241-0.119c-0.663,0.068-1.648,0.952-1.156,0.612c0.357-0.272,0.612-0.527,1.088-0.629
		c0.493-0.085,0.952,0.493,1.31,0.136c0.237-0.255-0.238-0.901,0.136-0.952C185.595,131.553,185.816,131.638,185.816,131.638z
		 M189.096,127.116c0.426-0.306-1.547-2.108-2.855-2.108c-1.547,0-2.532,1.734-2.532,3.349c0,3.365,4.776,1.054,4.776,3.417
		c0,1.071-0.766,2.516-1.734,2.516c-1.122,0-2.583-2.04-2.924-1.683l-0.544,0.017c-0.255,0.595,1.684,2.312,3.196,2.312
		c1.768,0,3.246-1.564,3.246-3.4c0-3.162-5.456-1.104-5.456-3.399c0-1.462,1.156-2.006,2.022-2.006c0.833,0,1.632,0.527,2.108,1.088
		c0.102,0.119,0.595,0.374,0.646-0.017L189.096,127.116z"/>
	<path fill="#416B6D" d="M185.476,133.202c0,0.102-0.034,0.187-0.068,0.272c-0.102,0.238-0.323-0.629-0.085-0.697
		C185.391,132.896,185.476,133.032,185.476,133.202z M193.567,130.21c0.799-0.51,4.369-0.221,4.369-0.221
		c0.271-0.051,0.289-0.969-0.018-2.057c-0.051-0.153-0.119-0.85-0.187-0.986c-0.137-0.255-0.17-0.051-0.307-0.306
		c-0.255-0.493-0.476-0.935-0.935-0.986c-0.136-0.017-0.238-0.425-0.306-0.459c-0.408-0.221-0.766-0.187-1.31-0.187
		c-0.68,0-1.394,0.221-1.903,0.459c-0.408,0.187-0.238,0.187-0.306,0.289c-0.612,0.935-1.377,2.023-1.547,4.216
		c-0.034,0.493-0.103,0.969,0,1.36c0.696,2.499,1.954,3.604,3.756,3.604c1.615,0,3.247-2.363,2.669-2.346l-0.102-0.221
		c-0.442-0.136-2.261,2.091-2.669,1.921c-0.374-0.153-1.683-0.442-2.447-1.411c-0.153-0.187-0.052-0.204-0.238-0.408
		c-0.51-0.527,0.119-0.884,0.119-2.244C192.208,130.227,193.125,130.482,193.567,130.21z M195.641,129.19
		c-1.225,0.221-3.229,0.357-3.229,0.357c-0.459,0.017-0.204-2.329,1.036-3.042c0.392-0.221,1.021-0.68,1.666-0.544
		c0.527,0.119,1.445,0.408,1.615,1.054c0.051,0.187,0.237,0.068,0.204,0.527c-0.068,0.85,0.221,1.666,0,1.733
		C196.933,129.275,196.032,129.122,195.641,129.19z M196.966,129.734c-0.203-0.306,0.068-0.748,0.068-0.748
		C196.899,128.918,197.222,130.108,196.966,129.734z"/>
	<path fill="#416B6D" d="M194.18,133.202c0,0.102-0.034,0.187-0.068,0.272c-0.102,0.238-0.323-0.629-0.085-0.697
		C194.095,132.896,194.18,133.032,194.18,133.202z M202.271,130.21c0.799-0.51,4.37-0.221,4.37-0.221
		c0.271-0.051,0.287-0.969-0.018-2.057c-0.051-0.153-0.119-0.85-0.188-0.986c-0.137-0.255-0.17-0.051-0.307-0.306
		c-0.254-0.493-0.475-0.935-0.934-0.986c-0.137-0.017-0.238-0.425-0.307-0.459c-0.408-0.221-0.766-0.187-1.309-0.187
		c-0.68,0-1.394,0.221-1.904,0.459c-0.408,0.187-0.238,0.187-0.306,0.289c-0.612,0.935-1.377,2.023-1.547,4.216
		c-0.034,0.493-0.103,0.969,0,1.36c0.696,2.499,1.954,3.604,3.756,3.604c1.615,0,3.246-2.363,2.668-2.346l-0.102-0.221
		c-0.441-0.136-2.26,2.091-2.668,1.921c-0.375-0.153-1.683-0.442-2.448-1.411c-0.153-0.187-0.052-0.204-0.238-0.408
		c-0.51-0.527,0.119-0.884,0.119-2.244C200.912,130.227,201.83,130.482,202.271,130.21z M204.346,129.19
		c-1.225,0.221-3.23,0.357-3.23,0.357c-0.459,0.017-0.204-2.329,1.036-3.042c0.392-0.221,1.02-0.68,1.667-0.544
		c0.527,0.119,1.445,0.408,1.615,1.054c0.051,0.187,0.236,0.068,0.203,0.527c-0.068,0.85,0.221,1.666,0,1.733
		C205.637,129.275,204.736,129.122,204.346,129.19z M205.67,129.734c-0.203-0.306,0.068-0.748,0.068-0.748
		C205.604,128.918,205.926,130.108,205.67,129.734z"/>
	<path fill="#416B6D" d="M214.801,121.252c0.17,0.204,0.475,0.527,0.475,0.527s0.289,0.799,0.035,1.428
		c-0.154,0.374,0.203,1.972,0.051,3.485c-0.035,0.408,0.084,1.275,0.068,1.751c0,0.374-0.154,0.34-0.154,0.731
		c0,2.346,0.205,4.827,0.205,4.827s-0.273,0.646-0.646,0.714c-0.629,0.119-0.322-1.581-0.322-1.581
		c-0.629,0.782-1.514,1.802-2.551,1.802c-1.275,0-3.332-1.122-3.332-4.726c0-0.408,0.086-1.003,0.137-1.394
		c0.033-0.255-0.068-0.357-0.018-0.612c0.443-1.887,1.412-3.094,2.432-2.873c0.543,0.119-0.018-0.476,1.088-0.221
		c0.883,0.204,2.039,1.258,2.396,2.414c0,0-0.086-1.054-0.188-2.397c-0.102-1.411-0.221-3.127-0.018-3.621L214.801,121.252z
		 M214.357,127.677c-0.408-0.816-1.223-1.87-2.244-1.87c-0.918,0-1.428,0.782-1.869,1.462c-0.102,0.153-0.34,0.051-0.408,0.204
		c-0.289,0.612-0.424,1.309-0.424,1.887c0,1.615,0.814,2.856,1.309,3.927c0.102,0.221,1.41,0.748,1.785,0.748
		c0.934,0,1.479-1.207,1.852-2.006c0,0,0.119-1.309,0.119-2.159S214.357,127.677,214.357,127.677z M212.521,132.624
		c0,0-0.203,0.102,0,0.408C212.777,133.406,212.387,132.556,212.521,132.624z"/>
	<path fill="#416B6D" d="M220.377,131.638c0.016,0.051-0.221-0.085-0.357-0.085c-0.375,0.051,0.119,0.731-0.152,0.969
		c-0.357,0.323-0.732-0.187-1.242-0.119c-0.662,0.068-1.648,0.952-1.156,0.612c0.357-0.272,0.613-0.527,1.088-0.629
		c0.494-0.085,0.953,0.493,1.311,0.136c0.236-0.255-0.238-0.901,0.135-0.952C220.156,131.553,220.377,131.638,220.377,131.638z
		 M223.656,127.116c0.426-0.306-1.547-2.108-2.855-2.108c-1.547,0-2.531,1.734-2.531,3.349c0,3.365,4.775,1.054,4.775,3.417
		c0,1.071-0.766,2.516-1.734,2.516c-1.121,0-2.582-2.04-2.924-1.683l-0.543,0.017c-0.256,0.595,1.684,2.312,3.195,2.312
		c1.768,0,3.246-1.564,3.246-3.4c0-3.162-5.455-1.104-5.455-3.399c0-1.462,1.156-2.006,2.021-2.006c0.834,0,1.633,0.527,2.109,1.088
		c0.102,0.119,0.594,0.374,0.645-0.017L223.656,127.116z"/>
	<path fill="#416B6D" d="M226.41,132.658c0.51-0.442,1.156-0.527,1.598-0.255c0.527,0.323,0.223,1.003,0.053,1.7
		c-0.307,1.258-1.072,3.179-2.211,2.89c-0.084-0.017-0.152-0.051-0.238-0.085c-0.713-0.357,1.344-1.564,1.037-2.294
		c-0.135-0.391-0.781-0.255-0.832-0.68C225.748,133.474,225.986,133.032,226.41,132.658z"/>
	<path fill="#416B6D" d="M125.084,153.602c0,0.102-0.034,0.187-0.068,0.272c-0.102,0.238-0.323-0.629-0.085-0.697
		C125,153.295,125.084,153.432,125.084,153.602z M133.175,150.61c0.799-0.51,4.369-0.221,4.369-0.221
		c0.271-0.051,0.288-0.969-0.018-2.057c-0.051-0.153-0.119-0.85-0.187-0.986c-0.137-0.255-0.17-0.051-0.307-0.306
		c-0.255-0.493-0.476-0.935-0.935-0.986c-0.136-0.017-0.238-0.425-0.306-0.459c-0.408-0.221-0.766-0.187-1.31-0.187
		c-0.68,0-1.394,0.221-1.903,0.458c-0.408,0.187-0.238,0.187-0.306,0.289c-0.612,0.935-1.377,2.023-1.547,4.216
		c-0.034,0.493-0.103,0.969,0,1.36c0.696,2.499,1.954,3.604,3.756,3.604c1.615,0,3.247-2.363,2.669-2.346l-0.102-0.221
		c-0.442-0.136-2.261,2.091-2.669,1.921c-0.374-0.153-1.683-0.442-2.447-1.411c-0.153-0.187-0.052-0.204-0.238-0.408
		c-0.51-0.527,0.119-0.884,0.119-2.244C131.816,150.627,132.734,150.882,133.175,150.61z M135.25,149.59
		c-1.224,0.221-3.229,0.357-3.229,0.357c-0.459,0.017-0.204-2.329,1.036-3.042c0.392-0.221,1.021-0.68,1.666-0.544
		c0.527,0.119,1.445,0.408,1.615,1.054c0.051,0.187,0.237,0.068,0.204,0.527c-0.068,0.85,0.221,1.666,0,1.733
		C136.542,149.675,135.64,149.522,135.25,149.59z M136.575,150.134c-0.203-0.306,0.068-0.748,0.068-0.748
		C136.507,149.318,136.831,150.508,136.575,150.134z"/>
	<path fill="#416B6D" d="M147.506,146.445l-0.493,0.17c-0.238,0.068-0.578-0.17-0.918,0.017c-0.272,0.017,0.374,1.343,0.374,2.04
		c0,1.818-1.343,3.229-3.162,3.229c-0.544,0-1.529-0.153-2.022-0.34c-0.187-0.323-1.156,0.544-1.156,1.003
		c0,1.189,7.123-0.255,7.123,3.297c0,0.697-0.272,2.856-4.029,2.856c-3.06,0-3.96-1.598-3.96-2.754c0-0.969,0.85-1.496,1.632-1.836
		c0.051-0.272-1.173-0.629-1.173-1.309c0-0.833,1.104-1.445,1.07-1.768c-0.68-0.799-0.935-1.309-0.935-2.414
		c0-1.904,1.428-3.229,3.314-3.229c0.748,0,1.428,0.221,2.04,0.663c0.611-0.459,1.326-0.799,2.125-0.714L147.506,146.445z
		 M141.046,155.013c0.238-0.51-1.343,1.394-0.611,1.376c0.577-0.017,0.187-0.442,0.306-0.714
		C140.842,155.438,140.945,155.25,141.046,155.013z M142.253,154.282c-0.714,0.136-1.717,0.765-1.717,1.615
		c0,1.292,2.107,2.278,3.009,2.278c0.952,0,2.431-1.105,2.431-2.397c0-0.986-1.614-1.938-2.227-1.819L142.253,154.282z
		 M143.206,146.105c-1.275,0-2.38,1.377-2.38,2.583c0,1.173,1.088,2.465,2.312,2.465c1.36,0,2.108-1.19,2.108-2.481
		C145.246,147.448,144.532,146.105,143.206,146.105z M144.463,160.214c-0.204,0.119,0.136,0.578,0.306,0.51
		C145.109,160.605,144.667,160.095,144.463,160.214z"/>
	<path fill="#416B6D" d="M156.907,146.445l-0.493,0.17c-0.238,0.068-0.578-0.17-0.918,0.017c-0.272,0.017,0.374,1.343,0.374,2.04
		c0,1.818-1.343,3.229-3.162,3.229c-0.544,0-1.529-0.153-2.022-0.34c-0.187-0.323-1.156,0.544-1.156,1.003
		c0,1.189,7.123-0.255,7.123,3.297c0,0.697-0.272,2.856-4.029,2.856c-3.06,0-3.96-1.598-3.96-2.754c0-0.969,0.85-1.496,1.632-1.836
		c0.051-0.272-1.173-0.629-1.173-1.309c0-0.833,1.104-1.445,1.07-1.768c-0.68-0.799-0.935-1.309-0.935-2.414
		c0-1.904,1.428-3.229,3.314-3.229c0.748,0,1.428,0.221,2.04,0.663c0.611-0.459,1.326-0.799,2.125-0.714L156.907,146.445z
		 M150.447,155.013c0.238-0.51-1.343,1.394-0.611,1.376c0.577-0.017,0.187-0.442,0.306-0.714
		C150.243,155.438,150.345,155.25,150.447,155.013z M151.654,154.282c-0.714,0.136-1.717,0.765-1.717,1.615
		c0,1.292,2.107,2.278,3.009,2.278c0.952,0,2.431-1.105,2.431-2.397c0-0.986-1.614-1.938-2.227-1.819L151.654,154.282z
		 M152.606,146.105c-1.275,0-2.38,1.377-2.38,2.583c0,1.173,1.088,2.465,2.312,2.465c1.36,0,2.108-1.19,2.108-2.481
		C154.646,147.448,153.932,146.105,152.606,146.105z M153.864,160.214c-0.204,0.119,0.136,0.578,0.306,0.51
		C154.509,160.605,154.068,160.095,153.864,160.214z"/>
	<path fill="#416B6D" d="M167.957,147.414c-0.068,0.272-1.071,4.675-1.717,7.649l-1.003,0.085c0,0-0.323,0.238-0.51-0.68
		c-0.255-1.224-0.714-4.301-1.955-7.479c-0.067-0.153-0.017-0.816,0-1.003c0.018-0.323,0.103-0.17,0.425-0.187
		c0.392-0.017,0.629,0.357,0.766,0.68c1.206,2.89,1.614,6.833,1.614,6.833h0.034l1.903-6.646c0.052-0.51,0.748-0.357,0.952-0.034
		c0.392,0.629,2.057,6.612,2.142,6.799c0.8,1.904,1.326-3.875,1.666-7.241c0.018-0.221,0.408-0.272,0.646-0.204
		c0.407,0.119,0.255,0.646,0.204,1.054c-0.374,3.332-0.918,5.422-2.091,8.023c0,0-0.663,0.357-1.003,0.17
		c-0.103-0.051-0.238-0.204-0.238-0.204S168.347,145.851,167.957,147.414z M164.897,154.315c-0.221,0.102,0.085,0.68,0.306,0.578
		C165.424,154.792,165.118,154.213,164.897,154.315z"/>
	<path fill="#416B6D" d="M175.998,146.734c0.612,0.391,1.513-1.326,2.584-1.326c1.325,0,2.431,0.73,2.396,3.178l-0.255,6.052
		l-0.73,0.425c0,0-0.426-0.425-0.392-0.765c0.136-1.632,0.051-5.371,0.051-5.371c-0.017-0.986,0.255-2.601-1.155-2.601
		c-0.816,0-2.737,0.969-2.499,1.683l-0.255,6.459l-0.476,0.425c0,0-0.714,0.085-0.681-0.17c0.511-4.521,0.663-10.947,0.477-12.307
		c-0.222-1.546,0.714-1.428,0.714-1.428l0.476,0.34L175.998,146.734z"/>
	<path fill="#416B6D" d="M184.209,143.216c0,0-0.289,0.289-0.51,0.289c-0.119,0-0.307-0.119-0.307-0.119s-0.425-0.34-0.459-0.646
		c-0.051-0.34,0.289-0.816,0.289-0.816s0.255-0.102,0.392-0.119c0.255-0.034,0.68,0.034,0.68,0.034s0.085,0.391,0.085,0.646
		C184.379,142.774,184.209,143.216,184.209,143.216z M184.379,155.063h-1.326c0,0,0.204-5.32-0.034-8.839
		c-0.017-0.187,0.034-0.544,0.034-0.544s0.544-0.102,0.816,0.034c0.102,0.051,0.255,0.221,0.255,0.221s0.17,0.119,0.085,1.479
		C184.04,150.134,184.379,155.063,184.379,155.063z"/>
	<path fill="#416B6D" d="M185.875,145.714c0.255-0.34,1.121-0.034,1.121-0.034l0.068-2.805c0,0,0.085-0.306,0.204-0.391
		c0.271-0.204,0.884,0.289,0.884,0.289s0.136,0.782,0.034,1.683c-0.051,0.51,0.136,1.224,0.136,1.224s1.887-0.612,2.107,0.17
		c0.034,0.119,0.052,0.34,0.052,0.34l-0.307,0.544l-1.853,0.068c0,0,0,0.408,0,0.68c0,0.153-0.238,0.357-0.238,0.527
		c0,0.119,0.238,0.782,0.238,0.901c0,1.955,0,3.791,0,3.791c0,0.918-0.102,2.652,0.731,1.921c0.271-0.238,1.036-1.496,1.291-0.901
		l0.238,0.187c0.562,0.357-1.003,1.428-1.462,1.428c-2.243,0-2.125-1.513-2.125-3.229v-5.304l-0.918-0.034
		C186.079,146.768,185.62,146.054,185.875,145.714z"/>
	<path fill="#416B6D" d="M185.723,153.602c0,0.102-0.034,0.187-0.068,0.272c-0.102,0.238-0.323-0.629-0.085-0.697
		C185.638,153.295,185.723,153.432,185.723,153.602z M193.814,150.61c0.799-0.51,4.369-0.221,4.369-0.221
		c0.271-0.051,0.288-0.969-0.018-2.057c-0.051-0.153-0.119-0.85-0.187-0.986c-0.137-0.255-0.17-0.051-0.307-0.306
		c-0.255-0.493-0.476-0.935-0.935-0.986c-0.136-0.017-0.238-0.425-0.306-0.459c-0.408-0.221-0.766-0.187-1.31-0.187
		c-0.68,0-1.394,0.221-1.903,0.458c-0.408,0.187-0.238,0.187-0.306,0.289c-0.612,0.935-1.377,2.023-1.547,4.216
		c-0.034,0.493-0.103,0.969,0,1.36c0.696,2.499,1.954,3.604,3.756,3.604c1.615,0,3.247-2.363,2.669-2.346l-0.102-0.221
		c-0.442-0.136-2.261,2.091-2.669,1.921c-0.374-0.153-1.683-0.442-2.447-1.411c-0.153-0.187-0.052-0.204-0.238-0.408
		c-0.51-0.527,0.119-0.884,0.119-2.244C192.455,150.627,193.373,150.882,193.814,150.61z M195.888,149.59
		c-1.224,0.221-3.229,0.357-3.229,0.357c-0.459,0.017-0.204-2.329,1.036-3.042c0.392-0.221,1.021-0.68,1.666-0.544
		c0.527,0.119,1.445,0.408,1.615,1.054c0.051,0.187,0.237,0.068,0.204,0.527c-0.068,0.85,0.221,1.666,0,1.733
		C197.18,149.675,196.279,149.522,195.888,149.59z M197.213,150.134c-0.203-0.306,0.068-0.748,0.068-0.748
		C197.146,149.318,197.469,150.508,197.213,150.134z"/>
	<path fill="#416B6D" d="M202.925,152.038c0.017,0.051-0.221-0.085-0.357-0.085c-0.374,0.051,0.119,0.731-0.152,0.969
		c-0.357,0.323-0.731-0.187-1.241-0.119c-0.663,0.068-1.648,0.952-1.156,0.612c0.357-0.272,0.612-0.527,1.088-0.629
		c0.493-0.085,0.952,0.493,1.31,0.136c0.237-0.255-0.238-0.901,0.136-0.952C202.705,151.953,202.925,152.038,202.925,152.038z
		 M206.205,147.516c0.426-0.306-1.547-2.107-2.855-2.107c-1.546,0-2.532,1.733-2.532,3.349c0,3.365,4.776,1.054,4.776,3.417
		c0,1.071-0.766,2.516-1.734,2.516c-1.122,0-2.583-2.04-2.923-1.683l-0.544,0.017c-0.255,0.595,1.684,2.312,3.196,2.312
		c1.768,0,3.246-1.564,3.246-3.399c0-3.162-5.456-1.105-5.456-3.4c0-1.462,1.156-2.006,2.022-2.006c0.834,0,1.633,0.527,2.109,1.088
		c0.102,0.119,0.594,0.374,0.645-0.017L206.205,147.516z"/>
	<path fill="#416B6D" d="M208.961,153.058c0.51-0.442,1.156-0.527,1.598-0.255c0.527,0.323,0.221,1.003,0.051,1.7
		c-0.307,1.258-1.07,3.179-2.209,2.89c-0.086-0.017-0.154-0.051-0.238-0.085c-0.715-0.357,1.342-1.563,1.037-2.294
		c-0.137-0.391-0.783-0.255-0.834-0.68C208.297,153.874,208.535,153.432,208.961,153.058z"/>
	<path fill="#416B6D" d="M220.877,152.038c0.018,0.051-0.221-0.085-0.357-0.085c-0.373,0.051,0.119,0.731-0.152,0.969
		c-0.357,0.323-0.73-0.187-1.24-0.119c-0.664,0.068-1.648,0.952-1.156,0.612c0.357-0.272,0.611-0.527,1.088-0.629
		c0.492-0.085,0.951,0.493,1.309,0.136c0.238-0.255-0.238-0.901,0.137-0.952C220.656,151.953,220.877,152.038,220.877,152.038z
		 M224.158,147.516c0.424-0.306-1.547-2.107-2.855-2.107c-1.547,0-2.533,1.733-2.533,3.349c0,3.365,4.777,1.054,4.777,3.417
		c0,1.071-0.766,2.516-1.734,2.516c-1.123,0-2.584-2.04-2.924-1.683l-0.545,0.017c-0.254,0.595,1.684,2.312,3.197,2.312
		c1.768,0,3.246-1.564,3.246-3.399c0-3.162-5.457-1.105-5.457-3.4c0-1.462,1.156-2.006,2.023-2.006c0.832,0,1.631,0.527,2.107,1.088
		c0.102,0.119,0.596,0.374,0.646-0.017L224.158,147.516z"/>
	<path fill="#416B6D" d="M226.182,150.372c0-3.519,1.666-4.963,3.756-4.963c2.092,0,3.502,1.7,3.502,5.218s-1.41,4.708-3.502,4.708
		c-1.121,0-2.107-0.408-2.787-1.326c-0.119-0.153-0.084-0.459-0.188-0.646c-0.186-0.34-0.475-0.595-0.576-1.054
		C226.25,151.749,226.182,151.103,226.182,150.372z M227.186,153.092c-0.238,0.068-0.018,0.935,0.084,0.697
		c0.033-0.085,0.068-0.17,0.068-0.272C227.338,153.347,227.252,153.21,227.186,153.092z M232.285,150.372
		c0.236-1.581-0.137-4.267-2.176-4.267c-2.041,0-2.602,2.668-2.602,4.267c0,1.598,0.561,4.606,2.602,4.606
		C232.148,154.979,231.689,154.265,232.285,150.372z"/>
	<path fill="#416B6D" d="M241.191,148.383c-0.119,0.51-0.391,1.122-0.596,1.717c-1.207,3.484-2.855,7.411-5.031,8.21
		c-0.357,0.136-1.461,0.153-1.445-0.272l-0.016-0.493c0.135-0.51,0.645-0.34,0.9-0.238c1.479,0.612,3.18-1.36,2.838-2.414
		l-2.99-8.261c0,0,0.9-1.428,1.189-0.918c0.137,0.238,0.051,0.68,0.051,0.68s1.92,7.275,2.363,7.683
		c0.492,0.459,0.188-0.289,0.188-0.289s0.68-2.652,1.223-4.317c0.289-0.884,0.307-1.394,0.629-2.346
		c0.086-0.272,0.188-0.323,0.188-0.323s0.477-0.374,0.766-0.272C241.922,146.7,241.701,146.887,241.191,148.383z M240.834,150.712
		c0.154-0.017,0.051,0.867,0.34,0.748C241.463,151.341,240.393,150.763,240.834,150.712z"/>
	<path fill="#416B6D" d="M114.135,174.869c0,0,0.018-2.448,0.034-3.995c0-0.748,0.052-1.972,0.052-1.972
		c0.051-1.717,0-2.006-1.411-2.006c-1.139,0.034-1.819,0.629-2.499,1.241c0,0-0.187,2.516-0.221,4.097
		c-0.034,1.207-0.034,3.145-0.034,3.145l-0.986,0.085c0,0,0.018-4.182,0-4.504c-0.255-3.009-0.085-3.978,0.085-4.828
		c0.119-0.578,0.511-0.221,0.511-0.221l0.391,0.425l0.255,0.578c0.816-0.663,1.513-1.105,2.601-1.105
		c1.003,0,1.768,0.425,2.261,1.275c0.867-0.697,1.7-1.258,2.873-1.275c1.326,0,2.227,0.646,2.227,3.094c0,0,0,2.159,0.018,3.502
		c0,1.173,0.067,3.06,0.067,3.06c-0.476,0-1.037-0.034-1.173,0c-0.441,0.136,0.018-6.051,0.018-6.051
		c0.017-3.196,0.17-2.856-1.241-2.856c-0.969-0.017-2.022,0.986-2.584,1.581c0,0-0.136,6.034-0.187,6.986
		C115.156,175.65,114.135,174.869,114.135,174.869z M110.43,165.859c-0.034,0.034,0.34,0.612,0.085,0.085
		C110.056,164.993,110.464,165.825,110.43,165.859z M117.74,176.823c-0.222,0.153,0.68,1.122,0.425,0.595
		C117.706,176.466,117.96,176.67,117.74,176.823z"/>
	<path fill="#416B6D" d="M123.673,163.616c0,0-0.289,0.289-0.51,0.289c-0.119,0-0.307-0.119-0.307-0.119s-0.425-0.34-0.459-0.646
		c-0.051-0.34,0.289-0.816,0.289-0.816s0.255-0.102,0.392-0.119c0.255-0.034,0.68,0.034,0.68,0.034s0.085,0.391,0.085,0.646
		C123.843,163.174,123.673,163.616,123.673,163.616z M123.843,175.463h-1.326c0,0,0.204-5.32-0.034-8.839
		c-0.017-0.187,0.034-0.544,0.034-0.544s0.544-0.102,0.816,0.034c0.102,0.051,0.255,0.221,0.255,0.221s0.17,0.119,0.085,1.479
		C123.503,170.534,123.843,175.463,123.843,175.463z"/>
	<path fill="#416B6D" d="M127.889,162.018c-0.256,5.015,0.118,6.901,0.17,13.174c0,0.408-1.462,0.646-1.445,0.085
		c0.051-3.57-0.102-7.173-0.102-10.08c0-0.306-0.341-0.884-0.323-1.224c0-0.289,0.17-0.51,0.17-0.85
		c0.034-0.969,0.17,0.442,0.255-0.935C126.648,161.712,127.906,161.525,127.889,162.018z M126.699,164.482
		c0.17-0.765,0.425-1.105,0-1.105S126.614,164.891,126.699,164.482z M127.056,168.494c-0.085,0.357-0.17-1.309-0.052-0.969
		c0.068,0.187,0.103,0.306,0.103,0.51C127.107,168.222,127.089,168.324,127.056,168.494z"/>
	<path fill="#416B6D" d="M132.241,170.347c0,0,1.529-0.867,3.145-3.042c0.068-0.102,0.595-0.714,0.595-0.714l0.799,0.85
		l-2.243,1.853c0,0,0.493,3.162,2.21,5.405c0.136,0.17,0.255,0.595,0.255,0.595l-1.173,0.17c0,0-1.31-2.295-1.802-4.334
		c-0.068-0.306-0.596-0.425-0.596-0.425l-1.189,1.462v3.043l-0.646,0.17c0,0-0.781,0.221-0.714-0.51
		c0.408-4.301,0.204-11.95,0.204-11.95l1.156-0.85c0,0,0.153,0.646,0.085,1.071C131.901,165.91,132.241,170.347,132.241,170.347z"/>
	<path fill="#416B6D" d="M152.147,171.452c0.884,0.17-0.748,0.629-0.901,1.819c-0.017,0.629,1.258,1.513,0.918,2.363l-0.17,0.51
		c-0.034,0.765-0.544-2.209-1.632-2.09c-0.901,0.255-1.904,1.683-3.247,1.683c-2.039,0-3.705-1.632-3.705-3.723
		c0-1.853,3.025-4.25,3.161-5.083c-0.033-0.544-1.173-1.649-1.173-2.924c0-1.632,0.307-2.125,1.87-2.125
		c1.513,0,2.499,1.122,2.499,2.72c0,1.632-1.31,2.091-1.564,2.601c-0.067,0.374,0.851,2.448,1.088,3.026
		c0.527,1.207,0.918,2.142,1.326,2.278c0.663-0.102,0.306-1.802,1.19-1.275L152.147,171.452z M144.344,172.472
		c0,1.445,1.105,2.21,2.601,2.21c1.037,0,2.363-0.901,2.975-1.632c-0.102-0.408-0.68-1.496-1.258-2.499
		c-0.577-1.02-0.747-2.805-1.173-2.822C146.231,167.406,144.344,171.078,144.344,172.472z M148.662,164.976
		c0-0.799-0.476-1.411-1.24-1.411c-0.884,0-1.003-0.085-1.003,0.731c0,0.901,0.459,2.193,1.003,2.21
		C148.322,166.556,148.662,165.944,148.662,164.976z M147.506,167.984c-0.085,0.034,0.051,0.272,0.136,0.238
		S147.591,167.95,147.506,167.984z M150.226,167.372c-0.085,0.034,0.051,0.272,0.136,0.238
		C150.447,167.576,150.311,167.338,150.226,167.372z M150.702,166.964c-0.119,0.068,0.085,0.408,0.204,0.34
		S150.821,166.896,150.702,166.964z M152.266,172.302c-0.052,0.017,0.051,0.187,0.102,0.17S152.317,172.285,152.266,172.302z"/>
	<path fill="#416B6D" d="M165.441,162.052c0.17,0.204,0.476,0.527,0.476,0.527s0.289,0.799,0.034,1.428
		c-0.153,0.374,0.204,1.972,0.051,3.485c-0.034,0.408,0.085,1.275,0.068,1.751c0,0.374-0.153,0.34-0.153,0.731
		c0,2.346,0.204,4.827,0.204,4.827s-0.272,0.646-0.646,0.714c-0.629,0.119-0.322-1.581-0.322-1.581
		c-0.629,0.782-1.513,1.802-2.55,1.802c-1.275,0-3.332-1.122-3.332-4.726c0-0.408,0.085-1.003,0.136-1.394
		c0.034-0.255-0.067-0.357-0.017-0.612c0.442-1.887,1.411-3.094,2.431-2.873c0.544,0.119-0.017-0.476,1.088-0.221
		c0.884,0.204,2.04,1.258,2.396,2.414c0,0-0.085-1.054-0.187-2.397c-0.103-1.411-0.221-3.127-0.018-3.621L165.441,162.052z
		 M164.999,168.477c-0.408-0.816-1.224-1.87-2.244-1.87c-0.918,0-1.428,0.782-1.869,1.462c-0.103,0.153-0.34,0.051-0.408,0.204
		c-0.289,0.612-0.425,1.309-0.425,1.887c0,1.615,0.815,2.856,1.309,3.927c0.103,0.221,1.411,0.748,1.785,0.748
		c0.935,0,1.479-1.207,1.853-2.006c0,0,0.119-1.309,0.119-2.159S164.999,168.477,164.999,168.477z M163.163,173.423
		c0,0-0.204,0.102,0,0.408C163.417,174.206,163.027,173.355,163.163,173.423z"/>
	<path fill="#416B6D" d="M173.805,175.396l-0.307-1.122c-0.969,0.272-1.614,1.462-2.72,1.462c-1.444,0-2.601-1.207-2.601-2.686
		c0-2.686,2.822-3.264,4.896-3.825l0.425-0.119v-0.527c0-1.071-0.255-1.785-1.818-1.649c-1.751,0.153-2.227,1.836-2.805,1.173
		l-0.153-0.357c-0.408-0.204,1.563-1.938,2.992-1.938c1.274,0,2.753,1.02,2.838,3.162l0.204,4.182
		c0.018,0.238,0.153,2.125-0.187,2.142L173.805,175.396z M168.943,174.852c0.103-0.238,0.137,0.544,0.137-0.204l-0.204-0.068
		C168.637,175.259,168.943,174.852,168.943,174.852z M173.414,170.075c0.119-0.85-4.334,1.156-4.334,2.839
		c0,0.782,0.951,1.564,1.75,1.564c1.055,0,2.806-1.037,2.669-1.53l-0.102-2.754L173.414,170.075z M169.657,167.542
		c0.612,0.017,1.326-0.425,1.021-0.816C170.372,166.335,169.165,167.525,169.657,167.542z M173.635,169.174
		c0,0-0.374,1.462-0.171,1.768C173.72,171.316,173.499,169.106,173.635,169.174z M173.805,174.58c0,0-0.188,0.102,0,0.408
		C174.434,176.042,173.668,174.511,173.805,174.58z"/>
	<path fill="#416B6D" d="M178.089,163.616c0,0-0.289,0.289-0.51,0.289c-0.119,0-0.307-0.119-0.307-0.119s-0.425-0.34-0.459-0.646
		c-0.051-0.34,0.289-0.816,0.289-0.816s0.255-0.102,0.392-0.119c0.255-0.034,0.68,0.034,0.68,0.034s0.085,0.391,0.085,0.646
		C178.259,163.174,178.089,163.616,178.089,163.616z M178.259,175.463h-1.326c0,0,0.204-5.32-0.034-8.839
		c-0.017-0.187,0.034-0.544,0.034-0.544s0.544-0.102,0.816,0.034c0.102,0.051,0.255,0.221,0.255,0.221s0.17,0.119,0.085,1.479
		C177.919,170.534,178.259,175.463,178.259,175.463z"/>
	<path fill="#416B6D" d="M181.455,175.311c-0.255,0.034-0.271,0.119-0.748,0.102c0,0-0.51,0.017-0.34-0.85
		c0.357-1.819,0-6.425-0.034-8.108c0-0.391,0.799-0.374,0.799-0.374l0.477,0.17l0.051,1.853l0.017,0.051
		c0.392,0.187,1.496-2.38,2.652-2.21c0,0,0.306-0.017,0.441,0.068c0.255,0.17,0.018,0.459,0.034,0.833
		c0.119,0.408-0.781,0.323-1.173,0.578c-0.85,0.544-1.411,1.479-1.938,2.72c0,0-0.136,2.771-0.103,3.638
		c0,0.119-0.017,0.459,0.052,0.595c0.067,0.153,0.118,0.102,0.136,0.255c0.034,0.221-0.018,0.272-0.018,0.374
		C181.76,175.191,181.608,175.293,181.455,175.311z M180.605,173.866c0,0-0.425,1.309,0.051,1.309
		C180.826,175.174,180.826,173.899,180.605,173.866z M182.253,166.641c-0.034-0.374-0.714,0.051-0.951-0.221
		c-0.323-0.374,0.306-0.782,0.255-1.292c-0.052-0.476-0.289-0.748-0.527-1.139c-0.306-0.51,0.493,0.544,0.51,1.207
		c0.018,0.51-0.526,0.85-0.237,1.224c0.221,0.289,0.935-0.136,0.951,0.238c0,0.136-0.152,0.374-0.102,0.357
		C182.152,167.015,182.253,166.794,182.253,166.641z M181.489,174.46c0,0-0.136,0.306,0.187,0.442
		C181.846,174.97,181.574,174.223,181.489,174.46z M182.797,169.225c0,0-0.441,0.323,0.034,0.323
		C183.001,169.548,183.019,169.259,182.797,169.225z"/>
	<path fill="#416B6D" d="M191.96,168.783c-0.118,0.51-0.391,1.122-0.595,1.717c-1.207,3.484-2.855,7.411-5.031,8.21
		c-0.357,0.136-1.462,0.153-1.445-0.272l-0.017-0.493c0.136-0.51,0.646-0.34,0.901-0.238c1.479,0.612,3.179-1.36,2.838-2.414
		l-2.991-8.261c0,0,0.9-1.428,1.189-0.918c0.137,0.238,0.052,0.68,0.052,0.68s1.92,7.275,2.362,7.683
		c0.493,0.459,0.188-0.289,0.188-0.289s0.68-2.652,1.224-4.317c0.289-0.884,0.306-1.394,0.629-2.346
		c0.085-0.272,0.187-0.323,0.187-0.323s0.477-0.374,0.766-0.272C192.692,167.1,192.471,167.287,191.96,168.783z M191.604,171.112
		c0.153-0.017,0.051,0.867,0.34,0.748C192.233,171.741,191.162,171.163,191.604,171.112z"/>
	<path fill="#416B6D" d="M194.51,173.458c0.51-0.442,1.156-0.527,1.598-0.255c0.527,0.323,0.222,1.003,0.052,1.7
		c-0.307,1.258-1.071,3.179-2.21,2.89c-0.085-0.017-0.153-0.051-0.238-0.085c-0.714-0.357,1.343-1.564,1.037-2.294
		c-0.136-0.391-0.782-0.255-0.833-0.68C193.847,174.273,194.085,173.832,194.51,173.458z"/>
	<path fill="#416B6D" d="M203.844,166.216c-0.34,0,0.051-1.037,0.408-0.901c0.152,0.068,0.459,0.425,0.408,0.578
		c0.051,0.085-0.035,0.119-0.053,0.119C204.115,166.012,204.064,166.216,203.844,166.216z M203.895,167.219
		c0.084,3.179,0,11.355-0.086,12.494c-0.033,0.544,0.289,0.782,0.289,0.782s0.357,0.102,0.562,0.068
		c0.594-0.119,0.424-1.513,0.424-1.513l0.086-4.657c0.629-0.408,1.359,1.343,2.396,1.343c1.275,0,3.434-1.173,3.434-4.776
		c0-3.689-1.869-5.151-3.484-5.151c-0.902,0-1.904,0.255-2.516,0.901l-0.34-0.544C204.66,166.166,203.861,165.842,203.895,167.219z
		 M204.914,169.854c0.035-0.918,0.426-2.312,0.426-2.312c0.408-0.816,1.172-0.663,2.191-0.663c1.854,0,2.074,2.635,2.074,4.045
		c0,2.754-1.309,3.655-2.227,3.655c-0.936,0-1.666-0.782-2.039-1.581C205.34,172.999,204.863,171.095,204.914,169.854z"/>
	<path fill="#416B6D" d="M214.773,162.018c-0.254,5.015,0.119,6.901,0.172,13.174c0,0.408-1.463,0.646-1.445,0.085
		c0.051-3.57-0.102-7.173-0.102-10.08c0-0.306-0.342-0.884-0.324-1.224c0-0.289,0.17-0.51,0.17-0.85
		c0.035-0.969,0.17,0.442,0.256-0.935C213.533,161.712,214.791,161.525,214.773,162.018z M213.584,164.482
		c0.17-0.765,0.426-1.105,0-1.105C213.16,163.377,213.5,164.891,213.584,164.482z M213.941,168.494
		c-0.084,0.357-0.17-1.309-0.051-0.969c0.068,0.187,0.102,0.306,0.102,0.51C213.992,168.222,213.975,168.324,213.941,168.494z"/>
	<path fill="#416B6D" d="M223.088,175.396l-0.307-1.122c-0.969,0.272-1.615,1.462-2.721,1.462c-1.443,0-2.6-1.207-2.6-2.686
		c0-2.686,2.822-3.264,4.895-3.825l0.426-0.119v-0.527c0-1.071-0.256-1.785-1.818-1.649c-1.752,0.153-2.227,1.836-2.805,1.173
		l-0.154-0.357c-0.408-0.204,1.564-1.938,2.992-1.938c1.275,0,2.754,1.02,2.838,3.162l0.205,4.182
		c0.018,0.238,0.152,2.125-0.188,2.142L223.088,175.396z M218.225,174.852c0.104-0.238,0.137,0.544,0.137-0.204l-0.203-0.068
		C217.92,175.259,218.225,174.852,218.225,174.852z M222.695,170.075c0.119-0.85-4.334,1.156-4.334,2.839
		c0,0.782,0.951,1.564,1.75,1.564c1.055,0,2.805-1.037,2.67-1.53l-0.102-2.754L222.695,170.075z M218.939,167.542
		c0.611,0.017,1.326-0.425,1.02-0.816C219.652,166.335,218.447,167.525,218.939,167.542z M222.916,169.174
		c0,0-0.373,1.462-0.17,1.768C223.002,171.316,222.781,169.106,222.916,169.174z M223.088,174.58c0,0-0.188,0.102,0,0.408
		C223.717,176.042,222.951,174.511,223.088,174.58z"/>
	<path fill="#416B6D" d="M227.338,175.124c0,0-0.154,0.493-0.391,0.51c-0.273,0.017-0.512-0.51-0.512-0.51l-0.254-9.213
		c0,0,0.799-0.187,1.02,0.119c0.102,0.153,0.137,0.476,0.137,0.476l0.17,0.544c0.781-0.629,1.512-1.241,2.584-1.241
		c1.324,0,2.531,0.731,2.396,3.179c0,0,0.51,3.723-0.357,5.797c-0.068,0.187-0.238,0.51-0.238,0.51l-0.561,0.085
		c0,0-0.391,0.102-0.34-0.255c0.084-0.748,0.477-2.516,0.459-3.485c-0.018-0.833-0.205-2.142-0.205-2.142
		c-0.084-0.952,0-2.074-1.324-2.601c-1.496-0.595-1.887,0.799-2.414,1.428L227.338,175.124z"/>
	<path fill="#416B6D" d="M233.951,166.114c0.254-0.34,1.121-0.034,1.121-0.034l0.068-2.805c0,0,0.084-0.306,0.203-0.391
		c0.271-0.204,0.885,0.289,0.885,0.289s0.135,0.782,0.033,1.683c-0.051,0.51,0.137,1.224,0.137,1.224s1.887-0.612,2.107,0.17
		c0.033,0.119,0.051,0.34,0.051,0.34l-0.307,0.544l-1.852,0.068c0,0,0,0.408,0,0.68c0,0.153-0.238,0.357-0.238,0.527
		c0,0.119,0.238,0.782,0.238,0.901c0,1.955,0,3.791,0,3.791c0,0.918-0.102,2.652,0.73,1.921c0.271-0.238,1.037-1.496,1.291-0.901
		l0.238,0.187c0.561,0.357-1.002,1.428-1.461,1.428c-2.244,0-2.125-1.513-2.125-3.229v-5.304l-0.918-0.034
		C234.154,167.168,233.695,166.454,233.951,166.114z"/>
	<path fill="#416B6D" d="M244.338,170.772c0-3.519,1.664-4.964,3.756-4.964c2.09,0,3.502,1.7,3.502,5.219s-1.412,4.708-3.502,4.708
		c-1.121,0-2.107-0.408-2.787-1.326c-0.119-0.153-0.086-0.459-0.188-0.646c-0.188-0.34-0.477-0.595-0.578-1.054
		C244.404,172.149,244.338,171.503,244.338,170.772z M245.34,173.492c-0.238,0.068-0.018,0.935,0.086,0.697
		c0.033-0.085,0.066-0.17,0.066-0.272C245.492,173.747,245.408,173.61,245.34,173.492z M250.439,170.772
		c0.238-1.581-0.137-4.267-2.176-4.267s-2.602,2.668-2.602,4.267c0,1.598,0.562,4.606,2.602,4.606S249.844,174.665,250.439,170.772z
		"/>
	<path fill="#416B6D" d="M254.844,163.616c0,0-0.289,0.289-0.51,0.289c-0.119,0-0.307-0.119-0.307-0.119s-0.426-0.34-0.459-0.646
		c-0.051-0.34,0.289-0.816,0.289-0.816s0.254-0.102,0.391-0.119c0.256-0.034,0.68,0.034,0.68,0.034s0.086,0.391,0.086,0.646
		C255.014,163.174,254.844,163.616,254.844,163.616z M255.014,175.463h-1.326c0,0,0.203-5.32-0.035-8.839
		c-0.016-0.187,0.035-0.544,0.035-0.544s0.543-0.102,0.816,0.034c0.102,0.051,0.254,0.221,0.254,0.221s0.17,0.119,0.086,1.479
		C254.674,170.534,255.014,175.463,255.014,175.463z"/>
	<path fill="#416B6D" d="M259.059,162.018c-0.256,5.015,0.119,6.901,0.17,13.174c0,0.408-1.461,0.646-1.445,0.085
		c0.051-3.57-0.102-7.173-0.102-10.08c0-0.306-0.34-0.884-0.322-1.224c0-0.289,0.17-0.51,0.17-0.85
		c0.033-0.969,0.17,0.442,0.254-0.935C257.818,161.712,259.076,161.525,259.059,162.018z M257.869,164.482
		c0.17-0.765,0.424-1.105,0-1.105C257.443,163.377,257.783,164.891,257.869,164.482z M258.227,168.494
		c-0.086,0.357-0.17-1.309-0.053-0.969c0.068,0.187,0.104,0.306,0.104,0.51C258.277,168.222,258.26,168.324,258.227,168.494z"/>
	<path fill="#416B6D" d="M264.584,172.438c0.016,0.051-0.221-0.085-0.357-0.085c-0.375,0.051,0.119,0.731-0.152,0.969
		c-0.357,0.323-0.732-0.187-1.242-0.119c-0.662,0.068-1.648,0.952-1.156,0.612c0.357-0.272,0.613-0.527,1.088-0.629
		c0.494-0.085,0.953,0.493,1.311,0.136c0.236-0.255-0.238-0.901,0.135-0.952C264.363,172.353,264.584,172.438,264.584,172.438z
		 M267.863,167.916c0.426-0.306-1.547-2.108-2.855-2.108c-1.547,0-2.531,1.734-2.531,3.349c0,3.365,4.775,1.054,4.775,3.417
		c0,1.071-0.766,2.516-1.734,2.516c-1.121,0-2.582-2.04-2.924-1.683l-0.543,0.017c-0.256,0.595,1.684,2.312,3.195,2.312
		c1.768,0,3.246-1.564,3.246-3.4c0-3.162-5.455-1.104-5.455-3.399c0-1.462,1.156-2.006,2.021-2.006c0.834,0,1.633,0.527,2.109,1.088
		c0.102,0.119,0.594,0.374,0.645-0.017L267.863,167.916z"/>
</g>
<g>
	<path fill="#416B6D" d="M74.228,264.075c0.34-0.085,0.901-0.255,0.901-0.255l0.102-2.006c0.136-1.598,0.442-2.873,2.022-2.873
		l0.799,0.357l-0.203,0.68c-0.153,0.238-0.255,0.153-0.442,0.034c-1.003-0.612-1.139,1.021-1.156,1.784L76.2,263.82
		c0,0,0.714-0.018,1.139,0.102c0.341,0.103,0.851,0.051,0.816,0.408c-0.034,0.34-0.493,0.256-0.816,0.307
		c-0.34,0.051-0.935,0-0.935,0s-0.34-0.153-0.187,0.561c0.289,1.359,0.033,7.496,0.033,7.496s-0.102,0.289-0.237,0.357
		c-0.272,0.152-0.731-0.408-0.731-0.408l-0.152-7.854l-1.173-0.203c0,0-0.511-0.068-0.544-0.307
		C73.361,263.957,73.922,264.144,74.228,264.075z M75.401,266.88c0,0.204,0.034,0.323,0.103,0.511
		c0.118,0.34,0.033-1.326-0.052-0.97C75.418,266.592,75.401,266.693,75.401,266.88z"/>
	<path fill="#416B6D" d="M80.535,272.744c-0.255,0.034-0.271,0.119-0.748,0.103c0,0-0.51,0.017-0.34-0.851
		c0.357-1.818,0-6.425-0.034-8.107c0-0.391,0.799-0.374,0.799-0.374l0.477,0.17l0.051,1.853l0.017,0.051
		c0.392,0.188,1.496-2.379,2.652-2.209c0,0,0.306-0.018,0.441,0.067c0.255,0.17,0.018,0.459,0.034,0.833
		c0.119,0.408-0.781,0.323-1.173,0.578c-0.85,0.544-1.411,1.479-1.938,2.72c0,0-0.136,2.771-0.103,3.638
		c0,0.119-0.017,0.459,0.052,0.595c0.067,0.153,0.118,0.103,0.136,0.255c0.034,0.221-0.018,0.271-0.018,0.374
		C80.84,272.625,80.688,272.728,80.535,272.744z M79.685,271.3c0,0-0.425,1.309,0.051,1.309
		C79.906,272.608,79.906,271.334,79.685,271.3z M81.333,264.075c-0.034-0.374-0.714,0.052-0.951-0.221
		c-0.323-0.374,0.306-0.782,0.255-1.292c-0.052-0.477-0.289-0.748-0.527-1.139c-0.306-0.51,0.493,0.544,0.51,1.207
		c0.018,0.51-0.526,0.85-0.237,1.224c0.221,0.289,0.935-0.136,0.951,0.237c0,0.137-0.152,0.375-0.102,0.357
		C81.232,264.449,81.333,264.229,81.333,264.075z M80.569,271.895c0,0-0.136,0.307,0.187,0.441
		C80.926,272.404,80.654,271.656,80.569,271.895z M81.877,266.659c0,0-0.441,0.323,0.034,0.323
		C82.082,266.982,82.099,266.693,81.877,266.659z"/>
	<path fill="#416B6D" d="M91.533,265.418l0.119,7.479c0,0-0.765,0.306-1.071,0.034c-0.067-0.051-0.152-0.204-0.152-0.204
		l-0.034-0.392c-0.034-1.24-1.581,0.834-2.651,0.834c-1.326,0-2.397-0.731-2.397-3.18c0,0,0.238-3.604,0-5.762
		c-0.102-0.936,0.714-0.714,0.714-0.714l0.408,0.034c0,0,0.272,0,0.204,0.51c-0.289,2.227-0.17,5.592-0.17,5.592
		c-0.034,0.986,0.85,2.602,1.921,2.602c0.815,0,1.818-0.596,1.903-1.598c0,0,0.103-4.93,0.018-6.732c0-0.102,0.204-0.102,0.306-0.17
		c0.136-0.067,0.204-0.187,0.34-0.237c0.085-0.034,0.51,0.067,0.612,0.067C91.975,263.616,91.533,265.418,91.533,265.418z
		 M86.926,265.775c0.018-0.357-0.765-0.527-0.526-0.816c0.085-0.119,0.322-0.203,0.322-0.203c0.052,0.017-0.237,0.084-0.322,0.187
		C86.162,265.231,86.96,265.401,86.926,265.775z"/>
	<path fill="#416B6D" d="M94.883,261.05c0,0-0.289,0.289-0.51,0.289c-0.119,0-0.307-0.119-0.307-0.119s-0.425-0.34-0.459-0.646
		c-0.051-0.34,0.289-0.816,0.289-0.816s0.255-0.102,0.392-0.119c0.255-0.033,0.68,0.034,0.68,0.034s0.085,0.392,0.085,0.646
		C95.053,260.607,94.883,261.05,94.883,261.05z M95.053,272.897h-1.326c0,0,0.204-5.32-0.034-8.839
		c-0.017-0.188,0.034-0.544,0.034-0.544s0.544-0.103,0.816,0.034c0.102,0.051,0.255,0.221,0.255,0.221s0.17,0.119,0.085,1.479
		C94.713,267.968,95.053,272.897,95.053,272.897z"/>
	<path fill="#416B6D" d="M96.549,263.549c0.255-0.34,1.121-0.034,1.121-0.034l0.068-2.806c0,0,0.085-0.305,0.204-0.391
		c0.271-0.203,0.884,0.289,0.884,0.289s0.136,0.782,0.034,1.684c-0.051,0.51,0.136,1.224,0.136,1.224s1.887-0.612,2.107,0.17
		c0.034,0.118,0.052,0.34,0.052,0.34l-0.307,0.544l-1.853,0.068c0,0,0,0.408,0,0.68c0,0.152-0.238,0.357-0.238,0.527
		c0,0.118,0.238,0.781,0.238,0.9c0,1.955,0,3.791,0,3.791c0,0.918-0.102,2.651,0.731,1.92c0.271-0.237,1.036-1.496,1.291-0.9
		l0.238,0.188c0.562,0.356-1.003,1.428-1.462,1.428c-2.243,0-2.125-1.514-2.125-3.23v-5.303l-0.918-0.034
		C96.752,264.603,96.293,263.889,96.549,263.549z"/>
	<path fill="#416B6D" d="M104.895,269.871c0.017,0.052-0.221-0.084-0.357-0.084c-0.374,0.051,0.119,0.73-0.152,0.969
		c-0.357,0.322-0.731-0.188-1.241-0.119c-0.663,0.068-1.648,0.951-1.156,0.611c0.357-0.271,0.612-0.526,1.088-0.629
		c0.493-0.084,0.952,0.494,1.31,0.137c0.237-0.256-0.238-0.9,0.136-0.952C104.674,269.787,104.895,269.871,104.895,269.871z
		 M108.175,265.35c0.425-0.305-1.547-2.107-2.855-2.107c-1.547,0-2.532,1.734-2.532,3.35c0,3.365,4.776,1.053,4.776,3.416
		c0,1.07-0.766,2.516-1.734,2.516c-1.122,0-2.583-2.039-2.924-1.683l-0.544,0.017c-0.255,0.596,1.684,2.312,3.196,2.312
		c1.768,0,3.246-1.564,3.246-3.4c0-3.162-5.456-1.104-5.456-3.399c0-1.462,1.156-2.006,2.022-2.006c0.833,0,1.632,0.526,2.108,1.088
		c0.102,0.119,0.595,0.374,0.646-0.017L108.175,265.35z"/>
	<path fill="#416B6D" d="M110.93,270.892c0.51-0.442,1.156-0.526,1.598-0.255c0.527,0.322,0.222,1.003,0.052,1.699
		c-0.307,1.258-1.071,3.18-2.21,2.891c-0.085-0.018-0.153-0.051-0.238-0.086c-0.714-0.356,1.343-1.563,1.037-2.294
		c-0.136-0.392-0.782-0.255-0.833-0.681C110.267,271.707,110.505,271.266,110.93,270.892z"/>
	<path fill="#416B6D" d="M125.074,264.483c0.17-0.697,1.071-0.119,1.071-0.119s-0.357,2.805-1.343,5.048
		c-0.612,1.395-0.493,0.664-1.173,2.363c0,0-0.018,1.445-1.021,0.918c0,0-3.28-7.684-2.821-8.448c0.34-0.561,1.02-0.51,0.884,0.034
		c0,0,0.17-0.357,0.238,0.119c0.407,2.873,1.513,5.967,1.869,6.952C123.476,273.289,123.306,271.86,125.074,264.483z"/>
	<path fill="#416B6D" d="M121.93,271.436c0,0.102-0.034,0.188-0.068,0.271c-0.102,0.238-0.323-0.629-0.085-0.696
		C121.845,271.13,121.93,271.266,121.93,271.436z M130.021,268.443c0.799-0.51,4.369-0.221,4.369-0.221
		c0.271-0.051,0.288-0.969-0.018-2.057c-0.051-0.152-0.119-0.85-0.187-0.986c-0.137-0.254-0.17-0.051-0.307-0.306
		c-0.255-0.493-0.476-0.935-0.935-0.985c-0.136-0.018-0.238-0.426-0.306-0.459c-0.408-0.221-0.766-0.188-1.31-0.188
		c-0.68,0-1.394,0.221-1.903,0.459c-0.408,0.188-0.238,0.188-0.306,0.289c-0.612,0.936-1.377,2.023-1.547,4.216
		c-0.034,0.493-0.103,0.969,0,1.36c0.696,2.498,1.954,3.604,3.756,3.604c1.615,0,3.247-2.363,2.669-2.346l-0.102-0.222
		c-0.442-0.136-2.261,2.091-2.669,1.921c-0.374-0.152-1.683-0.441-2.447-1.41c-0.153-0.188-0.052-0.205-0.238-0.408
		c-0.51-0.527,0.119-0.885,0.119-2.244C128.662,268.461,129.58,268.716,130.021,268.443z M132.095,267.424
		c-1.224,0.221-3.229,0.357-3.229,0.357c-0.459,0.017-0.204-2.329,1.036-3.043c0.392-0.221,1.021-0.68,1.666-0.544
		c0.527,0.119,1.445,0.408,1.615,1.054c0.051,0.188,0.237,0.068,0.204,0.527c-0.068,0.85,0.221,1.666,0,1.733
		C133.387,267.509,132.486,267.355,132.095,267.424z M133.42,267.968c-0.203-0.306,0.068-0.747,0.068-0.747
		C133.353,267.152,133.676,268.342,133.42,267.968z"/>
	<path fill="#416B6D" d="M144.352,264.279l-0.493,0.17c-0.238,0.068-0.578-0.17-0.918,0.018c-0.272,0.017,0.374,1.342,0.374,2.039
		c0,1.818-1.343,3.23-3.162,3.23c-0.544,0-1.529-0.153-2.022-0.34c-0.187-0.324-1.156,0.543-1.156,1.002
		c0,1.189,7.123-0.255,7.123,3.298c0,0.697-0.272,2.856-4.029,2.856c-3.06,0-3.96-1.599-3.96-2.754c0-0.969,0.85-1.496,1.632-1.836
		c0.051-0.272-1.173-0.629-1.173-1.309c0-0.834,1.104-1.445,1.07-1.769c-0.68-0.799-0.935-1.309-0.935-2.413
		c0-1.904,1.428-3.23,3.314-3.23c0.748,0,1.428,0.221,2.04,0.663c0.611-0.459,1.326-0.799,2.125-0.714L144.352,264.279z
		 M137.892,272.847c0.238-0.511-1.343,1.394-0.611,1.376c0.577-0.016,0.187-0.441,0.306-0.713
		C137.688,273.271,137.791,273.084,137.892,272.847z M139.099,272.115c-0.714,0.137-1.717,0.766-1.717,1.615
		c0,1.292,2.107,2.277,3.009,2.277c0.952,0,2.431-1.104,2.431-2.396c0-0.986-1.614-1.938-2.227-1.818L139.099,272.115z
		 M140.051,263.939c-1.275,0-2.38,1.377-2.38,2.584c0,1.172,1.088,2.465,2.312,2.465c1.36,0,2.108-1.19,2.108-2.482
		C142.091,265.282,141.377,263.939,140.051,263.939z M141.309,278.048c-0.204,0.119,0.136,0.578,0.306,0.511
		C141.955,278.439,141.513,277.929,141.309,278.048z"/>
	<path fill="#416B6D" d="M140.035,271.436c0,0.102-0.034,0.188-0.068,0.271c-0.102,0.238-0.323-0.629-0.085-0.696
		C139.95,271.13,140.035,271.266,140.035,271.436z M148.125,268.443c0.799-0.51,4.369-0.221,4.369-0.221
		c0.271-0.051,0.289-0.969-0.018-2.057c-0.051-0.152-0.119-0.85-0.187-0.986c-0.137-0.254-0.17-0.051-0.307-0.306
		c-0.255-0.493-0.476-0.935-0.935-0.985c-0.136-0.018-0.238-0.426-0.306-0.459c-0.408-0.221-0.766-0.188-1.31-0.188
		c-0.68,0-1.394,0.221-1.903,0.459c-0.408,0.188-0.238,0.188-0.306,0.289c-0.612,0.936-1.377,2.023-1.547,4.216
		c-0.034,0.493-0.103,0.969,0,1.36c0.696,2.498,1.954,3.604,3.756,3.604c1.615,0,3.247-2.363,2.669-2.346l-0.102-0.222
		c-0.442-0.136-2.261,2.091-2.669,1.921c-0.374-0.152-1.683-0.441-2.447-1.41c-0.153-0.188-0.052-0.205-0.238-0.408
		c-0.51-0.527,0.119-0.885,0.119-2.244C146.766,268.461,147.684,268.716,148.125,268.443z M150.2,267.424
		c-1.225,0.221-3.229,0.357-3.229,0.357c-0.459,0.017-0.204-2.329,1.036-3.043c0.392-0.221,1.021-0.68,1.666-0.544
		c0.527,0.119,1.445,0.408,1.615,1.054c0.051,0.188,0.237,0.068,0.204,0.527c-0.068,0.85,0.221,1.666,0,1.733
		C151.492,267.509,150.59,267.355,150.2,267.424z M151.525,267.968c-0.203-0.306,0.068-0.747,0.068-0.747
		C151.458,267.152,151.781,268.342,151.525,267.968z"/>
	<path fill="#416B6D" d="M154.042,263.549c0.255-0.34,1.121-0.034,1.121-0.034l0.068-2.806c0,0,0.085-0.305,0.204-0.391
		c0.271-0.203,0.884,0.289,0.884,0.289s0.136,0.782,0.034,1.684c-0.051,0.51,0.136,1.224,0.136,1.224s1.887-0.612,2.107,0.17
		c0.034,0.118,0.052,0.34,0.052,0.34l-0.307,0.544l-1.853,0.068c0,0,0,0.408,0,0.68c0,0.152-0.238,0.357-0.238,0.527
		c0,0.118,0.238,0.781,0.238,0.9c0,1.955,0,3.791,0,3.791c0,0.918-0.102,2.651,0.731,1.92c0.271-0.237,1.036-1.496,1.291-0.9
		l0.238,0.188c0.561,0.356-1.003,1.428-1.462,1.428c-2.243,0-2.125-1.514-2.125-3.23v-5.303l-0.918-0.034
		C154.246,264.603,153.787,263.889,154.042,263.549z"/>
	<path fill="#416B6D" d="M165.177,272.83l-0.307-1.123c-0.969,0.272-1.614,1.463-2.72,1.463c-1.444,0-2.601-1.207-2.601-2.686
		c0-2.687,2.822-3.264,4.896-3.825l0.425-0.119v-0.526c0-1.071-0.255-1.785-1.818-1.649c-1.751,0.153-2.227,1.836-2.805,1.173
		l-0.153-0.357c-0.408-0.203,1.563-1.938,2.992-1.938c1.274,0,2.753,1.02,2.838,3.162l0.204,4.182
		c0.018,0.238,0.153,2.125-0.187,2.142L165.177,272.83z M160.315,272.285c0.103-0.238,0.137,0.545,0.137-0.203l-0.204-0.068
		C160.009,272.693,160.315,272.285,160.315,272.285z M164.786,267.509c0.119-0.85-4.334,1.156-4.334,2.839
		c0,0.782,0.951,1.564,1.75,1.564c1.055,0,2.805-1.037,2.669-1.53l-0.102-2.754L164.786,267.509z M161.029,264.977
		c0.612,0.017,1.326-0.426,1.021-0.816C161.743,263.77,160.537,264.959,161.029,264.977z M165.006,266.607
		c0,0-0.373,1.463-0.17,1.769C165.092,268.75,164.871,266.54,165.006,266.607z M165.177,272.014c0,0-0.188,0.102,0,0.408
		C165.806,273.476,165.041,271.945,165.177,272.014z"/>
	<path fill="#416B6D" d="M169.546,272.728l-0.986-0.34c0,0-0.136-5.694-0.204-9.349c-0.017-1.31-0.051-3.366-0.051-3.366h1.326
		c0,0-0.153,1.036-0.17,1.666c-0.051,1.206,0.17,3.145,0.17,3.145c0.611-0.646,1.444-1.241,2.346-1.241
		c1.615,0,3.484,1.462,3.484,5.15c0,3.604-2.158,4.777-3.434,4.777c-1.037,0-1.768-0.562-2.396-1.344L169.546,272.728z
		 M169.376,265.197c0,0-0.663,1.988-0.103,2.244C169.682,267.628,169.241,265.129,169.376,265.197z M169.631,270.263
		c0.374,0.799,1.444,2.261,2.38,2.261c0.918,0,2.312-0.477,2.396-4.334c0.034-1.411-0.646-3.961-2.499-3.961
		c-1.02,0-1.869,0.867-2.277,1.683c0,0-0.323,1.139-0.34,1.887C169.257,268.768,169.631,270.263,169.631,270.263z M169.7,271.266
		c-0.256-0.441,0.051,0.646,0.255,0.561C170.158,271.742,170.668,272.948,169.7,271.266z M174.204,264.229
		c0,0,0.153,1.683,0.918,1.988C175.53,266.387,174.068,264.16,174.204,264.229z"/>
	<path fill="#416B6D" d="M179.252,259.451c-0.255,5.016,0.119,6.902,0.171,13.174c0,0.408-1.462,0.646-1.445,0.086
		c0.051-3.57-0.102-7.174-0.102-10.08c0-0.307-0.341-0.885-0.323-1.225c0-0.289,0.17-0.51,0.17-0.85
		c0.034-0.969,0.17,0.441,0.255-0.936C178.012,259.146,179.27,258.959,179.252,259.451z M178.063,261.916
		c0.17-0.764,0.425-1.104,0-1.104S177.978,262.324,178.063,261.916z M178.42,265.928c-0.085,0.357-0.17-1.309-0.052-0.969
		c0.068,0.188,0.103,0.307,0.103,0.51C178.471,265.656,178.454,265.758,178.42,265.928z"/>
	<path fill="#416B6D" d="M176.279,271.436c0,0.102-0.034,0.188-0.068,0.271c-0.102,0.238-0.323-0.629-0.085-0.696
		C176.194,271.13,176.279,271.266,176.279,271.436z M184.37,268.443c0.799-0.51,4.369-0.221,4.369-0.221
		c0.271-0.051,0.289-0.969-0.018-2.057c-0.051-0.152-0.119-0.85-0.187-0.986c-0.137-0.254-0.17-0.051-0.307-0.306
		c-0.255-0.493-0.476-0.935-0.935-0.985c-0.136-0.018-0.238-0.426-0.306-0.459c-0.408-0.221-0.766-0.188-1.31-0.188
		c-0.68,0-1.394,0.221-1.903,0.459c-0.408,0.188-0.238,0.188-0.306,0.289c-0.612,0.936-1.377,2.023-1.547,4.216
		c-0.034,0.493-0.103,0.969,0,1.36c0.696,2.498,1.954,3.604,3.756,3.604c1.615,0,3.247-2.363,2.669-2.346l-0.102-0.222
		c-0.442-0.136-2.261,2.091-2.669,1.921c-0.374-0.152-1.683-0.441-2.447-1.41c-0.153-0.188-0.052-0.205-0.238-0.408
		c-0.51-0.527,0.119-0.885,0.119-2.244C183.01,268.461,183.928,268.716,184.37,268.443z M186.444,267.424
		c-1.225,0.221-3.229,0.357-3.229,0.357c-0.459,0.017-0.204-2.329,1.036-3.043c0.392-0.221,1.021-0.68,1.666-0.544
		c0.527,0.119,1.445,0.408,1.615,1.054c0.051,0.188,0.237,0.068,0.204,0.527c-0.068,0.85,0.221,1.666,0,1.733
		C187.736,267.509,186.834,267.355,186.444,267.424z M187.769,267.968c-0.203-0.306,0.068-0.747,0.068-0.747
		C187.702,267.152,188.025,268.342,187.769,267.968z"/>
	<path fill="#416B6D" d="M193.481,269.871c0.017,0.052-0.221-0.084-0.357-0.084c-0.374,0.051,0.119,0.73-0.152,0.969
		c-0.357,0.322-0.731-0.188-1.241-0.119c-0.663,0.068-1.648,0.951-1.156,0.611c0.357-0.271,0.612-0.526,1.088-0.629
		c0.493-0.084,0.952,0.494,1.31,0.137c0.237-0.256-0.238-0.9,0.136-0.952C193.26,269.787,193.481,269.871,193.481,269.871z
		 M196.761,265.35c0.425-0.305-1.547-2.107-2.855-2.107c-1.547,0-2.532,1.734-2.532,3.35c0,3.365,4.776,1.053,4.776,3.416
		c0,1.07-0.766,2.516-1.734,2.516c-1.122,0-2.583-2.039-2.924-1.683l-0.544,0.017c-0.255,0.596,1.684,2.312,3.196,2.312
		c1.768,0,3.246-1.564,3.246-3.4c0-3.162-5.456-1.104-5.456-3.399c0-1.462,1.156-2.006,2.022-2.006c0.833,0,1.632,0.526,2.108,1.088
		c0.102,0.119,0.595,0.374,0.646-0.017L196.761,265.35z"/>
	<path fill="#416B6D" d="M199.516,270.892c0.51-0.442,1.156-0.526,1.598-0.255c0.527,0.322,0.222,1.003,0.052,1.699
		c-0.307,1.258-1.071,3.18-2.21,2.891c-0.085-0.018-0.153-0.051-0.238-0.086c-0.714-0.356,1.343-1.563,1.037-2.294
		c-0.136-0.392-0.782-0.255-0.833-0.681C198.853,271.707,199.091,271.266,199.516,270.892z"/>
	<path fill="#416B6D" d="M213.404,265.248c-0.068,0.271-1.07,4.675-1.717,7.649l-1.002,0.085c0,0-0.324,0.238-0.51-0.68
		c-0.256-1.225-0.715-4.301-1.955-7.479c-0.068-0.153-0.018-0.815,0-1.003c0.018-0.322,0.102-0.17,0.424-0.188
		c0.393-0.017,0.629,0.357,0.766,0.681c1.207,2.89,1.615,6.833,1.615,6.833h0.033l1.904-6.646c0.051-0.51,0.748-0.356,0.951-0.033
		c0.393,0.629,2.057,6.611,2.143,6.799c0.799,1.904,1.326-3.875,1.666-7.241c0.018-0.222,0.408-0.272,0.646-0.204
		c0.406,0.119,0.254,0.646,0.203,1.054c-0.373,3.332-0.918,5.423-2.09,8.023c0,0-0.664,0.356-1.004,0.17
		c-0.102-0.051-0.238-0.204-0.238-0.204S213.795,263.685,213.404,265.248z M210.346,272.149c-0.221,0.103,0.084,0.681,0.305,0.578
		C210.873,272.625,210.566,272.047,210.346,272.149z"/>
	<path fill="#416B6D" d="M221.445,264.568c0.613,0.391,1.514-1.326,2.584-1.326c1.326,0,2.432,0.73,2.396,3.179l-0.254,6.052
		l-0.73,0.425c0,0-0.426-0.425-0.393-0.765c0.137-1.633,0.051-5.371,0.051-5.371c-0.016-0.986,0.256-2.602-1.154-2.602
		c-0.816,0-2.738,0.969-2.5,1.684l-0.254,6.459l-0.477,0.425c0,0-0.713,0.085-0.68-0.17c0.51-4.521,0.662-10.947,0.477-12.307
		c-0.223-1.547,0.713-1.429,0.713-1.429l0.477,0.341L221.445,264.568z"/>
	<path fill="#416B6D" d="M228.229,268.206c0-3.519,1.666-4.964,3.756-4.964c2.092,0,3.502,1.7,3.502,5.219s-1.41,4.709-3.502,4.709
		c-1.121,0-2.107-0.408-2.787-1.326c-0.119-0.153-0.084-0.459-0.188-0.646c-0.186-0.34-0.475-0.595-0.576-1.054
		C228.297,269.583,228.229,268.938,228.229,268.206z M229.232,270.926c-0.238,0.068-0.018,0.935,0.084,0.697
		c0.033-0.086,0.068-0.17,0.068-0.272C229.385,271.181,229.299,271.045,229.232,270.926z M234.332,268.206
		c0.236-1.581-0.137-4.267-2.176-4.267c-2.041,0-2.602,2.668-2.602,4.267c0,1.598,0.561,4.606,2.602,4.606
		C234.195,272.812,233.736,272.099,234.332,268.206z"/>
	<path fill="#416B6D" d="M239.516,259.451c-0.254,5.016,0.119,6.902,0.172,13.174c0,0.408-1.463,0.646-1.445,0.086
		c0.051-3.57-0.102-7.174-0.102-10.08c0-0.307-0.342-0.885-0.324-1.225c0-0.289,0.17-0.51,0.17-0.85
		c0.035-0.969,0.17,0.441,0.256-0.936C238.275,259.146,239.533,258.959,239.516,259.451z M238.326,261.916
		c0.17-0.764,0.426-1.104,0-1.104C237.902,260.812,238.242,262.324,238.326,261.916z M238.684,265.928
		c-0.084,0.357-0.17-1.309-0.051-0.969c0.068,0.188,0.102,0.307,0.102,0.51C238.734,265.656,238.717,265.758,238.684,265.928z"/>
	<path fill="#416B6D" d="M236.543,271.436c0,0.102-0.035,0.188-0.068,0.271c-0.102,0.238-0.324-0.629-0.086-0.696
		C236.457,271.13,236.543,271.266,236.543,271.436z M244.633,268.443c0.799-0.51,4.369-0.221,4.369-0.221
		c0.271-0.051,0.289-0.969-0.018-2.057c-0.051-0.152-0.119-0.85-0.186-0.986c-0.137-0.254-0.17-0.051-0.307-0.306
		c-0.256-0.493-0.477-0.935-0.936-0.985c-0.135-0.018-0.238-0.426-0.305-0.459c-0.408-0.221-0.766-0.188-1.311-0.188
		c-0.68,0-1.393,0.221-1.902,0.459c-0.408,0.188-0.238,0.188-0.307,0.289c-0.611,0.936-1.377,2.023-1.547,4.216
		c-0.033,0.493-0.102,0.969,0,1.36c0.697,2.498,1.955,3.604,3.756,3.604c1.615,0,3.248-2.363,2.67-2.346l-0.102-0.222
		c-0.443-0.136-2.262,2.091-2.67,1.921c-0.373-0.152-1.682-0.441-2.447-1.41c-0.152-0.188-0.051-0.205-0.238-0.408
		c-0.51-0.527,0.119-0.885,0.119-2.244C243.273,268.461,244.191,268.716,244.633,268.443z M246.707,267.424
		c-1.225,0.221-3.229,0.357-3.229,0.357c-0.459,0.017-0.205-2.329,1.035-3.043c0.393-0.221,1.021-0.68,1.666-0.544
		c0.527,0.119,1.445,0.408,1.615,1.054c0.051,0.188,0.238,0.068,0.205,0.527c-0.068,0.85,0.221,1.666,0,1.733
		C248,267.509,247.098,267.355,246.707,267.424z M248.033,267.968c-0.203-0.306,0.068-0.747,0.068-0.747
		C247.965,267.152,248.289,268.342,248.033,267.968z"/>
	<path fill="#416B6D" d="M263.859,264.279l-0.492,0.17c-0.238,0.068-0.578-0.17-0.918,0.018c-0.273,0.017,0.373,1.342,0.373,2.039
		c0,1.818-1.342,3.23-3.162,3.23c-0.543,0-1.529-0.153-2.021-0.34c-0.188-0.324-1.156,0.543-1.156,1.002
		c0,1.189,7.123-0.255,7.123,3.298c0,0.697-0.273,2.856-4.029,2.856c-3.061,0-3.961-1.599-3.961-2.754
		c0-0.969,0.85-1.496,1.633-1.836c0.051-0.272-1.174-0.629-1.174-1.309c0-0.834,1.105-1.445,1.07-1.769
		c-0.68-0.799-0.934-1.309-0.934-2.413c0-1.904,1.428-3.23,3.314-3.23c0.748,0,1.428,0.221,2.039,0.663
		c0.611-0.459,1.326-0.799,2.125-0.714L263.859,264.279z M257.4,272.847c0.238-0.511-1.344,1.394-0.611,1.376
		c0.576-0.016,0.186-0.441,0.305-0.713C257.195,273.271,257.299,273.084,257.4,272.847z M258.607,272.115
		c-0.715,0.137-1.717,0.766-1.717,1.615c0,1.292,2.107,2.277,3.008,2.277c0.953,0,2.432-1.104,2.432-2.396
		c0-0.986-1.615-1.938-2.227-1.818L258.607,272.115z M259.559,263.939c-1.275,0-2.379,1.377-2.379,2.584
		c0,1.172,1.088,2.465,2.311,2.465c1.361,0,2.109-1.19,2.109-2.482C261.6,265.282,260.885,263.939,259.559,263.939z
		 M260.816,278.048c-0.203,0.119,0.137,0.578,0.307,0.511C261.463,278.439,261.021,277.929,260.816,278.048z"/>
	<path fill="#416B6D" d="M266.547,272.744c-0.256,0.034-0.271,0.119-0.748,0.103c0,0-0.51,0.017-0.34-0.851
		c0.357-1.818,0-6.425-0.035-8.107c0-0.391,0.799-0.374,0.799-0.374l0.477,0.17l0.051,1.853l0.018,0.051
		c0.391,0.188,1.496-2.379,2.652-2.209c0,0,0.305-0.018,0.441,0.067c0.254,0.17,0.018,0.459,0.033,0.833
		c0.119,0.408-0.781,0.323-1.172,0.578c-0.85,0.544-1.412,1.479-1.938,2.72c0,0-0.137,2.771-0.104,3.638
		c0,0.119-0.016,0.459,0.053,0.595c0.066,0.153,0.117,0.103,0.135,0.255c0.035,0.221-0.018,0.271-0.018,0.374
		C266.852,272.625,266.699,272.728,266.547,272.744z M265.697,271.3c0,0-0.426,1.309,0.051,1.309
		C265.918,272.608,265.918,271.334,265.697,271.3z M267.346,264.075c-0.035-0.374-0.715,0.052-0.951-0.221
		c-0.324-0.374,0.305-0.782,0.254-1.292c-0.051-0.477-0.289-0.748-0.527-1.139c-0.305-0.51,0.494,0.544,0.51,1.207
		c0.018,0.51-0.525,0.85-0.236,1.224c0.221,0.289,0.934-0.136,0.951,0.237c0,0.137-0.152,0.375-0.102,0.357
		C267.244,264.449,267.346,264.229,267.346,264.075z M266.58,271.895c0,0-0.135,0.307,0.188,0.441
		C266.938,272.404,266.666,271.656,266.58,271.895z M267.889,266.659c0,0-0.441,0.323,0.035,0.323
		C268.094,266.982,268.111,266.693,267.889,266.659z"/>
	<path fill="#416B6D" d="M276.764,272.83l-0.307-1.123c-0.969,0.272-1.615,1.463-2.721,1.463c-1.443,0-2.6-1.207-2.6-2.686
		c0-2.687,2.822-3.264,4.895-3.825l0.426-0.119v-0.526c0-1.071-0.256-1.785-1.818-1.649c-1.752,0.153-2.227,1.836-2.805,1.173
		l-0.154-0.357c-0.408-0.203,1.564-1.938,2.992-1.938c1.275,0,2.754,1.02,2.838,3.162l0.205,4.182
		c0.018,0.238,0.152,2.125-0.188,2.142L276.764,272.83z M271.9,272.285c0.104-0.238,0.137,0.545,0.137-0.203l-0.203-0.068
		C271.596,272.693,271.9,272.285,271.9,272.285z M276.371,267.509c0.119-0.85-4.334,1.156-4.334,2.839
		c0,0.782,0.951,1.564,1.75,1.564c1.055,0,2.805-1.037,2.67-1.53l-0.102-2.754L276.371,267.509z M272.615,264.977
		c0.611,0.017,1.326-0.426,1.02-0.816S272.123,264.959,272.615,264.977z M276.592,266.607c0,0-0.373,1.463-0.17,1.769
		C276.678,268.75,276.457,266.54,276.592,266.607z M276.764,272.014c0,0-0.188,0.102,0,0.408
		C277.393,273.476,276.627,271.945,276.764,272.014z"/>
	<path fill="#416B6D" d="M281.047,261.05c0,0-0.289,0.289-0.51,0.289c-0.119,0-0.307-0.119-0.307-0.119s-0.424-0.34-0.459-0.646
		c-0.051-0.34,0.289-0.816,0.289-0.816s0.256-0.102,0.393-0.119c0.254-0.033,0.68,0.034,0.68,0.034s0.084,0.392,0.084,0.646
		C281.217,260.607,281.047,261.05,281.047,261.05z M281.217,272.897h-1.326c0,0,0.205-5.32-0.033-8.839
		c-0.018-0.188,0.033-0.544,0.033-0.544s0.545-0.103,0.816,0.034c0.102,0.051,0.256,0.221,0.256,0.221s0.17,0.119,0.084,1.479
		C280.877,267.968,281.217,272.897,281.217,272.897z"/>
	<path fill="#416B6D" d="M284.447,272.558c0,0-0.152,0.493-0.391,0.51c-0.271,0.017-0.51-0.51-0.51-0.51l-0.256-9.214
		c0,0,0.799-0.187,1.021,0.119c0.102,0.153,0.135,0.477,0.135,0.477l0.17,0.544c0.783-0.629,1.514-1.241,2.584-1.241
		c1.326,0,2.533,0.73,2.396,3.179c0,0,0.51,3.723-0.355,5.797c-0.068,0.187-0.238,0.51-0.238,0.51l-0.562,0.085
		c0,0-0.391,0.102-0.34-0.255c0.086-0.748,0.477-2.516,0.459-3.485c-0.016-0.832-0.203-2.141-0.203-2.141
		c-0.086-0.953,0-2.074-1.326-2.602c-1.496-0.595-1.887,0.799-2.414,1.428L284.447,272.558z"/>
	<path fill="#416B6D" d="M294.256,269.871c0.018,0.052-0.221-0.084-0.357-0.084c-0.373,0.051,0.119,0.73-0.152,0.969
		c-0.357,0.322-0.73-0.188-1.24-0.119c-0.664,0.068-1.648,0.951-1.156,0.611c0.357-0.271,0.611-0.526,1.088-0.629
		c0.492-0.084,0.951,0.494,1.309,0.137c0.238-0.256-0.238-0.9,0.137-0.952C294.035,269.787,294.256,269.871,294.256,269.871z
		 M297.537,265.35c0.424-0.305-1.547-2.107-2.855-2.107c-1.547,0-2.533,1.734-2.533,3.35c0,3.365,4.777,1.053,4.777,3.416
		c0,1.07-0.766,2.516-1.734,2.516c-1.123,0-2.584-2.039-2.924-1.683l-0.545,0.017c-0.254,0.596,1.684,2.312,3.197,2.312
		c1.768,0,3.246-1.564,3.246-3.4c0-3.162-5.457-1.104-5.457-3.399c0-1.462,1.156-2.006,2.023-2.006c0.832,0,1.631,0.526,2.107,1.088
		c0.102,0.119,0.596,0.374,0.646-0.017L297.537,265.35z"/>
	<path fill="#416B6D" d="M300.291,270.892c0.51-0.442,1.156-0.526,1.598-0.255c0.527,0.322,0.223,1.003,0.053,1.699
		c-0.307,1.258-1.072,3.18-2.211,2.891c-0.084-0.018-0.152-0.051-0.238-0.086c-0.713-0.356,1.344-1.563,1.037-2.294
		c-0.135-0.392-0.781-0.255-0.832-0.681C299.629,271.707,299.867,271.266,300.291,270.892z"/>
	<path fill="#416B6D" d="M129.112,279.852c-0.256,5.015,0.118,6.901,0.17,13.174c0,0.408-1.462,0.646-1.445,0.085
		c0.051-3.569-0.102-7.173-0.102-10.08c0-0.306-0.341-0.884-0.323-1.224c0-0.289,0.17-0.51,0.17-0.85
		c0.034-0.969,0.17,0.441,0.255-0.936C127.871,279.546,129.128,279.359,129.112,279.852z M127.921,282.316
		c0.17-0.765,0.425-1.105,0-1.105S127.836,282.725,127.921,282.316z M128.279,286.328c-0.085,0.357-0.17-1.309-0.052-0.969
		c0.068,0.187,0.103,0.306,0.103,0.51C128.33,286.057,128.312,286.158,128.279,286.328z"/>
	<path fill="#416B6D" d="M126.137,291.836c0,0.102-0.034,0.187-0.068,0.271c-0.102,0.238-0.323-0.629-0.085-0.697
		C126.052,291.529,126.137,291.666,126.137,291.836z M134.228,288.844c0.799-0.51,4.369-0.221,4.369-0.221
		c0.271-0.051,0.288-0.969-0.018-2.057c-0.051-0.153-0.119-0.85-0.187-0.986c-0.137-0.255-0.17-0.051-0.307-0.306
		c-0.255-0.493-0.476-0.935-0.935-0.986c-0.136-0.017-0.238-0.425-0.306-0.459c-0.408-0.221-0.766-0.187-1.31-0.187
		c-0.68,0-1.394,0.221-1.903,0.459c-0.408,0.187-0.238,0.187-0.306,0.289c-0.612,0.935-1.377,2.022-1.547,4.215
		c-0.034,0.493-0.103,0.969,0,1.36c0.696,2.499,1.954,3.604,3.756,3.604c1.615,0,3.247-2.362,2.669-2.346l-0.102-0.222
		c-0.442-0.135-2.261,2.092-2.669,1.922c-0.374-0.153-1.683-0.442-2.447-1.411c-0.153-0.187-0.052-0.204-0.238-0.408
		c-0.51-0.526,0.119-0.884,0.119-2.243C132.869,288.861,133.787,289.115,134.228,288.844z M136.302,287.824
		c-1.224,0.221-3.229,0.356-3.229,0.356c-0.459,0.017-0.204-2.329,1.036-3.042c0.392-0.222,1.021-0.681,1.666-0.545
		c0.527,0.119,1.445,0.408,1.615,1.055c0.051,0.187,0.237,0.068,0.204,0.527c-0.068,0.85,0.221,1.665,0,1.732
		C137.594,287.908,136.693,287.756,136.302,287.824z M137.627,288.367c-0.203-0.305,0.068-0.747,0.068-0.747
		C137.56,287.552,137.883,288.742,137.627,288.367z"/>
	<path fill="#416B6D" d="M148.559,284.68l-0.493,0.17c-0.238,0.067-0.578-0.17-0.918,0.017c-0.272,0.017,0.374,1.343,0.374,2.04
		c0,1.818-1.343,3.229-3.162,3.229c-0.544,0-1.529-0.153-2.022-0.34c-0.187-0.323-1.156,0.544-1.156,1.003
		c0,1.189,7.123-0.256,7.123,3.297c0,0.697-0.272,2.856-4.029,2.856c-3.06,0-3.96-1.599-3.96-2.754c0-0.969,0.85-1.495,1.632-1.836
		c0.051-0.272-1.173-0.629-1.173-1.309c0-0.833,1.104-1.444,1.07-1.769c-0.68-0.799-0.935-1.309-0.935-2.413
		c0-1.903,1.428-3.229,3.314-3.229c0.748,0,1.428,0.221,2.04,0.662c0.611-0.459,1.326-0.799,2.125-0.713L148.559,284.68z
		 M142.099,293.246c0.238-0.51-1.343,1.395-0.611,1.377c0.577-0.017,0.187-0.441,0.306-0.714
		C141.895,293.672,141.998,293.484,142.099,293.246z M143.306,292.516c-0.714,0.136-1.717,0.765-1.717,1.615
		c0,1.291,2.107,2.277,3.009,2.277c0.952,0,2.431-1.105,2.431-2.396c0-0.986-1.614-1.938-2.227-1.819L143.306,292.516z
		 M144.258,284.34c-1.275,0-2.38,1.377-2.38,2.583c0,1.173,1.088,2.465,2.312,2.465c1.36,0,2.108-1.19,2.108-2.481
		C146.298,285.682,145.584,284.34,144.258,284.34z M145.516,298.447c-0.204,0.119,0.136,0.578,0.306,0.511
		C146.162,298.839,145.72,298.329,145.516,298.447z"/>
	<path fill="#416B6D" d="M156.31,285.818l0.119,7.479c0,0-0.765,0.307-1.071,0.035c-0.067-0.052-0.152-0.205-0.152-0.205
		l-0.034-0.391c-0.034-1.24-1.581,0.833-2.651,0.833c-1.326,0-2.397-0.731-2.397-3.179c0,0,0.238-3.604,0-5.762
		c-0.102-0.936,0.714-0.715,0.714-0.715l0.408,0.034c0,0,0.272,0,0.204,0.51c-0.289,2.228-0.17,5.593-0.17,5.593
		c-0.034,0.986,0.85,2.601,1.921,2.601c0.815,0,1.818-0.595,1.903-1.598c0,0,0.103-4.93,0.018-6.731c0-0.102,0.204-0.102,0.306-0.17
		c0.136-0.068,0.204-0.188,0.34-0.238c0.085-0.033,0.51,0.068,0.612,0.068C156.752,284.016,156.31,285.818,156.31,285.818z
		 M151.704,286.176c0.018-0.357-0.765-0.527-0.526-0.816c0.085-0.119,0.322-0.204,0.322-0.204c0.052,0.017-0.237,0.085-0.322,0.187
		C150.939,285.631,151.738,285.801,151.704,286.176z"/>
	<path fill="#416B6D" d="M163.62,292.703c0,0,0.018-2.448,0.034-3.995c0-0.748,0.052-1.972,0.052-1.972
		c0.051-1.717,0-2.006-1.411-2.006c-1.139,0.033-1.819,0.629-2.499,1.24c0,0-0.187,2.516-0.221,4.098
		c-0.034,1.206-0.034,3.145-0.034,3.145l-0.986,0.084c0,0,0.018-4.182,0-4.504c-0.255-3.009-0.085-3.978,0.085-4.828
		c0.119-0.578,0.511-0.221,0.511-0.221l0.391,0.426l0.255,0.577c0.816-0.663,1.513-1.104,2.601-1.104
		c1.003,0,1.768,0.425,2.261,1.274c0.867-0.696,1.7-1.258,2.873-1.274c1.326,0,2.227,0.646,2.227,3.094c0,0,0,2.158,0.018,3.502
		c0,1.172,0.067,3.059,0.067,3.059c-0.476,0-1.037-0.033-1.173,0c-0.441,0.137,0.018-6.051,0.018-6.051
		c0.017-3.195,0.17-2.855-1.241-2.855c-0.969-0.018-2.022,0.985-2.584,1.58c0,0-0.136,6.035-0.187,6.986
		C164.64,293.484,163.62,292.703,163.62,292.703z M159.915,283.693c-0.034,0.034,0.34,0.611,0.085,0.085
		C159.541,282.826,159.949,283.659,159.915,283.693z M167.224,294.657c-0.222,0.153,0.68,1.122,0.425,0.595
		C167.19,294.301,167.445,294.504,167.224,294.657z"/>
	<path fill="#416B6D" d="M166.086,291.836c0,0.102-0.034,0.187-0.068,0.271c-0.102,0.238-0.323-0.629-0.085-0.697
		C166.001,291.529,166.086,291.666,166.086,291.836z M174.177,288.844c0.799-0.51,4.369-0.221,4.369-0.221
		c0.271-0.051,0.288-0.969-0.018-2.057c-0.051-0.153-0.119-0.85-0.187-0.986c-0.137-0.255-0.17-0.051-0.307-0.306
		c-0.255-0.493-0.476-0.935-0.935-0.986c-0.136-0.017-0.238-0.425-0.306-0.459c-0.408-0.221-0.766-0.187-1.31-0.187
		c-0.68,0-1.394,0.221-1.903,0.459c-0.408,0.187-0.238,0.187-0.306,0.289c-0.612,0.935-1.377,2.022-1.547,4.215
		c-0.034,0.493-0.103,0.969,0,1.36c0.696,2.499,1.954,3.604,3.756,3.604c1.615,0,3.247-2.362,2.669-2.346l-0.102-0.222
		c-0.442-0.135-2.261,2.092-2.669,1.922c-0.374-0.153-1.683-0.442-2.447-1.411c-0.153-0.187-0.052-0.204-0.238-0.408
		c-0.51-0.526,0.119-0.884,0.119-2.243C172.818,288.861,173.736,289.115,174.177,288.844z M176.251,287.824
		c-1.224,0.221-3.229,0.356-3.229,0.356c-0.459,0.017-0.204-2.329,1.036-3.042c0.392-0.222,1.021-0.681,1.666-0.545
		c0.527,0.119,1.445,0.408,1.615,1.055c0.051,0.187,0.237,0.068,0.204,0.527c-0.068,0.85,0.221,1.665,0,1.732
		C177.543,287.908,176.642,287.756,176.251,287.824z M177.577,288.367c-0.203-0.305,0.068-0.747,0.068-0.747
		C177.509,287.552,177.833,288.742,177.577,288.367z"/>
	<path fill="#416B6D" d="M183.29,290.271c0.017,0.051-0.221-0.085-0.357-0.085c-0.374,0.052,0.119,0.731-0.152,0.97
		c-0.357,0.322-0.731-0.188-1.241-0.119c-0.663,0.067-1.648,0.951-1.156,0.611c0.357-0.271,0.612-0.527,1.088-0.629
		c0.493-0.085,0.952,0.493,1.31,0.137c0.237-0.256-0.238-0.901,0.136-0.953C183.069,290.187,183.29,290.271,183.29,290.271z
		 M186.57,285.75c0.425-0.306-1.547-2.107-2.855-2.107c-1.547,0-2.532,1.733-2.532,3.349c0,3.365,4.776,1.054,4.776,3.417
		c0,1.07-0.766,2.516-1.734,2.516c-1.122,0-2.583-2.04-2.924-1.684l-0.544,0.018c-0.255,0.595,1.684,2.312,3.196,2.312
		c1.768,0,3.246-1.563,3.246-3.399c0-3.162-5.456-1.105-5.456-3.4c0-1.461,1.156-2.006,2.022-2.006c0.833,0,1.632,0.527,2.108,1.088
		c0.102,0.119,0.595,0.375,0.646-0.017L186.57,285.75z"/>
	<path fill="#416B6D" d="M202.108,289.285c0.884,0.17-0.748,0.629-0.901,1.819c-0.017,0.629,1.258,1.513,0.918,2.362l-0.17,0.511
		c-0.034,0.765-0.544-2.21-1.632-2.091c-0.901,0.255-1.904,1.683-3.247,1.683c-2.039,0-3.705-1.632-3.705-3.723
		c0-1.853,3.025-4.249,3.161-5.083c-0.033-0.543-1.173-1.648-1.173-2.924c0-1.631,0.307-2.124,1.87-2.124
		c1.513,0,2.499,1.122,2.499,2.72c0,1.632-1.31,2.091-1.564,2.601c-0.067,0.374,0.851,2.448,1.088,3.026
		c0.527,1.206,0.918,2.141,1.326,2.277c0.663-0.102,0.306-1.802,1.19-1.275L202.108,289.285z M194.305,290.306
		c0,1.444,1.105,2.21,2.601,2.21c1.037,0,2.363-0.9,2.975-1.632c-0.102-0.408-0.68-1.496-1.258-2.499
		c-0.577-1.02-0.747-2.805-1.173-2.822C196.192,285.24,194.305,288.912,194.305,290.306z M198.623,282.81
		c0-0.799-0.476-1.411-1.24-1.411c-0.884,0-1.003-0.085-1.003,0.73c0,0.901,0.459,2.193,1.003,2.211
		C198.283,284.391,198.623,283.778,198.623,282.81z M197.467,285.818c-0.085,0.033,0.051,0.271,0.136,0.238
		C197.688,286.021,197.552,285.784,197.467,285.818z M200.187,285.206c-0.085,0.034,0.051,0.272,0.136,0.238
		S200.272,285.172,200.187,285.206z M200.663,284.799c-0.119,0.067,0.085,0.407,0.204,0.34
		C200.986,285.07,200.782,284.73,200.663,284.799z M202.227,290.136c-0.052,0.017,0.051,0.187,0.102,0.17
		S202.278,290.119,202.227,290.136z"/>
	<path fill="#416B6D" d="M210.643,293.127l-0.986-0.34c0,0-0.137-5.694-0.205-9.349c-0.016-1.31-0.051-3.366-0.051-3.366h1.326
		c0,0-0.152,1.037-0.17,1.666c-0.051,1.207,0.17,3.145,0.17,3.145c0.611-0.646,1.445-1.24,2.346-1.24
		c1.615,0,3.484,1.461,3.484,5.15c0,3.604-2.158,4.776-3.434,4.776c-1.037,0-1.768-0.562-2.396-1.343L210.643,293.127z
		 M210.473,285.598c0,0-0.664,1.988-0.104,2.243C210.777,288.027,210.336,285.529,210.473,285.598z M210.727,290.662
		c0.375,0.799,1.445,2.262,2.381,2.262c0.918,0,2.311-0.477,2.396-4.335c0.033-1.411-0.646-3.96-2.5-3.96
		c-1.02,0-1.869,0.866-2.277,1.682c0,0-0.322,1.14-0.34,1.887C210.354,289.167,210.727,290.662,210.727,290.662z M210.795,291.666
		c-0.256-0.442,0.051,0.646,0.256,0.561C211.254,292.142,211.764,293.348,210.795,291.666z M215.299,284.629
		c0,0,0.154,1.682,0.918,1.988C216.625,286.787,215.164,284.561,215.299,284.629z"/>
	<path fill="#416B6D" d="M212.496,291.836c0,0.102-0.035,0.187-0.068,0.271c-0.102,0.238-0.324-0.629-0.086-0.697
		C212.41,291.529,212.496,291.666,212.496,291.836z M220.586,288.844c0.799-0.51,4.369-0.221,4.369-0.221
		c0.271-0.051,0.289-0.969-0.018-2.057c-0.051-0.153-0.119-0.85-0.186-0.986c-0.137-0.255-0.17-0.051-0.307-0.306
		c-0.256-0.493-0.477-0.935-0.936-0.986c-0.135-0.017-0.238-0.425-0.305-0.459c-0.408-0.221-0.766-0.187-1.311-0.187
		c-0.68,0-1.393,0.221-1.902,0.459c-0.408,0.187-0.238,0.187-0.307,0.289c-0.611,0.935-1.377,2.022-1.547,4.215
		c-0.033,0.493-0.102,0.969,0,1.36c0.697,2.499,1.955,3.604,3.756,3.604c1.615,0,3.248-2.362,2.67-2.346l-0.102-0.222
		c-0.443-0.135-2.262,2.092-2.67,1.922c-0.373-0.153-1.682-0.442-2.447-1.411c-0.152-0.187-0.051-0.204-0.238-0.408
		c-0.51-0.526,0.119-0.884,0.119-2.243C219.227,288.861,220.145,289.115,220.586,288.844z M222.66,287.824
		c-1.225,0.221-3.229,0.356-3.229,0.356c-0.459,0.017-0.205-2.329,1.035-3.042c0.393-0.222,1.021-0.681,1.666-0.545
		c0.527,0.119,1.445,0.408,1.615,1.055c0.051,0.187,0.238,0.068,0.205,0.527c-0.068,0.85,0.221,1.665,0,1.732
		C223.953,287.908,223.051,287.756,222.66,287.824z M223.986,288.367c-0.203-0.305,0.068-0.747,0.068-0.747
		C223.918,287.552,224.242,288.742,223.986,288.367z"/>
	<path fill="#416B6D" d="M232.486,293.229l-0.307-1.122c-0.969,0.271-1.613,1.462-2.719,1.462c-1.445,0-2.602-1.207-2.602-2.686
		c0-2.687,2.822-3.264,4.896-3.825l0.424-0.119v-0.526c0-1.071-0.254-1.784-1.818-1.649c-1.75,0.153-2.227,1.836-2.805,1.174
		l-0.152-0.357c-0.408-0.204,1.562-1.938,2.992-1.938c1.273,0,2.752,1.02,2.838,3.162l0.203,4.181
		c0.018,0.238,0.154,2.125-0.186,2.142L232.486,293.229z M227.625,292.686c0.102-0.238,0.137,0.544,0.137-0.204l-0.205-0.067
		C227.318,293.094,227.625,292.686,227.625,292.686z M232.096,287.908c0.119-0.85-4.334,1.156-4.334,2.84
		c0,0.781,0.951,1.563,1.75,1.563c1.055,0,2.805-1.037,2.668-1.53l-0.102-2.754L232.096,287.908z M228.338,285.376
		c0.613,0.017,1.326-0.425,1.021-0.815C229.053,284.17,227.846,285.359,228.338,285.376z M232.316,287.008
		c0,0-0.373,1.462-0.17,1.768C232.402,289.15,232.18,286.939,232.316,287.008z M232.486,292.414c0,0-0.188,0.102,0,0.407
		C233.115,293.875,232.35,292.346,232.486,292.414z"/>
	<path fill="#416B6D" d="M236.736,292.957c0,0-0.152,0.493-0.391,0.51c-0.271,0.018-0.51-0.51-0.51-0.51l-0.256-9.213
		c0,0,0.799-0.188,1.021,0.119c0.102,0.152,0.135,0.477,0.135,0.477l0.17,0.543c0.783-0.629,1.514-1.24,2.584-1.24
		c1.326,0,2.533,0.73,2.396,3.178c0,0,0.51,3.723-0.355,5.797c-0.068,0.188-0.238,0.51-0.238,0.51l-0.562,0.086
		c0,0-0.391,0.102-0.34-0.256c0.086-0.748,0.477-2.516,0.459-3.484c-0.016-0.833-0.203-2.142-0.203-2.142
		c-0.086-0.952,0-2.073-1.326-2.601c-1.496-0.596-1.887,0.799-2.414,1.428L236.736,292.957z"/>
	<path fill="#416B6D" d="M246.547,290.271c0.016,0.051-0.221-0.085-0.357-0.085c-0.375,0.052,0.119,0.731-0.152,0.97
		c-0.357,0.322-0.732-0.188-1.242-0.119c-0.662,0.067-1.648,0.951-1.156,0.611c0.357-0.271,0.613-0.527,1.088-0.629
		c0.494-0.085,0.953,0.493,1.311,0.137c0.236-0.256-0.238-0.901,0.135-0.953C246.326,290.187,246.547,290.271,246.547,290.271z
		 M249.826,285.75c0.426-0.306-1.547-2.107-2.855-2.107c-1.547,0-2.531,1.733-2.531,3.349c0,3.365,4.775,1.054,4.775,3.417
		c0,1.07-0.766,2.516-1.734,2.516c-1.121,0-2.582-2.04-2.924-1.684l-0.543,0.018c-0.256,0.595,1.684,2.312,3.195,2.312
		c1.768,0,3.246-1.563,3.246-3.399c0-3.162-5.455-1.105-5.455-3.4c0-1.461,1.156-2.006,2.021-2.006c0.834,0,1.633,0.527,2.109,1.088
		c0.102,0.119,0.594,0.375,0.645-0.017L249.826,285.75z"/>
</g>
<g>
	<path fill="#416B6D" d="M123.797,357.752c0.17,0.204,0.476,0.527,0.476,0.527s0.289,0.799,0.034,1.428
		c-0.153,0.373,0.204,1.972,0.051,3.484c-0.034,0.408,0.085,1.275,0.068,1.751c0,0.374-0.153,0.34-0.153,0.731
		c0,2.346,0.204,4.826,0.204,4.826s-0.272,0.646-0.646,0.715c-0.629,0.119-0.322-1.581-0.322-1.581
		c-0.629,0.782-1.513,1.802-2.55,1.802c-1.275,0-3.332-1.122-3.332-4.726c0-0.407,0.085-1.003,0.136-1.394
		c0.034-0.256-0.067-0.357-0.017-0.612c0.442-1.887,1.411-3.094,2.431-2.872c0.544,0.119-0.017-0.477,1.088-0.222
		c0.884,0.204,2.04,1.259,2.396,2.414c0,0-0.085-1.054-0.187-2.397c-0.103-1.41-0.221-3.127-0.018-3.62L123.797,357.752z
		 M123.355,364.178c-0.408-0.816-1.224-1.87-2.244-1.87c-0.918,0-1.428,0.782-1.869,1.462c-0.103,0.152-0.34,0.051-0.408,0.203
		c-0.289,0.613-0.425,1.31-0.425,1.887c0,1.615,0.815,2.856,1.309,3.928c0.103,0.221,1.411,0.748,1.785,0.748
		c0.935,0,1.479-1.207,1.853-2.006c0,0,0.119-1.309,0.119-2.159S123.355,364.178,123.355,364.178z M121.519,369.123
		c0,0-0.204,0.103,0,0.408C121.774,369.906,121.383,369.056,121.519,369.123z"/>
	<path fill="#416B6D" d="M132.162,371.096l-0.307-1.122c-0.969,0.272-1.614,1.462-2.72,1.462c-1.444,0-2.601-1.207-2.601-2.686
		c0-2.686,2.822-3.264,4.896-3.824l0.425-0.119v-0.527c0-1.07-0.255-1.785-1.818-1.648c-1.751,0.152-2.227,1.836-2.805,1.172
		l-0.153-0.356c-0.408-0.204,1.563-1.938,2.992-1.938c1.274,0,2.753,1.021,2.838,3.162l0.204,4.182
		c0.018,0.238,0.153,2.125-0.187,2.143L132.162,371.096z M127.299,370.552c0.103-0.238,0.137,0.544,0.137-0.204l-0.204-0.068
		C126.994,370.959,127.299,370.552,127.299,370.552z M131.77,365.775c0.119-0.85-4.334,1.156-4.334,2.838
		c0,0.783,0.951,1.564,1.75,1.564c1.055,0,2.805-1.037,2.669-1.529l-0.102-2.754L131.77,365.775z M128.013,363.242
		c0.612,0.018,1.326-0.425,1.021-0.816C128.727,362.035,127.521,363.226,128.013,363.242z M131.991,364.874
		c0,0-0.373,1.462-0.17,1.769C132.077,367.016,131.855,364.807,131.991,364.874z M132.162,370.279c0,0-0.188,0.103,0,0.408
		C132.791,371.742,132.025,370.211,132.162,370.279z"/>
	<path fill="#416B6D" d="M136.446,359.316c0,0-0.289,0.289-0.51,0.289c-0.119,0-0.307-0.119-0.307-0.119s-0.425-0.34-0.459-0.646
		c-0.051-0.34,0.289-0.816,0.289-0.816s0.255-0.102,0.392-0.119c0.255-0.033,0.68,0.035,0.68,0.035s0.085,0.391,0.085,0.646
		C136.616,358.874,136.446,359.316,136.446,359.316z M136.616,371.164h-1.326c0,0,0.204-5.32-0.034-8.84
		c-0.017-0.187,0.034-0.543,0.034-0.543s0.544-0.103,0.816,0.033c0.102,0.051,0.255,0.221,0.255,0.221s0.17,0.119,0.085,1.479
		C136.276,366.234,136.616,371.164,136.616,371.164z"/>
	<path fill="#416B6D" d="M140.661,357.718c-0.255,5.015,0.119,6.901,0.171,13.174c0,0.407-1.462,0.646-1.445,0.085
		c0.051-3.57-0.102-7.174-0.102-10.08c0-0.306-0.341-0.884-0.323-1.224c0-0.289,0.17-0.511,0.17-0.851
		c0.034-0.969,0.17,0.442,0.255-0.935C139.42,357.412,140.678,357.225,140.661,357.718z M139.471,360.183
		c0.17-0.765,0.425-1.104,0-1.104S139.386,360.591,139.471,360.183z M139.829,364.194c-0.085,0.356-0.17-1.31-0.052-0.969
		c0.068,0.187,0.103,0.306,0.103,0.51C139.879,363.922,139.862,364.024,139.829,364.194z"/>
	<path fill="#416B6D" d="M149.262,364.483c-0.118,0.51-0.391,1.122-0.595,1.717c-1.207,3.484-2.855,7.411-5.031,8.21
		c-0.357,0.137-1.462,0.152-1.445-0.271l-0.017-0.493c0.136-0.511,0.646-0.341,0.901-0.238c1.479,0.612,3.179-1.36,2.838-2.413
		l-2.991-8.262c0,0,0.9-1.428,1.189-0.918c0.137,0.238,0.052,0.68,0.052,0.68s1.921,7.275,2.362,7.684
		c0.493,0.459,0.188-0.289,0.188-0.289s0.68-2.652,1.224-4.317c0.289-0.884,0.306-1.394,0.629-2.346
		c0.085-0.272,0.187-0.323,0.187-0.323s0.477-0.374,0.766-0.271C149.994,362.801,149.773,362.987,149.262,364.483z M148.906,366.812
		c0.153-0.018,0.051,0.866,0.34,0.748C149.535,367.441,148.463,366.863,148.906,366.812z"/>
	<path fill="#416B6D" d="M156.25,361.916c-0.34,0,0.051-1.037,0.408-0.9c0.153,0.068,0.459,0.425,0.408,0.578
		c0.051,0.085-0.034,0.119-0.052,0.119C156.522,361.713,156.47,361.916,156.25,361.916z M156.3,362.92
		c0.085,3.178,0,11.354-0.085,12.493c-0.033,0.544,0.289,0.782,0.289,0.782s0.357,0.102,0.562,0.068
		c0.595-0.119,0.425-1.514,0.425-1.514l0.085-4.657c0.629-0.408,1.359,1.343,2.396,1.343c1.275,0,3.434-1.173,3.434-4.776
		c0-3.688-1.869-5.151-3.484-5.151c-0.901,0-1.904,0.256-2.516,0.902l-0.34-0.545C157.066,361.865,156.267,361.543,156.3,362.92z
		 M157.321,365.555c0.034-0.918,0.425-2.312,0.425-2.312c0.408-0.816,1.173-0.662,2.192-0.662c1.854,0,2.074,2.635,2.074,4.045
		c0,2.754-1.309,3.654-2.227,3.654c-0.936,0-1.666-0.781-2.04-1.58C157.746,368.699,157.27,366.795,157.321,365.555z"/>
	<path fill="#416B6D" d="M166.535,362.834c0.612,0.392,1.513-1.326,2.584-1.326c1.325,0,2.431,0.731,2.396,3.18l-0.255,6.051
		l-0.73,0.426c0,0-0.426-0.426-0.392-0.766c0.136-1.632,0.051-5.371,0.051-5.371c-0.017-0.986,0.255-2.602-1.155-2.602
		c-0.816,0-2.737,0.97-2.499,1.684l-0.255,6.459l-0.476,0.426c0,0-0.714,0.084-0.681-0.17c0.511-4.521,0.663-10.947,0.477-12.307
		c-0.222-1.547,0.714-1.429,0.714-1.429l0.476,0.341L166.535,362.834z"/>
	<path fill="#416B6D" d="M179.25,364.483c-0.118,0.51-0.391,1.122-0.595,1.717c-1.207,3.484-2.855,7.411-5.031,8.21
		c-0.357,0.137-1.462,0.152-1.445-0.271l-0.017-0.493c0.136-0.511,0.646-0.341,0.901-0.238c1.479,0.612,3.179-1.36,2.838-2.413
		l-2.991-8.262c0,0,0.9-1.428,1.189-0.918c0.137,0.238,0.052,0.68,0.052,0.68s1.92,7.275,2.362,7.684
		c0.493,0.459,0.188-0.289,0.188-0.289s0.68-2.652,1.224-4.317c0.289-0.884,0.306-1.394,0.629-2.346
		c0.085-0.272,0.187-0.323,0.187-0.323s0.477-0.374,0.766-0.271C179.981,362.801,179.76,362.987,179.25,364.483z M178.893,366.812
		c0.153-0.018,0.051,0.866,0.34,0.748C179.522,367.441,178.451,366.863,178.893,366.812z"/>
	<path fill="#416B6D" d="M183.925,368.138c0.017,0.052-0.221-0.085-0.357-0.085c-0.374,0.051,0.119,0.73-0.152,0.969
		c-0.357,0.323-0.731-0.187-1.241-0.119c-0.663,0.068-1.648,0.952-1.156,0.612c0.357-0.272,0.612-0.526,1.088-0.629
		c0.493-0.085,0.952,0.493,1.31,0.136c0.237-0.255-0.238-0.9,0.136-0.951C183.705,368.053,183.925,368.138,183.925,368.138z
		 M187.206,363.616c0.426-0.306-1.547-2.108-2.855-2.108c-1.547,0-2.532,1.734-2.532,3.35c0,3.365,4.776,1.054,4.776,3.416
		c0,1.071-0.766,2.516-1.734,2.516c-1.122,0-2.583-2.039-2.924-1.682l-0.544,0.016c-0.255,0.596,1.684,2.312,3.196,2.312
		c1.768,0,3.246-1.564,3.246-3.4c0-3.161-5.456-1.104-5.456-3.398c0-1.463,1.156-2.006,2.022-2.006c0.833,0,1.632,0.526,2.108,1.088
		c0.102,0.119,0.595,0.373,0.646-0.018L187.206,363.616z"/>
	<path fill="#416B6D" d="M190.658,359.316c0,0-0.289,0.289-0.51,0.289c-0.119,0-0.307-0.119-0.307-0.119s-0.425-0.34-0.459-0.646
		c-0.051-0.34,0.289-0.816,0.289-0.816s0.255-0.102,0.392-0.119c0.255-0.033,0.68,0.035,0.68,0.035s0.085,0.391,0.085,0.646
		C190.828,358.874,190.658,359.316,190.658,359.316z M190.828,371.164h-1.326c0,0,0.204-5.32-0.034-8.84
		c-0.017-0.187,0.034-0.543,0.034-0.543s0.544-0.103,0.816,0.033c0.102,0.051,0.255,0.221,0.255,0.221s0.17,0.119,0.085,1.479
		C190.488,366.234,190.828,371.164,190.828,371.164z"/>
	<path fill="#416B6D" d="M191.202,361.645c-0.137,0.018-0.204-0.322-0.068-0.34S191.337,361.627,191.202,361.645z M199.361,363.99
		c0.68,0.188-1.395-2.482-2.941-2.482c-2.091,0-3.756,1.445-3.756,4.965c0,3.518,1.665,4.963,3.756,4.963
		c1.514,0,3.842-2.328,3.026-2.566l-0.119-0.272c-0.306-0.374-1.428,2.073-2.566,2.125c-2.04,0-2.873-2.618-3.146-4.691
		c-0.203-1.581,0.766-3.399,2.805-3.399c1.055-0.035,1.649,1.836,2.143,1.683L199.361,363.99z M195.723,370.857
		c-0.204-0.306,0-0.408,0-0.408C198.103,371.164,195.978,371.231,195.723,370.857z M196.403,367.798
		c-0.017,0.085,0.017,0.187,0.068,0.237c0.119,0.119,0.356-0.441,0.17-0.441C196.522,367.594,196.419,367.679,196.403,367.798z
		 M198.34,364.024c-0.203-0.306,0-0.408,0-0.408C198.205,363.549,198.595,364.398,198.34,364.024z"/>
	<path fill="#416B6D" d="M206.893,371.096l-0.307-1.122c-0.969,0.272-1.615,1.462-2.721,1.462c-1.444,0-2.6-1.207-2.6-2.686
		c0-2.686,2.823-3.264,4.895-3.824l0.426-0.119v-0.527c0-1.07-0.256-1.785-1.818-1.648c-1.752,0.152-2.227,1.836-2.805,1.172
		l-0.153-0.356c-0.408-0.204,1.564-1.938,2.992-1.938c1.275,0,2.754,1.021,2.838,3.162l0.205,4.182
		c0.018,0.238,0.152,2.125-0.188,2.143L206.893,371.096z M202.03,370.552c0.103-0.238,0.137,0.544,0.137-0.204l-0.204-0.068
		C201.724,370.959,202.03,370.552,202.03,370.552z M206.5,365.775c0.119-0.85-4.333,1.156-4.333,2.838
		c0,0.783,0.951,1.564,1.75,1.564c1.055,0,2.805-1.037,2.67-1.529l-0.102-2.754L206.5,365.775z M202.744,363.242
		c0.612,0.018,1.327-0.425,1.02-0.816C203.457,362.035,202.251,363.226,202.744,363.242z M206.721,364.874
		c0,0-0.373,1.462-0.17,1.769C206.807,367.016,206.586,364.807,206.721,364.874z M206.893,370.279c0,0-0.188,0.103,0,0.408
		C207.521,371.742,206.756,370.211,206.893,370.279z"/>
	<path fill="#416B6D" d="M211.957,357.718c-0.254,5.015,0.119,6.901,0.172,13.174c0,0.407-1.463,0.646-1.445,0.085
		c0.051-3.57-0.102-7.174-0.102-10.08c0-0.306-0.342-0.884-0.324-1.224c0-0.289,0.17-0.511,0.17-0.851
		c0.035-0.969,0.17,0.442,0.256-0.935C210.717,357.412,211.975,357.225,211.957,357.718z M210.768,360.183
		c0.17-0.765,0.426-1.104,0-1.104C210.344,359.078,210.684,360.591,210.768,360.183z M211.125,364.194
		c-0.084,0.356-0.17-1.31-0.051-0.969c0.068,0.187,0.102,0.306,0.102,0.51C211.176,363.922,211.158,364.024,211.125,364.194z"/>
	<path fill="#416B6D" d="M225.166,371.096l-0.307-1.122c-0.969,0.272-1.613,1.462-2.719,1.462c-1.445,0-2.602-1.207-2.602-2.686
		c0-2.686,2.822-3.264,4.896-3.824l0.424-0.119v-0.527c0-1.07-0.254-1.785-1.818-1.648c-1.75,0.152-2.227,1.836-2.805,1.172
		l-0.152-0.356c-0.408-0.204,1.562-1.938,2.992-1.938c1.273,0,2.752,1.021,2.838,3.162l0.203,4.182
		c0.018,0.238,0.154,2.125-0.186,2.143L225.166,371.096z M220.305,370.552c0.102-0.238,0.137,0.544,0.137-0.204l-0.205-0.068
		C219.998,370.959,220.305,370.552,220.305,370.552z M224.775,365.775c0.119-0.85-4.334,1.156-4.334,2.838
		c0,0.783,0.951,1.564,1.75,1.564c1.055,0,2.805-1.037,2.668-1.529l-0.102-2.754L224.775,365.775z M221.018,363.242
		c0.613,0.018,1.326-0.425,1.021-0.816C221.732,362.035,220.525,363.226,221.018,363.242z M224.996,364.874
		c0,0-0.373,1.462-0.17,1.769C225.082,367.016,224.859,364.807,224.996,364.874z M225.166,370.279c0,0-0.188,0.103,0,0.408
		C225.795,371.742,225.029,370.211,225.166,370.279z"/>
	<path fill="#416B6D" d="M226.561,361.645c-0.137,0.018-0.203-0.322-0.068-0.34C226.629,361.287,226.697,361.627,226.561,361.645z
		 M234.721,363.99c0.68,0.188-1.395-2.482-2.941-2.482c-2.092,0-3.756,1.445-3.756,4.965c0,3.518,1.664,4.963,3.756,4.963
		c1.514,0,3.842-2.328,3.025-2.566l-0.119-0.272c-0.305-0.374-1.428,2.073-2.566,2.125c-2.039,0-2.873-2.618-3.145-4.691
		c-0.203-1.581,0.766-3.399,2.805-3.399c1.055-0.035,1.648,1.836,2.143,1.683L234.721,363.99z M231.082,370.857
		c-0.203-0.306,0-0.408,0-0.408C233.463,371.164,231.338,371.231,231.082,370.857z M231.762,367.798
		c-0.016,0.085,0.018,0.187,0.068,0.237c0.119,0.119,0.357-0.441,0.17-0.441C231.881,367.594,231.779,367.679,231.762,367.798z
		 M233.699,364.024c-0.203-0.306,0-0.408,0-0.408C233.564,363.549,233.955,364.398,233.699,364.024z"/>
	<path fill="#416B6D" d="M236.268,361.814c0.256-0.34,1.121-0.033,1.121-0.033l0.068-2.806c0,0,0.086-0.306,0.205-0.391
		c0.271-0.204,0.883,0.289,0.883,0.289s0.137,0.782,0.035,1.683c-0.051,0.51,0.135,1.225,0.135,1.225s1.887-0.613,2.107,0.17
		c0.035,0.118,0.053,0.34,0.053,0.34l-0.307,0.543l-1.854,0.068c0,0,0,0.408,0,0.68c0,0.153-0.238,0.357-0.238,0.527
		c0,0.119,0.238,0.781,0.238,0.9c0,1.955,0,3.791,0,3.791c0,0.918-0.102,2.652,0.732,1.921c0.271-0.237,1.035-1.496,1.291-0.901
		l0.238,0.188c0.561,0.357-1.004,1.428-1.463,1.428c-2.242,0-2.125-1.513-2.125-3.229v-5.304l-0.918-0.033
		C236.471,362.869,236.012,362.154,236.268,361.814z"/>
	<path fill="#416B6D" d="M243.188,359.316c0,0-0.289,0.289-0.51,0.289c-0.119,0-0.307-0.119-0.307-0.119s-0.426-0.34-0.459-0.646
		c-0.051-0.34,0.289-0.816,0.289-0.816s0.254-0.102,0.391-0.119c0.256-0.033,0.68,0.035,0.68,0.035s0.086,0.391,0.086,0.646
		C243.357,358.874,243.188,359.316,243.188,359.316z M243.357,371.164h-1.326c0,0,0.203-5.32-0.035-8.84
		c-0.016-0.187,0.035-0.543,0.035-0.543s0.543-0.103,0.816,0.033c0.102,0.051,0.254,0.221,0.254,0.221s0.17,0.119,0.086,1.479
		C243.018,366.234,243.357,371.164,243.357,371.164z"/>
	<path fill="#416B6D" d="M250.275,362.75c0.17-0.697,1.07-0.119,1.07-0.119s-0.357,2.805-1.342,5.048
		c-0.613,1.394-0.494,0.663-1.174,2.362c0,0-0.018,1.445-1.02,0.918c0,0-3.281-7.683-2.822-8.447c0.34-0.561,1.02-0.51,0.885,0.033
		c0,0,0.17-0.356,0.238,0.119c0.406,2.873,1.512,5.967,1.869,6.953C248.678,371.555,248.508,370.127,250.275,362.75z"/>
	<path fill="#416B6D" d="M254.203,359.316c0,0-0.289,0.289-0.51,0.289c-0.119,0-0.307-0.119-0.307-0.119s-0.426-0.34-0.459-0.646
		c-0.051-0.34,0.289-0.816,0.289-0.816s0.254-0.102,0.391-0.119c0.256-0.033,0.68,0.035,0.68,0.035s0.086,0.391,0.086,0.646
		C254.373,358.874,254.203,359.316,254.203,359.316z M254.373,371.164h-1.326c0,0,0.203-5.32-0.035-8.84
		c-0.016-0.187,0.035-0.543,0.035-0.543s0.543-0.103,0.816,0.033c0.102,0.051,0.254,0.221,0.254,0.221s0.17,0.119,0.086,1.479
		C254.033,366.234,254.373,371.164,254.373,371.164z"/>
	<path fill="#416B6D" d="M255.869,361.814c0.254-0.34,1.121-0.033,1.121-0.033l0.068-2.806c0,0,0.084-0.306,0.203-0.391
		c0.271-0.204,0.885,0.289,0.885,0.289s0.135,0.782,0.033,1.683c-0.051,0.51,0.137,1.225,0.137,1.225s1.887-0.613,2.107,0.17
		c0.033,0.118,0.051,0.34,0.051,0.34l-0.307,0.543l-1.852,0.068c0,0,0,0.408,0,0.68c0,0.153-0.238,0.357-0.238,0.527
		c0,0.119,0.238,0.781,0.238,0.9c0,1.955,0,3.791,0,3.791c0,0.918-0.102,2.652,0.73,1.921c0.271-0.237,1.037-1.496,1.291-0.901
		l0.238,0.188c0.561,0.357-1.002,1.428-1.461,1.428c-2.244,0-2.125-1.513-2.125-3.229v-5.304l-0.918-0.033
		C256.072,362.869,255.613,362.154,255.869,361.814z"/>
	<path fill="#416B6D" d="M267.291,364.483c-0.117,0.51-0.391,1.122-0.594,1.717c-1.207,3.484-2.855,7.411-5.031,8.21
		c-0.357,0.137-1.463,0.152-1.445-0.271l-0.018-0.493c0.137-0.511,0.646-0.341,0.902-0.238c1.479,0.612,3.178-1.36,2.838-2.413
		l-2.992-8.262c0,0,0.9-1.428,1.189-0.918c0.137,0.238,0.053,0.68,0.053,0.68s1.92,7.275,2.361,7.684
		c0.494,0.459,0.188-0.289,0.188-0.289s0.68-2.652,1.225-4.317c0.289-0.884,0.305-1.394,0.629-2.346
		c0.084-0.272,0.186-0.323,0.186-0.323s0.477-0.374,0.766-0.271C268.023,362.801,267.803,362.987,267.291,364.483z M266.936,366.812
		c0.152-0.018,0.051,0.866,0.34,0.748C267.564,367.441,266.492,366.863,266.936,366.812z"/>
</g>
</svg>
