<?xml version="1.0" encoding="utf-8"?>
<!-- Generator: Adobe Illustrator 16.0.0, SVG Export Plug-In . SVG Version: 6.00 Build 0)  -->
<!DOCTYPE svg PUBLIC "-//W3C//DTD SVG 1.1//EN" "http://www.w3.org/Graphics/SVG/1.1/DTD/svg11.dtd">
<svg version="1.1" id="Layer_1" xmlns="http://www.w3.org/2000/svg" xmlns:xlink="http://www.w3.org/1999/xlink" x="0px" y="0px"
	 width="382px" height="266px" viewBox="0 0 382 266" enable-background="new 0 0 382 266" xml:space="preserve">
<g>
	<g>
		
			<line fill="none" stroke="#3A2609" stroke-width="1.04" stroke-linecap="round" stroke-miterlimit="10" x1="347.213" y1="39.651" x2="368.395" y2="55.896"/>
		<polygon fill="#E83658" stroke="#3A2609" stroke-width="0.3467" stroke-miterlimit="10" points="319.826,25.71 316.455,33.604 
			324.781,29.396 		"/>
		<polygon fill="#E83658" stroke="#3A2609" stroke-width="0.3467" stroke-miterlimit="10" points="319.81,21.117 311.931,24.525 
			320.872,27.202 		"/>
		
			<line fill="none" stroke="#3A2609" stroke-width="1.04" stroke-linecap="round" stroke-miterlimit="10" x1="352.422" y1="38.647" x2="373.601" y2="54.892"/>
		<path fill="#EFB789" stroke="#492D08" stroke-width="0.6933" stroke-linecap="round" stroke-miterlimit="10" d="M377.809,18.756
			c0,0-19.822,8.1-25.922-1.348c-6.098-9.447-19.278-16.748-30.325-7.259c-3.475,3.04-10.026,20.512,17.131,30.061
			C365.851,49.759,377.809,18.756,377.809,18.756z"/>
		<g>
			<g>
				<path fill="none" stroke="#3A2609" stroke-width="0.6031" stroke-linecap="round" stroke-miterlimit="10" d="M372.745,23.341
					c0.398-0.71,0.6-1.128,0.6-1.128s-0.451,0.145-1.229,0.353"/>
				
					<path fill="none" stroke="#3A2609" stroke-width="0.6031" stroke-linecap="round" stroke-miterlimit="10" stroke-dasharray="2.5187,2.5187" d="
					M369.668,23.15c-5.482,1.161-15.511,2.302-18.835-3.841c-4.662-8.616-16.875-15.337-27.169-7.831
					c-4.445,2.518-8.943,16.652,14.077,26.761c18.836,8.271,30.684-7.723,34.369-13.811"/>
			</g>
		</g>
		
			<circle fill="#FFFFFF" stroke="#3A2609" stroke-width="0.4773" stroke-linecap="round" stroke-miterlimit="10" cx="330.364" cy="16.747" r="3.827"/>
		<circle fill="#3A2609" cx="329.586" cy="16.338" r="1.987"/>
		<path fill="#DD8D57" stroke="#492D08" stroke-width="0.6933" stroke-linecap="round" stroke-miterlimit="10" d="M344.395,24.455
			c0,0,7.521,6.983,14.158-1.513c6.637-8.496,0.001-16.999,0.001-16.999s-2.77,7.343-6.401,12.251
			C348.521,23.102,344.395,24.455,344.395,24.455z"/>
		<circle fill="#E56584" cx="336.763" cy="25.164" r="4.912"/>
	</g>
	<g>
		
			<line fill="none" stroke="#3A2609" stroke-width="1.04" stroke-linecap="round" stroke-miterlimit="10" x1="41.68" y1="234.381" x2="32.867" y2="259.576"/>
		<polygon fill="#E83658" stroke="#3A2609" stroke-width="0.3467" stroke-miterlimit="10" points="56.949,207.709 64.095,212.465 
			54.822,213.509 		"/>
		<polygon fill="#E83658" stroke="#3A2609" stroke-width="0.3467" stroke-miterlimit="10" points="54.445,203.858 62.903,202.393 
			56.893,209.53 		"/>
		
			<line fill="none" stroke="#3A2609" stroke-width="1.04" stroke-linecap="round" stroke-miterlimit="10" x1="36.775" y1="236.396" x2="27.961" y2="261.59"/>
		<path fill="#EFB789" stroke="#492D08" stroke-width="0.6933" stroke-linecap="round" stroke-miterlimit="10" d="M4.639,233.671
			c0,0,21.019-4.09,20.943-15.335c-0.077-11.244,6.948-24.573,21.388-22.69c4.571,0.639,19.627,11.663,2.145,34.534
			C31.632,253.049,4.639,233.671,4.639,233.671z"/>
		<g>
			<g>
				<path fill="none" stroke="#3A2609" stroke-width="0.6031" stroke-linecap="round" stroke-miterlimit="10" d="M11.386,234.73
					c-0.723-0.375-1.12-0.615-1.12-0.615s0.457-0.126,1.221-0.378"/>
				
					<path fill="none" stroke="#3A2609" stroke-width="0.6031" stroke-linecap="round" stroke-miterlimit="10" stroke-dasharray="2.5187,2.5187" d="
					M13.855,232.885c5.223-2.034,14.236-6.575,13.65-13.536c-0.823-9.761,5.71-22.077,18.434-21.439
					c5.097-0.331,16.606,9.027,2.891,30.1c-11.221,17.242-29.897,10.356-36.317,7.284"/>
			</g>
		</g>
		
			<circle fill="#FFFFFF" stroke="#3A2609" stroke-width="0.4773" stroke-linecap="round" stroke-miterlimit="10" cx="43.222" cy="205.987" r="3.827"/>
		<circle fill="#3A2609" cx="43.648" cy="205.22" r="1.987"/>
		<path fill="#DD8D57" stroke="#492D08" stroke-width="0.6933" stroke-linecap="round" stroke-miterlimit="10" d="M35.712,220.125
			c0,0-2.465,9.963-12.673,6.494c-10.208-3.469-9.317-14.217-9.317-14.217s6.34,4.625,12.068,6.739
			C31.518,221.254,35.712,220.125,35.712,220.125z"/>
		<circle fill="#E56584" cx="42.482" cy="216.536" r="4.913"/>
	</g>
	
		<circle fill="#DBF7FC" stroke="#416B6D" stroke-width="0.8382" stroke-linecap="round" stroke-miterlimit="10" stroke-dasharray="5.5625" cx="201.786" cy="136.753" r="107.1"/>
	<g>
		<g>
			<path fill="none" stroke="#416B6D" stroke-width="0.6386" stroke-linecap="round" stroke-miterlimit="10" d="M158.392,98.981
				c-2.919,3.337-2.581,8.407,0.757,11.328c2.334,2.042,5.884,1.806,7.928-0.53c1.431-1.636,1.263-4.12-0.371-5.55
				c-1.145-1.001-2.883-0.886-3.885,0.259c-0.701,0.801-0.62,2.019,0.181,2.72c0.562,0.49,1.414,0.433,1.904-0.128
				c0.343-0.392,0.303-0.988-0.089-1.333c-0.276-0.241-0.691-0.212-0.933,0.063c-0.168,0.193-0.148,0.483,0.043,0.651"/>
			<path fill="#DBF7FC" stroke="#416B6D" stroke-width="0.6386" stroke-linecap="round" stroke-miterlimit="10" d="M173.194,96.7
				c0,0-14.156-6.8-28.989-1.931c-8.235,2.751-16.1,8.461-9.915,16.694c6.185,8.232,15.95-5.44,21.853-10.473
				C162.043,95.956,173.194,96.7,173.194,96.7z"/>
			<path fill="none" stroke="#416B6D" stroke-width="0.6386" stroke-linecap="round" stroke-miterlimit="10" d="M186.638,114.594
				c1.305-8.607-4.792-16.657-13.634-17.996"/>
			<path fill="none" stroke="#416B6D" stroke-width="0.6386" stroke-linecap="round" stroke-miterlimit="10" d="M140.989,103.318
				c-0.474-3.764,9.305-8.087,21.866-9.666"/>
			<path fill="none" stroke="#416B6D" stroke-width="0.6386" stroke-linecap="round" stroke-miterlimit="10" d="M145.257,106.554
				c-0.868-3.693,8.402-9.024,20.726-11.918"/>
			
				<circle fill="#73D100" stroke="#416B6D" stroke-width="0.6386" stroke-linecap="round" stroke-miterlimit="10" cx="152.64" cy="112.372" r="2.555"/>
			
				<circle fill="#73D100" stroke="#416B6D" stroke-width="0.6386" stroke-linecap="round" stroke-miterlimit="10" cx="146.847" cy="114.924" r="1.597"/>
			
				<circle fill="#73D100" stroke="#416B6D" stroke-width="0.6386" stroke-linecap="round" stroke-miterlimit="10" cx="141.24" cy="117.24" r="1.491"/>
			<path fill="#73D100" stroke="#416B6D" stroke-width="0.6386" stroke-linecap="round" stroke-miterlimit="10" d="M134.982,116.953
				c-0.073-0.581,0.337-1.114,0.922-1.188c0.583-0.075,1.116,0.339,1.188,0.922c0.075,0.584-0.339,1.114-0.923,1.188
				C135.586,117.95,135.056,117.539,134.982,116.953z"/>
			
				<circle fill="#73D100" stroke="#416B6D" stroke-width="0.6386" stroke-linecap="round" stroke-miterlimit="10" cx="131.286" cy="113.37" r="1.676"/>
			
				<circle fill="#73D100" stroke="#416B6D" stroke-width="0.6386" stroke-linecap="round" stroke-miterlimit="10" cx="124.916" cy="111.996" r="1.28"/>
			<path fill="#73D100" stroke="#416B6D" stroke-width="0.6386" stroke-linecap="round" stroke-miterlimit="10" d="M118.792,109.346
				c-0.095-0.758,0.442-1.45,1.2-1.545c0.758-0.095,1.45,0.442,1.546,1.199c0.096,0.761-0.442,1.452-1.2,1.547
				S118.887,110.104,118.792,109.346z"/>
		</g>
		<g>
			<path fill="none" stroke="#416B6D" stroke-width="0.5166" stroke-linecap="round" stroke-miterlimit="10" d="M251.788,97.888
				c2.789,2.254,3.223,6.343,0.966,9.132c-1.578,1.951-4.44,2.256-6.393,0.676c-1.367-1.106-1.577-3.109-0.474-4.476
				c0.774-0.956,2.176-1.105,3.132-0.331c0.671,0.542,0.774,1.524,0.232,2.193c-0.379,0.468-1.065,0.542-1.534,0.162
				c-0.329-0.265-0.379-0.745-0.116-1.074c0.188-0.229,0.523-0.266,0.754-0.08c0.16,0.13,0.186,0.365,0.056,0.526"/>
			<path fill="#DBF7FC" stroke="#416B6D" stroke-width="0.5166" stroke-linecap="round" stroke-miterlimit="10" d="M239.673,98.118
				c0,0,10.341-7.381,22.841-5.554c6.945,1.053,14.002,4.515,10.214,11.931c-3.79,7.421-13.468-2.125-18.87-5.318
				C248.458,95.983,239.673,98.118,239.673,98.118z"/>
			<path fill="none" stroke="#416B6D" stroke-width="0.5166" stroke-linecap="round" stroke-miterlimit="10" d="M231.436,114.246
				c-2.233-6.682,1.513-13.942,8.375-16.235"/>
			<path fill="none" stroke="#416B6D" stroke-width="0.5166" stroke-linecap="round" stroke-miterlimit="10" d="M266.261,98.935
				c-0.144-3.067-8.539-5.159-18.768-4.678"/>
			<path fill="none" stroke="#416B6D" stroke-width="0.5166" stroke-linecap="round" stroke-miterlimit="10" d="M263.308,102.103
				c0.179-3.063-7.948-6.028-18.173-6.628"/>
			
				<circle fill="#73D100" stroke="#416B6D" stroke-width="0.5166" stroke-linecap="round" stroke-miterlimit="10" cx="258.228" cy="107.765" r="2.067"/>
			
				<circle fill="#73D100" stroke="#416B6D" stroke-width="0.5166" stroke-linecap="round" stroke-miterlimit="10" cx="263.199" cy="108.997" r="1.292"/>
			
				<circle fill="#73D100" stroke="#416B6D" stroke-width="0.5166" stroke-linecap="round" stroke-miterlimit="10" cx="267.99" cy="110.064" r="1.205"/>
			
				<circle fill="#73D100" stroke="#416B6D" stroke-width="0.5166" stroke-linecap="round" stroke-miterlimit="10" cx="272.078" cy="109.011" r="0.861"/>
			
				<circle fill="#73D100" stroke="#416B6D" stroke-width="0.5166" stroke-linecap="round" stroke-miterlimit="10" cx="275.388" cy="105.602" r="1.356"/>
			
				<circle fill="#73D100" stroke="#416B6D" stroke-width="0.5166" stroke-linecap="round" stroke-miterlimit="10" cx="280.274" cy="103.625" r="1.035"/>
			
				<circle fill="#73D100" stroke="#416B6D" stroke-width="0.5166" stroke-linecap="round" stroke-miterlimit="10" cx="283.671" cy="100.716" r="1.12"/>
		</g>
		<g>
			<g>
				
					<ellipse transform="matrix(1 0.0099 -0.0099 1 1.2191 -1.774)" fill="#73D100" stroke="#416B6D" stroke-width="0.3487" stroke-miterlimit="10" cx="179.341" cy="121.937" rx="1.279" ry="1.268"/>
				
					<ellipse transform="matrix(1 0.0099 -0.0099 1 1.1983 -1.7573)" fill="#73D100" stroke="#416B6D" stroke-width="0.3487" stroke-miterlimit="10" cx="177.618" cy="119.827" rx="1.279" ry="1.267"/>
				
					<ellipse transform="matrix(1 0.0099 -0.0099 1 1.1745 -1.7583)" fill="#73D100" stroke="#416B6D" stroke-width="0.3487" stroke-miterlimit="10" cx="177.642" cy="117.386" rx="1.278" ry="1.267"/>
				
					<ellipse transform="matrix(1 0.0097 -0.0097 1 1.1279 -1.7382)" fill="#73D100" stroke="#416B6D" stroke-width="0.3487" stroke-miterlimit="10" cx="179.061" cy="114.958" rx="1.279" ry="1.267"/>
				
					<ellipse transform="matrix(1 0.0099 -0.0099 1 1.1191 -1.7727)" fill="#73D100" stroke="#416B6D" stroke-width="0.3487" stroke-miterlimit="10" cx="179.093" cy="111.82" rx="1.279" ry="1.267"/>
				
					<ellipse transform="matrix(0.9999 0.0101 -0.0101 0.9999 1.1159 -1.7964)" fill="#73D100" stroke="#416B6D" stroke-width="0.3487" stroke-miterlimit="10" cx="178.071" cy="109.368" rx="1.279" ry="1.267"/>
				
					<ellipse transform="matrix(1 0.0099 -0.0099 1 1.0704 -1.763)" fill="#73D100" stroke="#416B6D" stroke-width="0.3487" stroke-miterlimit="10" cx="178.095" cy="106.927" rx="1.279" ry="1.268"/>
				
					<ellipse transform="matrix(1 0.0097 -0.0097 1 1.0297 -1.74)" fill="#73D100" stroke="#416B6D" stroke-width="0.3487" stroke-miterlimit="10" cx="179.163" cy="104.845" rx="1.278" ry="1.266"/>
				
					<ellipse transform="matrix(0.9999 0.0105 -0.0105 0.9999 1.0888 -1.8936)" fill="#73D100" stroke="#416B6D" stroke-width="0.3487" stroke-miterlimit="10" cx="180.927" cy="102.77" rx="1.279" ry="1.267"/>
				
					<ellipse transform="matrix(1 0.0099 -0.0099 1 1.0046 -1.7876)" fill="#73D100" stroke="#416B6D" stroke-width="0.3487" stroke-miterlimit="10" cx="180.602" cy="100.325" rx="1.279" ry="1.268"/>
				
					<ellipse transform="matrix(0.9999 0.0101 -0.0101 0.9999 0.9993 -1.8391)" fill="#73D100" stroke="#416B6D" stroke-width="0.3487" stroke-miterlimit="10" cx="182.371" cy="97.902" rx="1.28" ry="1.267"/>
				
					<ellipse transform="matrix(1 0.0097 -0.0097 1 0.9419 -1.7886)" fill="#73D100" stroke="#416B6D" stroke-width="0.3487" stroke-miterlimit="10" cx="184.135" cy="95.827" rx="1.279" ry="1.268"/>
				
					<ellipse transform="matrix(0.9999 0.0109 -0.0109 0.9999 1.0351 -2.0138)" fill="#73D100" stroke="#416B6D" stroke-width="0.3487" stroke-miterlimit="10" cx="185.549" cy="94.097" rx="1.279" ry="1.268"/>
				
					<ellipse transform="matrix(1 0.0097 -0.0097 1 0.9014 -1.816)" fill="#73D100" stroke="#416B6D" stroke-width="0.3487" stroke-miterlimit="10" cx="186.968" cy="91.67" rx="1.279" ry="1.267"/>
				
					<ellipse transform="matrix(0.9999 0.0105 -0.0105 0.9999 0.9545 -1.9726)" fill="#73D100" stroke="#416B6D" stroke-width="0.3487" stroke-miterlimit="10" cx="188.38" cy="89.941" rx="1.279" ry="1.267"/>
				
					<ellipse transform="matrix(1 0.0099 -0.0099 1 0.9027 -1.8902)" fill="#73D100" stroke="#416B6D" stroke-width="0.3487" stroke-miterlimit="10" cx="190.822" cy="89.966" rx="1.279" ry="1.267"/>
				
					<ellipse transform="matrix(0.9999 0.0101 -0.0101 0.9999 0.8988 -1.9433)" fill="#73D100" stroke="#416B6D" stroke-width="0.3487" stroke-miterlimit="10" cx="192.585" cy="87.89" rx="1.279" ry="1.267"/>
				
					<ellipse transform="matrix(1 0.0097 -0.0097 1 0.8412 -1.8716)" fill="#73D100" stroke="#416B6D" stroke-width="0.3487" stroke-miterlimit="10" cx="192.61" cy="85.449" rx="1.279" ry="1.268"/>
				
					<ellipse transform="matrix(1 0.0097 -0.0097 1 0.8312 -1.8951)" fill="#73D100" stroke="#416B6D" stroke-width="0.3487" stroke-miterlimit="10" cx="195.062" cy="84.427" rx="1.279" ry="1.267"/>
				
					<ellipse transform="matrix(0.9999 0.0103 -0.0103 0.9999 0.8741 -2.032)" fill="#73D100" stroke="#416B6D" stroke-width="0.3487" stroke-miterlimit="10" cx="197.51" cy="83.755" rx="1.279" ry="1.267"/>
				
					<ellipse transform="matrix(0.9999 0.0101 -0.0101 0.9999 0.8581 -2.0192)" fill="#73D100" stroke="#416B6D" stroke-width="0.3487" stroke-miterlimit="10" cx="199.95" cy="83.78" rx="1.279" ry="1.266"/>
				
					<ellipse transform="matrix(1 0.0099 -0.0099 1 1.2191 -1.774)" fill="#73D100" stroke="#416B6D" stroke-width="0.3487" stroke-miterlimit="10" cx="179.341" cy="121.937" rx="1.279" ry="1.268"/>
				
					<ellipse transform="matrix(1 0.0099 -0.0099 1 1.2191 -1.774)" fill="#73D100" stroke="#416B6D" stroke-width="0.3487" stroke-miterlimit="10" cx="179.341" cy="121.937" rx="1.279" ry="1.268"/>
				
					<ellipse transform="matrix(0.9999 0.0103 -0.0103 0.9999 0.8672 -2.0848)" fill="#73D100" stroke="#416B6D" stroke-width="0.3487" stroke-miterlimit="10" cx="202.747" cy="83.109" rx="1.279" ry="1.267"/>
				
					<ellipse transform="matrix(1 0.0097 -0.0097 1 0.819 -1.9934)" fill="#73D100" stroke="#416B6D" stroke-width="0.3487" stroke-miterlimit="10" cx="205.189" cy="83.134" rx="1.279" ry="1.267"/>
				
					<ellipse transform="matrix(0.9999 0.0101 -0.0101 0.9999 0.8663 -2.0967)" fill="#73D100" stroke="#416B6D" stroke-width="0.3487" stroke-miterlimit="10" cx="207.616" cy="84.552" rx="1.279" ry="1.268"/>
				
					<ellipse transform="matrix(0.9999 0.0101 -0.0101 0.9999 0.8842 -2.1141)" fill="#73D100" stroke="#416B6D" stroke-width="0.3487" stroke-miterlimit="10" cx="209.343" cy="86.314" rx="1.279" ry="1.267"/>
				
					<ellipse transform="matrix(0.9999 0.0101 -0.0101 0.9999 0.9049 -2.1263)" fill="#73D100" stroke="#416B6D" stroke-width="0.3487" stroke-miterlimit="10" cx="210.716" cy="88.42" rx="1.28" ry="1.269"/>
				
					<ellipse transform="matrix(1 0.0099 -0.0099 1 0.8815 -2.1083)" fill="#73D100" stroke="#416B6D" stroke-width="0.3487" stroke-miterlimit="10" cx="212.815" cy="87.744" rx="1.279" ry="1.268"/>
				
					<ellipse transform="matrix(1 0.0095 -0.0095 1 0.834 -2.0471)" fill="#73D100" stroke="#416B6D" stroke-width="0.3487" stroke-miterlimit="10" cx="214.921" cy="86.369" rx="1.279" ry="1.268"/>
				<path fill="#73D100" stroke="#416B6D" stroke-width="0.3487" stroke-miterlimit="10" d="M218.639,86.757
					c-0.006,0.699-0.585,1.26-1.292,1.253c-0.707-0.007-1.273-0.58-1.267-1.279c0.008-0.702,0.586-1.262,1.292-1.256
					C218.078,85.484,218.646,86.057,218.639,86.757z"/>
				
					<ellipse transform="matrix(1 0.0099 -0.0099 1 0.8862 -2.1779)" fill="#73D100" stroke="#416B6D" stroke-width="0.3487" stroke-miterlimit="10" cx="219.787" cy="88.163" rx="1.279" ry="1.266"/>
				
					<ellipse transform="matrix(1 0.0099 -0.0099 1 0.9072 -2.1914)" fill="#73D100" stroke="#416B6D" stroke-width="0.3487" stroke-miterlimit="10" cx="221.161" cy="90.269" rx="1.279" ry="1.267"/>
				
					<ellipse transform="matrix(1 0.0099 -0.0099 1 0.9283 -2.2054)" fill="#73D100" stroke="#416B6D" stroke-width="0.3487" stroke-miterlimit="10" cx="222.535" cy="92.375" rx="1.278" ry="1.267"/>
				
					<ellipse transform="matrix(0.9999 0.0107 -0.0107 0.9999 1.0159 -2.3968)" fill="#73D100" stroke="#416B6D" stroke-width="0.3487" stroke-miterlimit="10" cx="224.613" cy="93.792" rx="1.278" ry="1.266"/>
				
					<ellipse transform="matrix(1 0.0095 -0.0095 1 0.9161 -2.1603)" fill="#73D100" stroke="#416B6D" stroke-width="0.3487" stroke-miterlimit="10" cx="226.694" cy="94.857" rx="1.278" ry="1.267"/>
				
					<ellipse transform="matrix(0.9999 0.0101 -0.0101 0.9999 0.9854 -2.3089)" fill="#73D100" stroke="#416B6D" stroke-width="0.3487" stroke-miterlimit="10" cx="228.772" cy="96.274" rx="1.279" ry="1.267"/>
				
					<ellipse transform="matrix(0.9999 0.0101 -0.0101 0.9999 1.0117 -2.3156)" fill="#73D100" stroke="#416B6D" stroke-width="0.3487" stroke-miterlimit="10" cx="229.097" cy="98.719" rx="1.277" ry="1.266"/>
				
					<ellipse transform="matrix(0.9999 0.0101 -0.0101 0.9999 1.0363 -2.3148)" fill="#73D100" stroke="#416B6D" stroke-width="0.3487" stroke-miterlimit="10" cx="229.073" cy="101.16" rx="1.278" ry="1.267"/>
				
					<ellipse transform="matrix(1 0.0099 -0.0099 1 1.0429 -2.2647)" fill="#73D100" stroke="#416B6D" stroke-width="0.3487" stroke-miterlimit="10" cx="228.696" cy="103.947" rx="1.279" ry="1.267"/>
				
					<ellipse transform="matrix(1 0.0094 -0.0094 1 1.0017 -2.1214)" fill="#73D100" stroke="#416B6D" stroke-width="0.3487" stroke-miterlimit="10" cx="227.28" cy="106.024" rx="1.279" ry="1.267"/>
				
					<ellipse transform="matrix(1 0.0095 -0.0095 1 1.0357 -2.1902)" fill="#73D100" stroke="#416B6D" stroke-width="0.3487" stroke-miterlimit="10" cx="230.056" cy="107.448" rx="1.279" ry="1.267"/>
				
					<ellipse transform="matrix(1 0.0095 -0.0095 1 1.0468 -2.215)" fill="#73D100" stroke="#416B6D" stroke-width="0.3487" stroke-miterlimit="10" cx="232.487" cy="108.518" rx="1.278" ry="1.267"/>
				
					<ellipse transform="matrix(0.9999 0.0101 -0.0101 0.9999 1.1277 -2.3606)" fill="#73D100" stroke="#416B6D" stroke-width="0.3487" stroke-miterlimit="10" cx="233.865" cy="110.276" rx="1.279" ry="1.267"/>
				
					<ellipse transform="matrix(0.9999 0.0101 -0.0101 0.9999 1.1561 -2.3707)" fill="#73D100" stroke="#416B6D" stroke-width="0.3487" stroke-miterlimit="10" cx="234.883" cy="113.075" rx="1.279" ry="1.267"/>
				
					<ellipse transform="matrix(0.9999 0.0101 -0.0101 0.9999 1.1812 -2.3677)" fill="#73D100" stroke="#416B6D" stroke-width="0.3487" stroke-miterlimit="10" cx="234.509" cy="115.513" rx="1.278" ry="1.268"/>
				
					<ellipse transform="matrix(0.9999 0.0103 -0.0103 0.9999 1.2289 -2.398)" fill="#73D100" stroke="#416B6D" stroke-width="0.3487" stroke-miterlimit="10" cx="233.09" cy="117.941" rx="1.278" ry="1.267"/>
				
					<ellipse transform="matrix(1 0.0099 -0.0099 1 1.2067 -2.3081)" fill="#73D100" stroke="#416B6D" stroke-width="0.3487" stroke-miterlimit="10" cx="233.066" cy="120.381" rx="1.279" ry="1.268"/>
				
					<ellipse transform="matrix(1 0.0099 -0.0099 1 1.2315 -2.3087)" fill="#73D100" stroke="#416B6D" stroke-width="0.3487" stroke-miterlimit="10" cx="233.041" cy="122.824" rx="1.278" ry="1.266"/>
				
					<ellipse transform="matrix(1 0.0097 -0.0097 1 1.2316 -2.2645)" fill="#73D100" stroke="#416B6D" stroke-width="0.3487" stroke-miterlimit="10" cx="233.016" cy="125.264" rx="1.278" ry="1.268"/>
				
					<ellipse transform="matrix(0.9999 0.0103 -0.0103 0.9999 1.3291 -2.378)" fill="#73D100" stroke="#416B6D" stroke-width="0.3487" stroke-miterlimit="10" cx="231.249" cy="127.689" rx="1.278" ry="1.266"/>
				
					<ellipse transform="matrix(1 0.0097 -0.0097 1 1.2613 -2.2228)" fill="#73D100" stroke="#416B6D" stroke-width="0.3487" stroke-miterlimit="10" cx="228.8" cy="128.36" rx="1.278" ry="1.269"/>
				
					<ellipse transform="matrix(0.9999 0.0101 -0.0101 0.9999 1.3035 -2.2847)" fill="#73D100" stroke="#416B6D" stroke-width="0.3487" stroke-miterlimit="10" cx="226.366" cy="127.639" rx="1.278" ry="1.267"/>
				<path fill="#73D100" stroke="#416B6D" stroke-width="0.3487" stroke-miterlimit="10" d="M229.008,130.805
					c-0.007,0.7-0.584,1.262-1.291,1.254c-0.707-0.007-1.275-0.581-1.268-1.28c0.007-0.699,0.587-1.262,1.294-1.254
					C228.447,129.532,229.016,130.106,229.008,130.805z"/>
				
					<ellipse transform="matrix(0.9999 0.0103 -0.0103 0.9999 1.3857 -2.3335)" fill="#73D100" stroke="#416B6D" stroke-width="0.3487" stroke-miterlimit="10" cx="227.008" cy="133.226" rx="1.279" ry="1.267"/>
				
					<ellipse transform="matrix(0.9999 0.0101 -0.0101 0.9999 1.3841 -2.2755)" fill="#73D100" stroke="#416B6D" stroke-width="0.3487" stroke-miterlimit="10" cx="225.588" cy="135.653" rx="1.279" ry="1.267"/>
				
					<ellipse transform="matrix(0.9999 0.0103 -0.0103 0.9999 1.42 -2.2917)" fill="#73D100" stroke="#416B6D" stroke-width="0.3487" stroke-miterlimit="10" cx="223.137" cy="136.674" rx="1.28" ry="1.267"/>
				
					<ellipse transform="matrix(0.9999 0.0103 -0.0103 0.9999 1.4382 -2.2707)" fill="#73D100" stroke="#416B6D" stroke-width="0.3487" stroke-miterlimit="10" cx="221.027" cy="138.398" rx="1.279" ry="1.266"/>
				
					<ellipse transform="matrix(0.9999 0.0103 -0.0103 0.9999 1.4595 -2.256)" fill="#73D100" stroke="#416B6D" stroke-width="0.3487" stroke-miterlimit="10" cx="219.611" cy="140.476" rx="1.279" ry="1.267"/>
				
					<ellipse transform="matrix(1 0.0099 -0.0099 1 1.4194 -2.153)" fill="#73D100" stroke="#416B6D" stroke-width="0.3487" stroke-miterlimit="10" cx="217.504" cy="141.85" rx="1.278" ry="1.267"/>
				
					<ellipse transform="matrix(0.9999 0.0107 -0.0107 0.9999 1.5363 -2.2951)" fill="#73D100" stroke="#416B6D" stroke-width="0.3487" stroke-miterlimit="10" cx="215.406" cy="142.526" rx="1.279" ry="1.266"/>
				
					<ellipse transform="matrix(0.9999 0.0101 -0.0101 0.9999 1.4527 -2.1474)" fill="#73D100" stroke="#416B6D" stroke-width="0.3487" stroke-miterlimit="10" cx="212.963" cy="142.501" rx="1.279" ry="1.267"/>
				
					<ellipse transform="matrix(1 0.0099 -0.0099 1 1.4489 -2.0925)" fill="#73D100" stroke="#416B6D" stroke-width="0.3487" stroke-miterlimit="10" cx="211.546" cy="144.929" rx="1.279" ry="1.267"/>
				
					<ellipse transform="matrix(0.9999 0.0105 -0.0105 0.9999 1.5556 -2.1917)" fill="#73D100" stroke="#416B6D" stroke-width="0.3487" stroke-miterlimit="10" cx="209.431" cy="147" rx="1.278" ry="1.267"/>
				
					<ellipse transform="matrix(1 0.0097 -0.0097 1 1.4416 -2.0094)" fill="#73D100" stroke="#416B6D" stroke-width="0.3487" stroke-miterlimit="10" cx="206.99" cy="146.975" rx="1.278" ry="1.267"/>
				
					<ellipse transform="matrix(1 0.0097 -0.0097 1 1.4333 -1.9843)" fill="#73D100" stroke="#416B6D" stroke-width="0.3487" stroke-miterlimit="10" cx="204.556" cy="146.254" rx="1.279" ry="1.268"/>
				
					<ellipse transform="matrix(1 0.0099 -0.0099 1 1.448 -1.9998)" fill="#73D100" stroke="#416B6D" stroke-width="0.3487" stroke-miterlimit="10" cx="202.13" cy="144.834" rx="1.279" ry="1.267"/>
				
					<ellipse transform="matrix(1 0.0096 -0.0096 1 1.3921 -1.8972)" fill="#73D100" stroke="#416B6D" stroke-width="0.3487" stroke-miterlimit="10" cx="199.34" cy="144.805" rx="1.278" ry="1.269"/>
				
					<ellipse transform="matrix(0.9999 0.0103 -0.0103 0.9999 1.4994 -2.0221)" fill="#73D100" stroke="#416B6D" stroke-width="0.3487" stroke-miterlimit="10" cx="196.901" cy="144.434" rx="1.279" ry="1.267"/>
				
					<ellipse transform="matrix(1 0.0097 -0.0097 1 1.4098 -1.8883)" fill="#73D100" stroke="#416B6D" stroke-width="0.3487" stroke-miterlimit="10" cx="194.468" cy="143.712" rx="1.278" ry="1.267"/>
				
					<ellipse transform="matrix(1 0.0099 -0.0099 1 1.4158 -1.9106)" fill="#73D100" stroke="#416B6D" stroke-width="0.3487" stroke-miterlimit="10" cx="193.093" cy="141.605" rx="1.278" ry="1.267"/>
				
					<ellipse transform="matrix(1 0.0097 -0.0097 1 1.3671 -1.8664)" fill="#73D100" stroke="#416B6D" stroke-width="0.3487" stroke-miterlimit="10" cx="192.418" cy="139.507" rx="1.279" ry="1.266"/>
				
					<ellipse transform="matrix(0.9999 0.0103 -0.0103 0.9999 1.4411 -1.9515)" fill="#73D100" stroke="#416B6D" stroke-width="0.3487" stroke-miterlimit="10" cx="189.983" cy="138.784" rx="1.279" ry="1.266"/>
				
					<ellipse transform="matrix(0.9999 0.0103 -0.0103 0.9999 1.4335 -1.9264)" fill="#73D100" stroke="#416B6D" stroke-width="0.3487" stroke-miterlimit="10" cx="187.549" cy="138.061" rx="1.279" ry="1.268"/>
				
					<ellipse transform="matrix(1 0.0099 -0.0099 1 1.3656 -1.8344)" fill="#73D100" stroke="#416B6D" stroke-width="0.3487" stroke-miterlimit="10" cx="185.471" cy="136.646" rx="1.279" ry="1.268"/>
				
					<ellipse transform="matrix(1 0.0097 -0.0097 1 1.316 -1.7871)" fill="#73D100" stroke="#416B6D" stroke-width="0.3487" stroke-miterlimit="10" cx="184.1" cy="134.191" rx="1.278" ry="1.268"/>
				
					<ellipse transform="matrix(0.9999 0.0101 -0.0101 0.9999 1.342 -1.8417)" fill="#73D100" stroke="#416B6D" stroke-width="0.3487" stroke-miterlimit="10" cx="182.73" cy="131.736" rx="1.279" ry="1.267"/>
				
					<ellipse transform="matrix(0.9999 0.0101 -0.0101 0.9999 1.3205 -1.8209)" fill="#73D100" stroke="#416B6D" stroke-width="0.3487" stroke-miterlimit="10" cx="180.658" cy="129.623" rx="1.279" ry="1.266"/>
				
					<ellipse transform="matrix(0.9999 0.0103 -0.0103 0.9999 1.3276 -1.8378)" fill="#73D100" stroke="#416B6D" stroke-width="0.3487" stroke-miterlimit="10" cx="178.932" cy="127.862" rx="1.279" ry="1.268"/>
				
					<ellipse transform="matrix(0.9999 0.0103 -0.0103 0.9999 1.2957 -1.839)" fill="#73D100" stroke="#416B6D" stroke-width="0.3487" stroke-miterlimit="10" cx="178.964" cy="124.722" rx="1.278" ry="1.267"/>
			</g>
			<path fill="#E0E0E0" stroke="#416B6D" stroke-width="0.3487" stroke-miterlimit="10" d="M210.603,91.018
				c0,0-0.841-6.692-4.332-7.237c-3.49-0.543-4.807,0.956-5.98,0.826c-1.172-0.126-4.877-0.629-6.626-0.066
				c-1.749,0.564-0.928,5.571-0.928,5.571s-3.881-1.317-5.056-0.051c-1.176,1.269-1.675,4.75-2.68,6.252
				c-1.002,1.501-4.264,2.109-4.749,4.167c-0.486,2.06,1.713,3.012,1.713,3.012s-3.5,1.242-4.052,4.144
				c-0.552,2.9,1.877,4.086,1.86,5.89c-0.018,1.801-2.707,3.286-1.973,5.56c0.731,2.274,3.988,2.132,3.988,2.132
				s-4.103,3.388-2.503,6.252c1.598,2.866,3.108,3.112,4.661,4.755c1.552,1.645,0.706,5.007,3.254,5.788
				c2.551,0.782,5.588-0.729,5.588-0.729s0.283,6.426,2.547,6.914c2.262,0.489,2.04-0.443,5.754,0.059
				c3.714,0.501,3.81,2.595,7.653,1.994c3.841-0.601,3.371-5.72,3.371-5.72s3.163,3.169,6.444,0.761
				c3.28-2.408,2.124-3.234,3.885-4.844c1.759-1.609,1.627,0.016,4.038-2.75c2.411-2.766-1.409-7.336-1.409-7.336
				s6.177,1.456,7.598-1.146s0.279-4.704,0.067-6.8c-0.211-2.095,1.541-2.891,1.123-7.663c-0.417-4.769-10.254-3.416-10.254-3.416
				s7.897-4.979,6.016-8.484c-1.886-3.506-5.238-5.4-6.736-6.578c-1.501-1.177-2.396-4.558-5.696-5.812
				C213.887,85.208,210.603,91.018,210.603,91.018z"/>
			<path fill="#DBF7FC" stroke="#416B6D" stroke-width="0.4159" stroke-miterlimit="10" d="M205.151,116.035
				c0,0,24.279-11.625,22.684-15.228c-1.596-3.6-6.807-1.908-7.856-4.254c-1.048-2.347,1.386-3.158-2.757-6.186
				c-4.141-3.027-15.591,22.283-15.591,22.283l0.356,3.689L205.151,116.035z"/>
			<path fill="#DBF7FC" stroke="#416B6D" stroke-width="0.3487" stroke-miterlimit="10" d="M208.701,114.246
				c0,0,21.983-4.96,22.795-1.761c0.813,3.201-3.514,4.755-2.991,6.845c0.522,2.089,2.538,1.349,1.374,5.487
				c-1.164,4.14-21.817-6.63-21.817-6.63l-1.604-2.506L208.701,114.246z"/>
			<path fill="#DBF7FC" stroke="#416B6D" stroke-width="0.3487" stroke-miterlimit="10" d="M207.65,118.872
				c0,0,18.766,10.004,17.375,12.791c-1.391,2.788-5.442,1.231-6.356,3.046c-0.911,1.815,0.983,2.53-2.399,4.77
				c-3.38,2.242-11.505-18.184-11.505-18.184l0.399-2.779L207.65,118.872z"/>
			<path fill="#DBF7FC" stroke="#416B6D" stroke-width="0.3487" stroke-miterlimit="10" d="M204.536,109.212
				c0,0,5.823-21.811,2.658-22.757c-3.164-0.944-4.926,3.299-6.993,2.689c-2.067-0.611-1.257-2.604-5.444-1.614
				c-4.187,0.99,5.706,22.082,5.706,22.082l2.544,1.782L204.536,109.212z"/>
			<path fill="#DBF7FC" stroke="#416B6D" stroke-width="0.3487" stroke-miterlimit="10" d="M200.441,108.567
				c0,0-7.997-16.066-10.38-14.959c-2.386,1.108-1.167,4.561-2.721,5.289c-1.553,0.729-2.111-0.888-4.081,1.914
				c-1.969,2.8,15.069,10.135,15.069,10.135l2.355-0.271L200.441,108.567z"/>
			<path fill="#DBF7FC" stroke="#416B6D" stroke-width="0.3487" stroke-miterlimit="10" d="M201.873,113.854
				c0,0-18.764-10.007-20.304-7.3c-1.539,2.708,2.011,5.205,1.012,6.976c-0.999,1.769-2.648,0.593-2.623,4.651
				c0.023,4.056,21.51-0.581,21.51-0.581l2.085-1.881L201.873,113.854z"/>
			<path fill="#DBF7FC" stroke="#416B6D" stroke-width="0.3487" stroke-miterlimit="10" d="M205.625,122.009
				c0,0,4.162,20.21,1.22,20.901c-2.942,0.689-4.291-3.299-6.213-2.856c-1.923,0.442-1.281,2.301-5.05,1.165
				c-3.769-1.135,6.445-19.86,6.445-19.86l2.322-1.427L205.625,122.009z"/>
			<path fill="#DBF7FC" stroke="#416B6D" stroke-width="0.3487" stroke-miterlimit="10" d="M201.407,120.968
				c0,0-9.48,17.009-12.009,15.688c-2.527-1.321-1.033-5.002-2.681-5.87c-1.646-0.866-2.332,0.855-4.326-2.28
				c-1.993-3.134,16.846-10.223,16.846-10.223l2.539,0.414L201.407,120.968z"/>
			<path fill="none" stroke="#416B6D" stroke-width="0.3487" stroke-miterlimit="10" d="M197.883,98.789
				c-0.02,1.932,1.073,3.506,2.445,3.52"/>
			<path fill="none" stroke="#416B6D" stroke-width="0.3487" stroke-miterlimit="10" d="M201.699,101.723
				c0.02-2.03-0.202-3.675-0.497-3.68"/>
			<path fill="none" stroke="#416B6D" stroke-width="0.3487" stroke-miterlimit="10" d="M196.748,105.233
				c0.015-1.487-1.395-2.704-3.154-2.72"/>
			<path fill="none" stroke="#416B6D" stroke-width="0.3487" stroke-miterlimit="10" d="M195.028,106.213
				c0.006-0.618-1.263-1.131-2.834-1.146"/>
			<path fill="none" stroke="#416B6D" stroke-width="0.3487" stroke-miterlimit="10" d="M193.122,113.062
				c0.009-0.978-1.816-1.784-4.083-1.807"/>
			<path fill="none" stroke="#416B6D" stroke-width="0.3487" stroke-miterlimit="10" d="M193.498,116.926
				c-0.004,0.386-1.273,0.686-2.838,0.67"/>
			<path fill="none" stroke="#416B6D" stroke-width="0.3487" stroke-miterlimit="10" d="M193.576,123.54
				c-0.005,0.516-1.704,0.917-3.799,0.896"/>
			<path fill="none" stroke="#416B6D" stroke-width="0.3487" stroke-miterlimit="10" d="M195.933,125.346
				c-0.023,2.181-1.103,3.937-2.414,3.924"/>
			<path fill="none" stroke="#416B6D" stroke-width="0.3487" stroke-miterlimit="10" d="M191.985,126.541
				c0.007-0.681,1.771-1.217,3.947-1.194"/>
			<path fill="none" stroke="#416B6D" stroke-width="0.3487" stroke-miterlimit="10" d="M201.156,129.348
				c-0.021,2.166-0.531,3.915-1.138,3.909"/>
			<path fill="none" stroke="#416B6D" stroke-width="0.3487" stroke-miterlimit="10" d="M204.028,129.376
				c-0.023,2.167,0.262,3.923,0.635,3.929"/>
			<path fill="none" stroke="#416B6D" stroke-width="0.3487" stroke-miterlimit="10" d="M202.312,129.358
				c-0.029,2.842-0.303,5.139-0.61,5.136"/>
			<path fill="none" stroke="#416B6D" stroke-width="0.3487" stroke-miterlimit="10" d="M209.14,127.452
				c-0.022,2.175,0.984,3.946,2.25,3.959"/>
			<path fill="none" stroke="#416B6D" stroke-width="0.3487" stroke-miterlimit="10" d="M210.893,126.114
				c-0.017,1.643,0.956,2.983,2.173,2.994"/>
			<path fill="none" stroke="#416B6D" stroke-width="0.3487" stroke-miterlimit="10" d="M212.2,124.659
				c-0.008,0.812,1.305,1.479,2.935,1.496"/>
			<path fill="none" stroke="#416B6D" stroke-width="0.3487" stroke-miterlimit="10" d="M216.521,115.081
				c0.007-0.501,2.52-0.883,5.621-0.851"/>
			<path fill="none" stroke="#416B6D" stroke-width="0.3487" stroke-miterlimit="10" d="M216.501,117.156
				c-0.003,0.192,2.974,0.379,6.653,0.416"/>
			<path fill="none" stroke="#416B6D" stroke-width="0.3487" stroke-miterlimit="10" d="M216.295,118.619
				c-0.009,0.854,1.324,1.557,2.98,1.572"/>
			<path fill="none" stroke="#416B6D" stroke-width="0.3487" stroke-miterlimit="10" d="M210.533,102.683
				c-0.028,2.906-0.955,5.248-2.069,5.237"/>
			<path fill="none" stroke="#416B6D" stroke-width="0.3487" stroke-miterlimit="10" d="M210.473,108.812
				c0.017-1.66,2.102-2.984,4.664-2.957"/>
			<path fill="none" stroke="#416B6D" stroke-width="0.3487" stroke-miterlimit="10" d="M211.417,110.084
				c0.008-0.699,1.088-1.251,2.416-1.24"/>
			<path fill="none" stroke="#73D100" stroke-width="0.6975" stroke-miterlimit="10" d="M201.053,113.036
				c-0.026,2.577-2.135,4.644-4.711,4.618c-1.803-0.019-3.25-1.495-3.233-3.297c0.014-1.261,1.048-2.275,2.31-2.263
				c0.883,0.008,1.594,0.733,1.584,1.616c-0.007,0.619-0.513,1.115-1.132,1.108c-0.433-0.004-0.779-0.359-0.775-0.792
				c0.002-0.302,0.251-0.545,0.554-0.543c0.213,0.003,0.382,0.176,0.381,0.389"/>
			<path fill="none" stroke="#73D100" stroke-width="0.6975" stroke-miterlimit="10" d="M200.054,118.756
				c1.147,2.306,0.206,5.106-2.1,6.253c-1.615,0.803-3.573,0.146-4.378-1.469c-0.561-1.13-0.101-2.502,1.029-3.065
				c0.792-0.393,1.751-0.069,2.146,0.722c0.274,0.552,0.049,1.225-0.505,1.5c-0.387,0.193-0.858,0.036-1.051-0.353
				c-0.135-0.271-0.024-0.601,0.247-0.735c0.19-0.094,0.42-0.017,0.515,0.174"/>
			<path fill="none" stroke="#73D100" stroke-width="0.6975" stroke-miterlimit="10" d="M204.635,114.422
				c-0.989-2.378,0.137-5.11,2.515-6.099c1.665-0.692,3.576,0.097,4.267,1.762c0.485,1.166-0.066,2.503-1.231,2.987
				c-0.815,0.34-1.753-0.045-2.092-0.862c-0.238-0.57,0.033-1.227,0.604-1.464c0.399-0.167,0.859,0.023,1.024,0.422
				c0.117,0.28-0.016,0.601-0.296,0.717c-0.194,0.082-0.419-0.011-0.502-0.206"/>
			<path fill="none" stroke="#73D100" stroke-width="0.6975" stroke-miterlimit="10" d="M208.371,117.187
				c0.892-2.416,3.575-3.654,5.992-2.761c1.691,0.625,2.557,2.502,1.933,4.193c-0.438,1.185-1.752,1.791-2.937,1.353
				c-0.828-0.306-1.251-1.227-0.946-2.055c0.213-0.58,0.857-0.877,1.439-0.664c0.404,0.151,0.613,0.601,0.462,1.007
				c-0.104,0.285-0.419,0.43-0.703,0.325c-0.2-0.073-0.302-0.294-0.229-0.495"/>
			<path fill="none" stroke="#73D100" stroke-width="0.6975" stroke-miterlimit="10" d="M206.19,119.481
				c2.452-0.786,5.079,0.565,5.864,3.019c0.551,1.717-0.396,3.555-2.113,4.106c-1.202,0.385-2.49-0.278-2.873-1.48
				c-0.271-0.84,0.192-1.742,1.035-2.011c0.588-0.189,1.218,0.137,1.407,0.725c0.134,0.413-0.095,0.854-0.508,0.986
				c-0.287,0.092-0.596-0.067-0.69-0.356c-0.062-0.201,0.047-0.417,0.249-0.484"/>
			<path fill="none" stroke="#73D100" stroke-width="0.6975" stroke-miterlimit="10" d="M198.972,110.342
				c-1.734,0.418-3.478-0.65-3.894-2.383c-0.291-1.214,0.457-2.435,1.669-2.726c0.851-0.204,1.704,0.318,1.908,1.168
				c0.143,0.595-0.222,1.193-0.818,1.335c-0.416,0.099-0.834-0.156-0.935-0.573c-0.07-0.292,0.11-0.584,0.402-0.654
				c0.203-0.049,0.407,0.076,0.457,0.28c0.035,0.143-0.053,0.287-0.197,0.32"/>
			<path fill="none" stroke="#73D100" stroke-width="0.6975" stroke-miterlimit="10" d="M201.096,121.4
				c2.575,0.059,4.616,2.195,4.556,4.769c-0.041,1.804-1.536,3.232-3.339,3.189c-1.262-0.029-2.262-1.076-2.231-2.337
				c0.02-0.882,0.751-1.582,1.635-1.561c0.617,0.013,1.107,0.526,1.093,1.144c-0.008,0.434-0.367,0.777-0.801,0.766
				c-0.302-0.007-0.543-0.258-0.537-0.561c0.005-0.212,0.181-0.38,0.394-0.374"/>
			<path fill="none" stroke="#73D100" stroke-width="0.6975" stroke-miterlimit="10" d="M202.306,109.864
				c-2.457-0.775-3.82-3.396-3.044-5.851c0.544-1.719,2.376-2.675,4.095-2.131c1.203,0.379,1.872,1.663,1.492,2.868
				c-0.266,0.843-1.163,1.31-2.007,1.043c-0.59-0.186-0.916-0.815-0.731-1.403c0.132-0.414,0.571-0.642,0.983-0.513
				c0.289,0.09,0.45,0.399,0.36,0.69c-0.063,0.201-0.28,0.313-0.484,0.248"/>
			<circle fill="#73D100" stroke="#416B6D" stroke-width="0.3487" stroke-miterlimit="10" cx="202.424" cy="115.436" r="5.755"/>
			<circle fill="#DBF7FC" stroke="#416B6D" stroke-width="0.3487" stroke-miterlimit="10" cx="202.424" cy="115.436" r="3.531"/>
			<path fill="none" stroke="#416B6D" stroke-width="0.3487" stroke-miterlimit="10" d="M192.531,114.943
				c-0.003,0.387-1.273,0.688-2.836,0.672"/>
			<path fill="none" stroke="#416B6D" stroke-width="0.3487" stroke-miterlimit="10" d="M203.032,101.271
				c0.62-0.029,1.059-1.324,0.985-2.894"/>
		</g>
	</g>
	<g>
		<path fill="#416B6D" d="M189.457,174.192c-1.351,0.913-2.227-3.025-4.129-3.025c-1.351,0-2.607,1.084-2.607,2.531
			c0,3.691,7.211,2.245,7.211,7.42c0,2.588-1.922,4.187-4.415,4.187c-2.645,0-5.765-3.425-4.281-4.187l0.362-0.076
			c0.076-1.199,2.074,2.988,3.938,2.988c1.522,0,3.501-0.875,3.501-2.455c0-4.11-7.401-2.778-7.401-7.745
			c0-2.436,1.427-3.938,3.786-3.938c2.341,0,4.7,3.253,4.396,3.862L189.457,174.192z"/>
		<path fill="#416B6D" d="M193.45,175.676c0.685,0.438,1.693-1.484,2.892-1.484c1.484,0,2.721,0.818,2.683,3.558l-0.286,6.774
			L197.921,185c0,0-0.476-0.476-0.438-0.856c0.152-1.827,0.057-6.013,0.057-6.013c-0.019-1.104,0.285-2.911-1.294-2.911
			c-0.913,0-3.063,1.084-2.797,1.884l-0.286,7.23l-0.533,0.476c0,0-0.799,0.095-0.761-0.19c0.571-5.062,0.742-12.254,0.533-13.776
			c-0.247-1.731,0.799-1.598,0.799-1.598l0.533,0.38L193.45,175.676z"/>
		<path fill="#416B6D" d="M201.04,179.749c0-3.939,1.864-5.556,4.205-5.556c2.34,0,3.919,1.903,3.919,5.841
			c0,3.939-1.579,5.271-3.919,5.271c-1.256,0-2.359-0.457-3.121-1.484c-0.133-0.171-0.095-0.514-0.209-0.723
			c-0.209-0.38-0.533-0.666-0.647-1.18C201.116,181.29,201.04,180.566,201.04,179.749z M202.163,182.793
			c-0.267,0.076-0.019,1.046,0.095,0.78c0.038-0.095,0.076-0.19,0.076-0.304C202.333,183.078,202.239,182.926,202.163,182.793z
			 M207.871,179.749c0.267-1.77-0.152-4.776-2.436-4.776c-2.283,0-2.911,2.988-2.911,4.776s0.628,5.156,2.911,5.156
			C207.719,184.905,207.205,184.105,207.871,179.749z"/>
		<path fill="#416B6D" d="M216.603,176.438c-0.076,0.305-1.199,5.232-1.922,8.562l-1.123,0.095c0,0-0.362,0.266-0.571-0.761
			c-0.286-1.37-0.799-4.814-2.188-8.372c-0.076-0.171-0.019-0.914,0-1.123c0.019-0.362,0.114-0.19,0.476-0.209
			c0.438-0.019,0.704,0.399,0.856,0.761c1.351,3.234,1.808,7.649,1.808,7.649h0.038l2.131-7.44c0.057-0.571,0.837-0.399,1.066-0.038
			c0.438,0.704,2.302,7.401,2.397,7.611c0.894,2.131,1.484-4.338,1.865-8.106c0.019-0.247,0.457-0.304,0.723-0.228
			c0.457,0.133,0.285,0.723,0.228,1.18c-0.418,3.729-1.027,6.07-2.34,8.981c0,0-0.742,0.399-1.123,0.19
			c-0.114-0.057-0.267-0.229-0.267-0.229S217.04,174.687,216.603,176.438z M213.177,184.163c-0.247,0.114,0.095,0.761,0.343,0.647
			C213.767,184.695,213.425,184.049,213.177,184.163z"/>
		<path fill="#416B6D" d="M147.413,207.01c0.533-1.979,0.286-9.438,0.095-14.118c0-0.152,4.51,0.133,7.421-0.19
			c0.514-0.057,0.723,1.351,0.38,1.332c-4.129-0.171-2.245-0.076-4.566-0.095c-0.59,0-1.065-0.171-1.294,0.304
			c-0.742,1.522-0.361,4.966-0.304,5.214c0.152,0.647,1.123,0.399,3.025,0.19c0.19-0.019,0.685-0.476,1.046-0.285
			c0.438,0.248,0.323,1.313,0,1.332c-1.275,0.057-2.169,0.076-3.996,0.38c-0.133,0.019,0.133,4.51-0.095,6.279
			C148.593,207.714,146.918,208.836,147.413,207.01z M147.413,203.927c-0.209,0.171,0.267,0.742,0.476,0.571
			C148.098,204.327,147.623,203.756,147.413,203.927z"/>
		<path fill="#416B6D" d="M156.583,202.577c0-3.939,1.865-5.556,4.205-5.556s3.919,1.903,3.919,5.841
			c0,3.939-1.579,5.271-3.919,5.271c-1.256,0-2.359-0.457-3.121-1.484c-0.133-0.171-0.095-0.514-0.209-0.723
			c-0.209-0.38-0.533-0.666-0.647-1.18C156.658,204.118,156.583,203.395,156.583,202.577z M157.705,205.621
			c-0.267,0.076-0.019,1.046,0.095,0.78c0.038-0.095,0.076-0.19,0.076-0.304C157.876,205.906,157.781,205.754,157.705,205.621z
			 M163.413,202.577c0.267-1.77-0.152-4.776-2.436-4.776c-2.283,0-2.911,2.988-2.911,4.776s0.628,5.156,2.911,5.156
			C163.261,207.733,162.747,206.934,163.413,202.577z"/>
		<path fill="#416B6D" d="M166.741,202.577c0-3.939,1.864-5.556,4.205-5.556c2.34,0,3.919,1.903,3.919,5.841
			c0,3.939-1.579,5.271-3.919,5.271c-1.256,0-2.359-0.457-3.121-1.484c-0.133-0.171-0.095-0.514-0.209-0.723
			c-0.209-0.38-0.533-0.666-0.647-1.18C166.817,204.118,166.741,203.395,166.741,202.577z M167.864,205.621
			c-0.267,0.076-0.019,1.046,0.095,0.78c0.038-0.095,0.076-0.19,0.076-0.304C168.035,205.906,167.94,205.754,167.864,205.621z
			 M173.572,202.577c0.267-1.77-0.152-4.776-2.436-4.776c-2.283,0-2.911,2.988-2.911,4.776s0.628,5.156,2.911,5.156
			C173.42,207.733,172.906,206.934,173.572,202.577z"/>
		<path fill="#416B6D" d="M183.92,192.815c0.19,0.228,0.533,0.59,0.533,0.59s0.324,0.894,0.038,1.598
			c-0.171,0.418,0.229,2.207,0.057,3.901c-0.038,0.457,0.095,1.427,0.076,1.959c0,0.419-0.171,0.381-0.171,0.818
			c0,2.626,0.229,5.404,0.229,5.404s-0.305,0.723-0.723,0.799c-0.704,0.133-0.361-1.77-0.361-1.77
			c-0.704,0.875-1.694,2.017-2.854,2.017c-1.427,0-3.729-1.256-3.729-5.29c0-0.457,0.095-1.123,0.152-1.56
			c0.038-0.286-0.076-0.4-0.019-0.685c0.495-2.112,1.58-3.463,2.721-3.216c0.609,0.133-0.019-0.533,1.218-0.247
			c0.989,0.228,2.283,1.408,2.683,2.702c0,0-0.095-1.18-0.209-2.683c-0.114-1.58-0.248-3.501-0.019-4.053L183.92,192.815z
			 M183.426,200.008c-0.457-0.914-1.37-2.093-2.512-2.093c-1.027,0-1.598,0.875-2.093,1.637c-0.114,0.171-0.38,0.057-0.457,0.228
			c-0.323,0.685-0.476,1.465-0.476,2.112c0,1.808,0.913,3.196,1.465,4.396c0.114,0.247,1.579,0.837,1.998,0.837
			c1.047,0,1.656-1.351,2.074-2.245c0,0,0.133-1.465,0.133-2.417C183.559,201.511,183.426,200.008,183.426,200.008z
			 M181.371,205.545c0,0-0.228,0.114,0,0.457C181.656,206.42,181.218,205.469,181.371,205.545z"/>
		<path fill="#416B6D" d="M194.515,207.828c-0.304,0.152-0.913,0.095-0.913,0.095c-0.514,0.152-0.229-1.161-0.209-2.949
			c0.019-2.378-0.267-5.747-0.171-8.429c0.038-1.085-0.133-2.15-0.133-2.893c0-0.818,3.729-0.628,3.729-0.628
			c3.634-0.609,4.852,2.34,4.852,4.053c0,1.808-1.065,4.3-5.099,4.091l-1.693-0.095
			C194.154,201.454,195.162,207.505,194.515,207.828z M194.591,199.836h1.008c2.036,0,5.176-0.076,5.176-2.74
			c0-2.816-3.501-3.33-5.385-2.74c0,0-0.647-0.019-0.78,0.248C194.116,195.574,194.135,199.741,194.591,199.836z M194.572,205.374
			c0,0-0.248,0.666-0.285,1.084c-0.057,0.628,0.133,1.028,0.323,1.084C194.858,207.619,194.896,204.765,194.572,205.374z"/>
		<path fill="#416B6D" d="M209.773,200.35c-0.133,0.571-0.438,1.256-0.666,1.922c-1.351,3.901-3.197,8.296-5.632,9.19
			c-0.399,0.152-1.636,0.171-1.617-0.304l-0.019-0.552c0.152-0.571,0.723-0.38,1.008-0.266c1.655,0.685,3.558-1.522,3.178-2.702
			l-3.349-9.247c0,0,1.009-1.599,1.332-1.028c0.152,0.267,0.057,0.761,0.057,0.761s2.15,8.144,2.645,8.601
			c0.552,0.514,0.209-0.324,0.209-0.324s0.761-2.968,1.37-4.833c0.324-0.989,0.343-1.56,0.704-2.625
			c0.095-0.305,0.209-0.362,0.209-0.362s0.533-0.418,0.856-0.304C210.591,198.466,210.344,198.676,209.773,200.35z M209.374,202.957
			c0.171-0.019,0.057,0.97,0.381,0.837C210.078,203.661,208.879,203.014,209.374,202.957z"/>
		<path fill="#416B6D" d="M213.329,207.657c-0.285,0.038-0.304,0.133-0.837,0.114c0,0-0.571,0.019-0.38-0.951
			c0.399-2.036,0-7.193-0.038-9.076c0-0.438,0.895-0.419,0.895-0.419l0.533,0.19l0.057,2.074l0.019,0.057
			c0.438,0.209,1.674-2.664,2.968-2.473c0,0,0.342-0.019,0.495,0.076c0.286,0.19,0.019,0.514,0.038,0.933
			c0.133,0.457-0.875,0.361-1.313,0.647c-0.951,0.609-1.579,1.655-2.169,3.044c0,0-0.152,3.102-0.114,4.072
			c0,0.133-0.019,0.514,0.057,0.666c0.076,0.171,0.133,0.114,0.152,0.286c0.038,0.247-0.019,0.304-0.019,0.418
			C213.672,207.523,213.5,207.638,213.329,207.657z M212.378,206.04c0,0-0.476,1.465,0.057,1.465
			C212.625,207.505,212.625,206.078,212.378,206.04z M214.224,197.953c-0.038-0.418-0.799,0.057-1.066-0.247
			c-0.361-0.419,0.343-0.875,0.286-1.446c-0.057-0.533-0.324-0.837-0.59-1.275c-0.343-0.571,0.552,0.609,0.571,1.351
			c0.019,0.571-0.59,0.951-0.267,1.37c0.248,0.323,1.047-0.152,1.066,0.266c0,0.152-0.171,0.419-0.114,0.4
			C214.109,198.372,214.224,198.124,214.224,197.953z M213.367,206.706c0,0-0.152,0.342,0.209,0.495
			C213.767,207.276,213.462,206.439,213.367,206.706z M214.833,200.845c0,0-0.495,0.362,0.038,0.362
			C215.061,201.207,215.08,200.883,214.833,200.845z"/>
		<path fill="#416B6D" d="M224.763,207.752l-0.342-1.256c-1.084,0.305-1.808,1.637-3.044,1.637c-1.618,0-2.911-1.351-2.911-3.007
			c0-3.006,3.158-3.653,5.48-4.281l0.476-0.133v-0.59c0-1.199-0.286-1.998-2.036-1.846c-1.96,0.171-2.493,2.055-3.14,1.313
			l-0.171-0.4c-0.457-0.228,1.75-2.169,3.349-2.169c1.427,0,3.083,1.142,3.178,3.539l0.228,4.681
			c0.019,0.267,0.171,2.378-0.209,2.397L224.763,207.752z M219.321,207.143c0.114-0.266,0.152,0.609,0.152-0.228l-0.229-0.076
			C218.979,207.6,219.321,207.143,219.321,207.143z M224.326,201.796c0.133-0.952-4.852,1.294-4.852,3.178
			c0,0.875,1.065,1.75,1.96,1.75c1.18,0,3.14-1.161,2.987-1.712l-0.114-3.083L224.326,201.796z M220.121,198.961
			c0.685,0.019,1.484-0.476,1.142-0.914S219.569,198.942,220.121,198.961z M224.573,200.788c0,0-0.419,1.636-0.19,1.979
			C224.668,203.186,224.421,200.712,224.573,200.788z M224.763,206.839c0,0-0.209,0.114,0,0.457
			C225.467,208.475,224.611,206.763,224.763,206.839z"/>
		<path fill="#416B6D" d="M233.99,207.162c0,0,0.019-2.74,0.038-4.472c0-0.837,0.057-2.207,0.057-2.207
			c0.057-1.922,0-2.245-1.58-2.245c-1.275,0.038-2.036,0.704-2.797,1.389c0,0-0.209,2.816-0.248,4.586
			c-0.038,1.351-0.038,3.52-0.038,3.52l-1.104,0.095c0,0,0.019-4.681,0-5.042c-0.286-3.368-0.095-4.452,0.095-5.404
			c0.133-0.647,0.571-0.247,0.571-0.247l0.438,0.476l0.286,0.647c0.913-0.742,1.693-1.237,2.911-1.237
			c1.123,0,1.979,0.476,2.531,1.427c0.97-0.78,1.903-1.408,3.215-1.427c1.484,0,2.493,0.723,2.493,3.463c0,0,0,2.417,0.019,3.92
			c0,1.312,0.076,3.425,0.076,3.425c-0.533,0-1.161-0.038-1.313,0c-0.495,0.152,0.019-6.774,0.019-6.774
			c0.019-3.577,0.19-3.197-1.389-3.197c-1.085-0.019-2.265,1.104-2.893,1.77c0,0-0.152,6.755-0.209,7.821
			C235.131,208.038,233.99,207.162,233.99,207.162z M229.841,197.078c-0.038,0.038,0.381,0.685,0.095,0.095
			C229.423,196.107,229.879,197.04,229.841,197.078z M238.023,209.351c-0.248,0.171,0.761,1.255,0.476,0.666
			C237.985,208.951,238.271,209.179,238.023,209.351z"/>
		<path fill="#416B6D" d="M244.661,194.566c0,0-0.324,0.323-0.571,0.323c-0.133,0-0.343-0.133-0.343-0.133s-0.476-0.38-0.514-0.723
			c-0.057-0.381,0.324-0.914,0.324-0.914s0.285-0.114,0.438-0.133c0.286-0.038,0.761,0.038,0.761,0.038s0.095,0.438,0.095,0.723
			C244.851,194.071,244.661,194.566,244.661,194.566z M244.851,207.828h-1.484c0,0,0.229-5.956-0.038-9.895
			c-0.019-0.209,0.038-0.609,0.038-0.609s0.609-0.114,0.914,0.038c0.114,0.057,0.285,0.248,0.285,0.248s0.19,0.133,0.095,1.655
			C244.47,202.31,244.851,207.828,244.851,207.828z"/>
		<path fill="#416B6D" d="M253.926,192.815c0.19,0.228,0.533,0.59,0.533,0.59s0.324,0.894,0.038,1.598
			c-0.171,0.418,0.229,2.207,0.057,3.901c-0.038,0.457,0.095,1.427,0.076,1.959c0,0.419-0.171,0.381-0.171,0.818
			c0,2.626,0.229,5.404,0.229,5.404s-0.305,0.723-0.723,0.799c-0.704,0.133-0.361-1.77-0.361-1.77
			c-0.704,0.875-1.694,2.017-2.854,2.017c-1.427,0-3.729-1.256-3.729-5.29c0-0.457,0.095-1.123,0.152-1.56
			c0.038-0.286-0.076-0.4-0.019-0.685c0.495-2.112,1.58-3.463,2.721-3.216c0.609,0.133-0.019-0.533,1.218-0.247
			c0.989,0.228,2.283,1.408,2.683,2.702c0,0-0.095-1.18-0.209-2.683c-0.114-1.58-0.248-3.501-0.019-4.053L253.926,192.815z
			 M253.432,200.008c-0.457-0.914-1.37-2.093-2.512-2.093c-1.027,0-1.598,0.875-2.093,1.637c-0.114,0.171-0.38,0.057-0.457,0.228
			c-0.323,0.685-0.476,1.465-0.476,2.112c0,1.808,0.913,3.196,1.465,4.396c0.114,0.247,1.579,0.837,1.998,0.837
			c1.047,0,1.656-1.351,2.074-2.245c0,0,0.133-1.465,0.133-2.417C253.565,201.511,253.432,200.008,253.432,200.008z
			 M251.376,205.545c0,0-0.228,0.114,0,0.457C251.662,206.42,251.224,205.469,251.376,205.545z"/>
	</g>
</g>
</svg>
