<?xml version="1.0" encoding="utf-8"?>
<!-- Generator: Adobe Illustrator 16.0.0, SVG Export Plug-In . SVG Version: 6.00 Build 0)  -->
<!DOCTYPE svg PUBLIC "-//W3C//DTD SVG 1.1//EN" "http://www.w3.org/Graphics/SVG/1.1/DTD/svg11.dtd">
<svg version="1.1" id="Layer_1" xmlns="http://www.w3.org/2000/svg" xmlns:xlink="http://www.w3.org/1999/xlink" x="0px" y="0px"
	 width="112px" height="134px" viewBox="0 0 112 134" enable-background="new 0 0 112 134" xml:space="preserve">
<path opacity="0.9" fill="#E83658" stroke="#492D08" stroke-width="0.3706" stroke-linecap="round" stroke-miterlimit="10" enable-background="new    " d="
	M54.12,49.122c6.368-3.661,25.93-18.483,45.86,5.952c21.272,26.078-14.703,70.281-29.067,72.129
	c-8.433,1.084-18.877-1.23-18.877-1.23s-10.049,5.605-17.237,1.437C7.211,111.402-8.703,56.615,24.129,46.333
	C44.736,39.88,47.752,52.785,54.12,49.122z"/>
<path fill="none" stroke="#492D08" stroke-width="0.75" stroke-linecap="round" stroke-miterlimit="10" stroke-dasharray="3.1762" d="
	M55.844,51.693c11.441-5.567,25.805-16.92,44.352,7.911c14.796,19.814-13.213,62.751-27.568,64.484
	c-8.428,1.018-18.867-1.154-18.867-1.154s-10.042,5.26-17.226,1.348C8.965,109.268-6.939,57.872,25.871,48.228
	C46.465,42.173,44.404,57.26,55.844,51.693z"/>
<g>
	<path fill="#B5DC87" stroke="#492D08" stroke-width="0.75" stroke-linecap="round" stroke-miterlimit="10" d="M70.957,4.735
		c0,0-11.928,12.557-16.13,20.59c-4.204,8.033-2.329,20.792-2.329,20.792s13.718-3.46,20.152-13.487
		C79.081,22.6,70.957,4.735,70.957,4.735z"/>
	<path fill="#B5DC87" stroke="#492D08" stroke-width="0.75" stroke-linecap="round" stroke-miterlimit="10" d="M70.957,4.735
		c1.941,21.266-15.888,25.845-18.459,41.382"/>
	<path fill="#B5DC87" stroke="#492D08" stroke-width="0.75" stroke-linecap="round" stroke-miterlimit="10" d="M66.691,23.008
		c-0.062-0.378,3.695-1.304,8.398-2.071"/>
	
		<line fill="none" stroke="#492D08" stroke-width="0.75" stroke-linecap="round" stroke-miterlimit="10" x1="69.288" y1="18.303" x2="74.361" y2="17.477"/>
	<path fill="#B5DC87" stroke="#492D08" stroke-width="0.75" stroke-linecap="round" stroke-miterlimit="10" d="M55.543,37.972
		c-0.801-4.925-1.794-8.852-2.219-8.783"/>
	<path fill="#B5DC87" stroke="#492D08" stroke-width="0.75" stroke-linecap="round" stroke-miterlimit="10" d="M58.466,33.715
		c-0.905-5.563-2.161-9.981-2.808-9.876"/>
</g>
<g>
	<path fill="#B5DC87" stroke="#492D08" stroke-width="0.75" stroke-linecap="round" stroke-miterlimit="10" d="M6.783,48.833
		c0,0,15.923-6.812,24.917-7.955c8.993-1.145,20.302,5.053,20.302,5.053s-8.018,11.656-19.659,14.196
		C20.703,62.667,6.783,48.833,6.783,48.833z"/>
	<path fill="#B5DC87" stroke="#492D08" stroke-width="0.75" stroke-linecap="round" stroke-miterlimit="10" d="M6.783,48.833
		c19.26,9.223,29.758-5.898,45.22-2.902"/>
	<path fill="#B5DC87" stroke="#492D08" stroke-width="0.75" stroke-linecap="round" stroke-miterlimit="10" d="M25.397,51.193
		c-0.332-0.189-2.509,3.012-4.865,7.153"/>
	
		<line fill="none" stroke="#492D08" stroke-width="0.75" stroke-linecap="round" stroke-miterlimit="10" x1="20.083" y1="51.99" x2="17.543" y2="56.46"/>
	<path fill="#B5DC87" stroke="#492D08" stroke-width="0.75" stroke-linecap="round" stroke-miterlimit="10" d="M43.306,45.952
		c-4.337-2.466-7.673-4.765-7.46-5.139"/>
	<path fill="#B5DC87" stroke="#492D08" stroke-width="0.75" stroke-linecap="round" stroke-miterlimit="10" d="M38.296,47.21
		c-4.899-2.785-8.604-5.5-8.281-6.069"/>
</g>
<g>
	<path fill="#FFFFFF" d="M28.532,84.883c0.317-0.424,1.397-0.043,1.397-0.043l0.084-3.492c0,0,0.106-0.381,0.254-0.486
		c0.338-0.254,1.1,0.359,1.1,0.359s0.17,0.975,0.042,2.096c-0.063,0.636,0.169,1.523,0.169,1.523s2.35-0.762,2.625,0.212
		c0.042,0.147,0.063,0.423,0.063,0.423l-0.381,0.678l-2.307,0.086c0,0,0,0.508,0,0.847c0,0.19-0.296,0.444-0.296,0.655
		c0,0.148,0.296,0.975,0.296,1.121c0,2.436,0,4.722,0,4.722c0,1.144-0.127,3.302,0.911,2.392c0.338-0.295,1.291-1.861,1.608-1.121
		l0.296,0.232c0.699,0.444-1.249,1.777-1.82,1.777c-2.794,0-2.646-1.885-2.646-4.021v-6.604l-1.144-0.043
		C28.786,86.195,28.215,85.307,28.532,84.883z"/>
	<path fill="#FFFFFF" d="M37.147,81.771c0,0-0.36,0.358-0.635,0.358c-0.148,0-0.381-0.147-0.381-0.147s-0.529-0.424-0.572-0.805
		c-0.063-0.424,0.36-1.016,0.36-1.016s0.317-0.127,0.486-0.148c0.317-0.041,0.847,0.043,0.847,0.043s0.106,0.486,0.106,0.805
		C37.359,81.221,37.147,81.771,37.147,81.771z M37.359,96.523h-1.651c0,0,0.254-6.625-0.042-11.006
		c-0.021-0.233,0.042-0.679,0.042-0.679s0.678-0.127,1.016,0.043c0.127,0.063,0.318,0.275,0.318,0.275s0.211,0.147,0.105,1.841
		C36.936,90.386,37.359,96.523,37.359,96.523z"/>
	<path fill="#FFFFFF" d="M47.456,79.824c0.211,0.253,0.593,0.654,0.593,0.654s0.36,0.996,0.042,1.778
		c-0.191,0.466,0.254,2.455,0.063,4.339c-0.042,0.508,0.105,1.588,0.084,2.18c0,0.468-0.19,0.425-0.19,0.912
		c0,2.92,0.254,6.011,0.254,6.011s-0.338,0.805-0.804,0.89c-0.784,0.146-0.402-1.969-0.402-1.969
		c-0.783,0.974-1.883,2.242-3.175,2.242c-1.587,0-4.148-1.396-4.148-5.883c0-0.509,0.106-1.25,0.169-1.735
		c0.042-0.318-0.084-0.445-0.021-0.763c0.55-2.351,1.757-3.853,3.027-3.578c0.677,0.148-0.021-0.592,1.354-0.273
		c1.101,0.254,2.54,1.566,2.984,3.005c0,0-0.105-1.312-0.233-2.983c-0.126-1.758-0.274-3.896-0.021-4.508L47.456,79.824z
		 M46.905,87.824c-0.508-1.016-1.523-2.328-2.793-2.328c-1.144,0-1.778,0.975-2.328,1.82c-0.127,0.19-0.424,0.062-0.508,0.254
		c-0.36,0.762-0.53,1.63-0.53,2.349c0,2.013,1.016,3.558,1.63,4.89c0.127,0.276,1.757,0.934,2.223,0.934
		c1.164,0,1.841-1.504,2.307-2.498c0,0,0.148-1.63,0.148-2.688C47.053,89.496,46.905,87.824,46.905,87.824z M44.619,93.984
		c0,0-0.254,0.127,0,0.508C44.937,94.957,44.45,93.898,44.619,93.984z"/>
	<path fill="#FFFFFF" d="M52.727,96.312l-1.228-0.424c0,0-0.169-7.092-0.254-11.643c-0.021-1.629-0.063-4.189-0.063-4.189h1.651
		c0,0-0.191,1.291-0.212,2.072c-0.063,1.504,0.212,3.917,0.212,3.917c0.762-0.804,1.799-1.546,2.921-1.546
		c2.012,0,4.339,1.82,4.339,6.414c0,4.486-2.688,5.947-4.276,5.947c-1.292,0-2.202-0.697-2.984-1.672L52.727,96.312z M52.515,86.936
		c0,0-0.825,2.478-0.126,2.795C52.896,89.963,52.346,86.852,52.515,86.936z M52.833,93.243c0.465,0.993,1.799,2.815,2.963,2.815
		c1.144,0,2.878-0.594,2.985-5.397c0.042-1.759-0.805-4.933-3.111-4.933c-1.27,0-2.329,1.08-2.836,2.096c0,0-0.402,1.419-0.424,2.35
		C52.366,91.38,52.833,93.243,52.833,93.243z M52.917,94.492c-0.318-0.551,0.063,0.805,0.317,0.697
		C53.489,95.085,54.123,96.588,52.917,94.492z M58.525,85.729c0,0,0.19,2.097,1.144,2.478
		C60.177,88.417,58.355,85.645,58.525,85.729z"/>
	<path fill="#FFFFFF" d="M63.839,81.771c0,0-0.36,0.358-0.636,0.358c-0.148,0-0.38-0.147-0.38-0.147s-0.529-0.424-0.572-0.805
		c-0.063-0.424,0.36-1.016,0.36-1.016s0.316-0.127,0.486-0.148c0.317-0.041,0.848,0.043,0.848,0.043s0.105,0.486,0.105,0.805
		C64.051,81.221,63.839,81.771,63.839,81.771z M64.051,96.523H62.4c0,0,0.254-6.625-0.043-11.006
		c-0.021-0.233,0.043-0.679,0.043-0.679s0.678-0.127,1.016,0.043c0.127,0.063,0.318,0.275,0.318,0.275s0.211,0.147,0.105,1.841
		C63.627,90.386,64.051,96.523,64.051,96.523z"/>
	<path fill="#FFFFFF" d="M65.914,84.883c0.316-0.424,1.396-0.043,1.396-0.043l0.084-3.492c0,0,0.106-0.381,0.254-0.486
		c0.34-0.254,1.102,0.359,1.102,0.359s0.169,0.975,0.042,2.096c-0.063,0.636,0.169,1.523,0.169,1.523s2.35-0.762,2.625,0.212
		c0.042,0.147,0.064,0.423,0.064,0.423l-0.381,0.678l-2.309,0.086c0,0,0,0.508,0,0.847c0,0.19-0.296,0.444-0.296,0.655
		c0,0.148,0.296,0.975,0.296,1.121c0,2.436,0,4.722,0,4.722c0,1.144-0.126,3.302,0.911,2.392c0.339-0.295,1.292-1.861,1.608-1.121
		l0.297,0.232c0.697,0.444-1.25,1.777-1.821,1.777c-2.793,0-2.646-1.885-2.646-4.021v-6.604l-1.144-0.043
		C66.167,86.195,65.596,85.307,65.914,84.883z"/>
	<path fill="#FFFFFF" d="M76.307,92.757c0.021,0.063-0.275-0.106-0.445-0.106c-0.465,0.063,0.148,0.91-0.189,1.207
		c-0.445,0.402-0.91-0.232-1.545-0.147c-0.826,0.084-2.053,1.185-1.439,0.763c0.444-0.339,0.763-0.656,1.354-0.783
		c0.614-0.105,1.185,0.612,1.63,0.168c0.296-0.315-0.296-1.121,0.169-1.185C76.031,92.65,76.307,92.757,76.307,92.757z
		 M80.393,87.126c0.528-0.381-1.927-2.625-3.557-2.625c-1.926,0-3.152,2.159-3.152,4.171c0,4.189,5.947,1.312,5.947,4.254
		c0,1.334-0.953,3.133-2.158,3.133c-1.397,0-3.218-2.541-3.642-2.096l-0.679,0.021c-0.316,0.74,2.097,2.877,3.979,2.877
		c2.202,0,4.043-1.946,4.043-4.232c0-3.938-6.794-1.376-6.794-4.232c0-1.82,1.439-2.498,2.52-2.498c1.037,0,2.031,0.656,2.625,1.354
		c0.127,0.147,0.74,0.466,0.804-0.021L80.393,87.126z"/>
</g>
</svg>
