<?xml version="1.0" encoding="utf-8"?>
<!-- Generator: Adobe Illustrator 16.0.0, SVG Export Plug-In . SVG Version: 6.00 Build 0)  -->
<!DOCTYPE svg PUBLIC "-//W3C//DTD SVG 1.1//EN" "http://www.w3.org/Graphics/SVG/1.1/DTD/svg11.dtd">
<svg version="1.1" id="Layer_1" xmlns="http://www.w3.org/2000/svg" xmlns:xlink="http://www.w3.org/1999/xlink" x="0px" y="0px"
	 width="112px" height="134px" viewBox="0 0 112 134" enable-background="new 0 0 112 134" xml:space="preserve">
<path fill="#EA0764" stroke="#492D08" stroke-width="0.3706" stroke-linecap="round" stroke-miterlimit="10" enable-background="new    " d="
	M54.12,49.122c6.368-3.661,25.93-18.483,45.86,5.952c21.272,26.078-14.703,70.281-29.067,72.129
	c-8.433,1.084-18.877-1.23-18.877-1.23s-10.049,5.605-17.237,1.437C7.211,111.402-8.703,56.615,24.129,46.333
	C44.736,39.88,47.752,52.785,54.12,49.122z"/>
<path fill="none" stroke="#492D08" stroke-width="0.75" stroke-linecap="round" stroke-miterlimit="10" stroke-dasharray="3.1762" d="
	M55.844,51.693c11.441-5.567,25.805-16.92,44.352,7.911c14.796,19.814-13.213,62.751-27.568,64.484
	c-8.428,1.018-18.867-1.154-18.867-1.154s-10.042,5.26-17.226,1.348C8.965,109.268-6.939,57.872,25.871,48.228
	C46.465,42.173,44.404,57.26,55.844,51.693z"/>
<g>
	<path fill="#B5DC87" stroke="#492D08" stroke-width="0.75" stroke-linecap="round" stroke-miterlimit="10" d="M70.957,4.735
		c0,0-11.928,12.557-16.13,20.59c-4.204,8.033-2.329,20.792-2.329,20.792s13.718-3.46,20.152-13.487
		C79.081,22.6,70.957,4.735,70.957,4.735z"/>
	<path fill="#B5DC87" stroke="#492D08" stroke-width="0.75" stroke-linecap="round" stroke-miterlimit="10" d="M70.957,4.735
		c1.941,21.266-15.888,25.845-18.459,41.382"/>
	<path fill="#B5DC87" stroke="#492D08" stroke-width="0.75" stroke-linecap="round" stroke-miterlimit="10" d="M66.691,23.008
		c-0.062-0.378,3.695-1.304,8.398-2.071"/>
	
		<line fill="none" stroke="#492D08" stroke-width="0.75" stroke-linecap="round" stroke-miterlimit="10" x1="69.288" y1="18.303" x2="74.361" y2="17.477"/>
	<path fill="#B5DC87" stroke="#492D08" stroke-width="0.75" stroke-linecap="round" stroke-miterlimit="10" d="M55.543,37.972
		c-0.801-4.925-1.794-8.852-2.219-8.783"/>
	<path fill="#B5DC87" stroke="#492D08" stroke-width="0.75" stroke-linecap="round" stroke-miterlimit="10" d="M58.466,33.715
		c-0.905-5.563-2.161-9.981-2.808-9.876"/>
</g>
<g>
	<path fill="#B5DC87" stroke="#492D08" stroke-width="0.75" stroke-linecap="round" stroke-miterlimit="10" d="M6.783,48.833
		c0,0,15.923-6.812,24.917-7.955c8.993-1.145,20.302,5.053,20.302,5.053s-8.018,11.656-19.659,14.196
		C20.703,62.667,6.783,48.833,6.783,48.833z"/>
	<path fill="#B5DC87" stroke="#492D08" stroke-width="0.75" stroke-linecap="round" stroke-miterlimit="10" d="M6.783,48.833
		c19.26,9.223,29.758-5.898,45.22-2.902"/>
	<path fill="#B5DC87" stroke="#492D08" stroke-width="0.75" stroke-linecap="round" stroke-miterlimit="10" d="M25.397,51.193
		c-0.332-0.189-2.509,3.012-4.865,7.153"/>
	
		<line fill="none" stroke="#492D08" stroke-width="0.75" stroke-linecap="round" stroke-miterlimit="10" x1="20.083" y1="51.99" x2="17.543" y2="56.46"/>
	<path fill="#B5DC87" stroke="#492D08" stroke-width="0.75" stroke-linecap="round" stroke-miterlimit="10" d="M43.306,45.952
		c-4.337-2.466-7.673-4.765-7.46-5.139"/>
	<path fill="#B5DC87" stroke="#492D08" stroke-width="0.75" stroke-linecap="round" stroke-miterlimit="10" d="M38.296,47.21
		c-4.899-2.785-8.604-5.5-8.281-6.069"/>
</g>
<g>
	<path fill="#FFFFFF" d="M24.447,82.735c0.364-0.485,1.601-0.049,1.601-0.049l0.096-4.003c0,0,0.121-0.438,0.292-0.559
		c0.387-0.289,1.26,0.413,1.26,0.413s0.195,1.117,0.048,2.401c-0.072,0.729,0.193,1.747,0.193,1.747s2.693-0.874,3.008,0.242
		c0.049,0.171,0.073,0.485,0.073,0.485l-0.438,0.776l-2.644,0.101c0,0,0,0.58,0,0.969c0,0.219-0.339,0.509-0.339,0.752
		c0,0.17,0.339,1.116,0.339,1.283c0,2.792,0,5.411,0,5.411c0,1.312-0.145,3.784,1.044,2.743c0.388-0.339,1.48-2.134,1.844-1.285
		l0.338,0.266c0.801,0.51-1.431,2.037-2.085,2.037c-3.203,0-3.033-2.16-3.033-4.608v-7.567l-1.311-0.052
		C24.739,84.239,24.083,83.222,24.447,82.735z"/>
	<path fill="#FFFFFF" d="M34.321,79.171c0,0-0.413,0.408-0.728,0.408c-0.17,0-0.437-0.168-0.437-0.168s-0.606-0.485-0.655-0.921
		c-0.072-0.487,0.413-1.164,0.413-1.164s0.363-0.147,0.557-0.171c0.363-0.046,0.971,0.049,0.971,0.049s0.122,0.559,0.122,0.921
		C34.564,78.538,34.321,79.171,34.321,79.171z M34.564,96.077h-1.893c0,0,0.291-7.593-0.049-12.613
		c-0.024-0.267,0.049-0.778,0.049-0.778s0.777-0.146,1.165,0.048c0.146,0.074,0.365,0.317,0.365,0.317s0.241,0.168,0.12,2.11
		C34.079,89.043,34.564,96.077,34.564,96.077z"/>
	<path fill="#FFFFFF" d="M46.137,76.938c0.242,0.29,0.679,0.749,0.679,0.749s0.413,1.143,0.048,2.038
		c-0.219,0.534,0.292,2.814,0.072,4.974c-0.048,0.582,0.121,1.82,0.096,2.497c0,0.537-0.217,0.488-0.217,1.046
		c0,3.345,0.291,6.89,0.291,6.89s-0.388,0.922-0.922,1.02c-0.898,0.168-0.461-2.258-0.461-2.258
		c-0.897,1.116-2.159,2.569-3.639,2.569c-1.818,0-4.754-1.598-4.754-6.74c0-0.583,0.121-1.434,0.193-1.989
		c0.048-0.366-0.096-0.512-0.023-0.873c0.63-2.694,2.014-4.417,3.47-4.103c0.775,0.171-0.024-0.678,1.551-0.312
		c1.262,0.29,2.911,1.794,3.42,3.443c0,0-0.12-1.503-0.267-3.419c-0.145-2.014-0.314-4.467-0.023-5.168L46.137,76.938z
		 M45.505,86.106c-0.583-1.162-1.746-2.669-3.202-2.669c-1.312,0-2.038,1.118-2.668,2.088c-0.146,0.217-0.487,0.071-0.583,0.289
		c-0.412,0.874-0.608,1.87-0.608,2.693c0,2.308,1.166,4.078,1.869,5.605c0.146,0.315,2.014,1.068,2.548,1.068
		c1.334,0,2.109-1.725,2.644-2.862c0,0,0.169-1.868,0.169-3.081C45.675,88.022,45.505,86.106,45.505,86.106z M42.885,93.168
		c0,0-0.291,0.145,0,0.58C43.25,94.282,42.691,93.068,42.885,93.168z"/>
	<path fill="#FFFFFF" d="M52.177,95.836l-1.407-0.486c0,0-0.194-8.129-0.291-13.345c-0.025-1.865-0.073-4.801-0.073-4.801h1.892
		c0,0-0.218,1.479-0.242,2.375c-0.072,1.725,0.242,4.488,0.242,4.488c0.874-0.921,2.062-1.771,3.348-1.771
		c2.307,0,4.974,2.085,4.974,7.352c0,5.143-3.081,6.814-4.901,6.814c-1.48,0-2.523-0.798-3.42-1.915L52.177,95.836z M51.935,85.09
		c0,0-0.945,2.838-0.144,3.202C52.371,88.557,51.742,84.992,51.935,85.09z M52.299,92.318c0.533,1.139,2.062,3.228,3.398,3.228
		c1.309,0,3.297-0.682,3.421-6.188c0.046-2.017-0.924-5.653-3.567-5.653c-1.456,0-2.67,1.239-3.25,2.401
		c0,0-0.461,1.627-0.486,2.693C51.765,90.182,52.299,92.318,52.299,92.318z M52.396,93.748c-0.364-0.631,0.072,0.924,0.363,0.8
		C53.051,94.429,53.777,96.151,52.396,93.748z M58.824,83.705c0,0,0.218,2.403,1.311,2.84C60.716,86.786,58.629,83.61,58.824,83.705
		z"/>
	<path fill="#FFFFFF" d="M64.913,79.171c0,0-0.413,0.408-0.729,0.408c-0.17,0-0.436-0.168-0.436-0.168s-0.606-0.485-0.655-0.921
		c-0.073-0.487,0.413-1.164,0.413-1.164s0.362-0.147,0.558-0.171c0.363-0.046,0.971,0.049,0.971,0.049s0.121,0.559,0.121,0.921
		C65.156,78.538,64.913,79.171,64.913,79.171z M65.156,96.077h-1.891c0,0,0.29-7.593-0.049-12.613
		c-0.025-0.267,0.049-0.778,0.049-0.778s0.774-0.146,1.164,0.048c0.145,0.074,0.362,0.317,0.362,0.317s0.243,0.168,0.122,2.11
		C64.671,89.043,65.156,96.077,65.156,96.077z"/>
	<path fill="#FFFFFF" d="M67.292,82.735c0.363-0.485,1.601-0.049,1.601-0.049l0.096-4.003c0,0,0.123-0.438,0.291-0.559
		c0.391-0.289,1.262,0.413,1.262,0.413s0.195,1.117,0.05,2.401c-0.072,0.729,0.193,1.747,0.193,1.747s2.693-0.874,3.008,0.242
		c0.048,0.171,0.074,0.485,0.074,0.485l-0.435,0.776l-2.647,0.101c0,0,0,0.58,0,0.969c0,0.219-0.338,0.509-0.338,0.752
		c0,0.17,0.338,1.116,0.338,1.283c0,2.792,0,5.411,0,5.411c0,1.312-0.146,3.784,1.043,2.743c0.39-0.339,1.482-2.134,1.845-1.285
		l0.341,0.266c0.8,0.51-1.433,2.037-2.087,2.037c-3.203,0-3.033-2.16-3.033-4.608v-7.567l-1.311-0.052
		C67.582,84.239,66.927,83.222,67.292,82.735z"/>
	<path fill="#FFFFFF" d="M79.204,91.761c0.023,0.071-0.315-0.121-0.512-0.121c-0.533,0.07,0.171,1.041-0.217,1.383
		c-0.509,0.462-1.043-0.267-1.771-0.17c-0.947,0.096-2.353,1.358-1.649,0.875c0.509-0.389,0.874-0.752,1.552-0.898
		c0.704-0.122,1.359,0.702,1.868,0.193c0.339-0.362-0.339-1.286,0.194-1.357C78.889,91.64,79.204,91.761,79.204,91.761z
		 M83.886,85.307c0.605-0.437-2.208-3.009-4.075-3.009c-2.208,0-3.614,2.474-3.614,4.78c0,4.801,6.815,1.505,6.815,4.876
		c0,1.53-1.091,3.592-2.472,3.592c-1.603,0-3.688-2.913-4.175-2.402l-0.777,0.024c-0.362,0.847,2.403,3.295,4.561,3.295
		c2.525,0,4.635-2.229,4.635-4.849c0-4.514-7.787-1.578-7.787-4.851c0-2.088,1.649-2.864,2.889-2.864
		c1.188,0,2.327,0.752,3.008,1.553c0.146,0.169,0.848,0.534,0.921-0.023L83.886,85.307z"/>
</g>
</svg>
