<?xml version="1.0" encoding="utf-8"?>
<!-- Generator: Adobe Illustrator 16.0.0, SVG Export Plug-In . SVG Version: 6.00 Build 0)  -->
<!DOCTYPE svg PUBLIC "-//W3C//DTD SVG 1.1//EN" "http://www.w3.org/Graphics/SVG/1.1/DTD/svg11.dtd">
<svg version="1.1" id="Layer_1" xmlns="http://www.w3.org/2000/svg" xmlns:xlink="http://www.w3.org/1999/xlink" x="0px" y="0px"
	 width="416px" height="61.923px" viewBox="0 0 416 61.923" enable-background="new 0 0 416 61.923" xml:space="preserve">
<g>
	<path fill="#3F6B2D" d="M26.919,22c2.3-7.55,3.95-15.951,4.601-15.651c1.5-0.05,3.35-1.05,3.15,0.15
		c-0.4,2.15-3.15,9.201-5.2,16.701c-2.85,10.401-5.2,21.601-6.2,21.801c-1.3,0.45-3.3,1.25-3.601,0c-0.9-3.801-12-37.052-11-38.752
		c0.8-1.4,2.6,0,4.2,0.1c0,0,1.15,10.201,2.8,16.401c1.7,6.4,4.2,15.851,6,16.001C23.819,38.951,24.919,27.701,26.919,22z"/>
	<path fill="#3F6B2D" d="M20.717,40.951c0,0.301-0.1,0.551-0.2,0.801c-0.3,0.699-0.95-1.85-0.25-2.051
		C20.467,40.052,20.717,40.451,20.717,40.951z M44.519,32.151c2.35-1.5,12.851-0.65,12.851-0.65c0.8-0.15,0.85-2.85-0.05-6.05
		c-0.15-0.45-0.35-2.5-0.55-2.9c-0.4-0.75-0.5-0.15-0.9-0.9c-0.75-1.45-1.4-2.75-2.75-2.9c-0.4-0.05-0.7-1.25-0.9-1.35
		c-1.2-0.65-2.25-0.55-3.851-0.55c-2,0-4.1,0.65-5.6,1.35c-1.2,0.55-0.7,0.55-0.9,0.85c-1.8,2.75-4.05,5.95-4.55,12.401
		c-0.1,1.45-0.3,2.85,0,4c2.05,7.351,5.75,10.601,11.05,10.601c4.75,0,9.551-6.95,7.851-6.9l-0.3-0.649
		c-1.3-0.4-6.65,6.15-7.851,5.65c-1.1-0.451-4.95-1.301-7.2-4.15c-0.45-0.551-0.15-0.601-0.7-1.2c-1.5-1.55,0.35-2.601,0.35-6.601
		C40.519,32.201,43.219,32.951,44.519,32.151z M50.619,29.151c-3.601,0.65-9.5,1.05-9.5,1.05c-1.35,0.05-0.6-6.851,3.05-8.951
		c1.15-0.65,3-2,4.9-1.6c1.55,0.35,4.25,1.2,4.75,3.1c0.15,0.55,0.7,0.2,0.6,1.55c-0.2,2.5,0.65,4.9,0,5.1
		C54.419,29.401,51.769,28.951,50.619,29.151z M54.519,30.751c-0.6-0.9,0.2-2.2,0.2-2.2C54.319,28.351,55.27,31.851,54.519,30.751z"
		/>
	<path fill="#3F6B2D" d="M86.669,19.9l-1.45,0.5c-0.7,0.2-1.7-0.5-2.7,0.05c-0.8,0.05,1.1,3.951,1.1,6c0,5.351-3.95,9.5-9.301,9.5
		c-1.6,0-4.5-0.449-5.95-1c-0.55-0.949-3.4,1.6-3.4,2.95c0,3.501,20.952-0.75,20.952,9.7c0,2.051-0.8,8.4-11.851,8.4
		c-9,0-11.65-4.699-11.65-8.1c0-2.851,2.5-4.4,4.8-5.4c0.15-0.801-3.45-1.85-3.45-3.851c0-2.45,3.25-4.25,3.15-5.2
		c-2-2.35-2.75-3.85-2.75-7.101c0-5.6,4.2-9.5,9.75-9.5c2.2,0,4.2,0.65,6,1.95c1.8-1.35,3.9-2.35,6.25-2.1L86.669,19.9z
		 M67.668,45.102c0.7-1.5-3.95,4.101-1.8,4.051c1.7-0.051,0.55-1.301,0.9-2.1C67.068,46.352,67.368,45.802,67.668,45.102z
		 M71.218,42.951c-2.1,0.4-5.05,2.251-5.05,4.751c0,3.8,6.2,6.7,8.851,6.7c2.8,0,7.15-3.25,7.15-7.051c0-2.899-4.75-5.699-6.55-5.35
		L71.218,42.951z M74.019,18.9c-3.75,0-7,4.05-7,7.601c0,3.45,3.2,7.251,6.8,7.251c4,0,6.201-3.501,6.201-7.301
		C80.019,22.851,77.919,18.9,74.019,18.9z M77.719,60.402c-0.6,0.351,0.4,1.701,0.9,1.5C79.619,61.553,78.319,60.053,77.719,60.402z
		"/>
	<path fill="#3F6B2D" d="M73.967,40.951c0,0.301-0.1,0.551-0.2,0.801c-0.3,0.699-0.95-1.85-0.25-2.051
		C73.717,40.052,73.967,40.451,73.967,40.951z M97.769,32.151c2.35-1.5,12.851-0.65,12.851-0.65c0.8-0.15,0.85-2.85-0.05-6.05
		c-0.15-0.45-0.351-2.5-0.551-2.9c-0.399-0.75-0.5-0.15-0.899-0.9c-0.75-1.45-1.4-2.75-2.75-2.9c-0.4-0.05-0.7-1.25-0.9-1.35
		c-1.2-0.65-2.25-0.55-3.851-0.55c-2,0-4.1,0.65-5.6,1.35c-1.2,0.55-0.7,0.55-0.9,0.85c-1.8,2.75-4.05,5.95-4.55,12.401
		c-0.1,1.45-0.3,2.85,0,4c2.05,7.351,5.75,10.601,11.05,10.601c4.751,0,9.551-6.95,7.851-6.9l-0.3-0.649
		c-1.3-0.4-6.65,6.15-7.851,5.65c-1.1-0.451-4.95-1.301-7.2-4.15c-0.45-0.551-0.15-0.601-0.7-1.2c-1.5-1.55,0.35-2.601,0.35-6.601
		C93.768,32.201,96.468,32.951,97.769,32.151z M103.868,29.151c-3.6,0.65-9.5,1.05-9.5,1.05c-1.35,0.05-0.6-6.851,3.05-8.951
		c1.15-0.65,3-2,4.9-1.6c1.55,0.35,4.25,1.2,4.75,3.1c0.15,0.55,0.7,0.2,0.601,1.55c-0.2,2.5,0.649,4.9,0,5.1
		C107.669,29.401,105.019,28.951,103.868,29.151z M107.769,30.751c-0.6-0.9,0.2-2.2,0.2-2.2
		C107.568,28.351,108.519,31.851,107.769,30.751z"/>
	<path fill="#3F6B2D" d="M115.167,17.75c0.75-1,3.301-0.1,3.301-0.1l0.199-8.25c0,0,0.251-0.9,0.601-1.15
		c0.8-0.6,2.601,0.85,2.601,0.85s0.399,2.3,0.1,4.95c-0.15,1.5,0.4,3.601,0.4,3.601s5.55-1.8,6.2,0.5c0.1,0.35,0.149,1,0.149,1
		l-0.899,1.6l-5.45,0.2c0,0,0,1.2,0,2c0,0.45-0.7,1.05-0.7,1.55c0,0.35,0.7,2.3,0.7,2.65c0,5.75,0,11.151,0,11.151
		c0,2.7-0.301,7.8,2.149,5.649c0.801-0.699,3.051-4.399,3.801-2.649l0.7,0.55c1.649,1.051-2.95,4.2-4.301,4.2
		c-6.601,0-6.25-4.45-6.25-9.501v-15.6l-2.7-0.1C115.768,20.851,114.417,18.75,115.167,17.75z"/>
	<path fill="#3F6B2D" d="M147.918,45.052l-0.9-3.3c-2.85,0.8-4.75,4.3-8,4.3c-4.251,0-7.65-3.55-7.65-7.9
		c0-7.9,8.3-9.601,14.4-11.25l1.25-0.35V25c0-3.15-0.75-5.25-5.351-4.85c-5.15,0.45-6.55,5.4-8.25,3.45l-0.45-1.05
		c-1.2-0.6,4.601-5.701,8.801-5.701c3.75,0,8.101,3,8.351,9.301l0.6,12.3c0.05,0.7,0.45,6.251-0.55,6.301L147.918,45.052z
		 M133.617,43.451c0.3-0.699,0.399,1.601,0.399-0.6l-0.6-0.199C132.717,44.652,133.617,43.451,133.617,43.451z M146.768,29.401
		c0.351-2.5-12.751,3.4-12.751,8.351c0,2.3,2.801,4.6,5.15,4.6c3.101,0,8.251-3.05,7.851-4.5l-0.3-8.101L146.768,29.401z
		 M135.717,21.951c1.801,0.05,3.9-1.25,3-2.4C137.817,18.4,134.267,21.9,135.717,21.951z M147.418,26.751c0,0-1.101,4.3-0.5,5.2
		C147.668,33.051,147.018,26.551,147.418,26.751z M147.918,42.652c0,0-0.55,0.299,0,1.199
		C149.768,46.952,147.518,42.451,147.918,42.652z"/>
	<path fill="#3F6B2D" d="M160.317,44.802c-0.75,0.101-0.801,0.351-2.2,0.3c0,0-1.5,0.051-1-2.5c1.05-5.35,0-18.901-0.101-23.851
		c0-1.15,2.351-1.1,2.351-1.1l1.399,0.5l0.15,5.45l0.05,0.15c1.15,0.55,4.4-7,7.801-6.5c0,0,0.9-0.05,1.3,0.2
		c0.75,0.5,0.05,1.35,0.101,2.45c0.35,1.2-2.301,0.95-3.45,1.7c-2.501,1.6-4.15,4.35-5.701,8c0,0-0.399,8.151-0.3,10.701
		c0,0.351-0.05,1.351,0.15,1.75c0.2,0.45,0.35,0.3,0.399,0.75c0.101,0.649-0.05,0.8-0.05,1.101
		C161.217,44.452,160.767,44.752,160.317,44.802z M157.816,40.552c0,0-1.25,3.851,0.15,3.851
		C158.467,44.402,158.467,40.652,157.816,40.552z M162.667,19.3c-0.1-1.1-2.1,0.15-2.8-0.65c-0.95-1.1,0.899-2.3,0.75-3.8
		c-0.15-1.4-0.851-2.2-1.55-3.35c-0.9-1.5,1.449,1.6,1.5,3.55c0.05,1.5-1.551,2.5-0.7,3.6c0.649,0.85,2.75-0.4,2.8,0.7
		c0,0.4-0.45,1.1-0.3,1.05C162.367,20.4,162.667,19.75,162.667,19.3z M160.417,42.302c0,0-0.4,0.899,0.55,1.3
		C161.467,43.802,160.667,41.602,160.417,42.302z M164.268,26.901c0,0-1.301,0.95,0.1,0.95
		C164.867,27.851,164.917,27.001,164.268,26.901z"/>
	<path fill="#3F6B2D" d="M177.967,10.4c0,0-0.85,0.85-1.5,0.85c-0.35,0-0.899-0.35-0.899-0.35s-1.25-1-1.351-1.9
		c-0.149-1,0.851-2.4,0.851-2.4s0.75-0.3,1.149-0.35c0.75-0.1,2,0.1,2,0.1s0.25,1.15,0.25,1.9
		C178.467,9.1,177.967,10.4,177.967,10.4z M178.467,45.252h-3.899c0,0,0.6-15.651-0.101-26.001c-0.05-0.55,0.101-1.6,0.101-1.6
		s1.6-0.3,2.399,0.1c0.301,0.15,0.75,0.65,0.75,0.65s0.5,0.35,0.25,4.35C177.467,30.751,178.467,45.252,178.467,45.252z"/>
	<path fill="#3F6B2D" d="M200.468,45.052l-0.9-3.3c-2.85,0.8-4.75,4.3-8,4.3c-4.251,0-7.65-3.55-7.65-7.9
		c0-7.9,8.3-9.601,14.4-11.25l1.25-0.35V25c0-3.15-0.75-5.25-5.351-4.85c-5.15,0.45-6.55,5.4-8.25,3.45l-0.45-1.05
		c-1.2-0.6,4.601-5.701,8.801-5.701c3.75,0,8.101,3,8.351,9.301l0.6,12.3c0.05,0.7,0.45,6.251-0.55,6.301L200.468,45.052z
		 M186.167,43.451c0.3-0.699,0.399,1.601,0.399-0.6l-0.6-0.199C185.267,44.652,186.167,43.451,186.167,43.451z M199.317,29.401
		c0.351-2.5-12.751,3.4-12.751,8.351c0,2.3,2.801,4.6,5.15,4.6c3.101,0,8.251-3.05,7.851-4.5l-0.3-8.101L199.317,29.401z
		 M188.267,21.951c1.801,0.05,3.9-1.25,3-2.4C190.367,18.4,186.816,21.9,188.267,21.951z M199.968,26.751c0,0-1.101,4.3-0.5,5.2
		C200.218,33.051,199.567,26.551,199.968,26.751z M200.468,42.652c0,0-0.55,0.299,0,1.199
		C202.317,46.952,200.067,42.451,200.468,42.652z"/>
	<path fill="#3F6B2D" d="M212.967,44.252c0,0-0.45,1.45-1.15,1.5c-0.8,0.05-1.5-1.5-1.5-1.5l-0.75-27.102c0,0,2.351-0.55,3,0.35
		c0.301,0.45,0.4,1.4,0.4,1.4l0.5,1.6c2.3-1.85,4.45-3.65,7.601-3.65c3.9,0,7.45,2.15,7.051,9.351c0,0,1.5,10.951-1.051,17.051
		c-0.2,0.55-0.7,1.5-0.7,1.5l-1.649,0.25c0,0-1.15,0.3-1-0.75c0.25-2.2,1.399-7.4,1.35-10.25c-0.05-2.451-0.6-6.301-0.6-6.301
		c-0.25-2.8,0-6.1-3.9-7.65c-4.4-1.75-5.551,2.35-7.101,4.2L212.967,44.252z"/>
	<path fill="#3F6B2D" d="M249.517,10.25c0,0-2.45-4.15,1.051-3.9c0,0,2.8,0.4,5.6,0.3c1.9-0.1,3.4-0.7,5.551-0.7
		c0.899,0,2.3,0.5,3.15,0.5c2.149,0,3.55-0.4,4.65-0.2c1.3,0.25,1.199,3.9,0.05,3.35c0,0-5.101-1.6-7.801,0.4
		c-0.5,0.35-1.05,1.6-1.2,3.4c-0.1,0.75,0.601,2.1,0.55,3.05c-0.05,0.9-0.6,1.6-0.649,2.6c-0.101,3.05-0.101,6.101-0.2,8.951
		c-0.2,6.601,0.1,17.001,0.1,17.001l-2.35,0.25c-2.25,0.25,0.85-34.452-0.5-35.752c0,0-0.9-0.65-3.5-0.3
		c-0.851,0.1-1.101,0.8-2.351,1.15C251.217,10.45,250.017,10.1,249.517,10.25z M250.017,42.002c-0.75,0.15-0.25,2.15,0.5,2
		S250.767,41.852,250.017,42.002z M254.768,48.002c-0.051,1.75,0.449,0.4,0.5,0.25C255.317,48.102,254.817,46.952,254.768,48.002z"
		/>
	<path fill="#3F6B2D" d="M274.416,31.451c0-10.351,4.9-14.601,11.051-14.601s10.301,5,10.301,15.351s-4.15,13.851-10.301,13.851
		c-3.3,0-6.2-1.2-8.2-3.899c-0.35-0.451-0.25-1.351-0.55-1.9c-0.551-1-1.4-1.75-1.7-3.101
		C274.616,35.502,274.416,33.602,274.416,31.451z M277.366,39.451c-0.7,0.2-0.05,2.75,0.25,2.051c0.101-0.25,0.2-0.5,0.2-0.801
		C277.816,40.201,277.566,39.802,277.366,39.451z M292.367,31.451c0.7-4.65-0.399-12.551-6.4-12.551c-6,0-7.65,7.851-7.65,12.551
		s1.65,13.551,7.65,13.551C291.968,45.002,290.617,42.902,292.367,31.451z"/>
	<path fill="#3F6B2D" d="M305.116,44.802c-0.75,0.101-0.801,0.351-2.2,0.3c0,0-1.5,0.051-1-2.5c1.05-5.35,0-18.901-0.101-23.851
		c0-1.15,2.351-1.1,2.351-1.1l1.399,0.5l0.15,5.45l0.05,0.15c1.15,0.55,4.4-7,7.801-6.5c0,0,0.9-0.05,1.3,0.2
		c0.75,0.5,0.05,1.35,0.101,2.45c0.35,1.2-2.301,0.95-3.45,1.7c-2.501,1.6-4.15,4.35-5.701,8c0,0-0.399,8.151-0.3,10.701
		c0,0.351-0.05,1.351,0.15,1.75c0.2,0.45,0.35,0.3,0.399,0.75c0.101,0.649-0.05,0.8-0.05,1.101
		C306.016,44.452,305.565,44.752,305.116,44.802z M302.615,40.552c0,0-1.25,3.851,0.15,3.851
		C303.266,44.402,303.266,40.652,302.615,40.552z M307.466,19.3c-0.1-1.1-2.1,0.15-2.8-0.65c-0.95-1.1,0.899-2.3,0.75-3.8
		c-0.15-1.4-0.851-2.2-1.55-3.35c-0.9-1.5,1.449,1.6,1.5,3.55c0.05,1.5-1.551,2.5-0.7,3.6c0.649,0.85,2.75-0.4,2.8,0.7
		c0,0.4-0.45,1.1-0.3,1.05C307.166,20.4,307.466,19.75,307.466,19.3z M305.216,42.302c0,0-0.4,0.899,0.55,1.3
		C306.266,43.802,305.466,41.602,305.216,42.302z M309.066,26.901c0,0-1.301,0.95,0.1,0.95
		C309.666,27.851,309.716,27.001,309.066,26.901z"/>
	<path fill="#3F6B2D" d="M318.565,31.451c0-10.351,4.9-14.601,11.051-14.601s10.301,5,10.301,15.351s-4.15,13.851-10.301,13.851
		c-3.3,0-6.2-1.2-8.2-3.899c-0.351-0.451-0.25-1.351-0.55-1.9c-0.551-1-1.4-1.75-1.7-3.101
		C318.766,35.502,318.565,33.602,318.565,31.451z M321.516,39.451c-0.7,0.2-0.05,2.75,0.25,2.051c0.101-0.25,0.2-0.5,0.2-0.801
		C321.966,40.201,321.716,39.802,321.516,39.451z M336.517,31.451c0.7-4.65-0.399-12.551-6.4-12.551c-6,0-7.65,7.851-7.65,12.551
		s1.65,13.551,7.65,13.551C336.117,45.002,334.767,42.902,336.517,31.451z"/>
	<path fill="#3F6B2D" d="M349.366,44.252c0,0-0.45,1.45-1.15,1.5c-0.8,0.05-1.5-1.5-1.5-1.5l-0.75-27.102c0,0,2.351-0.55,3,0.35
		c0.301,0.45,0.4,1.4,0.4,1.4l0.5,1.6c2.3-1.85,4.45-3.65,7.601-3.65c3.9,0,7.45,2.15,7.051,9.351c0,0,1.5,10.951-1.051,17.051
		c-0.2,0.55-0.7,1.5-0.7,1.5l-1.649,0.25c0,0-1.15,0.3-1-0.75c0.25-2.2,1.399-7.4,1.35-10.25c-0.05-2.451-0.6-6.301-0.6-6.301
		c-0.25-2.8,0-6.1-3.9-7.65c-4.4-1.75-5.551,2.35-7.101,4.2L349.366,44.252z"/>
	<path fill="#3F6B2D" d="M368.815,17.75c0.75-1,3.301-0.1,3.301-0.1l0.199-8.25c0,0,0.251-0.9,0.601-1.15
		c0.8-0.6,2.601,0.85,2.601,0.85s0.399,2.3,0.1,4.95c-0.15,1.5,0.4,3.601,0.4,3.601s5.55-1.8,6.2,0.5c0.1,0.35,0.149,1,0.149,1
		l-0.899,1.6l-5.45,0.2c0,0,0,1.2,0,2c0,0.45-0.7,1.05-0.7,1.55c0,0.35,0.7,2.3,0.7,2.65c0,5.75,0,11.151,0,11.151
		c0,2.7-0.301,7.8,2.149,5.649c0.801-0.699,3.051-4.399,3.801-2.649l0.7,0.55c1.649,1.051-2.95,4.2-4.301,4.2
		c-6.601,0-6.25-4.45-6.25-9.501v-15.6l-2.7-0.1C369.416,20.851,368.065,18.75,368.815,17.75z"/>
	<path fill="#3F6B2D" d="M384.965,31.451c0-10.351,4.9-14.601,11.051-14.601s10.301,5,10.301,15.351s-4.15,13.851-10.301,13.851
		c-3.3,0-6.2-1.2-8.2-3.899c-0.35-0.451-0.25-1.351-0.55-1.9c-0.551-1-1.4-1.75-1.7-3.101
		C385.165,35.502,384.965,33.602,384.965,31.451z M387.915,39.451c-0.7,0.2-0.05,2.75,0.25,2.051c0.101-0.25,0.2-0.5,0.2-0.801
		C388.365,40.201,388.115,39.802,387.915,39.451z M402.916,31.451c0.7-4.65-0.399-12.551-6.4-12.551c-6,0-7.65,7.851-7.65,12.551
		s1.65,13.551,7.65,13.551C402.517,45.002,401.166,42.902,402.916,31.451z"/>
</g>
</svg>
