<?xml version="1.0" encoding="utf-8"?>
<!-- Generator: Adobe Illustrator 16.0.0, SVG Export Plug-In . SVG Version: 6.00 Build 0)  -->
<!DOCTYPE svg PUBLIC "-//W3C//DTD SVG 1.1//EN" "http://www.w3.org/Graphics/SVG/1.1/DTD/svg11.dtd">
<svg version="1.1" id="Layer_1" xmlns="http://www.w3.org/2000/svg" xmlns:xlink="http://www.w3.org/1999/xlink" x="0px" y="0px"
	 width="235px" height="226.5px" viewBox="0 0 235 226.5" enable-background="new 0 0 235 226.5" xml:space="preserve">
<circle fill="#C7E2E5" stroke="#416B6D" stroke-width="0.75" stroke-linecap="round" stroke-miterlimit="10" stroke-dasharray="5.5657" cx="117.5" cy="113.25" r="107.16"/>
<g>
	<path fill="#B5DC87" stroke="#492D08" stroke-width="0.75" stroke-linecap="round" stroke-miterlimit="10" d="M137.379,166.298
		c0,0-1.042-15.457-3.785-23.087c-2.742-7.631-12.275-14.125-12.275-14.125s-6.03,11.125-3.325,21.434
		C120.7,160.827,137.379,166.298,137.379,166.298z"/>
	<path fill="none" stroke="#492D08" stroke-width="0.75" stroke-linecap="round" stroke-miterlimit="10" d="M137.379,166.298
		c-15.175-11.6-7.391-26.108-16.062-37.212"/>
	<path fill="none" stroke="#492D08" stroke-width="0.75" stroke-linecap="round" stroke-miterlimit="10" d="M127.934,152.423
		c0.287,0.188-1.379,3.224-3.724,6.784"/>
	
		<line fill="none" stroke="#492D08" stroke-width="0.75" stroke-linecap="round" stroke-miterlimit="10" x1="129.523" y1="156.928" x2="126.947" y2="160.842"/>
	<path fill="none" stroke="#492D08" stroke-width="0.75" stroke-linecap="round" stroke-miterlimit="10" d="M124.834,136.023
		c3.727,2.455,6.914,4.18,7.126,3.857"/>
	<path fill="none" stroke="#492D08" stroke-width="0.75" stroke-linecap="round" stroke-miterlimit="10" d="M125.867,140.527
		c4.211,2.772,7.879,4.621,8.201,4.132"/>
	<path fill="#B5DC87" stroke="#492D08" stroke-width="0.75" stroke-linecap="round" stroke-miterlimit="10" d="M113.439,161.173
		c0,0,5.228-9.435,6.409-14.504c1.18-5.069-2.342-10.71-2.342-10.71s-8.025,5.541-10.248,12.205
		C105.037,154.826,113.439,161.173,113.439,161.173z"/>
	<path fill="none" stroke="#492D08" stroke-width="0.75" stroke-linecap="round" stroke-miterlimit="10" d="M113.439,161.173
		c-5.124-9.735,5.292-16.978,4.067-25.215"/>
	<path fill="none" stroke="#492D08" stroke-width="0.75" stroke-linecap="round" stroke-miterlimit="10" d="M112.783,151.135
		c0.108,0.166-2.093,1.674-4.923,3.37"/>
	
		<line fill="none" stroke="#492D08" stroke-width="0.75" stroke-linecap="round" stroke-miterlimit="10" x1="112.068" y1="154.122" x2="108.958" y2="155.986"/>
	<path fill="none" stroke="#492D08" stroke-width="0.75" stroke-linecap="round" stroke-miterlimit="10" d="M117.076,140.757
		c1.408,2.154,2.756,3.773,3.011,3.62"/>
	<path fill="none" stroke="#492D08" stroke-width="0.75" stroke-linecap="round" stroke-miterlimit="10" d="M116.012,143.639
		c1.591,2.435,3.194,4.217,3.582,3.983"/>
</g>
<path fill="#F2F7B5" stroke="#492D08" stroke-width="0.75" stroke-linecap="round" stroke-miterlimit="10" d="M98.723,73.507
	c4.325-6.487,5.767-33.878,29.193-21.624c23.426,12.253,2.407,27.398,2.883,34.599c0.477,7.201,18.021,37.571-3.964,51.538
	c-22.081,14.028-29.865-1.64-29.865-1.64s-14.815,6.224-24.464-18.183C61.962,91.528,94.398,79.995,98.723,73.507z"/>
<path fill="none" stroke="#492D08" stroke-width="0.75" stroke-linecap="round" stroke-miterlimit="10" d="M107.914,96.312
	c-3.348-1.553-12.975,4.587-13.562,12.099c-0.23,2.943-0.079,5.854,2.599,7.099c2.143,0.994,4.685,0.062,5.679-2.08
	c0.795-1.713,0.05-3.748-1.664-4.543c-1.371-0.636-2.998-0.04-3.634,1.332c-0.509,1.097-0.032,2.398,1.064,2.908
	c0.878,0.407,1.919,0.025,2.327-0.852c0.326-0.702,0.021-1.535-0.682-1.861"/>
<path fill="none" stroke="#492D08" stroke-width="0.75" stroke-linecap="round" stroke-miterlimit="10" d="M110.68,97.258
	c3.616,0.74,7.708,11.399,3.717,17.79c-1.564,2.504-3.416,4.757-6.308,4.165c-2.315-0.473-3.806-2.732-3.332-5.048
	c0.379-1.851,2.187-3.043,4.038-2.665c1.48,0.303,2.436,1.75,2.132,3.229c-0.242,1.187-1.399,1.949-2.584,1.707
	c-0.948-0.193-1.559-1.119-1.365-2.067c0.155-0.758,0.896-1.247,1.654-1.091"/>
<path fill="#492D08" d="M106.112,99.817c0,0-8.11,7.524-4.119,7.569C107.914,107.452,106.112,99.817,106.112,99.817z"/>
<path fill="#492D08" d="M110.606,101.366c0,0-3.513,6.655-0.035,8.616C115.727,112.892,110.606,101.366,110.606,101.366"/>
<path fill="none" stroke="#492D08" stroke-width="0.75" stroke-linecap="round" stroke-miterlimit="10" d="M96.561,145.229
	c1.792-1.193,2.275-3.614,1.081-5.406c-0.955-1.434-2.892-1.82-4.325-0.865c-1.146,0.766-1.456,2.314-0.692,3.459
	c0.611,0.918,1.851,1.166,2.768,0.555c0.734-0.49,0.932-1.479,0.443-2.214c-0.392-0.587-1.185-0.747-1.772-0.354
	c-0.469,0.312-0.596,0.947-0.283,1.418c0.25,0.375,0.758,0.477,1.134,0.227"/>
<g>
	<path fill="#B5DC87" stroke="#492D08" stroke-width="0.75" stroke-linecap="round" stroke-miterlimit="10" d="M114.318,16.744
		c0,0,12.336,9.37,17.202,15.858c4.865,6.487,5.045,18.02,5.045,18.02s-12.607-1.081-19.729-9.01
		C109.715,33.683,114.318,16.744,114.318,16.744z"/>
	<path fill="none" stroke="#492D08" stroke-width="0.75" stroke-linecap="round" stroke-miterlimit="10" d="M114.318,16.744
		c1.344,19.053,17.743,20.53,22.247,33.878"/>
	<path fill="none" stroke="#492D08" stroke-width="0.75" stroke-linecap="round" stroke-miterlimit="10" d="M120.712,32.261
		c0-0.342-3.45-0.619-7.713-0.619"/>
	<line fill="none" stroke="#492D08" stroke-linecap="round" stroke-miterlimit="10" x1="117.5" y1="28.5" x2="113.5" y2="28.5"/>
	<path fill="none" stroke="#492D08" stroke-width="0.75" stroke-linecap="round" stroke-miterlimit="10" d="M132.704,43.868
		c0-4.461,0.312-8.071,0.696-8.071"/>
	<path fill="none" stroke="#492D08" stroke-width="0.75" stroke-linecap="round" stroke-miterlimit="10" d="M129.512,40.53
		c0-5.042,0.473-9.122,1.059-9.122"/>
</g>
<path fill="none" stroke="#492D08" stroke-linecap="round" stroke-miterlimit="10" d="M142.062,61.746
	c-4.332-6.984-2.185-16.157,4.801-20.49c5.587-3.466,12.926-1.746,16.392,3.841c2.772,4.47,1.397,10.341-3.073,13.113
	c-3.574,2.219-8.271,1.118-10.49-2.457c-1.774-2.861-0.895-6.619,1.967-8.393c2.287-1.42,5.294-0.716,6.713,1.573
	c1.136,1.831,0.572,4.236-1.258,5.371c-1.465,0.909-3.389,0.458-4.297-1.006"/>
<path fill="none" stroke="#492D08" stroke-width="0.75" stroke-linecap="round" stroke-miterlimit="10" stroke-dasharray="2.7236" d="
	M100.086,75.699c3.817-5.833,5.089-30.464,25.766-19.444c20.678,11.019,2.125,24.637,2.545,31.112
	c0.42,6.475,15.906,33.783-3.5,46.344c-19.488,12.615-26.359-1.475-26.359-1.475s-13.077,5.597-21.593-16.351
	C67.638,91.904,96.269,81.533,100.086,75.699z"/>
<g>
	<path fill="#416B6D" d="M62.056,177.279c0,0-0.911-1.543,0.391-1.451c0,0,1.042,0.148,2.084,0.111
		c0.707-0.037,1.266-0.26,2.065-0.26c0.335,0,0.855,0.187,1.172,0.187c0.8,0,1.321-0.149,1.73-0.075
		c0.483,0.093,0.446,1.452,0.019,1.247c0,0-1.898-0.595-2.902,0.149c-0.187,0.129-0.391,0.595-0.446,1.265
		c-0.038,0.278,0.223,0.78,0.204,1.135c-0.019,0.334-0.223,0.595-0.242,0.968c-0.036,1.135-0.036,2.27-0.074,3.33
		c-0.074,2.456,0.038,6.325,0.038,6.325l-0.875,0.093c-0.837,0.094,0.316-12.818-0.187-13.302c0,0-0.335-0.242-1.302-0.112
		c-0.316,0.037-0.409,0.299-0.875,0.428C62.688,177.354,62.242,177.225,62.056,177.279z M62.242,189.094
		c-0.279,0.057-0.093,0.801,0.186,0.744C62.707,189.782,62.521,189.038,62.242,189.094z M64.01,191.326
		c-0.019,0.65,0.167,0.148,0.186,0.093C64.214,191.363,64.028,190.936,64.01,191.326z"/>
	<path fill="#416B6D" d="M73.034,181.188c0.67,0.428,1.655-1.451,2.828-1.451c1.451,0,2.66,0.8,2.623,3.479l-0.279,6.623l-0.8,0.465
		c0,0-0.466-0.465-0.428-0.837c0.148-1.786,0.056-5.879,0.056-5.879c-0.019-1.079,0.279-2.846-1.266-2.846
		c-0.893,0-2.995,1.061-2.734,1.842l-0.279,7.069l-0.521,0.466c0,0-0.78,0.093-0.744-0.187c0.559-4.949,0.727-11.98,0.521-13.47
		c-0.242-1.692,0.781-1.562,0.781-1.562l0.521,0.373L73.034,181.188z"/>
	<path fill="#416B6D" d="M74.281,188.703c0,0.111-0.037,0.205-0.074,0.297c-0.111,0.261-0.354-0.688-0.093-0.762
		C74.188,188.368,74.281,188.518,74.281,188.703z M83.137,185.428c0.875-0.558,4.781-0.242,4.781-0.242
		c0.298-0.056,0.316-1.06-0.019-2.25c-0.056-0.168-0.13-0.931-0.204-1.08c-0.148-0.278-0.187-0.056-0.335-0.334
		c-0.279-0.541-0.521-1.023-1.023-1.08c-0.148-0.019-0.261-0.465-0.335-0.502c-0.446-0.241-0.837-0.205-1.433-0.205
		c-0.744,0-1.525,0.242-2.083,0.502c-0.447,0.205-0.261,0.205-0.335,0.316c-0.67,1.023-1.507,2.215-1.693,4.614
		c-0.037,0.54-0.111,1.062,0,1.489c0.763,2.734,2.14,3.943,4.111,3.943c1.768,0,3.554-2.586,2.921-2.566l-0.111-0.242
		c-0.483-0.148-2.475,2.289-2.921,2.104c-0.409-0.168-1.842-0.484-2.679-1.545c-0.167-0.205-0.056-0.223-0.261-0.445
		c-0.559-0.577,0.13-0.969,0.13-2.457C81.648,185.447,82.653,185.727,83.137,185.428z M85.407,184.312
		c-1.34,0.242-3.535,0.391-3.535,0.391c-0.503,0.02-0.224-2.549,1.135-3.33c0.428-0.242,1.116-0.744,1.823-0.596
		c0.577,0.13,1.581,0.445,1.768,1.152c0.056,0.205,0.261,0.075,0.223,0.577c-0.074,0.931,0.242,1.823,0,1.897
		C86.82,184.404,85.835,184.238,85.407,184.312z M86.858,184.907c-0.224-0.335,0.074-0.818,0.074-0.818
		C86.784,184.016,87.138,185.316,86.858,184.907z"/>
	<path fill="#416B6D" d="M100.906,181.094c0.186-0.763,1.172-0.131,1.172-0.131s-0.391,3.07-1.47,5.526
		c-0.67,1.524-0.539,0.725-1.283,2.586c0,0-0.02,1.581-1.116,1.004c0,0-3.591-8.409-3.089-9.247
		c0.372-0.613,1.116-0.559,0.968,0.038c0,0,0.187-0.392,0.261,0.13c0.446,3.145,1.655,6.529,2.046,7.609
		C99.157,190.73,98.972,189.168,100.906,181.094z"/>
	<path fill="#416B6D" d="M97.466,188.703c0,0.111-0.037,0.205-0.075,0.297c-0.111,0.261-0.353-0.688-0.092-0.762
		C97.373,188.368,97.466,188.518,97.466,188.703z M106.321,185.428c0.874-0.558,4.781-0.242,4.781-0.242
		c0.298-0.056,0.316-1.06-0.019-2.25c-0.056-0.168-0.131-0.931-0.205-1.08c-0.148-0.278-0.186-0.056-0.335-0.334
		c-0.278-0.541-0.521-1.023-1.022-1.08c-0.149-0.019-0.261-0.465-0.335-0.502c-0.446-0.241-0.837-0.205-1.433-0.205
		c-0.744,0-1.525,0.242-2.084,0.502c-0.446,0.205-0.26,0.205-0.335,0.316c-0.669,1.023-1.507,2.215-1.692,4.614
		c-0.038,0.54-0.112,1.062,0,1.489c0.763,2.734,2.139,3.943,4.111,3.943c1.768,0,3.553-2.586,2.921-2.566l-0.112-0.242
		c-0.483-0.148-2.474,2.289-2.921,2.104c-0.409-0.168-1.842-0.484-2.679-1.545c-0.167-0.205-0.056-0.223-0.261-0.445
		c-0.558-0.577,0.131-0.969,0.131-2.457C104.833,185.447,105.838,185.727,106.321,185.428z M108.591,184.312
		c-1.339,0.242-3.534,0.391-3.534,0.391c-0.503,0.02-0.224-2.549,1.134-3.33c0.429-0.242,1.117-0.744,1.824-0.596
		c0.576,0.13,1.581,0.445,1.767,1.152c0.057,0.205,0.261,0.075,0.224,0.577c-0.074,0.931,0.242,1.823,0,1.897
		C110.005,184.404,109.019,184.238,108.591,184.312z M110.042,184.907c-0.224-0.335,0.074-0.818,0.074-0.818
		C109.968,184.016,110.321,185.316,110.042,184.907z"/>
	<path fill="#416B6D" d="M122.006,180.871l-0.54,0.186c-0.261,0.074-0.632-0.186-1.004,0.019c-0.298,0.019,0.409,1.47,0.409,2.233
		c0,1.99-1.471,3.534-3.461,3.534c-0.595,0-1.674-0.167-2.214-0.372c-0.204-0.354-1.265,0.596-1.265,1.098
		c0,1.303,7.795-0.278,7.795,3.609c0,0.762-0.299,3.125-4.41,3.125c-3.349,0-4.335-1.748-4.335-3.014
		c0-1.061,0.931-1.637,1.786-2.009c0.056-0.298-1.283-0.688-1.283-1.433c0-0.912,1.209-1.582,1.172-1.936
		c-0.744-0.875-1.023-1.432-1.023-2.643c0-2.084,1.562-3.535,3.628-3.535c0.818,0,1.562,0.242,2.232,0.727
		c0.67-0.502,1.451-0.875,2.324-0.781L122.006,180.871z M114.937,190.247c0.26-0.56-1.47,1.524-0.67,1.507
		c0.632-0.02,0.205-0.482,0.335-0.781C114.713,190.712,114.824,190.507,114.937,190.247z M116.257,189.447
		c-0.781,0.148-1.879,0.837-1.879,1.768c0,1.414,2.307,2.493,3.293,2.493c1.042,0,2.66-1.209,2.66-2.623
		c0-1.079-1.769-2.121-2.437-1.991L116.257,189.447z M117.299,180.498c-1.396,0-2.604,1.507-2.604,2.828
		c0,1.283,1.19,2.697,2.53,2.697c1.488,0,2.307-1.303,2.307-2.717C119.531,181.968,118.75,180.498,117.299,180.498z
		 M118.675,195.939c-0.223,0.131,0.149,0.633,0.335,0.559C119.383,196.367,118.898,195.811,118.675,195.939z"/>
	<path fill="#416B6D" d="M129.635,190.229L129.301,189c-1.062,0.298-1.768,1.602-2.978,1.602c-1.581,0-2.847-1.322-2.847-2.939
		c0-2.939,3.088-3.572,5.357-4.188l0.466-0.129v-0.578c0-1.172-0.278-1.953-1.991-1.805c-1.916,0.168-2.437,2.01-3.069,1.284
		l-0.167-0.392c-0.446-0.223,1.712-2.121,3.273-2.121c1.396,0,3.014,1.117,3.107,3.461l0.223,4.576
		c0.02,0.262,0.167,2.326-0.203,2.345L129.635,190.229z M124.314,189.633c0.11-0.26,0.147,0.596,0.147-0.223l-0.224-0.074
		C123.979,190.08,124.314,189.633,124.314,189.633z M129.207,184.404c0.13-0.93-4.744,1.266-4.744,3.106
		c0,0.856,1.042,1.712,1.916,1.712c1.154,0,3.07-1.135,2.922-1.674l-0.111-3.014L129.207,184.404z M125.096,181.633
		c0.67,0.018,1.451-0.465,1.116-0.893S124.557,181.615,125.096,181.633z M129.449,183.419c0,0-0.409,1.601-0.188,1.935
		C129.542,185.764,129.301,183.346,129.449,183.419z M129.635,189.335c0,0-0.203,0.11,0,0.446
		C130.323,190.936,129.486,189.261,129.635,189.335z"/>
	<path fill="#416B6D" d="M134.287,189.93c0,0-0.167,0.54-0.428,0.56c-0.299,0.018-0.559-0.56-0.559-0.56l-0.279-10.082
		c0,0,0.875-0.205,1.117,0.129c0.11,0.168,0.147,0.521,0.147,0.521l0.187,0.596c0.855-0.688,1.655-1.357,2.827-1.357
		c1.451,0,2.772,0.8,2.624,3.479c0,0,0.559,4.074-0.392,6.344c-0.074,0.205-0.261,0.559-0.261,0.559l-0.613,0.093
		c0,0-0.428,0.112-0.372-0.278c0.093-0.818,0.521-2.754,0.502-3.813c-0.019-0.912-0.224-2.345-0.224-2.345
		c-0.092-1.041,0-2.27-1.451-2.846c-1.637-0.65-2.064,0.875-2.641,1.562L134.287,189.93z"/>
	<path fill="#416B6D" d="M154.121,175.624c0.186,0.224,0.521,0.577,0.521,0.577s0.315,0.874,0.037,1.562
		c-0.168,0.408,0.223,2.157,0.057,3.812c-0.037,0.447,0.093,1.396,0.074,1.916c0,0.41-0.168,0.373-0.168,0.8
		c0,2.567,0.224,5.284,0.224,5.284s-0.298,0.707-0.707,0.781c-0.688,0.129-0.354-1.73-0.354-1.73
		c-0.688,0.855-1.654,1.973-2.789,1.973c-1.396,0-3.646-1.229-3.646-5.173c0-0.446,0.093-1.098,0.148-1.524
		c0.037-0.279-0.074-0.392-0.02-0.67c0.482-2.065,1.544-3.387,2.66-3.146c0.596,0.131-0.02-0.521,1.191-0.241
		c0.967,0.223,2.231,1.375,2.623,2.641c0,0-0.095-1.152-0.205-2.622c-0.111-1.544-0.242-3.423-0.02-3.964L154.121,175.624z
		 M153.639,182.656c-0.447-0.893-1.341-2.047-2.457-2.047c-1.005,0-1.562,0.856-2.047,1.601c-0.111,0.167-0.371,0.056-0.445,0.224
		c-0.316,0.67-0.465,1.433-0.465,2.064c0,1.768,0.893,3.125,1.433,4.298c0.11,0.242,1.544,0.818,1.952,0.818
		c1.023,0,1.619-1.321,2.029-2.195c0,0,0.129-1.433,0.129-2.362S153.639,182.656,153.639,182.656z M151.628,188.07
		c0,0-0.224,0.111,0,0.445C151.907,188.926,151.479,187.996,151.628,188.07z"/>
	<path fill="#416B6D" d="M158.662,177.335c0,0-0.316,0.315-0.559,0.315c-0.131,0-0.336-0.129-0.336-0.129s-0.465-0.373-0.502-0.709
		c-0.056-0.371,0.316-0.893,0.316-0.893s0.279-0.111,0.428-0.131c0.279-0.037,0.744,0.038,0.744,0.038s0.094,0.428,0.094,0.708
		C158.848,176.852,158.662,177.335,158.662,177.335z M158.848,190.303h-1.451c0,0,0.225-5.822-0.037-9.674
		c-0.019-0.205,0.037-0.596,0.037-0.596s0.597-0.112,0.895,0.037c0.111,0.056,0.277,0.242,0.277,0.242s0.188,0.129,0.095,1.619
		C158.477,184.907,158.848,190.303,158.848,190.303z"/>
	<path fill="#416B6D" d="M154.682,188.703c0,0.111-0.037,0.205-0.074,0.297c-0.111,0.261-0.354-0.688-0.094-0.762
		C154.588,188.368,154.682,188.518,154.682,188.703z M163.537,185.428c0.874-0.558,4.781-0.242,4.781-0.242
		c0.298-0.056,0.315-1.06-0.02-2.25c-0.056-0.168-0.131-0.931-0.205-1.08c-0.148-0.278-0.186-0.056-0.335-0.334
		c-0.278-0.541-0.521-1.023-1.022-1.08c-0.148-0.019-0.26-0.465-0.334-0.502c-0.447-0.241-0.838-0.205-1.434-0.205
		c-0.744,0-1.525,0.242-2.084,0.502c-0.445,0.205-0.261,0.205-0.335,0.316c-0.67,1.023-1.507,2.215-1.692,4.614
		c-0.037,0.54-0.111,1.062,0,1.489c0.764,2.734,2.14,3.943,4.111,3.943c1.768,0,3.555-2.586,2.922-2.566l-0.111-0.242
		c-0.484-0.148-2.475,2.289-2.922,2.104c-0.409-0.168-1.842-0.484-2.68-1.545c-0.168-0.205-0.056-0.223-0.26-0.445
		c-0.559-0.577,0.13-0.969,0.13-2.457C162.049,185.447,163.055,185.727,163.537,185.428z M165.807,184.312
		c-1.34,0.242-3.535,0.391-3.535,0.391c-0.502,0.02-0.223-2.549,1.137-3.33c0.428-0.242,1.115-0.744,1.822-0.596
		c0.576,0.13,1.582,0.445,1.768,1.152c0.057,0.205,0.261,0.075,0.225,0.577c-0.074,0.931,0.24,1.823,0,1.897
		C167.221,184.404,166.234,184.238,165.807,184.312z M167.258,184.907c-0.224-0.335,0.074-0.818,0.074-0.818
		C167.184,184.016,167.537,185.316,167.258,184.907z"/>
	<path fill="#416B6D" d="M170.014,180.07c0.278-0.372,1.228-0.037,1.228-0.037l0.073-3.07c0,0,0.094-0.335,0.225-0.427
		c0.298-0.224,0.967,0.315,0.967,0.315s0.148,0.856,0.038,1.842c-0.058,0.559,0.147,1.34,0.147,1.34s2.065-0.67,2.308,0.187
		c0.037,0.13,0.058,0.372,0.058,0.372l-0.336,0.596l-2.027,0.074c0,0,0,0.447,0,0.744c0,0.167-0.262,0.391-0.262,0.577
		c0,0.13,0.262,0.856,0.262,0.985c0,2.14,0,4.148,0,4.148c0,1.006-0.111,2.902,0.8,2.104c0.298-0.262,1.135-1.639,1.414-0.986
		l0.261,0.205c0.613,0.391-1.098,1.562-1.6,1.562c-2.457,0-2.326-1.656-2.326-3.535v-5.805l-1.006-0.037
		C170.234,181.225,169.732,180.441,170.014,180.07z"/>
</g>
</svg>
