<?xml version="1.0" encoding="utf-8"?>
<!-- Generator: Adobe Illustrator 16.0.0, SVG Export Plug-In . SVG Version: 6.00 Build 0)  -->
<!DOCTYPE svg PUBLIC "-//W3C//DTD SVG 1.1//EN" "http://www.w3.org/Graphics/SVG/1.1/DTD/svg11.dtd">
<svg version="1.1" id="Layer_1" xmlns="http://www.w3.org/2000/svg" xmlns:xlink="http://www.w3.org/1999/xlink" x="0px" y="0px"
	 width="185px" height="290px" viewBox="0 0 185 290" enable-background="new 0 0 185 290" xml:space="preserve">
<path opacity="0.6" fill="#FFFFFF" stroke="#E83658" stroke-width="0.9734" stroke-miterlimit="10" d="M167.145,250.095
	c0,0,8.326-2.33,8.354-6.89s-2.119-5.962-2.179-7.482s-0.124-6.345-1.168-8.473c-1.047-2.127-7.238-0.135-7.238-0.135
	s0.935-5.206-0.894-6.469c-1.829-1.261-6.337-1.245-8.432-2.244c-2.093-0.998-3.48-5.048-6.181-5.282
	c-2.703-0.232-3.496,2.755-3.496,2.755s-2.236-4.234-6.017-4.394c-3.783-0.16-4.827,3.164-7.114,3.481
	c-2.288,0.314-4.678-2.838-7.424-1.475c-2.744,1.363-1.949,5.493-1.949,5.493s-5.07-4.601-8.398-2.021
	c-3.329,2.58-3.357,4.554-5.146,6.845c-1.789,2.293-6.213,1.843-6.72,5.244c-0.51,3.404,1.981,6.998,1.981,6.998
	s-8.093,1.572-8.283,4.552c-0.19,2.981,0.95,2.521,1.017,7.357c0.064,4.839-2.571,5.354-1.082,10.148
	c1.489,4.793,7.891,3.229,7.891,3.229s-3.42,4.636,0.253,8.372c3.672,3.734,4.501,2.104,6.876,4.048
	c2.373,1.945,0.288,2.081,4.25,4.64c3.962,2.561,9.035-3.177,9.035-3.177s-0.678,8.158,2.89,9.485
	c3.565,1.325,6.018-0.528,8.633-1.193c2.615-0.664,3.957,1.423,9.926-0.006c5.968-1.433,2.39-13.735,2.39-13.735
	s7.804,9.146,11.893,6.084c4.089-3.066,5.856-7.703,7.065-9.839c1.209-2.135,5.325-3.916,6.29-8.365
	C175.131,253.196,167.145,250.095,167.145,250.095z"/>
<path opacity="0.7" fill="#FFFFFF" stroke="#E83658" stroke-width="0.9734" stroke-miterlimit="10" d="M157.035,177.209
	c0,0,5.573-1.561,5.593-4.612c0.018-3.052-1.419-3.99-1.46-5.008c-0.039-1.019-0.082-4.247-0.781-5.671
	c-0.701-1.424-4.845-0.091-4.845-0.091s0.625-3.484-0.599-4.33c-1.224-0.843-4.241-0.833-5.644-1.501
	c-1.401-0.668-2.329-3.38-4.138-3.535c-1.809-0.157-2.34,1.843-2.34,1.843s-1.496-2.834-4.026-2.941
	c-2.533-0.107-3.232,2.118-4.763,2.331c-1.532,0.211-3.132-1.899-4.97-0.987c-1.838,0.913-1.304,3.676-1.304,3.676
	s-3.395-3.079-5.622-1.353c-2.229,1.728-2.248,3.049-3.446,4.583c-1.197,1.535-4.158,1.233-4.498,3.51
	c-0.34,2.279,1.327,4.685,1.327,4.685s-5.418,1.052-5.544,3.047c-0.129,1.995,0.635,1.687,0.68,4.925
	c0.044,3.239-1.721,3.584-0.725,6.792c0.997,3.208,5.282,2.162,5.282,2.162s-2.289,3.104,0.169,5.604
	c2.459,2.5,3.013,1.407,4.604,2.709c1.588,1.302,0.192,1.394,2.844,3.106c2.652,1.713,6.049-2.127,6.049-2.127
	s-0.454,5.461,1.934,6.349c2.387,0.888,4.028-0.354,5.779-0.799c1.75-0.444,2.647,0.953,6.645-0.003
	c3.994-0.959,1.598-9.195,1.598-9.195s5.225,6.123,7.961,4.073c2.737-2.053,3.921-5.156,4.73-6.586
	c0.809-1.43,3.564-2.622,4.211-5.6C162.382,179.285,157.035,177.209,157.035,177.209z"/>
<path opacity="0.9" fill="#FFFFFF" stroke="#E83658" stroke-width="0.6782" stroke-miterlimit="10" d="M85.262,131.727
	c0,0,1.476-3.316,0.01-4.544c-1.466-1.231-2.495-0.911-3.002-1.299c-0.509-0.389-2.086-1.66-3.053-1.892
	c-0.967-0.229-1.982,2.304-1.982,2.304s-1.433-1.696-2.331-1.442c-0.897,0.253-2.099,1.714-2.984,2.125
	c-0.882,0.41-2.563-0.227-3.361,0.583c-0.799,0.812-0.047,1.868-0.047,1.868s-1.967-0.411-3.03,0.768
	c-1.065,1.181-0.27,2.41-0.78,3.233c-0.511,0.824-2.169,0.753-2.464,2.005c-0.294,1.252,1.253,2.1,1.253,2.1
	s-2.844,0.409-2.902,2.174c-0.057,1.768,0.574,2.307,0.837,3.499c0.261,1.193-1.07,2.502-0.104,3.577
	c0.964,1.075,2.792,1.232,2.792,1.232s-1.659,3.037-0.745,3.896c0.911,0.861,1.068,0.368,2.649,1.642
	c1.581,1.273,1.042,2.265,2.99,3.067c1.949,0.801,3.158-1.688,3.158-1.688s0.582,2.348,2.774,2.162
	c2.19-0.188,1.885-0.892,3.149-1.14c1.265-0.246,0.751,0.465,2.64-0.131c1.887-0.595,1.391-3.771,1.391-3.771
	s2.457,2.404,3.841,1.606c1.384-0.798,1.44-2.088,1.925-3.111c0.485-1.023,1.521-0.898,2.658-3.211
	c1.134-2.313-3.803-4.45-3.803-4.45s5.048-0.074,5.153-2.215c0.102-2.144-0.923-3.956-1.289-4.92
	c-0.368-0.963,0.159-2.77-1.021-4.272C88.403,129.976,85.262,131.727,85.262,131.727z"/>
<path opacity="0.9" fill="#FFFFFF" stroke="#E83658" stroke-width="0.4696" stroke-miterlimit="10" d="M33.91,139.644
	c0,0,1.022-2.297,0.007-3.146c-1.016-0.853-1.728-0.632-2.079-0.9c-0.354-0.269-1.445-1.148-2.114-1.31
	c-0.67-0.159-1.373,1.596-1.373,1.596s-0.991-1.175-1.613-0.999c-0.62,0.175-1.454,1.186-2.066,1.47
	c-0.611,0.284-1.775-0.157-2.328,0.405c-0.553,0.561-0.031,1.292-0.031,1.292s-1.363-0.285-2.099,0.531
	c-0.738,0.819-0.188,1.67-0.541,2.239c-0.353,0.569-1.501,0.522-1.706,1.388c-0.205,0.868,0.867,1.454,0.867,1.454
	s-1.968,0.283-2.009,1.506c-0.04,1.224,0.397,1.596,0.58,2.421c0.18,0.827-0.742,1.733-0.073,2.478
	c0.668,0.745,1.934,0.854,1.934,0.854s-1.149,2.102-0.515,2.697c0.63,0.597,0.738,0.255,1.834,1.137
	c1.094,0.882,0.721,1.569,2.069,2.125c1.35,0.555,2.187-1.17,2.187-1.17s0.404,1.627,1.922,1.498c1.517-0.129,1.304-0.617,2.18-0.79
	c0.876-0.169,0.52,0.323,1.828-0.09c1.307-0.413,0.963-2.613,0.963-2.613s1.701,1.665,2.659,1.112
	c0.958-0.552,0.997-1.446,1.333-2.154c0.334-0.708,1.052-0.622,1.839-2.223c0.787-1.602-2.633-3.082-2.633-3.082
	s3.497-0.051,3.57-1.533c0.07-1.484-0.64-2.739-0.895-3.407c-0.253-0.667,0.11-1.917-0.706-2.958
	C36.084,138.431,33.91,139.644,33.91,139.644z"/>
<circle fill="#E83658" stroke="#73D100" stroke-width="0.4799" stroke-miterlimit="10" cx="53.772" cy="200.029" r="3.197"/>
<circle fill="#E83658" stroke="#73D100" stroke-width="0.9705" stroke-miterlimit="10" cx="54.504" cy="175.356" r="5.764"/>
<circle fill="#E83658" stroke="#73D100" stroke-width="0.4404" stroke-miterlimit="10" cx="11.078" cy="121.656" r="2.616"/>
<circle fill="#E83658" stroke="#73D100" stroke-width="0.9705" stroke-miterlimit="10" cx="62.501" cy="85.099" r="5.764"/>
<circle fill="#E83658" stroke="#73D100" stroke-width="0.4799" stroke-miterlimit="10" cx="96.762" cy="68.999" r="3.197"/>
<circle fill="#E83658" stroke="#73D100" stroke-width="0.4799" stroke-miterlimit="10" cx="54.762" cy="11.999" r="3.197"/>
<circle fill="#E83658" stroke="#73D100" stroke-width="0.9705" stroke-miterlimit="10" cx="129.501" cy="38.099" r="5.764"/>
<circle fill="#E83658" stroke="#73D100" stroke-width="0.4799" stroke-miterlimit="10" cx="62.762" cy="65.999" r="3.197"/>
<path opacity="0.9" fill="#FFFFFF" stroke="#E83658" stroke-width="0.3568" stroke-miterlimit="10" d="M44.609,110.309
	c0,0,1.518-1.159,1.151-2.095c-0.367-0.939-0.922-1.051-1.058-1.357c-0.137-0.308-0.544-1.292-0.933-1.644
	c-0.389-0.35-1.497,0.564-1.497,0.564s-0.232-1.145-0.711-1.253c-0.477-0.109-1.401,0.261-1.913,0.227
	c-0.511-0.033-1.126-0.751-1.7-0.578c-0.573,0.172-0.492,0.85-0.492,0.85s-0.805-0.687-1.593-0.41
	c-0.791,0.277-0.733,1.045-1.176,1.296c-0.443,0.25-1.191-0.199-1.643,0.304c-0.453,0.504,0.048,1.285,0.048,1.285
	s-1.415-0.528-1.888,0.272c-0.473,0.801-0.316,1.209-0.496,1.825c-0.182,0.618-1.125,0.885-0.951,1.626
	c0.175,0.739,0.978,1.273,0.978,1.273s-1.531,0.982-1.326,1.61c0.203,0.627,0.399,0.438,0.809,1.426
	c0.408,0.986-0.09,1.308,0.606,2.169c0.698,0.862,1.884,0.017,1.884,0.017s-0.323,1.232,0.736,1.699
	c1.058,0.466,1.095,0.064,1.741,0.268c0.646,0.207,0.229,0.405,1.252,0.606c1.021,0.201,1.593-1.391,1.593-1.391
	s0.528,1.73,1.368,1.711c0.84-0.02,1.191-0.601,1.673-0.951c0.481-0.35,0.928-0.031,2.037-0.811
	c1.107-0.782-0.633-3.015-0.633-3.015s2.35,1.24,2.938,0.279c0.588-0.964,0.572-2.059,0.645-2.598
	c0.074-0.536,0.772-1.238,0.607-2.229C46.5,110.292,44.609,110.309,44.609,110.309z"/>
<circle fill="#E83658" stroke="#73D100" stroke-width="0.4799" stroke-miterlimit="10" cx="16.772" cy="223.029" r="3.197"/>
<circle fill="#E83658" stroke="#73D100" stroke-width="0.4799" stroke-miterlimit="10" cx="16.762" cy="6.999" r="3.197"/>
<circle fill="#E83658" stroke="#73D100" stroke-width="0.4404" stroke-miterlimit="10" cx="8.078" cy="3.656" r="2.616"/>
<circle fill="#E83658" stroke="#73D100" stroke-width="0.4404" stroke-miterlimit="10" cx="150.078" cy="79.656" r="2.617"/>
</svg>
