<?xml version="1.0" encoding="utf-8"?>
<!-- Generator: Adobe Illustrator 16.0.0, SVG Export Plug-In . SVG Version: 6.00 Build 0)  -->
<!DOCTYPE svg PUBLIC "-//W3C//DTD SVG 1.1//EN" "http://www.w3.org/Graphics/SVG/1.1/DTD/svg11.dtd">
<svg version="1.1" id="Layer_1" xmlns="http://www.w3.org/2000/svg" xmlns:xlink="http://www.w3.org/1999/xlink" x="0px" y="0px"
	 width="209px" height="234px" viewBox="0 0 209 234" enable-background="new 0 0 209 234" xml:space="preserve">
<path opacity="0.9" fill="#FFFFFF" stroke="#E83658" stroke-width="0.6782" stroke-miterlimit="10" d="M111.939,165.541
	c0,0,2.859-2.237,2.141-4.009c-0.719-1.775-1.776-1.974-2.043-2.555c-0.268-0.582-1.064-2.444-1.81-3.103
	c-0.747-0.656-2.831,1.106-2.831,1.106s-0.469-2.169-1.382-2.366c-0.911-0.197-2.657,0.53-3.632,0.478
	c-0.972-0.052-2.158-1.402-3.243-1.061c-1.086,0.341-0.917,1.627-0.917,1.627s-1.545-1.285-3.036-0.742
	c-1.495,0.544-1.369,2.002-2.206,2.49c-0.837,0.488-2.27-0.352-3.117,0.616c-0.847,0.968,0.122,2.442,0.122,2.442
	s-2.704-0.973-3.583,0.56c-0.879,1.535-0.574,2.307-0.901,3.482c-0.33,1.176-2.118,1.708-1.77,3.111
	c0.348,1.401,1.889,2.397,1.889,2.397s-2.889,1.905-2.485,3.092c0.401,1.188,0.771,0.826,1.57,2.693
	c0.8,1.866-0.141,2.489,1.203,4.111c1.346,1.622,3.581-0.011,3.581-0.011s-0.586,2.347,1.436,3.21
	c2.023,0.86,2.083,0.096,3.316,0.469c1.232,0.376,0.445,0.762,2.393,1.122c1.946,0.359,2.997-2.68,2.997-2.68
	s1.043,3.275,2.641,3.219c1.596-0.056,2.25-1.169,3.158-1.845c0.908-0.676,1.764-0.08,3.853-1.59
	c2.087-1.512-1.273-5.713-1.273-5.713s4.494,2.301,5.592,0.459c1.095-1.846,1.038-3.927,1.167-4.95
	c0.127-1.023,1.438-2.372,1.102-4.252C115.535,165.467,111.939,165.541,111.939,165.541z"/>
<path opacity="0.9" fill="#FFFFFF" stroke="#E83658" stroke-width="0.4696" stroke-miterlimit="10" d="M62.87,148.459
	c0,0,1.979-1.549,1.481-2.776c-0.498-1.229-1.23-1.368-1.414-1.77c-0.186-0.403-0.738-1.692-1.253-2.148
	c-0.517-0.454-1.961,0.766-1.961,0.766s-0.324-1.502-0.957-1.638c-0.63-0.136-1.84,0.366-2.514,0.329
	c-0.673-0.036-1.494-0.97-2.246-0.733c-0.751,0.236-0.634,1.127-0.634,1.127s-1.07-0.891-2.103-0.515
	c-1.036,0.377-0.948,1.387-1.527,1.725c-0.579,0.337-1.571-0.243-2.158,0.426c-0.587,0.67,0.084,1.691,0.084,1.691
	s-1.871-0.672-2.481,0.389c-0.609,1.062-0.397,1.596-0.623,2.411c-0.229,0.814-1.467,1.183-1.226,2.154
	c0.241,0.972,1.307,1.661,1.307,1.661s-2,1.318-1.719,2.141c0.276,0.823,0.533,0.572,1.087,1.864
	c0.553,1.292-0.099,1.724,0.832,2.847c0.933,1.123,2.48-0.008,2.48-0.008s-0.405,1.626,0.996,2.224
	c1.4,0.597,1.441,0.066,2.295,0.324c0.853,0.261,0.308,0.529,1.657,0.777c1.348,0.249,2.076-1.856,2.076-1.856
	s0.722,2.269,1.827,2.229c1.105-0.038,1.559-0.809,2.188-1.277c0.627-0.468,1.221-0.056,2.667-1.101
	c1.446-1.046-0.881-3.957-0.881-3.957s3.113,1.594,3.873,0.32c0.758-1.278,0.719-2.72,0.807-3.429
	c0.088-0.708,0.997-1.642,0.763-2.944C65.359,148.408,62.87,148.459,62.87,148.459z"/>
<circle fill="#E83658" stroke="#73D100" stroke-width="0.4799" stroke-miterlimit="10" cx="52.103" cy="211.109" r="3.197"/>
<circle fill="#E83658" stroke="#73D100" stroke-width="0.9705" stroke-miterlimit="10" cx="64.317" cy="189.659" r="5.764"/>
<circle fill="#E83658" stroke="#73D100" stroke-width="0.4404" stroke-miterlimit="10" cx="51.136" cy="121.867" r="2.616"/>
<circle fill="#E83658" stroke="#73D100" stroke-width="0.9705" stroke-miterlimit="10" cx="113.696" cy="113.684" r="5.764"/>
<circle fill="#E83658" stroke="#73D100" stroke-width="0.4799" stroke-miterlimit="10" cx="151.506" cy="115.526" r="3.197"/>
<circle fill="#E83658" stroke="#73D100" stroke-width="0.4799" stroke-miterlimit="10" cx="141.131" cy="45.488" r="3.196"/>
<circle fill="#E83658" stroke="#73D100" stroke-width="0.9705" stroke-miterlimit="10" cx="194.912" cy="103.581" r="5.765"/>
<circle fill="#E83658" stroke="#73D100" stroke-width="0.4799" stroke-miterlimit="10" cx="122.881" cy="96.936" r="3.197"/>
<circle fill="#E83658" stroke="#73D100" stroke-width="0.4799" stroke-miterlimit="10" cx="8.639" cy="214.078" r="3.196"/>
<circle fill="#E83658" stroke="#73D100" stroke-width="0.4799" stroke-miterlimit="10" cx="63.91" cy="29.256" r="3.196"/>
<circle fill="#E83658" stroke="#73D100" stroke-width="0.4404" stroke-miterlimit="10" cx="187.808" cy="6.232" r="2.616"/>
<circle fill="#E83658" stroke="#73D100" stroke-width="0.4404" stroke-miterlimit="10" cx="193.604" cy="149.935" r="2.617"/>
<path opacity="0.9" fill="#FFFFFF" stroke="#E83658" stroke-width="0.3568" stroke-miterlimit="10" d="M95.073,196.564
	c0,0,1.885-0.312,1.999-1.311c0.117-1.002-0.322-1.361-0.298-1.695c0.023-0.336,0.124-1.396-0.054-1.889
	c-0.18-0.492-1.586-0.204-1.586-0.204s0.332-1.12-0.041-1.44c-0.369-0.32-1.359-0.427-1.795-0.696
	c-0.437-0.269-0.643-1.191-1.23-1.308c-0.588-0.115-0.834,0.521-0.834,0.521s-0.389-0.983-1.214-1.108
	c-0.828-0.127-1.138,0.579-1.647,0.593c-0.508,0.015-0.958-0.734-1.593-0.501c-0.637,0.232-0.561,1.157-0.561,1.157
	s-1.002-1.13-1.796-0.644c-0.793,0.485-0.846,0.92-1.293,1.379c-0.45,0.461-1.409,0.254-1.602,0.99
	c-0.193,0.734,0.266,1.584,0.266,1.584s-1.812,0.148-1.926,0.801c-0.115,0.648,0.147,0.574,0.046,1.639
	c-0.102,1.062-0.693,1.113-0.481,2.2c0.213,1.089,1.656,0.897,1.656,0.897s-0.863,0.938-0.146,1.846
	c0.716,0.908,0.937,0.57,1.412,1.053c0.473,0.484,0.012,0.465,0.821,1.122c0.808,0.656,2.06-0.481,2.06-0.481
	s-0.346,1.775,0.406,2.152c0.75,0.376,1.334,0.027,1.924-0.057c0.589-0.082,0.834,0.408,2.18,0.239
	c1.344-0.172,0.854-2.96,0.854-2.96s1.494,2.197,2.465,1.624c0.971-0.576,1.47-1.551,1.787-1.992
	c0.316-0.438,1.262-0.731,1.581-1.685C96.752,197.436,95.073,196.564,95.073,196.564z"/>
<circle fill="#E83658" stroke="#73D100" stroke-width="0.9705" stroke-miterlimit="10" cx="78.912" cy="25.581" r="5.765"/>
</svg>
